<?xml version="1.0" encoding="utf-8" standalone="no"?>
<!DOCTYPE svg PUBLIC "-//W3C//DTD SVG 1.1//EN"
  "http://www.w3.org/Graphics/SVG/1.1/DTD/svg11.dtd">
<svg xmlns:xlink="http://www.w3.org/1999/xlink" width="624.33pt" height="409.599pt" viewBox="0 0 624.33 409.599" xmlns="http://www.w3.org/2000/svg" version="1.1">
 <metadata>
  <rdf:RDF xmlns:dc="http://purl.org/dc/elements/1.1/" xmlns:cc="http://creativecommons.org/ns#" xmlns:rdf="http://www.w3.org/1999/02/22-rdf-syntax-ns#">
   <cc:Work>
    <dc:type rdf:resource="http://purl.org/dc/dcmitype/StillImage"/>
    <dc:date>2024-04-14T01:07:12.571493</dc:date>
    <dc:format>image/svg+xml</dc:format>
    <dc:creator>
     <cc:Agent>
      <dc:title>Matplotlib v3.8.2, https://matplotlib.org/</dc:title>
     </cc:Agent>
    </dc:creator>
   </cc:Work>
  </rdf:RDF>
 </metadata>
 <defs>
  <style type="text/css">*{stroke-linejoin: round; stroke-linecap: butt}</style>
 </defs>
 <g id="figure_1">
  <g id="patch_1">
   <path d="M 0 409.599 
L 624.33 409.599 
L 624.33 0 
L 0 0 
z
" style="fill: #ffffff"/>
  </g>
  <g id="axes_1">
   <g id="patch_2">
    <path d="M 59.13 360.429 
L 617.13 360.429 
L 617.13 27.789 
L 59.13 27.789 
z
" style="fill: #ffffff"/>
   </g>
   <g id="matplotlib.axis_1">
    <g id="xtick_1">
     <g id="line2d_1">
      <path d="M 102.359657 360.429 
L 102.359657 27.789 
" clip-path="url(#p535148e7d7)" style="fill: none; stroke: #b0b0b0; stroke-width: 0.8; stroke-linecap: square"/>
     </g>
     <g id="line2d_2">
      <defs>
       <path id="m10596a71da" d="M 0 0 
L 0 3.5 
" style="stroke: #000000; stroke-width: 0.8"/>
      </defs>
      <g>
       <use xlink:href="#m10596a71da" x="102.359657" y="360.429" style="stroke: #000000; stroke-width: 0.8"/>
      </g>
     </g>
     <g id="text_1">
      <!-- 12:45:00 -->
      <g transform="translate(66.429657 379.5865) scale(0.16 -0.16)">
       <defs>
        <path id="DejaVuSans-31" d="M 794 531 
L 1825 531 
L 1825 4091 
L 703 3866 
L 703 4441 
L 1819 4666 
L 2450 4666 
L 2450 531 
L 3481 531 
L 3481 0 
L 794 0 
L 794 531 
z
" transform="scale(0.015625)"/>
        <path id="DejaVuSans-32" d="M 1228 531 
L 3431 531 
L 3431 0 
L 469 0 
L 469 531 
Q 828 903 1448 1529 
Q 2069 2156 2228 2338 
Q 2531 2678 2651 2914 
Q 2772 3150 2772 3378 
Q 2772 3750 2511 3984 
Q 2250 4219 1831 4219 
Q 1534 4219 1204 4116 
Q 875 4013 500 3803 
L 500 4441 
Q 881 4594 1212 4672 
Q 1544 4750 1819 4750 
Q 2544 4750 2975 4387 
Q 3406 4025 3406 3419 
Q 3406 3131 3298 2873 
Q 3191 2616 2906 2266 
Q 2828 2175 2409 1742 
Q 1991 1309 1228 531 
z
" transform="scale(0.015625)"/>
        <path id="DejaVuSans-3a" d="M 750 794 
L 1409 794 
L 1409 0 
L 750 0 
L 750 794 
z
M 750 3309 
L 1409 3309 
L 1409 2516 
L 750 2516 
L 750 3309 
z
" transform="scale(0.015625)"/>
        <path id="DejaVuSans-34" d="M 2419 4116 
L 825 1625 
L 2419 1625 
L 2419 4116 
z
M 2253 4666 
L 3047 4666 
L 3047 1625 
L 3713 1625 
L 3713 1100 
L 3047 1100 
L 3047 0 
L 2419 0 
L 2419 1100 
L 313 1100 
L 313 1709 
L 2253 4666 
z
" transform="scale(0.015625)"/>
        <path id="DejaVuSans-35" d="M 691 4666 
L 3169 4666 
L 3169 4134 
L 1269 4134 
L 1269 2991 
Q 1406 3038 1543 3061 
Q 1681 3084 1819 3084 
Q 2600 3084 3056 2656 
Q 3513 2228 3513 1497 
Q 3513 744 3044 326 
Q 2575 -91 1722 -91 
Q 1428 -91 1123 -41 
Q 819 9 494 109 
L 494 744 
Q 775 591 1075 516 
Q 1375 441 1709 441 
Q 2250 441 2565 725 
Q 2881 1009 2881 1497 
Q 2881 1984 2565 2268 
Q 2250 2553 1709 2553 
Q 1456 2553 1204 2497 
Q 953 2441 691 2322 
L 691 4666 
z
" transform="scale(0.015625)"/>
        <path id="DejaVuSans-30" d="M 2034 4250 
Q 1547 4250 1301 3770 
Q 1056 3291 1056 2328 
Q 1056 1369 1301 889 
Q 1547 409 2034 409 
Q 2525 409 2770 889 
Q 3016 1369 3016 2328 
Q 3016 3291 2770 3770 
Q 2525 4250 2034 4250 
z
M 2034 4750 
Q 2819 4750 3233 4129 
Q 3647 3509 3647 2328 
Q 3647 1150 3233 529 
Q 2819 -91 2034 -91 
Q 1250 -91 836 529 
Q 422 1150 422 2328 
Q 422 3509 836 4129 
Q 1250 4750 2034 4750 
z
" transform="scale(0.015625)"/>
       </defs>
       <use xlink:href="#DejaVuSans-31"/>
       <use xlink:href="#DejaVuSans-32" x="63.623047"/>
       <use xlink:href="#DejaVuSans-3a" x="127.246094"/>
       <use xlink:href="#DejaVuSans-34" x="160.9375"/>
       <use xlink:href="#DejaVuSans-35" x="224.560547"/>
       <use xlink:href="#DejaVuSans-3a" x="288.183594"/>
       <use xlink:href="#DejaVuSans-30" x="321.875"/>
       <use xlink:href="#DejaVuSans-30" x="385.498047"/>
      </g>
     </g>
    </g>
    <g id="xtick_2">
     <g id="line2d_3">
      <path d="M 240.27462 360.429 
L 240.27462 27.789 
" clip-path="url(#p535148e7d7)" style="fill: none; stroke: #b0b0b0; stroke-width: 0.8; stroke-linecap: square"/>
     </g>
     <g id="line2d_4">
      <g>
       <use xlink:href="#m10596a71da" x="240.27462" y="360.429" style="stroke: #000000; stroke-width: 0.8"/>
      </g>
     </g>
     <g id="text_2">
      <!-- 12:45:05 -->
      <g transform="translate(204.34462 379.5865) scale(0.16 -0.16)">
       <use xlink:href="#DejaVuSans-31"/>
       <use xlink:href="#DejaVuSans-32" x="63.623047"/>
       <use xlink:href="#DejaVuSans-3a" x="127.246094"/>
       <use xlink:href="#DejaVuSans-34" x="160.9375"/>
       <use xlink:href="#DejaVuSans-35" x="224.560547"/>
       <use xlink:href="#DejaVuSans-3a" x="288.183594"/>
       <use xlink:href="#DejaVuSans-30" x="321.875"/>
       <use xlink:href="#DejaVuSans-35" x="385.498047"/>
      </g>
     </g>
    </g>
    <g id="xtick_3">
     <g id="line2d_5">
      <path d="M 378.18959 360.429 
L 378.18959 27.789 
" clip-path="url(#p535148e7d7)" style="fill: none; stroke: #b0b0b0; stroke-width: 0.8; stroke-linecap: square"/>
     </g>
     <g id="line2d_6">
      <g>
       <use xlink:href="#m10596a71da" x="378.18959" y="360.429" style="stroke: #000000; stroke-width: 0.8"/>
      </g>
     </g>
     <g id="text_3">
      <!-- 12:45:10 -->
      <g transform="translate(342.25959 379.5865) scale(0.16 -0.16)">
       <use xlink:href="#DejaVuSans-31"/>
       <use xlink:href="#DejaVuSans-32" x="63.623047"/>
       <use xlink:href="#DejaVuSans-3a" x="127.246094"/>
       <use xlink:href="#DejaVuSans-34" x="160.9375"/>
       <use xlink:href="#DejaVuSans-35" x="224.560547"/>
       <use xlink:href="#DejaVuSans-3a" x="288.183594"/>
       <use xlink:href="#DejaVuSans-31" x="321.875"/>
       <use xlink:href="#DejaVuSans-30" x="385.498047"/>
      </g>
     </g>
    </g>
    <g id="xtick_4">
     <g id="line2d_7">
      <path d="M 516.104553 360.429 
L 516.104553 27.789 
" clip-path="url(#p535148e7d7)" style="fill: none; stroke: #b0b0b0; stroke-width: 0.8; stroke-linecap: square"/>
     </g>
     <g id="line2d_8">
      <g>
       <use xlink:href="#m10596a71da" x="516.104553" y="360.429" style="stroke: #000000; stroke-width: 0.8"/>
      </g>
     </g>
     <g id="text_4">
      <!-- 12:45:15 -->
      <g transform="translate(480.174553 379.5865) scale(0.16 -0.16)">
       <use xlink:href="#DejaVuSans-31"/>
       <use xlink:href="#DejaVuSans-32" x="63.623047"/>
       <use xlink:href="#DejaVuSans-3a" x="127.246094"/>
       <use xlink:href="#DejaVuSans-34" x="160.9375"/>
       <use xlink:href="#DejaVuSans-35" x="224.560547"/>
       <use xlink:href="#DejaVuSans-3a" x="288.183594"/>
       <use xlink:href="#DejaVuSans-31" x="321.875"/>
       <use xlink:href="#DejaVuSans-35" x="385.498047"/>
      </g>
     </g>
    </g>
    <g id="text_5">
     <!-- Time -->
     <g transform="translate(318.55625 399.0715) scale(0.16 -0.16)">
      <defs>
       <path id="DejaVuSans-54" d="M -19 4666 
L 3928 4666 
L 3928 4134 
L 2272 4134 
L 2272 0 
L 1638 0 
L 1638 4134 
L -19 4134 
L -19 4666 
z
" transform="scale(0.015625)"/>
       <path id="DejaVuSans-69" d="M 603 3500 
L 1178 3500 
L 1178 0 
L 603 0 
L 603 3500 
z
M 603 4863 
L 1178 4863 
L 1178 4134 
L 603 4134 
L 603 4863 
z
" transform="scale(0.015625)"/>
       <path id="DejaVuSans-6d" d="M 3328 2828 
Q 3544 3216 3844 3400 
Q 4144 3584 4550 3584 
Q 5097 3584 5394 3201 
Q 5691 2819 5691 2113 
L 5691 0 
L 5113 0 
L 5113 2094 
Q 5113 2597 4934 2840 
Q 4756 3084 4391 3084 
Q 3944 3084 3684 2787 
Q 3425 2491 3425 1978 
L 3425 0 
L 2847 0 
L 2847 2094 
Q 2847 2600 2669 2842 
Q 2491 3084 2119 3084 
Q 1678 3084 1418 2786 
Q 1159 2488 1159 1978 
L 1159 0 
L 581 0 
L 581 3500 
L 1159 3500 
L 1159 2956 
Q 1356 3278 1631 3431 
Q 1906 3584 2284 3584 
Q 2666 3584 2933 3390 
Q 3200 3197 3328 2828 
z
" transform="scale(0.015625)"/>
       <path id="DejaVuSans-65" d="M 3597 1894 
L 3597 1613 
L 953 1613 
Q 991 1019 1311 708 
Q 1631 397 2203 397 
Q 2534 397 2845 478 
Q 3156 559 3463 722 
L 3463 178 
Q 3153 47 2828 -22 
Q 2503 -91 2169 -91 
Q 1331 -91 842 396 
Q 353 884 353 1716 
Q 353 2575 817 3079 
Q 1281 3584 2069 3584 
Q 2775 3584 3186 3129 
Q 3597 2675 3597 1894 
z
M 3022 2063 
Q 3016 2534 2758 2815 
Q 2500 3097 2075 3097 
Q 1594 3097 1305 2825 
Q 1016 2553 972 2059 
L 3022 2063 
z
" transform="scale(0.015625)"/>
      </defs>
      <use xlink:href="#DejaVuSans-54"/>
      <use xlink:href="#DejaVuSans-69" x="57.958984"/>
      <use xlink:href="#DejaVuSans-6d" x="85.742188"/>
      <use xlink:href="#DejaVuSans-65" x="183.154297"/>
     </g>
    </g>
   </g>
   <g id="matplotlib.axis_2">
    <g id="ytick_1">
     <g id="line2d_9">
      <path d="M 59.13 345.425352 
L 617.13 345.425352 
" clip-path="url(#p535148e7d7)" style="fill: none; stroke: #b0b0b0; stroke-width: 0.8; stroke-linecap: square"/>
     </g>
     <g id="line2d_10">
      <defs>
       <path id="md131855f95" d="M 0 0 
L -3.5 0 
" style="stroke: #000000; stroke-width: 0.8"/>
      </defs>
      <g>
       <use xlink:href="#md131855f95" x="59.13" y="345.425352" style="stroke: #000000; stroke-width: 0.8"/>
      </g>
     </g>
     <g id="text_6">
      <!-- 0.0 -->
      <g transform="translate(26.685 351.504102) scale(0.16 -0.16)">
       <defs>
        <path id="DejaVuSans-2e" d="M 684 794 
L 1344 794 
L 1344 0 
L 684 0 
L 684 794 
z
" transform="scale(0.015625)"/>
       </defs>
       <use xlink:href="#DejaVuSans-30"/>
       <use xlink:href="#DejaVuSans-2e" x="63.623047"/>
       <use xlink:href="#DejaVuSans-30" x="95.410156"/>
      </g>
     </g>
    </g>
    <g id="ytick_2">
     <g id="line2d_11">
      <path d="M 59.13 287.249131 
L 617.13 287.249131 
" clip-path="url(#p535148e7d7)" style="fill: none; stroke: #b0b0b0; stroke-width: 0.8; stroke-linecap: square"/>
     </g>
     <g id="line2d_12">
      <g>
       <use xlink:href="#md131855f95" x="59.13" y="287.249131" style="stroke: #000000; stroke-width: 0.8"/>
      </g>
     </g>
     <g id="text_7">
      <!-- 0.5 -->
      <g transform="translate(26.685 293.327881) scale(0.16 -0.16)">
       <use xlink:href="#DejaVuSans-30"/>
       <use xlink:href="#DejaVuSans-2e" x="63.623047"/>
       <use xlink:href="#DejaVuSans-35" x="95.410156"/>
      </g>
     </g>
    </g>
    <g id="ytick_3">
     <g id="line2d_13">
      <path d="M 59.13 229.072909 
L 617.13 229.072909 
" clip-path="url(#p535148e7d7)" style="fill: none; stroke: #b0b0b0; stroke-width: 0.8; stroke-linecap: square"/>
     </g>
     <g id="line2d_14">
      <g>
       <use xlink:href="#md131855f95" x="59.13" y="229.072909" style="stroke: #000000; stroke-width: 0.8"/>
      </g>
     </g>
     <g id="text_8">
      <!-- 1.0 -->
      <g transform="translate(26.685 235.151659) scale(0.16 -0.16)">
       <use xlink:href="#DejaVuSans-31"/>
       <use xlink:href="#DejaVuSans-2e" x="63.623047"/>
       <use xlink:href="#DejaVuSans-30" x="95.410156"/>
      </g>
     </g>
    </g>
    <g id="ytick_4">
     <g id="line2d_15">
      <path d="M 59.13 170.896688 
L 617.13 170.896688 
" clip-path="url(#p535148e7d7)" style="fill: none; stroke: #b0b0b0; stroke-width: 0.8; stroke-linecap: square"/>
     </g>
     <g id="line2d_16">
      <g>
       <use xlink:href="#md131855f95" x="59.13" y="170.896688" style="stroke: #000000; stroke-width: 0.8"/>
      </g>
     </g>
     <g id="text_9">
      <!-- 1.5 -->
      <g transform="translate(26.685 176.975438) scale(0.16 -0.16)">
       <use xlink:href="#DejaVuSans-31"/>
       <use xlink:href="#DejaVuSans-2e" x="63.623047"/>
       <use xlink:href="#DejaVuSans-35" x="95.410156"/>
      </g>
     </g>
    </g>
    <g id="ytick_5">
     <g id="line2d_17">
      <path d="M 59.13 112.720466 
L 617.13 112.720466 
" clip-path="url(#p535148e7d7)" style="fill: none; stroke: #b0b0b0; stroke-width: 0.8; stroke-linecap: square"/>
     </g>
     <g id="line2d_18">
      <g>
       <use xlink:href="#md131855f95" x="59.13" y="112.720466" style="stroke: #000000; stroke-width: 0.8"/>
      </g>
     </g>
     <g id="text_10">
      <!-- 2.0 -->
      <g transform="translate(26.685 118.799216) scale(0.16 -0.16)">
       <use xlink:href="#DejaVuSans-32"/>
       <use xlink:href="#DejaVuSans-2e" x="63.623047"/>
       <use xlink:href="#DejaVuSans-30" x="95.410156"/>
      </g>
     </g>
    </g>
    <g id="ytick_6">
     <g id="line2d_19">
      <path d="M 59.13 54.544244 
L 617.13 54.544244 
" clip-path="url(#p535148e7d7)" style="fill: none; stroke: #b0b0b0; stroke-width: 0.8; stroke-linecap: square"/>
     </g>
     <g id="line2d_20">
      <g>
       <use xlink:href="#md131855f95" x="59.13" y="54.544244" style="stroke: #000000; stroke-width: 0.8"/>
      </g>
     </g>
     <g id="text_11">
      <!-- 2.5 -->
      <g transform="translate(26.685 60.622994) scale(0.16 -0.16)">
       <use xlink:href="#DejaVuSans-32"/>
       <use xlink:href="#DejaVuSans-2e" x="63.623047"/>
       <use xlink:href="#DejaVuSans-35" x="95.410156"/>
      </g>
     </g>
    </g>
    <g id="text_12">
     <!-- GHz -->
     <g transform="translate(19.3575 210.52275) rotate(-90) scale(0.16 -0.16)">
      <defs>
       <path id="DejaVuSans-47" d="M 3809 666 
L 3809 1919 
L 2778 1919 
L 2778 2438 
L 4434 2438 
L 4434 434 
Q 4069 175 3628 42 
Q 3188 -91 2688 -91 
Q 1594 -91 976 548 
Q 359 1188 359 2328 
Q 359 3472 976 4111 
Q 1594 4750 2688 4750 
Q 3144 4750 3555 4637 
Q 3966 4525 4313 4306 
L 4313 3634 
Q 3963 3931 3569 4081 
Q 3175 4231 2741 4231 
Q 1884 4231 1454 3753 
Q 1025 3275 1025 2328 
Q 1025 1384 1454 906 
Q 1884 428 2741 428 
Q 3075 428 3337 486 
Q 3600 544 3809 666 
z
" transform="scale(0.015625)"/>
       <path id="DejaVuSans-48" d="M 628 4666 
L 1259 4666 
L 1259 2753 
L 3553 2753 
L 3553 4666 
L 4184 4666 
L 4184 0 
L 3553 0 
L 3553 2222 
L 1259 2222 
L 1259 0 
L 628 0 
L 628 4666 
z
" transform="scale(0.015625)"/>
       <path id="DejaVuSans-7a" d="M 353 3500 
L 3084 3500 
L 3084 2975 
L 922 459 
L 3084 459 
L 3084 0 
L 275 0 
L 275 525 
L 2438 3041 
L 353 3041 
L 353 3500 
z
" transform="scale(0.015625)"/>
      </defs>
      <use xlink:href="#DejaVuSans-47"/>
      <use xlink:href="#DejaVuSans-48" x="77.490234"/>
      <use xlink:href="#DejaVuSans-7a" x="152.685547"/>
     </g>
    </g>
   </g>
   <g id="line2d_21">
    <path d="M 84.493629 339.724083 
L 89.063332 339.724083 
L 89.063332 345.076295 
L 93.631821 345.076295 
L 93.631821 345.309 
L 98.19725 345.309 
L 98.19725 345.192648 
L 102.762581 345.192648 
L 102.762581 345.309 
L 111.894844 345.309 
L 111.894844 345.192648 
L 121.025482 345.192648 
L 121.025482 345.309 
L 125.587654 345.309 
L 125.587654 345.192648 
L 130.152771 345.192648 
L 130.152771 344.959943 
L 134.714233 344.959943 
L 134.714233 345.309 
L 139.281181 345.309 
L 139.281181 345.192648 
L 143.84671 345.192648 
L 143.84671 345.309 
L 148.406433 345.309 
L 148.406433 345.192648 
L 152.972954 345.192648 
L 152.972954 345.309 
L 157.538582 345.309 
L 157.538582 344.959943 
L 162.103233 344.959943 
L 162.103233 345.192648 
L 166.945587 345.192648 
L 166.945587 265.607576 
L 173.011307 265.607576 
L 173.011307 42.909 
L 297.684631 42.909 
L 297.684631 43.025352 
L 303.201111 43.025352 
L 303.201111 42.909 
L 445.609344 42.909 
L 445.609344 344.84359 
L 450.18705 344.84359 
L 450.18705 345.192648 
L 454.760666 345.192648 
L 454.760666 345.309 
L 459.3265 345.309 
L 459.3265 344.84359 
L 463.896011 344.84359 
L 463.896011 345.309 
L 468.464005 345.309 
L 468.464005 345.076295 
L 473.026947 345.076295 
L 473.026947 345.192648 
L 477.613228 345.192648 
L 477.613228 345.309 
L 486.742004 345.309 
L 486.742004 344.959943 
L 491.319687 344.959943 
L 491.319687 345.309 
L 500.451836 345.309 
L 500.451836 345.192648 
L 505.019829 345.192648 
L 505.019829 345.309 
L 514.151016 345.309 
L 514.151016 344.959943 
L 518.714424 344.959943 
L 518.714424 345.309 
L 541.541809 345.309 
L 541.541809 344.959943 
L 546.105247 344.959943 
L 546.105247 345.309 
L 555.234695 345.309 
L 555.234695 345.192648 
L 564.367744 345.192648 
L 564.367744 345.309 
L 568.931892 345.309 
L 568.931892 344.959943 
L 573.501137 344.959943 
L 573.501137 345.192648 
L 587.197754 345.192648 
L 587.197754 345.309 
L 591.763268 345.309 
L 591.763268 345.309 
" clip-path="url(#p535148e7d7)" style="fill: none; stroke: #011959; stroke-width: 1.5; stroke-linecap: square"/>
   </g>
   <g id="line2d_22">
    <path d="M 84.493797 343.331008 
L 89.06353 343.331008 
L 89.06353 345.192648 
L 93.631981 345.192648 
L 93.631981 345.309 
L 98.19738 345.309 
L 98.19738 345.192648 
L 102.762756 345.192648 
L 102.762756 345.309 
L 166.945786 345.309 
L 166.945786 255.019504 
L 173.011513 255.019504 
L 173.011513 42.909 
L 297.684822 42.909 
L 297.684822 43.025352 
L 303.201248 43.025352 
L 303.201248 42.909 
L 445.609489 42.909 
L 445.609489 344.84359 
L 450.187187 344.84359 
L 450.187187 345.309 
L 459.326614 345.309 
L 459.326614 345.192648 
L 463.896179 345.192648 
L 463.896179 345.309 
L 591.763405 345.309 
L 591.763405 345.309 
" clip-path="url(#p535148e7d7)" style="fill: none; stroke: #021b59; stroke-width: 1.5; stroke-linecap: square"/>
   </g>
   <g id="line2d_23">
    <path d="M 84.493851 340.305845 
L 89.063583 340.305845 
L 89.063583 345.192648 
L 93.632042 345.192648 
L 93.632042 345.309 
L 107.331291 345.309 
L 107.331291 345.192648 
L 111.89505 345.192648 
L 111.89505 344.959943 
L 116.46093 344.959943 
L 116.46093 345.309 
L 162.103424 345.309 
L 162.103424 345.192648 
L 166.945839 345.192648 
L 166.945839 271.192494 
L 173.011559 271.192494 
L 173.011559 42.909 
L 297.684845 42.909 
L 297.684845 43.025352 
L 303.201302 43.025352 
L 303.201302 42.909 
L 445.609535 42.909 
L 445.609535 344.959943 
L 450.187218 344.959943 
L 450.187218 345.309 
L 459.326668 345.309 
L 459.326668 345.192648 
L 463.89621 345.192648 
L 463.89621 345.309 
L 473.027168 345.309 
L 473.027168 345.192648 
L 477.613419 345.192648 
L 477.613419 345.309 
L 591.763458 345.309 
L 591.763458 345.309 
" clip-path="url(#p535148e7d7)" style="fill: none; stroke: #031c5a; stroke-width: 1.5; stroke-linecap: square"/>
   </g>
   <g id="line2d_24">
    <path d="M 84.493904 344.029123 
L 89.063637 344.029123 
L 89.063637 345.309 
L 166.945869 345.309 
L 166.945869 264.560404 
L 173.011589 264.560404 
L 173.011589 42.909 
L 297.684952 42.909 
L 297.684952 43.025352 
L 303.201355 43.025352 
L 303.201355 42.909 
L 445.609566 42.909 
L 445.609566 344.959943 
L 450.187263 344.959943 
L 450.187263 345.309 
L 459.326691 345.309 
L 459.326691 345.192648 
L 463.896263 345.192648 
L 463.896263 345.309 
L 591.763489 345.309 
L 591.763489 345.309 
" clip-path="url(#p535148e7d7)" style="fill: none; stroke: #041e5a; stroke-width: 1.5; stroke-linecap: square"/>
   </g>
   <g id="line2d_25">
    <path d="M 84.493935 343.214656 
L 89.06366 343.214656 
L 89.06366 345.192648 
L 93.632118 345.192648 
L 93.632118 345.309 
L 166.945923 345.309 
L 166.945923 255.484914 
L 173.011703 255.484914 
L 173.011703 42.909 
L 297.685013 42.909 
L 297.685013 43.025352 
L 303.201385 43.025352 
L 303.201385 42.909 
L 445.609627 42.909 
L 445.609627 344.84359 
L 450.187294 344.84359 
L 450.187294 345.309 
L 459.326752 345.309 
L 459.326752 345.192648 
L 463.896286 345.192648 
L 463.896286 345.309 
L 591.76355 345.309 
L 591.76355 345.309 
" clip-path="url(#p535148e7d7)" style="fill: none; stroke: #051f5a; stroke-width: 1.5; stroke-linecap: square"/>
   </g>
   <g id="line2d_26">
    <path d="M 84.493988 341.120312 
L 89.063721 341.120312 
L 89.063721 345.309 
L 166.94603 345.309 
L 166.94603 273.054133 
L 173.011726 273.054133 
L 173.011726 42.909 
L 297.685036 42.909 
L 297.685036 43.025352 
L 303.201439 43.025352 
L 303.201439 42.909 
L 445.60968 42.909 
L 445.60968 345.076295 
L 450.187355 345.076295 
L 450.187355 345.309 
L 473.027306 345.309 
L 473.027306 345.192648 
L 477.613533 345.192648 
L 477.613533 345.309 
L 591.763596 345.309 
L 591.763596 345.309 
" clip-path="url(#p535148e7d7)" style="fill: none; stroke: #06215b; stroke-width: 1.5; stroke-linecap: square"/>
   </g>
   <g id="line2d_27">
    <path d="M 84.494049 343.214656 
L 89.063744 343.214656 
L 89.063744 345.192648 
L 93.63221 345.192648 
L 93.63221 345.309 
L 166.946091 345.309 
L 166.946091 276.893763 
L 173.011787 276.893763 
L 173.011787 42.909 
L 297.685089 42.909 
L 297.685089 43.025352 
L 303.201462 43.025352 
L 303.201462 42.909 
L 445.609703 42.909 
L 445.609703 345.076295 
L 450.187378 345.076295 
L 450.187378 345.309 
L 473.027328 345.309 
L 473.027328 345.192648 
L 477.613594 345.192648 
L 477.613594 345.309 
L 591.763626 345.309 
L 591.763626 345.309 
" clip-path="url(#p535148e7d7)" style="fill: none; stroke: #07225b; stroke-width: 1.5; stroke-linecap: square"/>
   </g>
   <g id="line2d_28">
    <path d="M 84.494072 341.469369 
L 89.063797 341.469369 
L 89.063797 345.192648 
L 93.632233 345.192648 
L 93.632233 345.309 
L 166.946114 345.309 
L 166.946114 255.833971 
L 173.011841 255.833971 
L 173.011841 42.909 
L 297.685112 42.909 
L 297.685112 43.025352 
L 303.201523 43.025352 
L 303.201523 42.909 
L 445.609764 42.909 
L 445.609764 344.727238 
L 450.187431 344.727238 
L 450.187431 345.309 
L 459.326866 345.309 
L 459.326866 345.192648 
L 463.896431 345.192648 
L 463.896431 345.309 
L 591.763687 345.309 
L 591.763687 345.309 
" clip-path="url(#p535148e7d7)" style="fill: none; stroke: #07245b; stroke-width: 1.5; stroke-linecap: square"/>
   </g>
   <g id="line2d_29">
    <path d="M 84.494125 341.585722 
L 89.063828 341.585722 
L 89.063828 345.192648 
L 93.632286 345.192648 
L 93.632286 345.309 
L 166.946205 345.309 
L 166.946205 261.186184 
L 173.011864 261.186184 
L 173.011864 42.909 
L 297.685173 42.909 
L 297.685173 43.025352 
L 303.201553 43.025352 
L 303.201553 42.909 
L 445.609787 42.909 
L 445.609787 345.076295 
L 450.187469 345.076295 
L 450.187469 345.309 
L 591.76371 345.309 
L 591.76371 345.309 
" clip-path="url(#p535148e7d7)" style="fill: none; stroke: #08255b; stroke-width: 1.5; stroke-linecap: square"/>
   </g>
   <g id="line2d_30">
    <path d="M 84.494148 342.167484 
L 89.063873 342.167484 
L 89.063873 345.192648 
L 93.632317 345.192648 
L 93.632317 345.309 
L 162.10376 345.309 
L 162.10376 345.192648 
L 166.946228 345.192648 
L 166.946228 260.139012 
L 173.011894 260.139012 
L 173.011894 42.909 
L 297.685204 42.909 
L 297.685204 43.025352 
L 303.201607 43.025352 
L 303.201607 42.909 
L 445.60984 42.909 
L 445.60984 344.959943 
L 450.187515 344.959943 
L 450.187515 345.309 
L 591.763763 345.309 
L 591.763763 345.309 
" clip-path="url(#p535148e7d7)" style="fill: none; stroke: #09275c; stroke-width: 1.5; stroke-linecap: square"/>
   </g>
   <g id="line2d_31">
    <path d="M 84.494209 344.727238 
L 89.063911 344.727238 
L 89.063911 345.309 
L 166.946281 345.309 
L 166.946281 256.183028 
L 173.011955 256.183028 
L 173.011955 42.909 
L 297.685249 42.909 
L 297.685249 43.025352 
L 303.20163 43.025352 
L 303.20163 42.909 
L 445.609871 42.909 
L 445.609871 344.84359 
L 450.187546 344.84359 
L 450.187546 345.309 
L 459.327003 345.309 
L 459.327003 345.192648 
L 463.896538 345.192648 
L 463.896538 345.309 
L 591.763847 345.309 
L 591.763847 345.309 
" clip-path="url(#p535148e7d7)" style="fill: none; stroke: #0a285c; stroke-width: 1.5; stroke-linecap: square"/>
   </g>
   <g id="line2d_32">
    <path d="M 84.49424 344.727238 
L 89.063965 344.727238 
L 89.063965 345.309 
L 166.946304 345.309 
L 166.946304 263.39688 
L 173.011978 263.39688 
L 173.011978 42.909 
L 297.68528 42.909 
L 297.68528 43.025352 
L 303.201691 43.025352 
L 303.201691 42.909 
L 445.609924 42.909 
L 445.609924 345.076295 
L 450.187599 345.076295 
L 450.187599 345.309 
L 459.327034 345.309 
L 459.327034 345.192648 
L 463.896591 345.192648 
L 463.896591 345.309 
L 591.763901 345.309 
L 591.763901 345.309 
" clip-path="url(#p535148e7d7)" style="fill: none; stroke: #0a2a5c; stroke-width: 1.5; stroke-linecap: square"/>
   </g>
   <g id="line2d_33">
    <path d="M 84.494286 344.727238 
L 89.064018 344.727238 
L 89.064018 345.309 
L 98.197876 345.309 
L 98.197876 345.192648 
L 102.763252 345.192648 
L 102.763252 345.309 
L 111.895454 345.309 
L 111.895454 345.192648 
L 116.461372 345.192648 
L 116.461372 345.309 
L 157.539268 345.309 
L 157.539268 345.192648 
L 162.103897 345.192648 
L 162.103897 345.309 
L 166.946365 345.309 
L 166.946365 272.705075 
L 173.012032 272.705075 
L 173.012032 42.909 
L 297.685341 42.909 
L 297.685341 43.025352 
L 303.201714 43.025352 
L 303.201714 42.909 
L 445.609955 42.909 
L 445.609955 344.84359 
L 450.187622 344.84359 
L 450.187622 345.192648 
L 468.464607 345.192648 
L 468.464607 345.309 
L 473.02758 345.309 
L 473.02758 345.192648 
L 509.584435 345.192648 
L 509.584435 345.309 
L 518.715172 345.309 
L 518.715172 345.192648 
L 523.281067 345.192648 
L 523.281067 345.309 
L 532.409943 345.309 
L 532.409943 345.192648 
L 546.105888 345.192648 
L 546.105888 345.309 
L 550.671837 345.309 
L 550.671837 345.192648 
L 591.763931 345.192648 
L 591.763931 345.192648 
" clip-path="url(#p535148e7d7)" style="fill: none; stroke: #0b2b5c; stroke-width: 1.5; stroke-linecap: square"/>
   </g>
   <g id="line2d_34">
    <path d="M 84.494316 344.727238 
L 89.064041 344.727238 
L 89.064041 345.309 
L 162.103951 345.309 
L 162.103951 345.192648 
L 166.946396 345.192648 
L 166.946396 256.648438 
L 173.012062 256.648438 
L 173.012062 42.909 
L 297.685364 42.909 
L 297.685364 43.025352 
L 303.201767 43.025352 
L 303.201767 42.909 
L 445.610008 42.909 
L 445.610008 344.727238 
L 450.187683 344.727238 
L 450.187683 344.84359 
L 454.761292 344.84359 
L 454.761292 345.192648 
L 459.327385 345.192648 
L 459.327385 344.727238 
L 463.896683 344.727238 
L 463.896683 345.192648 
L 468.464638 345.192648 
L 468.464638 344.84359 
L 473.027611 344.84359 
L 473.027611 344.727238 
L 486.74276 344.727238 
L 486.74276 345.192648 
L 491.320457 345.192648 
L 491.320457 344.84359 
L 495.884315 344.84359 
L 495.884315 344.727238 
L 509.58448 344.727238 
L 509.58448 344.84359 
L 527.848007 344.84359 
L 527.848007 344.727238 
L 550.671883 344.727238 
L 550.671883 344.84359 
L 555.235413 344.84359 
L 555.235413 344.727238 
L 559.802902 344.727238 
L 559.802902 345.192648 
L 564.368439 345.192648 
L 564.368439 344.84359 
L 568.932541 344.84359 
L 568.932541 344.727238 
L 578.067459 344.727238 
L 578.067459 345.192648 
L 582.631584 345.192648 
L 582.631584 344.727238 
L 591.763985 344.727238 
L 591.763985 344.727238 
" clip-path="url(#p535148e7d7)" style="fill: none; stroke: #0b2d5d; stroke-width: 1.5; stroke-linecap: square"/>
   </g>
   <g id="line2d_35">
    <path d="M 84.494377 344.145476 
L 89.064102 344.145476 
L 89.064102 345.309 
L 111.895538 345.309 
L 111.895538 345.076295 
L 116.461464 345.076295 
L 116.461464 345.309 
L 166.946449 345.309 
L 166.946449 274.217657 
L 173.012115 274.217657 
L 173.012115 42.909 
L 297.685417 42.909 
L 297.685417 43.025352 
L 303.201797 43.025352 
L 303.201797 42.909 
L 445.610031 42.909 
L 445.610031 344.145476 
L 450.187706 344.145476 
L 450.187706 345.309 
L 454.761322 345.309 
L 454.761322 344.84359 
L 473.027672 344.84359 
L 473.027672 344.959943 
L 486.74279 344.959943 
L 486.74279 344.84359 
L 495.884338 344.84359 
L 495.884338 344.959943 
L 559.802963 344.959943 
L 559.802963 344.84359 
L 564.368477 344.84359 
L 564.368477 344.959943 
L 578.067482 344.959943 
L 578.067482 344.84359 
L 587.198586 344.84359 
L 587.198586 344.959943 
L 591.764015 344.959943 
L 591.764015 344.84359 
L 591.764015 344.84359 
" clip-path="url(#p535148e7d7)" style="fill: none; stroke: #0c2e5d; stroke-width: 1.5; stroke-linecap: square"/>
   </g>
   <g id="line2d_36">
    <path d="M 84.4944 344.727238 
L 89.064125 344.727238 
L 89.064125 345.309 
L 98.198044 345.309 
L 98.198044 343.447361 
L 102.763359 343.447361 
L 102.763359 345.309 
L 166.94648 345.309 
L 166.94648 267.585568 
L 173.012146 267.585568 
L 173.012146 42.909 
L 297.68544 42.909 
L 297.68544 43.025352 
L 303.201859 43.025352 
L 303.201859 42.909 
L 445.610092 42.909 
L 445.610092 341.818427 
L 450.187759 341.818427 
L 450.187759 345.309 
L 454.761383 345.309 
L 454.761383 344.959943 
L 463.896759 344.959943 
L 463.896759 344.84359 
L 468.464722 344.84359 
L 468.464722 345.076295 
L 473.027786 345.076295 
L 473.027786 344.959943 
L 559.802986 344.959943 
L 559.802986 344.84359 
L 564.3685 344.84359 
L 564.3685 344.959943 
L 578.067535 344.959943 
L 578.067535 344.84359 
L 582.631668 344.84359 
L 582.631668 344.959943 
L 591.764069 344.959943 
L 591.764069 344.959943 
" clip-path="url(#p535148e7d7)" style="fill: none; stroke: #0c2f5d; stroke-width: 1.5; stroke-linecap: square"/>
   </g>
   <g id="line2d_37">
    <path d="M 84.494453 344.727238 
L 89.064178 344.727238 
L 89.064178 345.309 
L 166.946533 345.309 
L 166.946533 256.997496 
L 173.012199 256.997496 
L 173.012199 42.909 
L 297.685501 42.909 
L 297.685501 43.025352 
L 303.201881 43.025352 
L 303.201881 42.909 
L 445.610115 42.909 
L 445.610115 333.208346 
L 450.18779 333.208346 
L 450.18779 345.309 
L 454.761406 345.309 
L 454.761406 345.076295 
L 459.327522 345.076295 
L 459.327522 345.192648 
L 463.896782 345.192648 
L 463.896782 345.076295 
L 468.46489 345.076295 
L 468.46489 345.192648 
L 473.027832 345.192648 
L 473.027832 345.309 
L 486.742867 345.309 
L 486.742867 344.959943 
L 491.320595 344.959943 
L 491.320595 345.192648 
L 495.884422 345.192648 
L 495.884422 345.309 
L 536.975937 345.309 
L 536.975937 345.192648 
L 541.54258 345.192648 
L 541.54258 345.309 
L 559.803017 345.309 
L 559.803017 344.959943 
L 564.368645 344.959943 
L 564.368645 345.192648 
L 568.93277 345.192648 
L 568.93277 345.309 
L 578.067574 345.309 
L 578.067574 345.076295 
L 582.631699 345.076295 
L 582.631699 345.192648 
L 587.198669 345.192648 
L 587.198669 345.309 
L 591.764091 345.309 
L 591.764091 345.309 
" clip-path="url(#p535148e7d7)" style="fill: none; stroke: #0d315d; stroke-width: 1.5; stroke-linecap: square"/>
   </g>
   <g id="line2d_38">
    <path d="M 84.494492 344.727238 
L 89.064209 344.727238 
L 89.064209 345.309 
L 166.946556 345.309 
L 166.946556 258.510077 
L 173.01223 258.510077 
L 173.01223 42.909 
L 297.685555 42.909 
L 297.685555 43.025352 
L 303.201935 43.025352 
L 303.201935 42.909 
L 445.610168 42.909 
L 445.610168 344.84359 
L 450.187851 344.84359 
L 450.187851 344.959943 
L 454.761459 344.959943 
L 454.761459 345.309 
L 459.327553 345.309 
L 459.327553 345.192648 
L 463.89695 345.192648 
L 463.89695 345.309 
L 587.198692 345.309 
L 587.198692 345.192648 
L 591.764145 345.192648 
L 591.764145 345.309 
L 591.764145 345.309 
" clip-path="url(#p535148e7d7)" style="fill: none; stroke: #0d325e; stroke-width: 1.5; stroke-linecap: square"/>
   </g>
   <g id="line2d_39">
    <path d="M 84.494568 341.585722 
L 89.064293 341.585722 
L 89.064293 345.192648 
L 93.632729 345.192648 
L 93.632729 345.309 
L 98.198151 345.309 
L 98.198151 345.192648 
L 121.026421 345.192648 
L 121.026421 345.309 
L 125.588562 345.309 
L 125.588562 345.192648 
L 143.847618 345.192648 
L 143.847618 345.309 
L 148.407364 345.309 
L 148.407364 345.192648 
L 166.946617 345.192648 
L 166.946617 266.771101 
L 173.012283 266.771101 
L 173.012283 42.909 
L 297.685616 42.909 
L 297.685616 43.025352 
L 303.201965 43.025352 
L 303.201965 42.909 
L 445.610199 42.909 
L 445.610199 345.076295 
L 454.76149 345.076295 
L 454.76149 345.309 
L 591.764175 345.309 
L 591.764175 345.309 
" clip-path="url(#p535148e7d7)" style="fill: none; stroke: #0d335e; stroke-width: 1.5; stroke-linecap: square"/>
   </g>
   <g id="line2d_40">
    <path d="M 84.494591 344.727238 
L 89.064346 344.727238 
L 89.064346 345.309 
L 116.461678 345.309 
L 116.461678 345.192648 
L 121.026443 345.192648 
L 121.026443 345.309 
L 166.946648 345.309 
L 166.946648 264.094995 
L 173.012306 264.094995 
L 173.012306 42.909 
L 297.685646 42.909 
L 297.685646 43.025352 
L 303.202019 43.025352 
L 303.202019 42.909 
L 445.61026 42.909 
L 445.61026 344.84359 
L 450.187927 344.84359 
L 450.187927 345.309 
L 591.764229 345.309 
L 591.764229 345.309 
" clip-path="url(#p535148e7d7)" style="fill: none; stroke: #0e355e; stroke-width: 1.5; stroke-linecap: square"/>
   </g>
   <g id="line2d_41">
    <path d="M 84.494652 344.727238 
L 89.06443 344.727238 
L 89.06443 345.309 
L 162.104225 345.309 
L 162.104225 345.192648 
L 166.946701 345.192648 
L 166.946701 257.346553 
L 173.012367 257.346553 
L 173.012367 42.909 
L 297.685692 42.909 
L 297.685692 43.025352 
L 303.202049 43.025352 
L 303.202049 42.909 
L 445.610283 42.909 
L 445.610283 344.84359 
L 450.188065 344.84359 
L 450.188065 345.309 
L 473.028023 345.309 
L 473.028023 345.192648 
L 477.614227 345.192648 
L 477.614227 345.309 
L 495.88459 345.309 
L 495.88459 345.192648 
L 500.452911 345.192648 
L 500.452911 345.309 
L 591.764259 345.309 
L 591.764259 345.309 
" clip-path="url(#p535148e7d7)" style="fill: none; stroke: #0e365e; stroke-width: 1.5; stroke-linecap: square"/>
   </g>
   <g id="line2d_42">
    <path d="M 84.494682 344.610885 
L 89.064484 344.610885 
L 89.064484 345.192648 
L 93.632866 345.192648 
L 93.632866 345.309 
L 162.104279 345.309 
L 162.104279 345.192648 
L 166.946724 345.192648 
L 166.946724 271.890608 
L 173.01239 271.890608 
L 173.01239 42.909 
L 297.685722 42.909 
L 297.685722 43.025352 
L 303.20211 43.025352 
L 303.20211 42.909 
L 445.610413 42.909 
L 445.610413 344.84359 
L 450.188087 344.84359 
L 450.188087 345.309 
L 459.327751 345.309 
L 459.327751 345.192648 
L 463.897141 345.192648 
L 463.897141 345.309 
L 591.764313 345.309 
L 591.764313 345.309 
" clip-path="url(#p535148e7d7)" style="fill: none; stroke: #0e375e; stroke-width: 1.5; stroke-linecap: square"/>
   </g>
   <g id="line2d_43">
    <path d="M 84.494728 344.610885 
L 89.064522 344.610885 
L 89.064522 345.192648 
L 102.763718 345.192648 
L 102.763718 345.076295 
L 111.89595 345.076295 
L 111.89595 345.192648 
L 121.026581 345.192648 
L 121.026581 345.076295 
L 130.153885 345.076295 
L 130.153885 345.192648 
L 139.28228 345.192648 
L 139.28228 345.076295 
L 157.539711 345.076295 
L 157.539711 345.192648 
L 166.946762 345.192648 
L 166.946762 269.09815 
L 173.012444 269.09815 
L 173.012444 42.909 
L 297.685753 42.909 
L 297.685753 43.025352 
L 303.202133 43.025352 
L 303.202133 42.909 
L 445.610474 42.909 
L 445.610474 340.305845 
L 450.188141 340.305845 
L 450.188141 345.309 
L 459.327805 345.309 
L 459.327805 345.192648 
L 463.897163 345.192648 
L 463.897163 345.309 
L 564.368881 345.309 
L 564.368881 345.192648 
L 568.932991 345.192648 
L 568.932991 345.309 
L 591.764336 345.309 
L 591.764336 345.309 
" clip-path="url(#p535148e7d7)" style="fill: none; stroke: #0f385f; stroke-width: 1.5; stroke-linecap: square"/>
   </g>
   <g id="line2d_44">
    <path d="M 84.494759 344.727238 
L 89.064568 344.727238 
L 89.064568 345.192648 
L 102.763756 345.192648 
L 102.763756 345.309 
L 107.332207 345.309 
L 107.332207 345.192648 
L 130.153931 345.192648 
L 130.153931 345.309 
L 134.715324 345.309 
L 134.715324 345.192648 
L 157.539764 345.192648 
L 157.539764 345.309 
L 162.104362 345.309 
L 162.104362 345.192648 
L 166.946808 345.192648 
L 166.946808 272.93778 
L 173.012474 272.93778 
L 173.012474 42.909 
L 297.685806 42.909 
L 297.685806 43.025352 
L 303.202187 43.025352 
L 303.202187 42.909 
L 445.610527 42.909 
L 445.610527 344.37818 
L 450.188179 344.37818 
L 450.188179 345.309 
L 591.764397 345.309 
L 591.764397 345.309 
" clip-path="url(#p535148e7d7)" style="fill: none; stroke: #0f395f; stroke-width: 1.5; stroke-linecap: square"/>
   </g>
   <g id="line2d_45">
    <path d="M 84.49482 344.610885 
L 89.064598 344.610885 
L 89.064598 344.84359 
L 93.633057 344.84359 
L 93.633057 344.727238 
L 125.588814 344.727238 
L 125.588814 344.84359 
L 130.153969 344.84359 
L 130.153969 344.727238 
L 143.84787 344.727238 
L 143.84787 344.84359 
L 148.407616 344.84359 
L 148.407616 344.727238 
L 157.539795 344.727238 
L 157.539795 344.84359 
L 162.104393 344.84359 
L 162.104393 344.727238 
L 166.946838 344.727238 
L 166.946838 270.378027 
L 173.012497 270.378027 
L 173.012497 42.909 
L 297.685837 42.909 
L 297.685837 43.025352 
L 303.202301 43.025352 
L 303.202301 42.909 
L 445.61058 42.909 
L 445.61058 345.076295 
L 450.188232 345.076295 
L 450.188232 345.309 
L 459.327881 345.309 
L 459.327881 345.192648 
L 463.897255 345.192648 
L 463.897255 345.309 
L 495.884758 345.309 
L 495.884758 345.192648 
L 500.453079 345.192648 
L 500.453079 345.309 
L 591.76442 345.309 
L 591.76442 345.309 
" clip-path="url(#p535148e7d7)" style="fill: none; stroke: #0f3b5f; stroke-width: 1.5; stroke-linecap: square"/>
   </g>
   <g id="line2d_46">
    <path d="M 84.494873 344.610885 
L 89.064651 344.610885 
L 89.064651 344.959943 
L 93.63311 344.959943 
L 93.63311 344.84359 
L 98.198486 344.84359 
L 98.198486 344.959943 
L 111.896088 344.959943 
L 111.896088 344.84359 
L 116.461929 344.84359 
L 116.461929 345.309 
L 121.026695 345.309 
L 121.026695 344.959943 
L 134.715416 344.959943 
L 134.715416 344.84359 
L 139.282417 344.84359 
L 139.282417 345.309 
L 143.847893 345.309 
L 143.847893 344.959943 
L 148.407646 344.959943 
L 148.407646 344.84359 
L 152.974144 344.84359 
L 152.974144 344.959943 
L 157.539825 344.959943 
L 157.539825 344.84359 
L 166.946892 344.84359 
L 166.946892 257.462905 
L 173.012558 257.462905 
L 173.012558 42.909 
L 297.685921 42.909 
L 297.685921 43.025352 
L 303.202347 43.025352 
L 303.202347 42.909 
L 445.610611 42.909 
L 445.610611 344.727238 
L 450.188255 344.727238 
L 450.188255 345.309 
L 591.764473 345.309 
L 591.764473 345.309 
" clip-path="url(#p535148e7d7)" style="fill: none; stroke: #0f3c5f; stroke-width: 1.5; stroke-linecap: square"/>
   </g>
   <g id="line2d_47">
    <path d="M 84.494949 330.183182 
L 89.064682 330.183182 
L 89.064682 345.192648 
L 93.633133 345.192648 
L 93.633133 345.309 
L 98.198509 345.309 
L 98.198509 344.959943 
L 116.461952 344.959943 
L 116.461952 344.727238 
L 121.026749 344.727238 
L 121.026749 344.959943 
L 139.282471 344.959943 
L 139.282471 344.84359 
L 143.847954 344.84359 
L 143.847954 345.076295 
L 148.407692 345.076295 
L 148.407692 344.959943 
L 166.946915 344.959943 
L 166.946915 280.733394 
L 173.012611 280.733394 
L 173.012611 42.909 
L 297.685944 42.909 
L 297.685944 43.025352 
L 303.202385 43.025352 
L 303.202385 42.909 
L 445.610664 42.909 
L 445.610664 323.667446 
L 450.188316 323.667446 
L 450.188316 345.309 
L 459.327965 345.309 
L 459.327965 345.192648 
L 463.897339 345.192648 
L 463.897339 345.309 
L 473.028252 345.309 
L 473.028252 345.192648 
L 477.614464 345.192648 
L 477.614464 345.309 
L 591.764511 345.309 
L 591.764511 345.309 
" clip-path="url(#p535148e7d7)" style="fill: none; stroke: #103d5f; stroke-width: 1.5; stroke-linecap: square"/>
   </g>
   <g id="line2d_48">
    <path d="M 84.49501 344.029123 
L 89.064735 344.029123 
L 89.064735 344.959943 
L 98.19857 344.959943 
L 98.19857 345.192648 
L 102.763916 345.192648 
L 102.763916 345.309 
L 116.462013 345.309 
L 116.462013 344.959943 
L 121.026787 344.959943 
L 121.026787 345.192648 
L 125.588921 345.192648 
L 125.588921 345.309 
L 139.282494 345.309 
L 139.282494 345.076295 
L 143.847984 345.076295 
L 143.847984 345.192648 
L 148.407722 345.192648 
L 148.407722 345.309 
L 166.946999 345.309 
L 166.946999 257.928315 
L 173.012665 257.928315 
L 173.012665 42.909 
L 297.685997 42.909 
L 297.685997 43.025352 
L 303.202438 43.025352 
L 303.202438 42.909 
L 445.610687 42.909 
L 445.610687 344.84359 
L 450.188339 344.84359 
L 450.188339 345.309 
L 578.068008 345.309 
L 578.068008 345.192648 
L 582.632141 345.192648 
L 582.632141 345.309 
L 591.764557 345.309 
L 591.764557 345.309 
" clip-path="url(#p535148e7d7)" style="fill: none; stroke: #103e5f; stroke-width: 1.5; stroke-linecap: square"/>
   </g>
   <g id="line2d_49">
    <path d="M 84.495064 344.261828 
L 89.064758 344.261828 
L 89.064758 345.309 
L 166.947029 345.309 
L 166.947029 257.462905 
L 173.012688 257.462905 
L 173.012688 42.909 
L 297.686035 42.909 
L 297.686035 43.025352 
L 303.202461 43.025352 
L 303.202461 42.909 
L 445.610748 42.909 
L 445.610748 344.261828 
L 450.188393 344.261828 
L 450.188393 345.076295 
L 459.328049 345.076295 
L 459.328049 344.959943 
L 468.465355 344.959943 
L 468.465355 345.076295 
L 482.177628 345.076295 
L 482.177628 344.959943 
L 486.74337 344.959943 
L 486.74337 345.076295 
L 527.848679 345.076295 
L 527.848679 345.192648 
L 532.410652 345.192648 
L 532.410652 345.076295 
L 541.543159 345.076295 
L 541.543159 345.192648 
L 550.672607 345.192648 
L 550.672607 345.076295 
L 582.632195 345.076295 
L 582.632195 345.192648 
L 587.199173 345.192648 
L 587.199173 345.076295 
L 591.764587 345.076295 
L 591.764587 345.192648 
L 591.764587 345.192648 
" clip-path="url(#p535148e7d7)" style="fill: none; stroke: #103f60; stroke-width: 1.5; stroke-linecap: square"/>
   </g>
   <g id="line2d_50">
    <path d="M 84.495087 344.37818 
L 89.064819 344.37818 
L 89.064819 345.192648 
L 93.633247 345.192648 
L 93.633247 345.309 
L 166.947083 345.309 
L 166.947083 270.028969 
L 173.012749 270.028969 
L 173.012749 42.909 
L 297.686081 42.909 
L 297.686081 43.025352 
L 303.202522 43.025352 
L 303.202522 42.909 
L 445.610779 42.909 
L 445.610779 345.076295 
L 450.188423 345.076295 
L 450.188423 345.309 
L 591.764641 345.309 
L 591.764641 345.309 
" clip-path="url(#p535148e7d7)" style="fill: none; stroke: #104060; stroke-width: 1.5; stroke-linecap: square"/>
   </g>
   <g id="line2d_51">
    <path d="M 84.49514 340.654902 
L 89.06485 340.654902 
L 89.06485 345.309 
L 121.026924 345.309 
L 121.026924 345.192648 
L 125.589066 345.192648 
L 125.589066 345.309 
L 166.947105 345.309 
L 166.947105 266.189339 
L 173.012802 266.189339 
L 173.012802 42.909 
L 297.686111 42.909 
L 297.686111 43.025352 
L 303.202553 43.025352 
L 303.202553 42.909 
L 445.610832 42.909 
L 445.610832 344.84359 
L 450.188454 344.84359 
L 450.188454 345.309 
L 541.543243 345.309 
L 541.543243 345.192648 
L 546.106651 345.192648 
L 546.106651 345.309 
L 591.764671 345.309 
L 591.764671 345.309 
" clip-path="url(#p535148e7d7)" style="fill: none; stroke: #114160; stroke-width: 1.5; stroke-linecap: square"/>
   </g>
   <g id="line2d_52">
    <path d="M 84.495163 340.189492 
L 89.064903 340.189492 
L 89.064903 345.192648 
L 93.633362 345.192648 
L 93.633362 345.309 
L 130.154274 345.309 
L 130.154274 345.192648 
L 134.717484 345.192648 
L 134.717484 345.309 
L 166.947166 345.309 
L 166.947166 271.192494 
L 173.012825 271.192494 
L 173.012825 42.909 
L 445.610855 42.909 
L 445.610855 344.959943 
L 450.188507 344.959943 
L 450.188507 345.309 
L 459.328156 345.309 
L 459.328156 345.192648 
L 463.89753 345.192648 
L 463.89753 345.309 
L 591.764725 345.309 
L 591.764725 345.309 
" clip-path="url(#p535148e7d7)" style="fill: none; stroke: #114260; stroke-width: 1.5; stroke-linecap: square"/>
   </g>
   <g id="line2d_53">
    <path d="M 84.495201 341.00396 
L 89.064926 341.00396 
L 89.064926 345.192648 
L 93.633385 345.192648 
L 93.633385 345.309 
L 111.896362 345.309 
L 111.896362 345.192648 
L 116.462204 345.192648 
L 116.462204 345.309 
L 166.947189 345.309 
L 166.947189 270.145322 
L 173.012878 270.145322 
L 173.012878 42.909 
L 445.610916 42.909 
L 445.610916 344.37818 
L 450.18853 344.37818 
L 450.18853 345.192648 
L 454.762177 345.192648 
L 454.762177 345.076295 
L 459.328209 345.076295 
L 459.328209 345.309 
L 491.321259 345.309 
L 491.321259 345.192648 
L 495.885086 345.192648 
L 495.885086 345.309 
L 532.410812 345.309 
L 532.410812 345.076295 
L 536.976746 345.076295 
L 536.976746 345.309 
L 568.933403 345.309 
L 568.933403 345.076295 
L 573.502663 345.076295 
L 573.502663 345.309 
L 591.764778 345.309 
L 591.764778 345.309 
" clip-path="url(#p535148e7d7)" style="fill: none; stroke: #114360; stroke-width: 1.5; stroke-linecap: square"/>
   </g>
   <g id="line2d_54">
    <path d="M 84.495277 335.535395 
L 89.06501 335.535395 
L 89.06501 345.309 
L 152.974472 345.309 
L 152.974472 345.192648 
L 157.540176 345.192648 
L 157.540176 345.309 
L 166.947243 345.309 
L 166.947243 263.629585 
L 173.012917 263.629585 
L 173.012917 42.909 
L 445.610939 42.909 
L 445.610939 344.959943 
L 450.188591 344.959943 
L 450.188591 345.309 
L 591.764809 345.309 
L 591.764809 345.309 
" clip-path="url(#p535148e7d7)" style="fill: none; stroke: #114460; stroke-width: 1.5; stroke-linecap: square"/>
   </g>
   <g id="line2d_55">
    <path d="M 84.4953 343.331008 
L 89.065041 343.331008 
L 89.065041 345.309 
L 166.947273 345.309 
L 166.947273 267.70192 
L 173.012939 267.70192 
L 173.012939 42.909 
L 445.610992 42.909 
L 445.610992 344.959943 
L 450.188622 344.959943 
L 450.188622 345.309 
L 459.3283 345.309 
L 459.3283 345.192648 
L 463.89769 345.192648 
L 463.89769 345.309 
L 491.32135 345.309 
L 491.32135 345.192648 
L 495.88517 345.192648 
L 495.88517 345.309 
L 555.23629 345.309 
L 555.23629 345.192648 
L 559.803925 345.192648 
L 559.803925 345.309 
L 591.764862 345.309 
L 591.764862 345.309 
" clip-path="url(#p535148e7d7)" style="fill: none; stroke: #124561; stroke-width: 1.5; stroke-linecap: square"/>
   </g>
   <g id="line2d_56">
    <path d="M 84.495361 337.746091 
L 89.065102 337.746091 
L 89.065102 345.309 
L 125.589256 345.309 
L 125.589256 345.192648 
L 130.154465 345.192648 
L 130.154465 345.309 
L 166.947334 345.309 
L 166.947334 261.302536 
L 173.012993 261.302536 
L 173.012993 42.909 
L 445.611031 42.909 
L 445.611031 344.727238 
L 450.188667 344.727238 
L 450.188667 345.309 
L 591.764893 345.309 
L 591.764893 345.309 
" clip-path="url(#p535148e7d7)" style="fill: none; stroke: #124661; stroke-width: 1.5; stroke-linecap: square"/>
   </g>
   <g id="line2d_57">
    <path d="M 84.495392 338.676911 
L 89.065125 338.676911 
L 89.065125 345.309 
L 166.947357 345.309 
L 166.947357 258.393725 
L 173.013016 258.393725 
L 173.013016 42.909 
L 445.611084 42.909 
L 445.611084 344.727238 
L 450.188698 344.727238 
L 450.188698 345.309 
L 591.764954 345.309 
L 591.764954 345.309 
" clip-path="url(#p535148e7d7)" style="fill: none; stroke: #124761; stroke-width: 1.5; stroke-linecap: square"/>
   </g>
   <g id="line2d_58">
    <path d="M 84.495445 343.447361 
L 89.065178 343.447361 
L 89.065178 345.309 
L 166.947411 345.309 
L 166.947411 263.39688 
L 173.013077 263.39688 
L 173.013077 42.909 
L 445.61113 42.909 
L 445.61113 345.076295 
L 450.188759 345.076295 
L 450.188759 345.309 
L 459.328407 345.309 
L 459.328407 345.192648 
L 463.897804 345.192648 
L 463.897804 345.309 
L 473.028709 345.309 
L 473.028709 345.192648 
L 477.614937 345.192648 
L 477.614937 345.309 
L 591.764977 345.309 
L 591.764977 345.309 
" clip-path="url(#p535148e7d7)" style="fill: none; stroke: #124861; stroke-width: 1.5; stroke-linecap: square"/>
   </g>
   <g id="line2d_59">
    <path d="M 84.495476 342.167484 
L 89.065201 342.167484 
L 89.065201 345.192648 
L 98.199013 345.192648 
L 98.199013 345.309 
L 102.764412 345.309 
L 102.764412 345.192648 
L 107.332817 345.192648 
L 107.332817 345.309 
L 111.896614 345.309 
L 111.896614 345.192648 
L 116.462486 345.192648 
L 116.462486 345.309 
L 130.154572 345.309 
L 130.154572 345.192648 
L 139.282967 345.192648 
L 139.282967 345.309 
L 157.540405 345.309 
L 157.540405 345.192648 
L 166.947433 345.192648 
L 166.947433 260.488069 
L 173.013107 260.488069 
L 173.013107 42.909 
L 297.68644 42.909 
L 297.68644 43.025352 
L 303.202904 43.025352 
L 303.202904 42.909 
L 445.611191 42.909 
L 445.611191 344.84359 
L 450.188782 344.84359 
L 450.188782 345.309 
L 459.328438 345.309 
L 459.328438 345.076295 
L 463.897858 345.076295 
L 463.897858 345.309 
L 473.02877 345.309 
L 473.02877 345.192648 
L 477.61499 345.192648 
L 477.61499 345.309 
L 486.743813 345.309 
L 486.743813 345.192648 
L 500.453735 345.192648 
L 500.453735 345.309 
L 514.152802 345.309 
L 514.152802 345.192648 
L 518.71627 345.192648 
L 518.71627 345.309 
L 527.84906 345.309 
L 527.84906 345.192648 
L 532.411034 345.192648 
L 532.411034 345.309 
L 541.543571 345.309 
L 541.543571 345.076295 
L 550.672997 345.076295 
L 550.672997 345.309 
L 555.236465 345.309 
L 555.236465 345.192648 
L 559.804176 345.192648 
L 559.804176 345.309 
L 564.369606 345.309 
L 564.369606 345.192648 
L 578.068497 345.192648 
L 578.068497 345.309 
L 582.632637 345.309 
L 582.632637 345.192648 
L 587.199577 345.192648 
L 587.199577 345.309 
L 591.76503 345.309 
L 591.76503 345.192648 
L 591.76503 345.192648 
" clip-path="url(#p535148e7d7)" style="fill: none; stroke: #134961; stroke-width: 1.5; stroke-linecap: square"/>
   </g>
   <g id="line2d_60">
    <path d="M 84.495529 339.60773 
L 89.065262 339.60773 
L 89.065262 345.309 
L 166.947495 345.309 
L 166.947495 260.488069 
L 173.013153 260.488069 
L 173.013153 42.909 
L 445.611221 42.909 
L 445.611221 344.84359 
L 450.188835 344.84359 
L 450.188835 345.309 
L 591.765053 345.309 
L 591.765053 345.309 
" clip-path="url(#p535148e7d7)" style="fill: none; stroke: #134a61; stroke-width: 1.5; stroke-linecap: square"/>
   </g>
   <g id="line2d_61">
    <path d="M 84.495552 338.676911 
L 89.065292 338.676911 
L 89.065292 345.192648 
L 93.633728 345.192648 
L 93.633728 345.309 
L 107.332924 345.309 
L 107.332924 345.192648 
L 111.896721 345.192648 
L 111.896721 345.309 
L 162.105057 345.309 
L 162.105057 345.192648 
L 166.947525 345.192648 
L 166.947525 268.865445 
L 173.013191 268.865445 
L 173.013191 42.909 
L 445.611244 42.909 
L 445.611244 345.076295 
L 450.188858 345.076295 
L 450.188858 345.309 
L 459.328537 345.309 
L 459.328537 345.192648 
L 463.897942 345.192648 
L 463.897942 345.309 
L 591.765114 345.309 
L 591.765114 345.309 
" clip-path="url(#p535148e7d7)" style="fill: none; stroke: #134b61; stroke-width: 1.5; stroke-linecap: square"/>
   </g>
   <g id="line2d_62">
    <path d="M 84.495613 342.167484 
L 89.065346 342.167484 
L 89.065346 345.309 
L 166.947548 345.309 
L 166.947548 261.418888 
L 173.013245 261.418888 
L 173.013245 42.909 
L 445.611305 42.909 
L 445.611305 344.84359 
L 450.18895 344.84359 
L 450.18895 345.309 
L 459.328598 345.309 
L 459.328598 345.192648 
L 463.897995 345.192648 
L 463.897995 345.309 
L 473.028877 345.309 
L 473.028877 345.192648 
L 477.615097 345.192648 
L 477.615097 345.309 
L 491.321617 345.309 
L 491.321617 345.192648 
L 495.885475 345.192648 
L 495.885475 345.309 
L 591.765144 345.309 
L 591.765144 345.309 
" clip-path="url(#p535148e7d7)" style="fill: none; stroke: #144c62; stroke-width: 1.5; stroke-linecap: square"/>
   </g>
   <g id="line2d_63">
    <path d="M 84.495644 342.167484 
L 89.065376 342.167484 
L 89.065376 345.309 
L 166.947609 345.309 
L 166.947609 248.15471 
L 173.013268 248.15471 
L 173.013268 42.909 
L 297.686615 42.909 
L 297.686615 43.025352 
L 303.203072 43.025352 
L 303.203072 42.909 
L 445.611359 42.909 
L 445.611359 344.494533 
L 450.188972 344.494533 
L 450.188972 345.309 
L 459.328629 345.309 
L 459.328629 345.192648 
L 463.898026 345.192648 
L 463.898026 345.309 
L 591.76519 345.309 
L 591.76519 345.309 
" clip-path="url(#p535148e7d7)" style="fill: none; stroke: #144d62; stroke-width: 1.5; stroke-linecap: square"/>
   </g>
   <g id="line2d_64">
    <path d="M 84.495697 342.283836 
L 89.06543 342.283836 
L 89.06543 345.309 
L 166.947632 345.309 
L 166.947632 248.387415 
L 173.013329 248.387415 
L 173.013329 42.909 
L 445.611412 42.909 
L 445.611412 344.84359 
L 450.189034 344.84359 
L 450.189034 345.309 
L 459.328682 345.309 
L 459.328682 345.192648 
L 463.898087 345.192648 
L 463.898087 345.309 
L 591.765228 345.309 
L 591.765228 345.309 
" clip-path="url(#p535148e7d7)" style="fill: none; stroke: #144e62; stroke-width: 1.5; stroke-linecap: square"/>
   </g>
   <g id="line2d_65">
    <path d="M 84.49572 342.051132 
L 89.065453 342.051132 
L 89.065453 345.192648 
L 93.633942 345.192648 
L 93.633942 345.309 
L 166.947685 345.309 
L 166.947685 273.40319 
L 173.013359 273.40319 
L 173.013359 42.909 
L 445.611443 42.909 
L 445.611443 345.076295 
L 450.189064 345.076295 
L 450.189064 345.309 
L 473.029015 345.309 
L 473.029015 345.192648 
L 477.615211 345.192648 
L 477.615211 345.309 
L 591.765251 345.309 
L 591.765251 345.309 
" clip-path="url(#p535148e7d7)" style="fill: none; stroke: #154f62; stroke-width: 1.5; stroke-linecap: square"/>
   </g>
   <g id="line2d_66">
    <path d="M 84.495781 341.818427 
L 89.065506 341.818427 
L 89.065506 345.192648 
L 93.633995 345.192648 
L 93.633995 345.309 
L 166.947716 345.309 
L 166.947716 269.330855 
L 173.013405 269.330855 
L 173.013405 42.909 
L 445.611496 42.909 
L 445.611496 344.959943 
L 450.18911 344.959943 
L 450.18911 345.076295 
L 454.762794 345.076295 
L 454.762794 345.309 
L 591.765305 345.309 
L 591.765305 345.309 
" clip-path="url(#p535148e7d7)" style="fill: none; stroke: #154f62; stroke-width: 1.5; stroke-linecap: square"/>
   </g>
   <g id="line2d_67">
    <path d="M 84.495804 341.353017 
L 89.065544 341.353017 
L 89.065544 345.309 
L 166.947777 345.309 
L 166.947777 248.736472 
L 173.013435 248.736472 
L 173.013435 42.909 
L 445.611526 42.909 
L 445.611526 344.727238 
L 450.18914 344.727238 
L 450.18914 345.192648 
L 454.762817 345.192648 
L 454.762817 345.309 
L 459.328789 345.309 
L 459.328789 345.192648 
L 463.898193 345.192648 
L 463.898193 345.309 
L 559.804504 345.309 
L 559.804504 345.192648 
L 564.369904 345.192648 
L 564.369904 345.309 
L 587.199905 345.309 
L 587.199905 345.192648 
L 591.765335 345.192648 
L 591.765335 345.309 
L 591.765335 345.309 
" clip-path="url(#p535148e7d7)" style="fill: none; stroke: #165062; stroke-width: 1.5; stroke-linecap: square"/>
   </g>
   <g id="line2d_68">
    <path d="M 84.495857 339.724083 
L 89.06559 339.724083 
L 89.06559 345.309 
L 152.975052 345.309 
L 152.975052 345.192648 
L 157.540756 345.192648 
L 157.540756 345.309 
L 166.9478 345.309 
L 166.9478 258.16102 
L 173.013496 258.16102 
L 173.013496 42.909 
L 297.686882 42.909 
L 297.686882 43.025352 
L 303.203285 43.025352 
L 303.203285 42.909 
L 445.611572 42.909 
L 445.611572 344.959943 
L 450.189171 344.959943 
L 450.189171 345.309 
L 459.32885 345.309 
L 459.32885 345.192648 
L 463.898247 345.192648 
L 463.898247 345.309 
L 591.765396 345.309 
L 591.765396 345.309 
" clip-path="url(#p535148e7d7)" style="fill: none; stroke: #165162; stroke-width: 1.5; stroke-linecap: square"/>
   </g>
   <g id="line2d_69">
    <path d="M 84.495918 343.331008 
L 89.06562 343.331008 
L 89.06562 345.309 
L 166.947876 345.309 
L 166.947876 268.516387 
L 173.01355 268.516387 
L 173.01355 42.909 
L 297.686943 42.909 
L 297.686943 43.025352 
L 303.203339 43.025352 
L 303.203339 42.909 
L 445.61161 42.909 
L 445.61161 345.076295 
L 450.189224 345.076295 
L 450.189224 345.309 
L 591.765419 345.309 
L 591.765419 345.309 
" clip-path="url(#p535148e7d7)" style="fill: none; stroke: #175262; stroke-width: 1.5; stroke-linecap: square"/>
   </g>
   <g id="line2d_70">
    <path d="M 84.495949 341.353017 
L 89.065704 341.353017 
L 89.065704 345.192648 
L 93.634132 345.192648 
L 93.634132 345.309 
L 102.764877 345.309 
L 102.764877 345.192648 
L 107.33329 345.192648 
L 107.33329 345.309 
L 157.540833 345.309 
L 157.540833 345.192648 
L 162.105461 345.192648 
L 162.105461 345.309 
L 166.947914 345.309 
L 166.947914 249.085529 
L 173.013573 249.085529 
L 173.013573 42.909 
L 445.611664 42.909 
L 445.611664 344.494533 
L 450.189255 344.494533 
L 450.189255 345.192648 
L 454.762955 345.192648 
L 454.762955 345.309 
L 591.765472 345.309 
L 591.765472 345.309 
" clip-path="url(#p535148e7d7)" style="fill: none; stroke: #175362; stroke-width: 1.5; stroke-linecap: square"/>
   </g>
   <g id="line2d_71">
    <path d="M 84.495995 343.214656 
L 89.065735 343.214656 
L 89.065735 345.309 
L 125.58992 345.309 
L 125.58992 345.192648 
L 130.15506 345.192648 
L 130.15506 345.309 
L 166.947968 345.309 
L 166.947968 265.374871 
L 173.013634 265.374871 
L 173.013634 42.909 
L 445.611687 42.909 
L 445.611687 345.076295 
L 450.189316 345.076295 
L 450.189316 345.309 
L 591.765503 345.309 
L 591.765503 345.309 
" clip-path="url(#p535148e7d7)" style="fill: none; stroke: #185462; stroke-width: 1.5; stroke-linecap: square"/>
   </g>
   <g id="line2d_72">
    <path d="M 84.496033 341.236664 
L 89.065781 341.236664 
L 89.065781 345.309 
L 166.94799 345.309 
L 166.94799 263.39688 
L 173.013657 263.39688 
L 173.013657 42.909 
L 445.611717 42.909 
L 445.611717 344.959943 
L 450.189339 344.959943 
L 450.189339 345.309 
L 500.454292 345.309 
L 500.454292 345.192648 
L 505.022171 345.192648 
L 505.022171 345.309 
L 591.765556 345.309 
L 591.765556 345.192648 
L 591.765556 345.192648 
" clip-path="url(#p535148e7d7)" style="fill: none; stroke: #185562; stroke-width: 1.5; stroke-linecap: square"/>
   </g>
   <g id="line2d_73">
    <path d="M 84.496086 343.331008 
L 89.065819 343.331008 
L 89.065819 345.192648 
L 93.63427 345.192648 
L 93.63427 345.309 
L 166.948051 345.309 
L 166.948051 249.434587 
L 173.01371 249.434587 
L 173.01371 42.909 
L 445.611778 42.909 
L 445.611778 344.84359 
L 450.189392 344.84359 
L 450.189392 345.309 
L 591.765808 345.309 
L 591.765808 345.309 
" clip-path="url(#p535148e7d7)" style="fill: none; stroke: #195662; stroke-width: 1.5; stroke-linecap: square"/>
   </g>
   <g id="line2d_74">
    <path d="M 84.49614 341.236664 
L 89.065872 341.236664 
L 89.065872 345.309 
L 166.948074 345.309 
L 166.948074 309.239743 
L 173.013741 309.239743 
L 173.013741 42.909 
L 445.611801 42.909 
L 445.611801 328.088838 
L 450.189415 328.088838 
L 450.189415 345.309 
L 591.765839 345.309 
L 591.765839 345.309 
" clip-path="url(#p535148e7d7)" style="fill: none; stroke: #195762; stroke-width: 1.5; stroke-linecap: square"/>
   </g>
   <g id="line2d_75">
    <path d="M 84.496201 343.331008 
L 89.065895 343.331008 
L 89.065895 345.192648 
L 93.634354 345.192648 
L 93.634354 345.309 
L 107.333534 345.309 
L 107.333534 345.192648 
L 111.897278 345.192648 
L 111.897278 345.309 
L 166.948128 345.309 
L 166.948128 263.86229 
L 173.013802 263.86229 
L 173.013802 42.909 
L 445.611855 42.909 
L 445.611855 344.84359 
L 450.189476 344.84359 
L 450.189476 345.309 
L 463.898529 345.309 
L 463.898529 345.192648 
L 468.466484 345.192648 
L 468.466484 345.309 
L 523.28286 345.309 
L 523.28286 345.192648 
L 527.849724 345.192648 
L 527.849724 345.309 
L 591.765884 345.309 
L 591.765884 345.309 
" clip-path="url(#p535148e7d7)" style="fill: none; stroke: #1a5762; stroke-width: 1.5; stroke-linecap: square"/>
   </g>
   <g id="line2d_76">
    <path d="M 84.496223 341.236664 
L 89.065948 341.236664 
L 89.065948 345.309 
L 166.948158 345.309 
L 166.948158 249.783644 
L 173.013824 249.783644 
L 173.013824 42.909 
L 445.611885 42.909 
L 445.611885 344.84359 
L 450.189507 344.84359 
L 450.189507 345.309 
L 591.765915 345.309 
L 591.765915 345.309 
" clip-path="url(#p535148e7d7)" style="fill: none; stroke: #1b5862; stroke-width: 1.5; stroke-linecap: square"/>
   </g>
   <g id="line2d_77">
    <path d="M 84.496277 343.214656 
L 89.065971 343.214656 
L 89.065971 345.309 
L 166.948212 345.309 
L 166.948212 271.541551 
L 173.013878 271.541551 
L 173.013878 42.909 
L 445.611938 42.909 
L 445.611938 344.84359 
L 450.189552 344.84359 
L 450.189552 345.309 
L 559.804924 345.309 
L 559.804924 345.192648 
L 564.370346 345.192648 
L 564.370346 345.309 
L 591.765976 345.309 
L 591.765976 345.309 
" clip-path="url(#p535148e7d7)" style="fill: none; stroke: #1b5962; stroke-width: 1.5; stroke-linecap: square"/>
   </g>
   <g id="line2d_78">
    <path d="M 84.4963 337.862444 
L 89.066032 337.862444 
L 89.066032 345.309 
L 111.897385 345.309 
L 111.897385 343.796418 
L 116.463219 343.796418 
L 116.463219 345.309 
L 134.71862 345.309 
L 134.71862 345.192648 
L 139.283768 345.192648 
L 139.283768 345.309 
L 166.948242 345.309 
L 166.948242 271.308846 
L 173.013908 271.308846 
L 173.013908 42.909 
L 445.611969 42.909 
L 445.611969 344.84359 
L 450.189613 344.84359 
L 450.189613 345.309 
L 591.765999 345.309 
L 591.765999 345.309 
" clip-path="url(#p535148e7d7)" style="fill: none; stroke: #1c5a62; stroke-width: 1.5; stroke-linecap: square"/>
   </g>
   <g id="line2d_79">
    <path d="M 84.496361 343.098304 
L 89.066063 343.098304 
L 89.066063 345.192648 
L 93.634521 345.192648 
L 93.634521 345.309 
L 111.897438 345.309 
L 111.897438 344.029123 
L 116.46328 344.029123 
L 116.46328 345.309 
L 166.948296 345.309 
L 166.948296 250.132701 
L 173.013939 250.132701 
L 173.013939 42.909 
L 445.612022 42.909 
L 445.612022 345.076295 
L 454.763313 345.076295 
L 454.763313 345.309 
L 591.766052 345.309 
L 591.766052 345.309 
" clip-path="url(#p535148e7d7)" style="fill: none; stroke: #1d5b62; stroke-width: 1.5; stroke-linecap: square"/>
   </g>
   <g id="line2d_80">
    <path d="M 84.496391 342.516541 
L 89.066116 342.516541 
L 89.066116 345.192648 
L 93.634544 345.192648 
L 93.634544 345.309 
L 166.948326 345.309 
L 166.948326 267.469215 
L 173.013992 267.469215 
L 173.013992 42.909 
L 445.612053 42.909 
L 445.612053 344.959943 
L 450.189697 344.959943 
L 450.189697 345.309 
L 591.766075 345.309 
L 591.766075 345.309 
" clip-path="url(#p535148e7d7)" style="fill: none; stroke: #1e5c62; stroke-width: 1.5; stroke-linecap: square"/>
   </g>
   <g id="line2d_81">
    <path d="M 84.496437 341.00396 
L 89.066139 341.00396 
L 89.066139 345.192648 
L 93.634605 345.192648 
L 93.634605 345.309 
L 107.333771 345.309 
L 107.333771 345.192648 
L 111.897552 345.192648 
L 111.897552 345.309 
L 166.94838 345.309 
L 166.94838 268.16733 
L 173.014015 268.16733 
L 173.014015 42.909 
L 445.612106 42.909 
L 445.612106 344.959943 
L 450.189758 344.959943 
L 450.189758 345.309 
L 463.898781 345.309 
L 463.898781 345.192648 
L 468.466759 345.192648 
L 468.466759 345.309 
L 591.766136 345.309 
L 591.766136 345.309 
" clip-path="url(#p535148e7d7)" style="fill: none; stroke: #1e5d62; stroke-width: 1.5; stroke-linecap: square"/>
   </g>
   <g id="line2d_82">
    <path d="M 84.496582 343.098304 
L 89.06633 343.098304 
L 89.06633 345.192648 
L 93.63475 345.192648 
L 93.63475 345.309 
L 157.541443 345.309 
L 157.541443 345.192648 
L 162.106133 345.192648 
L 162.106133 345.309 
L 166.948547 345.309 
L 166.948547 250.481759 
L 173.014191 250.481759 
L 173.014191 42.909 
L 445.612244 42.909 
L 445.612244 344.610885 
L 450.189888 344.610885 
L 450.189888 345.309 
L 459.329536 345.309 
L 459.329536 345.192648 
L 463.898941 345.192648 
L 463.898941 345.309 
L 591.766266 345.309 
L 591.766266 345.309 
" clip-path="url(#p535148e7d7)" style="fill: none; stroke: #1f5d61; stroke-width: 1.5; stroke-linecap: square"/>
   </g>
   <g id="line2d_83">
    <path d="M 84.496613 342.632894 
L 89.066414 342.632894 
L 89.066414 345.309 
L 130.155678 345.309 
L 130.155678 345.192648 
L 134.718948 345.192648 
L 134.718948 345.309 
L 166.948608 345.309 
L 166.948608 259.324544 
L 173.014214 259.324544 
L 173.014214 42.909 
L 445.612267 42.909 
L 445.612267 345.076295 
L 450.189972 345.076295 
L 450.189972 345.309 
L 459.329597 345.309 
L 459.329597 345.192648 
L 463.898972 345.192648 
L 463.898972 345.309 
L 591.766304 345.309 
L 591.766304 345.309 
" clip-path="url(#p535148e7d7)" style="fill: none; stroke: #205e61; stroke-width: 1.5; stroke-linecap: square"/>
   </g>
   <g id="line2d_84">
    <path d="M 84.496666 343.680066 
L 89.066444 343.680066 
L 89.066444 344.37818 
L 93.63485 344.37818 
L 93.63485 344.610885 
L 98.200165 344.610885 
L 98.200165 344.37818 
L 102.765602 344.37818 
L 102.765602 344.610885 
L 107.334023 344.610885 
L 107.334023 344.494533 
L 116.463608 344.494533 
L 116.463608 344.37818 
L 121.028404 344.37818 
L 121.028404 344.610885 
L 125.59063 344.610885 
L 125.59063 344.494533 
L 143.84964 344.494533 
L 143.84964 344.610885 
L 152.97583 344.610885 
L 152.97583 344.494533 
L 157.541527 344.494533 
L 157.541527 344.610885 
L 162.106209 344.610885 
L 162.106209 344.37818 
L 166.948631 344.37818 
L 166.948631 263.629585 
L 173.014267 263.629585 
L 173.014267 42.909 
L 445.61235 42.909 
L 445.61235 343.912771 
L 450.189995 343.912771 
L 450.189995 344.494533 
L 468.467041 344.494533 
L 468.467041 344.610885 
L 473.0299 344.610885 
L 473.0299 344.494533 
L 477.616119 344.494533 
L 477.616119 344.610885 
L 491.322639 344.610885 
L 491.322639 344.494533 
L 514.153931 344.494533 
L 514.153931 344.610885 
L 518.717407 344.610885 
L 518.717407 344.494533 
L 550.674202 344.494533 
L 550.674202 344.610885 
L 555.237625 344.610885 
L 555.237625 344.494533 
L 559.805359 344.494533 
L 559.805359 344.610885 
L 564.370766 344.610885 
L 564.370766 344.494533 
L 587.201973 344.494533 
L 587.201973 344.610885 
L 591.766357 344.610885 
L 591.766357 344.494533 
L 591.766357 344.494533 
" clip-path="url(#p535148e7d7)" style="fill: none; stroke: #215f61; stroke-width: 1.5; stroke-linecap: square"/>
   </g>
   <g id="patch_3">
    <path d="M 59.13 360.429 
L 59.13 27.789 
" style="fill: none; stroke: #000000; stroke-width: 0.8; stroke-linejoin: miter; stroke-linecap: square"/>
   </g>
   <g id="patch_4">
    <path d="M 617.13 360.429 
L 617.13 27.789 
" style="fill: none; stroke: #000000; stroke-width: 0.8; stroke-linejoin: miter; stroke-linecap: square"/>
   </g>
   <g id="patch_5">
    <path d="M 59.12999 360.429 
L 617.12999 360.429 
" style="fill: none; stroke: #000000; stroke-width: 0.8; stroke-linejoin: miter; stroke-linecap: square"/>
   </g>
   <g id="patch_6">
    <path d="M 59.12999 27.789 
L 617.12999 27.789 
" style="fill: none; stroke: #000000; stroke-width: 0.8; stroke-linejoin: miter; stroke-linecap: square"/>
   </g>
   <g id="text_13">
    <!-- CPU frequency in GHz over time for each thread -->
    <g transform="translate(106.6965 21.789) scale(0.192 -0.192)">
     <defs>
      <path id="DejaVuSans-43" d="M 4122 4306 
L 4122 3641 
Q 3803 3938 3442 4084 
Q 3081 4231 2675 4231 
Q 1875 4231 1450 3742 
Q 1025 3253 1025 2328 
Q 1025 1406 1450 917 
Q 1875 428 2675 428 
Q 3081 428 3442 575 
Q 3803 722 4122 1019 
L 4122 359 
Q 3791 134 3420 21 
Q 3050 -91 2638 -91 
Q 1578 -91 968 557 
Q 359 1206 359 2328 
Q 359 3453 968 4101 
Q 1578 4750 2638 4750 
Q 3056 4750 3426 4639 
Q 3797 4528 4122 4306 
z
" transform="scale(0.015625)"/>
      <path id="DejaVuSans-50" d="M 1259 4147 
L 1259 2394 
L 2053 2394 
Q 2494 2394 2734 2622 
Q 2975 2850 2975 3272 
Q 2975 3691 2734 3919 
Q 2494 4147 2053 4147 
L 1259 4147 
z
M 628 4666 
L 2053 4666 
Q 2838 4666 3239 4311 
Q 3641 3956 3641 3272 
Q 3641 2581 3239 2228 
Q 2838 1875 2053 1875 
L 1259 1875 
L 1259 0 
L 628 0 
L 628 4666 
z
" transform="scale(0.015625)"/>
      <path id="DejaVuSans-55" d="M 556 4666 
L 1191 4666 
L 1191 1831 
Q 1191 1081 1462 751 
Q 1734 422 2344 422 
Q 2950 422 3222 751 
Q 3494 1081 3494 1831 
L 3494 4666 
L 4128 4666 
L 4128 1753 
Q 4128 841 3676 375 
Q 3225 -91 2344 -91 
Q 1459 -91 1007 375 
Q 556 841 556 1753 
L 556 4666 
z
" transform="scale(0.015625)"/>
      <path id="DejaVuSans-20" transform="scale(0.015625)"/>
      <path id="DejaVuSans-66" d="M 2375 4863 
L 2375 4384 
L 1825 4384 
Q 1516 4384 1395 4259 
Q 1275 4134 1275 3809 
L 1275 3500 
L 2222 3500 
L 2222 3053 
L 1275 3053 
L 1275 0 
L 697 0 
L 697 3053 
L 147 3053 
L 147 3500 
L 697 3500 
L 697 3744 
Q 697 4328 969 4595 
Q 1241 4863 1831 4863 
L 2375 4863 
z
" transform="scale(0.015625)"/>
      <path id="DejaVuSans-72" d="M 2631 2963 
Q 2534 3019 2420 3045 
Q 2306 3072 2169 3072 
Q 1681 3072 1420 2755 
Q 1159 2438 1159 1844 
L 1159 0 
L 581 0 
L 581 3500 
L 1159 3500 
L 1159 2956 
Q 1341 3275 1631 3429 
Q 1922 3584 2338 3584 
Q 2397 3584 2469 3576 
Q 2541 3569 2628 3553 
L 2631 2963 
z
" transform="scale(0.015625)"/>
      <path id="DejaVuSans-71" d="M 947 1747 
Q 947 1113 1208 752 
Q 1469 391 1925 391 
Q 2381 391 2643 752 
Q 2906 1113 2906 1747 
Q 2906 2381 2643 2742 
Q 2381 3103 1925 3103 
Q 1469 3103 1208 2742 
Q 947 2381 947 1747 
z
M 2906 525 
Q 2725 213 2448 61 
Q 2172 -91 1784 -91 
Q 1150 -91 751 415 
Q 353 922 353 1747 
Q 353 2572 751 3078 
Q 1150 3584 1784 3584 
Q 2172 3584 2448 3432 
Q 2725 3281 2906 2969 
L 2906 3500 
L 3481 3500 
L 3481 -1331 
L 2906 -1331 
L 2906 525 
z
" transform="scale(0.015625)"/>
      <path id="DejaVuSans-75" d="M 544 1381 
L 544 3500 
L 1119 3500 
L 1119 1403 
Q 1119 906 1312 657 
Q 1506 409 1894 409 
Q 2359 409 2629 706 
Q 2900 1003 2900 1516 
L 2900 3500 
L 3475 3500 
L 3475 0 
L 2900 0 
L 2900 538 
Q 2691 219 2414 64 
Q 2138 -91 1772 -91 
Q 1169 -91 856 284 
Q 544 659 544 1381 
z
M 1991 3584 
L 1991 3584 
z
" transform="scale(0.015625)"/>
      <path id="DejaVuSans-6e" d="M 3513 2113 
L 3513 0 
L 2938 0 
L 2938 2094 
Q 2938 2591 2744 2837 
Q 2550 3084 2163 3084 
Q 1697 3084 1428 2787 
Q 1159 2491 1159 1978 
L 1159 0 
L 581 0 
L 581 3500 
L 1159 3500 
L 1159 2956 
Q 1366 3272 1645 3428 
Q 1925 3584 2291 3584 
Q 2894 3584 3203 3211 
Q 3513 2838 3513 2113 
z
" transform="scale(0.015625)"/>
      <path id="DejaVuSans-63" d="M 3122 3366 
L 3122 2828 
Q 2878 2963 2633 3030 
Q 2388 3097 2138 3097 
Q 1578 3097 1268 2742 
Q 959 2388 959 1747 
Q 959 1106 1268 751 
Q 1578 397 2138 397 
Q 2388 397 2633 464 
Q 2878 531 3122 666 
L 3122 134 
Q 2881 22 2623 -34 
Q 2366 -91 2075 -91 
Q 1284 -91 818 406 
Q 353 903 353 1747 
Q 353 2603 823 3093 
Q 1294 3584 2113 3584 
Q 2378 3584 2631 3529 
Q 2884 3475 3122 3366 
z
" transform="scale(0.015625)"/>
      <path id="DejaVuSans-79" d="M 2059 -325 
Q 1816 -950 1584 -1140 
Q 1353 -1331 966 -1331 
L 506 -1331 
L 506 -850 
L 844 -850 
Q 1081 -850 1212 -737 
Q 1344 -625 1503 -206 
L 1606 56 
L 191 3500 
L 800 3500 
L 1894 763 
L 2988 3500 
L 3597 3500 
L 2059 -325 
z
" transform="scale(0.015625)"/>
      <path id="DejaVuSans-6f" d="M 1959 3097 
Q 1497 3097 1228 2736 
Q 959 2375 959 1747 
Q 959 1119 1226 758 
Q 1494 397 1959 397 
Q 2419 397 2687 759 
Q 2956 1122 2956 1747 
Q 2956 2369 2687 2733 
Q 2419 3097 1959 3097 
z
M 1959 3584 
Q 2709 3584 3137 3096 
Q 3566 2609 3566 1747 
Q 3566 888 3137 398 
Q 2709 -91 1959 -91 
Q 1206 -91 779 398 
Q 353 888 353 1747 
Q 353 2609 779 3096 
Q 1206 3584 1959 3584 
z
" transform="scale(0.015625)"/>
      <path id="DejaVuSans-76" d="M 191 3500 
L 800 3500 
L 1894 563 
L 2988 3500 
L 3597 3500 
L 2284 0 
L 1503 0 
L 191 3500 
z
" transform="scale(0.015625)"/>
      <path id="DejaVuSans-74" d="M 1172 4494 
L 1172 3500 
L 2356 3500 
L 2356 3053 
L 1172 3053 
L 1172 1153 
Q 1172 725 1289 603 
Q 1406 481 1766 481 
L 2356 481 
L 2356 0 
L 1766 0 
Q 1100 0 847 248 
Q 594 497 594 1153 
L 594 3053 
L 172 3053 
L 172 3500 
L 594 3500 
L 594 4494 
L 1172 4494 
z
" transform="scale(0.015625)"/>
      <path id="DejaVuSans-61" d="M 2194 1759 
Q 1497 1759 1228 1600 
Q 959 1441 959 1056 
Q 959 750 1161 570 
Q 1363 391 1709 391 
Q 2188 391 2477 730 
Q 2766 1069 2766 1631 
L 2766 1759 
L 2194 1759 
z
M 3341 1997 
L 3341 0 
L 2766 0 
L 2766 531 
Q 2569 213 2275 61 
Q 1981 -91 1556 -91 
Q 1019 -91 701 211 
Q 384 513 384 1019 
Q 384 1609 779 1909 
Q 1175 2209 1959 2209 
L 2766 2209 
L 2766 2266 
Q 2766 2663 2505 2880 
Q 2244 3097 1772 3097 
Q 1472 3097 1187 3025 
Q 903 2953 641 2809 
L 641 3341 
Q 956 3463 1253 3523 
Q 1550 3584 1831 3584 
Q 2591 3584 2966 3190 
Q 3341 2797 3341 1997 
z
" transform="scale(0.015625)"/>
      <path id="DejaVuSans-68" d="M 3513 2113 
L 3513 0 
L 2938 0 
L 2938 2094 
Q 2938 2591 2744 2837 
Q 2550 3084 2163 3084 
Q 1697 3084 1428 2787 
Q 1159 2491 1159 1978 
L 1159 0 
L 581 0 
L 581 4863 
L 1159 4863 
L 1159 2956 
Q 1366 3272 1645 3428 
Q 1925 3584 2291 3584 
Q 2894 3584 3203 3211 
Q 3513 2838 3513 2113 
z
" transform="scale(0.015625)"/>
      <path id="DejaVuSans-64" d="M 2906 2969 
L 2906 4863 
L 3481 4863 
L 3481 0 
L 2906 0 
L 2906 525 
Q 2725 213 2448 61 
Q 2172 -91 1784 -91 
Q 1150 -91 751 415 
Q 353 922 353 1747 
Q 353 2572 751 3078 
Q 1150 3584 1784 3584 
Q 2172 3584 2448 3432 
Q 2725 3281 2906 2969 
z
M 947 1747 
Q 947 1113 1208 752 
Q 1469 391 1925 391 
Q 2381 391 2643 752 
Q 2906 1113 2906 1747 
Q 2906 2381 2643 2742 
Q 2381 3103 1925 3103 
Q 1469 3103 1208 2742 
Q 947 2381 947 1747 
z
" transform="scale(0.015625)"/>
     </defs>
     <use xlink:href="#DejaVuSans-43"/>
     <use xlink:href="#DejaVuSans-50" x="69.824219"/>
     <use xlink:href="#DejaVuSans-55" x="130.126953"/>
     <use xlink:href="#DejaVuSans-20" x="203.320312"/>
     <use xlink:href="#DejaVuSans-66" x="235.107422"/>
     <use xlink:href="#DejaVuSans-72" x="270.3125"/>
     <use xlink:href="#DejaVuSans-65" x="309.175781"/>
     <use xlink:href="#DejaVuSans-71" x="370.699219"/>
     <use xlink:href="#DejaVuSans-75" x="434.175781"/>
     <use xlink:href="#DejaVuSans-65" x="497.554688"/>
     <use xlink:href="#DejaVuSans-6e" x="559.078125"/>
     <use xlink:href="#DejaVuSans-63" x="622.457031"/>
     <use xlink:href="#DejaVuSans-79" x="677.4375"/>
     <use xlink:href="#DejaVuSans-20" x="736.617188"/>
     <use xlink:href="#DejaVuSans-69" x="768.404297"/>
     <use xlink:href="#DejaVuSans-6e" x="796.1875"/>
     <use xlink:href="#DejaVuSans-20" x="859.566406"/>
     <use xlink:href="#DejaVuSans-47" x="891.353516"/>
     <use xlink:href="#DejaVuSans-48" x="968.84375"/>
     <use xlink:href="#DejaVuSans-7a" x="1044.039062"/>
     <use xlink:href="#DejaVuSans-20" x="1096.529297"/>
     <use xlink:href="#DejaVuSans-6f" x="1128.316406"/>
     <use xlink:href="#DejaVuSans-76" x="1189.498047"/>
     <use xlink:href="#DejaVuSans-65" x="1248.677734"/>
     <use xlink:href="#DejaVuSans-72" x="1310.201172"/>
     <use xlink:href="#DejaVuSans-20" x="1351.314453"/>
     <use xlink:href="#DejaVuSans-74" x="1383.101562"/>
     <use xlink:href="#DejaVuSans-69" x="1422.310547"/>
     <use xlink:href="#DejaVuSans-6d" x="1450.09375"/>
     <use xlink:href="#DejaVuSans-65" x="1547.505859"/>
     <use xlink:href="#DejaVuSans-20" x="1609.029297"/>
     <use xlink:href="#DejaVuSans-66" x="1640.816406"/>
     <use xlink:href="#DejaVuSans-6f" x="1676.021484"/>
     <use xlink:href="#DejaVuSans-72" x="1737.203125"/>
     <use xlink:href="#DejaVuSans-20" x="1778.316406"/>
     <use xlink:href="#DejaVuSans-65" x="1810.103516"/>
     <use xlink:href="#DejaVuSans-61" x="1871.626953"/>
     <use xlink:href="#DejaVuSans-63" x="1932.90625"/>
     <use xlink:href="#DejaVuSans-68" x="1987.886719"/>
     <use xlink:href="#DejaVuSans-20" x="2051.265625"/>
     <use xlink:href="#DejaVuSans-74" x="2083.052734"/>
     <use xlink:href="#DejaVuSans-68" x="2122.261719"/>
     <use xlink:href="#DejaVuSans-72" x="2185.640625"/>
     <use xlink:href="#DejaVuSans-65" x="2224.503906"/>
     <use xlink:href="#DejaVuSans-61" x="2286.027344"/>
     <use xlink:href="#DejaVuSans-64" x="2347.306641"/>
    </g>
   </g>
  </g>
 </g>
 <defs>
  <clipPath id="p535148e7d7">
   <rect x="59.13" y="27.789" width="558" height="332.64"/>
  </clipPath>
 </defs>
</svg>
