<?xml version="1.0" encoding="utf-8" standalone="no"?>
<!DOCTYPE svg PUBLIC "-//W3C//DTD SVG 1.1//EN"
  "http://www.w3.org/Graphics/SVG/1.1/DTD/svg11.dtd">
<svg xmlns:xlink="http://www.w3.org/1999/xlink" width="658.654073pt" height="409.599pt" viewBox="0 0 658.654073 409.599" xmlns="http://www.w3.org/2000/svg" version="1.1">
 <metadata>
  <rdf:RDF xmlns:dc="http://purl.org/dc/elements/1.1/" xmlns:cc="http://creativecommons.org/ns#" xmlns:rdf="http://www.w3.org/1999/02/22-rdf-syntax-ns#">
   <cc:Work>
    <dc:type rdf:resource="http://purl.org/dc/dcmitype/StillImage"/>
    <dc:date>2024-04-14T01:07:11.105830</dc:date>
    <dc:format>image/svg+xml</dc:format>
    <dc:creator>
     <cc:Agent>
      <dc:title>Matplotlib v3.8.2, https://matplotlib.org/</dc:title>
     </cc:Agent>
    </dc:creator>
   </cc:Work>
  </rdf:RDF>
 </metadata>
 <defs>
  <style type="text/css">*{stroke-linejoin: round; stroke-linecap: butt}</style>
 </defs>
 <g id="figure_1">
  <g id="patch_1">
   <path d="M 0 409.599 
L 658.654073 409.599 
L 658.654073 0 
L 0 0 
z
" style="fill: #ffffff"/>
  </g>
  <g id="axes_1">
   <g id="patch_2">
    <path d="M 59.13 360.429 
L 617.13 360.429 
L 617.13 27.789 
L 59.13 27.789 
z
" style="fill: #ffffff"/>
   </g>
   <g id="matplotlib.axis_1">
    <g id="xtick_1">
     <g id="line2d_1">
      <path d="M 184.390724 360.429 
L 184.390724 27.789 
" clip-path="url(#pc51124667e)" style="fill: none; stroke: #b0b0b0; stroke-width: 0.8; stroke-linecap: square"/>
     </g>
     <g id="line2d_2">
      <defs>
       <path id="me41b1bab89" d="M 0 0 
L 0 3.5 
" style="stroke: #000000; stroke-width: 0.8"/>
      </defs>
      <g>
       <use xlink:href="#me41b1bab89" x="184.390724" y="360.429" style="stroke: #000000; stroke-width: 0.8"/>
      </g>
     </g>
     <g id="text_1">
      <!-- 12:44:45 -->
      <g transform="translate(148.460724 379.5865) scale(0.16 -0.16)">
       <defs>
        <path id="DejaVuSans-31" d="M 794 531 
L 1825 531 
L 1825 4091 
L 703 3866 
L 703 4441 
L 1819 4666 
L 2450 4666 
L 2450 531 
L 3481 531 
L 3481 0 
L 794 0 
L 794 531 
z
" transform="scale(0.015625)"/>
        <path id="DejaVuSans-32" d="M 1228 531 
L 3431 531 
L 3431 0 
L 469 0 
L 469 531 
Q 828 903 1448 1529 
Q 2069 2156 2228 2338 
Q 2531 2678 2651 2914 
Q 2772 3150 2772 3378 
Q 2772 3750 2511 3984 
Q 2250 4219 1831 4219 
Q 1534 4219 1204 4116 
Q 875 4013 500 3803 
L 500 4441 
Q 881 4594 1212 4672 
Q 1544 4750 1819 4750 
Q 2544 4750 2975 4387 
Q 3406 4025 3406 3419 
Q 3406 3131 3298 2873 
Q 3191 2616 2906 2266 
Q 2828 2175 2409 1742 
Q 1991 1309 1228 531 
z
" transform="scale(0.015625)"/>
        <path id="DejaVuSans-3a" d="M 750 794 
L 1409 794 
L 1409 0 
L 750 0 
L 750 794 
z
M 750 3309 
L 1409 3309 
L 1409 2516 
L 750 2516 
L 750 3309 
z
" transform="scale(0.015625)"/>
        <path id="DejaVuSans-34" d="M 2419 4116 
L 825 1625 
L 2419 1625 
L 2419 4116 
z
M 2253 4666 
L 3047 4666 
L 3047 1625 
L 3713 1625 
L 3713 1100 
L 3047 1100 
L 3047 0 
L 2419 0 
L 2419 1100 
L 313 1100 
L 313 1709 
L 2253 4666 
z
" transform="scale(0.015625)"/>
        <path id="DejaVuSans-35" d="M 691 4666 
L 3169 4666 
L 3169 4134 
L 1269 4134 
L 1269 2991 
Q 1406 3038 1543 3061 
Q 1681 3084 1819 3084 
Q 2600 3084 3056 2656 
Q 3513 2228 3513 1497 
Q 3513 744 3044 326 
Q 2575 -91 1722 -91 
Q 1428 -91 1123 -41 
Q 819 9 494 109 
L 494 744 
Q 775 591 1075 516 
Q 1375 441 1709 441 
Q 2250 441 2565 725 
Q 2881 1009 2881 1497 
Q 2881 1984 2565 2268 
Q 2250 2553 1709 2553 
Q 1456 2553 1204 2497 
Q 953 2441 691 2322 
L 691 4666 
z
" transform="scale(0.015625)"/>
       </defs>
       <use xlink:href="#DejaVuSans-31"/>
       <use xlink:href="#DejaVuSans-32" x="63.623047"/>
       <use xlink:href="#DejaVuSans-3a" x="127.246094"/>
       <use xlink:href="#DejaVuSans-34" x="160.9375"/>
       <use xlink:href="#DejaVuSans-34" x="224.560547"/>
       <use xlink:href="#DejaVuSans-3a" x="288.183594"/>
       <use xlink:href="#DejaVuSans-34" x="321.875"/>
       <use xlink:href="#DejaVuSans-35" x="385.498047"/>
      </g>
     </g>
    </g>
    <g id="xtick_2">
     <g id="line2d_3">
      <path d="M 328.101837 360.429 
L 328.101837 27.789 
" clip-path="url(#pc51124667e)" style="fill: none; stroke: #b0b0b0; stroke-width: 0.8; stroke-linecap: square"/>
     </g>
     <g id="line2d_4">
      <g>
       <use xlink:href="#me41b1bab89" x="328.101837" y="360.429" style="stroke: #000000; stroke-width: 0.8"/>
      </g>
     </g>
     <g id="text_2">
      <!-- 12:44:50 -->
      <g transform="translate(292.171837 379.5865) scale(0.16 -0.16)">
       <defs>
        <path id="DejaVuSans-30" d="M 2034 4250 
Q 1547 4250 1301 3770 
Q 1056 3291 1056 2328 
Q 1056 1369 1301 889 
Q 1547 409 2034 409 
Q 2525 409 2770 889 
Q 3016 1369 3016 2328 
Q 3016 3291 2770 3770 
Q 2525 4250 2034 4250 
z
M 2034 4750 
Q 2819 4750 3233 4129 
Q 3647 3509 3647 2328 
Q 3647 1150 3233 529 
Q 2819 -91 2034 -91 
Q 1250 -91 836 529 
Q 422 1150 422 2328 
Q 422 3509 836 4129 
Q 1250 4750 2034 4750 
z
" transform="scale(0.015625)"/>
       </defs>
       <use xlink:href="#DejaVuSans-31"/>
       <use xlink:href="#DejaVuSans-32" x="63.623047"/>
       <use xlink:href="#DejaVuSans-3a" x="127.246094"/>
       <use xlink:href="#DejaVuSans-34" x="160.9375"/>
       <use xlink:href="#DejaVuSans-34" x="224.560547"/>
       <use xlink:href="#DejaVuSans-3a" x="288.183594"/>
       <use xlink:href="#DejaVuSans-35" x="321.875"/>
       <use xlink:href="#DejaVuSans-30" x="385.498047"/>
      </g>
     </g>
    </g>
    <g id="xtick_3">
     <g id="line2d_5">
      <path d="M 471.812958 360.429 
L 471.812958 27.789 
" clip-path="url(#pc51124667e)" style="fill: none; stroke: #b0b0b0; stroke-width: 0.8; stroke-linecap: square"/>
     </g>
     <g id="line2d_6">
      <g>
       <use xlink:href="#me41b1bab89" x="471.812958" y="360.429" style="stroke: #000000; stroke-width: 0.8"/>
      </g>
     </g>
     <g id="text_3">
      <!-- 12:44:55 -->
      <g transform="translate(435.882958 379.5865) scale(0.16 -0.16)">
       <use xlink:href="#DejaVuSans-31"/>
       <use xlink:href="#DejaVuSans-32" x="63.623047"/>
       <use xlink:href="#DejaVuSans-3a" x="127.246094"/>
       <use xlink:href="#DejaVuSans-34" x="160.9375"/>
       <use xlink:href="#DejaVuSans-34" x="224.560547"/>
       <use xlink:href="#DejaVuSans-3a" x="288.183594"/>
       <use xlink:href="#DejaVuSans-35" x="321.875"/>
       <use xlink:href="#DejaVuSans-35" x="385.498047"/>
      </g>
     </g>
    </g>
    <g id="xtick_4">
     <g id="line2d_7">
      <path d="M 615.524071 360.429 
L 615.524071 27.789 
" clip-path="url(#pc51124667e)" style="fill: none; stroke: #b0b0b0; stroke-width: 0.8; stroke-linecap: square"/>
     </g>
     <g id="line2d_8">
      <g>
       <use xlink:href="#me41b1bab89" x="615.524071" y="360.429" style="stroke: #000000; stroke-width: 0.8"/>
      </g>
     </g>
     <g id="text_4">
      <!-- 12:45:00 -->
      <g transform="translate(579.594071 379.5865) scale(0.16 -0.16)">
       <use xlink:href="#DejaVuSans-31"/>
       <use xlink:href="#DejaVuSans-32" x="63.623047"/>
       <use xlink:href="#DejaVuSans-3a" x="127.246094"/>
       <use xlink:href="#DejaVuSans-34" x="160.9375"/>
       <use xlink:href="#DejaVuSans-35" x="224.560547"/>
       <use xlink:href="#DejaVuSans-3a" x="288.183594"/>
       <use xlink:href="#DejaVuSans-30" x="321.875"/>
       <use xlink:href="#DejaVuSans-30" x="385.498047"/>
      </g>
     </g>
    </g>
    <g id="text_5">
     <!-- Time -->
     <g transform="translate(318.55625 399.0715) scale(0.16 -0.16)">
      <defs>
       <path id="DejaVuSans-54" d="M -19 4666 
L 3928 4666 
L 3928 4134 
L 2272 4134 
L 2272 0 
L 1638 0 
L 1638 4134 
L -19 4134 
L -19 4666 
z
" transform="scale(0.015625)"/>
       <path id="DejaVuSans-69" d="M 603 3500 
L 1178 3500 
L 1178 0 
L 603 0 
L 603 3500 
z
M 603 4863 
L 1178 4863 
L 1178 4134 
L 603 4134 
L 603 4863 
z
" transform="scale(0.015625)"/>
       <path id="DejaVuSans-6d" d="M 3328 2828 
Q 3544 3216 3844 3400 
Q 4144 3584 4550 3584 
Q 5097 3584 5394 3201 
Q 5691 2819 5691 2113 
L 5691 0 
L 5113 0 
L 5113 2094 
Q 5113 2597 4934 2840 
Q 4756 3084 4391 3084 
Q 3944 3084 3684 2787 
Q 3425 2491 3425 1978 
L 3425 0 
L 2847 0 
L 2847 2094 
Q 2847 2600 2669 2842 
Q 2491 3084 2119 3084 
Q 1678 3084 1418 2786 
Q 1159 2488 1159 1978 
L 1159 0 
L 581 0 
L 581 3500 
L 1159 3500 
L 1159 2956 
Q 1356 3278 1631 3431 
Q 1906 3584 2284 3584 
Q 2666 3584 2933 3390 
Q 3200 3197 3328 2828 
z
" transform="scale(0.015625)"/>
       <path id="DejaVuSans-65" d="M 3597 1894 
L 3597 1613 
L 953 1613 
Q 991 1019 1311 708 
Q 1631 397 2203 397 
Q 2534 397 2845 478 
Q 3156 559 3463 722 
L 3463 178 
Q 3153 47 2828 -22 
Q 2503 -91 2169 -91 
Q 1331 -91 842 396 
Q 353 884 353 1716 
Q 353 2575 817 3079 
Q 1281 3584 2069 3584 
Q 2775 3584 3186 3129 
Q 3597 2675 3597 1894 
z
M 3022 2063 
Q 3016 2534 2758 2815 
Q 2500 3097 2075 3097 
Q 1594 3097 1305 2825 
Q 1016 2553 972 2059 
L 3022 2063 
z
" transform="scale(0.015625)"/>
      </defs>
      <use xlink:href="#DejaVuSans-54"/>
      <use xlink:href="#DejaVuSans-69" x="57.958984"/>
      <use xlink:href="#DejaVuSans-6d" x="85.742188"/>
      <use xlink:href="#DejaVuSans-65" x="183.154297"/>
     </g>
    </g>
   </g>
   <g id="matplotlib.axis_2">
    <g id="ytick_1">
     <g id="line2d_9">
      <path d="M 59.13 345.425352 
L 617.13 345.425352 
" clip-path="url(#pc51124667e)" style="fill: none; stroke: #b0b0b0; stroke-width: 0.8; stroke-linecap: square"/>
     </g>
     <g id="line2d_10">
      <defs>
       <path id="m741a14ca20" d="M 0 0 
L -3.5 0 
" style="stroke: #000000; stroke-width: 0.8"/>
      </defs>
      <g>
       <use xlink:href="#m741a14ca20" x="59.13" y="345.425352" style="stroke: #000000; stroke-width: 0.8"/>
      </g>
     </g>
     <g id="text_6">
      <!-- 0.0 -->
      <g transform="translate(26.685 351.504102) scale(0.16 -0.16)">
       <defs>
        <path id="DejaVuSans-2e" d="M 684 794 
L 1344 794 
L 1344 0 
L 684 0 
L 684 794 
z
" transform="scale(0.015625)"/>
       </defs>
       <use xlink:href="#DejaVuSans-30"/>
       <use xlink:href="#DejaVuSans-2e" x="63.623047"/>
       <use xlink:href="#DejaVuSans-30" x="95.410156"/>
      </g>
     </g>
    </g>
    <g id="ytick_2">
     <g id="line2d_11">
      <path d="M 59.13 287.249131 
L 617.13 287.249131 
" clip-path="url(#pc51124667e)" style="fill: none; stroke: #b0b0b0; stroke-width: 0.8; stroke-linecap: square"/>
     </g>
     <g id="line2d_12">
      <g>
       <use xlink:href="#m741a14ca20" x="59.13" y="287.249131" style="stroke: #000000; stroke-width: 0.8"/>
      </g>
     </g>
     <g id="text_7">
      <!-- 0.5 -->
      <g transform="translate(26.685 293.327881) scale(0.16 -0.16)">
       <use xlink:href="#DejaVuSans-30"/>
       <use xlink:href="#DejaVuSans-2e" x="63.623047"/>
       <use xlink:href="#DejaVuSans-35" x="95.410156"/>
      </g>
     </g>
    </g>
    <g id="ytick_3">
     <g id="line2d_13">
      <path d="M 59.13 229.072909 
L 617.13 229.072909 
" clip-path="url(#pc51124667e)" style="fill: none; stroke: #b0b0b0; stroke-width: 0.8; stroke-linecap: square"/>
     </g>
     <g id="line2d_14">
      <g>
       <use xlink:href="#m741a14ca20" x="59.13" y="229.072909" style="stroke: #000000; stroke-width: 0.8"/>
      </g>
     </g>
     <g id="text_8">
      <!-- 1.0 -->
      <g transform="translate(26.685 235.151659) scale(0.16 -0.16)">
       <use xlink:href="#DejaVuSans-31"/>
       <use xlink:href="#DejaVuSans-2e" x="63.623047"/>
       <use xlink:href="#DejaVuSans-30" x="95.410156"/>
      </g>
     </g>
    </g>
    <g id="ytick_4">
     <g id="line2d_15">
      <path d="M 59.13 170.896688 
L 617.13 170.896688 
" clip-path="url(#pc51124667e)" style="fill: none; stroke: #b0b0b0; stroke-width: 0.8; stroke-linecap: square"/>
     </g>
     <g id="line2d_16">
      <g>
       <use xlink:href="#m741a14ca20" x="59.13" y="170.896688" style="stroke: #000000; stroke-width: 0.8"/>
      </g>
     </g>
     <g id="text_9">
      <!-- 1.5 -->
      <g transform="translate(26.685 176.975438) scale(0.16 -0.16)">
       <use xlink:href="#DejaVuSans-31"/>
       <use xlink:href="#DejaVuSans-2e" x="63.623047"/>
       <use xlink:href="#DejaVuSans-35" x="95.410156"/>
      </g>
     </g>
    </g>
    <g id="ytick_5">
     <g id="line2d_17">
      <path d="M 59.13 112.720466 
L 617.13 112.720466 
" clip-path="url(#pc51124667e)" style="fill: none; stroke: #b0b0b0; stroke-width: 0.8; stroke-linecap: square"/>
     </g>
     <g id="line2d_18">
      <g>
       <use xlink:href="#m741a14ca20" x="59.13" y="112.720466" style="stroke: #000000; stroke-width: 0.8"/>
      </g>
     </g>
     <g id="text_10">
      <!-- 2.0 -->
      <g transform="translate(26.685 118.799216) scale(0.16 -0.16)">
       <use xlink:href="#DejaVuSans-32"/>
       <use xlink:href="#DejaVuSans-2e" x="63.623047"/>
       <use xlink:href="#DejaVuSans-30" x="95.410156"/>
      </g>
     </g>
    </g>
    <g id="ytick_6">
     <g id="line2d_19">
      <path d="M 59.13 54.544244 
L 617.13 54.544244 
" clip-path="url(#pc51124667e)" style="fill: none; stroke: #b0b0b0; stroke-width: 0.8; stroke-linecap: square"/>
     </g>
     <g id="line2d_20">
      <g>
       <use xlink:href="#m741a14ca20" x="59.13" y="54.544244" style="stroke: #000000; stroke-width: 0.8"/>
      </g>
     </g>
     <g id="text_11">
      <!-- 2.5 -->
      <g transform="translate(26.685 60.622994) scale(0.16 -0.16)">
       <use xlink:href="#DejaVuSans-32"/>
       <use xlink:href="#DejaVuSans-2e" x="63.623047"/>
       <use xlink:href="#DejaVuSans-35" x="95.410156"/>
      </g>
     </g>
    </g>
    <g id="text_12">
     <!-- GHz -->
     <g transform="translate(19.3575 210.52275) rotate(-90) scale(0.16 -0.16)">
      <defs>
       <path id="DejaVuSans-47" d="M 3809 666 
L 3809 1919 
L 2778 1919 
L 2778 2438 
L 4434 2438 
L 4434 434 
Q 4069 175 3628 42 
Q 3188 -91 2688 -91 
Q 1594 -91 976 548 
Q 359 1188 359 2328 
Q 359 3472 976 4111 
Q 1594 4750 2688 4750 
Q 3144 4750 3555 4637 
Q 3966 4525 4313 4306 
L 4313 3634 
Q 3963 3931 3569 4081 
Q 3175 4231 2741 4231 
Q 1884 4231 1454 3753 
Q 1025 3275 1025 2328 
Q 1025 1384 1454 906 
Q 1884 428 2741 428 
Q 3075 428 3337 486 
Q 3600 544 3809 666 
z
" transform="scale(0.015625)"/>
       <path id="DejaVuSans-48" d="M 628 4666 
L 1259 4666 
L 1259 2753 
L 3553 2753 
L 3553 4666 
L 4184 4666 
L 4184 0 
L 3553 0 
L 3553 2222 
L 1259 2222 
L 1259 0 
L 628 0 
L 628 4666 
z
" transform="scale(0.015625)"/>
       <path id="DejaVuSans-7a" d="M 353 3500 
L 3084 3500 
L 3084 2975 
L 922 459 
L 3084 459 
L 3084 0 
L 275 0 
L 275 525 
L 2438 3041 
L 353 3041 
L 353 3500 
z
" transform="scale(0.015625)"/>
      </defs>
      <use xlink:href="#DejaVuSans-47"/>
      <use xlink:href="#DejaVuSans-48" x="77.490234"/>
      <use xlink:href="#DejaVuSans-7a" x="152.685547"/>
     </g>
    </g>
   </g>
   <g id="line2d_21">
    <path d="M 84.493629 343.447361 
L 89.262444 343.447361 
L 89.262444 345.192648 
L 94.021095 345.192648 
L 94.021095 345.309 
L 98.781929 345.309 
L 98.781929 345.192648 
L 113.069054 345.192648 
L 113.069054 345.309 
L 122.582039 345.309 
L 122.582039 345.192648 
L 127.341957 345.192648 
L 127.341957 344.959943 
L 132.095894 344.959943 
L 132.095894 345.192648 
L 136.854652 345.192648 
L 136.854652 345.309 
L 141.614105 345.309 
L 141.614105 345.192648 
L 155.886086 345.192648 
L 155.886086 345.309 
L 175.798729 345.309 
L 175.798729 344.959943 
L 181.261703 344.959943 
L 181.261703 345.192648 
L 192.182396 345.192648 
L 192.182396 345.076295 
L 208.56469 345.076295 
L 208.56469 345.192648 
L 214.025429 345.192648 
L 214.025429 345.076295 
L 241.330681 345.076295 
L 241.330681 344.727238 
L 246.79277 344.727238 
L 246.79277 345.076295 
L 252.252808 345.076295 
L 252.252808 345.192648 
L 257.714409 345.192648 
L 257.714409 345.076295 
L 268.637199 345.076295 
L 268.637199 344.84359 
L 274.097305 344.84359 
L 274.097305 345.192648 
L 279.558983 345.192648 
L 279.558983 344.959943 
L 284.731918 344.959943 
L 284.731918 345.076295 
L 300.827339 345.076295 
L 300.827339 344.84359 
L 306.288017 344.84359 
L 306.288017 344.959943 
L 311.750137 344.959943 
L 311.750137 345.076295 
L 328.132339 345.076295 
L 328.132339 344.727238 
L 333.593628 344.727238 
L 333.593628 345.076295 
L 355.437706 345.076295 
L 355.437706 344.727238 
L 360.89859 344.727238 
L 360.89859 345.076295 
L 382.743027 345.076295 
L 382.743027 344.959943 
L 388.203522 344.959943 
L 388.203522 345.076295 
L 415.508759 345.076295 
L 415.508759 344.84359 
L 420.969917 344.84359 
L 420.969917 345.076295 
L 442.814621 345.076295 
L 442.814621 344.84359 
L 448.274551 344.84359 
L 448.274551 345.076295 
L 463.264763 345.076295 
L 463.264763 345.309 
L 472.783356 345.309 
L 472.783356 344.959943 
L 477.562927 344.959943 
L 477.562927 345.309 
L 496.591721 345.309 
L 496.591721 345.192648 
L 501.352776 345.192648 
L 501.352776 345.309 
L 520.388931 345.309 
L 520.388931 345.192648 
L 525.144814 345.192648 
L 525.144814 345.309 
L 529.902946 345.309 
L 529.902946 344.959943 
L 534.656975 344.959943 
L 534.656975 345.192648 
L 544.177338 345.192648 
L 544.177338 345.309 
L 567.971756 345.309 
L 567.971756 345.192648 
L 582.246269 345.192648 
L 582.246269 345.309 
L 587.003601 345.309 
L 587.003601 344.959943 
L 591.763168 344.959943 
L 591.763168 345.309 
L 591.763168 345.309 
" clip-path="url(#pc51124667e)" style="fill: none; stroke: #011959; stroke-width: 1.5; stroke-linecap: square"/>
   </g>
   <g id="line2d_22">
    <path d="M 84.49379 344.261828 
L 89.26268 344.261828 
L 89.26268 345.192648 
L 94.021271 345.192648 
L 94.021271 345.309 
L 132.096039 345.309 
L 132.096039 345.192648 
L 136.854797 345.192648 
L 136.854797 345.309 
L 151.129135 345.309 
L 151.129135 345.192648 
L 155.88623 345.192648 
L 155.88623 345.309 
L 175.798866 345.309 
L 175.798866 345.192648 
L 181.261848 345.192648 
L 181.261848 345.309 
L 268.637344 345.309 
L 268.637344 345.192648 
L 274.097443 345.192648 
L 274.097443 345.309 
L 382.743195 345.309 
L 382.743195 345.192648 
L 388.203667 345.192648 
L 388.203667 345.309 
L 458.504387 345.309 
L 458.504387 345.192648 
L 463.2649 345.192648 
L 463.2649 345.309 
L 591.763306 345.309 
L 591.763306 345.309 
" clip-path="url(#pc51124667e)" style="fill: none; stroke: #021b59; stroke-width: 1.5; stroke-linecap: square"/>
   </g>
   <g id="line2d_23">
    <path d="M 84.493858 344.727238 
L 89.262733 344.727238 
L 89.262733 345.076295 
L 94.021301 345.076295 
L 94.021301 345.309 
L 151.129189 345.309 
L 151.129189 345.076295 
L 155.886292 345.076295 
L 155.886292 345.309 
L 175.798897 345.309 
L 175.798897 345.192648 
L 181.261909 345.192648 
L 181.261909 345.309 
L 382.743225 345.309 
L 382.743225 345.192648 
L 388.20372 345.192648 
L 388.20372 345.309 
L 458.504417 345.309 
L 458.504417 345.192648 
L 463.264961 345.192648 
L 463.264961 345.309 
L 496.591919 345.309 
L 496.591919 345.192648 
L 501.352974 345.192648 
L 501.352974 345.309 
L 591.763336 345.309 
L 591.763336 345.309 
" clip-path="url(#pc51124667e)" style="fill: none; stroke: #031c5a; stroke-width: 1.5; stroke-linecap: square"/>
   </g>
   <g id="line2d_24">
    <path d="M 84.493912 344.727238 
L 89.262787 344.727238 
L 89.262787 345.309 
L 151.12925 345.309 
L 151.12925 345.192648 
L 155.886322 345.192648 
L 155.886322 345.309 
L 458.504478 345.309 
L 458.504478 345.192648 
L 463.264992 345.192648 
L 463.264992 345.309 
L 496.591972 345.309 
L 496.591972 345.192648 
L 501.353035 345.192648 
L 501.353035 345.309 
L 591.76339 345.309 
L 591.76339 345.309 
" clip-path="url(#pc51124667e)" style="fill: none; stroke: #041e5a; stroke-width: 1.5; stroke-linecap: square"/>
   </g>
   <g id="line2d_25">
    <path d="M 84.493935 344.727238 
L 89.262825 344.727238 
L 89.262825 345.309 
L 382.743317 345.309 
L 382.743317 345.192648 
L 388.203812 345.192648 
L 388.203812 345.309 
L 458.504509 345.309 
L 458.504509 345.192648 
L 463.265045 345.192648 
L 463.265045 345.309 
L 496.592003 345.309 
L 496.592003 345.192648 
L 501.353065 345.192648 
L 501.353065 345.309 
L 520.389328 345.309 
L 520.389328 345.192648 
L 525.145134 345.192648 
L 525.145134 345.309 
L 591.763428 345.309 
L 591.763428 345.309 
" clip-path="url(#pc51124667e)" style="fill: none; stroke: #051f5a; stroke-width: 1.5; stroke-linecap: square"/>
   </g>
   <g id="line2d_26">
    <path d="M 84.493996 344.727238 
L 89.262878 344.727238 
L 89.262878 345.309 
L 175.799042 345.309 
L 175.799042 345.192648 
L 181.262024 345.192648 
L 181.262024 345.309 
L 371.820518 345.309 
L 371.820518 345.192648 
L 377.282806 345.192648 
L 377.282806 345.309 
L 458.504562 345.309 
L 458.504562 345.192648 
L 463.265076 345.192648 
L 463.265076 345.309 
L 520.389359 345.309 
L 520.389359 344.959943 
L 525.14521 344.959943 
L 525.14521 345.309 
L 591.763481 345.309 
L 591.763481 345.309 
" clip-path="url(#pc51124667e)" style="fill: none; stroke: #06215b; stroke-width: 1.5; stroke-linecap: square"/>
   </g>
   <g id="line2d_27">
    <path d="M 84.494057 344.727238 
L 89.262932 344.727238 
L 89.262932 345.309 
L 458.504623 345.309 
L 458.504623 345.192648 
L 463.265137 345.192648 
L 463.265137 345.309 
L 591.763535 345.309 
L 591.763535 345.309 
" clip-path="url(#pc51124667e)" style="fill: none; stroke: #07225b; stroke-width: 1.5; stroke-linecap: square"/>
   </g>
   <g id="line2d_28">
    <path d="M 84.49408 344.727238 
L 89.26297 344.727238 
L 89.26297 345.309 
L 186.720596 345.309 
L 186.720596 345.192648 
L 192.182823 345.192648 
L 192.182823 345.309 
L 377.28289 345.309 
L 377.28289 345.192648 
L 382.743462 345.192648 
L 382.743462 345.309 
L 458.504646 345.309 
L 458.504646 345.192648 
L 463.26516 345.192648 
L 463.26516 345.309 
L 496.59214 345.309 
L 496.59214 345.192648 
L 501.35321 345.192648 
L 501.35321 345.309 
L 591.763573 345.309 
L 591.763573 345.309 
" clip-path="url(#pc51124667e)" style="fill: none; stroke: #07245b; stroke-width: 1.5; stroke-linecap: square"/>
   </g>
   <g id="line2d_29">
    <path d="M 84.494133 344.727238 
L 89.263023 344.727238 
L 89.263023 345.309 
L 268.637665 345.309 
L 268.637665 345.192648 
L 274.097763 345.192648 
L 274.097763 345.309 
L 591.763626 345.309 
L 591.763626 345.309 
" clip-path="url(#pc51124667e)" style="fill: none; stroke: #08255b; stroke-width: 1.5; stroke-linecap: square"/>
   </g>
   <g id="line2d_30">
    <path d="M 84.494225 344.727238 
L 89.263054 344.727238 
L 89.263054 345.309 
L 141.614594 345.309 
L 141.614594 345.192648 
L 146.371483 345.192648 
L 146.371483 345.309 
L 151.129517 345.309 
L 151.129517 345.192648 
L 155.886574 345.192648 
L 155.886574 345.309 
L 175.79921 345.309 
L 175.79921 345.192648 
L 181.262192 345.192648 
L 181.262192 345.309 
L 458.50473 345.309 
L 458.50473 345.192648 
L 463.265251 345.192648 
L 463.265251 345.309 
L 591.763649 345.309 
L 591.763649 345.309 
" clip-path="url(#pc51124667e)" style="fill: none; stroke: #09275c; stroke-width: 1.5; stroke-linecap: square"/>
   </g>
   <g id="line2d_31">
    <path d="M 84.494255 344.727238 
L 89.263115 344.727238 
L 89.263115 345.309 
L 175.799248 345.309 
L 175.799248 345.192648 
L 181.262253 345.192648 
L 181.262253 345.309 
L 458.504768 345.309 
L 458.504768 345.192648 
L 463.265305 345.192648 
L 463.265305 345.309 
L 591.763718 345.309 
L 591.763718 345.309 
" clip-path="url(#pc51124667e)" style="fill: none; stroke: #0a285c; stroke-width: 1.5; stroke-linecap: square"/>
   </g>
   <g id="line2d_32">
    <path d="M 84.494308 344.727238 
L 89.263145 344.727238 
L 89.263145 345.309 
L 175.799301 345.309 
L 175.799301 345.192648 
L 181.262276 345.192648 
L 181.262276 345.309 
L 458.504822 345.309 
L 458.504822 345.192648 
L 463.265335 345.192648 
L 463.265335 345.309 
L 496.59243 345.309 
L 496.59243 345.192648 
L 501.35347 345.192648 
L 501.35347 345.309 
L 591.763824 345.309 
L 591.763824 345.309 
" clip-path="url(#pc51124667e)" style="fill: none; stroke: #0a2a5c; stroke-width: 1.5; stroke-linecap: square"/>
   </g>
   <g id="line2d_33">
    <path d="M 84.49437 344.727238 
L 89.263199 344.727238 
L 89.263199 345.309 
L 141.614738 345.309 
L 141.614738 345.192648 
L 155.886719 345.192648 
L 155.886719 345.309 
L 175.799332 345.309 
L 175.799332 345.192648 
L 181.262337 345.192648 
L 181.262337 345.309 
L 268.63784 345.309 
L 268.63784 345.192648 
L 274.097931 345.192648 
L 274.097931 345.309 
L 328.132996 345.309 
L 328.132996 345.192648 
L 333.594284 345.192648 
L 333.594284 345.309 
L 377.283203 345.309 
L 377.283203 345.192648 
L 382.743736 345.192648 
L 382.743736 345.309 
L 393.665443 345.309 
L 393.665443 345.192648 
L 404.587425 345.192648 
L 404.587425 345.309 
L 458.504852 345.309 
L 458.504852 345.192648 
L 463.265396 345.192648 
L 463.265396 345.309 
L 496.592484 345.309 
L 496.592484 345.192648 
L 501.353523 345.192648 
L 501.353523 345.309 
L 510.872002 345.309 
L 510.872002 345.192648 
L 515.630508 345.192648 
L 515.630508 345.309 
L 525.1455 345.309 
L 525.1455 345.192648 
L 529.903603 345.192648 
L 529.903603 345.309 
L 539.416763 345.309 
L 539.416763 345.192648 
L 548.932884 345.192648 
L 548.932884 345.309 
L 591.763855 345.309 
L 591.763855 345.309 
" clip-path="url(#pc51124667e)" style="fill: none; stroke: #0b2b5c; stroke-width: 1.5; stroke-linecap: square"/>
   </g>
   <g id="line2d_34">
    <path d="M 84.4944 344.727238 
L 89.26326 344.727238 
L 89.26326 345.309 
L 175.799393 345.309 
L 175.799393 345.192648 
L 181.262367 345.192648 
L 181.262367 345.309 
L 263.175606 345.309 
L 263.175606 345.192648 
L 268.637863 345.192648 
L 268.637863 345.309 
L 458.504913 345.309 
L 458.504913 345.192648 
L 463.265427 345.192648 
L 463.265427 345.309 
L 496.592522 345.309 
L 496.592522 345.192648 
L 501.353554 345.192648 
L 501.353554 345.309 
L 591.763916 345.309 
L 591.763916 345.309 
" clip-path="url(#pc51124667e)" style="fill: none; stroke: #0b2d5d; stroke-width: 1.5; stroke-linecap: square"/>
   </g>
   <g id="line2d_35">
    <path d="M 84.494453 344.727238 
L 89.26329 344.727238 
L 89.26329 345.309 
L 108.300148 345.309 
L 108.300148 345.192648 
L 113.069862 345.192648 
L 113.069862 345.309 
L 141.614822 345.309 
L 141.614822 345.192648 
L 146.371696 345.192648 
L 146.371696 345.309 
L 458.504936 345.309 
L 458.504936 345.192648 
L 463.26548 345.192648 
L 463.26548 345.309 
L 548.932976 345.309 
L 548.932976 345.076295 
L 553.69268 345.076295 
L 553.69268 345.309 
L 563.209267 345.309 
L 563.209267 345.076295 
L 567.972481 345.076295 
L 567.972481 345.309 
L 591.763939 345.309 
L 591.763939 345.309 
" clip-path="url(#pc51124667e)" style="fill: none; stroke: #0c2e5d; stroke-width: 1.5; stroke-linecap: square"/>
   </g>
   <g id="line2d_36">
    <path d="M 84.494492 344.727238 
L 89.263344 344.727238 
L 89.263344 345.309 
L 141.614861 345.309 
L 141.614861 345.192648 
L 146.37175 345.192648 
L 146.37175 345.309 
L 458.50499 345.309 
L 458.50499 345.192648 
L 463.265503 345.192648 
L 463.265503 345.309 
L 591.763992 345.309 
L 591.763992 345.309 
" clip-path="url(#pc51124667e)" style="fill: none; stroke: #0c2f5d; stroke-width: 1.5; stroke-linecap: square"/>
   </g>
   <g id="line2d_37">
    <path d="M 84.494545 344.727238 
L 89.263367 344.727238 
L 89.263367 345.309 
L 175.799591 345.309 
L 175.799591 345.192648 
L 181.262596 345.192648 
L 181.262596 345.309 
L 458.50502 345.309 
L 458.50502 345.192648 
L 463.265572 345.192648 
L 463.265572 345.309 
L 591.76403 345.309 
L 591.76403 345.309 
" clip-path="url(#pc51124667e)" style="fill: none; stroke: #0d315d; stroke-width: 1.5; stroke-linecap: square"/>
   </g>
   <g id="line2d_38">
    <path d="M 84.494598 344.727238 
L 89.263428 344.727238 
L 89.263428 345.309 
L 175.799614 345.309 
L 175.799614 345.192648 
L 181.262619 345.192648 
L 181.262619 345.309 
L 458.505081 345.309 
L 458.505081 345.192648 
L 463.265678 345.192648 
L 463.265678 345.309 
L 591.764084 345.309 
L 591.764084 345.309 
" clip-path="url(#pc51124667e)" style="fill: none; stroke: #0d325e; stroke-width: 1.5; stroke-linecap: square"/>
   </g>
   <g id="line2d_39">
    <path d="M 84.494637 344.727238 
L 89.263458 344.727238 
L 89.263458 345.309 
L 94.021996 345.309 
L 94.021996 345.192648 
L 132.096756 345.192648 
L 132.096756 345.309 
L 136.855606 345.309 
L 136.855606 345.192648 
L 151.129883 345.192648 
L 151.129883 345.309 
L 175.799683 345.309 
L 175.799683 345.076295 
L 181.26268 345.076295 
L 181.26268 345.309 
L 186.721176 345.309 
L 186.721176 345.192648 
L 219.487595 345.192648 
L 219.487595 345.309 
L 230.410477 345.309 
L 230.410477 345.192648 
L 300.828293 345.192648 
L 300.828293 345.309 
L 306.288994 345.309 
L 306.288994 345.192648 
L 360.899567 345.192648 
L 360.899567 345.309 
L 366.360527 345.309 
L 366.360527 345.192648 
L 437.353622 345.192648 
L 437.353622 345.309 
L 442.815506 345.309 
L 442.815506 345.192648 
L 458.505226 345.192648 
L 458.505226 345.076295 
L 463.265739 345.076295 
L 463.265739 345.192648 
L 477.564217 345.192648 
L 477.564217 345.309 
L 482.324394 345.309 
L 482.324394 345.192648 
L 491.838326 345.192648 
L 491.838326 345.309 
L 496.592751 345.309 
L 496.592751 345.192648 
L 544.17823 345.192648 
L 544.17823 345.309 
L 553.692856 345.309 
L 553.692856 345.192648 
L 567.972771 345.192648 
L 567.972771 345.309 
L 572.727188 345.309 
L 572.727188 345.192648 
L 582.24736 345.192648 
L 582.24736 345.309 
L 587.004578 345.309 
L 587.004578 345.192648 
L 591.764114 345.192648 
L 591.764114 345.192648 
" clip-path="url(#pc51124667e)" style="fill: none; stroke: #0d335e; stroke-width: 1.5; stroke-linecap: square"/>
   </g>
   <g id="line2d_40">
    <path d="M 84.49469 344.727238 
L 89.263489 344.727238 
L 89.263489 345.309 
L 175.799706 345.309 
L 175.799706 345.192648 
L 181.262711 345.192648 
L 181.262711 345.309 
L 344.516357 345.309 
L 344.516357 345.192648 
L 349.977608 345.192648 
L 349.977608 345.309 
L 458.505371 345.309 
L 458.505371 345.192648 
L 463.26577 345.192648 
L 463.26577 345.309 
L 591.764175 345.309 
L 591.764175 345.309 
" clip-path="url(#pc51124667e)" style="fill: none; stroke: #0e355e; stroke-width: 1.5; stroke-linecap: square"/>
   </g>
   <g id="line2d_41">
    <path d="M 84.494713 344.84359 
L 89.263542 344.84359 
L 89.263542 345.309 
L 175.799759 345.309 
L 175.799759 345.192648 
L 181.262764 345.192648 
L 181.262764 345.309 
L 268.638237 345.309 
L 268.638237 345.192648 
L 274.098366 345.192648 
L 274.098366 345.309 
L 404.587769 345.309 
L 404.587769 345.192648 
L 410.049347 345.192648 
L 410.049347 345.309 
L 458.505402 345.309 
L 458.505402 345.192648 
L 463.265823 345.192648 
L 463.265823 345.309 
L 496.592842 345.309 
L 496.592842 345.192648 
L 501.353867 345.192648 
L 501.353867 345.309 
L 591.764206 345.309 
L 591.764206 345.309 
" clip-path="url(#pc51124667e)" style="fill: none; stroke: #0e365e; stroke-width: 1.5; stroke-linecap: square"/>
   </g>
   <g id="line2d_42">
    <path d="M 84.494781 344.494533 
L 89.263573 344.494533 
L 89.263573 345.192648 
L 94.022141 345.192648 
L 94.022141 345.309 
L 146.372093 345.309 
L 146.372093 345.076295 
L 151.130081 345.076295 
L 151.130081 345.309 
L 175.799789 345.309 
L 175.799789 345.192648 
L 181.262825 345.192648 
L 181.262825 345.309 
L 203.105278 345.309 
L 203.105278 345.076295 
L 208.565811 345.076295 
L 208.565811 345.309 
L 268.63829 345.309 
L 268.63829 345.192648 
L 349.977699 345.192648 
L 349.977699 345.309 
L 382.744133 345.309 
L 382.744133 345.192648 
L 388.204651 345.192648 
L 388.204651 345.309 
L 458.505455 345.309 
L 458.505455 345.192648 
L 463.265862 345.192648 
L 463.265862 345.309 
L 572.72731 345.309 
L 572.72731 345.192648 
L 577.486328 345.192648 
L 577.486328 345.309 
L 591.764229 345.309 
L 591.764229 345.309 
" clip-path="url(#pc51124667e)" style="fill: none; stroke: #0e375e; stroke-width: 1.5; stroke-linecap: square"/>
   </g>
   <g id="line2d_43">
    <path d="M 84.494804 344.37818 
L 89.263634 344.37818 
L 89.263634 345.309 
L 175.79985 345.309 
L 175.79985 345.192648 
L 181.262878 345.192648 
L 181.262878 345.309 
L 186.721352 345.309 
L 186.721352 345.192648 
L 192.183548 345.192648 
L 192.183548 345.309 
L 214.026604 345.309 
L 214.026604 345.192648 
L 219.48774 345.192648 
L 219.48774 345.309 
L 322.672554 345.309 
L 322.672554 345.192648 
L 328.133514 345.192648 
L 328.133514 345.309 
L 349.977753 345.309 
L 349.977753 345.192648 
L 463.265915 345.192648 
L 463.265915 345.076295 
L 468.027725 345.076295 
L 468.027725 345.192648 
L 472.7845 345.192648 
L 472.7845 345.076295 
L 482.324562 345.076295 
L 482.324562 345.192648 
L 487.080002 345.192648 
L 487.080002 345.076295 
L 520.390305 345.076295 
L 520.390305 345.192648 
L 525.145935 345.192648 
L 525.145935 345.076295 
L 529.904037 345.076295 
L 529.904037 345.192648 
L 539.417343 345.192648 
L 539.417343 345.076295 
L 548.933403 345.076295 
L 548.933403 345.192648 
L 563.209724 345.192648 
L 563.209724 345.076295 
L 582.247528 345.076295 
L 582.247528 345.192648 
L 587.004745 345.192648 
L 587.004745 345.076295 
L 591.764282 345.076295 
L 591.764282 345.192648 
L 591.764282 345.192648 
" clip-path="url(#pc51124667e)" style="fill: none; stroke: #0f385f; stroke-width: 1.5; stroke-linecap: square"/>
   </g>
   <g id="line2d_44">
    <path d="M 84.494858 344.727238 
L 89.263657 344.727238 
L 89.263657 345.309 
L 175.799881 345.309 
L 175.799881 345.192648 
L 181.262909 345.192648 
L 181.262909 345.309 
L 404.587891 345.309 
L 404.587891 345.192648 
L 410.049492 345.192648 
L 410.049492 345.309 
L 458.505547 345.309 
L 458.505547 343.331008 
L 463.265938 343.331008 
L 463.265938 345.192648 
L 468.027779 345.192648 
L 468.027779 345.309 
L 496.592949 345.309 
L 496.592949 345.192648 
L 501.353989 345.192648 
L 501.353989 345.309 
L 591.76432 345.309 
L 591.76432 345.309 
" clip-path="url(#pc51124667e)" style="fill: none; stroke: #0f395f; stroke-width: 1.5; stroke-linecap: square"/>
   </g>
   <g id="line2d_45">
    <path d="M 84.494911 344.727238 
L 89.26371 344.727238 
L 89.26371 345.192648 
L 165.407204 345.192648 
L 165.407204 345.309 
L 170.160019 345.309 
L 170.160019 345.192648 
L 214.026695 345.192648 
L 214.026695 345.309 
L 219.487823 345.309 
L 219.487823 345.192648 
L 235.87204 345.192648 
L 235.87204 345.309 
L 241.331894 345.309 
L 241.331894 345.192648 
L 257.715645 345.192648 
L 257.715645 345.309 
L 263.176208 345.309 
L 263.176208 345.192648 
L 300.828552 345.192648 
L 300.828552 345.309 
L 306.289284 345.309 
L 306.289284 345.192648 
L 311.751312 345.192648 
L 311.751312 345.309 
L 317.211647 345.309 
L 317.211647 345.192648 
L 360.899826 345.192648 
L 360.899826 345.309 
L 366.360786 345.309 
L 366.360786 345.192648 
L 415.510017 345.192648 
L 415.510017 345.309 
L 420.971184 345.309 
L 420.971184 345.192648 
L 529.904182 345.192648 
L 529.904182 345.309 
L 534.658226 345.309 
L 534.658226 345.192648 
L 539.417427 345.192648 
L 539.417427 345.309 
L 544.178551 345.309 
L 544.178551 345.192648 
L 558.451874 345.192648 
L 558.451874 345.309 
L 563.209816 345.309 
L 563.209816 345.192648 
L 572.727455 345.192648 
L 572.727455 345.309 
L 582.24762 345.309 
L 582.24762 345.192648 
L 591.764374 345.192648 
L 591.764374 345.192648 
" clip-path="url(#pc51124667e)" style="fill: none; stroke: #0f3b5f; stroke-width: 1.5; stroke-linecap: square"/>
   </g>
   <g id="line2d_46">
    <path d="M 84.495003 341.353017 
L 89.263802 341.353017 
L 89.263802 345.192648 
L 94.022362 345.192648 
L 94.022362 344.84359 
L 98.783203 344.84359 
L 98.783203 344.727238 
L 113.070351 344.727238 
L 113.070351 345.192648 
L 117.82653 345.192648 
L 117.82653 344.84359 
L 122.583336 344.84359 
L 122.583336 344.727238 
L 165.407234 344.727238 
L 165.407234 344.84359 
L 170.160049 344.84359 
L 170.160049 344.727238 
L 458.505623 344.727238 
L 458.505623 344.610885 
L 463.266029 344.610885 
L 463.266029 344.727238 
L 468.027863 344.727238 
L 468.027863 345.192648 
L 472.784615 345.192648 
L 472.784615 344.84359 
L 477.564507 344.84359 
L 477.564507 344.727238 
L 501.354073 344.727238 
L 501.354073 345.192648 
L 506.114876 345.192648 
L 506.114876 344.727238 
L 539.417458 344.727238 
L 539.417458 345.192648 
L 544.178574 345.192648 
L 544.178574 344.84359 
L 548.933548 344.84359 
L 548.933548 344.727238 
L 558.451904 344.727238 
L 558.451904 345.192648 
L 563.209839 345.192648 
L 563.209839 344.727238 
L 577.486465 344.727238 
L 577.486465 345.192648 
L 582.24765 345.192648 
L 582.24765 344.727238 
L 591.764404 344.727238 
L 591.764404 344.727238 
" clip-path="url(#pc51124667e)" style="fill: none; stroke: #0f3c5f; stroke-width: 1.5; stroke-linecap: square"/>
   </g>
   <g id="line2d_47">
    <path d="M 84.495094 277.475526 
L 89.263855 277.475526 
L 89.263855 345.076295 
L 94.022415 345.076295 
L 94.022415 345.309 
L 98.783257 345.309 
L 98.783257 344.959943 
L 103.545403 344.959943 
L 103.545403 344.84359 
L 108.300789 344.84359 
L 108.300789 344.959943 
L 113.070381 344.959943 
L 113.070381 344.84359 
L 122.58342 344.84359 
L 122.58342 344.959943 
L 146.372299 344.959943 
L 146.372299 344.84359 
L 155.887405 344.84359 
L 155.887405 345.309 
L 160.647697 345.309 
L 160.647697 344.959943 
L 170.16011 344.959943 
L 170.16011 344.84359 
L 175.800026 344.84359 
L 175.800026 344.261828 
L 181.263054 344.261828 
L 181.263054 345.309 
L 186.721519 345.309 
L 186.721519 344.959943 
L 203.105476 344.959943 
L 203.105476 344.84359 
L 214.026772 344.84359 
L 214.026772 344.959943 
L 241.33197 344.959943 
L 241.33197 344.84359 
L 257.715698 344.84359 
L 257.715698 344.959943 
L 263.176292 344.959943 
L 263.176292 345.192648 
L 268.638489 345.192648 
L 268.638489 344.84359 
L 279.560341 344.84359 
L 279.560341 344.959943 
L 284.733192 344.959943 
L 284.733192 344.84359 
L 290.195183 344.84359 
L 290.195183 345.309 
L 295.679092 345.309 
L 295.679092 344.84359 
L 300.828636 344.84359 
L 300.828636 344.959943 
L 306.289375 344.959943 
L 306.289375 344.84359 
L 311.751404 344.84359 
L 311.751404 344.959943 
L 317.211731 344.959943 
L 317.211731 344.84359 
L 322.672722 344.84359 
L 322.672722 344.959943 
L 360.89991 344.959943 
L 360.89991 344.84359 
L 366.360901 344.84359 
L 366.360901 344.959943 
L 382.744347 344.959943 
L 382.744347 344.84359 
L 388.20488 344.84359 
L 388.20488 344.959943 
L 393.666023 344.959943 
L 393.666023 345.309 
L 399.128387 345.309 
L 399.128387 344.959943 
L 404.588036 344.959943 
L 404.588036 344.84359 
L 410.049637 344.84359 
L 410.049637 344.959943 
L 415.510223 344.959943 
L 415.510223 344.84359 
L 420.971275 344.84359 
L 420.971275 344.959943 
L 437.35408 344.959943 
L 437.35408 344.84359 
L 442.815926 344.84359 
L 442.815926 344.959943 
L 458.505661 344.959943 
L 458.505661 342.167484 
L 463.266083 342.167484 
L 463.266083 345.309 
L 468.027901 345.309 
L 468.027901 344.727238 
L 472.784645 344.727238 
L 472.784645 345.309 
L 477.56456 345.309 
L 477.56456 344.959943 
L 482.324707 344.959943 
L 482.324707 344.84359 
L 487.08017 344.84359 
L 487.08017 344.959943 
L 491.838669 344.959943 
L 491.838669 344.84359 
L 496.593094 344.84359 
L 496.593094 345.192648 
L 501.354134 345.192648 
L 501.354134 344.84359 
L 510.872597 344.84359 
L 510.872597 344.959943 
L 525.146133 344.959943 
L 525.146133 344.84359 
L 529.904274 344.84359 
L 529.904274 344.959943 
L 539.417511 344.959943 
L 539.417511 344.84359 
L 544.178642 344.84359 
L 544.178642 344.959943 
L 558.451958 344.959943 
L 558.451958 344.84359 
L 567.973083 344.84359 
L 567.973083 344.959943 
L 572.727531 344.959943 
L 572.727531 344.84359 
L 582.247704 344.84359 
L 582.247704 344.959943 
L 587.004921 344.959943 
L 587.004921 344.84359 
L 591.764465 344.84359 
L 591.764465 344.959943 
L 591.764465 344.959943 
" clip-path="url(#pc51124667e)" style="fill: none; stroke: #103d5f; stroke-width: 1.5; stroke-linecap: square"/>
   </g>
   <g id="line2d_48">
    <path d="M 84.495125 344.145476 
L 89.263885 344.145476 
L 89.263885 344.727238 
L 94.022446 344.727238 
L 94.022446 344.84359 
L 98.783287 344.84359 
L 98.783287 344.959943 
L 113.070442 344.959943 
L 113.070442 344.84359 
L 117.826645 344.84359 
L 117.826645 344.959943 
L 160.64772 344.959943 
L 160.64772 345.076295 
L 165.407326 345.076295 
L 165.407326 344.959943 
L 181.263077 344.959943 
L 181.263077 344.84359 
L 186.72155 344.84359 
L 186.72155 344.959943 
L 300.828697 344.959943 
L 300.828697 345.076295 
L 306.289398 345.076295 
L 306.289398 344.959943 
L 458.505714 344.959943 
L 458.505714 344.84359 
L 472.784698 344.84359 
L 472.784698 344.959943 
L 477.56459 344.959943 
L 477.56459 345.076295 
L 482.32476 345.076295 
L 482.32476 344.959943 
L 501.354156 344.959943 
L 501.354156 344.84359 
L 506.11496 344.84359 
L 506.11496 344.959943 
L 544.178665 344.959943 
L 544.178665 345.076295 
L 548.933609 345.076295 
L 548.933609 344.959943 
L 558.451996 344.959943 
L 558.451996 344.84359 
L 563.209923 344.84359 
L 563.209923 344.959943 
L 577.486557 344.959943 
L 577.486557 344.84359 
L 582.247734 344.84359 
L 582.247734 345.309 
L 587.004974 345.309 
L 587.004974 345.076295 
L 591.764496 345.076295 
L 591.764496 344.959943 
L 591.764496 344.959943 
" clip-path="url(#pc51124667e)" style="fill: none; stroke: #103e5f; stroke-width: 1.5; stroke-linecap: square"/>
   </g>
   <g id="line2d_49">
    <path d="M 84.495178 333.091993 
L 89.263939 333.091993 
L 89.263939 345.192648 
L 94.022507 345.192648 
L 94.022507 345.076295 
L 98.78334 345.076295 
L 98.78334 345.309 
L 113.070724 345.309 
L 113.070724 344.959943 
L 117.826698 344.959943 
L 117.826698 345.192648 
L 122.583511 345.192648 
L 122.583511 345.309 
L 155.887497 345.309 
L 155.887497 344.959943 
L 160.647774 344.959943 
L 160.647774 345.192648 
L 165.407379 345.192648 
L 165.407379 345.309 
L 175.800079 345.309 
L 175.800079 344.727238 
L 181.263115 344.727238 
L 181.263115 344.959943 
L 186.721603 344.959943 
L 186.721603 345.192648 
L 192.183807 345.192648 
L 192.183807 345.309 
L 263.176384 345.309 
L 263.176384 345.192648 
L 274.098747 345.192648 
L 274.098747 345.309 
L 458.505745 345.309 
L 458.505745 343.214656 
L 463.266174 343.214656 
L 463.266174 345.192648 
L 468.027977 345.192648 
L 468.027977 345.076295 
L 472.784729 345.076295 
L 472.784729 344.959943 
L 477.564651 344.959943 
L 477.564651 345.192648 
L 482.324791 345.192648 
L 482.324791 345.309 
L 496.593185 345.309 
L 496.593185 345.192648 
L 501.354218 345.192648 
L 501.354218 344.959943 
L 506.114998 344.959943 
L 506.114998 345.192648 
L 510.872719 345.192648 
L 510.872719 345.309 
L 539.417603 345.309 
L 539.417603 344.959943 
L 544.178719 344.959943 
L 544.178719 345.192648 
L 548.933662 345.192648 
L 548.933662 345.309 
L 558.452049 345.309 
L 558.452049 345.076295 
L 563.209976 345.076295 
L 563.209976 345.192648 
L 567.973175 345.192648 
L 567.973175 345.309 
L 577.48661 345.309 
L 577.48661 345.076295 
L 582.247795 345.076295 
L 582.247795 344.959943 
L 587.005013 344.959943 
L 587.005013 345.192648 
L 591.764549 345.192648 
L 591.764549 345.309 
L 591.764549 345.309 
" clip-path="url(#pc51124667e)" style="fill: none; stroke: #103f60; stroke-width: 1.5; stroke-linecap: square"/>
   </g>
   <g id="line2d_50">
    <path d="M 84.495201 344.37818 
L 89.263962 344.37818 
L 89.263962 344.84359 
L 94.022537 344.84359 
L 94.022537 345.309 
L 175.80014 345.309 
L 175.80014 344.261828 
L 181.263168 344.261828 
L 181.263168 345.309 
L 268.638634 345.309 
L 268.638634 345.192648 
L 274.09877 345.192648 
L 274.09877 345.309 
L 458.505798 345.309 
L 458.505798 344.610885 
L 463.266205 344.610885 
L 463.266205 345.192648 
L 468.028008 345.192648 
L 468.028008 345.309 
L 591.764572 345.309 
L 591.764572 345.309 
" clip-path="url(#pc51124667e)" style="fill: none; stroke: #104060; stroke-width: 1.5; stroke-linecap: square"/>
   </g>
   <g id="line2d_51">
    <path d="M 84.49527 337.164329 
L 89.26403 337.164329 
L 89.26403 345.076295 
L 94.02256 345.076295 
L 94.02256 345.309 
L 175.800194 345.309 
L 175.800194 342.400189 
L 181.263199 342.400189 
L 181.263199 345.309 
L 230.411026 345.309 
L 230.411026 42.909 
L 458.505821 42.909 
L 458.505821 50.588261 
L 463.266228 50.588261 
L 463.266228 345.192648 
L 468.028061 345.192648 
L 468.028061 345.309 
L 496.593277 345.309 
L 496.593277 345.192648 
L 501.354332 345.192648 
L 501.354332 345.309 
L 577.486732 345.309 
L 577.486732 345.192648 
L 582.247871 345.192648 
L 582.247871 345.309 
L 591.764641 345.309 
L 591.764641 345.309 
" clip-path="url(#pc51124667e)" style="fill: none; stroke: #114160; stroke-width: 1.5; stroke-linecap: square"/>
   </g>
   <g id="line2d_52">
    <path d="M 84.495293 339.025968 
L 89.264053 339.025968 
L 89.264053 345.076295 
L 94.022614 345.076295 
L 94.022614 345.309 
L 175.800224 345.309 
L 175.800224 47.330393 
L 181.26326 47.330393 
L 181.26326 42.909 
L 230.411057 42.909 
L 230.411057 345.309 
L 458.50589 345.309 
L 458.50589 345.192648 
L 463.266289 345.192648 
L 463.266289 344.959943 
L 468.028099 344.959943 
L 468.028099 345.192648 
L 472.784874 345.192648 
L 472.784874 345.309 
L 591.764664 345.309 
L 591.764664 345.309 
" clip-path="url(#pc51124667e)" style="fill: none; stroke: #114260; stroke-width: 1.5; stroke-linecap: square"/>
   </g>
   <g id="line2d_53">
    <path d="M 84.495346 337.513386 
L 89.264107 337.513386 
L 89.264107 345.192648 
L 94.022644 345.192648 
L 94.022644 345.309 
L 268.638748 345.309 
L 268.638748 345.192648 
L 274.098999 345.192648 
L 274.098999 345.309 
L 322.672989 345.309 
L 322.672989 345.192648 
L 328.133949 345.192648 
L 328.133949 345.309 
L 377.284073 345.309 
L 377.284073 344.959943 
L 382.744659 344.959943 
L 382.744659 345.192648 
L 388.205162 345.192648 
L 388.205162 345.309 
L 404.588318 345.309 
L 404.588318 345.076295 
L 410.049889 345.076295 
L 410.049889 345.309 
L 458.505913 345.309 
L 458.505913 345.192648 
L 463.266319 345.192648 
L 463.266319 345.309 
L 496.593384 345.309 
L 496.593384 345.192648 
L 501.354416 345.192648 
L 501.354416 345.309 
L 572.727791 345.309 
L 572.727791 344.959943 
L 577.486809 344.959943 
L 577.486809 345.309 
L 591.764748 345.309 
L 591.764748 345.309 
" clip-path="url(#pc51124667e)" style="fill: none; stroke: #114360; stroke-width: 1.5; stroke-linecap: square"/>
   </g>
   <g id="line2d_54">
    <path d="M 84.495407 340.07314 
L 89.264145 340.07314 
L 89.264145 345.192648 
L 94.022705 345.192648 
L 94.022705 345.309 
L 175.800316 345.309 
L 175.800316 345.192648 
L 181.263344 345.192648 
L 181.263344 345.309 
L 268.638809 345.309 
L 268.638809 345.192648 
L 274.099037 345.192648 
L 274.099037 345.309 
L 322.673042 345.309 
L 322.673042 345.192648 
L 328.133972 345.192648 
L 328.133972 345.309 
L 349.97821 345.309 
L 349.97821 345.192648 
L 355.439346 345.192648 
L 355.439346 345.309 
L 458.50602 345.309 
L 458.50602 345.192648 
L 463.266373 345.192648 
L 463.266373 345.309 
L 496.593445 345.309 
L 496.593445 345.192648 
L 501.354446 345.192648 
L 501.354446 345.309 
L 591.764771 345.309 
L 591.764771 345.309 
" clip-path="url(#pc51124667e)" style="fill: none; stroke: #114460; stroke-width: 1.5; stroke-linecap: square"/>
   </g>
   <g id="line2d_55">
    <path d="M 84.495468 338.095149 
L 89.264198 338.095149 
L 89.264198 345.192648 
L 94.022736 345.192648 
L 94.022736 345.309 
L 268.63884 345.309 
L 268.63884 345.192648 
L 274.099091 345.192648 
L 274.099091 345.309 
L 458.506088 345.309 
L 458.506088 345.192648 
L 463.266403 345.192648 
L 463.266403 345.309 
L 591.764839 345.309 
L 591.764839 345.309 
" clip-path="url(#pc51124667e)" style="fill: none; stroke: #124561; stroke-width: 1.5; stroke-linecap: square"/>
   </g>
   <g id="line2d_56">
    <path d="M 84.495491 339.025968 
L 89.264229 339.025968 
L 89.264229 345.192648 
L 94.022789 345.192648 
L 94.022789 345.309 
L 175.800392 345.309 
L 175.800392 345.192648 
L 181.263458 345.192648 
L 181.263458 345.309 
L 268.638893 345.309 
L 268.638893 345.192648 
L 274.099113 345.192648 
L 274.099113 345.309 
L 322.673134 345.309 
L 322.673134 345.192648 
L 328.134064 345.192648 
L 328.134064 345.309 
L 458.506111 345.309 
L 458.506111 345.192648 
L 463.266464 345.192648 
L 463.266464 345.309 
L 496.593498 345.309 
L 496.593498 345.192648 
L 501.354538 345.192648 
L 501.354538 345.309 
L 591.764862 345.309 
L 591.764862 345.309 
" clip-path="url(#pc51124667e)" style="fill: none; stroke: #124661; stroke-width: 1.5; stroke-linecap: square"/>
   </g>
   <g id="line2d_57">
    <path d="M 84.495552 338.909616 
L 89.26429 338.909616 
L 89.26429 345.192648 
L 94.022812 345.192648 
L 94.022812 345.309 
L 117.827019 345.309 
L 117.827019 345.192648 
L 122.583855 345.192648 
L 122.583855 345.309 
L 175.800484 345.309 
L 175.800484 345.192648 
L 181.263489 345.192648 
L 181.263489 345.309 
L 263.176758 345.309 
L 263.176758 345.192648 
L 274.099144 345.192648 
L 274.099144 345.309 
L 322.673187 345.309 
L 322.673187 345.192648 
L 328.134117 345.192648 
L 328.134117 345.309 
L 404.588493 345.309 
L 404.588493 345.192648 
L 410.050056 345.192648 
L 410.050056 345.309 
L 458.506165 345.309 
L 458.506165 345.192648 
L 463.266495 345.192648 
L 463.266495 345.309 
L 591.764915 345.309 
L 591.764915 345.309 
" clip-path="url(#pc51124667e)" style="fill: none; stroke: #124761; stroke-width: 1.5; stroke-linecap: square"/>
   </g>
   <g id="line2d_58">
    <path d="M 84.495583 337.513386 
L 89.26432 337.513386 
L 89.26432 345.192648 
L 94.022881 345.192648 
L 94.022881 345.309 
L 117.827072 345.309 
L 117.827072 345.192648 
L 122.583916 345.192648 
L 122.583916 345.309 
L 268.638947 345.309 
L 268.638947 345.192648 
L 274.099205 345.192648 
L 274.099205 345.309 
L 458.506195 345.309 
L 458.506195 345.192648 
L 463.266548 345.192648 
L 463.266548 345.309 
L 591.764946 345.309 
L 591.764946 345.309 
" clip-path="url(#pc51124667e)" style="fill: none; stroke: #124861; stroke-width: 1.5; stroke-linecap: square"/>
   </g>
   <g id="line2d_59">
    <path d="M 84.495636 339.491378 
L 89.264374 339.491378 
L 89.264374 345.076295 
L 94.022903 345.076295 
L 94.022903 345.309 
L 98.783737 345.309 
L 98.783737 345.192648 
L 108.301292 345.192648 
L 108.301292 345.309 
L 117.82711 345.309 
L 117.82711 345.192648 
L 127.343849 345.192648 
L 127.343849 345.309 
L 132.097672 345.309 
L 132.097672 345.192648 
L 136.856468 345.192648 
L 136.856468 345.309 
L 146.37281 345.309 
L 146.37281 345.192648 
L 151.130821 345.192648 
L 151.130821 345.309 
L 155.887894 345.309 
L 155.887894 345.192648 
L 160.649536 345.192648 
L 160.649536 345.309 
L 165.407875 345.309 
L 165.407875 345.192648 
L 170.160683 345.192648 
L 170.160683 345.309 
L 175.800575 345.309 
L 175.800575 345.192648 
L 181.26358 345.192648 
L 181.26358 345.309 
L 186.722244 345.309 
L 186.722244 345.192648 
L 192.184273 345.192648 
L 192.184273 345.309 
L 322.673279 345.309 
L 322.673279 345.192648 
L 328.134178 345.192648 
L 328.134178 345.309 
L 404.588585 345.309 
L 404.588585 345.192648 
L 410.050148 345.192648 
L 410.050148 345.309 
L 458.506256 345.309 
L 458.506256 345.192648 
L 463.266632 345.192648 
L 463.266632 345.309 
L 591.764969 345.309 
L 591.764969 345.309 
" clip-path="url(#pc51124667e)" style="fill: none; stroke: #134961; stroke-width: 1.5; stroke-linecap: square"/>
   </g>
   <g id="line2d_60">
    <path d="M 84.495674 341.236664 
L 89.264397 341.236664 
L 89.264397 345.192648 
L 94.022957 345.192648 
L 94.022957 345.309 
L 151.130859 345.309 
L 151.130859 345.192648 
L 155.887962 345.192648 
L 155.887962 345.309 
L 175.800606 345.309 
L 175.800606 345.192648 
L 181.263634 345.192648 
L 181.263634 345.309 
L 458.50631 345.309 
L 458.50631 345.192648 
L 463.266663 345.192648 
L 463.266663 345.309 
L 496.593674 345.309 
L 496.593674 345.192648 
L 501.354706 345.192648 
L 501.354706 345.309 
L 510.873177 345.309 
L 510.873177 345.192648 
L 515.631737 345.192648 
L 515.631737 345.309 
L 591.765038 345.309 
L 591.765038 345.309 
" clip-path="url(#pc51124667e)" style="fill: none; stroke: #134a61; stroke-width: 1.5; stroke-linecap: square"/>
   </g>
   <g id="line2d_61">
    <path d="M 84.495728 339.025968 
L 89.264458 339.025968 
L 89.264458 345.076295 
L 94.022987 345.076295 
L 94.022987 345.309 
L 268.639122 345.309 
L 268.639122 345.192648 
L 274.09935 345.192648 
L 274.09935 345.309 
L 404.588661 345.309 
L 404.588661 345.192648 
L 410.050232 345.192648 
L 410.050232 345.309 
L 458.506363 345.309 
L 458.506363 345.192648 
L 463.266716 345.192648 
L 463.266716 345.309 
L 591.76506 345.309 
L 591.76506 345.309 
" clip-path="url(#pc51124667e)" style="fill: none; stroke: #134b61; stroke-width: 1.5; stroke-linecap: square"/>
   </g>
   <g id="line2d_62">
    <path d="M 84.49575 342.400189 
L 89.264488 342.400189 
L 89.264488 345.192648 
L 94.023048 345.192648 
L 94.023048 345.309 
L 141.616119 345.309 
L 141.616119 345.192648 
L 146.372955 345.192648 
L 146.372955 345.309 
L 175.800682 345.309 
L 175.800682 345.192648 
L 181.263695 345.192648 
L 181.263695 345.309 
L 268.63916 345.309 
L 268.63916 345.192648 
L 274.099403 345.192648 
L 274.099403 345.309 
L 382.745033 345.309 
L 382.745033 345.192648 
L 388.205536 345.192648 
L 388.205536 345.309 
L 458.506401 345.309 
L 458.506401 345.192648 
L 463.266747 345.192648 
L 463.266747 345.309 
L 591.765114 345.309 
L 591.765114 345.192648 
L 591.765114 345.192648 
" clip-path="url(#pc51124667e)" style="fill: none; stroke: #144c62; stroke-width: 1.5; stroke-linecap: square"/>
   </g>
   <g id="line2d_63">
    <path d="M 84.495811 334.488223 
L 89.264542 334.488223 
L 89.264542 344.959943 
L 94.023079 344.959943 
L 94.023079 345.076295 
L 113.071327 345.076295 
L 113.071327 345.192648 
L 127.344025 345.192648 
L 127.344025 345.076295 
L 175.800751 345.076295 
L 175.800751 345.192648 
L 192.18441 345.192648 
L 192.18441 345.076295 
L 197.644058 345.076295 
L 197.644058 345.192648 
L 268.639214 345.192648 
L 268.639214 345.309 
L 458.506454 345.309 
L 458.506454 345.192648 
L 463.266808 345.192648 
L 463.266808 345.309 
L 591.765144 345.309 
L 591.765144 345.309 
" clip-path="url(#pc51124667e)" style="fill: none; stroke: #144d62; stroke-width: 1.5; stroke-linecap: square"/>
   </g>
   <g id="line2d_64">
    <path d="M 84.495842 340.53855 
L 89.264572 340.53855 
L 89.264572 345.192648 
L 94.023132 345.192648 
L 94.023132 345.309 
L 322.6735 345.309 
L 322.6735 345.192648 
L 328.134468 345.192648 
L 328.134468 345.309 
L 458.506485 345.309 
L 458.506485 345.192648 
L 463.266838 345.192648 
L 463.266838 345.309 
L 496.593842 345.309 
L 496.593842 345.192648 
L 501.354881 345.192648 
L 501.354881 345.309 
L 591.765205 345.309 
L 591.765205 345.309 
" clip-path="url(#pc51124667e)" style="fill: none; stroke: #144e62; stroke-width: 1.5; stroke-linecap: square"/>
   </g>
   <g id="line2d_65">
    <path d="M 84.495895 342.516541 
L 89.264664 342.516541 
L 89.264664 345.192648 
L 94.02317 345.192648 
L 94.02317 345.309 
L 141.616264 345.309 
L 141.616264 345.192648 
L 146.3731 345.192648 
L 146.3731 345.309 
L 175.800827 345.309 
L 175.800827 345.192648 
L 181.263832 345.192648 
L 181.263832 345.309 
L 268.639305 345.309 
L 268.639305 345.192648 
L 274.099525 345.192648 
L 274.099525 345.309 
L 404.588837 345.309 
L 404.588837 345.192648 
L 410.050377 345.192648 
L 410.050377 345.309 
L 591.765236 345.309 
L 591.765236 345.309 
" clip-path="url(#pc51124667e)" style="fill: none; stroke: #154f62; stroke-width: 1.5; stroke-linecap: square"/>
   </g>
   <g id="line2d_66">
    <path d="M 84.495926 341.469369 
L 89.264687 341.469369 
L 89.264687 345.192648 
L 94.023247 345.192648 
L 94.023247 345.309 
L 175.800858 345.309 
L 175.800858 345.192648 
L 181.263863 345.192648 
L 181.263863 345.309 
L 458.506577 345.309 
L 458.506577 345.192648 
L 463.266914 345.192648 
L 463.266914 345.309 
L 496.593933 345.309 
L 496.593933 345.192648 
L 501.354958 345.192648 
L 501.354958 345.309 
L 529.905075 345.309 
L 529.905075 345.192648 
L 534.659119 345.192648 
L 534.659119 345.309 
L 591.765289 345.309 
L 591.765289 345.309 
" clip-path="url(#pc51124667e)" style="fill: none; stroke: #154f62; stroke-width: 1.5; stroke-linecap: square"/>
   </g>
   <g id="line2d_67">
    <path d="M 84.495979 343.331008 
L 89.264778 343.331008 
L 89.264778 345.192648 
L 94.023277 345.192648 
L 94.023277 345.309 
L 141.616348 345.309 
L 141.616348 345.192648 
L 146.373192 345.192648 
L 146.373192 345.309 
L 151.13118 345.309 
L 151.13118 345.192648 
L 155.888275 345.192648 
L 155.888275 345.309 
L 186.722588 345.309 
L 186.722588 345.192648 
L 192.184586 345.192648 
L 192.184586 345.309 
L 268.639381 345.309 
L 268.639381 345.192648 
L 274.099602 345.192648 
L 274.099602 345.309 
L 306.290283 345.309 
L 306.290283 345.192648 
L 311.752289 345.192648 
L 311.752289 345.309 
L 458.506599 345.309 
L 458.506599 345.192648 
L 463.266945 345.192648 
L 463.266945 345.309 
L 496.593987 345.309 
L 496.593987 345.192648 
L 501.355019 345.192648 
L 501.355019 345.309 
L 591.765312 345.309 
L 591.765312 345.309 
" clip-path="url(#pc51124667e)" style="fill: none; stroke: #165062; stroke-width: 1.5; stroke-linecap: square"/>
   </g>
   <g id="line2d_68">
    <path d="M 84.49604 343.447361 
L 89.264801 343.447361 
L 89.264801 345.192648 
L 94.023338 345.192648 
L 94.023338 345.309 
L 382.745293 345.309 
L 382.745293 345.192648 
L 388.205795 345.192648 
L 388.205795 345.309 
L 458.506653 345.309 
L 458.506653 345.192648 
L 463.267006 345.192648 
L 463.267006 345.309 
L 591.765381 345.309 
L 591.765381 345.309 
" clip-path="url(#pc51124667e)" style="fill: none; stroke: #165162; stroke-width: 1.5; stroke-linecap: square"/>
   </g>
   <g id="line2d_69">
    <path d="M 84.496094 338.909616 
L 89.264862 338.909616 
L 89.264862 345.076295 
L 94.023369 345.076295 
L 94.023369 345.309 
L 141.61644 345.309 
L 141.61644 345.192648 
L 146.373276 345.192648 
L 146.373276 345.309 
L 268.639473 345.309 
L 268.639473 345.192648 
L 274.099686 345.192648 
L 274.099686 345.309 
L 496.59404 345.309 
L 496.59404 345.192648 
L 501.355103 345.192648 
L 501.355103 345.309 
L 591.765404 345.309 
L 591.765404 345.309 
" clip-path="url(#pc51124667e)" style="fill: none; stroke: #175262; stroke-width: 1.5; stroke-linecap: square"/>
   </g>
   <g id="line2d_70">
    <path d="M 84.496124 340.07314 
L 89.264893 340.07314 
L 89.264893 345.076295 
L 94.023422 345.076295 
L 94.023422 345.309 
L 175.801056 345.309 
L 175.801056 345.192648 
L 181.264038 345.192648 
L 181.264038 345.309 
L 322.673767 345.309 
L 322.673767 345.192648 
L 328.134727 345.192648 
L 328.134727 345.309 
L 458.506744 345.309 
L 458.506744 345.192648 
L 463.26709 345.192648 
L 463.26709 345.309 
L 591.765457 345.309 
L 591.765457 345.309 
" clip-path="url(#pc51124667e)" style="fill: none; stroke: #175362; stroke-width: 1.5; stroke-linecap: square"/>
   </g>
   <g id="line2d_71">
    <path d="M 84.496178 339.724083 
L 89.264946 339.724083 
L 89.264946 345.192648 
L 94.02346 345.192648 
L 94.02346 345.309 
L 263.177383 345.309 
L 263.177383 345.192648 
L 268.639557 345.192648 
L 268.639557 345.309 
L 458.506775 345.309 
L 458.506775 345.192648 
L 463.267113 345.192648 
L 463.267113 345.309 
L 591.765495 345.309 
L 591.765495 345.309 
" clip-path="url(#pc51124667e)" style="fill: none; stroke: #185462; stroke-width: 1.5; stroke-linecap: square"/>
   </g>
   <g id="line2d_72">
    <path d="M 84.496208 342.749246 
L 89.264977 342.749246 
L 89.264977 345.192648 
L 94.023514 345.192648 
L 94.023514 345.309 
L 230.411964 345.309 
L 230.411964 345.192648 
L 235.873253 345.192648 
L 235.873253 345.309 
L 458.506836 345.309 
L 458.506836 345.192648 
L 463.267181 345.192648 
L 463.267181 345.309 
L 591.765526 345.309 
L 591.765526 345.309 
" clip-path="url(#pc51124667e)" style="fill: none; stroke: #185562; stroke-width: 1.5; stroke-linecap: square"/>
   </g>
   <g id="line2d_73">
    <path d="M 84.496269 339.025968 
L 89.265038 339.025968 
L 89.265038 345.192648 
L 94.023537 345.192648 
L 94.023537 345.309 
L 458.506866 345.309 
L 458.506866 345.192648 
L 463.267204 345.192648 
L 463.267204 345.309 
L 591.765579 345.309 
L 591.765579 345.309 
" clip-path="url(#pc51124667e)" style="fill: none; stroke: #195662; stroke-width: 1.5; stroke-linecap: square"/>
   </g>
   <g id="line2d_74">
    <path d="M 84.496323 341.702074 
L 89.265068 341.702074 
L 89.265068 345.309 
L 175.801224 345.309 
L 175.801224 345.192648 
L 181.264206 345.192648 
L 181.264206 345.309 
L 268.639671 345.309 
L 268.639671 345.192648 
L 274.099884 345.192648 
L 274.099884 345.309 
L 591.765808 345.309 
L 591.765808 345.309 
" clip-path="url(#pc51124667e)" style="fill: none; stroke: #195762; stroke-width: 1.5; stroke-linecap: square"/>
   </g>
   <g id="line2d_75">
    <path d="M 84.496353 341.353017 
L 89.265121 341.353017 
L 89.265121 345.192648 
L 94.023628 345.192648 
L 94.023628 345.309 
L 151.131523 345.309 
L 151.131523 345.192648 
L 155.888649 345.192648 
L 155.888649 345.309 
L 175.801254 345.309 
L 175.801254 345.192648 
L 181.264236 345.192648 
L 181.264236 345.309 
L 300.829933 345.309 
L 300.829933 345.192648 
L 306.290627 345.192648 
L 306.290627 345.309 
L 317.21302 345.309 
L 317.21302 345.192648 
L 322.673965 345.192648 
L 322.673965 345.309 
L 377.285049 345.309 
L 377.285049 345.192648 
L 382.745613 345.192648 
L 382.745613 345.309 
L 393.667313 345.309 
L 393.667313 345.192648 
L 399.129631 345.192648 
L 399.129631 345.309 
L 458.506943 345.309 
L 458.506943 345.192648 
L 468.029099 345.192648 
L 468.029099 345.309 
L 506.116173 345.309 
L 506.116173 345.192648 
L 510.87384 345.192648 
L 510.87384 345.309 
L 520.391747 345.309 
L 520.391747 345.192648 
L 525.147346 345.192648 
L 525.147346 345.309 
L 539.418747 345.309 
L 539.418747 345.192648 
L 544.179871 345.192648 
L 544.179871 345.309 
L 548.934776 345.309 
L 548.934776 345.192648 
L 558.453201 345.192648 
L 558.453201 345.309 
L 572.728745 345.309 
L 572.728745 344.727238 
L 577.48777 344.727238 
L 577.48777 345.192648 
L 587.006157 345.192648 
L 587.006157 345.309 
L 591.765869 345.309 
L 591.765869 345.309 
" clip-path="url(#pc51124667e)" style="fill: none; stroke: #1a5762; stroke-width: 1.5; stroke-linecap: square"/>
   </g>
   <g id="line2d_76">
    <path d="M 84.496414 344.37818 
L 89.265144 344.37818 
L 89.265144 344.959943 
L 94.023659 344.959943 
L 94.023659 345.192648 
L 98.784515 345.192648 
L 98.784515 345.309 
L 165.408646 345.309 
L 165.408646 345.192648 
L 170.161407 345.192648 
L 170.161407 345.309 
L 458.507011 345.309 
L 458.507011 345.192648 
L 463.26738 345.192648 
L 463.26738 345.309 
L 591.765892 345.309 
L 591.765892 345.309 
" clip-path="url(#pc51124667e)" style="fill: none; stroke: #1b5862; stroke-width: 1.5; stroke-linecap: square"/>
   </g>
   <g id="line2d_77">
    <path d="M 84.496437 341.702074 
L 89.265213 341.702074 
L 89.265213 345.192648 
L 94.023712 345.192648 
L 94.023712 345.309 
L 175.801346 345.309 
L 175.801346 345.192648 
L 181.264351 345.192648 
L 181.264351 345.309 
L 382.745697 345.309 
L 382.745697 345.192648 
L 388.2062 345.192648 
L 388.2062 345.309 
L 458.507034 345.309 
L 458.507034 345.192648 
L 463.267403 345.192648 
L 463.267403 345.309 
L 491.839989 345.309 
L 491.839989 345.192648 
L 496.594414 345.192648 
L 496.594414 345.309 
L 591.765953 345.309 
L 591.765953 345.309 
" clip-path="url(#pc51124667e)" style="fill: none; stroke: #1b5962; stroke-width: 1.5; stroke-linecap: square"/>
   </g>
   <g id="line2d_78">
    <path d="M 84.496498 342.051132 
L 89.265236 342.051132 
L 89.265236 345.192648 
L 94.023743 345.192648 
L 94.023743 345.309 
L 117.827927 345.309 
L 117.827927 345.192648 
L 122.584778 345.192648 
L 122.584778 345.309 
L 458.507065 345.309 
L 458.507065 345.192648 
L 463.267464 345.192648 
L 463.267464 345.309 
L 591.765984 345.309 
L 591.765984 345.309 
" clip-path="url(#pc51124667e)" style="fill: none; stroke: #1c5a62; stroke-width: 1.5; stroke-linecap: square"/>
   </g>
   <g id="line2d_79">
    <path d="M 84.496521 344.84359 
L 89.265266 344.84359 
L 89.265266 345.309 
L 175.80146 345.309 
L 175.80146 345.192648 
L 181.264435 345.192648 
L 181.264435 345.309 
L 382.745781 345.309 
L 382.745781 345.192648 
L 388.206291 345.192648 
L 388.206291 345.309 
L 591.766037 345.309 
L 591.766037 345.309 
" clip-path="url(#pc51124667e)" style="fill: none; stroke: #1d5b62; stroke-width: 1.5; stroke-linecap: square"/>
   </g>
   <g id="line2d_80">
    <path d="M 84.496582 344.84359 
L 89.265327 344.84359 
L 89.265327 345.309 
L 175.801491 345.309 
L 175.801491 345.192648 
L 181.264488 345.192648 
L 181.264488 345.309 
L 591.766068 345.309 
L 591.766068 345.309 
" clip-path="url(#pc51124667e)" style="fill: none; stroke: #1e5c62; stroke-width: 1.5; stroke-linecap: square"/>
   </g>
   <g id="line2d_81">
    <path d="M 84.496613 344.727238 
L 89.265358 344.727238 
L 89.265358 345.309 
L 268.639961 345.309 
L 268.639961 345.192648 
L 274.100212 345.192648 
L 274.100212 345.309 
L 322.674217 345.309 
L 322.674217 345.192648 
L 328.135239 345.192648 
L 328.135239 345.309 
L 382.745872 345.309 
L 382.745872 345.192648 
L 388.206345 345.192648 
L 388.206345 345.309 
L 458.507233 345.309 
L 458.507233 345.192648 
L 463.267601 345.192648 
L 463.267601 345.309 
L 496.594582 345.309 
L 496.594582 345.192648 
L 501.355644 345.192648 
L 501.355644 345.309 
L 591.766129 345.309 
L 591.766129 345.309 
" clip-path="url(#pc51124667e)" style="fill: none; stroke: #1e5d62; stroke-width: 1.5; stroke-linecap: square"/>
   </g>
   <g id="line2d_82">
    <path d="M 84.49678 344.727238 
L 89.265556 344.727238 
L 89.265556 345.309 
L 146.373985 345.309 
L 146.373985 345.192648 
L 151.131927 345.192648 
L 151.131927 345.309 
L 175.801689 345.309 
L 175.801689 345.192648 
L 181.264664 345.192648 
L 181.264664 345.309 
L 322.674362 345.309 
L 322.674362 345.192648 
L 328.135384 345.192648 
L 328.135384 345.309 
L 382.74601 345.309 
L 382.74601 345.192648 
L 388.206512 345.192648 
L 388.206512 345.309 
L 458.507378 345.309 
L 458.507378 345.192648 
L 463.267784 345.192648 
L 463.267784 345.309 
L 591.766273 345.309 
L 591.766273 345.309 
" clip-path="url(#pc51124667e)" style="fill: none; stroke: #1f5d61; stroke-width: 1.5; stroke-linecap: square"/>
   </g>
   <g id="line2d_83">
    <path d="M 84.496849 344.84359 
L 89.265579 344.84359 
L 89.265579 345.309 
L 322.674416 345.309 
L 322.674416 345.192648 
L 328.135468 345.192648 
L 328.135468 345.309 
L 393.66777 345.309 
L 393.66777 345.192648 
L 399.130104 345.192648 
L 399.130104 345.309 
L 458.507408 345.309 
L 458.507408 345.192648 
L 463.267838 345.192648 
L 463.267838 345.309 
L 491.84037 345.309 
L 491.84037 345.192648 
L 496.594788 345.192648 
L 496.594788 345.309 
L 591.766327 345.309 
L 591.766327 345.309 
" clip-path="url(#pc51124667e)" style="fill: none; stroke: #205e61; stroke-width: 1.5; stroke-linecap: square"/>
   </g>
   <g id="line2d_84">
    <path d="M 84.496872 344.37818 
L 89.265648 344.37818 
L 89.265648 344.494533 
L 103.547157 344.494533 
L 103.547157 344.610885 
L 108.305809 344.610885 
L 108.305809 344.494533 
L 127.345093 344.494533 
L 127.345093 344.37818 
L 132.098854 344.37818 
L 132.098854 344.494533 
L 141.61718 344.494533 
L 141.61718 344.610885 
L 146.37413 344.610885 
L 146.37413 344.494533 
L 151.132042 344.494533 
L 151.132042 344.610885 
L 155.889191 344.610885 
L 155.889191 344.494533 
L 160.650803 344.494533 
L 160.650803 344.610885 
L 165.409103 344.610885 
L 165.409103 344.494533 
L 170.161896 344.494533 
L 170.161896 344.610885 
L 175.801773 344.610885 
L 175.801773 344.494533 
L 246.795815 344.494533 
L 246.795815 344.610885 
L 252.25589 344.610885 
L 252.25589 344.494533 
L 290.196945 344.494533 
L 290.196945 344.610885 
L 295.680817 344.610885 
L 295.680817 344.494533 
L 322.67453 344.494533 
L 322.67453 344.610885 
L 328.135498 344.610885 
L 328.135498 344.37818 
L 333.596695 344.37818 
L 333.596695 344.494533 
L 349.979706 344.494533 
L 349.979706 344.37818 
L 355.440781 344.37818 
L 355.440781 344.494533 
L 371.823448 344.494533 
L 371.823448 344.37818 
L 377.285538 344.37818 
L 377.285538 344.494533 
L 393.667801 344.494533 
L 393.667801 344.37818 
L 399.130142 344.37818 
L 399.130142 344.494533 
L 404.589783 344.494533 
L 404.589783 344.37818 
L 410.051323 344.37818 
L 410.051323 344.494533 
L 415.511909 344.494533 
L 415.511909 344.610885 
L 420.973083 344.610885 
L 420.973083 344.494533 
L 426.434105 344.494533 
L 426.434105 344.37818 
L 431.894928 344.37818 
L 431.894928 344.494533 
L 458.507469 344.494533 
L 458.507469 344.37818 
L 463.267868 344.37818 
L 463.267868 344.494533 
L 482.326492 344.494533 
L 482.326492 344.610885 
L 487.081856 344.610885 
L 487.081856 344.494533 
L 510.874336 344.494533 
L 510.874336 344.610885 
L 515.632896 344.610885 
L 515.632896 344.494533 
L 539.419235 344.494533 
L 539.419235 344.610885 
L 544.18042 344.610885 
L 544.18042 344.494533 
L 548.935333 344.494533 
L 548.935333 344.610885 
L 553.694946 344.610885 
L 553.694946 344.494533 
L 567.974899 344.494533 
L 567.974899 344.610885 
L 572.729263 344.610885 
L 572.729263 344.494533 
L 577.48835 344.494533 
L 577.48835 344.610885 
L 582.249466 344.610885 
L 582.249466 344.494533 
L 587.006668 344.494533 
L 587.006668 344.610885 
L 591.766357 344.610885 
L 591.766357 344.37818 
L 591.766357 344.37818 
" clip-path="url(#pc51124667e)" style="fill: none; stroke: #215f61; stroke-width: 1.5; stroke-linecap: square"/>
   </g>
   <g id="patch_3">
    <path d="M 59.13 360.429 
L 59.13 27.789 
" style="fill: none; stroke: #000000; stroke-width: 0.8; stroke-linejoin: miter; stroke-linecap: square"/>
   </g>
   <g id="patch_4">
    <path d="M 617.13 360.429 
L 617.13 27.789 
" style="fill: none; stroke: #000000; stroke-width: 0.8; stroke-linejoin: miter; stroke-linecap: square"/>
   </g>
   <g id="patch_5">
    <path d="M 59.12999 360.429 
L 617.12999 360.429 
" style="fill: none; stroke: #000000; stroke-width: 0.8; stroke-linejoin: miter; stroke-linecap: square"/>
   </g>
   <g id="patch_6">
    <path d="M 59.12999 27.789 
L 617.12999 27.789 
" style="fill: none; stroke: #000000; stroke-width: 0.8; stroke-linejoin: miter; stroke-linecap: square"/>
   </g>
   <g id="text_13">
    <!-- CPU frequency in GHz over time for each thread -->
    <g transform="translate(106.6965 21.789) scale(0.192 -0.192)">
     <defs>
      <path id="DejaVuSans-43" d="M 4122 4306 
L 4122 3641 
Q 3803 3938 3442 4084 
Q 3081 4231 2675 4231 
Q 1875 4231 1450 3742 
Q 1025 3253 1025 2328 
Q 1025 1406 1450 917 
Q 1875 428 2675 428 
Q 3081 428 3442 575 
Q 3803 722 4122 1019 
L 4122 359 
Q 3791 134 3420 21 
Q 3050 -91 2638 -91 
Q 1578 -91 968 557 
Q 359 1206 359 2328 
Q 359 3453 968 4101 
Q 1578 4750 2638 4750 
Q 3056 4750 3426 4639 
Q 3797 4528 4122 4306 
z
" transform="scale(0.015625)"/>
      <path id="DejaVuSans-50" d="M 1259 4147 
L 1259 2394 
L 2053 2394 
Q 2494 2394 2734 2622 
Q 2975 2850 2975 3272 
Q 2975 3691 2734 3919 
Q 2494 4147 2053 4147 
L 1259 4147 
z
M 628 4666 
L 2053 4666 
Q 2838 4666 3239 4311 
Q 3641 3956 3641 3272 
Q 3641 2581 3239 2228 
Q 2838 1875 2053 1875 
L 1259 1875 
L 1259 0 
L 628 0 
L 628 4666 
z
" transform="scale(0.015625)"/>
      <path id="DejaVuSans-55" d="M 556 4666 
L 1191 4666 
L 1191 1831 
Q 1191 1081 1462 751 
Q 1734 422 2344 422 
Q 2950 422 3222 751 
Q 3494 1081 3494 1831 
L 3494 4666 
L 4128 4666 
L 4128 1753 
Q 4128 841 3676 375 
Q 3225 -91 2344 -91 
Q 1459 -91 1007 375 
Q 556 841 556 1753 
L 556 4666 
z
" transform="scale(0.015625)"/>
      <path id="DejaVuSans-20" transform="scale(0.015625)"/>
      <path id="DejaVuSans-66" d="M 2375 4863 
L 2375 4384 
L 1825 4384 
Q 1516 4384 1395 4259 
Q 1275 4134 1275 3809 
L 1275 3500 
L 2222 3500 
L 2222 3053 
L 1275 3053 
L 1275 0 
L 697 0 
L 697 3053 
L 147 3053 
L 147 3500 
L 697 3500 
L 697 3744 
Q 697 4328 969 4595 
Q 1241 4863 1831 4863 
L 2375 4863 
z
" transform="scale(0.015625)"/>
      <path id="DejaVuSans-72" d="M 2631 2963 
Q 2534 3019 2420 3045 
Q 2306 3072 2169 3072 
Q 1681 3072 1420 2755 
Q 1159 2438 1159 1844 
L 1159 0 
L 581 0 
L 581 3500 
L 1159 3500 
L 1159 2956 
Q 1341 3275 1631 3429 
Q 1922 3584 2338 3584 
Q 2397 3584 2469 3576 
Q 2541 3569 2628 3553 
L 2631 2963 
z
" transform="scale(0.015625)"/>
      <path id="DejaVuSans-71" d="M 947 1747 
Q 947 1113 1208 752 
Q 1469 391 1925 391 
Q 2381 391 2643 752 
Q 2906 1113 2906 1747 
Q 2906 2381 2643 2742 
Q 2381 3103 1925 3103 
Q 1469 3103 1208 2742 
Q 947 2381 947 1747 
z
M 2906 525 
Q 2725 213 2448 61 
Q 2172 -91 1784 -91 
Q 1150 -91 751 415 
Q 353 922 353 1747 
Q 353 2572 751 3078 
Q 1150 3584 1784 3584 
Q 2172 3584 2448 3432 
Q 2725 3281 2906 2969 
L 2906 3500 
L 3481 3500 
L 3481 -1331 
L 2906 -1331 
L 2906 525 
z
" transform="scale(0.015625)"/>
      <path id="DejaVuSans-75" d="M 544 1381 
L 544 3500 
L 1119 3500 
L 1119 1403 
Q 1119 906 1312 657 
Q 1506 409 1894 409 
Q 2359 409 2629 706 
Q 2900 1003 2900 1516 
L 2900 3500 
L 3475 3500 
L 3475 0 
L 2900 0 
L 2900 538 
Q 2691 219 2414 64 
Q 2138 -91 1772 -91 
Q 1169 -91 856 284 
Q 544 659 544 1381 
z
M 1991 3584 
L 1991 3584 
z
" transform="scale(0.015625)"/>
      <path id="DejaVuSans-6e" d="M 3513 2113 
L 3513 0 
L 2938 0 
L 2938 2094 
Q 2938 2591 2744 2837 
Q 2550 3084 2163 3084 
Q 1697 3084 1428 2787 
Q 1159 2491 1159 1978 
L 1159 0 
L 581 0 
L 581 3500 
L 1159 3500 
L 1159 2956 
Q 1366 3272 1645 3428 
Q 1925 3584 2291 3584 
Q 2894 3584 3203 3211 
Q 3513 2838 3513 2113 
z
" transform="scale(0.015625)"/>
      <path id="DejaVuSans-63" d="M 3122 3366 
L 3122 2828 
Q 2878 2963 2633 3030 
Q 2388 3097 2138 3097 
Q 1578 3097 1268 2742 
Q 959 2388 959 1747 
Q 959 1106 1268 751 
Q 1578 397 2138 397 
Q 2388 397 2633 464 
Q 2878 531 3122 666 
L 3122 134 
Q 2881 22 2623 -34 
Q 2366 -91 2075 -91 
Q 1284 -91 818 406 
Q 353 903 353 1747 
Q 353 2603 823 3093 
Q 1294 3584 2113 3584 
Q 2378 3584 2631 3529 
Q 2884 3475 3122 3366 
z
" transform="scale(0.015625)"/>
      <path id="DejaVuSans-79" d="M 2059 -325 
Q 1816 -950 1584 -1140 
Q 1353 -1331 966 -1331 
L 506 -1331 
L 506 -850 
L 844 -850 
Q 1081 -850 1212 -737 
Q 1344 -625 1503 -206 
L 1606 56 
L 191 3500 
L 800 3500 
L 1894 763 
L 2988 3500 
L 3597 3500 
L 2059 -325 
z
" transform="scale(0.015625)"/>
      <path id="DejaVuSans-6f" d="M 1959 3097 
Q 1497 3097 1228 2736 
Q 959 2375 959 1747 
Q 959 1119 1226 758 
Q 1494 397 1959 397 
Q 2419 397 2687 759 
Q 2956 1122 2956 1747 
Q 2956 2369 2687 2733 
Q 2419 3097 1959 3097 
z
M 1959 3584 
Q 2709 3584 3137 3096 
Q 3566 2609 3566 1747 
Q 3566 888 3137 398 
Q 2709 -91 1959 -91 
Q 1206 -91 779 398 
Q 353 888 353 1747 
Q 353 2609 779 3096 
Q 1206 3584 1959 3584 
z
" transform="scale(0.015625)"/>
      <path id="DejaVuSans-76" d="M 191 3500 
L 800 3500 
L 1894 563 
L 2988 3500 
L 3597 3500 
L 2284 0 
L 1503 0 
L 191 3500 
z
" transform="scale(0.015625)"/>
      <path id="DejaVuSans-74" d="M 1172 4494 
L 1172 3500 
L 2356 3500 
L 2356 3053 
L 1172 3053 
L 1172 1153 
Q 1172 725 1289 603 
Q 1406 481 1766 481 
L 2356 481 
L 2356 0 
L 1766 0 
Q 1100 0 847 248 
Q 594 497 594 1153 
L 594 3053 
L 172 3053 
L 172 3500 
L 594 3500 
L 594 4494 
L 1172 4494 
z
" transform="scale(0.015625)"/>
      <path id="DejaVuSans-61" d="M 2194 1759 
Q 1497 1759 1228 1600 
Q 959 1441 959 1056 
Q 959 750 1161 570 
Q 1363 391 1709 391 
Q 2188 391 2477 730 
Q 2766 1069 2766 1631 
L 2766 1759 
L 2194 1759 
z
M 3341 1997 
L 3341 0 
L 2766 0 
L 2766 531 
Q 2569 213 2275 61 
Q 1981 -91 1556 -91 
Q 1019 -91 701 211 
Q 384 513 384 1019 
Q 384 1609 779 1909 
Q 1175 2209 1959 2209 
L 2766 2209 
L 2766 2266 
Q 2766 2663 2505 2880 
Q 2244 3097 1772 3097 
Q 1472 3097 1187 3025 
Q 903 2953 641 2809 
L 641 3341 
Q 956 3463 1253 3523 
Q 1550 3584 1831 3584 
Q 2591 3584 2966 3190 
Q 3341 2797 3341 1997 
z
" transform="scale(0.015625)"/>
      <path id="DejaVuSans-68" d="M 3513 2113 
L 3513 0 
L 2938 0 
L 2938 2094 
Q 2938 2591 2744 2837 
Q 2550 3084 2163 3084 
Q 1697 3084 1428 2787 
Q 1159 2491 1159 1978 
L 1159 0 
L 581 0 
L 581 4863 
L 1159 4863 
L 1159 2956 
Q 1366 3272 1645 3428 
Q 1925 3584 2291 3584 
Q 2894 3584 3203 3211 
Q 3513 2838 3513 2113 
z
" transform="scale(0.015625)"/>
      <path id="DejaVuSans-64" d="M 2906 2969 
L 2906 4863 
L 3481 4863 
L 3481 0 
L 2906 0 
L 2906 525 
Q 2725 213 2448 61 
Q 2172 -91 1784 -91 
Q 1150 -91 751 415 
Q 353 922 353 1747 
Q 353 2572 751 3078 
Q 1150 3584 1784 3584 
Q 2172 3584 2448 3432 
Q 2725 3281 2906 2969 
z
M 947 1747 
Q 947 1113 1208 752 
Q 1469 391 1925 391 
Q 2381 391 2643 752 
Q 2906 1113 2906 1747 
Q 2906 2381 2643 2742 
Q 2381 3103 1925 3103 
Q 1469 3103 1208 2742 
Q 947 2381 947 1747 
z
" transform="scale(0.015625)"/>
     </defs>
     <use xlink:href="#DejaVuSans-43"/>
     <use xlink:href="#DejaVuSans-50" x="69.824219"/>
     <use xlink:href="#DejaVuSans-55" x="130.126953"/>
     <use xlink:href="#DejaVuSans-20" x="203.320312"/>
     <use xlink:href="#DejaVuSans-66" x="235.107422"/>
     <use xlink:href="#DejaVuSans-72" x="270.3125"/>
     <use xlink:href="#DejaVuSans-65" x="309.175781"/>
     <use xlink:href="#DejaVuSans-71" x="370.699219"/>
     <use xlink:href="#DejaVuSans-75" x="434.175781"/>
     <use xlink:href="#DejaVuSans-65" x="497.554688"/>
     <use xlink:href="#DejaVuSans-6e" x="559.078125"/>
     <use xlink:href="#DejaVuSans-63" x="622.457031"/>
     <use xlink:href="#DejaVuSans-79" x="677.4375"/>
     <use xlink:href="#DejaVuSans-20" x="736.617188"/>
     <use xlink:href="#DejaVuSans-69" x="768.404297"/>
     <use xlink:href="#DejaVuSans-6e" x="796.1875"/>
     <use xlink:href="#DejaVuSans-20" x="859.566406"/>
     <use xlink:href="#DejaVuSans-47" x="891.353516"/>
     <use xlink:href="#DejaVuSans-48" x="968.84375"/>
     <use xlink:href="#DejaVuSans-7a" x="1044.039062"/>
     <use xlink:href="#DejaVuSans-20" x="1096.529297"/>
     <use xlink:href="#DejaVuSans-6f" x="1128.316406"/>
     <use xlink:href="#DejaVuSans-76" x="1189.498047"/>
     <use xlink:href="#DejaVuSans-65" x="1248.677734"/>
     <use xlink:href="#DejaVuSans-72" x="1310.201172"/>
     <use xlink:href="#DejaVuSans-20" x="1351.314453"/>
     <use xlink:href="#DejaVuSans-74" x="1383.101562"/>
     <use xlink:href="#DejaVuSans-69" x="1422.310547"/>
     <use xlink:href="#DejaVuSans-6d" x="1450.09375"/>
     <use xlink:href="#DejaVuSans-65" x="1547.505859"/>
     <use xlink:href="#DejaVuSans-20" x="1609.029297"/>
     <use xlink:href="#DejaVuSans-66" x="1640.816406"/>
     <use xlink:href="#DejaVuSans-6f" x="1676.021484"/>
     <use xlink:href="#DejaVuSans-72" x="1737.203125"/>
     <use xlink:href="#DejaVuSans-20" x="1778.316406"/>
     <use xlink:href="#DejaVuSans-65" x="1810.103516"/>
     <use xlink:href="#DejaVuSans-61" x="1871.626953"/>
     <use xlink:href="#DejaVuSans-63" x="1932.90625"/>
     <use xlink:href="#DejaVuSans-68" x="1987.886719"/>
     <use xlink:href="#DejaVuSans-20" x="2051.265625"/>
     <use xlink:href="#DejaVuSans-74" x="2083.052734"/>
     <use xlink:href="#DejaVuSans-68" x="2122.261719"/>
     <use xlink:href="#DejaVuSans-72" x="2185.640625"/>
     <use xlink:href="#DejaVuSans-65" x="2224.503906"/>
     <use xlink:href="#DejaVuSans-61" x="2286.027344"/>
     <use xlink:href="#DejaVuSans-64" x="2347.306641"/>
    </g>
   </g>
  </g>
 </g>
 <defs>
  <clipPath id="pc51124667e">
   <rect x="59.13" y="27.789" width="558" height="332.64"/>
  </clipPath>
 </defs>
</svg>
