<?xml version="1.0" encoding="utf-8" standalone="no"?>
<!DOCTYPE svg PUBLIC "-//W3C//DTD SVG 1.1//EN"
  "http://www.w3.org/Graphics/SVG/1.1/DTD/svg11.dtd">
<svg xmlns:xlink="http://www.w3.org/1999/xlink" width="571.752pt" height="460.663pt" viewBox="0 0 571.752 460.663" xmlns="http://www.w3.org/2000/svg" version="1.1">
 <metadata>
  <rdf:RDF xmlns:dc="http://purl.org/dc/elements/1.1/" xmlns:cc="http://creativecommons.org/ns#" xmlns:rdf="http://www.w3.org/1999/02/22-rdf-syntax-ns#">
   <cc:Work>
    <dc:type rdf:resource="http://purl.org/dc/dcmitype/StillImage"/>
    <dc:date>2024-04-14T13:59:14.244637</dc:date>
    <dc:format>image/svg+xml</dc:format>
    <dc:creator>
     <cc:Agent>
      <dc:title>Matplotlib v3.8.2, https://matplotlib.org/</dc:title>
     </cc:Agent>
    </dc:creator>
   </cc:Work>
  </rdf:RDF>
 </metadata>
 <defs>
  <style type="text/css">*{stroke-linejoin: round; stroke-linecap: butt}</style>
 </defs>
 <g id="figure_1">
  <g id="patch_1">
   <path d="M 0 460.663 
L 571.752 460.663 
L 571.752 0 
L 0 0 
z
" style="fill: #ffffff"/>
  </g>
  <g id="axes_1">
   <g id="patch_2">
    <path d="M 62.676 360.429 
L 509.076 360.429 
L 509.076 27.789 
L 62.676 27.789 
z
" style="fill: #ffffff"/>
   </g>
   <g id="patch_3">
    <path d="M 82.966909 360.429 
L 90.442507 360.429 
L 90.442507 106.324671 
L 82.966909 106.324671 
z
" clip-path="url(#p6c541bbd20)" style="fill: #011959"/>
   </g>
   <g id="patch_4">
    <path d="M 117.141072 360.429 
L 124.61667 360.429 
L 124.61667 84.094903 
L 117.141072 84.094903 
z
" clip-path="url(#p6c541bbd20)" style="fill: #011959"/>
   </g>
   <g id="patch_5">
    <path d="M 151.315234 360.429 
L 158.790833 360.429 
L 158.790833 84.094903 
L 151.315234 84.094903 
z
" clip-path="url(#p6c541bbd20)" style="fill: #011959"/>
   </g>
   <g id="patch_6">
    <path d="M 185.489397 360.429 
L 192.964995 360.429 
L 192.964995 57.045016 
L 185.489397 57.045016 
z
" clip-path="url(#p6c541bbd20)" style="fill: #011959"/>
   </g>
   <g id="patch_7">
    <path d="M 219.66356 360.429 
L 227.139158 360.429 
L 227.139158 95.529585 
L 219.66356 95.529585 
z
" clip-path="url(#p6c541bbd20)" style="fill: #011959"/>
   </g>
   <g id="patch_8">
    <path d="M 253.837722 360.429 
L 261.313321 360.429 
L 261.313321 232.678944 
L 253.837722 232.678944 
z
" clip-path="url(#p6c541bbd20)" style="fill: #011959"/>
   </g>
   <g id="patch_9">
    <path d="M 288.011885 360.429 
L 295.487483 360.429 
L 295.487483 144.016634 
L 288.011885 144.016634 
z
" clip-path="url(#p6c541bbd20)" style="fill: #011959"/>
   </g>
   <g id="patch_10">
    <path d="M 322.186048 360.429 
L 329.661646 360.429 
L 329.661646 347.270131 
L 322.186048 347.270131 
z
" clip-path="url(#p6c541bbd20)" style="fill: #011959"/>
   </g>
   <g id="patch_11">
    <path d="M 356.360211 360.429 
L 363.835809 360.429 
L 363.835809 43.629 
L 356.360211 43.629 
z
" clip-path="url(#p6c541bbd20)" style="fill: #011959"/>
   </g>
   <g id="patch_12">
    <path d="M 390.534373 360.429 
L 398.009971 360.429 
L 398.009971 43.629 
L 390.534373 43.629 
z
" clip-path="url(#p6c541bbd20)" style="fill: #011959"/>
   </g>
   <g id="patch_13">
    <path d="M 424.708536 360.429 
L 432.184134 360.429 
L 432.184134 43.629 
L 424.708536 43.629 
z
" clip-path="url(#p6c541bbd20)" style="fill: #011959"/>
   </g>
   <g id="patch_14">
    <path d="M 458.882699 360.429 
L 466.358297 360.429 
L 466.358297 93.129572 
L 458.882699 93.129572 
z
" clip-path="url(#p6c541bbd20)" style="fill: #011959"/>
   </g>
   <g id="patch_15">
    <path d="M 90.442507 360.429 
L 97.918105 360.429 
L 97.918105 54.396128 
L 90.442507 54.396128 
z
" clip-path="url(#p6c541bbd20)" style="fill: #faccfa"/>
   </g>
   <g id="patch_16">
    <path d="M 124.61667 360.429 
L 132.092268 360.429 
L 132.092268 43.629 
L 124.61667 43.629 
z
" clip-path="url(#p6c541bbd20)" style="fill: #faccfa"/>
   </g>
   <g id="patch_17">
    <path d="M 158.790833 360.429 
L 166.266431 360.429 
L 166.266431 43.629 
L 158.790833 43.629 
z
" clip-path="url(#p6c541bbd20)" style="fill: #faccfa"/>
   </g>
   <g id="patch_18">
    <path d="M 192.964995 360.429 
L 200.440593 360.429 
L 200.440593 43.629 
L 192.964995 43.629 
z
" clip-path="url(#p6c541bbd20)" style="fill: #faccfa"/>
   </g>
   <g id="patch_19">
    <path d="M 227.139158 360.429 
L 234.614756 360.429 
L 234.614756 43.629 
L 227.139158 43.629 
z
" clip-path="url(#p6c541bbd20)" style="fill: #faccfa"/>
   </g>
   <g id="patch_20">
    <path d="M 261.313321 360.429 
L 268.788919 360.429 
L 268.788919 216.843697 
L 261.313321 216.843697 
z
" clip-path="url(#p6c541bbd20)" style="fill: #faccfa"/>
   </g>
   <g id="patch_21">
    <path d="M 295.487483 360.429 
L 302.963081 360.429 
L 302.963081 43.629 
L 295.487483 43.629 
z
" clip-path="url(#p6c541bbd20)" style="fill: #faccfa"/>
   </g>
   <g id="patch_22">
    <path d="M 329.661646 360.429 
L 337.137244 360.429 
L 337.137244 214.374752 
L 329.661646 214.374752 
z
" clip-path="url(#p6c541bbd20)" style="fill: #faccfa"/>
   </g>
   <g id="patch_23">
    <path d="M 363.835809 360.429 
L 371.311407 360.429 
L 371.311407 167.914984 
L 363.835809 167.914984 
z
" clip-path="url(#p6c541bbd20)" style="fill: #faccfa"/>
   </g>
   <g id="patch_24">
    <path d="M 398.009971 360.429 
L 405.485569 360.429 
L 405.485569 229.221194 
L 398.009971 229.221194 
z
" clip-path="url(#p6c541bbd20)" style="fill: #faccfa"/>
   </g>
   <g id="patch_25">
    <path d="M 432.184134 360.429 
L 439.659732 360.429 
L 439.659732 235.755798 
L 432.184134 235.755798 
z
" clip-path="url(#p6c541bbd20)" style="fill: #faccfa"/>
   </g>
   <g id="patch_26">
    <path d="M 466.358297 360.429 
L 473.833895 360.429 
L 473.833895 43.629 
L 466.358297 43.629 
z
" clip-path="url(#p6c541bbd20)" style="fill: #faccfa"/>
   </g>
   <g id="patch_27">
    <path d="M 97.918105 360.429 
L 105.393703 360.429 
L 105.393703 43.629 
L 97.918105 43.629 
z
" clip-path="url(#p6c541bbd20)" style="fill: #828231"/>
   </g>
   <g id="patch_28">
    <path d="M 132.092268 360.429 
L 139.567866 360.429 
L 139.567866 73.334084 
L 132.092268 73.334084 
z
" clip-path="url(#p6c541bbd20)" style="fill: #828231"/>
   </g>
   <g id="patch_29">
    <path d="M 166.266431 360.429 
L 173.742029 360.429 
L 173.742029 73.334084 
L 166.266431 73.334084 
z
" clip-path="url(#p6c541bbd20)" style="fill: #828231"/>
   </g>
   <g id="patch_30">
    <path d="M 200.440593 360.429 
L 207.916191 360.429 
L 207.916191 59.50496 
L 200.440593 59.50496 
z
" clip-path="url(#p6c541bbd20)" style="fill: #828231"/>
   </g>
   <g id="patch_31">
    <path d="M 234.614756 360.429 
L 242.090354 360.429 
L 242.090354 84.426861 
L 234.614756 84.426861 
z
" clip-path="url(#p6c541bbd20)" style="fill: #828231"/>
   </g>
   <g id="patch_32">
    <path d="M 268.788919 360.429 
L 276.264517 360.429 
L 276.264517 43.629 
L 268.788919 43.629 
z
" clip-path="url(#p6c541bbd20)" style="fill: #828231"/>
   </g>
   <g id="patch_33">
    <path d="M 302.963081 360.429 
L 310.438679 360.429 
L 310.438679 71.544825 
L 302.963081 71.544825 
z
" clip-path="url(#p6c541bbd20)" style="fill: #828231"/>
   </g>
   <g id="patch_34">
    <path d="M 337.137244 360.429 
L 344.612842 360.429 
L 344.612842 43.629 
L 337.137244 43.629 
z
" clip-path="url(#p6c541bbd20)" style="fill: #828231"/>
   </g>
   <g id="patch_35">
    <path d="M 371.311407 360.429 
L 378.787005 360.429 
L 378.787005 225.770522 
L 371.311407 225.770522 
z
" clip-path="url(#p6c541bbd20)" style="fill: #828231"/>
   </g>
   <g id="patch_36">
    <path d="M 405.485569 360.429 
L 412.961167 360.429 
L 412.961167 253.880963 
L 405.485569 253.880963 
z
" clip-path="url(#p6c541bbd20)" style="fill: #828231"/>
   </g>
   <g id="patch_37">
    <path d="M 439.659732 360.429 
L 447.13533 360.429 
L 447.13533 254.064497 
L 439.659732 254.064497 
z
" clip-path="url(#p6c541bbd20)" style="fill: #828231"/>
   </g>
   <g id="patch_38">
    <path d="M 473.833895 360.429 
L 481.309493 360.429 
L 481.309493 179.282665 
L 473.833895 179.282665 
z
" clip-path="url(#p6c541bbd20)" style="fill: #828231"/>
   </g>
   <g id="patch_39">
    <path d="M 105.393703 360.429 
L 112.869301 360.429 
L 112.869301 195.418743 
L 105.393703 195.418743 
z
" clip-path="url(#p6c541bbd20)" style="fill: #226061"/>
   </g>
   <g id="patch_40">
    <path d="M 139.567866 360.429 
L 147.043464 360.429 
L 147.043464 181.977407 
L 139.567866 181.977407 
z
" clip-path="url(#p6c541bbd20)" style="fill: #226061"/>
   </g>
   <g id="patch_41">
    <path d="M 173.742029 360.429 
L 181.217627 360.429 
L 181.217627 181.977407 
L 173.742029 181.977407 
z
" clip-path="url(#p6c541bbd20)" style="fill: #226061"/>
   </g>
   <g id="patch_42">
    <path d="M 207.916191 360.429 
L 215.391789 360.429 
L 215.391789 162.483891 
L 207.916191 162.483891 
z
" clip-path="url(#p6c541bbd20)" style="fill: #226061"/>
   </g>
   <g id="patch_43">
    <path d="M 242.090354 360.429 
L 249.565952 360.429 
L 249.565952 185.204378 
L 242.090354 185.204378 
z
" clip-path="url(#p6c541bbd20)" style="fill: #226061"/>
   </g>
   <g id="patch_44">
    <path d="M 276.264517 360.429 
L 283.740115 360.429 
L 283.740115 196.593542 
L 276.264517 196.593542 
z
" clip-path="url(#p6c541bbd20)" style="fill: #226061"/>
   </g>
   <g id="patch_45">
    <path d="M 310.438679 360.429 
L 317.914278 360.429 
L 317.914278 188.846597 
L 310.438679 188.846597 
z
" clip-path="url(#p6c541bbd20)" style="fill: #226061"/>
   </g>
   <g id="patch_46">
    <path d="M 344.612842 360.429 
L 352.08844 360.429 
L 352.08844 351.437265 
L 344.612842 351.437265 
z
" clip-path="url(#p6c541bbd20)" style="fill: #226061"/>
   </g>
   <g id="patch_47">
    <path d="M 378.787005 360.429 
L 386.262603 360.429 
L 386.262603 220.691455 
L 378.787005 220.691455 
z
" clip-path="url(#p6c541bbd20)" style="fill: #226061"/>
   </g>
   <g id="patch_48">
    <path d="M 412.961167 360.429 
L 420.436766 360.429 
L 420.436766 212.86623 
L 412.961167 212.86623 
z
" clip-path="url(#p6c541bbd20)" style="fill: #226061"/>
   </g>
   <g id="patch_49">
    <path d="M 447.13533 360.429 
L 454.610928 360.429 
L 454.610928 219.709562 
L 447.13533 219.709562 
z
" clip-path="url(#p6c541bbd20)" style="fill: #226061"/>
   </g>
   <g id="patch_50">
    <path d="M 481.309493 360.429 
L 488.785091 360.429 
L 488.785091 182.193335 
L 481.309493 182.193335 
z
" clip-path="url(#p6c541bbd20)" style="fill: #226061"/>
   </g>
   <g id="matplotlib.axis_1">
    <g id="xtick_1">
     <g id="line2d_1">
      <defs>
       <path id="m6cc90a2913" d="M 0 0 
L 0 3.5 
" style="stroke: #000000; stroke-width: 0.8"/>
      </defs>
      <g>
       <use xlink:href="#m6cc90a2913" x="97.918105" y="360.429" style="stroke: #000000; stroke-width: 0.8"/>
      </g>
     </g>
     <g id="text_1">
      <!-- DH -->
      <g transform="translate(85.741855 379.5865) scale(0.16 -0.16)">
       <defs>
        <path id="DejaVuSans-44" d="M 1259 4147 
L 1259 519 
L 2022 519 
Q 2988 519 3436 956 
Q 3884 1394 3884 2338 
Q 3884 3275 3436 3711 
Q 2988 4147 2022 4147 
L 1259 4147 
z
M 628 4666 
L 1925 4666 
Q 3281 4666 3915 4102 
Q 4550 3538 4550 2338 
Q 4550 1131 3912 565 
Q 3275 0 1925 0 
L 628 0 
L 628 4666 
z
" transform="scale(0.015625)"/>
        <path id="DejaVuSans-48" d="M 628 4666 
L 1259 4666 
L 1259 2753 
L 3553 2753 
L 3553 4666 
L 4184 4666 
L 4184 0 
L 3553 0 
L 3553 2222 
L 1259 2222 
L 1259 0 
L 628 0 
L 628 4666 
z
" transform="scale(0.015625)"/>
       </defs>
       <use xlink:href="#DejaVuSans-44"/>
       <use xlink:href="#DejaVuSans-48" x="77.001953"/>
      </g>
     </g>
    </g>
    <g id="xtick_2">
     <g id="line2d_2">
      <g>
       <use xlink:href="#m6cc90a2913" x="132.092268" y="360.429" style="stroke: #000000; stroke-width: 0.8"/>
      </g>
     </g>
     <g id="text_2">
      <!-- WH -->
      <g transform="translate(118.166018 379.5865) scale(0.16 -0.16)">
       <defs>
        <path id="DejaVuSans-57" d="M 213 4666 
L 850 4666 
L 1831 722 
L 2809 4666 
L 3519 4666 
L 4500 722 
L 5478 4666 
L 6119 4666 
L 4947 0 
L 4153 0 
L 3169 4050 
L 2175 0 
L 1381 0 
L 213 4666 
z
" transform="scale(0.015625)"/>
       </defs>
       <use xlink:href="#DejaVuSans-57"/>
       <use xlink:href="#DejaVuSans-48" x="98.876953"/>
      </g>
     </g>
    </g>
    <g id="xtick_3">
     <g id="line2d_3">
      <g>
       <use xlink:href="#m6cc90a2913" x="166.266431" y="360.429" style="stroke: #000000; stroke-width: 0.8"/>
      </g>
     </g>
     <g id="text_3">
      <!-- ET -->
      <g transform="translate(156.325181 379.5865) scale(0.16 -0.16)">
       <defs>
        <path id="DejaVuSans-45" d="M 628 4666 
L 3578 4666 
L 3578 4134 
L 1259 4134 
L 1259 2753 
L 3481 2753 
L 3481 2222 
L 1259 2222 
L 1259 531 
L 3634 531 
L 3634 0 
L 628 0 
L 628 4666 
z
" transform="scale(0.015625)"/>
        <path id="DejaVuSans-54" d="M -19 4666 
L 3928 4666 
L 3928 4134 
L 2272 4134 
L 2272 0 
L 1638 0 
L 1638 4134 
L -19 4134 
L -19 4666 
z
" transform="scale(0.015625)"/>
       </defs>
       <use xlink:href="#DejaVuSans-45"/>
       <use xlink:href="#DejaVuSans-54" x="63.183594"/>
      </g>
     </g>
    </g>
    <g id="xtick_4">
     <g id="line2d_4">
      <g>
       <use xlink:href="#m6cc90a2913" x="200.440593" y="360.429" style="stroke: #000000; stroke-width: 0.8"/>
      </g>
     </g>
     <g id="text_4">
      <!-- FC1 -->
      <g transform="translate(185.163093 379.5865) scale(0.16 -0.16)">
       <defs>
        <path id="DejaVuSans-46" d="M 628 4666 
L 3309 4666 
L 3309 4134 
L 1259 4134 
L 1259 2759 
L 3109 2759 
L 3109 2228 
L 1259 2228 
L 1259 0 
L 628 0 
L 628 4666 
z
" transform="scale(0.015625)"/>
        <path id="DejaVuSans-43" d="M 4122 4306 
L 4122 3641 
Q 3803 3938 3442 4084 
Q 3081 4231 2675 4231 
Q 1875 4231 1450 3742 
Q 1025 3253 1025 2328 
Q 1025 1406 1450 917 
Q 1875 428 2675 428 
Q 3081 428 3442 575 
Q 3803 722 4122 1019 
L 4122 359 
Q 3791 134 3420 21 
Q 3050 -91 2638 -91 
Q 1578 -91 968 557 
Q 359 1206 359 2328 
Q 359 3453 968 4101 
Q 1578 4750 2638 4750 
Q 3056 4750 3426 4639 
Q 3797 4528 4122 4306 
z
" transform="scale(0.015625)"/>
        <path id="DejaVuSans-31" d="M 794 531 
L 1825 531 
L 1825 4091 
L 703 3866 
L 703 4441 
L 1819 4666 
L 2450 4666 
L 2450 531 
L 3481 531 
L 3481 0 
L 794 0 
L 794 531 
z
" transform="scale(0.015625)"/>
       </defs>
       <use xlink:href="#DejaVuSans-46"/>
       <use xlink:href="#DejaVuSans-43" x="57.519531"/>
       <use xlink:href="#DejaVuSans-31" x="127.34375"/>
      </g>
     </g>
    </g>
    <g id="xtick_5">
     <g id="line2d_5">
      <g>
       <use xlink:href="#m6cc90a2913" x="234.614756" y="360.429" style="stroke: #000000; stroke-width: 0.8"/>
      </g>
     </g>
     <g id="text_5">
      <!-- FC2 -->
      <g transform="translate(219.337256 379.5865) scale(0.16 -0.16)">
       <defs>
        <path id="DejaVuSans-32" d="M 1228 531 
L 3431 531 
L 3431 0 
L 469 0 
L 469 531 
Q 828 903 1448 1529 
Q 2069 2156 2228 2338 
Q 2531 2678 2651 2914 
Q 2772 3150 2772 3378 
Q 2772 3750 2511 3984 
Q 2250 4219 1831 4219 
Q 1534 4219 1204 4116 
Q 875 4013 500 3803 
L 500 4441 
Q 881 4594 1212 4672 
Q 1544 4750 1819 4750 
Q 2544 4750 2975 4387 
Q 3406 4025 3406 3419 
Q 3406 3131 3298 2873 
Q 3191 2616 2906 2266 
Q 2828 2175 2409 1742 
Q 1991 1309 1228 531 
z
" transform="scale(0.015625)"/>
       </defs>
       <use xlink:href="#DejaVuSans-46"/>
       <use xlink:href="#DejaVuSans-43" x="57.519531"/>
       <use xlink:href="#DejaVuSans-32" x="127.34375"/>
      </g>
     </g>
    </g>
    <g id="xtick_6">
     <g id="line2d_6">
      <g>
       <use xlink:href="#m6cc90a2913" x="268.788919" y="360.429" style="stroke: #000000; stroke-width: 0.8"/>
      </g>
     </g>
     <g id="text_6">
      <!-- FC3 -->
      <g transform="translate(253.511419 379.5865) scale(0.16 -0.16)">
       <defs>
        <path id="DejaVuSans-33" d="M 2597 2516 
Q 3050 2419 3304 2112 
Q 3559 1806 3559 1356 
Q 3559 666 3084 287 
Q 2609 -91 1734 -91 
Q 1441 -91 1130 -33 
Q 819 25 488 141 
L 488 750 
Q 750 597 1062 519 
Q 1375 441 1716 441 
Q 2309 441 2620 675 
Q 2931 909 2931 1356 
Q 2931 1769 2642 2001 
Q 2353 2234 1838 2234 
L 1294 2234 
L 1294 2753 
L 1863 2753 
Q 2328 2753 2575 2939 
Q 2822 3125 2822 3475 
Q 2822 3834 2567 4026 
Q 2313 4219 1838 4219 
Q 1578 4219 1281 4162 
Q 984 4106 628 3988 
L 628 4550 
Q 988 4650 1302 4700 
Q 1616 4750 1894 4750 
Q 2613 4750 3031 4423 
Q 3450 4097 3450 3541 
Q 3450 3153 3228 2886 
Q 3006 2619 2597 2516 
z
" transform="scale(0.015625)"/>
       </defs>
       <use xlink:href="#DejaVuSans-46"/>
       <use xlink:href="#DejaVuSans-43" x="57.519531"/>
       <use xlink:href="#DejaVuSans-33" x="127.34375"/>
      </g>
     </g>
    </g>
    <g id="xtick_7">
     <g id="line2d_7">
      <g>
       <use xlink:href="#m6cc90a2913" x="302.963081" y="360.429" style="stroke: #000000; stroke-width: 0.8"/>
      </g>
     </g>
     <g id="text_7">
      <!-- PT -->
      <g transform="translate(293.253081 379.5865) scale(0.16 -0.16)">
       <defs>
        <path id="DejaVuSans-50" d="M 1259 4147 
L 1259 2394 
L 2053 2394 
Q 2494 2394 2734 2622 
Q 2975 2850 2975 3272 
Q 2975 3691 2734 3919 
Q 2494 4147 2053 4147 
L 1259 4147 
z
M 628 4666 
L 2053 4666 
Q 2838 4666 3239 4311 
Q 3641 3956 3641 3272 
Q 3641 2581 3239 2228 
Q 2838 1875 2053 1875 
L 1259 1875 
L 1259 0 
L 628 0 
L 628 4666 
z
" transform="scale(0.015625)"/>
       </defs>
       <use xlink:href="#DejaVuSans-50"/>
       <use xlink:href="#DejaVuSans-54" x="60.302734"/>
      </g>
     </g>
    </g>
    <g id="xtick_8">
     <g id="line2d_8">
      <g>
       <use xlink:href="#m6cc90a2913" x="337.137244" y="360.429" style="stroke: #000000; stroke-width: 0.8"/>
      </g>
     </g>
     <g id="text_8">
      <!-- CS -->
      <g transform="translate(326.472244 379.5865) scale(0.16 -0.16)">
       <defs>
        <path id="DejaVuSans-53" d="M 3425 4513 
L 3425 3897 
Q 3066 4069 2747 4153 
Q 2428 4238 2131 4238 
Q 1616 4238 1336 4038 
Q 1056 3838 1056 3469 
Q 1056 3159 1242 3001 
Q 1428 2844 1947 2747 
L 2328 2669 
Q 3034 2534 3370 2195 
Q 3706 1856 3706 1288 
Q 3706 609 3251 259 
Q 2797 -91 1919 -91 
Q 1588 -91 1214 -16 
Q 841 59 441 206 
L 441 856 
Q 825 641 1194 531 
Q 1563 422 1919 422 
Q 2459 422 2753 634 
Q 3047 847 3047 1241 
Q 3047 1584 2836 1778 
Q 2625 1972 2144 2069 
L 1759 2144 
Q 1053 2284 737 2584 
Q 422 2884 422 3419 
Q 422 4038 858 4394 
Q 1294 4750 2059 4750 
Q 2388 4750 2728 4690 
Q 3069 4631 3425 4513 
z
" transform="scale(0.015625)"/>
       </defs>
       <use xlink:href="#DejaVuSans-43"/>
       <use xlink:href="#DejaVuSans-53" x="69.824219"/>
      </g>
     </g>
    </g>
    <g id="xtick_9">
     <g id="line2d_9">
      <g>
       <use xlink:href="#m6cc90a2913" x="371.311407" y="360.429" style="stroke: #000000; stroke-width: 0.8"/>
      </g>
     </g>
     <g id="text_9">
      <!-- PC -->
      <g transform="translate(360.901407 379.5865) scale(0.16 -0.16)">
       <use xlink:href="#DejaVuSans-50"/>
       <use xlink:href="#DejaVuSans-43" x="60.302734"/>
      </g>
     </g>
    </g>
    <g id="xtick_10">
     <g id="line2d_10">
      <g>
       <use xlink:href="#m6cc90a2913" x="405.485569" y="360.429" style="stroke: #000000; stroke-width: 0.8"/>
      </g>
     </g>
     <g id="text_10">
      <!-- SS1 -->
      <g transform="translate(390.238069 379.5865) scale(0.16 -0.16)">
       <use xlink:href="#DejaVuSans-53"/>
       <use xlink:href="#DejaVuSans-53" x="63.476562"/>
       <use xlink:href="#DejaVuSans-31" x="126.953125"/>
      </g>
     </g>
    </g>
    <g id="xtick_11">
     <g id="line2d_11">
      <g>
       <use xlink:href="#m6cc90a2913" x="439.659732" y="360.429" style="stroke: #000000; stroke-width: 0.8"/>
      </g>
     </g>
     <g id="text_11">
      <!-- SS8 -->
      <g transform="translate(424.412232 379.5865) scale(0.16 -0.16)">
       <defs>
        <path id="DejaVuSans-38" d="M 2034 2216 
Q 1584 2216 1326 1975 
Q 1069 1734 1069 1313 
Q 1069 891 1326 650 
Q 1584 409 2034 409 
Q 2484 409 2743 651 
Q 3003 894 3003 1313 
Q 3003 1734 2745 1975 
Q 2488 2216 2034 2216 
z
M 1403 2484 
Q 997 2584 770 2862 
Q 544 3141 544 3541 
Q 544 4100 942 4425 
Q 1341 4750 2034 4750 
Q 2731 4750 3128 4425 
Q 3525 4100 3525 3541 
Q 3525 3141 3298 2862 
Q 3072 2584 2669 2484 
Q 3125 2378 3379 2068 
Q 3634 1759 3634 1313 
Q 3634 634 3220 271 
Q 2806 -91 2034 -91 
Q 1263 -91 848 271 
Q 434 634 434 1313 
Q 434 1759 690 2068 
Q 947 2378 1403 2484 
z
M 1172 3481 
Q 1172 3119 1398 2916 
Q 1625 2713 2034 2713 
Q 2441 2713 2670 2916 
Q 2900 3119 2900 3481 
Q 2900 3844 2670 4047 
Q 2441 4250 2034 4250 
Q 1625 4250 1398 4047 
Q 1172 3844 1172 3481 
z
" transform="scale(0.015625)"/>
       </defs>
       <use xlink:href="#DejaVuSans-53"/>
       <use xlink:href="#DejaVuSans-53" x="63.476562"/>
       <use xlink:href="#DejaVuSans-38" x="126.953125"/>
      </g>
     </g>
    </g>
    <g id="xtick_12">
     <g id="line2d_12">
      <g>
       <use xlink:href="#m6cc90a2913" x="473.833895" y="360.429" style="stroke: #000000; stroke-width: 0.8"/>
      </g>
     </g>
     <g id="text_12">
      <!-- SC -->
      <g transform="translate(463.168895 379.5865) scale(0.16 -0.16)">
       <use xlink:href="#DejaVuSans-53"/>
       <use xlink:href="#DejaVuSans-43" x="63.476562"/>
      </g>
     </g>
    </g>
   </g>
   <g id="matplotlib.axis_2">
    <g id="ytick_1">
     <g id="line2d_13">
      <defs>
       <path id="ma8e8c0e0ad" d="M 0 0 
L -3.5 0 
" style="stroke: #000000; stroke-width: 0.8"/>
      </defs>
      <g>
       <use xlink:href="#ma8e8c0e0ad" x="62.676" y="360.429" style="stroke: #000000; stroke-width: 0.8"/>
      </g>
     </g>
     <g id="text_13">
      <!-- 0.0 -->
      <g transform="translate(30.231 366.50775) scale(0.16 -0.16)">
       <defs>
        <path id="DejaVuSans-30" d="M 2034 4250 
Q 1547 4250 1301 3770 
Q 1056 3291 1056 2328 
Q 1056 1369 1301 889 
Q 1547 409 2034 409 
Q 2525 409 2770 889 
Q 3016 1369 3016 2328 
Q 3016 3291 2770 3770 
Q 2525 4250 2034 4250 
z
M 2034 4750 
Q 2819 4750 3233 4129 
Q 3647 3509 3647 2328 
Q 3647 1150 3233 529 
Q 2819 -91 2034 -91 
Q 1250 -91 836 529 
Q 422 1150 422 2328 
Q 422 3509 836 4129 
Q 1250 4750 2034 4750 
z
" transform="scale(0.015625)"/>
        <path id="DejaVuSans-2e" d="M 684 794 
L 1344 794 
L 1344 0 
L 684 0 
L 684 794 
z
" transform="scale(0.015625)"/>
       </defs>
       <use xlink:href="#DejaVuSans-30"/>
       <use xlink:href="#DejaVuSans-2e" x="63.623047"/>
       <use xlink:href="#DejaVuSans-30" x="95.410156"/>
      </g>
     </g>
    </g>
    <g id="ytick_2">
     <g id="line2d_14">
      <g>
       <use xlink:href="#ma8e8c0e0ad" x="62.676" y="297.069" style="stroke: #000000; stroke-width: 0.8"/>
      </g>
     </g>
     <g id="text_14">
      <!-- 0.2 -->
      <g transform="translate(30.231 303.14775) scale(0.16 -0.16)">
       <use xlink:href="#DejaVuSans-30"/>
       <use xlink:href="#DejaVuSans-2e" x="63.623047"/>
       <use xlink:href="#DejaVuSans-32" x="95.410156"/>
      </g>
     </g>
    </g>
    <g id="ytick_3">
     <g id="line2d_15">
      <g>
       <use xlink:href="#ma8e8c0e0ad" x="62.676" y="233.709" style="stroke: #000000; stroke-width: 0.8"/>
      </g>
     </g>
     <g id="text_15">
      <!-- 0.4 -->
      <g transform="translate(30.231 239.78775) scale(0.16 -0.16)">
       <defs>
        <path id="DejaVuSans-34" d="M 2419 4116 
L 825 1625 
L 2419 1625 
L 2419 4116 
z
M 2253 4666 
L 3047 4666 
L 3047 1625 
L 3713 1625 
L 3713 1100 
L 3047 1100 
L 3047 0 
L 2419 0 
L 2419 1100 
L 313 1100 
L 313 1709 
L 2253 4666 
z
" transform="scale(0.015625)"/>
       </defs>
       <use xlink:href="#DejaVuSans-30"/>
       <use xlink:href="#DejaVuSans-2e" x="63.623047"/>
       <use xlink:href="#DejaVuSans-34" x="95.410156"/>
      </g>
     </g>
    </g>
    <g id="ytick_4">
     <g id="line2d_16">
      <g>
       <use xlink:href="#ma8e8c0e0ad" x="62.676" y="170.349" style="stroke: #000000; stroke-width: 0.8"/>
      </g>
     </g>
     <g id="text_16">
      <!-- 0.6 -->
      <g transform="translate(30.231 176.42775) scale(0.16 -0.16)">
       <defs>
        <path id="DejaVuSans-36" d="M 2113 2584 
Q 1688 2584 1439 2293 
Q 1191 2003 1191 1497 
Q 1191 994 1439 701 
Q 1688 409 2113 409 
Q 2538 409 2786 701 
Q 3034 994 3034 1497 
Q 3034 2003 2786 2293 
Q 2538 2584 2113 2584 
z
M 3366 4563 
L 3366 3988 
Q 3128 4100 2886 4159 
Q 2644 4219 2406 4219 
Q 1781 4219 1451 3797 
Q 1122 3375 1075 2522 
Q 1259 2794 1537 2939 
Q 1816 3084 2150 3084 
Q 2853 3084 3261 2657 
Q 3669 2231 3669 1497 
Q 3669 778 3244 343 
Q 2819 -91 2113 -91 
Q 1303 -91 875 529 
Q 447 1150 447 2328 
Q 447 3434 972 4092 
Q 1497 4750 2381 4750 
Q 2619 4750 2861 4703 
Q 3103 4656 3366 4563 
z
" transform="scale(0.015625)"/>
       </defs>
       <use xlink:href="#DejaVuSans-30"/>
       <use xlink:href="#DejaVuSans-2e" x="63.623047"/>
       <use xlink:href="#DejaVuSans-36" x="95.410156"/>
      </g>
     </g>
    </g>
    <g id="ytick_5">
     <g id="line2d_17">
      <g>
       <use xlink:href="#ma8e8c0e0ad" x="62.676" y="106.989" style="stroke: #000000; stroke-width: 0.8"/>
      </g>
     </g>
     <g id="text_17">
      <!-- 0.8 -->
      <g transform="translate(30.231 113.06775) scale(0.16 -0.16)">
       <use xlink:href="#DejaVuSans-30"/>
       <use xlink:href="#DejaVuSans-2e" x="63.623047"/>
       <use xlink:href="#DejaVuSans-38" x="95.410156"/>
      </g>
     </g>
    </g>
    <g id="ytick_6">
     <g id="line2d_18">
      <g>
       <use xlink:href="#ma8e8c0e0ad" x="62.676" y="43.629" style="stroke: #000000; stroke-width: 0.8"/>
      </g>
     </g>
     <g id="text_18">
      <!-- 1.0 -->
      <g transform="translate(30.231 49.70775) scale(0.16 -0.16)">
       <use xlink:href="#DejaVuSans-31"/>
       <use xlink:href="#DejaVuSans-2e" x="63.623047"/>
       <use xlink:href="#DejaVuSans-30" x="95.410156"/>
      </g>
     </g>
    </g>
    <g id="text_19">
     <!-- Index per US$ -->
     <g transform="translate(22.9035 250.534) rotate(-90) scale(0.16 -0.16)">
      <defs>
       <path id="DejaVuSans-49" d="M 628 4666 
L 1259 4666 
L 1259 0 
L 628 0 
L 628 4666 
z
" transform="scale(0.015625)"/>
       <path id="DejaVuSans-6e" d="M 3513 2113 
L 3513 0 
L 2938 0 
L 2938 2094 
Q 2938 2591 2744 2837 
Q 2550 3084 2163 3084 
Q 1697 3084 1428 2787 
Q 1159 2491 1159 1978 
L 1159 0 
L 581 0 
L 581 3500 
L 1159 3500 
L 1159 2956 
Q 1366 3272 1645 3428 
Q 1925 3584 2291 3584 
Q 2894 3584 3203 3211 
Q 3513 2838 3513 2113 
z
" transform="scale(0.015625)"/>
       <path id="DejaVuSans-64" d="M 2906 2969 
L 2906 4863 
L 3481 4863 
L 3481 0 
L 2906 0 
L 2906 525 
Q 2725 213 2448 61 
Q 2172 -91 1784 -91 
Q 1150 -91 751 415 
Q 353 922 353 1747 
Q 353 2572 751 3078 
Q 1150 3584 1784 3584 
Q 2172 3584 2448 3432 
Q 2725 3281 2906 2969 
z
M 947 1747 
Q 947 1113 1208 752 
Q 1469 391 1925 391 
Q 2381 391 2643 752 
Q 2906 1113 2906 1747 
Q 2906 2381 2643 2742 
Q 2381 3103 1925 3103 
Q 1469 3103 1208 2742 
Q 947 2381 947 1747 
z
" transform="scale(0.015625)"/>
       <path id="DejaVuSans-65" d="M 3597 1894 
L 3597 1613 
L 953 1613 
Q 991 1019 1311 708 
Q 1631 397 2203 397 
Q 2534 397 2845 478 
Q 3156 559 3463 722 
L 3463 178 
Q 3153 47 2828 -22 
Q 2503 -91 2169 -91 
Q 1331 -91 842 396 
Q 353 884 353 1716 
Q 353 2575 817 3079 
Q 1281 3584 2069 3584 
Q 2775 3584 3186 3129 
Q 3597 2675 3597 1894 
z
M 3022 2063 
Q 3016 2534 2758 2815 
Q 2500 3097 2075 3097 
Q 1594 3097 1305 2825 
Q 1016 2553 972 2059 
L 3022 2063 
z
" transform="scale(0.015625)"/>
       <path id="DejaVuSans-78" d="M 3513 3500 
L 2247 1797 
L 3578 0 
L 2900 0 
L 1881 1375 
L 863 0 
L 184 0 
L 1544 1831 
L 300 3500 
L 978 3500 
L 1906 2253 
L 2834 3500 
L 3513 3500 
z
" transform="scale(0.015625)"/>
       <path id="DejaVuSans-20" transform="scale(0.015625)"/>
       <path id="DejaVuSans-70" d="M 1159 525 
L 1159 -1331 
L 581 -1331 
L 581 3500 
L 1159 3500 
L 1159 2969 
Q 1341 3281 1617 3432 
Q 1894 3584 2278 3584 
Q 2916 3584 3314 3078 
Q 3713 2572 3713 1747 
Q 3713 922 3314 415 
Q 2916 -91 2278 -91 
Q 1894 -91 1617 61 
Q 1341 213 1159 525 
z
M 3116 1747 
Q 3116 2381 2855 2742 
Q 2594 3103 2138 3103 
Q 1681 3103 1420 2742 
Q 1159 2381 1159 1747 
Q 1159 1113 1420 752 
Q 1681 391 2138 391 
Q 2594 391 2855 752 
Q 3116 1113 3116 1747 
z
" transform="scale(0.015625)"/>
       <path id="DejaVuSans-72" d="M 2631 2963 
Q 2534 3019 2420 3045 
Q 2306 3072 2169 3072 
Q 1681 3072 1420 2755 
Q 1159 2438 1159 1844 
L 1159 0 
L 581 0 
L 581 3500 
L 1159 3500 
L 1159 2956 
Q 1341 3275 1631 3429 
Q 1922 3584 2338 3584 
Q 2397 3584 2469 3576 
Q 2541 3569 2628 3553 
L 2631 2963 
z
" transform="scale(0.015625)"/>
       <path id="DejaVuSans-55" d="M 556 4666 
L 1191 4666 
L 1191 1831 
Q 1191 1081 1462 751 
Q 1734 422 2344 422 
Q 2950 422 3222 751 
Q 3494 1081 3494 1831 
L 3494 4666 
L 4128 4666 
L 4128 1753 
Q 4128 841 3676 375 
Q 3225 -91 2344 -91 
Q 1459 -91 1007 375 
Q 556 841 556 1753 
L 556 4666 
z
" transform="scale(0.015625)"/>
       <path id="DejaVuSans-24" d="M 2163 -941 
L 1850 -941 
L 1847 0 
Q 1519 6 1191 76 
Q 863 147 531 288 
L 531 850 
Q 850 650 1176 548 
Q 1503 447 1850 444 
L 1850 1869 
Q 1159 1981 845 2250 
Q 531 2519 531 2988 
Q 531 3497 872 3790 
Q 1213 4084 1850 4128 
L 1850 4863 
L 2163 4863 
L 2163 4138 
Q 2453 4125 2725 4076 
Q 2997 4028 3256 3944 
L 3256 3397 
Q 2997 3528 2723 3600 
Q 2450 3672 2163 3684 
L 2163 2350 
Q 2872 2241 3206 1959 
Q 3541 1678 3541 1191 
Q 3541 663 3186 358 
Q 2831 53 2163 6 
L 2163 -941 
z
M 1850 2406 
L 1850 3688 
Q 1488 3647 1297 3481 
Q 1106 3316 1106 3041 
Q 1106 2772 1282 2622 
Q 1459 2472 1850 2406 
z
M 2163 1806 
L 2163 453 
Q 2559 506 2761 678 
Q 2963 850 2963 1131 
Q 2963 1406 2770 1568 
Q 2578 1731 2163 1806 
z
" transform="scale(0.015625)"/>
      </defs>
      <use xlink:href="#DejaVuSans-49"/>
      <use xlink:href="#DejaVuSans-6e" x="29.492188"/>
      <use xlink:href="#DejaVuSans-64" x="92.871094"/>
      <use xlink:href="#DejaVuSans-65" x="156.347656"/>
      <use xlink:href="#DejaVuSans-78" x="216.121094"/>
      <use xlink:href="#DejaVuSans-20" x="275.300781"/>
      <use xlink:href="#DejaVuSans-70" x="307.087891"/>
      <use xlink:href="#DejaVuSans-65" x="370.564453"/>
      <use xlink:href="#DejaVuSans-72" x="432.087891"/>
      <use xlink:href="#DejaVuSans-20" x="473.201172"/>
      <use xlink:href="#DejaVuSans-55" x="504.988281"/>
      <use xlink:href="#DejaVuSans-53" x="578.181641"/>
      <use xlink:href="#DejaVuSans-24" x="641.658203"/>
     </g>
    </g>
   </g>
   <g id="patch_51">
    <path d="M 62.676 360.429 
L 62.676 27.789 
" style="fill: none; stroke: #000000; stroke-width: 0.8; stroke-linejoin: miter; stroke-linecap: square"/>
   </g>
   <g id="patch_52">
    <path d="M 509.076 360.429 
L 509.076 27.789 
" style="fill: none; stroke: #000000; stroke-width: 0.8; stroke-linejoin: miter; stroke-linecap: square"/>
   </g>
   <g id="patch_53">
    <path d="M 62.676 360.429 
L 509.076 360.429 
" style="fill: none; stroke: #000000; stroke-width: 0.8; stroke-linejoin: miter; stroke-linecap: square"/>
   </g>
   <g id="patch_54">
    <path d="M 62.676 27.789 
L 509.076 27.789 
" style="fill: none; stroke: #000000; stroke-width: 0.8; stroke-linejoin: miter; stroke-linecap: square"/>
   </g>
   <g id="text_20">
    <!-- UnixBench Individual Tests Multi Core per US$ Normalised -->
    <g transform="translate(7.2 21.789) scale(0.192 -0.192)">
     <defs>
      <path id="DejaVuSans-69" d="M 603 3500 
L 1178 3500 
L 1178 0 
L 603 0 
L 603 3500 
z
M 603 4863 
L 1178 4863 
L 1178 4134 
L 603 4134 
L 603 4863 
z
" transform="scale(0.015625)"/>
      <path id="DejaVuSans-42" d="M 1259 2228 
L 1259 519 
L 2272 519 
Q 2781 519 3026 730 
Q 3272 941 3272 1375 
Q 3272 1813 3026 2020 
Q 2781 2228 2272 2228 
L 1259 2228 
z
M 1259 4147 
L 1259 2741 
L 2194 2741 
Q 2656 2741 2882 2914 
Q 3109 3088 3109 3444 
Q 3109 3797 2882 3972 
Q 2656 4147 2194 4147 
L 1259 4147 
z
M 628 4666 
L 2241 4666 
Q 2963 4666 3353 4366 
Q 3744 4066 3744 3513 
Q 3744 3084 3544 2831 
Q 3344 2578 2956 2516 
Q 3422 2416 3680 2098 
Q 3938 1781 3938 1306 
Q 3938 681 3513 340 
Q 3088 0 2303 0 
L 628 0 
L 628 4666 
z
" transform="scale(0.015625)"/>
      <path id="DejaVuSans-63" d="M 3122 3366 
L 3122 2828 
Q 2878 2963 2633 3030 
Q 2388 3097 2138 3097 
Q 1578 3097 1268 2742 
Q 959 2388 959 1747 
Q 959 1106 1268 751 
Q 1578 397 2138 397 
Q 2388 397 2633 464 
Q 2878 531 3122 666 
L 3122 134 
Q 2881 22 2623 -34 
Q 2366 -91 2075 -91 
Q 1284 -91 818 406 
Q 353 903 353 1747 
Q 353 2603 823 3093 
Q 1294 3584 2113 3584 
Q 2378 3584 2631 3529 
Q 2884 3475 3122 3366 
z
" transform="scale(0.015625)"/>
      <path id="DejaVuSans-68" d="M 3513 2113 
L 3513 0 
L 2938 0 
L 2938 2094 
Q 2938 2591 2744 2837 
Q 2550 3084 2163 3084 
Q 1697 3084 1428 2787 
Q 1159 2491 1159 1978 
L 1159 0 
L 581 0 
L 581 4863 
L 1159 4863 
L 1159 2956 
Q 1366 3272 1645 3428 
Q 1925 3584 2291 3584 
Q 2894 3584 3203 3211 
Q 3513 2838 3513 2113 
z
" transform="scale(0.015625)"/>
      <path id="DejaVuSans-76" d="M 191 3500 
L 800 3500 
L 1894 563 
L 2988 3500 
L 3597 3500 
L 2284 0 
L 1503 0 
L 191 3500 
z
" transform="scale(0.015625)"/>
      <path id="DejaVuSans-75" d="M 544 1381 
L 544 3500 
L 1119 3500 
L 1119 1403 
Q 1119 906 1312 657 
Q 1506 409 1894 409 
Q 2359 409 2629 706 
Q 2900 1003 2900 1516 
L 2900 3500 
L 3475 3500 
L 3475 0 
L 2900 0 
L 2900 538 
Q 2691 219 2414 64 
Q 2138 -91 1772 -91 
Q 1169 -91 856 284 
Q 544 659 544 1381 
z
M 1991 3584 
L 1991 3584 
z
" transform="scale(0.015625)"/>
      <path id="DejaVuSans-61" d="M 2194 1759 
Q 1497 1759 1228 1600 
Q 959 1441 959 1056 
Q 959 750 1161 570 
Q 1363 391 1709 391 
Q 2188 391 2477 730 
Q 2766 1069 2766 1631 
L 2766 1759 
L 2194 1759 
z
M 3341 1997 
L 3341 0 
L 2766 0 
L 2766 531 
Q 2569 213 2275 61 
Q 1981 -91 1556 -91 
Q 1019 -91 701 211 
Q 384 513 384 1019 
Q 384 1609 779 1909 
Q 1175 2209 1959 2209 
L 2766 2209 
L 2766 2266 
Q 2766 2663 2505 2880 
Q 2244 3097 1772 3097 
Q 1472 3097 1187 3025 
Q 903 2953 641 2809 
L 641 3341 
Q 956 3463 1253 3523 
Q 1550 3584 1831 3584 
Q 2591 3584 2966 3190 
Q 3341 2797 3341 1997 
z
" transform="scale(0.015625)"/>
      <path id="DejaVuSans-6c" d="M 603 4863 
L 1178 4863 
L 1178 0 
L 603 0 
L 603 4863 
z
" transform="scale(0.015625)"/>
      <path id="DejaVuSans-73" d="M 2834 3397 
L 2834 2853 
Q 2591 2978 2328 3040 
Q 2066 3103 1784 3103 
Q 1356 3103 1142 2972 
Q 928 2841 928 2578 
Q 928 2378 1081 2264 
Q 1234 2150 1697 2047 
L 1894 2003 
Q 2506 1872 2764 1633 
Q 3022 1394 3022 966 
Q 3022 478 2636 193 
Q 2250 -91 1575 -91 
Q 1294 -91 989 -36 
Q 684 19 347 128 
L 347 722 
Q 666 556 975 473 
Q 1284 391 1588 391 
Q 1994 391 2212 530 
Q 2431 669 2431 922 
Q 2431 1156 2273 1281 
Q 2116 1406 1581 1522 
L 1381 1569 
Q 847 1681 609 1914 
Q 372 2147 372 2553 
Q 372 3047 722 3315 
Q 1072 3584 1716 3584 
Q 2034 3584 2315 3537 
Q 2597 3491 2834 3397 
z
" transform="scale(0.015625)"/>
      <path id="DejaVuSans-74" d="M 1172 4494 
L 1172 3500 
L 2356 3500 
L 2356 3053 
L 1172 3053 
L 1172 1153 
Q 1172 725 1289 603 
Q 1406 481 1766 481 
L 2356 481 
L 2356 0 
L 1766 0 
Q 1100 0 847 248 
Q 594 497 594 1153 
L 594 3053 
L 172 3053 
L 172 3500 
L 594 3500 
L 594 4494 
L 1172 4494 
z
" transform="scale(0.015625)"/>
      <path id="DejaVuSans-4d" d="M 628 4666 
L 1569 4666 
L 2759 1491 
L 3956 4666 
L 4897 4666 
L 4897 0 
L 4281 0 
L 4281 4097 
L 3078 897 
L 2444 897 
L 1241 4097 
L 1241 0 
L 628 0 
L 628 4666 
z
" transform="scale(0.015625)"/>
      <path id="DejaVuSans-6f" d="M 1959 3097 
Q 1497 3097 1228 2736 
Q 959 2375 959 1747 
Q 959 1119 1226 758 
Q 1494 397 1959 397 
Q 2419 397 2687 759 
Q 2956 1122 2956 1747 
Q 2956 2369 2687 2733 
Q 2419 3097 1959 3097 
z
M 1959 3584 
Q 2709 3584 3137 3096 
Q 3566 2609 3566 1747 
Q 3566 888 3137 398 
Q 2709 -91 1959 -91 
Q 1206 -91 779 398 
Q 353 888 353 1747 
Q 353 2609 779 3096 
Q 1206 3584 1959 3584 
z
" transform="scale(0.015625)"/>
      <path id="DejaVuSans-4e" d="M 628 4666 
L 1478 4666 
L 3547 763 
L 3547 4666 
L 4159 4666 
L 4159 0 
L 3309 0 
L 1241 3903 
L 1241 0 
L 628 0 
L 628 4666 
z
" transform="scale(0.015625)"/>
      <path id="DejaVuSans-6d" d="M 3328 2828 
Q 3544 3216 3844 3400 
Q 4144 3584 4550 3584 
Q 5097 3584 5394 3201 
Q 5691 2819 5691 2113 
L 5691 0 
L 5113 0 
L 5113 2094 
Q 5113 2597 4934 2840 
Q 4756 3084 4391 3084 
Q 3944 3084 3684 2787 
Q 3425 2491 3425 1978 
L 3425 0 
L 2847 0 
L 2847 2094 
Q 2847 2600 2669 2842 
Q 2491 3084 2119 3084 
Q 1678 3084 1418 2786 
Q 1159 2488 1159 1978 
L 1159 0 
L 581 0 
L 581 3500 
L 1159 3500 
L 1159 2956 
Q 1356 3278 1631 3431 
Q 1906 3584 2284 3584 
Q 2666 3584 2933 3390 
Q 3200 3197 3328 2828 
z
" transform="scale(0.015625)"/>
     </defs>
     <use xlink:href="#DejaVuSans-55"/>
     <use xlink:href="#DejaVuSans-6e" x="73.193359"/>
     <use xlink:href="#DejaVuSans-69" x="136.572266"/>
     <use xlink:href="#DejaVuSans-78" x="164.355469"/>
     <use xlink:href="#DejaVuSans-42" x="223.535156"/>
     <use xlink:href="#DejaVuSans-65" x="292.138672"/>
     <use xlink:href="#DejaVuSans-6e" x="353.662109"/>
     <use xlink:href="#DejaVuSans-63" x="417.041016"/>
     <use xlink:href="#DejaVuSans-68" x="472.021484"/>
     <use xlink:href="#DejaVuSans-20" x="535.400391"/>
     <use xlink:href="#DejaVuSans-49" x="567.1875"/>
     <use xlink:href="#DejaVuSans-6e" x="596.679688"/>
     <use xlink:href="#DejaVuSans-64" x="660.058594"/>
     <use xlink:href="#DejaVuSans-69" x="723.535156"/>
     <use xlink:href="#DejaVuSans-76" x="751.318359"/>
     <use xlink:href="#DejaVuSans-69" x="810.498047"/>
     <use xlink:href="#DejaVuSans-64" x="838.28125"/>
     <use xlink:href="#DejaVuSans-75" x="901.757812"/>
     <use xlink:href="#DejaVuSans-61" x="965.136719"/>
     <use xlink:href="#DejaVuSans-6c" x="1026.416016"/>
     <use xlink:href="#DejaVuSans-20" x="1054.199219"/>
     <use xlink:href="#DejaVuSans-54" x="1085.986328"/>
     <use xlink:href="#DejaVuSans-65" x="1130.070312"/>
     <use xlink:href="#DejaVuSans-73" x="1191.59375"/>
     <use xlink:href="#DejaVuSans-74" x="1243.693359"/>
     <use xlink:href="#DejaVuSans-73" x="1282.902344"/>
     <use xlink:href="#DejaVuSans-20" x="1335.001953"/>
     <use xlink:href="#DejaVuSans-4d" x="1366.789062"/>
     <use xlink:href="#DejaVuSans-75" x="1453.068359"/>
     <use xlink:href="#DejaVuSans-6c" x="1516.447266"/>
     <use xlink:href="#DejaVuSans-74" x="1544.230469"/>
     <use xlink:href="#DejaVuSans-69" x="1583.439453"/>
     <use xlink:href="#DejaVuSans-20" x="1611.222656"/>
     <use xlink:href="#DejaVuSans-43" x="1643.009766"/>
     <use xlink:href="#DejaVuSans-6f" x="1712.833984"/>
     <use xlink:href="#DejaVuSans-72" x="1774.015625"/>
     <use xlink:href="#DejaVuSans-65" x="1812.878906"/>
     <use xlink:href="#DejaVuSans-20" x="1874.402344"/>
     <use xlink:href="#DejaVuSans-70" x="1906.189453"/>
     <use xlink:href="#DejaVuSans-65" x="1969.666016"/>
     <use xlink:href="#DejaVuSans-72" x="2031.189453"/>
     <use xlink:href="#DejaVuSans-20" x="2072.302734"/>
     <use xlink:href="#DejaVuSans-55" x="2104.089844"/>
     <use xlink:href="#DejaVuSans-53" x="2177.283203"/>
     <use xlink:href="#DejaVuSans-24" x="2240.759766"/>
     <use xlink:href="#DejaVuSans-20" x="2304.382812"/>
     <use xlink:href="#DejaVuSans-4e" x="2336.169922"/>
     <use xlink:href="#DejaVuSans-6f" x="2410.974609"/>
     <use xlink:href="#DejaVuSans-72" x="2472.15625"/>
     <use xlink:href="#DejaVuSans-6d" x="2511.519531"/>
     <use xlink:href="#DejaVuSans-61" x="2608.931641"/>
     <use xlink:href="#DejaVuSans-6c" x="2670.210938"/>
     <use xlink:href="#DejaVuSans-69" x="2697.994141"/>
     <use xlink:href="#DejaVuSans-73" x="2725.777344"/>
     <use xlink:href="#DejaVuSans-65" x="2777.876953"/>
     <use xlink:href="#DejaVuSans-64" x="2839.400391"/>
    </g>
   </g>
   <g id="legend_1">
    <g id="patch_55">
     <path d="M 111.8185 455.463 
L 463.9335 455.463 
Q 467.1335 455.463 467.1335 452.263 
L 467.1335 406.893 
Q 467.1335 403.693 463.9335 403.693 
L 111.8185 403.693 
Q 108.6185 403.693 108.6185 406.893 
L 108.6185 452.263 
Q 108.6185 455.463 111.8185 455.463 
z
" style="fill: #4d4d4d; opacity: 0.5; stroke: #4d4d4d; stroke-linejoin: miter"/>
    </g>
    <g id="patch_56">
     <path d="M 109.8185 453.463 
L 461.9335 453.463 
Q 465.1335 453.463 465.1335 450.263 
L 465.1335 404.893 
Q 465.1335 401.693 461.9335 401.693 
L 109.8185 401.693 
Q 106.6185 401.693 106.6185 404.893 
L 106.6185 450.263 
Q 106.6185 453.463 109.8185 453.463 
z
" style="fill: #ffffff; stroke: #cccccc; stroke-linejoin: miter"/>
    </g>
    <g id="patch_57">
     <path d="M 113.0185 420.2505 
L 145.0185 420.2505 
L 145.0185 409.0505 
L 113.0185 409.0505 
z
" style="fill: #011959"/>
    </g>
    <g id="text_21">
     <!-- c5a.24xlarge -->
     <g transform="translate(157.8185 420.2505) scale(0.16 -0.16)">
      <defs>
       <path id="DejaVuSans-35" d="M 691 4666 
L 3169 4666 
L 3169 4134 
L 1269 4134 
L 1269 2991 
Q 1406 3038 1543 3061 
Q 1681 3084 1819 3084 
Q 2600 3084 3056 2656 
Q 3513 2228 3513 1497 
Q 3513 744 3044 326 
Q 2575 -91 1722 -91 
Q 1428 -91 1123 -41 
Q 819 9 494 109 
L 494 744 
Q 775 591 1075 516 
Q 1375 441 1709 441 
Q 2250 441 2565 725 
Q 2881 1009 2881 1497 
Q 2881 1984 2565 2268 
Q 2250 2553 1709 2553 
Q 1456 2553 1204 2497 
Q 953 2441 691 2322 
L 691 4666 
z
" transform="scale(0.015625)"/>
       <path id="DejaVuSans-67" d="M 2906 1791 
Q 2906 2416 2648 2759 
Q 2391 3103 1925 3103 
Q 1463 3103 1205 2759 
Q 947 2416 947 1791 
Q 947 1169 1205 825 
Q 1463 481 1925 481 
Q 2391 481 2648 825 
Q 2906 1169 2906 1791 
z
M 3481 434 
Q 3481 -459 3084 -895 
Q 2688 -1331 1869 -1331 
Q 1566 -1331 1297 -1286 
Q 1028 -1241 775 -1147 
L 775 -588 
Q 1028 -725 1275 -790 
Q 1522 -856 1778 -856 
Q 2344 -856 2625 -561 
Q 2906 -266 2906 331 
L 2906 616 
Q 2728 306 2450 153 
Q 2172 0 1784 0 
Q 1141 0 747 490 
Q 353 981 353 1791 
Q 353 2603 747 3093 
Q 1141 3584 1784 3584 
Q 2172 3584 2450 3431 
Q 2728 3278 2906 2969 
L 2906 3500 
L 3481 3500 
L 3481 434 
z
" transform="scale(0.015625)"/>
      </defs>
      <use xlink:href="#DejaVuSans-63"/>
      <use xlink:href="#DejaVuSans-35" x="54.980469"/>
      <use xlink:href="#DejaVuSans-61" x="118.603516"/>
      <use xlink:href="#DejaVuSans-2e" x="179.882812"/>
      <use xlink:href="#DejaVuSans-32" x="211.669922"/>
      <use xlink:href="#DejaVuSans-34" x="275.292969"/>
      <use xlink:href="#DejaVuSans-78" x="338.916016"/>
      <use xlink:href="#DejaVuSans-6c" x="398.095703"/>
      <use xlink:href="#DejaVuSans-61" x="425.878906"/>
      <use xlink:href="#DejaVuSans-72" x="487.158203"/>
      <use xlink:href="#DejaVuSans-67" x="526.521484"/>
      <use xlink:href="#DejaVuSans-65" x="589.998047"/>
     </g>
    </g>
    <g id="patch_58">
     <path d="M 113.0185 443.7355 
L 145.0185 443.7355 
L 145.0185 432.5355 
L 113.0185 432.5355 
z
" style="fill: #faccfa"/>
    </g>
    <g id="text_22">
     <!-- c6a.metal -->
     <g transform="translate(157.8185 443.7355) scale(0.16 -0.16)">
      <use xlink:href="#DejaVuSans-63"/>
      <use xlink:href="#DejaVuSans-36" x="54.980469"/>
      <use xlink:href="#DejaVuSans-61" x="118.603516"/>
      <use xlink:href="#DejaVuSans-2e" x="179.882812"/>
      <use xlink:href="#DejaVuSans-6d" x="211.669922"/>
      <use xlink:href="#DejaVuSans-65" x="309.082031"/>
      <use xlink:href="#DejaVuSans-74" x="370.605469"/>
      <use xlink:href="#DejaVuSans-61" x="409.814453"/>
      <use xlink:href="#DejaVuSans-6c" x="471.09375"/>
     </g>
    </g>
    <g id="patch_59">
     <path d="M 294.066 420.2505 
L 326.066 420.2505 
L 326.066 409.0505 
L 294.066 409.0505 
z
" style="fill: #828231"/>
    </g>
    <g id="text_23">
     <!-- c7a.metal-48xl -->
     <g transform="translate(338.866 420.2505) scale(0.16 -0.16)">
      <defs>
       <path id="DejaVuSans-37" d="M 525 4666 
L 3525 4666 
L 3525 4397 
L 1831 0 
L 1172 0 
L 2766 4134 
L 525 4134 
L 525 4666 
z
" transform="scale(0.015625)"/>
       <path id="DejaVuSans-2d" d="M 313 2009 
L 1997 2009 
L 1997 1497 
L 313 1497 
L 313 2009 
z
" transform="scale(0.015625)"/>
      </defs>
      <use xlink:href="#DejaVuSans-63"/>
      <use xlink:href="#DejaVuSans-37" x="54.980469"/>
      <use xlink:href="#DejaVuSans-61" x="118.603516"/>
      <use xlink:href="#DejaVuSans-2e" x="179.882812"/>
      <use xlink:href="#DejaVuSans-6d" x="211.669922"/>
      <use xlink:href="#DejaVuSans-65" x="309.082031"/>
      <use xlink:href="#DejaVuSans-74" x="370.605469"/>
      <use xlink:href="#DejaVuSans-61" x="409.814453"/>
      <use xlink:href="#DejaVuSans-6c" x="471.09375"/>
      <use xlink:href="#DejaVuSans-2d" x="498.876953"/>
      <use xlink:href="#DejaVuSans-34" x="534.960938"/>
      <use xlink:href="#DejaVuSans-38" x="598.583984"/>
      <use xlink:href="#DejaVuSans-78" x="662.207031"/>
      <use xlink:href="#DejaVuSans-6c" x="721.386719"/>
     </g>
    </g>
    <g id="patch_60">
     <path d="M 294.066 443.7355 
L 326.066 443.7355 
L 326.066 432.5355 
L 294.066 432.5355 
z
" style="fill: #226061"/>
    </g>
    <g id="text_24">
     <!-- m5a.24xlarge -->
     <g transform="translate(338.866 443.7355) scale(0.16 -0.16)">
      <use xlink:href="#DejaVuSans-6d"/>
      <use xlink:href="#DejaVuSans-35" x="97.412109"/>
      <use xlink:href="#DejaVuSans-61" x="161.035156"/>
      <use xlink:href="#DejaVuSans-2e" x="222.314453"/>
      <use xlink:href="#DejaVuSans-32" x="254.101562"/>
      <use xlink:href="#DejaVuSans-34" x="317.724609"/>
      <use xlink:href="#DejaVuSans-78" x="381.347656"/>
      <use xlink:href="#DejaVuSans-6c" x="440.527344"/>
      <use xlink:href="#DejaVuSans-61" x="468.310547"/>
      <use xlink:href="#DejaVuSans-72" x="529.589844"/>
      <use xlink:href="#DejaVuSans-67" x="568.953125"/>
      <use xlink:href="#DejaVuSans-65" x="632.429688"/>
     </g>
    </g>
   </g>
  </g>
 </g>
 <defs>
  <clipPath id="p6c541bbd20">
   <rect x="62.676" y="27.789" width="446.4" height="332.64"/>
  </clipPath>
 </defs>
</svg>
