<?xml version="1.0" encoding="utf-8" standalone="no"?>
<!DOCTYPE svg PUBLIC "-//W3C//DTD SVG 1.1//EN"
  "http://www.w3.org/Graphics/SVG/1.1/DTD/svg11.dtd">
<svg xmlns:xlink="http://www.w3.org/1999/xlink" width="987.66125pt" height="507.633pt" viewBox="0 0 987.66125 507.633" xmlns="http://www.w3.org/2000/svg" version="1.1">
 <metadata>
  <rdf:RDF xmlns:dc="http://purl.org/dc/elements/1.1/" xmlns:cc="http://creativecommons.org/ns#" xmlns:rdf="http://www.w3.org/1999/02/22-rdf-syntax-ns#">
   <cc:Work>
    <dc:type rdf:resource="http://purl.org/dc/dcmitype/StillImage"/>
    <dc:date>2024-04-14T14:36:37.394058</dc:date>
    <dc:format>image/svg+xml</dc:format>
    <dc:creator>
     <cc:Agent>
      <dc:title>Matplotlib v3.8.2, https://matplotlib.org/</dc:title>
     </cc:Agent>
    </dc:creator>
   </cc:Work>
  </rdf:RDF>
 </metadata>
 <defs>
  <style type="text/css">*{stroke-linejoin: round; stroke-linecap: butt}</style>
 </defs>
 <g id="figure_1">
  <g id="patch_1">
   <path d="M 0 507.633 
L 987.66125 507.633 
L 987.66125 0 
L 0 0 
z
" style="fill: #ffffff"/>
  </g>
  <g id="axes_1">
   <g id="patch_2">
    <path d="M 84.585 360.429 
L 977.385 360.429 
L 977.385 27.789 
L 84.585 27.789 
z
" style="fill: #ffffff"/>
   </g>
   <g id="patch_3">
    <path d="M 125.166818 360.429 
L 128.904617 360.429 
L 128.904617 304.296441 
L 125.166818 304.296441 
z
" clip-path="url(#p3b74df8112)" style="fill: #011959"/>
   </g>
   <g id="patch_4">
    <path d="M 193.515144 360.429 
L 197.252943 360.429 
L 197.252943 343.905368 
L 193.515144 343.905368 
z
" clip-path="url(#p3b74df8112)" style="fill: #011959"/>
   </g>
   <g id="patch_5">
    <path d="M 261.863469 360.429 
L 265.601268 360.429 
L 265.601268 343.905368 
L 261.863469 343.905368 
z
" clip-path="url(#p3b74df8112)" style="fill: #011959"/>
   </g>
   <g id="patch_6">
    <path d="M 330.211794 360.429 
L 333.949593 360.429 
L 333.949593 344.248694 
L 330.211794 344.248694 
z
" clip-path="url(#p3b74df8112)" style="fill: #011959"/>
   </g>
   <g id="patch_7">
    <path d="M 398.56012 360.429 
L 402.297919 360.429 
L 402.297919 349.491981 
L 398.56012 349.491981 
z
" clip-path="url(#p3b74df8112)" style="fill: #011959"/>
   </g>
   <g id="patch_8">
    <path d="M 466.908445 360.429 
L 470.646244 360.429 
L 470.646244 326.843399 
L 466.908445 326.843399 
z
" clip-path="url(#p3b74df8112)" style="fill: #011959"/>
   </g>
   <g id="patch_9">
    <path d="M 535.25677 360.429 
L 538.994569 360.429 
L 538.994569 351.241575 
L 535.25677 351.241575 
z
" clip-path="url(#p3b74df8112)" style="fill: #011959"/>
   </g>
   <g id="patch_10">
    <path d="M 603.605096 360.429 
L 607.342895 360.429 
L 607.342895 356.94904 
L 603.605096 356.94904 
z
" clip-path="url(#p3b74df8112)" style="fill: #011959"/>
   </g>
   <g id="patch_11">
    <path d="M 671.953421 360.429 
L 675.69122 360.429 
L 675.69122 350.041304 
L 671.953421 350.041304 
z
" clip-path="url(#p3b74df8112)" style="fill: #011959"/>
   </g>
   <g id="patch_12">
    <path d="M 740.301746 360.429 
L 744.039545 360.429 
L 744.039545 333.536898 
L 740.301746 333.536898 
z
" clip-path="url(#p3b74df8112)" style="fill: #011959"/>
   </g>
   <g id="patch_13">
    <path d="M 808.650072 360.429 
L 812.387871 360.429 
L 812.387871 212.765516 
L 808.650072 212.765516 
z
" clip-path="url(#p3b74df8112)" style="fill: #011959"/>
   </g>
   <g id="patch_14">
    <path d="M 876.998397 360.429 
L 880.736196 360.429 
L 880.736196 353.430626 
L 876.998397 353.430626 
z
" clip-path="url(#p3b74df8112)" style="fill: #011959"/>
   </g>
   <g id="patch_15">
    <path d="M 128.904617 360.429 
L 132.642416 360.429 
L 132.642416 275.053237 
L 128.904617 275.053237 
z
" clip-path="url(#p3b74df8112)" style="fill: #faccfa"/>
   </g>
   <g id="patch_16">
    <path d="M 197.252943 360.429 
L 200.990742 360.429 
L 200.990742 335.401849 
L 197.252943 335.401849 
z
" clip-path="url(#p3b74df8112)" style="fill: #faccfa"/>
   </g>
   <g id="patch_17">
    <path d="M 265.601268 360.429 
L 269.339067 360.429 
L 269.339067 335.401849 
L 265.601268 335.401849 
z
" clip-path="url(#p3b74df8112)" style="fill: #faccfa"/>
   </g>
   <g id="patch_18">
    <path d="M 333.949593 360.429 
L 337.687392 360.429 
L 337.687392 321.36665 
L 333.949593 321.36665 
z
" clip-path="url(#p3b74df8112)" style="fill: #faccfa"/>
   </g>
   <g id="patch_19">
    <path d="M 402.297919 360.429 
L 406.035718 360.429 
L 406.035718 336.126956 
L 402.297919 336.126956 
z
" clip-path="url(#p3b74df8112)" style="fill: #faccfa"/>
   </g>
   <g id="patch_20">
    <path d="M 470.646244 360.429 
L 474.384043 360.429 
L 474.384043 268.884342 
L 470.646244 268.884342 
z
" clip-path="url(#p3b74df8112)" style="fill: #faccfa"/>
   </g>
   <g id="patch_21">
    <path d="M 538.994569 360.429 
L 542.732368 360.429 
L 542.732368 344.65794 
L 538.994569 344.65794 
z
" clip-path="url(#p3b74df8112)" style="fill: #faccfa"/>
   </g>
   <g id="patch_22">
    <path d="M 607.342895 360.429 
L 611.080694 360.429 
L 611.080694 356.992985 
L 607.342895 356.992985 
z
" clip-path="url(#p3b74df8112)" style="fill: #faccfa"/>
   </g>
   <g id="patch_23">
    <path d="M 675.69122 360.429 
L 679.429019 360.429 
L 679.429019 346.132872 
L 675.69122 346.132872 
z
" clip-path="url(#p3b74df8112)" style="fill: #faccfa"/>
   </g>
   <g id="patch_24">
    <path d="M 744.039545 360.429 
L 747.777344 360.429 
L 747.777344 320.987617 
L 744.039545 320.987617 
z
" clip-path="url(#p3b74df8112)" style="fill: #faccfa"/>
   </g>
   <g id="patch_25">
    <path d="M 812.387871 360.429 
L 816.12567 360.429 
L 816.12567 129.16132 
L 812.387871 129.16132 
z
" clip-path="url(#p3b74df8112)" style="fill: #faccfa"/>
   </g>
   <g id="patch_26">
    <path d="M 880.736196 360.429 
L 884.473995 360.429 
L 884.473995 353.002155 
L 880.736196 353.002155 
z
" clip-path="url(#p3b74df8112)" style="fill: #faccfa"/>
   </g>
   <g id="patch_27">
    <path d="M 132.642416 360.429 
L 136.380215 360.429 
L 136.380215 263.113705 
L 132.642416 263.113705 
z
" clip-path="url(#p3b74df8112)" style="fill: #828231"/>
   </g>
   <g id="patch_28">
    <path d="M 200.990742 360.429 
L 204.728541 360.429 
L 204.728541 328.051909 
L 200.990742 328.051909 
z
" clip-path="url(#p3b74df8112)" style="fill: #828231"/>
   </g>
   <g id="patch_29">
    <path d="M 269.339067 360.429 
L 273.076866 360.429 
L 273.076866 328.051909 
L 269.339067 328.051909 
z
" clip-path="url(#p3b74df8112)" style="fill: #828231"/>
   </g>
   <g id="patch_30">
    <path d="M 337.687392 360.429 
L 341.425191 360.429 
L 341.425191 314.615472 
L 337.687392 314.615472 
z
" clip-path="url(#p3b74df8112)" style="fill: #828231"/>
   </g>
   <g id="patch_31">
    <path d="M 406.035718 360.429 
L 409.773517 360.429 
L 409.773517 332.317401 
L 406.035718 332.317401 
z
" clip-path="url(#p3b74df8112)" style="fill: #828231"/>
   </g>
   <g id="patch_32">
    <path d="M 474.384043 360.429 
L 478.121842 360.429 
L 478.121842 253.393436 
L 474.384043 253.393436 
z
" clip-path="url(#p3b74df8112)" style="fill: #828231"/>
   </g>
   <g id="patch_33">
    <path d="M 542.732368 360.429 
L 546.470167 360.429 
L 546.470167 341.864633 
L 542.732368 341.864633 
z
" clip-path="url(#p3b74df8112)" style="fill: #828231"/>
   </g>
   <g id="patch_34">
    <path d="M 611.080694 360.429 
L 614.818493 360.429 
L 614.818493 350.236314 
L 611.080694 350.236314 
z
" clip-path="url(#p3b74df8112)" style="fill: #828231"/>
   </g>
   <g id="patch_35">
    <path d="M 679.429019 360.429 
L 683.166818 360.429 
L 683.166818 344.712872 
L 679.429019 344.712872 
z
" clip-path="url(#p3b74df8112)" style="fill: #828231"/>
   </g>
   <g id="patch_36">
    <path d="M 747.777344 360.429 
L 751.515144 360.429 
L 751.515144 319.872492 
L 747.777344 319.872492 
z
" clip-path="url(#p3b74df8112)" style="fill: #828231"/>
   </g>
   <g id="patch_37">
    <path d="M 816.12567 360.429 
L 819.863469 360.429 
L 819.863469 118.194088 
L 816.12567 118.194088 
z
" clip-path="url(#p3b74df8112)" style="fill: #828231"/>
   </g>
   <g id="patch_38">
    <path d="M 884.473995 360.429 
L 888.211794 360.429 
L 888.211794 351.518983 
L 884.473995 351.518983 
z
" clip-path="url(#p3b74df8112)" style="fill: #828231"/>
   </g>
   <g id="patch_39">
    <path d="M 136.380215 360.429 
L 140.118014 360.429 
L 140.118014 241.690112 
L 136.380215 241.690112 
z
" clip-path="url(#p3b74df8112)" style="fill: #226061"/>
   </g>
   <g id="patch_40">
    <path d="M 204.728541 360.429 
L 208.46634 360.429 
L 208.46634 318.878217 
L 204.728541 318.878217 
z
" clip-path="url(#p3b74df8112)" style="fill: #226061"/>
   </g>
   <g id="patch_41">
    <path d="M 273.076866 360.429 
L 276.814665 360.429 
L 276.814665 318.878217 
L 273.076866 318.878217 
z
" clip-path="url(#p3b74df8112)" style="fill: #226061"/>
   </g>
   <g id="patch_42">
    <path d="M 341.425191 360.429 
L 345.16299 360.429 
L 345.16299 260.600552 
L 341.425191 260.600552 
z
" clip-path="url(#p3b74df8112)" style="fill: #226061"/>
   </g>
   <g id="patch_43">
    <path d="M 409.773517 360.429 
L 413.511316 360.429 
L 413.511316 295.210641 
L 409.773517 295.210641 
z
" clip-path="url(#p3b74df8112)" style="fill: #226061"/>
   </g>
   <g id="patch_44">
    <path d="M 478.121842 360.429 
L 481.859641 360.429 
L 481.859641 164.252065 
L 478.121842 164.252065 
z
" clip-path="url(#p3b74df8112)" style="fill: #226061"/>
   </g>
   <g id="patch_45">
    <path d="M 546.470167 360.429 
L 550.207967 360.429 
L 550.207967 306.798607 
L 546.470167 306.798607 
z
" clip-path="url(#p3b74df8112)" style="fill: #226061"/>
   </g>
   <g id="patch_46">
    <path d="M 614.818493 360.429 
L 618.556292 360.429 
L 618.556292 351.175656 
L 614.818493 351.175656 
z
" clip-path="url(#p3b74df8112)" style="fill: #226061"/>
   </g>
   <g id="patch_47">
    <path d="M 683.166818 360.429 
L 686.904617 360.429 
L 686.904617 346.635502 
L 683.166818 346.635502 
z
" clip-path="url(#p3b74df8112)" style="fill: #226061"/>
   </g>
   <g id="patch_48">
    <path d="M 751.515144 360.429 
L 755.252943 360.429 
L 755.252943 314.159534 
L 751.515144 314.159534 
z
" clip-path="url(#p3b74df8112)" style="fill: #226061"/>
   </g>
   <g id="patch_49">
    <path d="M 819.863469 360.429 
L 823.601268 360.429 
L 823.601268 82.213439 
L 819.863469 82.213439 
z
" clip-path="url(#p3b74df8112)" style="fill: #226061"/>
   </g>
   <g id="patch_50">
    <path d="M 888.211794 360.429 
L 891.949593 360.429 
L 891.949593 305.77412 
L 888.211794 305.77412 
z
" clip-path="url(#p3b74df8112)" style="fill: #226061"/>
   </g>
   <g id="patch_51">
    <path d="M 140.118014 360.429 
L 143.855813 360.429 
L 143.855813 264.140938 
L 140.118014 264.140938 
z
" clip-path="url(#p3b74df8112)" style="fill: #f19d6b"/>
   </g>
   <g id="patch_52">
    <path d="M 208.46634 360.429 
L 212.204139 360.429 
L 212.204139 325.19543 
L 208.46634 325.19543 
z
" clip-path="url(#p3b74df8112)" style="fill: #f19d6b"/>
   </g>
   <g id="patch_53">
    <path d="M 276.814665 360.429 
L 280.552464 360.429 
L 280.552464 325.19543 
L 276.814665 325.19543 
z
" clip-path="url(#p3b74df8112)" style="fill: #f19d6b"/>
   </g>
   <g id="patch_54">
    <path d="M 345.16299 360.429 
L 348.900789 360.429 
L 348.900789 297.179963 
L 345.16299 297.179963 
z
" clip-path="url(#p3b74df8112)" style="fill: #f19d6b"/>
   </g>
   <g id="patch_55">
    <path d="M 413.511316 360.429 
L 417.249115 360.429 
L 417.249115 320.059261 
L 413.511316 320.059261 
z
" clip-path="url(#p3b74df8112)" style="fill: #f19d6b"/>
   </g>
   <g id="patch_56">
    <path d="M 481.859641 360.429 
L 485.59744 360.429 
L 485.59744 221.178396 
L 481.859641 221.178396 
z
" clip-path="url(#p3b74df8112)" style="fill: #f19d6b"/>
   </g>
   <g id="patch_57">
    <path d="M 550.207967 360.429 
L 553.945766 360.429 
L 553.945766 327.123554 
L 550.207967 327.123554 
z
" clip-path="url(#p3b74df8112)" style="fill: #f19d6b"/>
   </g>
   <g id="patch_58">
    <path d="M 618.556292 360.429 
L 622.294091 360.429 
L 622.294091 359.772559 
L 618.556292 359.772559 
z
" clip-path="url(#p3b74df8112)" style="fill: #f19d6b"/>
   </g>
   <g id="patch_59">
    <path d="M 686.904617 360.429 
L 690.642416 360.429 
L 690.642416 353.136739 
L 686.904617 353.136739 
z
" clip-path="url(#p3b74df8112)" style="fill: #f19d6b"/>
   </g>
   <g id="patch_60">
    <path d="M 755.252943 360.429 
L 758.990742 360.429 
L 758.990742 320.556399 
L 755.252943 320.556399 
z
" clip-path="url(#p3b74df8112)" style="fill: #f19d6b"/>
   </g>
   <g id="patch_61">
    <path d="M 823.601268 360.429 
L 827.339067 360.429 
L 827.339067 138.337758 
L 823.601268 138.337758 
z
" clip-path="url(#p3b74df8112)" style="fill: #f19d6b"/>
   </g>
   <g id="patch_62">
    <path d="M 891.949593 360.429 
L 895.687392 360.429 
L 895.687392 330.084404 
L 891.949593 330.084404 
z
" clip-path="url(#p3b74df8112)" style="fill: #f19d6b"/>
   </g>
   <g id="patch_63">
    <path d="M 143.855813 360.429 
L 147.593612 360.429 
L 147.593612 228.270154 
L 143.855813 228.270154 
z
" clip-path="url(#p3b74df8112)" style="fill: #4d734d"/>
   </g>
   <g id="patch_64">
    <path d="M 212.204139 360.429 
L 215.941938 360.429 
L 215.941938 315.205994 
L 212.204139 315.205994 
z
" clip-path="url(#p3b74df8112)" style="fill: #4d734d"/>
   </g>
   <g id="patch_65">
    <path d="M 280.552464 360.429 
L 284.290263 360.429 
L 284.290263 315.205994 
L 280.552464 315.205994 
z
" clip-path="url(#p3b74df8112)" style="fill: #4d734d"/>
   </g>
   <g id="patch_66">
    <path d="M 348.900789 360.429 
L 352.638589 360.429 
L 352.638589 272.559312 
L 348.900789 272.559312 
z
" clip-path="url(#p3b74df8112)" style="fill: #4d734d"/>
   </g>
   <g id="patch_67">
    <path d="M 417.249115 360.429 
L 420.986914 360.429 
L 420.986914 305.820812 
L 417.249115 305.820812 
z
" clip-path="url(#p3b74df8112)" style="fill: #4d734d"/>
   </g>
   <g id="patch_68">
    <path d="M 485.59744 360.429 
L 489.335239 360.429 
L 489.335239 150.85408 
L 485.59744 150.85408 
z
" clip-path="url(#p3b74df8112)" style="fill: #4d734d"/>
   </g>
   <g id="patch_69">
    <path d="M 553.945766 360.429 
L 557.683565 360.429 
L 557.683565 314.563286 
L 553.945766 314.563286 
z
" clip-path="url(#p3b74df8112)" style="fill: #4d734d"/>
   </g>
   <g id="patch_70">
    <path d="M 622.294091 360.429 
L 626.03189 360.429 
L 626.03189 352.540723 
L 622.294091 352.540723 
z
" clip-path="url(#p3b74df8112)" style="fill: #4d734d"/>
   </g>
   <g id="patch_71">
    <path d="M 690.642416 360.429 
L 694.380215 360.429 
L 694.380215 343.155542 
L 690.642416 343.155542 
z
" clip-path="url(#p3b74df8112)" style="fill: #4d734d"/>
   </g>
   <g id="patch_72">
    <path d="M 758.990742 360.429 
L 762.728541 360.429 
L 762.728541 310.053345 
L 758.990742 310.053345 
z
" clip-path="url(#p3b74df8112)" style="fill: #4d734d"/>
   </g>
   <g id="patch_73">
    <path d="M 827.339067 360.429 
L 831.076866 360.429 
L 831.076866 108.438114 
L 827.339067 108.438114 
z
" clip-path="url(#p3b74df8112)" style="fill: #4d734d"/>
   </g>
   <g id="patch_74">
    <path d="M 895.687392 360.429 
L 899.425191 360.429 
L 899.425191 321.35841 
L 895.687392 321.35841 
z
" clip-path="url(#p3b74df8112)" style="fill: #4d734d"/>
   </g>
   <g id="patch_75">
    <path d="M 147.593612 360.429 
L 151.331411 360.429 
L 151.331411 270.801478 
L 147.593612 270.801478 
z
" clip-path="url(#p3b74df8112)" style="fill: #114360"/>
   </g>
   <g id="patch_76">
    <path d="M 215.941938 360.429 
L 219.679737 360.429 
L 219.679737 324.451098 
L 215.941938 324.451098 
z
" clip-path="url(#p3b74df8112)" style="fill: #114360"/>
   </g>
   <g id="patch_77">
    <path d="M 284.290263 360.429 
L 288.028062 360.429 
L 288.028062 324.451098 
L 284.290263 324.451098 
z
" clip-path="url(#p3b74df8112)" style="fill: #114360"/>
   </g>
   <g id="patch_78">
    <path d="M 352.638589 360.429 
L 356.376388 360.429 
L 356.376388 297.553503 
L 352.638589 297.553503 
z
" clip-path="url(#p3b74df8112)" style="fill: #114360"/>
   </g>
   <g id="patch_79">
    <path d="M 420.986914 360.429 
L 424.724713 360.429 
L 424.724713 317.867463 
L 420.986914 317.867463 
z
" clip-path="url(#p3b74df8112)" style="fill: #114360"/>
   </g>
   <g id="patch_80">
    <path d="M 489.335239 360.429 
L 493.073038 360.429 
L 493.073038 241.478623 
L 489.335239 241.478623 
z
" clip-path="url(#p3b74df8112)" style="fill: #114360"/>
   </g>
   <g id="patch_81">
    <path d="M 557.683565 360.429 
L 561.421364 360.429 
L 561.421364 324.528003 
L 557.683565 324.528003 
z
" clip-path="url(#p3b74df8112)" style="fill: #114360"/>
   </g>
   <g id="patch_82">
    <path d="M 626.03189 360.429 
L 629.769689 360.429 
L 629.769689 352.796159 
L 626.03189 352.796159 
z
" clip-path="url(#p3b74df8112)" style="fill: #114360"/>
   </g>
   <g id="patch_83">
    <path d="M 694.380215 360.429 
L 698.118014 360.429 
L 698.118014 346.341615 
L 694.380215 346.341615 
z
" clip-path="url(#p3b74df8112)" style="fill: #114360"/>
   </g>
   <g id="patch_84">
    <path d="M 762.728541 360.429 
L 766.46634 360.429 
L 766.46634 316.625993 
L 762.728541 316.625993 
z
" clip-path="url(#p3b74df8112)" style="fill: #114360"/>
   </g>
   <g id="patch_85">
    <path d="M 831.076866 360.429 
L 834.814665 360.429 
L 834.814665 104.598347 
L 831.076866 104.598347 
z
" clip-path="url(#p3b74df8112)" style="fill: #114360"/>
   </g>
   <g id="patch_86">
    <path d="M 899.425191 360.429 
L 903.16299 360.429 
L 903.16299 332.7651 
L 899.425191 332.7651 
z
" clip-path="url(#p3b74df8112)" style="fill: #114360"/>
   </g>
   <g id="patch_87">
    <path d="M 151.331411 360.429 
L 155.069211 360.429 
L 155.069211 238.979204 
L 151.331411 238.979204 
z
" clip-path="url(#p3b74df8112)" style="fill: #fdb4b4"/>
   </g>
   <g id="patch_88">
    <path d="M 219.679737 360.429 
L 223.417536 360.429 
L 223.417536 322.168661 
L 219.679737 322.168661 
z
" clip-path="url(#p3b74df8112)" style="fill: #fdb4b4"/>
   </g>
   <g id="patch_89">
    <path d="M 288.028062 360.429 
L 291.765861 360.429 
L 291.765861 322.168661 
L 288.028062 322.168661 
z
" clip-path="url(#p3b74df8112)" style="fill: #fdb4b4"/>
   </g>
   <g id="patch_90">
    <path d="M 356.376388 360.429 
L 360.114187 360.429 
L 360.114187 249.858543 
L 356.376388 249.858543 
z
" clip-path="url(#p3b74df8112)" style="fill: #fdb4b4"/>
   </g>
   <g id="patch_91">
    <path d="M 424.724713 360.429 
L 428.462512 360.429 
L 428.462512 288.168321 
L 424.724713 288.168321 
z
" clip-path="url(#p3b74df8112)" style="fill: #fdb4b4"/>
   </g>
   <g id="patch_92">
    <path d="M 493.073038 360.429 
L 496.810837 360.429 
L 496.810837 138.071337 
L 493.073038 138.071337 
z
" clip-path="url(#p3b74df8112)" style="fill: #fdb4b4"/>
   </g>
   <g id="patch_93">
    <path d="M 561.421364 360.429 
L 565.159163 360.429 
L 565.159163 299.127313 
L 561.421364 299.127313 
z
" clip-path="url(#p3b74df8112)" style="fill: #fdb4b4"/>
   </g>
   <g id="patch_94">
    <path d="M 629.769689 360.429 
L 633.507488 360.429 
L 633.507488 352.867571 
L 629.769689 352.867571 
z
" clip-path="url(#p3b74df8112)" style="fill: #fdb4b4"/>
   </g>
   <g id="patch_95">
    <path d="M 698.118014 360.429 
L 701.855813 360.429 
L 701.855813 341.513067 
L 698.118014 341.513067 
z
" clip-path="url(#p3b74df8112)" style="fill: #fdb4b4"/>
   </g>
   <g id="patch_96">
    <path d="M 766.46634 360.429 
L 770.204139 360.429 
L 770.204139 303.840503 
L 766.46634 303.840503 
z
" clip-path="url(#p3b74df8112)" style="fill: #fdb4b4"/>
   </g>
   <g id="patch_97">
    <path d="M 834.814665 360.429 
L 838.552464 360.429 
L 838.552464 43.629 
L 834.814665 43.629 
z
" clip-path="url(#p3b74df8112)" style="fill: #fdb4b4"/>
   </g>
   <g id="patch_98">
    <path d="M 903.16299 360.429 
L 906.900789 360.429 
L 906.900789 302.730871 
L 903.16299 302.730871 
z
" clip-path="url(#p3b74df8112)" style="fill: #fdb4b4"/>
   </g>
   <g id="patch_99">
    <path d="M 155.069211 360.429 
L 158.80701 360.429 
L 158.80701 224.916538 
L 155.069211 224.916538 
z
" clip-path="url(#p3b74df8112)" style="fill: #c09036"/>
   </g>
   <g id="patch_100">
    <path d="M 223.417536 360.429 
L 227.155335 360.429 
L 227.155335 314.563286 
L 223.417536 314.563286 
z
" clip-path="url(#p3b74df8112)" style="fill: #c09036"/>
   </g>
   <g id="patch_101">
    <path d="M 291.765861 360.429 
L 295.50366 360.429 
L 295.50366 314.563286 
L 291.765861 314.563286 
z
" clip-path="url(#p3b74df8112)" style="fill: #c09036"/>
   </g>
   <g id="patch_102">
    <path d="M 360.114187 360.429 
L 363.851986 360.429 
L 363.851986 291.071493 
L 360.114187 291.071493 
z
" clip-path="url(#p3b74df8112)" style="fill: #c09036"/>
   </g>
   <g id="patch_103">
    <path d="M 428.462512 360.429 
L 432.200311 360.429 
L 432.200311 313.071874 
L 428.462512 313.071874 
z
" clip-path="url(#p3b74df8112)" style="fill: #c09036"/>
   </g>
   <g id="patch_104">
    <path d="M 496.810837 360.429 
L 500.548636 360.429 
L 500.548636 196.854378 
L 496.810837 196.854378 
z
" clip-path="url(#p3b74df8112)" style="fill: #c09036"/>
   </g>
   <g id="patch_105">
    <path d="M 565.159163 360.429 
L 568.896962 360.429 
L 568.896962 321.35017 
L 565.159163 321.35017 
z
" clip-path="url(#p3b74df8112)" style="fill: #c09036"/>
   </g>
   <g id="patch_106">
    <path d="M 633.507488 360.429 
L 637.245287 360.429 
L 637.245287 351.370666 
L 633.507488 351.370666 
z
" clip-path="url(#p3b74df8112)" style="fill: #c09036"/>
   </g>
   <g id="patch_107">
    <path d="M 701.855813 360.429 
L 705.593612 360.429 
L 705.593612 342.592486 
L 701.855813 342.592486 
z
" clip-path="url(#p3b74df8112)" style="fill: #c09036"/>
   </g>
   <g id="patch_108">
    <path d="M 770.204139 360.429 
L 773.941938 360.429 
L 773.941938 305.719187 
L 770.204139 305.719187 
z
" clip-path="url(#p3b74df8112)" style="fill: #c09036"/>
   </g>
   <g id="patch_109">
    <path d="M 838.552464 360.429 
L 842.290263 360.429 
L 842.290263 86.822258 
L 838.552464 86.822258 
z
" clip-path="url(#p3b74df8112)" style="fill: #c09036"/>
   </g>
   <g id="patch_110">
    <path d="M 906.900789 360.429 
L 910.638589 360.429 
L 910.638589 338.664827 
L 906.900789 338.664827 
z
" clip-path="url(#p3b74df8112)" style="fill: #c09036"/>
   </g>
   <g id="patch_111">
    <path d="M 158.80701 360.429 
L 162.544809 360.429 
L 162.544809 239.715296 
L 158.80701 239.715296 
z
" clip-path="url(#p3b74df8112)" style="fill: #175262"/>
   </g>
   <g id="patch_112">
    <path d="M 227.155335 360.429 
L 230.893134 360.429 
L 230.893134 322.099996 
L 227.155335 322.099996 
z
" clip-path="url(#p3b74df8112)" style="fill: #175262"/>
   </g>
   <g id="patch_113">
    <path d="M 295.50366 360.429 
L 299.241459 360.429 
L 299.241459 322.099996 
L 295.50366 322.099996 
z
" clip-path="url(#p3b74df8112)" style="fill: #175262"/>
   </g>
   <g id="patch_114">
    <path d="M 363.851986 360.429 
L 367.589785 360.429 
L 367.589785 290.357373 
L 363.851986 290.357373 
z
" clip-path="url(#p3b74df8112)" style="fill: #175262"/>
   </g>
   <g id="patch_115">
    <path d="M 432.200311 360.429 
L 435.93811 360.429 
L 435.93811 313.953537 
L 432.200311 313.953537 
z
" clip-path="url(#p3b74df8112)" style="fill: #175262"/>
   </g>
   <g id="patch_116">
    <path d="M 500.548636 360.429 
L 504.286435 360.429 
L 504.286435 218.044509 
L 500.548636 218.044509 
z
" clip-path="url(#p3b74df8112)" style="fill: #175262"/>
   </g>
   <g id="patch_117">
    <path d="M 568.896962 360.429 
L 572.634761 360.429 
L 572.634761 323.62162 
L 568.896962 323.62162 
z
" clip-path="url(#p3b74df8112)" style="fill: #175262"/>
   </g>
   <g id="patch_118">
    <path d="M 637.245287 360.429 
L 640.983086 360.429 
L 640.983086 350.854302 
L 637.245287 350.854302 
z
" clip-path="url(#p3b74df8112)" style="fill: #175262"/>
   </g>
   <g id="patch_119">
    <path d="M 705.593612 360.429 
L 709.331411 360.429 
L 709.331411 344.644207 
L 705.593612 344.644207 
z
" clip-path="url(#p3b74df8112)" style="fill: #175262"/>
   </g>
   <g id="patch_120">
    <path d="M 773.941938 360.429 
L 777.679737 360.429 
L 777.679737 308.018104 
L 773.941938 308.018104 
z
" clip-path="url(#p3b74df8112)" style="fill: #175262"/>
   </g>
   <g id="patch_121">
    <path d="M 842.290263 360.429 
L 846.028062 360.429 
L 846.028062 54.821454 
L 842.290263 54.821454 
z
" clip-path="url(#p3b74df8112)" style="fill: #175262"/>
   </g>
   <g id="patch_122">
    <path d="M 910.638589 360.429 
L 914.376388 360.429 
L 914.376388 335.1986 
L 910.638589 335.1986 
z
" clip-path="url(#p3b74df8112)" style="fill: #175262"/>
   </g>
   <g id="patch_123">
    <path d="M 162.544809 360.429 
L 166.282608 360.429 
L 166.282608 239.366476 
L 162.544809 239.366476 
z
" clip-path="url(#p3b74df8112)" style="fill: #fcbfd6"/>
   </g>
   <g id="patch_124">
    <path d="M 230.893134 360.429 
L 234.630933 360.429 
L 234.630933 322.157675 
L 230.893134 322.157675 
z
" clip-path="url(#p3b74df8112)" style="fill: #fcbfd6"/>
   </g>
   <g id="patch_125">
    <path d="M 299.241459 360.429 
L 302.979258 360.429 
L 302.979258 322.157675 
L 299.241459 322.157675 
z
" clip-path="url(#p3b74df8112)" style="fill: #fcbfd6"/>
   </g>
   <g id="patch_126">
    <path d="M 367.589785 360.429 
L 371.327584 360.429 
L 371.327584 291.134665 
L 367.589785 291.134665 
z
" clip-path="url(#p3b74df8112)" style="fill: #fcbfd6"/>
   </g>
   <g id="patch_127">
    <path d="M 435.93811 360.429 
L 439.675909 360.429 
L 439.675909 314.991758 
L 435.93811 314.991758 
z
" clip-path="url(#p3b74df8112)" style="fill: #fcbfd6"/>
   </g>
   <g id="patch_128">
    <path d="M 504.286435 360.429 
L 508.024234 360.429 
L 508.024234 218.135147 
L 504.286435 218.135147 
z
" clip-path="url(#p3b74df8112)" style="fill: #fcbfd6"/>
   </g>
   <g id="patch_129">
    <path d="M 572.634761 360.429 
L 576.37256 360.429 
L 576.37256 323.797404 
L 572.634761 323.797404 
z
" clip-path="url(#p3b74df8112)" style="fill: #fcbfd6"/>
   </g>
   <g id="patch_130">
    <path d="M 640.983086 360.429 
L 644.720885 360.429 
L 644.720885 359.827491 
L 640.983086 359.827491 
z
" clip-path="url(#p3b74df8112)" style="fill: #fcbfd6"/>
   </g>
   <g id="patch_131">
    <path d="M 709.331411 360.429 
L 713.069211 360.429 
L 713.069211 352.466565 
L 709.331411 352.466565 
z
" clip-path="url(#p3b74df8112)" style="fill: #fcbfd6"/>
   </g>
   <g id="patch_132">
    <path d="M 777.679737 360.429 
L 781.417536 360.429 
L 781.417536 317.186303 
L 777.679737 317.186303 
z
" clip-path="url(#p3b74df8112)" style="fill: #fcbfd6"/>
   </g>
   <g id="patch_133">
    <path d="M 846.028062 360.429 
L 849.765861 360.429 
L 849.765861 117.58434 
L 846.028062 117.58434 
z
" clip-path="url(#p3b74df8112)" style="fill: #fcbfd6"/>
   </g>
   <g id="patch_134">
    <path d="M 914.376388 360.429 
L 918.114187 360.429 
L 918.114187 335.22332 
L 914.376388 335.22332 
z
" clip-path="url(#p3b74df8112)" style="fill: #fcbfd6"/>
   </g>
   <g id="patch_135">
    <path d="M 166.282608 360.429 
L 170.020407 360.429 
L 170.020407 220.870775 
L 166.282608 220.870775 
z
" clip-path="url(#p3b74df8112)" style="fill: #fca890"/>
   </g>
   <g id="patch_136">
    <path d="M 234.630933 360.429 
L 238.368732 360.429 
L 238.368732 316.219494 
L 234.630933 316.219494 
z
" clip-path="url(#p3b74df8112)" style="fill: #fca890"/>
   </g>
   <g id="patch_137">
    <path d="M 302.979258 360.429 
L 306.717057 360.429 
L 306.717057 316.219494 
L 302.979258 316.219494 
z
" clip-path="url(#p3b74df8112)" style="fill: #fca890"/>
   </g>
   <g id="patch_138">
    <path d="M 371.327584 360.429 
L 375.065383 360.429 
L 375.065383 233.312938 
L 371.327584 233.312938 
z
" clip-path="url(#p3b74df8112)" style="fill: #fca890"/>
   </g>
   <g id="patch_139">
    <path d="M 439.675909 360.429 
L 443.413708 360.429 
L 443.413708 273.726623 
L 439.675909 273.726623 
z
" clip-path="url(#p3b74df8112)" style="fill: #fca890"/>
   </g>
   <g id="patch_140">
    <path d="M 508.024234 360.429 
L 511.762033 360.429 
L 511.762033 127.480392 
L 508.024234 127.480392 
z
" clip-path="url(#p3b74df8112)" style="fill: #fca890"/>
   </g>
   <g id="patch_141">
    <path d="M 576.37256 360.429 
L 580.110359 360.429 
L 580.110359 288.909907 
L 576.37256 288.909907 
z
" clip-path="url(#p3b74df8112)" style="fill: #fca890"/>
   </g>
   <g id="patch_142">
    <path d="M 644.720885 360.429 
L 648.458684 360.429 
L 648.458684 352.150704 
L 644.720885 352.150704 
z
" clip-path="url(#p3b74df8112)" style="fill: #fca890"/>
   </g>
   <g id="patch_143">
    <path d="M 713.069211 360.429 
L 716.80701 360.429 
L 716.80701 347.676469 
L 713.069211 347.676469 
z
" clip-path="url(#p3b74df8112)" style="fill: #fca890"/>
   </g>
   <g id="patch_144">
    <path d="M 781.417536 360.429 
L 785.155335 360.429 
L 785.155335 305.41706 
L 781.417536 305.41706 
z
" clip-path="url(#p3b74df8112)" style="fill: #fca890"/>
   </g>
   <g id="patch_145">
    <path d="M 849.765861 360.429 
L 853.50366 360.429 
L 853.50366 78.942222 
L 849.765861 78.942222 
z
" clip-path="url(#p3b74df8112)" style="fill: #fca890"/>
   </g>
   <g id="patch_146">
    <path d="M 918.114187 360.429 
L 921.851986 360.429 
L 921.851986 300.14356 
L 918.114187 300.14356 
z
" clip-path="url(#p3b74df8112)" style="fill: #fca890"/>
   </g>
   <g id="patch_147">
    <path d="M 170.020407 360.429 
L 173.758206 360.429 
L 173.758206 281.156215 
L 170.020407 281.156215 
z
" clip-path="url(#p3b74df8112)" style="fill: #356a59"/>
   </g>
   <g id="patch_148">
    <path d="M 238.368732 360.429 
L 242.106531 360.429 
L 242.106531 334.12742 
L 238.368732 334.12742 
z
" clip-path="url(#p3b74df8112)" style="fill: #356a59"/>
   </g>
   <g id="patch_149">
    <path d="M 306.717057 360.429 
L 310.454856 360.429 
L 310.454856 334.12742 
L 306.717057 334.12742 
z
" clip-path="url(#p3b74df8112)" style="fill: #356a59"/>
   </g>
   <g id="patch_150">
    <path d="M 375.065383 360.429 
L 378.803182 360.429 
L 378.803182 323.379918 
L 375.065383 323.379918 
z
" clip-path="url(#p3b74df8112)" style="fill: #356a59"/>
   </g>
   <g id="patch_151">
    <path d="M 443.413708 360.429 
L 447.151507 360.429 
L 447.151507 337.747458 
L 443.413708 337.747458 
z
" clip-path="url(#p3b74df8112)" style="fill: #356a59"/>
   </g>
   <g id="patch_152">
    <path d="M 511.762033 360.429 
L 515.499833 360.429 
L 515.499833 271.674902 
L 511.762033 271.674902 
z
" clip-path="url(#p3b74df8112)" style="fill: #356a59"/>
   </g>
   <g id="patch_153">
    <path d="M 580.110359 360.429 
L 583.848158 360.429 
L 583.848158 345.564323 
L 580.110359 345.564323 
z
" clip-path="url(#p3b74df8112)" style="fill: #356a59"/>
   </g>
   <g id="patch_154">
    <path d="M 648.458684 360.429 
L 652.196483 360.429 
L 652.196483 351.733219 
L 648.458684 351.733219 
z
" clip-path="url(#p3b74df8112)" style="fill: #356a59"/>
   </g>
   <g id="patch_155">
    <path d="M 716.80701 360.429 
L 720.544809 360.429 
L 720.544809 346.38556 
L 716.80701 346.38556 
z
" clip-path="url(#p3b74df8112)" style="fill: #356a59"/>
   </g>
   <g id="patch_156">
    <path d="M 785.155335 360.429 
L 788.893134 360.429 
L 788.893134 323.797404 
L 785.155335 323.797404 
z
" clip-path="url(#p3b74df8112)" style="fill: #356a59"/>
   </g>
   <g id="patch_157">
    <path d="M 853.50366 360.429 
L 857.241459 360.429 
L 857.241459 141.499111 
L 853.50366 141.499111 
z
" clip-path="url(#p3b74df8112)" style="fill: #356a59"/>
   </g>
   <g id="patch_158">
    <path d="M 921.851986 360.429 
L 925.589785 360.429 
L 925.589785 353.329002 
L 921.851986 353.329002 
z
" clip-path="url(#p3b74df8112)" style="fill: #356a59"/>
   </g>
   <g id="patch_159">
    <path d="M 173.758206 360.429 
L 177.496005 360.429 
L 177.496005 272.358809 
L 173.758206 272.358809 
z
" clip-path="url(#p3b74df8112)" style="fill: #0d315d"/>
   </g>
   <g id="patch_160">
    <path d="M 242.106531 360.429 
L 245.84433 360.429 
L 245.84433 327.368002 
L 242.106531 327.368002 
z
" clip-path="url(#p3b74df8112)" style="fill: #0d315d"/>
   </g>
   <g id="patch_161">
    <path d="M 310.454856 360.429 
L 314.192656 360.429 
L 314.192656 327.368002 
L 310.454856 327.368002 
z
" clip-path="url(#p3b74df8112)" style="fill: #0d315d"/>
   </g>
   <g id="patch_162">
    <path d="M 378.803182 360.429 
L 382.540981 360.429 
L 382.540981 320.410828 
L 378.803182 320.410828 
z
" clip-path="url(#p3b74df8112)" style="fill: #0d315d"/>
   </g>
   <g id="patch_163">
    <path d="M 447.151507 360.429 
L 450.889306 360.429 
L 450.889306 335.714963 
L 447.151507 335.714963 
z
" clip-path="url(#p3b74df8112)" style="fill: #0d315d"/>
   </g>
   <g id="patch_164">
    <path d="M 515.499833 360.429 
L 519.237632 360.429 
L 519.237632 265.950957 
L 515.499833 265.950957 
z
" clip-path="url(#p3b74df8112)" style="fill: #0d315d"/>
   </g>
   <g id="patch_165">
    <path d="M 583.848158 360.429 
L 587.585957 360.429 
L 587.585957 343.97678 
L 583.848158 343.97678 
z
" clip-path="url(#p3b74df8112)" style="fill: #0d315d"/>
   </g>
   <g id="patch_166">
    <path d="M 652.196483 360.429 
L 655.934282 360.429 
L 655.934282 354.092561 
L 652.196483 354.092561 
z
" clip-path="url(#p3b74df8112)" style="fill: #0d315d"/>
   </g>
   <g id="patch_167">
    <path d="M 720.544809 360.429 
L 724.282608 360.429 
L 724.282608 348.14614 
L 720.544809 348.14614 
z
" clip-path="url(#p3b74df8112)" style="fill: #0d315d"/>
   </g>
   <g id="patch_168">
    <path d="M 788.893134 360.429 
L 792.630933 360.429 
L 792.630933 321.245799 
L 788.893134 321.245799 
z
" clip-path="url(#p3b74df8112)" style="fill: #0d315d"/>
   </g>
   <g id="patch_169">
    <path d="M 857.241459 360.429 
L 860.979258 360.429 
L 860.979258 140.562516 
L 857.241459 140.562516 
z
" clip-path="url(#p3b74df8112)" style="fill: #0d315d"/>
   </g>
   <g id="patch_170">
    <path d="M 925.589785 360.429 
L 929.327584 360.429 
L 929.327584 352.378673 
L 925.589785 352.378673 
z
" clip-path="url(#p3b74df8112)" style="fill: #0d315d"/>
   </g>
   <g id="patch_171">
    <path d="M 177.496005 360.429 
L 181.233804 360.429 
L 181.233804 254.003185 
L 177.496005 254.003185 
z
" clip-path="url(#p3b74df8112)" style="fill: #a18a2b"/>
   </g>
   <g id="patch_172">
    <path d="M 245.84433 360.429 
L 249.582129 360.429 
L 249.582129 323.154696 
L 245.84433 323.154696 
z
" clip-path="url(#p3b74df8112)" style="fill: #a18a2b"/>
   </g>
   <g id="patch_173">
    <path d="M 314.192656 360.429 
L 317.930455 360.429 
L 317.930455 323.154696 
L 314.192656 323.154696 
z
" clip-path="url(#p3b74df8112)" style="fill: #a18a2b"/>
   </g>
   <g id="patch_174">
    <path d="M 382.540981 360.429 
L 386.27878 360.429 
L 386.27878 270.048906 
L 382.540981 270.048906 
z
" clip-path="url(#p3b74df8112)" style="fill: #a18a2b"/>
   </g>
   <g id="patch_175">
    <path d="M 450.889306 360.429 
L 454.627105 360.429 
L 454.627105 301.799769 
L 450.889306 301.799769 
z
" clip-path="url(#p3b74df8112)" style="fill: #a18a2b"/>
   </g>
   <g id="patch_176">
    <path d="M 519.237632 360.429 
L 522.975431 360.429 
L 522.975431 175.510438 
L 519.237632 175.510438 
z
" clip-path="url(#p3b74df8112)" style="fill: #a18a2b"/>
   </g>
   <g id="patch_177">
    <path d="M 587.585957 360.429 
L 591.323756 360.429 
L 591.323756 312.234157 
L 587.585957 312.234157 
z
" clip-path="url(#p3b74df8112)" style="fill: #a18a2b"/>
   </g>
   <g id="patch_178">
    <path d="M 655.934282 360.429 
L 659.672081 360.429 
L 659.672081 351.911749 
L 655.934282 351.911749 
z
" clip-path="url(#p3b74df8112)" style="fill: #a18a2b"/>
   </g>
   <g id="patch_179">
    <path d="M 724.282608 360.429 
L 728.020407 360.429 
L 728.020407 347.363355 
L 724.282608 347.363355 
z
" clip-path="url(#p3b74df8112)" style="fill: #a18a2b"/>
   </g>
   <g id="patch_180">
    <path d="M 792.630933 360.429 
L 796.368732 360.429 
L 796.368732 316.42549 
L 792.630933 316.42549 
z
" clip-path="url(#p3b74df8112)" style="fill: #a18a2b"/>
   </g>
   <g id="patch_181">
    <path d="M 860.979258 360.429 
L 864.717057 360.429 
L 864.717057 99.154557 
L 860.979258 99.154557 
z
" clip-path="url(#p3b74df8112)" style="fill: #a18a2b"/>
   </g>
   <g id="patch_182">
    <path d="M 929.327584 360.429 
L 933.065383 360.429 
L 933.065383 311.404679 
L 929.327584 311.404679 
z
" clip-path="url(#p3b74df8112)" style="fill: #a18a2b"/>
   </g>
   <g id="patch_183">
    <path d="M 181.233804 360.429 
L 184.971603 360.429 
L 184.971603 300.008976 
L 181.233804 300.008976 
z
" clip-path="url(#p3b74df8112)" style="fill: #677b3e"/>
   </g>
   <g id="patch_184">
    <path d="M 249.582129 360.429 
L 253.319928 360.429 
L 253.319928 335.819335 
L 249.582129 335.819335 
z
" clip-path="url(#p3b74df8112)" style="fill: #677b3e"/>
   </g>
   <g id="patch_185">
    <path d="M 317.930455 360.429 
L 321.668254 360.429 
L 321.668254 335.819335 
L 317.930455 335.819335 
z
" clip-path="url(#p3b74df8112)" style="fill: #677b3e"/>
   </g>
   <g id="patch_186">
    <path d="M 386.27878 360.429 
L 390.016579 360.429 
L 390.016579 320.729435 
L 386.27878 320.729435 
z
" clip-path="url(#p3b74df8112)" style="fill: #677b3e"/>
   </g>
   <g id="patch_187">
    <path d="M 454.627105 360.429 
L 458.364904 360.429 
L 458.364904 335.033803 
L 454.627105 335.033803 
z
" clip-path="url(#p3b74df8112)" style="fill: #677b3e"/>
   </g>
   <g id="patch_188">
    <path d="M 522.975431 360.429 
L 526.71323 360.429 
L 526.71323 278.362908 
L 522.975431 278.362908 
z
" clip-path="url(#p3b74df8112)" style="fill: #677b3e"/>
   </g>
   <g id="patch_189">
    <path d="M 591.323756 360.429 
L 595.061555 360.429 
L 595.061555 338.868077 
L 591.323756 338.868077 
z
" clip-path="url(#p3b74df8112)" style="fill: #677b3e"/>
   </g>
   <g id="patch_190">
    <path d="M 659.672081 360.429 
L 663.40988 360.429 
L 663.40988 359.984048 
L 659.672081 359.984048 
z
" clip-path="url(#p3b74df8112)" style="fill: #677b3e"/>
   </g>
   <g id="patch_191">
    <path d="M 728.020407 360.429 
L 731.758206 360.429 
L 731.758206 356.196467 
L 728.020407 356.196467 
z
" clip-path="url(#p3b74df8112)" style="fill: #677b3e"/>
   </g>
   <g id="patch_192">
    <path d="M 796.368732 360.429 
L 800.106531 360.429 
L 800.106531 335.756163 
L 796.368732 335.756163 
z
" clip-path="url(#p3b74df8112)" style="fill: #677b3e"/>
   </g>
   <g id="patch_193">
    <path d="M 864.717057 360.429 
L 868.454856 360.429 
L 868.454856 245.587558 
L 864.717057 245.587558 
z
" clip-path="url(#p3b74df8112)" style="fill: #677b3e"/>
   </g>
   <g id="patch_194">
    <path d="M 933.065383 360.429 
L 936.803182 360.429 
L 936.803182 338.634615 
L 933.065383 338.634615 
z
" clip-path="url(#p3b74df8112)" style="fill: #677b3e"/>
   </g>
   <g id="matplotlib.axis_1">
    <g id="xtick_1">
     <g id="line2d_1">
      <defs>
       <path id="m393bf1f813" d="M 0 0 
L 0 3.5 
" style="stroke: #000000; stroke-width: 0.8"/>
      </defs>
      <g>
       <use xlink:href="#m393bf1f813" x="155.069211" y="360.429" style="stroke: #000000; stroke-width: 0.8"/>
      </g>
     </g>
     <g id="text_1">
      <!-- DH -->
      <g transform="translate(142.892961 379.5865) scale(0.16 -0.16)">
       <defs>
        <path id="DejaVuSans-44" d="M 1259 4147 
L 1259 519 
L 2022 519 
Q 2988 519 3436 956 
Q 3884 1394 3884 2338 
Q 3884 3275 3436 3711 
Q 2988 4147 2022 4147 
L 1259 4147 
z
M 628 4666 
L 1925 4666 
Q 3281 4666 3915 4102 
Q 4550 3538 4550 2338 
Q 4550 1131 3912 565 
Q 3275 0 1925 0 
L 628 0 
L 628 4666 
z
" transform="scale(0.015625)"/>
        <path id="DejaVuSans-48" d="M 628 4666 
L 1259 4666 
L 1259 2753 
L 3553 2753 
L 3553 4666 
L 4184 4666 
L 4184 0 
L 3553 0 
L 3553 2222 
L 1259 2222 
L 1259 0 
L 628 0 
L 628 4666 
z
" transform="scale(0.015625)"/>
       </defs>
       <use xlink:href="#DejaVuSans-44"/>
       <use xlink:href="#DejaVuSans-48" x="77.001953"/>
      </g>
     </g>
    </g>
    <g id="xtick_2">
     <g id="line2d_2">
      <g>
       <use xlink:href="#m393bf1f813" x="223.417536" y="360.429" style="stroke: #000000; stroke-width: 0.8"/>
      </g>
     </g>
     <g id="text_2">
      <!-- WH -->
      <g transform="translate(209.491286 379.5865) scale(0.16 -0.16)">
       <defs>
        <path id="DejaVuSans-57" d="M 213 4666 
L 850 4666 
L 1831 722 
L 2809 4666 
L 3519 4666 
L 4500 722 
L 5478 4666 
L 6119 4666 
L 4947 0 
L 4153 0 
L 3169 4050 
L 2175 0 
L 1381 0 
L 213 4666 
z
" transform="scale(0.015625)"/>
       </defs>
       <use xlink:href="#DejaVuSans-57"/>
       <use xlink:href="#DejaVuSans-48" x="98.876953"/>
      </g>
     </g>
    </g>
    <g id="xtick_3">
     <g id="line2d_3">
      <g>
       <use xlink:href="#m393bf1f813" x="291.765861" y="360.429" style="stroke: #000000; stroke-width: 0.8"/>
      </g>
     </g>
     <g id="text_3">
      <!-- ET -->
      <g transform="translate(281.824611 379.5865) scale(0.16 -0.16)">
       <defs>
        <path id="DejaVuSans-45" d="M 628 4666 
L 3578 4666 
L 3578 4134 
L 1259 4134 
L 1259 2753 
L 3481 2753 
L 3481 2222 
L 1259 2222 
L 1259 531 
L 3634 531 
L 3634 0 
L 628 0 
L 628 4666 
z
" transform="scale(0.015625)"/>
        <path id="DejaVuSans-54" d="M -19 4666 
L 3928 4666 
L 3928 4134 
L 2272 4134 
L 2272 0 
L 1638 0 
L 1638 4134 
L -19 4134 
L -19 4666 
z
" transform="scale(0.015625)"/>
       </defs>
       <use xlink:href="#DejaVuSans-45"/>
       <use xlink:href="#DejaVuSans-54" x="63.183594"/>
      </g>
     </g>
    </g>
    <g id="xtick_4">
     <g id="line2d_4">
      <g>
       <use xlink:href="#m393bf1f813" x="360.114187" y="360.429" style="stroke: #000000; stroke-width: 0.8"/>
      </g>
     </g>
     <g id="text_4">
      <!-- FC1 -->
      <g transform="translate(344.836687 379.5865) scale(0.16 -0.16)">
       <defs>
        <path id="DejaVuSans-46" d="M 628 4666 
L 3309 4666 
L 3309 4134 
L 1259 4134 
L 1259 2759 
L 3109 2759 
L 3109 2228 
L 1259 2228 
L 1259 0 
L 628 0 
L 628 4666 
z
" transform="scale(0.015625)"/>
        <path id="DejaVuSans-43" d="M 4122 4306 
L 4122 3641 
Q 3803 3938 3442 4084 
Q 3081 4231 2675 4231 
Q 1875 4231 1450 3742 
Q 1025 3253 1025 2328 
Q 1025 1406 1450 917 
Q 1875 428 2675 428 
Q 3081 428 3442 575 
Q 3803 722 4122 1019 
L 4122 359 
Q 3791 134 3420 21 
Q 3050 -91 2638 -91 
Q 1578 -91 968 557 
Q 359 1206 359 2328 
Q 359 3453 968 4101 
Q 1578 4750 2638 4750 
Q 3056 4750 3426 4639 
Q 3797 4528 4122 4306 
z
" transform="scale(0.015625)"/>
        <path id="DejaVuSans-31" d="M 794 531 
L 1825 531 
L 1825 4091 
L 703 3866 
L 703 4441 
L 1819 4666 
L 2450 4666 
L 2450 531 
L 3481 531 
L 3481 0 
L 794 0 
L 794 531 
z
" transform="scale(0.015625)"/>
       </defs>
       <use xlink:href="#DejaVuSans-46"/>
       <use xlink:href="#DejaVuSans-43" x="57.519531"/>
       <use xlink:href="#DejaVuSans-31" x="127.34375"/>
      </g>
     </g>
    </g>
    <g id="xtick_5">
     <g id="line2d_5">
      <g>
       <use xlink:href="#m393bf1f813" x="428.462512" y="360.429" style="stroke: #000000; stroke-width: 0.8"/>
      </g>
     </g>
     <g id="text_5">
      <!-- FC2 -->
      <g transform="translate(413.185012 379.5865) scale(0.16 -0.16)">
       <defs>
        <path id="DejaVuSans-32" d="M 1228 531 
L 3431 531 
L 3431 0 
L 469 0 
L 469 531 
Q 828 903 1448 1529 
Q 2069 2156 2228 2338 
Q 2531 2678 2651 2914 
Q 2772 3150 2772 3378 
Q 2772 3750 2511 3984 
Q 2250 4219 1831 4219 
Q 1534 4219 1204 4116 
Q 875 4013 500 3803 
L 500 4441 
Q 881 4594 1212 4672 
Q 1544 4750 1819 4750 
Q 2544 4750 2975 4387 
Q 3406 4025 3406 3419 
Q 3406 3131 3298 2873 
Q 3191 2616 2906 2266 
Q 2828 2175 2409 1742 
Q 1991 1309 1228 531 
z
" transform="scale(0.015625)"/>
       </defs>
       <use xlink:href="#DejaVuSans-46"/>
       <use xlink:href="#DejaVuSans-43" x="57.519531"/>
       <use xlink:href="#DejaVuSans-32" x="127.34375"/>
      </g>
     </g>
    </g>
    <g id="xtick_6">
     <g id="line2d_6">
      <g>
       <use xlink:href="#m393bf1f813" x="496.810837" y="360.429" style="stroke: #000000; stroke-width: 0.8"/>
      </g>
     </g>
     <g id="text_6">
      <!-- FC3 -->
      <g transform="translate(481.533337 379.5865) scale(0.16 -0.16)">
       <defs>
        <path id="DejaVuSans-33" d="M 2597 2516 
Q 3050 2419 3304 2112 
Q 3559 1806 3559 1356 
Q 3559 666 3084 287 
Q 2609 -91 1734 -91 
Q 1441 -91 1130 -33 
Q 819 25 488 141 
L 488 750 
Q 750 597 1062 519 
Q 1375 441 1716 441 
Q 2309 441 2620 675 
Q 2931 909 2931 1356 
Q 2931 1769 2642 2001 
Q 2353 2234 1838 2234 
L 1294 2234 
L 1294 2753 
L 1863 2753 
Q 2328 2753 2575 2939 
Q 2822 3125 2822 3475 
Q 2822 3834 2567 4026 
Q 2313 4219 1838 4219 
Q 1578 4219 1281 4162 
Q 984 4106 628 3988 
L 628 4550 
Q 988 4650 1302 4700 
Q 1616 4750 1894 4750 
Q 2613 4750 3031 4423 
Q 3450 4097 3450 3541 
Q 3450 3153 3228 2886 
Q 3006 2619 2597 2516 
z
" transform="scale(0.015625)"/>
       </defs>
       <use xlink:href="#DejaVuSans-46"/>
       <use xlink:href="#DejaVuSans-43" x="57.519531"/>
       <use xlink:href="#DejaVuSans-33" x="127.34375"/>
      </g>
     </g>
    </g>
    <g id="xtick_7">
     <g id="line2d_7">
      <g>
       <use xlink:href="#m393bf1f813" x="565.159163" y="360.429" style="stroke: #000000; stroke-width: 0.8"/>
      </g>
     </g>
     <g id="text_7">
      <!-- PT -->
      <g transform="translate(555.449163 379.5865) scale(0.16 -0.16)">
       <defs>
        <path id="DejaVuSans-50" d="M 1259 4147 
L 1259 2394 
L 2053 2394 
Q 2494 2394 2734 2622 
Q 2975 2850 2975 3272 
Q 2975 3691 2734 3919 
Q 2494 4147 2053 4147 
L 1259 4147 
z
M 628 4666 
L 2053 4666 
Q 2838 4666 3239 4311 
Q 3641 3956 3641 3272 
Q 3641 2581 3239 2228 
Q 2838 1875 2053 1875 
L 1259 1875 
L 1259 0 
L 628 0 
L 628 4666 
z
" transform="scale(0.015625)"/>
       </defs>
       <use xlink:href="#DejaVuSans-50"/>
       <use xlink:href="#DejaVuSans-54" x="60.302734"/>
      </g>
     </g>
    </g>
    <g id="xtick_8">
     <g id="line2d_8">
      <g>
       <use xlink:href="#m393bf1f813" x="633.507488" y="360.429" style="stroke: #000000; stroke-width: 0.8"/>
      </g>
     </g>
     <g id="text_8">
      <!-- CS -->
      <g transform="translate(622.842488 379.5865) scale(0.16 -0.16)">
       <defs>
        <path id="DejaVuSans-53" d="M 3425 4513 
L 3425 3897 
Q 3066 4069 2747 4153 
Q 2428 4238 2131 4238 
Q 1616 4238 1336 4038 
Q 1056 3838 1056 3469 
Q 1056 3159 1242 3001 
Q 1428 2844 1947 2747 
L 2328 2669 
Q 3034 2534 3370 2195 
Q 3706 1856 3706 1288 
Q 3706 609 3251 259 
Q 2797 -91 1919 -91 
Q 1588 -91 1214 -16 
Q 841 59 441 206 
L 441 856 
Q 825 641 1194 531 
Q 1563 422 1919 422 
Q 2459 422 2753 634 
Q 3047 847 3047 1241 
Q 3047 1584 2836 1778 
Q 2625 1972 2144 2069 
L 1759 2144 
Q 1053 2284 737 2584 
Q 422 2884 422 3419 
Q 422 4038 858 4394 
Q 1294 4750 2059 4750 
Q 2388 4750 2728 4690 
Q 3069 4631 3425 4513 
z
" transform="scale(0.015625)"/>
       </defs>
       <use xlink:href="#DejaVuSans-43"/>
       <use xlink:href="#DejaVuSans-53" x="69.824219"/>
      </g>
     </g>
    </g>
    <g id="xtick_9">
     <g id="line2d_9">
      <g>
       <use xlink:href="#m393bf1f813" x="701.855813" y="360.429" style="stroke: #000000; stroke-width: 0.8"/>
      </g>
     </g>
     <g id="text_9">
      <!-- PC -->
      <g transform="translate(691.445813 379.5865) scale(0.16 -0.16)">
       <use xlink:href="#DejaVuSans-50"/>
       <use xlink:href="#DejaVuSans-43" x="60.302734"/>
      </g>
     </g>
    </g>
    <g id="xtick_10">
     <g id="line2d_10">
      <g>
       <use xlink:href="#m393bf1f813" x="770.204139" y="360.429" style="stroke: #000000; stroke-width: 0.8"/>
      </g>
     </g>
     <g id="text_10">
      <!-- SS1 -->
      <g transform="translate(754.956639 379.5865) scale(0.16 -0.16)">
       <use xlink:href="#DejaVuSans-53"/>
       <use xlink:href="#DejaVuSans-53" x="63.476562"/>
       <use xlink:href="#DejaVuSans-31" x="126.953125"/>
      </g>
     </g>
    </g>
    <g id="xtick_11">
     <g id="line2d_11">
      <g>
       <use xlink:href="#m393bf1f813" x="838.552464" y="360.429" style="stroke: #000000; stroke-width: 0.8"/>
      </g>
     </g>
     <g id="text_11">
      <!-- SS8 -->
      <g transform="translate(823.304964 379.5865) scale(0.16 -0.16)">
       <defs>
        <path id="DejaVuSans-38" d="M 2034 2216 
Q 1584 2216 1326 1975 
Q 1069 1734 1069 1313 
Q 1069 891 1326 650 
Q 1584 409 2034 409 
Q 2484 409 2743 651 
Q 3003 894 3003 1313 
Q 3003 1734 2745 1975 
Q 2488 2216 2034 2216 
z
M 1403 2484 
Q 997 2584 770 2862 
Q 544 3141 544 3541 
Q 544 4100 942 4425 
Q 1341 4750 2034 4750 
Q 2731 4750 3128 4425 
Q 3525 4100 3525 3541 
Q 3525 3141 3298 2862 
Q 3072 2584 2669 2484 
Q 3125 2378 3379 2068 
Q 3634 1759 3634 1313 
Q 3634 634 3220 271 
Q 2806 -91 2034 -91 
Q 1263 -91 848 271 
Q 434 634 434 1313 
Q 434 1759 690 2068 
Q 947 2378 1403 2484 
z
M 1172 3481 
Q 1172 3119 1398 2916 
Q 1625 2713 2034 2713 
Q 2441 2713 2670 2916 
Q 2900 3119 2900 3481 
Q 2900 3844 2670 4047 
Q 2441 4250 2034 4250 
Q 1625 4250 1398 4047 
Q 1172 3844 1172 3481 
z
" transform="scale(0.015625)"/>
       </defs>
       <use xlink:href="#DejaVuSans-53"/>
       <use xlink:href="#DejaVuSans-53" x="63.476562"/>
       <use xlink:href="#DejaVuSans-38" x="126.953125"/>
      </g>
     </g>
    </g>
    <g id="xtick_12">
     <g id="line2d_12">
      <g>
       <use xlink:href="#m393bf1f813" x="906.900789" y="360.429" style="stroke: #000000; stroke-width: 0.8"/>
      </g>
     </g>
     <g id="text_12">
      <!-- SC -->
      <g transform="translate(896.235789 379.5865) scale(0.16 -0.16)">
       <use xlink:href="#DejaVuSans-53"/>
       <use xlink:href="#DejaVuSans-43" x="63.476562"/>
      </g>
     </g>
    </g>
   </g>
   <g id="matplotlib.axis_2">
    <g id="ytick_1">
     <g id="line2d_13">
      <defs>
       <path id="m3212526032" d="M 0 0 
L -3.5 0 
" style="stroke: #000000; stroke-width: 0.8"/>
      </defs>
      <g>
       <use xlink:href="#m3212526032" x="84.585" y="360.429" style="stroke: #000000; stroke-width: 0.8"/>
      </g>
     </g>
     <g id="text_13">
      <!-- 0 -->
      <g transform="translate(67.405 366.50775) scale(0.16 -0.16)">
       <defs>
        <path id="DejaVuSans-30" d="M 2034 4250 
Q 1547 4250 1301 3770 
Q 1056 3291 1056 2328 
Q 1056 1369 1301 889 
Q 1547 409 2034 409 
Q 2525 409 2770 889 
Q 3016 1369 3016 2328 
Q 3016 3291 2770 3770 
Q 2525 4250 2034 4250 
z
M 2034 4750 
Q 2819 4750 3233 4129 
Q 3647 3509 3647 2328 
Q 3647 1150 3233 529 
Q 2819 -91 2034 -91 
Q 1250 -91 836 529 
Q 422 1150 422 2328 
Q 422 3509 836 4129 
Q 1250 4750 2034 4750 
z
" transform="scale(0.015625)"/>
       </defs>
       <use xlink:href="#DejaVuSans-30"/>
      </g>
     </g>
    </g>
    <g id="ytick_2">
     <g id="line2d_14">
      <g>
       <use xlink:href="#m3212526032" x="84.585" y="305.496712" style="stroke: #000000; stroke-width: 0.8"/>
      </g>
     </g>
     <g id="text_14">
      <!-- 2000 -->
      <g transform="translate(36.865 311.575462) scale(0.16 -0.16)">
       <use xlink:href="#DejaVuSans-32"/>
       <use xlink:href="#DejaVuSans-30" x="63.623047"/>
       <use xlink:href="#DejaVuSans-30" x="127.246094"/>
       <use xlink:href="#DejaVuSans-30" x="190.869141"/>
      </g>
     </g>
    </g>
    <g id="ytick_3">
     <g id="line2d_15">
      <g>
       <use xlink:href="#m3212526032" x="84.585" y="250.564423" style="stroke: #000000; stroke-width: 0.8"/>
      </g>
     </g>
     <g id="text_15">
      <!-- 4000 -->
      <g transform="translate(36.865 256.643173) scale(0.16 -0.16)">
       <defs>
        <path id="DejaVuSans-34" d="M 2419 4116 
L 825 1625 
L 2419 1625 
L 2419 4116 
z
M 2253 4666 
L 3047 4666 
L 3047 1625 
L 3713 1625 
L 3713 1100 
L 3047 1100 
L 3047 0 
L 2419 0 
L 2419 1100 
L 313 1100 
L 313 1709 
L 2253 4666 
z
" transform="scale(0.015625)"/>
       </defs>
       <use xlink:href="#DejaVuSans-34"/>
       <use xlink:href="#DejaVuSans-30" x="63.623047"/>
       <use xlink:href="#DejaVuSans-30" x="127.246094"/>
       <use xlink:href="#DejaVuSans-30" x="190.869141"/>
      </g>
     </g>
    </g>
    <g id="ytick_4">
     <g id="line2d_16">
      <g>
       <use xlink:href="#m3212526032" x="84.585" y="195.632135" style="stroke: #000000; stroke-width: 0.8"/>
      </g>
     </g>
     <g id="text_16">
      <!-- 6000 -->
      <g transform="translate(36.865 201.710885) scale(0.16 -0.16)">
       <defs>
        <path id="DejaVuSans-36" d="M 2113 2584 
Q 1688 2584 1439 2293 
Q 1191 2003 1191 1497 
Q 1191 994 1439 701 
Q 1688 409 2113 409 
Q 2538 409 2786 701 
Q 3034 994 3034 1497 
Q 3034 2003 2786 2293 
Q 2538 2584 2113 2584 
z
M 3366 4563 
L 3366 3988 
Q 3128 4100 2886 4159 
Q 2644 4219 2406 4219 
Q 1781 4219 1451 3797 
Q 1122 3375 1075 2522 
Q 1259 2794 1537 2939 
Q 1816 3084 2150 3084 
Q 2853 3084 3261 2657 
Q 3669 2231 3669 1497 
Q 3669 778 3244 343 
Q 2819 -91 2113 -91 
Q 1303 -91 875 529 
Q 447 1150 447 2328 
Q 447 3434 972 4092 
Q 1497 4750 2381 4750 
Q 2619 4750 2861 4703 
Q 3103 4656 3366 4563 
z
" transform="scale(0.015625)"/>
       </defs>
       <use xlink:href="#DejaVuSans-36"/>
       <use xlink:href="#DejaVuSans-30" x="63.623047"/>
       <use xlink:href="#DejaVuSans-30" x="127.246094"/>
       <use xlink:href="#DejaVuSans-30" x="190.869141"/>
      </g>
     </g>
    </g>
    <g id="ytick_5">
     <g id="line2d_17">
      <g>
       <use xlink:href="#m3212526032" x="84.585" y="140.699847" style="stroke: #000000; stroke-width: 0.8"/>
      </g>
     </g>
     <g id="text_17">
      <!-- 8000 -->
      <g transform="translate(36.865 146.778597) scale(0.16 -0.16)">
       <use xlink:href="#DejaVuSans-38"/>
       <use xlink:href="#DejaVuSans-30" x="63.623047"/>
       <use xlink:href="#DejaVuSans-30" x="127.246094"/>
       <use xlink:href="#DejaVuSans-30" x="190.869141"/>
      </g>
     </g>
    </g>
    <g id="ytick_6">
     <g id="line2d_18">
      <g>
       <use xlink:href="#m3212526032" x="84.585" y="85.767558" style="stroke: #000000; stroke-width: 0.8"/>
      </g>
     </g>
     <g id="text_18">
      <!-- 10000 -->
      <g transform="translate(26.685 91.846308) scale(0.16 -0.16)">
       <use xlink:href="#DejaVuSans-31"/>
       <use xlink:href="#DejaVuSans-30" x="63.623047"/>
       <use xlink:href="#DejaVuSans-30" x="127.246094"/>
       <use xlink:href="#DejaVuSans-30" x="190.869141"/>
       <use xlink:href="#DejaVuSans-30" x="254.492188"/>
      </g>
     </g>
    </g>
    <g id="ytick_7">
     <g id="line2d_19">
      <g>
       <use xlink:href="#m3212526032" x="84.585" y="30.83527" style="stroke: #000000; stroke-width: 0.8"/>
      </g>
     </g>
     <g id="text_19">
      <!-- 12000 -->
      <g transform="translate(26.685 36.91402) scale(0.16 -0.16)">
       <use xlink:href="#DejaVuSans-31"/>
       <use xlink:href="#DejaVuSans-32" x="63.623047"/>
       <use xlink:href="#DejaVuSans-30" x="127.246094"/>
       <use xlink:href="#DejaVuSans-30" x="190.869141"/>
       <use xlink:href="#DejaVuSans-30" x="254.492188"/>
      </g>
     </g>
    </g>
    <g id="text_20">
     <!-- Index -->
     <g transform="translate(19.3575 216.13525) rotate(-90) scale(0.16 -0.16)">
      <defs>
       <path id="DejaVuSans-49" d="M 628 4666 
L 1259 4666 
L 1259 0 
L 628 0 
L 628 4666 
z
" transform="scale(0.015625)"/>
       <path id="DejaVuSans-6e" d="M 3513 2113 
L 3513 0 
L 2938 0 
L 2938 2094 
Q 2938 2591 2744 2837 
Q 2550 3084 2163 3084 
Q 1697 3084 1428 2787 
Q 1159 2491 1159 1978 
L 1159 0 
L 581 0 
L 581 3500 
L 1159 3500 
L 1159 2956 
Q 1366 3272 1645 3428 
Q 1925 3584 2291 3584 
Q 2894 3584 3203 3211 
Q 3513 2838 3513 2113 
z
" transform="scale(0.015625)"/>
       <path id="DejaVuSans-64" d="M 2906 2969 
L 2906 4863 
L 3481 4863 
L 3481 0 
L 2906 0 
L 2906 525 
Q 2725 213 2448 61 
Q 2172 -91 1784 -91 
Q 1150 -91 751 415 
Q 353 922 353 1747 
Q 353 2572 751 3078 
Q 1150 3584 1784 3584 
Q 2172 3584 2448 3432 
Q 2725 3281 2906 2969 
z
M 947 1747 
Q 947 1113 1208 752 
Q 1469 391 1925 391 
Q 2381 391 2643 752 
Q 2906 1113 2906 1747 
Q 2906 2381 2643 2742 
Q 2381 3103 1925 3103 
Q 1469 3103 1208 2742 
Q 947 2381 947 1747 
z
" transform="scale(0.015625)"/>
       <path id="DejaVuSans-65" d="M 3597 1894 
L 3597 1613 
L 953 1613 
Q 991 1019 1311 708 
Q 1631 397 2203 397 
Q 2534 397 2845 478 
Q 3156 559 3463 722 
L 3463 178 
Q 3153 47 2828 -22 
Q 2503 -91 2169 -91 
Q 1331 -91 842 396 
Q 353 884 353 1716 
Q 353 2575 817 3079 
Q 1281 3584 2069 3584 
Q 2775 3584 3186 3129 
Q 3597 2675 3597 1894 
z
M 3022 2063 
Q 3016 2534 2758 2815 
Q 2500 3097 2075 3097 
Q 1594 3097 1305 2825 
Q 1016 2553 972 2059 
L 3022 2063 
z
" transform="scale(0.015625)"/>
       <path id="DejaVuSans-78" d="M 3513 3500 
L 2247 1797 
L 3578 0 
L 2900 0 
L 1881 1375 
L 863 0 
L 184 0 
L 1544 1831 
L 300 3500 
L 978 3500 
L 1906 2253 
L 2834 3500 
L 3513 3500 
z
" transform="scale(0.015625)"/>
      </defs>
      <use xlink:href="#DejaVuSans-49"/>
      <use xlink:href="#DejaVuSans-6e" x="29.492188"/>
      <use xlink:href="#DejaVuSans-64" x="92.871094"/>
      <use xlink:href="#DejaVuSans-65" x="156.347656"/>
      <use xlink:href="#DejaVuSans-78" x="216.121094"/>
     </g>
    </g>
   </g>
   <g id="patch_195">
    <path d="M 84.585 360.429 
L 84.585 27.789 
" style="fill: none; stroke: #000000; stroke-width: 0.8; stroke-linejoin: miter; stroke-linecap: square"/>
   </g>
   <g id="patch_196">
    <path d="M 977.385 360.429 
L 977.385 27.789 
" style="fill: none; stroke: #000000; stroke-width: 0.8; stroke-linejoin: miter; stroke-linecap: square"/>
   </g>
   <g id="patch_197">
    <path d="M 84.585 360.429 
L 977.385 360.429 
" style="fill: none; stroke: #000000; stroke-width: 0.8; stroke-linejoin: miter; stroke-linecap: square"/>
   </g>
   <g id="patch_198">
    <path d="M 84.585 27.789 
L 977.385 27.789 
" style="fill: none; stroke: #000000; stroke-width: 0.8; stroke-linejoin: miter; stroke-linecap: square"/>
   </g>
   <g id="text_21">
    <!-- UnixBench Individual Tests Single Core -->
    <g transform="translate(344.994 21.789) scale(0.192 -0.192)">
     <defs>
      <path id="DejaVuSans-55" d="M 556 4666 
L 1191 4666 
L 1191 1831 
Q 1191 1081 1462 751 
Q 1734 422 2344 422 
Q 2950 422 3222 751 
Q 3494 1081 3494 1831 
L 3494 4666 
L 4128 4666 
L 4128 1753 
Q 4128 841 3676 375 
Q 3225 -91 2344 -91 
Q 1459 -91 1007 375 
Q 556 841 556 1753 
L 556 4666 
z
" transform="scale(0.015625)"/>
      <path id="DejaVuSans-69" d="M 603 3500 
L 1178 3500 
L 1178 0 
L 603 0 
L 603 3500 
z
M 603 4863 
L 1178 4863 
L 1178 4134 
L 603 4134 
L 603 4863 
z
" transform="scale(0.015625)"/>
      <path id="DejaVuSans-42" d="M 1259 2228 
L 1259 519 
L 2272 519 
Q 2781 519 3026 730 
Q 3272 941 3272 1375 
Q 3272 1813 3026 2020 
Q 2781 2228 2272 2228 
L 1259 2228 
z
M 1259 4147 
L 1259 2741 
L 2194 2741 
Q 2656 2741 2882 2914 
Q 3109 3088 3109 3444 
Q 3109 3797 2882 3972 
Q 2656 4147 2194 4147 
L 1259 4147 
z
M 628 4666 
L 2241 4666 
Q 2963 4666 3353 4366 
Q 3744 4066 3744 3513 
Q 3744 3084 3544 2831 
Q 3344 2578 2956 2516 
Q 3422 2416 3680 2098 
Q 3938 1781 3938 1306 
Q 3938 681 3513 340 
Q 3088 0 2303 0 
L 628 0 
L 628 4666 
z
" transform="scale(0.015625)"/>
      <path id="DejaVuSans-63" d="M 3122 3366 
L 3122 2828 
Q 2878 2963 2633 3030 
Q 2388 3097 2138 3097 
Q 1578 3097 1268 2742 
Q 959 2388 959 1747 
Q 959 1106 1268 751 
Q 1578 397 2138 397 
Q 2388 397 2633 464 
Q 2878 531 3122 666 
L 3122 134 
Q 2881 22 2623 -34 
Q 2366 -91 2075 -91 
Q 1284 -91 818 406 
Q 353 903 353 1747 
Q 353 2603 823 3093 
Q 1294 3584 2113 3584 
Q 2378 3584 2631 3529 
Q 2884 3475 3122 3366 
z
" transform="scale(0.015625)"/>
      <path id="DejaVuSans-68" d="M 3513 2113 
L 3513 0 
L 2938 0 
L 2938 2094 
Q 2938 2591 2744 2837 
Q 2550 3084 2163 3084 
Q 1697 3084 1428 2787 
Q 1159 2491 1159 1978 
L 1159 0 
L 581 0 
L 581 4863 
L 1159 4863 
L 1159 2956 
Q 1366 3272 1645 3428 
Q 1925 3584 2291 3584 
Q 2894 3584 3203 3211 
Q 3513 2838 3513 2113 
z
" transform="scale(0.015625)"/>
      <path id="DejaVuSans-20" transform="scale(0.015625)"/>
      <path id="DejaVuSans-76" d="M 191 3500 
L 800 3500 
L 1894 563 
L 2988 3500 
L 3597 3500 
L 2284 0 
L 1503 0 
L 191 3500 
z
" transform="scale(0.015625)"/>
      <path id="DejaVuSans-75" d="M 544 1381 
L 544 3500 
L 1119 3500 
L 1119 1403 
Q 1119 906 1312 657 
Q 1506 409 1894 409 
Q 2359 409 2629 706 
Q 2900 1003 2900 1516 
L 2900 3500 
L 3475 3500 
L 3475 0 
L 2900 0 
L 2900 538 
Q 2691 219 2414 64 
Q 2138 -91 1772 -91 
Q 1169 -91 856 284 
Q 544 659 544 1381 
z
M 1991 3584 
L 1991 3584 
z
" transform="scale(0.015625)"/>
      <path id="DejaVuSans-61" d="M 2194 1759 
Q 1497 1759 1228 1600 
Q 959 1441 959 1056 
Q 959 750 1161 570 
Q 1363 391 1709 391 
Q 2188 391 2477 730 
Q 2766 1069 2766 1631 
L 2766 1759 
L 2194 1759 
z
M 3341 1997 
L 3341 0 
L 2766 0 
L 2766 531 
Q 2569 213 2275 61 
Q 1981 -91 1556 -91 
Q 1019 -91 701 211 
Q 384 513 384 1019 
Q 384 1609 779 1909 
Q 1175 2209 1959 2209 
L 2766 2209 
L 2766 2266 
Q 2766 2663 2505 2880 
Q 2244 3097 1772 3097 
Q 1472 3097 1187 3025 
Q 903 2953 641 2809 
L 641 3341 
Q 956 3463 1253 3523 
Q 1550 3584 1831 3584 
Q 2591 3584 2966 3190 
Q 3341 2797 3341 1997 
z
" transform="scale(0.015625)"/>
      <path id="DejaVuSans-6c" d="M 603 4863 
L 1178 4863 
L 1178 0 
L 603 0 
L 603 4863 
z
" transform="scale(0.015625)"/>
      <path id="DejaVuSans-73" d="M 2834 3397 
L 2834 2853 
Q 2591 2978 2328 3040 
Q 2066 3103 1784 3103 
Q 1356 3103 1142 2972 
Q 928 2841 928 2578 
Q 928 2378 1081 2264 
Q 1234 2150 1697 2047 
L 1894 2003 
Q 2506 1872 2764 1633 
Q 3022 1394 3022 966 
Q 3022 478 2636 193 
Q 2250 -91 1575 -91 
Q 1294 -91 989 -36 
Q 684 19 347 128 
L 347 722 
Q 666 556 975 473 
Q 1284 391 1588 391 
Q 1994 391 2212 530 
Q 2431 669 2431 922 
Q 2431 1156 2273 1281 
Q 2116 1406 1581 1522 
L 1381 1569 
Q 847 1681 609 1914 
Q 372 2147 372 2553 
Q 372 3047 722 3315 
Q 1072 3584 1716 3584 
Q 2034 3584 2315 3537 
Q 2597 3491 2834 3397 
z
" transform="scale(0.015625)"/>
      <path id="DejaVuSans-74" d="M 1172 4494 
L 1172 3500 
L 2356 3500 
L 2356 3053 
L 1172 3053 
L 1172 1153 
Q 1172 725 1289 603 
Q 1406 481 1766 481 
L 2356 481 
L 2356 0 
L 1766 0 
Q 1100 0 847 248 
Q 594 497 594 1153 
L 594 3053 
L 172 3053 
L 172 3500 
L 594 3500 
L 594 4494 
L 1172 4494 
z
" transform="scale(0.015625)"/>
      <path id="DejaVuSans-67" d="M 2906 1791 
Q 2906 2416 2648 2759 
Q 2391 3103 1925 3103 
Q 1463 3103 1205 2759 
Q 947 2416 947 1791 
Q 947 1169 1205 825 
Q 1463 481 1925 481 
Q 2391 481 2648 825 
Q 2906 1169 2906 1791 
z
M 3481 434 
Q 3481 -459 3084 -895 
Q 2688 -1331 1869 -1331 
Q 1566 -1331 1297 -1286 
Q 1028 -1241 775 -1147 
L 775 -588 
Q 1028 -725 1275 -790 
Q 1522 -856 1778 -856 
Q 2344 -856 2625 -561 
Q 2906 -266 2906 331 
L 2906 616 
Q 2728 306 2450 153 
Q 2172 0 1784 0 
Q 1141 0 747 490 
Q 353 981 353 1791 
Q 353 2603 747 3093 
Q 1141 3584 1784 3584 
Q 2172 3584 2450 3431 
Q 2728 3278 2906 2969 
L 2906 3500 
L 3481 3500 
L 3481 434 
z
" transform="scale(0.015625)"/>
      <path id="DejaVuSans-6f" d="M 1959 3097 
Q 1497 3097 1228 2736 
Q 959 2375 959 1747 
Q 959 1119 1226 758 
Q 1494 397 1959 397 
Q 2419 397 2687 759 
Q 2956 1122 2956 1747 
Q 2956 2369 2687 2733 
Q 2419 3097 1959 3097 
z
M 1959 3584 
Q 2709 3584 3137 3096 
Q 3566 2609 3566 1747 
Q 3566 888 3137 398 
Q 2709 -91 1959 -91 
Q 1206 -91 779 398 
Q 353 888 353 1747 
Q 353 2609 779 3096 
Q 1206 3584 1959 3584 
z
" transform="scale(0.015625)"/>
      <path id="DejaVuSans-72" d="M 2631 2963 
Q 2534 3019 2420 3045 
Q 2306 3072 2169 3072 
Q 1681 3072 1420 2755 
Q 1159 2438 1159 1844 
L 1159 0 
L 581 0 
L 581 3500 
L 1159 3500 
L 1159 2956 
Q 1341 3275 1631 3429 
Q 1922 3584 2338 3584 
Q 2397 3584 2469 3576 
Q 2541 3569 2628 3553 
L 2631 2963 
z
" transform="scale(0.015625)"/>
     </defs>
     <use xlink:href="#DejaVuSans-55"/>
     <use xlink:href="#DejaVuSans-6e" x="73.193359"/>
     <use xlink:href="#DejaVuSans-69" x="136.572266"/>
     <use xlink:href="#DejaVuSans-78" x="164.355469"/>
     <use xlink:href="#DejaVuSans-42" x="223.535156"/>
     <use xlink:href="#DejaVuSans-65" x="292.138672"/>
     <use xlink:href="#DejaVuSans-6e" x="353.662109"/>
     <use xlink:href="#DejaVuSans-63" x="417.041016"/>
     <use xlink:href="#DejaVuSans-68" x="472.021484"/>
     <use xlink:href="#DejaVuSans-20" x="535.400391"/>
     <use xlink:href="#DejaVuSans-49" x="567.1875"/>
     <use xlink:href="#DejaVuSans-6e" x="596.679688"/>
     <use xlink:href="#DejaVuSans-64" x="660.058594"/>
     <use xlink:href="#DejaVuSans-69" x="723.535156"/>
     <use xlink:href="#DejaVuSans-76" x="751.318359"/>
     <use xlink:href="#DejaVuSans-69" x="810.498047"/>
     <use xlink:href="#DejaVuSans-64" x="838.28125"/>
     <use xlink:href="#DejaVuSans-75" x="901.757812"/>
     <use xlink:href="#DejaVuSans-61" x="965.136719"/>
     <use xlink:href="#DejaVuSans-6c" x="1026.416016"/>
     <use xlink:href="#DejaVuSans-20" x="1054.199219"/>
     <use xlink:href="#DejaVuSans-54" x="1085.986328"/>
     <use xlink:href="#DejaVuSans-65" x="1130.070312"/>
     <use xlink:href="#DejaVuSans-73" x="1191.59375"/>
     <use xlink:href="#DejaVuSans-74" x="1243.693359"/>
     <use xlink:href="#DejaVuSans-73" x="1282.902344"/>
     <use xlink:href="#DejaVuSans-20" x="1335.001953"/>
     <use xlink:href="#DejaVuSans-53" x="1366.789062"/>
     <use xlink:href="#DejaVuSans-69" x="1430.265625"/>
     <use xlink:href="#DejaVuSans-6e" x="1458.048828"/>
     <use xlink:href="#DejaVuSans-67" x="1521.427734"/>
     <use xlink:href="#DejaVuSans-6c" x="1584.904297"/>
     <use xlink:href="#DejaVuSans-65" x="1612.6875"/>
     <use xlink:href="#DejaVuSans-20" x="1674.210938"/>
     <use xlink:href="#DejaVuSans-43" x="1705.998047"/>
     <use xlink:href="#DejaVuSans-6f" x="1775.822266"/>
     <use xlink:href="#DejaVuSans-72" x="1837.003906"/>
     <use xlink:href="#DejaVuSans-65" x="1875.867188"/>
    </g>
   </g>
   <g id="legend_1">
    <g id="patch_199">
     <path d="M 86.70875 502.433 
L 979.26125 502.433 
Q 982.46125 502.433 982.46125 499.233 
L 982.46125 406.893 
Q 982.46125 403.693 979.26125 403.693 
L 86.70875 403.693 
Q 83.50875 403.693 83.50875 406.893 
L 83.50875 499.233 
Q 83.50875 502.433 86.70875 502.433 
z
" style="fill: #4d4d4d; opacity: 0.5; stroke: #4d4d4d; stroke-linejoin: miter"/>
    </g>
    <g id="patch_200">
     <path d="M 84.70875 500.433 
L 977.26125 500.433 
Q 980.46125 500.433 980.46125 497.233 
L 980.46125 404.893 
Q 980.46125 401.693 977.26125 401.693 
L 84.70875 401.693 
Q 81.50875 401.693 81.50875 404.893 
L 81.50875 497.233 
Q 81.50875 500.433 84.70875 500.433 
z
" style="fill: #ffffff; stroke: #cccccc; stroke-linejoin: miter"/>
    </g>
    <g id="patch_201">
     <path d="M 87.90875 420.2505 
L 119.90875 420.2505 
L 119.90875 409.0505 
L 87.90875 409.0505 
z
" style="fill: #011959"/>
    </g>
    <g id="text_22">
     <!-- a1.metal -->
     <g transform="translate(132.70875 420.2505) scale(0.16 -0.16)">
      <defs>
       <path id="DejaVuSans-2e" d="M 684 794 
L 1344 794 
L 1344 0 
L 684 0 
L 684 794 
z
" transform="scale(0.015625)"/>
       <path id="DejaVuSans-6d" d="M 3328 2828 
Q 3544 3216 3844 3400 
Q 4144 3584 4550 3584 
Q 5097 3584 5394 3201 
Q 5691 2819 5691 2113 
L 5691 0 
L 5113 0 
L 5113 2094 
Q 5113 2597 4934 2840 
Q 4756 3084 4391 3084 
Q 3944 3084 3684 2787 
Q 3425 2491 3425 1978 
L 3425 0 
L 2847 0 
L 2847 2094 
Q 2847 2600 2669 2842 
Q 2491 3084 2119 3084 
Q 1678 3084 1418 2786 
Q 1159 2488 1159 1978 
L 1159 0 
L 581 0 
L 581 3500 
L 1159 3500 
L 1159 2956 
Q 1356 3278 1631 3431 
Q 1906 3584 2284 3584 
Q 2666 3584 2933 3390 
Q 3200 3197 3328 2828 
z
" transform="scale(0.015625)"/>
      </defs>
      <use xlink:href="#DejaVuSans-61"/>
      <use xlink:href="#DejaVuSans-31" x="61.279297"/>
      <use xlink:href="#DejaVuSans-2e" x="124.902344"/>
      <use xlink:href="#DejaVuSans-6d" x="156.689453"/>
      <use xlink:href="#DejaVuSans-65" x="254.101562"/>
      <use xlink:href="#DejaVuSans-74" x="315.625"/>
      <use xlink:href="#DejaVuSans-61" x="354.833984"/>
      <use xlink:href="#DejaVuSans-6c" x="416.113281"/>
     </g>
    </g>
    <g id="patch_202">
     <path d="M 87.90875 443.7355 
L 119.90875 443.7355 
L 119.90875 432.5355 
L 87.90875 432.5355 
z
" style="fill: #faccfa"/>
    </g>
    <g id="text_23">
     <!-- c3.8xlarge -->
     <g transform="translate(132.70875 443.7355) scale(0.16 -0.16)">
      <use xlink:href="#DejaVuSans-63"/>
      <use xlink:href="#DejaVuSans-33" x="54.980469"/>
      <use xlink:href="#DejaVuSans-2e" x="118.603516"/>
      <use xlink:href="#DejaVuSans-38" x="150.390625"/>
      <use xlink:href="#DejaVuSans-78" x="214.013672"/>
      <use xlink:href="#DejaVuSans-6c" x="273.193359"/>
      <use xlink:href="#DejaVuSans-61" x="300.976562"/>
      <use xlink:href="#DejaVuSans-72" x="362.255859"/>
      <use xlink:href="#DejaVuSans-67" x="401.619141"/>
      <use xlink:href="#DejaVuSans-65" x="465.095703"/>
     </g>
    </g>
    <g id="patch_203">
     <path d="M 87.90875 467.2205 
L 119.90875 467.2205 
L 119.90875 456.0205 
L 87.90875 456.0205 
z
" style="fill: #828231"/>
    </g>
    <g id="text_24">
     <!-- c4.8xlarge -->
     <g transform="translate(132.70875 467.2205) scale(0.16 -0.16)">
      <use xlink:href="#DejaVuSans-63"/>
      <use xlink:href="#DejaVuSans-34" x="54.980469"/>
      <use xlink:href="#DejaVuSans-2e" x="118.603516"/>
      <use xlink:href="#DejaVuSans-38" x="150.390625"/>
      <use xlink:href="#DejaVuSans-78" x="214.013672"/>
      <use xlink:href="#DejaVuSans-6c" x="273.193359"/>
      <use xlink:href="#DejaVuSans-61" x="300.976562"/>
      <use xlink:href="#DejaVuSans-72" x="362.255859"/>
      <use xlink:href="#DejaVuSans-67" x="401.619141"/>
      <use xlink:href="#DejaVuSans-65" x="465.095703"/>
     </g>
    </g>
    <g id="patch_204">
     <path d="M 87.90875 490.7055 
L 119.90875 490.7055 
L 119.90875 479.5055 
L 87.90875 479.5055 
z
" style="fill: #226061"/>
    </g>
    <g id="text_25">
     <!-- c5.metal -->
     <g transform="translate(132.70875 490.7055) scale(0.16 -0.16)">
      <defs>
       <path id="DejaVuSans-35" d="M 691 4666 
L 3169 4666 
L 3169 4134 
L 1269 4134 
L 1269 2991 
Q 1406 3038 1543 3061 
Q 1681 3084 1819 3084 
Q 2600 3084 3056 2656 
Q 3513 2228 3513 1497 
Q 3513 744 3044 326 
Q 2575 -91 1722 -91 
Q 1428 -91 1123 -41 
Q 819 9 494 109 
L 494 744 
Q 775 591 1075 516 
Q 1375 441 1709 441 
Q 2250 441 2565 725 
Q 2881 1009 2881 1497 
Q 2881 1984 2565 2268 
Q 2250 2553 1709 2553 
Q 1456 2553 1204 2497 
Q 953 2441 691 2322 
L 691 4666 
z
" transform="scale(0.015625)"/>
      </defs>
      <use xlink:href="#DejaVuSans-63"/>
      <use xlink:href="#DejaVuSans-35" x="54.980469"/>
      <use xlink:href="#DejaVuSans-2e" x="118.603516"/>
      <use xlink:href="#DejaVuSans-6d" x="150.390625"/>
      <use xlink:href="#DejaVuSans-65" x="247.802734"/>
      <use xlink:href="#DejaVuSans-74" x="309.326172"/>
      <use xlink:href="#DejaVuSans-61" x="348.535156"/>
      <use xlink:href="#DejaVuSans-6c" x="409.814453"/>
     </g>
    </g>
    <g id="patch_205">
     <path d="M 248.97125 420.2505 
L 280.97125 420.2505 
L 280.97125 409.0505 
L 248.97125 409.0505 
z
" style="fill: #f19d6b"/>
    </g>
    <g id="text_26">
     <!-- c5a.24xlarge -->
     <g transform="translate(293.77125 420.2505) scale(0.16 -0.16)">
      <use xlink:href="#DejaVuSans-63"/>
      <use xlink:href="#DejaVuSans-35" x="54.980469"/>
      <use xlink:href="#DejaVuSans-61" x="118.603516"/>
      <use xlink:href="#DejaVuSans-2e" x="179.882812"/>
      <use xlink:href="#DejaVuSans-32" x="211.669922"/>
      <use xlink:href="#DejaVuSans-34" x="275.292969"/>
      <use xlink:href="#DejaVuSans-78" x="338.916016"/>
      <use xlink:href="#DejaVuSans-6c" x="398.095703"/>
      <use xlink:href="#DejaVuSans-61" x="425.878906"/>
      <use xlink:href="#DejaVuSans-72" x="487.158203"/>
      <use xlink:href="#DejaVuSans-67" x="526.521484"/>
      <use xlink:href="#DejaVuSans-65" x="589.998047"/>
     </g>
    </g>
    <g id="patch_206">
     <path d="M 248.97125 443.7355 
L 280.97125 443.7355 
L 280.97125 432.5355 
L 248.97125 432.5355 
z
" style="fill: #4d734d"/>
    </g>
    <g id="text_27">
     <!-- c6a.metal -->
     <g transform="translate(293.77125 443.7355) scale(0.16 -0.16)">
      <use xlink:href="#DejaVuSans-63"/>
      <use xlink:href="#DejaVuSans-36" x="54.980469"/>
      <use xlink:href="#DejaVuSans-61" x="118.603516"/>
      <use xlink:href="#DejaVuSans-2e" x="179.882812"/>
      <use xlink:href="#DejaVuSans-6d" x="211.669922"/>
      <use xlink:href="#DejaVuSans-65" x="309.082031"/>
      <use xlink:href="#DejaVuSans-74" x="370.605469"/>
      <use xlink:href="#DejaVuSans-61" x="409.814453"/>
      <use xlink:href="#DejaVuSans-6c" x="471.09375"/>
     </g>
    </g>
    <g id="patch_207">
     <path d="M 248.97125 467.2205 
L 280.97125 467.2205 
L 280.97125 456.0205 
L 248.97125 456.0205 
z
" style="fill: #114360"/>
    </g>
    <g id="text_28">
     <!-- c6g.metal -->
     <g transform="translate(293.77125 467.2205) scale(0.16 -0.16)">
      <use xlink:href="#DejaVuSans-63"/>
      <use xlink:href="#DejaVuSans-36" x="54.980469"/>
      <use xlink:href="#DejaVuSans-67" x="118.603516"/>
      <use xlink:href="#DejaVuSans-2e" x="182.080078"/>
      <use xlink:href="#DejaVuSans-6d" x="213.867188"/>
      <use xlink:href="#DejaVuSans-65" x="311.279297"/>
      <use xlink:href="#DejaVuSans-74" x="372.802734"/>
      <use xlink:href="#DejaVuSans-61" x="412.011719"/>
      <use xlink:href="#DejaVuSans-6c" x="473.291016"/>
     </g>
    </g>
    <g id="patch_208">
     <path d="M 430.01875 420.2505 
L 462.01875 420.2505 
L 462.01875 409.0505 
L 430.01875 409.0505 
z
" style="fill: #fdb4b4"/>
    </g>
    <g id="text_29">
     <!-- c6i.metal -->
     <g transform="translate(474.81875 420.2505) scale(0.16 -0.16)">
      <use xlink:href="#DejaVuSans-63"/>
      <use xlink:href="#DejaVuSans-36" x="54.980469"/>
      <use xlink:href="#DejaVuSans-69" x="118.603516"/>
      <use xlink:href="#DejaVuSans-2e" x="146.386719"/>
      <use xlink:href="#DejaVuSans-6d" x="178.173828"/>
      <use xlink:href="#DejaVuSans-65" x="275.585938"/>
      <use xlink:href="#DejaVuSans-74" x="337.109375"/>
      <use xlink:href="#DejaVuSans-61" x="376.318359"/>
      <use xlink:href="#DejaVuSans-6c" x="437.597656"/>
     </g>
    </g>
    <g id="patch_209">
     <path d="M 430.01875 443.7355 
L 462.01875 443.7355 
L 462.01875 432.5355 
L 430.01875 432.5355 
z
" style="fill: #c09036"/>
    </g>
    <g id="text_30">
     <!-- c7a.metal-48xl -->
     <g transform="translate(474.81875 443.7355) scale(0.16 -0.16)">
      <defs>
       <path id="DejaVuSans-37" d="M 525 4666 
L 3525 4666 
L 3525 4397 
L 1831 0 
L 1172 0 
L 2766 4134 
L 525 4134 
L 525 4666 
z
" transform="scale(0.015625)"/>
       <path id="DejaVuSans-2d" d="M 313 2009 
L 1997 2009 
L 1997 1497 
L 313 1497 
L 313 2009 
z
" transform="scale(0.015625)"/>
      </defs>
      <use xlink:href="#DejaVuSans-63"/>
      <use xlink:href="#DejaVuSans-37" x="54.980469"/>
      <use xlink:href="#DejaVuSans-61" x="118.603516"/>
      <use xlink:href="#DejaVuSans-2e" x="179.882812"/>
      <use xlink:href="#DejaVuSans-6d" x="211.669922"/>
      <use xlink:href="#DejaVuSans-65" x="309.082031"/>
      <use xlink:href="#DejaVuSans-74" x="370.605469"/>
      <use xlink:href="#DejaVuSans-61" x="409.814453"/>
      <use xlink:href="#DejaVuSans-6c" x="471.09375"/>
      <use xlink:href="#DejaVuSans-2d" x="498.876953"/>
      <use xlink:href="#DejaVuSans-34" x="534.960938"/>
      <use xlink:href="#DejaVuSans-38" x="598.583984"/>
      <use xlink:href="#DejaVuSans-78" x="662.207031"/>
      <use xlink:href="#DejaVuSans-6c" x="721.386719"/>
     </g>
    </g>
    <g id="patch_210">
     <path d="M 430.01875 467.2205 
L 462.01875 467.2205 
L 462.01875 456.0205 
L 430.01875 456.0205 
z
" style="fill: #175262"/>
    </g>
    <g id="text_31">
     <!-- c7g.metal -->
     <g transform="translate(474.81875 467.2205) scale(0.16 -0.16)">
      <use xlink:href="#DejaVuSans-63"/>
      <use xlink:href="#DejaVuSans-37" x="54.980469"/>
      <use xlink:href="#DejaVuSans-67" x="118.603516"/>
      <use xlink:href="#DejaVuSans-2e" x="182.080078"/>
      <use xlink:href="#DejaVuSans-6d" x="213.867188"/>
      <use xlink:href="#DejaVuSans-65" x="311.279297"/>
      <use xlink:href="#DejaVuSans-74" x="372.802734"/>
      <use xlink:href="#DejaVuSans-61" x="412.011719"/>
      <use xlink:href="#DejaVuSans-6c" x="473.291016"/>
     </g>
    </g>
    <g id="patch_211">
     <path d="M 626.68625 420.2505 
L 658.68625 420.2505 
L 658.68625 409.0505 
L 626.68625 409.0505 
z
" style="fill: #fcbfd6"/>
    </g>
    <g id="text_32">
     <!-- c7gn.16xlarge -->
     <g transform="translate(671.48625 420.2505) scale(0.16 -0.16)">
      <use xlink:href="#DejaVuSans-63"/>
      <use xlink:href="#DejaVuSans-37" x="54.980469"/>
      <use xlink:href="#DejaVuSans-67" x="118.603516"/>
      <use xlink:href="#DejaVuSans-6e" x="182.080078"/>
      <use xlink:href="#DejaVuSans-2e" x="245.458984"/>
      <use xlink:href="#DejaVuSans-31" x="277.246094"/>
      <use xlink:href="#DejaVuSans-36" x="340.869141"/>
      <use xlink:href="#DejaVuSans-78" x="404.492188"/>
      <use xlink:href="#DejaVuSans-6c" x="463.671875"/>
      <use xlink:href="#DejaVuSans-61" x="491.455078"/>
      <use xlink:href="#DejaVuSans-72" x="552.734375"/>
      <use xlink:href="#DejaVuSans-67" x="592.097656"/>
      <use xlink:href="#DejaVuSans-65" x="655.574219"/>
     </g>
    </g>
    <g id="patch_212">
     <path d="M 626.68625 443.7355 
L 658.68625 443.7355 
L 658.68625 432.5355 
L 626.68625 432.5355 
z
" style="fill: #fca890"/>
    </g>
    <g id="text_33">
     <!-- c7i.metal-48xl -->
     <g transform="translate(671.48625 443.7355) scale(0.16 -0.16)">
      <use xlink:href="#DejaVuSans-63"/>
      <use xlink:href="#DejaVuSans-37" x="54.980469"/>
      <use xlink:href="#DejaVuSans-69" x="118.603516"/>
      <use xlink:href="#DejaVuSans-2e" x="146.386719"/>
      <use xlink:href="#DejaVuSans-6d" x="178.173828"/>
      <use xlink:href="#DejaVuSans-65" x="275.585938"/>
      <use xlink:href="#DejaVuSans-74" x="337.109375"/>
      <use xlink:href="#DejaVuSans-61" x="376.318359"/>
      <use xlink:href="#DejaVuSans-6c" x="437.597656"/>
      <use xlink:href="#DejaVuSans-2d" x="465.380859"/>
      <use xlink:href="#DejaVuSans-34" x="501.464844"/>
      <use xlink:href="#DejaVuSans-38" x="565.087891"/>
      <use xlink:href="#DejaVuSans-78" x="628.710938"/>
      <use xlink:href="#DejaVuSans-6c" x="687.890625"/>
     </g>
    </g>
    <g id="patch_213">
     <path d="M 626.68625 467.2205 
L 658.68625 467.2205 
L 658.68625 456.0205 
L 626.68625 456.0205 
z
" style="fill: #356a59"/>
    </g>
    <g id="text_34">
     <!-- d2.8xlarge -->
     <g transform="translate(671.48625 467.2205) scale(0.16 -0.16)">
      <use xlink:href="#DejaVuSans-64"/>
      <use xlink:href="#DejaVuSans-32" x="63.476562"/>
      <use xlink:href="#DejaVuSans-2e" x="127.099609"/>
      <use xlink:href="#DejaVuSans-38" x="158.886719"/>
      <use xlink:href="#DejaVuSans-78" x="222.509766"/>
      <use xlink:href="#DejaVuSans-6c" x="281.689453"/>
      <use xlink:href="#DejaVuSans-61" x="309.472656"/>
      <use xlink:href="#DejaVuSans-72" x="370.751953"/>
      <use xlink:href="#DejaVuSans-67" x="410.115234"/>
      <use xlink:href="#DejaVuSans-65" x="473.591797"/>
     </g>
    </g>
    <g id="patch_214">
     <path d="M 818.22625 420.2505 
L 850.22625 420.2505 
L 850.22625 409.0505 
L 818.22625 409.0505 
z
" style="fill: #0d315d"/>
    </g>
    <g id="text_35">
     <!-- i3.metal -->
     <g transform="translate(863.02625 420.2505) scale(0.16 -0.16)">
      <use xlink:href="#DejaVuSans-69"/>
      <use xlink:href="#DejaVuSans-33" x="27.783203"/>
      <use xlink:href="#DejaVuSans-2e" x="91.40625"/>
      <use xlink:href="#DejaVuSans-6d" x="123.193359"/>
      <use xlink:href="#DejaVuSans-65" x="220.605469"/>
      <use xlink:href="#DejaVuSans-74" x="282.128906"/>
      <use xlink:href="#DejaVuSans-61" x="321.337891"/>
      <use xlink:href="#DejaVuSans-6c" x="382.617188"/>
     </g>
    </g>
    <g id="patch_215">
     <path d="M 818.22625 443.7355 
L 850.22625 443.7355 
L 850.22625 432.5355 
L 818.22625 432.5355 
z
" style="fill: #a18a2b"/>
    </g>
    <g id="text_36">
     <!-- m5.metal -->
     <g transform="translate(863.02625 443.7355) scale(0.16 -0.16)">
      <use xlink:href="#DejaVuSans-6d"/>
      <use xlink:href="#DejaVuSans-35" x="97.412109"/>
      <use xlink:href="#DejaVuSans-2e" x="161.035156"/>
      <use xlink:href="#DejaVuSans-6d" x="192.822266"/>
      <use xlink:href="#DejaVuSans-65" x="290.234375"/>
      <use xlink:href="#DejaVuSans-74" x="351.757812"/>
      <use xlink:href="#DejaVuSans-61" x="390.966797"/>
      <use xlink:href="#DejaVuSans-6c" x="452.246094"/>
     </g>
    </g>
    <g id="patch_216">
     <path d="M 818.22625 467.2205 
L 850.22625 467.2205 
L 850.22625 456.0205 
L 818.22625 456.0205 
z
" style="fill: #677b3e"/>
    </g>
    <g id="text_37">
     <!-- m5a.24xlarge -->
     <g transform="translate(863.02625 467.2205) scale(0.16 -0.16)">
      <use xlink:href="#DejaVuSans-6d"/>
      <use xlink:href="#DejaVuSans-35" x="97.412109"/>
      <use xlink:href="#DejaVuSans-61" x="161.035156"/>
      <use xlink:href="#DejaVuSans-2e" x="222.314453"/>
      <use xlink:href="#DejaVuSans-32" x="254.101562"/>
      <use xlink:href="#DejaVuSans-34" x="317.724609"/>
      <use xlink:href="#DejaVuSans-78" x="381.347656"/>
      <use xlink:href="#DejaVuSans-6c" x="440.527344"/>
      <use xlink:href="#DejaVuSans-61" x="468.310547"/>
      <use xlink:href="#DejaVuSans-72" x="529.589844"/>
      <use xlink:href="#DejaVuSans-67" x="568.953125"/>
      <use xlink:href="#DejaVuSans-65" x="632.429688"/>
     </g>
    </g>
   </g>
  </g>
 </g>
 <defs>
  <clipPath id="p3b74df8112">
   <rect x="84.585" y="27.789" width="892.8" height="332.64"/>
  </clipPath>
 </defs>
</svg>
