<?xml version="1.0" encoding="utf-8" standalone="no"?>
<!DOCTYPE svg PUBLIC "-//W3C//DTD SVG 1.1//EN"
  "http://www.w3.org/Graphics/SVG/1.1/DTD/svg11.dtd">
<svg xmlns:xlink="http://www.w3.org/1999/xlink" width="963.9425pt" height="484.148pt" viewBox="0 0 963.9425 484.148" xmlns="http://www.w3.org/2000/svg" version="1.1">
 <metadata>
  <rdf:RDF xmlns:dc="http://purl.org/dc/elements/1.1/" xmlns:cc="http://creativecommons.org/ns#" xmlns:rdf="http://www.w3.org/1999/02/22-rdf-syntax-ns#">
   <cc:Work>
    <dc:type rdf:resource="http://purl.org/dc/dcmitype/StillImage"/>
    <dc:date>2024-04-14T14:18:31.800891</dc:date>
    <dc:format>image/svg+xml</dc:format>
    <dc:creator>
     <cc:Agent>
      <dc:title>Matplotlib v3.8.2, https://matplotlib.org/</dc:title>
     </cc:Agent>
    </dc:creator>
   </cc:Work>
  </rdf:RDF>
 </metadata>
 <defs>
  <style type="text/css">*{stroke-linejoin: round; stroke-linecap: butt}</style>
 </defs>
 <g id="figure_1">
  <g id="patch_1">
   <path d="M 0 484.148 
L 963.9425 484.148 
L 963.9425 0 
L 0 0 
z
" style="fill: #ffffff"/>
  </g>
  <g id="axes_1">
   <g id="patch_2">
    <path d="M 59.13 360.429 
L 951.93 360.429 
L 951.93 27.789 
L 59.13 27.789 
z
" style="fill: #ffffff"/>
   </g>
   <g id="patch_3">
    <path d="M 99.711818 360.429 
L 104.312186 360.429 
L 104.312186 233.006954 
L 99.711818 233.006954 
z
" clip-path="url(#p4a5ff96e67)" style="fill: #011959"/>
   </g>
   <g id="patch_4">
    <path d="M 168.060144 360.429 
L 172.660512 360.429 
L 172.660512 246.298286 
L 168.060144 246.298286 
z
" clip-path="url(#p4a5ff96e67)" style="fill: #011959"/>
   </g>
   <g id="patch_5">
    <path d="M 236.408469 360.429 
L 241.008837 360.429 
L 241.008837 246.298286 
L 236.408469 246.298286 
z
" clip-path="url(#p4a5ff96e67)" style="fill: #011959"/>
   </g>
   <g id="patch_6">
    <path d="M 304.756794 360.429 
L 309.357162 360.429 
L 309.357162 320.104271 
L 304.756794 320.104271 
z
" clip-path="url(#p4a5ff96e67)" style="fill: #011959"/>
   </g>
   <g id="patch_7">
    <path d="M 373.10512 360.429 
L 377.705488 360.429 
L 377.705488 320.466457 
L 373.10512 320.466457 
z
" clip-path="url(#p4a5ff96e67)" style="fill: #011959"/>
   </g>
   <g id="patch_8">
    <path d="M 441.453445 360.429 
L 446.053813 360.429 
L 446.053813 314.75404 
L 441.453445 314.75404 
z
" clip-path="url(#p4a5ff96e67)" style="fill: #011959"/>
   </g>
   <g id="patch_9">
    <path d="M 509.80177 360.429 
L 514.402138 360.429 
L 514.402138 319.732506 
L 509.80177 319.732506 
z
" clip-path="url(#p4a5ff96e67)" style="fill: #011959"/>
   </g>
   <g id="patch_10">
    <path d="M 578.150096 360.429 
L 582.750464 360.429 
L 582.750464 252.267965 
L 578.150096 252.267965 
z
" clip-path="url(#p4a5ff96e67)" style="fill: #011959"/>
   </g>
   <g id="patch_11">
    <path d="M 646.498421 360.429 
L 651.098789 360.429 
L 651.098789 186.458098 
L 646.498421 186.458098 
z
" clip-path="url(#p4a5ff96e67)" style="fill: #011959"/>
   </g>
   <g id="patch_12">
    <path d="M 714.846746 360.429 
L 719.447114 360.429 
L 719.447114 209.878653 
L 714.846746 209.878653 
z
" clip-path="url(#p4a5ff96e67)" style="fill: #011959"/>
   </g>
   <g id="patch_13">
    <path d="M 783.195072 360.429 
L 787.79544 360.429 
L 787.79544 212.765516 
L 783.195072 212.765516 
z
" clip-path="url(#p4a5ff96e67)" style="fill: #011959"/>
   </g>
   <g id="patch_14">
    <path d="M 851.543397 360.429 
L 856.143765 360.429 
L 856.143765 323.652545 
L 851.543397 323.652545 
z
" clip-path="url(#p4a5ff96e67)" style="fill: #011959"/>
   </g>
   <g id="patch_15">
    <path d="M 104.312186 360.429 
L 108.912554 360.429 
L 108.912554 166.624288 
L 104.312186 166.624288 
z
" clip-path="url(#p4a5ff96e67)" style="fill: #faccfa"/>
   </g>
   <g id="patch_16">
    <path d="M 172.660512 360.429 
L 177.26088 360.429 
L 177.26088 187.563463 
L 172.660512 187.563463 
z
" clip-path="url(#p4a5ff96e67)" style="fill: #faccfa"/>
   </g>
   <g id="patch_17">
    <path d="M 241.008837 360.429 
L 245.609205 360.429 
L 245.609205 187.563463 
L 241.008837 187.563463 
z
" clip-path="url(#p4a5ff96e67)" style="fill: #faccfa"/>
   </g>
   <g id="patch_18">
    <path d="M 309.357162 360.429 
L 313.95753 360.429 
L 313.95753 263.077396 
L 309.357162 263.077396 
z
" clip-path="url(#p4a5ff96e67)" style="fill: #faccfa"/>
   </g>
   <g id="patch_19">
    <path d="M 377.705488 360.429 
L 382.305856 360.429 
L 382.305856 271.632269 
L 377.705488 271.632269 
z
" clip-path="url(#p4a5ff96e67)" style="fill: #faccfa"/>
   </g>
   <g id="patch_20">
    <path d="M 446.053813 360.429 
L 450.654181 360.429 
L 450.654181 235.932237 
L 446.053813 235.932237 
z
" clip-path="url(#p4a5ff96e67)" style="fill: #faccfa"/>
   </g>
   <g id="patch_21">
    <path d="M 514.402138 360.429 
L 519.002506 360.429 
L 519.002506 290.569727 
L 514.402138 290.569727 
z
" clip-path="url(#p4a5ff96e67)" style="fill: #faccfa"/>
   </g>
   <g id="patch_22">
    <path d="M 582.750464 360.429 
L 587.350832 360.429 
L 587.350832 253.63385 
L 582.750464 253.63385 
z
" clip-path="url(#p4a5ff96e67)" style="fill: #faccfa"/>
   </g>
   <g id="patch_23">
    <path d="M 651.098789 360.429 
L 655.699157 360.429 
L 655.699157 121.000512 
L 651.098789 121.000512 
z
" clip-path="url(#p4a5ff96e67)" style="fill: #faccfa"/>
   </g>
   <g id="patch_24">
    <path d="M 719.447114 360.429 
L 724.047483 360.429 
L 724.047483 139.623875 
L 719.447114 139.623875 
z
" clip-path="url(#p4a5ff96e67)" style="fill: #faccfa"/>
   </g>
   <g id="patch_25">
    <path d="M 787.79544 360.429 
L 792.395808 360.429 
L 792.395808 129.16132 
L 787.79544 129.16132 
z
" clip-path="url(#p4a5ff96e67)" style="fill: #faccfa"/>
   </g>
   <g id="patch_26">
    <path d="M 856.143765 360.429 
L 860.744133 360.429 
L 860.744133 321.400926 
L 856.143765 321.400926 
z
" clip-path="url(#p4a5ff96e67)" style="fill: #faccfa"/>
   </g>
   <g id="patch_27">
    <path d="M 108.912554 360.429 
L 113.512922 360.429 
L 113.512922 139.521307 
L 108.912554 139.521307 
z
" clip-path="url(#p4a5ff96e67)" style="fill: #828231"/>
   </g>
   <g id="patch_28">
    <path d="M 177.26088 360.429 
L 181.861248 360.429 
L 181.861248 136.796543 
L 177.26088 136.796543 
z
" clip-path="url(#p4a5ff96e67)" style="fill: #828231"/>
   </g>
   <g id="patch_29">
    <path d="M 245.609205 360.429 
L 250.209573 360.429 
L 250.209573 136.796543 
L 245.609205 136.796543 
z
" clip-path="url(#p4a5ff96e67)" style="fill: #828231"/>
   </g>
   <g id="patch_30">
    <path d="M 313.95753 360.429 
L 318.557898 360.429 
L 318.557898 246.252038 
L 313.95753 246.252038 
z
" clip-path="url(#p4a5ff96e67)" style="fill: #828231"/>
   </g>
   <g id="patch_31">
    <path d="M 382.305856 360.429 
L 386.906224 360.429 
L 386.906224 257.712619 
L 382.305856 257.712619 
z
" clip-path="url(#p4a5ff96e67)" style="fill: #828231"/>
   </g>
   <g id="patch_32">
    <path d="M 450.654181 360.429 
L 455.254549 360.429 
L 455.254549 214.865277 
L 450.654181 214.865277 
z
" clip-path="url(#p4a5ff96e67)" style="fill: #828231"/>
   </g>
   <g id="patch_33">
    <path d="M 519.002506 360.429 
L 523.602874 360.429 
L 523.602874 278.196533 
L 519.002506 278.196533 
z
" clip-path="url(#p4a5ff96e67)" style="fill: #828231"/>
   </g>
   <g id="patch_34">
    <path d="M 587.350832 360.429 
L 591.9512 360.429 
L 591.9512 43.629 
L 587.350832 43.629 
z
" clip-path="url(#p4a5ff96e67)" style="fill: #828231"/>
   </g>
   <g id="patch_35">
    <path d="M 655.699157 360.429 
L 660.299525 360.429 
L 660.299525 97.218662 
L 655.699157 97.218662 
z
" clip-path="url(#p4a5ff96e67)" style="fill: #828231"/>
   </g>
   <g id="patch_36">
    <path d="M 724.047483 360.429 
L 728.647851 360.429 
L 728.647851 133.381056 
L 724.047483 133.381056 
z
" clip-path="url(#p4a5ff96e67)" style="fill: #828231"/>
   </g>
   <g id="patch_37">
    <path d="M 792.395808 360.429 
L 796.996176 360.429 
L 796.996176 118.194088 
L 792.395808 118.194088 
z
" clip-path="url(#p4a5ff96e67)" style="fill: #828231"/>
   </g>
   <g id="patch_38">
    <path d="M 860.744133 360.429 
L 865.344501 360.429 
L 865.344501 313.606858 
L 860.744133 313.606858 
z
" clip-path="url(#p4a5ff96e67)" style="fill: #828231"/>
   </g>
   <g id="patch_39">
    <path d="M 113.512922 360.429 
L 118.11329 360.429 
L 118.11329 90.889318 
L 113.512922 90.889318 
z
" clip-path="url(#p4a5ff96e67)" style="fill: #226061"/>
   </g>
   <g id="patch_40">
    <path d="M 181.861248 360.429 
L 186.461616 360.429 
L 186.461616 73.432749 
L 181.861248 73.432749 
z
" clip-path="url(#p4a5ff96e67)" style="fill: #226061"/>
   </g>
   <g id="patch_41">
    <path d="M 250.209573 360.429 
L 254.809941 360.429 
L 254.809941 73.432749 
L 250.209573 73.432749 
z
" clip-path="url(#p4a5ff96e67)" style="fill: #226061"/>
   </g>
   <g id="patch_42">
    <path d="M 318.557898 360.429 
L 323.158266 360.429 
L 323.158266 111.635482 
L 318.557898 111.635482 
z
" clip-path="url(#p4a5ff96e67)" style="fill: #226061"/>
   </g>
   <g id="patch_43">
    <path d="M 386.906224 360.429 
L 391.506592 360.429 
L 391.506592 122.129003 
L 386.906224 122.129003 
z
" clip-path="url(#p4a5ff96e67)" style="fill: #226061"/>
   </g>
   <g id="patch_44">
    <path d="M 455.254549 360.429 
L 459.854917 360.429 
L 459.854917 93.636881 
L 455.254549 93.636881 
z
" clip-path="url(#p4a5ff96e67)" style="fill: #226061"/>
   </g>
   <g id="patch_45">
    <path d="M 523.602874 360.429 
L 528.203243 360.429 
L 528.203243 122.868541 
L 523.602874 122.868541 
z
" clip-path="url(#p4a5ff96e67)" style="fill: #226061"/>
   </g>
   <g id="patch_46">
    <path d="M 591.9512 360.429 
L 596.551568 360.429 
L 596.551568 72.824796 
L 591.9512 72.824796 
z
" clip-path="url(#p4a5ff96e67)" style="fill: #226061"/>
   </g>
   <g id="patch_47">
    <path d="M 660.299525 360.429 
L 664.899893 360.429 
L 664.899893 129.418458 
L 660.299525 129.418458 
z
" clip-path="url(#p4a5ff96e67)" style="fill: #226061"/>
   </g>
   <g id="patch_48">
    <path d="M 728.647851 360.429 
L 733.248219 360.429 
L 733.248219 101.39814 
L 728.647851 101.39814 
z
" clip-path="url(#p4a5ff96e67)" style="fill: #226061"/>
   </g>
   <g id="patch_49">
    <path d="M 796.996176 360.429 
L 801.596544 360.429 
L 801.596544 82.213439 
L 796.996176 82.213439 
z
" clip-path="url(#p4a5ff96e67)" style="fill: #226061"/>
   </g>
   <g id="patch_50">
    <path d="M 865.344501 360.429 
L 869.944869 360.429 
L 869.944869 73.217592 
L 865.344501 73.217592 
z
" clip-path="url(#p4a5ff96e67)" style="fill: #226061"/>
   </g>
   <g id="patch_51">
    <path d="M 118.11329 360.429 
L 122.713658 360.429 
L 122.713658 141.853148 
L 118.11329 141.853148 
z
" clip-path="url(#p4a5ff96e67)" style="fill: #f19d6b"/>
   </g>
   <g id="patch_52">
    <path d="M 186.461616 360.429 
L 191.061984 360.429 
L 191.061984 117.066499 
L 186.461616 117.066499 
z
" clip-path="url(#p4a5ff96e67)" style="fill: #f19d6b"/>
   </g>
   <g id="patch_53">
    <path d="M 254.809941 360.429 
L 259.410309 360.429 
L 259.410309 117.066499 
L 254.809941 117.066499 
z
" clip-path="url(#p4a5ff96e67)" style="fill: #f19d6b"/>
   </g>
   <g id="patch_54">
    <path d="M 323.158266 360.429 
L 327.758635 360.429 
L 327.758635 202.799078 
L 323.158266 202.799078 
z
" clip-path="url(#p4a5ff96e67)" style="fill: #f19d6b"/>
   </g>
   <g id="patch_55">
    <path d="M 391.506592 360.429 
L 396.10696 360.429 
L 396.10696 212.922858 
L 391.506592 212.922858 
z
" clip-path="url(#p4a5ff96e67)" style="fill: #f19d6b"/>
   </g>
   <g id="patch_56">
    <path d="M 459.854917 360.429 
L 464.455285 360.429 
L 464.455285 171.05422 
L 459.854917 171.05422 
z
" clip-path="url(#p4a5ff96e67)" style="fill: #f19d6b"/>
   </g>
   <g id="patch_57">
    <path d="M 528.203243 360.429 
L 532.803611 360.429 
L 532.803611 212.899648 
L 528.203243 212.899648 
z
" clip-path="url(#p4a5ff96e67)" style="fill: #f19d6b"/>
   </g>
   <g id="patch_58">
    <path d="M 596.551568 360.429 
L 601.151936 360.429 
L 601.151936 340.02609 
L 596.551568 340.02609 
z
" clip-path="url(#p4a5ff96e67)" style="fill: #f19d6b"/>
   </g>
   <g id="patch_59">
    <path d="M 664.899893 360.429 
L 669.500261 360.429 
L 669.500261 238.299771 
L 664.899893 238.299771 
z
" clip-path="url(#p4a5ff96e67)" style="fill: #f19d6b"/>
   </g>
   <g id="patch_60">
    <path d="M 733.248219 360.429 
L 737.848587 360.429 
L 737.848587 137.209779 
L 733.248219 137.209779 
z
" clip-path="url(#p4a5ff96e67)" style="fill: #f19d6b"/>
   </g>
   <g id="patch_61">
    <path d="M 801.596544 360.429 
L 806.196912 360.429 
L 806.196912 138.337758 
L 801.596544 138.337758 
z
" clip-path="url(#p4a5ff96e67)" style="fill: #f19d6b"/>
   </g>
   <g id="patch_62">
    <path d="M 869.944869 360.429 
L 874.545237 360.429 
L 874.545237 200.968141 
L 869.944869 200.968141 
z
" clip-path="url(#p4a5ff96e67)" style="fill: #f19d6b"/>
   </g>
   <g id="patch_63">
    <path d="M 122.713658 360.429 
L 127.314026 360.429 
L 127.314026 60.425741 
L 122.713658 60.425741 
z
" clip-path="url(#p4a5ff96e67)" style="fill: #4d734d"/>
   </g>
   <g id="patch_64">
    <path d="M 191.061984 360.429 
L 195.662352 360.429 
L 195.662352 48.06826 
L 191.061984 48.06826 
z
" clip-path="url(#p4a5ff96e67)" style="fill: #4d734d"/>
   </g>
   <g id="patch_65">
    <path d="M 259.410309 360.429 
L 264.010677 360.429 
L 264.010677 48.06826 
L 259.410309 48.06826 
z
" clip-path="url(#p4a5ff96e67)" style="fill: #4d734d"/>
   </g>
   <g id="patch_66">
    <path d="M 327.758635 360.429 
L 332.359003 360.429 
L 332.359003 141.439229 
L 327.758635 141.439229 
z
" clip-path="url(#p4a5ff96e67)" style="fill: #4d734d"/>
   </g>
   <g id="patch_67">
    <path d="M 396.10696 360.429 
L 400.707328 360.429 
L 400.707328 160.897287 
L 396.10696 160.897287 
z
" clip-path="url(#p4a5ff96e67)" style="fill: #4d734d"/>
   </g>
   <g id="patch_68">
    <path d="M 464.455285 360.429 
L 469.055653 360.429 
L 469.055653 75.416202 
L 464.455285 75.416202 
z
" clip-path="url(#p4a5ff96e67)" style="fill: #4d734d"/>
   </g>
   <g id="patch_69">
    <path d="M 532.803611 360.429 
L 537.403979 360.429 
L 537.403979 157.262857 
L 532.803611 157.262857 
z
" clip-path="url(#p4a5ff96e67)" style="fill: #4d734d"/>
   </g>
   <g id="patch_70">
    <path d="M 601.151936 360.429 
L 605.752304 360.429 
L 605.752304 115.252605 
L 601.151936 115.252605 
z
" clip-path="url(#p4a5ff96e67)" style="fill: #4d734d"/>
   </g>
   <g id="patch_71">
    <path d="M 669.500261 360.429 
L 674.100629 360.429 
L 674.100629 71.136826 
L 669.500261 71.136826 
z
" clip-path="url(#p4a5ff96e67)" style="fill: #4d734d"/>
   </g>
   <g id="patch_72">
    <path d="M 737.848587 360.429 
L 742.448955 360.429 
L 742.448955 78.41042 
L 737.848587 78.41042 
z
" clip-path="url(#p4a5ff96e67)" style="fill: #4d734d"/>
   </g>
   <g id="patch_73">
    <path d="M 806.196912 360.429 
L 810.79728 360.429 
L 810.79728 108.438114 
L 806.196912 108.438114 
z
" clip-path="url(#p4a5ff96e67)" style="fill: #4d734d"/>
   </g>
   <g id="patch_74">
    <path d="M 874.545237 360.429 
L 879.145605 360.429 
L 879.145605 155.11304 
L 874.545237 155.11304 
z
" clip-path="url(#p4a5ff96e67)" style="fill: #4d734d"/>
   </g>
   <g id="patch_75">
    <path d="M 127.314026 360.429 
L 131.914395 360.429 
L 131.914395 156.972709 
L 127.314026 156.972709 
z
" clip-path="url(#p4a5ff96e67)" style="fill: #114360"/>
   </g>
   <g id="patch_76">
    <path d="M 195.662352 360.429 
L 200.26272 360.429 
L 200.26272 111.925305 
L 195.662352 111.925305 
z
" clip-path="url(#p4a5ff96e67)" style="fill: #114360"/>
   </g>
   <g id="patch_77">
    <path d="M 264.010677 360.429 
L 268.611045 360.429 
L 268.611045 111.925305 
L 264.010677 111.925305 
z
" clip-path="url(#p4a5ff96e67)" style="fill: #114360"/>
   </g>
   <g id="patch_78">
    <path d="M 332.359003 360.429 
L 336.959371 360.429 
L 336.959371 203.730018 
L 332.359003 203.730018 
z
" clip-path="url(#p4a5ff96e67)" style="fill: #114360"/>
   </g>
   <g id="patch_79">
    <path d="M 400.707328 360.429 
L 405.307696 360.429 
L 405.307696 204.914292 
L 400.707328 204.914292 
z
" clip-path="url(#p4a5ff96e67)" style="fill: #114360"/>
   </g>
   <g id="patch_80">
    <path d="M 469.055653 360.429 
L 473.656021 360.429 
L 473.656021 198.661648 
L 469.055653 198.661648 
z
" clip-path="url(#p4a5ff96e67)" style="fill: #114360"/>
   </g>
   <g id="patch_81">
    <path d="M 537.403979 360.429 
L 542.004347 360.429 
L 542.004347 201.402432 
L 537.403979 201.402432 
z
" clip-path="url(#p4a5ff96e67)" style="fill: #114360"/>
   </g>
   <g id="patch_82">
    <path d="M 605.752304 360.429 
L 610.352672 360.429 
L 610.352672 123.191813 
L 605.752304 123.191813 
z
" clip-path="url(#p4a5ff96e67)" style="fill: #114360"/>
   </g>
   <g id="patch_83">
    <path d="M 674.100629 360.429 
L 678.700997 360.429 
L 678.700997 124.496489 
L 674.100629 124.496489 
z
" clip-path="url(#p4a5ff96e67)" style="fill: #114360"/>
   </g>
   <g id="patch_84">
    <path d="M 742.448955 360.429 
L 747.049323 360.429 
L 747.049323 115.206149 
L 742.448955 115.206149 
z
" clip-path="url(#p4a5ff96e67)" style="fill: #114360"/>
   </g>
   <g id="patch_85">
    <path d="M 810.79728 360.429 
L 815.397648 360.429 
L 815.397648 104.598347 
L 810.79728 104.598347 
z
" clip-path="url(#p4a5ff96e67)" style="fill: #114360"/>
   </g>
   <g id="patch_86">
    <path d="M 879.145605 360.429 
L 883.745974 360.429 
L 883.745974 215.055197 
L 879.145605 215.055197 
z
" clip-path="url(#p4a5ff96e67)" style="fill: #114360"/>
   </g>
   <g id="patch_87">
    <path d="M 131.914395 360.429 
L 136.514763 360.429 
L 136.514763 84.735501 
L 131.914395 84.735501 
z
" clip-path="url(#p4a5ff96e67)" style="fill: #fdb4b4"/>
   </g>
   <g id="patch_88">
    <path d="M 200.26272 360.429 
L 204.863088 360.429 
L 204.863088 96.160241 
L 200.26272 96.160241 
z
" clip-path="url(#p4a5ff96e67)" style="fill: #fdb4b4"/>
   </g>
   <g id="patch_89">
    <path d="M 268.611045 360.429 
L 273.211413 360.429 
L 273.211413 96.160241 
L 268.611045 96.160241 
z
" clip-path="url(#p4a5ff96e67)" style="fill: #fdb4b4"/>
   </g>
   <g id="patch_90">
    <path d="M 336.959371 360.429 
L 341.559739 360.429 
L 341.559739 84.864133 
L 336.959371 84.864133 
z
" clip-path="url(#p4a5ff96e67)" style="fill: #fdb4b4"/>
   </g>
   <g id="patch_91">
    <path d="M 405.307696 360.429 
L 409.908064 360.429 
L 409.908064 96.39722 
L 405.307696 96.39722 
z
" clip-path="url(#p4a5ff96e67)" style="fill: #fdb4b4"/>
   </g>
   <g id="patch_92">
    <path d="M 473.656021 360.429 
L 478.256389 360.429 
L 478.256389 58.032226 
L 473.656021 58.032226 
z
" clip-path="url(#p4a5ff96e67)" style="fill: #fdb4b4"/>
   </g>
   <g id="patch_93">
    <path d="M 542.004347 360.429 
L 546.604715 360.429 
L 546.604715 88.887881 
L 542.004347 88.887881 
z
" clip-path="url(#p4a5ff96e67)" style="fill: #fdb4b4"/>
   </g>
   <g id="patch_94">
    <path d="M 610.352672 360.429 
L 614.95304 360.429 
L 614.95304 125.411377 
L 610.352672 125.411377 
z
" clip-path="url(#p4a5ff96e67)" style="fill: #fdb4b4"/>
   </g>
   <g id="patch_95">
    <path d="M 678.700997 360.429 
L 683.301365 360.429 
L 683.301365 43.629 
L 678.700997 43.629 
z
" clip-path="url(#p4a5ff96e67)" style="fill: #fdb4b4"/>
   </g>
   <g id="patch_96">
    <path d="M 747.049323 360.429 
L 751.649691 360.429 
L 751.649691 43.629 
L 747.049323 43.629 
z
" clip-path="url(#p4a5ff96e67)" style="fill: #fdb4b4"/>
   </g>
   <g id="patch_97">
    <path d="M 815.397648 360.429 
L 819.998016 360.429 
L 819.998016 43.629 
L 815.397648 43.629 
z
" clip-path="url(#p4a5ff96e67)" style="fill: #fdb4b4"/>
   </g>
   <g id="patch_98">
    <path d="M 883.745974 360.429 
L 888.346342 360.429 
L 888.346342 57.225319 
L 883.745974 57.225319 
z
" clip-path="url(#p4a5ff96e67)" style="fill: #fdb4b4"/>
   </g>
   <g id="patch_99">
    <path d="M 136.514763 360.429 
L 141.115131 360.429 
L 141.115131 52.812964 
L 136.514763 52.812964 
z
" clip-path="url(#p4a5ff96e67)" style="fill: #c09036"/>
   </g>
   <g id="patch_100">
    <path d="M 204.863088 360.429 
L 209.463456 360.429 
L 209.463456 43.629 
L 204.863088 43.629 
z
" clip-path="url(#p4a5ff96e67)" style="fill: #c09036"/>
   </g>
   <g id="patch_101">
    <path d="M 273.211413 360.429 
L 277.811781 360.429 
L 277.811781 43.629 
L 273.211413 43.629 
z
" clip-path="url(#p4a5ff96e67)" style="fill: #c09036"/>
   </g>
   <g id="patch_102">
    <path d="M 341.559739 360.429 
L 346.160107 360.429 
L 346.160107 187.575483 
L 341.559739 187.575483 
z
" clip-path="url(#p4a5ff96e67)" style="fill: #c09036"/>
   </g>
   <g id="patch_103">
    <path d="M 409.908064 360.429 
L 414.508432 360.429 
L 414.508432 187.39179 
L 409.908064 187.39179 
z
" clip-path="url(#p4a5ff96e67)" style="fill: #c09036"/>
   </g>
   <g id="patch_104">
    <path d="M 478.256389 360.429 
L 482.856757 360.429 
L 482.856757 137.974612 
L 478.256389 137.974612 
z
" clip-path="url(#p4a5ff96e67)" style="fill: #c09036"/>
   </g>
   <g id="patch_105">
    <path d="M 546.604715 360.429 
L 551.205083 360.429 
L 551.205083 187.325947 
L 546.604715 187.325947 
z
" clip-path="url(#p4a5ff96e67)" style="fill: #c09036"/>
   </g>
   <g id="patch_106">
    <path d="M 614.95304 360.429 
L 619.553408 360.429 
L 619.553408 78.885912 
L 614.95304 78.885912 
z
" clip-path="url(#p4a5ff96e67)" style="fill: #c09036"/>
   </g>
   <g id="patch_107">
    <path d="M 683.301365 360.429 
L 687.901734 360.429 
L 687.901734 61.706886 
L 683.301365 61.706886 
z
" clip-path="url(#p4a5ff96e67)" style="fill: #c09036"/>
   </g>
   <g id="patch_108">
    <path d="M 751.649691 360.429 
L 756.250059 360.429 
L 756.250059 54.146459 
L 751.649691 54.146459 
z
" clip-path="url(#p4a5ff96e67)" style="fill: #c09036"/>
   </g>
   <g id="patch_109">
    <path d="M 819.998016 360.429 
L 824.598384 360.429 
L 824.598384 86.822258 
L 819.998016 86.822258 
z
" clip-path="url(#p4a5ff96e67)" style="fill: #c09036"/>
   </g>
   <g id="patch_110">
    <path d="M 888.346342 360.429 
L 892.94671 360.429 
L 892.94671 246.058268 
L 888.346342 246.058268 
z
" clip-path="url(#p4a5ff96e67)" style="fill: #c09036"/>
   </g>
   <g id="patch_111">
    <path d="M 141.115131 360.429 
L 145.715499 360.429 
L 145.715499 86.406446 
L 141.115131 86.406446 
z
" clip-path="url(#p4a5ff96e67)" style="fill: #175262"/>
   </g>
   <g id="patch_112">
    <path d="M 209.463456 360.429 
L 214.063824 360.429 
L 214.063824 95.685961 
L 209.463456 95.685961 
z
" clip-path="url(#p4a5ff96e67)" style="fill: #175262"/>
   </g>
   <g id="patch_113">
    <path d="M 277.811781 360.429 
L 282.412149 360.429 
L 282.412149 95.685961 
L 277.811781 95.685961 
z
" clip-path="url(#p4a5ff96e67)" style="fill: #175262"/>
   </g>
   <g id="patch_114">
    <path d="M 346.160107 360.429 
L 350.760475 360.429 
L 350.760475 185.795747 
L 346.160107 185.795747 
z
" clip-path="url(#p4a5ff96e67)" style="fill: #175262"/>
   </g>
   <g id="patch_115">
    <path d="M 414.508432 360.429 
L 419.1088 360.429 
L 419.1088 190.613281 
L 414.508432 190.613281 
z
" clip-path="url(#p4a5ff96e67)" style="fill: #175262"/>
   </g>
   <g id="patch_116">
    <path d="M 482.856757 360.429 
L 487.457126 360.429 
L 487.457126 166.79227 
L 482.856757 166.79227 
z
" clip-path="url(#p4a5ff96e67)" style="fill: #175262"/>
   </g>
   <g id="patch_117">
    <path d="M 551.205083 360.429 
L 555.805451 360.429 
L 555.805451 197.387531 
L 551.205083 197.387531 
z
" clip-path="url(#p4a5ff96e67)" style="fill: #175262"/>
   </g>
   <g id="patch_118">
    <path d="M 619.553408 360.429 
L 624.153776 360.429 
L 624.153776 62.836761 
L 619.553408 62.836761 
z
" clip-path="url(#p4a5ff96e67)" style="fill: #175262"/>
   </g>
   <g id="patch_119">
    <path d="M 687.901734 360.429 
L 692.502102 360.429 
L 692.502102 96.068669 
L 687.901734 96.068669 
z
" clip-path="url(#p4a5ff96e67)" style="fill: #175262"/>
   </g>
   <g id="patch_120">
    <path d="M 756.250059 360.429 
L 760.850427 360.429 
L 760.850427 67.016507 
L 756.250059 67.016507 
z
" clip-path="url(#p4a5ff96e67)" style="fill: #175262"/>
   </g>
   <g id="patch_121">
    <path d="M 824.598384 360.429 
L 829.198752 360.429 
L 829.198752 54.821454 
L 824.598384 54.821454 
z
" clip-path="url(#p4a5ff96e67)" style="fill: #175262"/>
   </g>
   <g id="patch_122">
    <path d="M 892.94671 360.429 
L 897.547078 360.429 
L 897.547078 227.843242 
L 892.94671 227.843242 
z
" clip-path="url(#p4a5ff96e67)" style="fill: #175262"/>
   </g>
   <g id="patch_123">
    <path d="M 145.715499 360.429 
L 150.315867 360.429 
L 150.315867 85.614617 
L 145.715499 85.614617 
z
" clip-path="url(#p4a5ff96e67)" style="fill: #fcbfd6"/>
   </g>
   <g id="patch_124">
    <path d="M 214.063824 360.429 
L 218.664192 360.429 
L 218.664192 96.084357 
L 214.063824 96.084357 
z
" clip-path="url(#p4a5ff96e67)" style="fill: #fcbfd6"/>
   </g>
   <g id="patch_125">
    <path d="M 282.412149 360.429 
L 287.012517 360.429 
L 287.012517 96.084357 
L 282.412149 96.084357 
z
" clip-path="url(#p4a5ff96e67)" style="fill: #fcbfd6"/>
   </g>
   <g id="patch_126">
    <path d="M 350.760475 360.429 
L 355.360843 360.429 
L 355.360843 187.732922 
L 350.760475 187.732922 
z
" clip-path="url(#p4a5ff96e67)" style="fill: #fcbfd6"/>
   </g>
   <g id="patch_127">
    <path d="M 419.1088 360.429 
L 423.709168 360.429 
L 423.709168 194.406812 
L 419.1088 194.406812 
z
" clip-path="url(#p4a5ff96e67)" style="fill: #fcbfd6"/>
   </g>
   <g id="patch_128">
    <path d="M 487.457126 360.429 
L 492.057494 360.429 
L 492.057494 166.915534 
L 487.457126 166.915534 
z
" clip-path="url(#p4a5ff96e67)" style="fill: #fcbfd6"/>
   </g>
   <g id="patch_129">
    <path d="M 555.805451 360.429 
L 560.405819 360.429 
L 560.405819 198.166179 
L 555.805451 198.166179 
z
" clip-path="url(#p4a5ff96e67)" style="fill: #fcbfd6"/>
   </g>
   <g id="patch_130">
    <path d="M 624.153776 360.429 
L 628.754144 360.429 
L 628.754144 341.733446 
L 624.153776 341.733446 
z
" clip-path="url(#p4a5ff96e67)" style="fill: #fcbfd6"/>
   </g>
   <g id="patch_131">
    <path d="M 692.502102 360.429 
L 697.10247 360.429 
L 697.10247 227.075842 
L 692.502102 227.075842 
z
" clip-path="url(#p4a5ff96e67)" style="fill: #fcbfd6"/>
   </g>
   <g id="patch_132">
    <path d="M 760.850427 360.429 
L 765.450795 360.429 
L 765.450795 118.342935 
L 760.850427 118.342935 
z
" clip-path="url(#p4a5ff96e67)" style="fill: #fcbfd6"/>
   </g>
   <g id="patch_133">
    <path d="M 829.198752 360.429 
L 833.79912 360.429 
L 833.79912 117.58434 
L 829.198752 117.58434 
z
" clip-path="url(#p4a5ff96e67)" style="fill: #fcbfd6"/>
   </g>
   <g id="patch_134">
    <path d="M 897.547078 360.429 
L 902.147446 360.429 
L 902.147446 227.973143 
L 897.547078 227.973143 
z
" clip-path="url(#p4a5ff96e67)" style="fill: #fcbfd6"/>
   </g>
   <g id="patch_135">
    <path d="M 150.315867 360.429 
L 154.916235 360.429 
L 154.916235 43.629 
L 150.315867 43.629 
z
" clip-path="url(#p4a5ff96e67)" style="fill: #fca890"/>
   </g>
   <g id="patch_136">
    <path d="M 218.664192 360.429 
L 223.26456 360.429 
L 223.26456 55.068631 
L 218.664192 55.068631 
z
" clip-path="url(#p4a5ff96e67)" style="fill: #fca890"/>
   </g>
   <g id="patch_137">
    <path d="M 287.012517 360.429 
L 291.612886 360.429 
L 291.612886 55.068631 
L 287.012517 55.068631 
z
" clip-path="url(#p4a5ff96e67)" style="fill: #fca890"/>
   </g>
   <g id="patch_138">
    <path d="M 355.360843 360.429 
L 359.961211 360.429 
L 359.961211 43.629 
L 355.360843 43.629 
z
" clip-path="url(#p4a5ff96e67)" style="fill: #fca890"/>
   </g>
   <g id="patch_139">
    <path d="M 423.709168 360.429 
L 428.309536 360.429 
L 428.309536 43.629 
L 423.709168 43.629 
z
" clip-path="url(#p4a5ff96e67)" style="fill: #fca890"/>
   </g>
   <g id="patch_140">
    <path d="M 492.057494 360.429 
L 496.657862 360.429 
L 496.657862 43.629 
L 492.057494 43.629 
z
" clip-path="url(#p4a5ff96e67)" style="fill: #fca890"/>
   </g>
   <g id="patch_141">
    <path d="M 560.405819 360.429 
L 565.006187 360.429 
L 565.006187 43.629 
L 560.405819 43.629 
z
" clip-path="url(#p4a5ff96e67)" style="fill: #fca890"/>
   </g>
   <g id="patch_142">
    <path d="M 628.754144 360.429 
L 633.354512 360.429 
L 633.354512 103.130374 
L 628.754144 103.130374 
z
" clip-path="url(#p4a5ff96e67)" style="fill: #fca890"/>
   </g>
   <g id="patch_143">
    <path d="M 697.10247 360.429 
L 701.702838 360.429 
L 701.702838 146.852348 
L 697.10247 146.852348 
z
" clip-path="url(#p4a5ff96e67)" style="fill: #fca890"/>
   </g>
   <g id="patch_144">
    <path d="M 765.450795 360.429 
L 770.051163 360.429 
L 770.051163 52.455054 
L 765.450795 52.455054 
z
" clip-path="url(#p4a5ff96e67)" style="fill: #fca890"/>
   </g>
   <g id="patch_145">
    <path d="M 833.79912 360.429 
L 838.399488 360.429 
L 838.399488 78.942222 
L 833.79912 78.942222 
z
" clip-path="url(#p4a5ff96e67)" style="fill: #fca890"/>
   </g>
   <g id="patch_146">
    <path d="M 902.147446 360.429 
L 906.747814 360.429 
L 906.747814 43.629 
L 902.147446 43.629 
z
" clip-path="url(#p4a5ff96e67)" style="fill: #fca890"/>
   </g>
   <g id="patch_147">
    <path d="M 154.916235 360.429 
L 159.516603 360.429 
L 159.516603 223.274321 
L 154.916235 223.274321 
z
" clip-path="url(#p4a5ff96e67)" style="fill: #356a59"/>
   </g>
   <g id="patch_148">
    <path d="M 223.26456 360.429 
L 227.864928 360.429 
L 227.864928 190.447085 
L 223.26456 190.447085 
z
" clip-path="url(#p4a5ff96e67)" style="fill: #356a59"/>
   </g>
   <g id="patch_149">
    <path d="M 291.612886 360.429 
L 296.213254 360.429 
L 296.213254 190.447085 
L 291.612886 190.447085 
z
" clip-path="url(#p4a5ff96e67)" style="fill: #356a59"/>
   </g>
   <g id="patch_150">
    <path d="M 359.961211 360.429 
L 364.561579 360.429 
L 364.561579 261.489323 
L 359.961211 261.489323 
z
" clip-path="url(#p4a5ff96e67)" style="fill: #356a59"/>
   </g>
   <g id="patch_151">
    <path d="M 428.309536 360.429 
L 432.909904 360.429 
L 432.909904 267.638022 
L 428.309536 267.638022 
z
" clip-path="url(#p4a5ff96e67)" style="fill: #356a59"/>
   </g>
   <g id="patch_152">
    <path d="M 496.657862 360.429 
L 501.25823 360.429 
L 501.25823 248.822675 
L 496.657862 248.822675 
z
" clip-path="url(#p4a5ff96e67)" style="fill: #356a59"/>
   </g>
   <g id="patch_153">
    <path d="M 565.006187 360.429 
L 569.606555 360.429 
L 569.606555 264.923028 
L 565.006187 264.923028 
z
" clip-path="url(#p4a5ff96e67)" style="fill: #356a59"/>
   </g>
   <g id="patch_154">
    <path d="M 633.354512 360.429 
L 637.95488 360.429 
L 637.95488 346.599412 
L 633.354512 346.599412 
z
" clip-path="url(#p4a5ff96e67)" style="fill: #356a59"/>
   </g>
   <g id="patch_155">
    <path d="M 701.702838 360.429 
L 706.303206 360.429 
L 706.303206 289.543448 
L 701.702838 289.543448 
z
" clip-path="url(#p4a5ff96e67)" style="fill: #356a59"/>
   </g>
   <g id="patch_156">
    <path d="M 770.051163 360.429 
L 774.651531 360.429 
L 774.651531 222.302785 
L 770.051163 222.302785 
z
" clip-path="url(#p4a5ff96e67)" style="fill: #356a59"/>
   </g>
   <g id="patch_157">
    <path d="M 838.399488 360.429 
L 842.999856 360.429 
L 842.999856 245.587558 
L 838.399488 245.587558 
z
" clip-path="url(#p4a5ff96e67)" style="fill: #356a59"/>
   </g>
   <g id="patch_158">
    <path d="M 906.747814 360.429 
L 911.348182 360.429 
L 911.348182 245.8995 
L 906.747814 245.8995 
z
" clip-path="url(#p4a5ff96e67)" style="fill: #356a59"/>
   </g>
   <g id="matplotlib.axis_1">
    <g id="xtick_1">
     <g id="line2d_1">
      <defs>
       <path id="md7ed3f6c79" d="M 0 0 
L 0 3.5 
" style="stroke: #000000; stroke-width: 0.8"/>
      </defs>
      <g>
       <use xlink:href="#md7ed3f6c79" x="129.614211" y="360.429" style="stroke: #000000; stroke-width: 0.8"/>
      </g>
     </g>
     <g id="text_1">
      <!-- DH -->
      <g transform="translate(117.437961 379.5865) scale(0.16 -0.16)">
       <defs>
        <path id="DejaVuSans-44" d="M 1259 4147 
L 1259 519 
L 2022 519 
Q 2988 519 3436 956 
Q 3884 1394 3884 2338 
Q 3884 3275 3436 3711 
Q 2988 4147 2022 4147 
L 1259 4147 
z
M 628 4666 
L 1925 4666 
Q 3281 4666 3915 4102 
Q 4550 3538 4550 2338 
Q 4550 1131 3912 565 
Q 3275 0 1925 0 
L 628 0 
L 628 4666 
z
" transform="scale(0.015625)"/>
        <path id="DejaVuSans-48" d="M 628 4666 
L 1259 4666 
L 1259 2753 
L 3553 2753 
L 3553 4666 
L 4184 4666 
L 4184 0 
L 3553 0 
L 3553 2222 
L 1259 2222 
L 1259 0 
L 628 0 
L 628 4666 
z
" transform="scale(0.015625)"/>
       </defs>
       <use xlink:href="#DejaVuSans-44"/>
       <use xlink:href="#DejaVuSans-48" x="77.001953"/>
      </g>
     </g>
    </g>
    <g id="xtick_2">
     <g id="line2d_2">
      <g>
       <use xlink:href="#md7ed3f6c79" x="197.962536" y="360.429" style="stroke: #000000; stroke-width: 0.8"/>
      </g>
     </g>
     <g id="text_2">
      <!-- WH -->
      <g transform="translate(184.036286 379.5865) scale(0.16 -0.16)">
       <defs>
        <path id="DejaVuSans-57" d="M 213 4666 
L 850 4666 
L 1831 722 
L 2809 4666 
L 3519 4666 
L 4500 722 
L 5478 4666 
L 6119 4666 
L 4947 0 
L 4153 0 
L 3169 4050 
L 2175 0 
L 1381 0 
L 213 4666 
z
" transform="scale(0.015625)"/>
       </defs>
       <use xlink:href="#DejaVuSans-57"/>
       <use xlink:href="#DejaVuSans-48" x="98.876953"/>
      </g>
     </g>
    </g>
    <g id="xtick_3">
     <g id="line2d_3">
      <g>
       <use xlink:href="#md7ed3f6c79" x="266.310861" y="360.429" style="stroke: #000000; stroke-width: 0.8"/>
      </g>
     </g>
     <g id="text_3">
      <!-- ET -->
      <g transform="translate(256.369611 379.5865) scale(0.16 -0.16)">
       <defs>
        <path id="DejaVuSans-45" d="M 628 4666 
L 3578 4666 
L 3578 4134 
L 1259 4134 
L 1259 2753 
L 3481 2753 
L 3481 2222 
L 1259 2222 
L 1259 531 
L 3634 531 
L 3634 0 
L 628 0 
L 628 4666 
z
" transform="scale(0.015625)"/>
        <path id="DejaVuSans-54" d="M -19 4666 
L 3928 4666 
L 3928 4134 
L 2272 4134 
L 2272 0 
L 1638 0 
L 1638 4134 
L -19 4134 
L -19 4666 
z
" transform="scale(0.015625)"/>
       </defs>
       <use xlink:href="#DejaVuSans-45"/>
       <use xlink:href="#DejaVuSans-54" x="63.183594"/>
      </g>
     </g>
    </g>
    <g id="xtick_4">
     <g id="line2d_4">
      <g>
       <use xlink:href="#md7ed3f6c79" x="334.659187" y="360.429" style="stroke: #000000; stroke-width: 0.8"/>
      </g>
     </g>
     <g id="text_4">
      <!-- FC1 -->
      <g transform="translate(319.381687 379.5865) scale(0.16 -0.16)">
       <defs>
        <path id="DejaVuSans-46" d="M 628 4666 
L 3309 4666 
L 3309 4134 
L 1259 4134 
L 1259 2759 
L 3109 2759 
L 3109 2228 
L 1259 2228 
L 1259 0 
L 628 0 
L 628 4666 
z
" transform="scale(0.015625)"/>
        <path id="DejaVuSans-43" d="M 4122 4306 
L 4122 3641 
Q 3803 3938 3442 4084 
Q 3081 4231 2675 4231 
Q 1875 4231 1450 3742 
Q 1025 3253 1025 2328 
Q 1025 1406 1450 917 
Q 1875 428 2675 428 
Q 3081 428 3442 575 
Q 3803 722 4122 1019 
L 4122 359 
Q 3791 134 3420 21 
Q 3050 -91 2638 -91 
Q 1578 -91 968 557 
Q 359 1206 359 2328 
Q 359 3453 968 4101 
Q 1578 4750 2638 4750 
Q 3056 4750 3426 4639 
Q 3797 4528 4122 4306 
z
" transform="scale(0.015625)"/>
        <path id="DejaVuSans-31" d="M 794 531 
L 1825 531 
L 1825 4091 
L 703 3866 
L 703 4441 
L 1819 4666 
L 2450 4666 
L 2450 531 
L 3481 531 
L 3481 0 
L 794 0 
L 794 531 
z
" transform="scale(0.015625)"/>
       </defs>
       <use xlink:href="#DejaVuSans-46"/>
       <use xlink:href="#DejaVuSans-43" x="57.519531"/>
       <use xlink:href="#DejaVuSans-31" x="127.34375"/>
      </g>
     </g>
    </g>
    <g id="xtick_5">
     <g id="line2d_5">
      <g>
       <use xlink:href="#md7ed3f6c79" x="403.007512" y="360.429" style="stroke: #000000; stroke-width: 0.8"/>
      </g>
     </g>
     <g id="text_5">
      <!-- FC2 -->
      <g transform="translate(387.730012 379.5865) scale(0.16 -0.16)">
       <defs>
        <path id="DejaVuSans-32" d="M 1228 531 
L 3431 531 
L 3431 0 
L 469 0 
L 469 531 
Q 828 903 1448 1529 
Q 2069 2156 2228 2338 
Q 2531 2678 2651 2914 
Q 2772 3150 2772 3378 
Q 2772 3750 2511 3984 
Q 2250 4219 1831 4219 
Q 1534 4219 1204 4116 
Q 875 4013 500 3803 
L 500 4441 
Q 881 4594 1212 4672 
Q 1544 4750 1819 4750 
Q 2544 4750 2975 4387 
Q 3406 4025 3406 3419 
Q 3406 3131 3298 2873 
Q 3191 2616 2906 2266 
Q 2828 2175 2409 1742 
Q 1991 1309 1228 531 
z
" transform="scale(0.015625)"/>
       </defs>
       <use xlink:href="#DejaVuSans-46"/>
       <use xlink:href="#DejaVuSans-43" x="57.519531"/>
       <use xlink:href="#DejaVuSans-32" x="127.34375"/>
      </g>
     </g>
    </g>
    <g id="xtick_6">
     <g id="line2d_6">
      <g>
       <use xlink:href="#md7ed3f6c79" x="471.355837" y="360.429" style="stroke: #000000; stroke-width: 0.8"/>
      </g>
     </g>
     <g id="text_6">
      <!-- FC3 -->
      <g transform="translate(456.078337 379.5865) scale(0.16 -0.16)">
       <defs>
        <path id="DejaVuSans-33" d="M 2597 2516 
Q 3050 2419 3304 2112 
Q 3559 1806 3559 1356 
Q 3559 666 3084 287 
Q 2609 -91 1734 -91 
Q 1441 -91 1130 -33 
Q 819 25 488 141 
L 488 750 
Q 750 597 1062 519 
Q 1375 441 1716 441 
Q 2309 441 2620 675 
Q 2931 909 2931 1356 
Q 2931 1769 2642 2001 
Q 2353 2234 1838 2234 
L 1294 2234 
L 1294 2753 
L 1863 2753 
Q 2328 2753 2575 2939 
Q 2822 3125 2822 3475 
Q 2822 3834 2567 4026 
Q 2313 4219 1838 4219 
Q 1578 4219 1281 4162 
Q 984 4106 628 3988 
L 628 4550 
Q 988 4650 1302 4700 
Q 1616 4750 1894 4750 
Q 2613 4750 3031 4423 
Q 3450 4097 3450 3541 
Q 3450 3153 3228 2886 
Q 3006 2619 2597 2516 
z
" transform="scale(0.015625)"/>
       </defs>
       <use xlink:href="#DejaVuSans-46"/>
       <use xlink:href="#DejaVuSans-43" x="57.519531"/>
       <use xlink:href="#DejaVuSans-33" x="127.34375"/>
      </g>
     </g>
    </g>
    <g id="xtick_7">
     <g id="line2d_7">
      <g>
       <use xlink:href="#md7ed3f6c79" x="539.704163" y="360.429" style="stroke: #000000; stroke-width: 0.8"/>
      </g>
     </g>
     <g id="text_7">
      <!-- PT -->
      <g transform="translate(529.994163 379.5865) scale(0.16 -0.16)">
       <defs>
        <path id="DejaVuSans-50" d="M 1259 4147 
L 1259 2394 
L 2053 2394 
Q 2494 2394 2734 2622 
Q 2975 2850 2975 3272 
Q 2975 3691 2734 3919 
Q 2494 4147 2053 4147 
L 1259 4147 
z
M 628 4666 
L 2053 4666 
Q 2838 4666 3239 4311 
Q 3641 3956 3641 3272 
Q 3641 2581 3239 2228 
Q 2838 1875 2053 1875 
L 1259 1875 
L 1259 0 
L 628 0 
L 628 4666 
z
" transform="scale(0.015625)"/>
       </defs>
       <use xlink:href="#DejaVuSans-50"/>
       <use xlink:href="#DejaVuSans-54" x="60.302734"/>
      </g>
     </g>
    </g>
    <g id="xtick_8">
     <g id="line2d_8">
      <g>
       <use xlink:href="#md7ed3f6c79" x="608.052488" y="360.429" style="stroke: #000000; stroke-width: 0.8"/>
      </g>
     </g>
     <g id="text_8">
      <!-- CS -->
      <g transform="translate(597.387488 379.5865) scale(0.16 -0.16)">
       <defs>
        <path id="DejaVuSans-53" d="M 3425 4513 
L 3425 3897 
Q 3066 4069 2747 4153 
Q 2428 4238 2131 4238 
Q 1616 4238 1336 4038 
Q 1056 3838 1056 3469 
Q 1056 3159 1242 3001 
Q 1428 2844 1947 2747 
L 2328 2669 
Q 3034 2534 3370 2195 
Q 3706 1856 3706 1288 
Q 3706 609 3251 259 
Q 2797 -91 1919 -91 
Q 1588 -91 1214 -16 
Q 841 59 441 206 
L 441 856 
Q 825 641 1194 531 
Q 1563 422 1919 422 
Q 2459 422 2753 634 
Q 3047 847 3047 1241 
Q 3047 1584 2836 1778 
Q 2625 1972 2144 2069 
L 1759 2144 
Q 1053 2284 737 2584 
Q 422 2884 422 3419 
Q 422 4038 858 4394 
Q 1294 4750 2059 4750 
Q 2388 4750 2728 4690 
Q 3069 4631 3425 4513 
z
" transform="scale(0.015625)"/>
       </defs>
       <use xlink:href="#DejaVuSans-43"/>
       <use xlink:href="#DejaVuSans-53" x="69.824219"/>
      </g>
     </g>
    </g>
    <g id="xtick_9">
     <g id="line2d_9">
      <g>
       <use xlink:href="#md7ed3f6c79" x="676.400813" y="360.429" style="stroke: #000000; stroke-width: 0.8"/>
      </g>
     </g>
     <g id="text_9">
      <!-- PC -->
      <g transform="translate(665.990813 379.5865) scale(0.16 -0.16)">
       <use xlink:href="#DejaVuSans-50"/>
       <use xlink:href="#DejaVuSans-43" x="60.302734"/>
      </g>
     </g>
    </g>
    <g id="xtick_10">
     <g id="line2d_10">
      <g>
       <use xlink:href="#md7ed3f6c79" x="744.749139" y="360.429" style="stroke: #000000; stroke-width: 0.8"/>
      </g>
     </g>
     <g id="text_10">
      <!-- SS1 -->
      <g transform="translate(729.501639 379.5865) scale(0.16 -0.16)">
       <use xlink:href="#DejaVuSans-53"/>
       <use xlink:href="#DejaVuSans-53" x="63.476562"/>
       <use xlink:href="#DejaVuSans-31" x="126.953125"/>
      </g>
     </g>
    </g>
    <g id="xtick_11">
     <g id="line2d_11">
      <g>
       <use xlink:href="#md7ed3f6c79" x="813.097464" y="360.429" style="stroke: #000000; stroke-width: 0.8"/>
      </g>
     </g>
     <g id="text_11">
      <!-- SS8 -->
      <g transform="translate(797.849964 379.5865) scale(0.16 -0.16)">
       <defs>
        <path id="DejaVuSans-38" d="M 2034 2216 
Q 1584 2216 1326 1975 
Q 1069 1734 1069 1313 
Q 1069 891 1326 650 
Q 1584 409 2034 409 
Q 2484 409 2743 651 
Q 3003 894 3003 1313 
Q 3003 1734 2745 1975 
Q 2488 2216 2034 2216 
z
M 1403 2484 
Q 997 2584 770 2862 
Q 544 3141 544 3541 
Q 544 4100 942 4425 
Q 1341 4750 2034 4750 
Q 2731 4750 3128 4425 
Q 3525 4100 3525 3541 
Q 3525 3141 3298 2862 
Q 3072 2584 2669 2484 
Q 3125 2378 3379 2068 
Q 3634 1759 3634 1313 
Q 3634 634 3220 271 
Q 2806 -91 2034 -91 
Q 1263 -91 848 271 
Q 434 634 434 1313 
Q 434 1759 690 2068 
Q 947 2378 1403 2484 
z
M 1172 3481 
Q 1172 3119 1398 2916 
Q 1625 2713 2034 2713 
Q 2441 2713 2670 2916 
Q 2900 3119 2900 3481 
Q 2900 3844 2670 4047 
Q 2441 4250 2034 4250 
Q 1625 4250 1398 4047 
Q 1172 3844 1172 3481 
z
" transform="scale(0.015625)"/>
       </defs>
       <use xlink:href="#DejaVuSans-53"/>
       <use xlink:href="#DejaVuSans-53" x="63.476562"/>
       <use xlink:href="#DejaVuSans-38" x="126.953125"/>
      </g>
     </g>
    </g>
    <g id="xtick_12">
     <g id="line2d_12">
      <g>
       <use xlink:href="#md7ed3f6c79" x="881.445789" y="360.429" style="stroke: #000000; stroke-width: 0.8"/>
      </g>
     </g>
     <g id="text_12">
      <!-- SC -->
      <g transform="translate(870.780789 379.5865) scale(0.16 -0.16)">
       <use xlink:href="#DejaVuSans-53"/>
       <use xlink:href="#DejaVuSans-43" x="63.476562"/>
      </g>
     </g>
    </g>
   </g>
   <g id="matplotlib.axis_2">
    <g id="ytick_1">
     <g id="line2d_13">
      <defs>
       <path id="m14d5c3832d" d="M 0 0 
L -3.5 0 
" style="stroke: #000000; stroke-width: 0.8"/>
      </defs>
      <g>
       <use xlink:href="#m14d5c3832d" x="59.13" y="360.429" style="stroke: #000000; stroke-width: 0.8"/>
      </g>
     </g>
     <g id="text_13">
      <!-- 0.0 -->
      <g transform="translate(26.685 366.50775) scale(0.16 -0.16)">
       <defs>
        <path id="DejaVuSans-30" d="M 2034 4250 
Q 1547 4250 1301 3770 
Q 1056 3291 1056 2328 
Q 1056 1369 1301 889 
Q 1547 409 2034 409 
Q 2525 409 2770 889 
Q 3016 1369 3016 2328 
Q 3016 3291 2770 3770 
Q 2525 4250 2034 4250 
z
M 2034 4750 
Q 2819 4750 3233 4129 
Q 3647 3509 3647 2328 
Q 3647 1150 3233 529 
Q 2819 -91 2034 -91 
Q 1250 -91 836 529 
Q 422 1150 422 2328 
Q 422 3509 836 4129 
Q 1250 4750 2034 4750 
z
" transform="scale(0.015625)"/>
        <path id="DejaVuSans-2e" d="M 684 794 
L 1344 794 
L 1344 0 
L 684 0 
L 684 794 
z
" transform="scale(0.015625)"/>
       </defs>
       <use xlink:href="#DejaVuSans-30"/>
       <use xlink:href="#DejaVuSans-2e" x="63.623047"/>
       <use xlink:href="#DejaVuSans-30" x="95.410156"/>
      </g>
     </g>
    </g>
    <g id="ytick_2">
     <g id="line2d_14">
      <g>
       <use xlink:href="#m14d5c3832d" x="59.13" y="297.069" style="stroke: #000000; stroke-width: 0.8"/>
      </g>
     </g>
     <g id="text_14">
      <!-- 0.2 -->
      <g transform="translate(26.685 303.14775) scale(0.16 -0.16)">
       <use xlink:href="#DejaVuSans-30"/>
       <use xlink:href="#DejaVuSans-2e" x="63.623047"/>
       <use xlink:href="#DejaVuSans-32" x="95.410156"/>
      </g>
     </g>
    </g>
    <g id="ytick_3">
     <g id="line2d_15">
      <g>
       <use xlink:href="#m14d5c3832d" x="59.13" y="233.709" style="stroke: #000000; stroke-width: 0.8"/>
      </g>
     </g>
     <g id="text_15">
      <!-- 0.4 -->
      <g transform="translate(26.685 239.78775) scale(0.16 -0.16)">
       <defs>
        <path id="DejaVuSans-34" d="M 2419 4116 
L 825 1625 
L 2419 1625 
L 2419 4116 
z
M 2253 4666 
L 3047 4666 
L 3047 1625 
L 3713 1625 
L 3713 1100 
L 3047 1100 
L 3047 0 
L 2419 0 
L 2419 1100 
L 313 1100 
L 313 1709 
L 2253 4666 
z
" transform="scale(0.015625)"/>
       </defs>
       <use xlink:href="#DejaVuSans-30"/>
       <use xlink:href="#DejaVuSans-2e" x="63.623047"/>
       <use xlink:href="#DejaVuSans-34" x="95.410156"/>
      </g>
     </g>
    </g>
    <g id="ytick_4">
     <g id="line2d_16">
      <g>
       <use xlink:href="#m14d5c3832d" x="59.13" y="170.349" style="stroke: #000000; stroke-width: 0.8"/>
      </g>
     </g>
     <g id="text_16">
      <!-- 0.6 -->
      <g transform="translate(26.685 176.42775) scale(0.16 -0.16)">
       <defs>
        <path id="DejaVuSans-36" d="M 2113 2584 
Q 1688 2584 1439 2293 
Q 1191 2003 1191 1497 
Q 1191 994 1439 701 
Q 1688 409 2113 409 
Q 2538 409 2786 701 
Q 3034 994 3034 1497 
Q 3034 2003 2786 2293 
Q 2538 2584 2113 2584 
z
M 3366 4563 
L 3366 3988 
Q 3128 4100 2886 4159 
Q 2644 4219 2406 4219 
Q 1781 4219 1451 3797 
Q 1122 3375 1075 2522 
Q 1259 2794 1537 2939 
Q 1816 3084 2150 3084 
Q 2853 3084 3261 2657 
Q 3669 2231 3669 1497 
Q 3669 778 3244 343 
Q 2819 -91 2113 -91 
Q 1303 -91 875 529 
Q 447 1150 447 2328 
Q 447 3434 972 4092 
Q 1497 4750 2381 4750 
Q 2619 4750 2861 4703 
Q 3103 4656 3366 4563 
z
" transform="scale(0.015625)"/>
       </defs>
       <use xlink:href="#DejaVuSans-30"/>
       <use xlink:href="#DejaVuSans-2e" x="63.623047"/>
       <use xlink:href="#DejaVuSans-36" x="95.410156"/>
      </g>
     </g>
    </g>
    <g id="ytick_5">
     <g id="line2d_17">
      <g>
       <use xlink:href="#m14d5c3832d" x="59.13" y="106.989" style="stroke: #000000; stroke-width: 0.8"/>
      </g>
     </g>
     <g id="text_17">
      <!-- 0.8 -->
      <g transform="translate(26.685 113.06775) scale(0.16 -0.16)">
       <use xlink:href="#DejaVuSans-30"/>
       <use xlink:href="#DejaVuSans-2e" x="63.623047"/>
       <use xlink:href="#DejaVuSans-38" x="95.410156"/>
      </g>
     </g>
    </g>
    <g id="ytick_6">
     <g id="line2d_18">
      <g>
       <use xlink:href="#m14d5c3832d" x="59.13" y="43.629" style="stroke: #000000; stroke-width: 0.8"/>
      </g>
     </g>
     <g id="text_18">
      <!-- 1.0 -->
      <g transform="translate(26.685 49.70775) scale(0.16 -0.16)">
       <use xlink:href="#DejaVuSans-31"/>
       <use xlink:href="#DejaVuSans-2e" x="63.623047"/>
       <use xlink:href="#DejaVuSans-30" x="95.410156"/>
      </g>
     </g>
    </g>
    <g id="text_19">
     <!-- Index -->
     <g transform="translate(19.3575 216.13525) rotate(-90) scale(0.16 -0.16)">
      <defs>
       <path id="DejaVuSans-49" d="M 628 4666 
L 1259 4666 
L 1259 0 
L 628 0 
L 628 4666 
z
" transform="scale(0.015625)"/>
       <path id="DejaVuSans-6e" d="M 3513 2113 
L 3513 0 
L 2938 0 
L 2938 2094 
Q 2938 2591 2744 2837 
Q 2550 3084 2163 3084 
Q 1697 3084 1428 2787 
Q 1159 2491 1159 1978 
L 1159 0 
L 581 0 
L 581 3500 
L 1159 3500 
L 1159 2956 
Q 1366 3272 1645 3428 
Q 1925 3584 2291 3584 
Q 2894 3584 3203 3211 
Q 3513 2838 3513 2113 
z
" transform="scale(0.015625)"/>
       <path id="DejaVuSans-64" d="M 2906 2969 
L 2906 4863 
L 3481 4863 
L 3481 0 
L 2906 0 
L 2906 525 
Q 2725 213 2448 61 
Q 2172 -91 1784 -91 
Q 1150 -91 751 415 
Q 353 922 353 1747 
Q 353 2572 751 3078 
Q 1150 3584 1784 3584 
Q 2172 3584 2448 3432 
Q 2725 3281 2906 2969 
z
M 947 1747 
Q 947 1113 1208 752 
Q 1469 391 1925 391 
Q 2381 391 2643 752 
Q 2906 1113 2906 1747 
Q 2906 2381 2643 2742 
Q 2381 3103 1925 3103 
Q 1469 3103 1208 2742 
Q 947 2381 947 1747 
z
" transform="scale(0.015625)"/>
       <path id="DejaVuSans-65" d="M 3597 1894 
L 3597 1613 
L 953 1613 
Q 991 1019 1311 708 
Q 1631 397 2203 397 
Q 2534 397 2845 478 
Q 3156 559 3463 722 
L 3463 178 
Q 3153 47 2828 -22 
Q 2503 -91 2169 -91 
Q 1331 -91 842 396 
Q 353 884 353 1716 
Q 353 2575 817 3079 
Q 1281 3584 2069 3584 
Q 2775 3584 3186 3129 
Q 3597 2675 3597 1894 
z
M 3022 2063 
Q 3016 2534 2758 2815 
Q 2500 3097 2075 3097 
Q 1594 3097 1305 2825 
Q 1016 2553 972 2059 
L 3022 2063 
z
" transform="scale(0.015625)"/>
       <path id="DejaVuSans-78" d="M 3513 3500 
L 2247 1797 
L 3578 0 
L 2900 0 
L 1881 1375 
L 863 0 
L 184 0 
L 1544 1831 
L 300 3500 
L 978 3500 
L 1906 2253 
L 2834 3500 
L 3513 3500 
z
" transform="scale(0.015625)"/>
      </defs>
      <use xlink:href="#DejaVuSans-49"/>
      <use xlink:href="#DejaVuSans-6e" x="29.492188"/>
      <use xlink:href="#DejaVuSans-64" x="92.871094"/>
      <use xlink:href="#DejaVuSans-65" x="156.347656"/>
      <use xlink:href="#DejaVuSans-78" x="216.121094"/>
     </g>
    </g>
   </g>
   <g id="patch_159">
    <path d="M 59.13 360.429 
L 59.13 27.789 
" style="fill: none; stroke: #000000; stroke-width: 0.8; stroke-linejoin: miter; stroke-linecap: square"/>
   </g>
   <g id="patch_160">
    <path d="M 951.93 360.429 
L 951.93 27.789 
" style="fill: none; stroke: #000000; stroke-width: 0.8; stroke-linejoin: miter; stroke-linecap: square"/>
   </g>
   <g id="patch_161">
    <path d="M 59.13 360.429 
L 951.93 360.429 
" style="fill: none; stroke: #000000; stroke-width: 0.8; stroke-linejoin: miter; stroke-linecap: square"/>
   </g>
   <g id="patch_162">
    <path d="M 59.13 27.789 
L 951.93 27.789 
" style="fill: none; stroke: #000000; stroke-width: 0.8; stroke-linejoin: miter; stroke-linecap: square"/>
   </g>
   <g id="text_20">
    <!-- UnixBench Individual Tests Single Core Normalised -->
    <g transform="translate(262.083 21.789) scale(0.192 -0.192)">
     <defs>
      <path id="DejaVuSans-55" d="M 556 4666 
L 1191 4666 
L 1191 1831 
Q 1191 1081 1462 751 
Q 1734 422 2344 422 
Q 2950 422 3222 751 
Q 3494 1081 3494 1831 
L 3494 4666 
L 4128 4666 
L 4128 1753 
Q 4128 841 3676 375 
Q 3225 -91 2344 -91 
Q 1459 -91 1007 375 
Q 556 841 556 1753 
L 556 4666 
z
" transform="scale(0.015625)"/>
      <path id="DejaVuSans-69" d="M 603 3500 
L 1178 3500 
L 1178 0 
L 603 0 
L 603 3500 
z
M 603 4863 
L 1178 4863 
L 1178 4134 
L 603 4134 
L 603 4863 
z
" transform="scale(0.015625)"/>
      <path id="DejaVuSans-42" d="M 1259 2228 
L 1259 519 
L 2272 519 
Q 2781 519 3026 730 
Q 3272 941 3272 1375 
Q 3272 1813 3026 2020 
Q 2781 2228 2272 2228 
L 1259 2228 
z
M 1259 4147 
L 1259 2741 
L 2194 2741 
Q 2656 2741 2882 2914 
Q 3109 3088 3109 3444 
Q 3109 3797 2882 3972 
Q 2656 4147 2194 4147 
L 1259 4147 
z
M 628 4666 
L 2241 4666 
Q 2963 4666 3353 4366 
Q 3744 4066 3744 3513 
Q 3744 3084 3544 2831 
Q 3344 2578 2956 2516 
Q 3422 2416 3680 2098 
Q 3938 1781 3938 1306 
Q 3938 681 3513 340 
Q 3088 0 2303 0 
L 628 0 
L 628 4666 
z
" transform="scale(0.015625)"/>
      <path id="DejaVuSans-63" d="M 3122 3366 
L 3122 2828 
Q 2878 2963 2633 3030 
Q 2388 3097 2138 3097 
Q 1578 3097 1268 2742 
Q 959 2388 959 1747 
Q 959 1106 1268 751 
Q 1578 397 2138 397 
Q 2388 397 2633 464 
Q 2878 531 3122 666 
L 3122 134 
Q 2881 22 2623 -34 
Q 2366 -91 2075 -91 
Q 1284 -91 818 406 
Q 353 903 353 1747 
Q 353 2603 823 3093 
Q 1294 3584 2113 3584 
Q 2378 3584 2631 3529 
Q 2884 3475 3122 3366 
z
" transform="scale(0.015625)"/>
      <path id="DejaVuSans-68" d="M 3513 2113 
L 3513 0 
L 2938 0 
L 2938 2094 
Q 2938 2591 2744 2837 
Q 2550 3084 2163 3084 
Q 1697 3084 1428 2787 
Q 1159 2491 1159 1978 
L 1159 0 
L 581 0 
L 581 4863 
L 1159 4863 
L 1159 2956 
Q 1366 3272 1645 3428 
Q 1925 3584 2291 3584 
Q 2894 3584 3203 3211 
Q 3513 2838 3513 2113 
z
" transform="scale(0.015625)"/>
      <path id="DejaVuSans-20" transform="scale(0.015625)"/>
      <path id="DejaVuSans-76" d="M 191 3500 
L 800 3500 
L 1894 563 
L 2988 3500 
L 3597 3500 
L 2284 0 
L 1503 0 
L 191 3500 
z
" transform="scale(0.015625)"/>
      <path id="DejaVuSans-75" d="M 544 1381 
L 544 3500 
L 1119 3500 
L 1119 1403 
Q 1119 906 1312 657 
Q 1506 409 1894 409 
Q 2359 409 2629 706 
Q 2900 1003 2900 1516 
L 2900 3500 
L 3475 3500 
L 3475 0 
L 2900 0 
L 2900 538 
Q 2691 219 2414 64 
Q 2138 -91 1772 -91 
Q 1169 -91 856 284 
Q 544 659 544 1381 
z
M 1991 3584 
L 1991 3584 
z
" transform="scale(0.015625)"/>
      <path id="DejaVuSans-61" d="M 2194 1759 
Q 1497 1759 1228 1600 
Q 959 1441 959 1056 
Q 959 750 1161 570 
Q 1363 391 1709 391 
Q 2188 391 2477 730 
Q 2766 1069 2766 1631 
L 2766 1759 
L 2194 1759 
z
M 3341 1997 
L 3341 0 
L 2766 0 
L 2766 531 
Q 2569 213 2275 61 
Q 1981 -91 1556 -91 
Q 1019 -91 701 211 
Q 384 513 384 1019 
Q 384 1609 779 1909 
Q 1175 2209 1959 2209 
L 2766 2209 
L 2766 2266 
Q 2766 2663 2505 2880 
Q 2244 3097 1772 3097 
Q 1472 3097 1187 3025 
Q 903 2953 641 2809 
L 641 3341 
Q 956 3463 1253 3523 
Q 1550 3584 1831 3584 
Q 2591 3584 2966 3190 
Q 3341 2797 3341 1997 
z
" transform="scale(0.015625)"/>
      <path id="DejaVuSans-6c" d="M 603 4863 
L 1178 4863 
L 1178 0 
L 603 0 
L 603 4863 
z
" transform="scale(0.015625)"/>
      <path id="DejaVuSans-73" d="M 2834 3397 
L 2834 2853 
Q 2591 2978 2328 3040 
Q 2066 3103 1784 3103 
Q 1356 3103 1142 2972 
Q 928 2841 928 2578 
Q 928 2378 1081 2264 
Q 1234 2150 1697 2047 
L 1894 2003 
Q 2506 1872 2764 1633 
Q 3022 1394 3022 966 
Q 3022 478 2636 193 
Q 2250 -91 1575 -91 
Q 1294 -91 989 -36 
Q 684 19 347 128 
L 347 722 
Q 666 556 975 473 
Q 1284 391 1588 391 
Q 1994 391 2212 530 
Q 2431 669 2431 922 
Q 2431 1156 2273 1281 
Q 2116 1406 1581 1522 
L 1381 1569 
Q 847 1681 609 1914 
Q 372 2147 372 2553 
Q 372 3047 722 3315 
Q 1072 3584 1716 3584 
Q 2034 3584 2315 3537 
Q 2597 3491 2834 3397 
z
" transform="scale(0.015625)"/>
      <path id="DejaVuSans-74" d="M 1172 4494 
L 1172 3500 
L 2356 3500 
L 2356 3053 
L 1172 3053 
L 1172 1153 
Q 1172 725 1289 603 
Q 1406 481 1766 481 
L 2356 481 
L 2356 0 
L 1766 0 
Q 1100 0 847 248 
Q 594 497 594 1153 
L 594 3053 
L 172 3053 
L 172 3500 
L 594 3500 
L 594 4494 
L 1172 4494 
z
" transform="scale(0.015625)"/>
      <path id="DejaVuSans-67" d="M 2906 1791 
Q 2906 2416 2648 2759 
Q 2391 3103 1925 3103 
Q 1463 3103 1205 2759 
Q 947 2416 947 1791 
Q 947 1169 1205 825 
Q 1463 481 1925 481 
Q 2391 481 2648 825 
Q 2906 1169 2906 1791 
z
M 3481 434 
Q 3481 -459 3084 -895 
Q 2688 -1331 1869 -1331 
Q 1566 -1331 1297 -1286 
Q 1028 -1241 775 -1147 
L 775 -588 
Q 1028 -725 1275 -790 
Q 1522 -856 1778 -856 
Q 2344 -856 2625 -561 
Q 2906 -266 2906 331 
L 2906 616 
Q 2728 306 2450 153 
Q 2172 0 1784 0 
Q 1141 0 747 490 
Q 353 981 353 1791 
Q 353 2603 747 3093 
Q 1141 3584 1784 3584 
Q 2172 3584 2450 3431 
Q 2728 3278 2906 2969 
L 2906 3500 
L 3481 3500 
L 3481 434 
z
" transform="scale(0.015625)"/>
      <path id="DejaVuSans-6f" d="M 1959 3097 
Q 1497 3097 1228 2736 
Q 959 2375 959 1747 
Q 959 1119 1226 758 
Q 1494 397 1959 397 
Q 2419 397 2687 759 
Q 2956 1122 2956 1747 
Q 2956 2369 2687 2733 
Q 2419 3097 1959 3097 
z
M 1959 3584 
Q 2709 3584 3137 3096 
Q 3566 2609 3566 1747 
Q 3566 888 3137 398 
Q 2709 -91 1959 -91 
Q 1206 -91 779 398 
Q 353 888 353 1747 
Q 353 2609 779 3096 
Q 1206 3584 1959 3584 
z
" transform="scale(0.015625)"/>
      <path id="DejaVuSans-72" d="M 2631 2963 
Q 2534 3019 2420 3045 
Q 2306 3072 2169 3072 
Q 1681 3072 1420 2755 
Q 1159 2438 1159 1844 
L 1159 0 
L 581 0 
L 581 3500 
L 1159 3500 
L 1159 2956 
Q 1341 3275 1631 3429 
Q 1922 3584 2338 3584 
Q 2397 3584 2469 3576 
Q 2541 3569 2628 3553 
L 2631 2963 
z
" transform="scale(0.015625)"/>
      <path id="DejaVuSans-4e" d="M 628 4666 
L 1478 4666 
L 3547 763 
L 3547 4666 
L 4159 4666 
L 4159 0 
L 3309 0 
L 1241 3903 
L 1241 0 
L 628 0 
L 628 4666 
z
" transform="scale(0.015625)"/>
      <path id="DejaVuSans-6d" d="M 3328 2828 
Q 3544 3216 3844 3400 
Q 4144 3584 4550 3584 
Q 5097 3584 5394 3201 
Q 5691 2819 5691 2113 
L 5691 0 
L 5113 0 
L 5113 2094 
Q 5113 2597 4934 2840 
Q 4756 3084 4391 3084 
Q 3944 3084 3684 2787 
Q 3425 2491 3425 1978 
L 3425 0 
L 2847 0 
L 2847 2094 
Q 2847 2600 2669 2842 
Q 2491 3084 2119 3084 
Q 1678 3084 1418 2786 
Q 1159 2488 1159 1978 
L 1159 0 
L 581 0 
L 581 3500 
L 1159 3500 
L 1159 2956 
Q 1356 3278 1631 3431 
Q 1906 3584 2284 3584 
Q 2666 3584 2933 3390 
Q 3200 3197 3328 2828 
z
" transform="scale(0.015625)"/>
     </defs>
     <use xlink:href="#DejaVuSans-55"/>
     <use xlink:href="#DejaVuSans-6e" x="73.193359"/>
     <use xlink:href="#DejaVuSans-69" x="136.572266"/>
     <use xlink:href="#DejaVuSans-78" x="164.355469"/>
     <use xlink:href="#DejaVuSans-42" x="223.535156"/>
     <use xlink:href="#DejaVuSans-65" x="292.138672"/>
     <use xlink:href="#DejaVuSans-6e" x="353.662109"/>
     <use xlink:href="#DejaVuSans-63" x="417.041016"/>
     <use xlink:href="#DejaVuSans-68" x="472.021484"/>
     <use xlink:href="#DejaVuSans-20" x="535.400391"/>
     <use xlink:href="#DejaVuSans-49" x="567.1875"/>
     <use xlink:href="#DejaVuSans-6e" x="596.679688"/>
     <use xlink:href="#DejaVuSans-64" x="660.058594"/>
     <use xlink:href="#DejaVuSans-69" x="723.535156"/>
     <use xlink:href="#DejaVuSans-76" x="751.318359"/>
     <use xlink:href="#DejaVuSans-69" x="810.498047"/>
     <use xlink:href="#DejaVuSans-64" x="838.28125"/>
     <use xlink:href="#DejaVuSans-75" x="901.757812"/>
     <use xlink:href="#DejaVuSans-61" x="965.136719"/>
     <use xlink:href="#DejaVuSans-6c" x="1026.416016"/>
     <use xlink:href="#DejaVuSans-20" x="1054.199219"/>
     <use xlink:href="#DejaVuSans-54" x="1085.986328"/>
     <use xlink:href="#DejaVuSans-65" x="1130.070312"/>
     <use xlink:href="#DejaVuSans-73" x="1191.59375"/>
     <use xlink:href="#DejaVuSans-74" x="1243.693359"/>
     <use xlink:href="#DejaVuSans-73" x="1282.902344"/>
     <use xlink:href="#DejaVuSans-20" x="1335.001953"/>
     <use xlink:href="#DejaVuSans-53" x="1366.789062"/>
     <use xlink:href="#DejaVuSans-69" x="1430.265625"/>
     <use xlink:href="#DejaVuSans-6e" x="1458.048828"/>
     <use xlink:href="#DejaVuSans-67" x="1521.427734"/>
     <use xlink:href="#DejaVuSans-6c" x="1584.904297"/>
     <use xlink:href="#DejaVuSans-65" x="1612.6875"/>
     <use xlink:href="#DejaVuSans-20" x="1674.210938"/>
     <use xlink:href="#DejaVuSans-43" x="1705.998047"/>
     <use xlink:href="#DejaVuSans-6f" x="1775.822266"/>
     <use xlink:href="#DejaVuSans-72" x="1837.003906"/>
     <use xlink:href="#DejaVuSans-65" x="1875.867188"/>
     <use xlink:href="#DejaVuSans-20" x="1937.390625"/>
     <use xlink:href="#DejaVuSans-4e" x="1969.177734"/>
     <use xlink:href="#DejaVuSans-6f" x="2043.982422"/>
     <use xlink:href="#DejaVuSans-72" x="2105.164062"/>
     <use xlink:href="#DejaVuSans-6d" x="2144.527344"/>
     <use xlink:href="#DejaVuSans-61" x="2241.939453"/>
     <use xlink:href="#DejaVuSans-6c" x="2303.21875"/>
     <use xlink:href="#DejaVuSans-69" x="2331.001953"/>
     <use xlink:href="#DejaVuSans-73" x="2358.785156"/>
     <use xlink:href="#DejaVuSans-65" x="2410.884766"/>
     <use xlink:href="#DejaVuSans-64" x="2472.408203"/>
    </g>
   </g>
   <g id="legend_1">
    <g id="patch_163">
     <path d="M 59.5175 478.948 
L 955.5425 478.948 
Q 958.7425 478.948 958.7425 475.748 
L 958.7425 406.893 
Q 958.7425 403.693 955.5425 403.693 
L 59.5175 403.693 
Q 56.3175 403.693 56.3175 406.893 
L 56.3175 475.748 
Q 56.3175 478.948 59.5175 478.948 
z
" style="fill: #4d4d4d; opacity: 0.5; stroke: #4d4d4d; stroke-linejoin: miter"/>
    </g>
    <g id="patch_164">
     <path d="M 57.5175 476.948 
L 953.5425 476.948 
Q 956.7425 476.948 956.7425 473.748 
L 956.7425 404.893 
Q 956.7425 401.693 953.5425 401.693 
L 57.5175 401.693 
Q 54.3175 401.693 54.3175 404.893 
L 54.3175 473.748 
Q 54.3175 476.948 57.5175 476.948 
z
" style="fill: #ffffff; stroke: #cccccc; stroke-linejoin: miter"/>
    </g>
    <g id="patch_165">
     <path d="M 60.7175 420.2505 
L 92.7175 420.2505 
L 92.7175 409.0505 
L 60.7175 409.0505 
z
" style="fill: #011959"/>
    </g>
    <g id="text_21">
     <!-- a1.metal -->
     <g transform="translate(105.5175 420.2505) scale(0.16 -0.16)">
      <use xlink:href="#DejaVuSans-61"/>
      <use xlink:href="#DejaVuSans-31" x="61.279297"/>
      <use xlink:href="#DejaVuSans-2e" x="124.902344"/>
      <use xlink:href="#DejaVuSans-6d" x="156.689453"/>
      <use xlink:href="#DejaVuSans-65" x="254.101562"/>
      <use xlink:href="#DejaVuSans-74" x="315.625"/>
      <use xlink:href="#DejaVuSans-61" x="354.833984"/>
      <use xlink:href="#DejaVuSans-6c" x="416.113281"/>
     </g>
    </g>
    <g id="patch_166">
     <path d="M 60.7175 443.7355 
L 92.7175 443.7355 
L 92.7175 432.5355 
L 60.7175 432.5355 
z
" style="fill: #faccfa"/>
    </g>
    <g id="text_22">
     <!-- c3.8xlarge -->
     <g transform="translate(105.5175 443.7355) scale(0.16 -0.16)">
      <use xlink:href="#DejaVuSans-63"/>
      <use xlink:href="#DejaVuSans-33" x="54.980469"/>
      <use xlink:href="#DejaVuSans-2e" x="118.603516"/>
      <use xlink:href="#DejaVuSans-38" x="150.390625"/>
      <use xlink:href="#DejaVuSans-78" x="214.013672"/>
      <use xlink:href="#DejaVuSans-6c" x="273.193359"/>
      <use xlink:href="#DejaVuSans-61" x="300.976562"/>
      <use xlink:href="#DejaVuSans-72" x="362.255859"/>
      <use xlink:href="#DejaVuSans-67" x="401.619141"/>
      <use xlink:href="#DejaVuSans-65" x="465.095703"/>
     </g>
    </g>
    <g id="patch_167">
     <path d="M 60.7175 467.2205 
L 92.7175 467.2205 
L 92.7175 456.0205 
L 60.7175 456.0205 
z
" style="fill: #828231"/>
    </g>
    <g id="text_23">
     <!-- c4.8xlarge -->
     <g transform="translate(105.5175 467.2205) scale(0.16 -0.16)">
      <use xlink:href="#DejaVuSans-63"/>
      <use xlink:href="#DejaVuSans-34" x="54.980469"/>
      <use xlink:href="#DejaVuSans-2e" x="118.603516"/>
      <use xlink:href="#DejaVuSans-38" x="150.390625"/>
      <use xlink:href="#DejaVuSans-78" x="214.013672"/>
      <use xlink:href="#DejaVuSans-6c" x="273.193359"/>
      <use xlink:href="#DejaVuSans-61" x="300.976562"/>
      <use xlink:href="#DejaVuSans-72" x="362.255859"/>
      <use xlink:href="#DejaVuSans-67" x="401.619141"/>
      <use xlink:href="#DejaVuSans-65" x="465.095703"/>
     </g>
    </g>
    <g id="patch_168">
     <path d="M 221.78 420.2505 
L 253.78 420.2505 
L 253.78 409.0505 
L 221.78 409.0505 
z
" style="fill: #226061"/>
    </g>
    <g id="text_24">
     <!-- c5.metal -->
     <g transform="translate(266.58 420.2505) scale(0.16 -0.16)">
      <defs>
       <path id="DejaVuSans-35" d="M 691 4666 
L 3169 4666 
L 3169 4134 
L 1269 4134 
L 1269 2991 
Q 1406 3038 1543 3061 
Q 1681 3084 1819 3084 
Q 2600 3084 3056 2656 
Q 3513 2228 3513 1497 
Q 3513 744 3044 326 
Q 2575 -91 1722 -91 
Q 1428 -91 1123 -41 
Q 819 9 494 109 
L 494 744 
Q 775 591 1075 516 
Q 1375 441 1709 441 
Q 2250 441 2565 725 
Q 2881 1009 2881 1497 
Q 2881 1984 2565 2268 
Q 2250 2553 1709 2553 
Q 1456 2553 1204 2497 
Q 953 2441 691 2322 
L 691 4666 
z
" transform="scale(0.015625)"/>
      </defs>
      <use xlink:href="#DejaVuSans-63"/>
      <use xlink:href="#DejaVuSans-35" x="54.980469"/>
      <use xlink:href="#DejaVuSans-2e" x="118.603516"/>
      <use xlink:href="#DejaVuSans-6d" x="150.390625"/>
      <use xlink:href="#DejaVuSans-65" x="247.802734"/>
      <use xlink:href="#DejaVuSans-74" x="309.326172"/>
      <use xlink:href="#DejaVuSans-61" x="348.535156"/>
      <use xlink:href="#DejaVuSans-6c" x="409.814453"/>
     </g>
    </g>
    <g id="patch_169">
     <path d="M 221.78 443.7355 
L 253.78 443.7355 
L 253.78 432.5355 
L 221.78 432.5355 
z
" style="fill: #f19d6b"/>
    </g>
    <g id="text_25">
     <!-- c5a.24xlarge -->
     <g transform="translate(266.58 443.7355) scale(0.16 -0.16)">
      <use xlink:href="#DejaVuSans-63"/>
      <use xlink:href="#DejaVuSans-35" x="54.980469"/>
      <use xlink:href="#DejaVuSans-61" x="118.603516"/>
      <use xlink:href="#DejaVuSans-2e" x="179.882812"/>
      <use xlink:href="#DejaVuSans-32" x="211.669922"/>
      <use xlink:href="#DejaVuSans-34" x="275.292969"/>
      <use xlink:href="#DejaVuSans-78" x="338.916016"/>
      <use xlink:href="#DejaVuSans-6c" x="398.095703"/>
      <use xlink:href="#DejaVuSans-61" x="425.878906"/>
      <use xlink:href="#DejaVuSans-72" x="487.158203"/>
      <use xlink:href="#DejaVuSans-67" x="526.521484"/>
      <use xlink:href="#DejaVuSans-65" x="589.998047"/>
     </g>
    </g>
    <g id="patch_170">
     <path d="M 221.78 467.2205 
L 253.78 467.2205 
L 253.78 456.0205 
L 221.78 456.0205 
z
" style="fill: #4d734d"/>
    </g>
    <g id="text_26">
     <!-- c6a.metal -->
     <g transform="translate(266.58 467.2205) scale(0.16 -0.16)">
      <use xlink:href="#DejaVuSans-63"/>
      <use xlink:href="#DejaVuSans-36" x="54.980469"/>
      <use xlink:href="#DejaVuSans-61" x="118.603516"/>
      <use xlink:href="#DejaVuSans-2e" x="179.882812"/>
      <use xlink:href="#DejaVuSans-6d" x="211.669922"/>
      <use xlink:href="#DejaVuSans-65" x="309.082031"/>
      <use xlink:href="#DejaVuSans-74" x="370.605469"/>
      <use xlink:href="#DejaVuSans-61" x="409.814453"/>
      <use xlink:href="#DejaVuSans-6c" x="471.09375"/>
     </g>
    </g>
    <g id="patch_171">
     <path d="M 402.8275 420.2505 
L 434.8275 420.2505 
L 434.8275 409.0505 
L 402.8275 409.0505 
z
" style="fill: #114360"/>
    </g>
    <g id="text_27">
     <!-- c6g.metal -->
     <g transform="translate(447.6275 420.2505) scale(0.16 -0.16)">
      <use xlink:href="#DejaVuSans-63"/>
      <use xlink:href="#DejaVuSans-36" x="54.980469"/>
      <use xlink:href="#DejaVuSans-67" x="118.603516"/>
      <use xlink:href="#DejaVuSans-2e" x="182.080078"/>
      <use xlink:href="#DejaVuSans-6d" x="213.867188"/>
      <use xlink:href="#DejaVuSans-65" x="311.279297"/>
      <use xlink:href="#DejaVuSans-74" x="372.802734"/>
      <use xlink:href="#DejaVuSans-61" x="412.011719"/>
      <use xlink:href="#DejaVuSans-6c" x="473.291016"/>
     </g>
    </g>
    <g id="patch_172">
     <path d="M 402.8275 443.7355 
L 434.8275 443.7355 
L 434.8275 432.5355 
L 402.8275 432.5355 
z
" style="fill: #fdb4b4"/>
    </g>
    <g id="text_28">
     <!-- c6i.metal -->
     <g transform="translate(447.6275 443.7355) scale(0.16 -0.16)">
      <use xlink:href="#DejaVuSans-63"/>
      <use xlink:href="#DejaVuSans-36" x="54.980469"/>
      <use xlink:href="#DejaVuSans-69" x="118.603516"/>
      <use xlink:href="#DejaVuSans-2e" x="146.386719"/>
      <use xlink:href="#DejaVuSans-6d" x="178.173828"/>
      <use xlink:href="#DejaVuSans-65" x="275.585938"/>
      <use xlink:href="#DejaVuSans-74" x="337.109375"/>
      <use xlink:href="#DejaVuSans-61" x="376.318359"/>
      <use xlink:href="#DejaVuSans-6c" x="437.597656"/>
     </g>
    </g>
    <g id="patch_173">
     <path d="M 402.8275 467.2205 
L 434.8275 467.2205 
L 434.8275 456.0205 
L 402.8275 456.0205 
z
" style="fill: #c09036"/>
    </g>
    <g id="text_29">
     <!-- c7a.metal-48xl -->
     <g transform="translate(447.6275 467.2205) scale(0.16 -0.16)">
      <defs>
       <path id="DejaVuSans-37" d="M 525 4666 
L 3525 4666 
L 3525 4397 
L 1831 0 
L 1172 0 
L 2766 4134 
L 525 4134 
L 525 4666 
z
" transform="scale(0.015625)"/>
       <path id="DejaVuSans-2d" d="M 313 2009 
L 1997 2009 
L 1997 1497 
L 313 1497 
L 313 2009 
z
" transform="scale(0.015625)"/>
      </defs>
      <use xlink:href="#DejaVuSans-63"/>
      <use xlink:href="#DejaVuSans-37" x="54.980469"/>
      <use xlink:href="#DejaVuSans-61" x="118.603516"/>
      <use xlink:href="#DejaVuSans-2e" x="179.882812"/>
      <use xlink:href="#DejaVuSans-6d" x="211.669922"/>
      <use xlink:href="#DejaVuSans-65" x="309.082031"/>
      <use xlink:href="#DejaVuSans-74" x="370.605469"/>
      <use xlink:href="#DejaVuSans-61" x="409.814453"/>
      <use xlink:href="#DejaVuSans-6c" x="471.09375"/>
      <use xlink:href="#DejaVuSans-2d" x="498.876953"/>
      <use xlink:href="#DejaVuSans-34" x="534.960938"/>
      <use xlink:href="#DejaVuSans-38" x="598.583984"/>
      <use xlink:href="#DejaVuSans-78" x="662.207031"/>
      <use xlink:href="#DejaVuSans-6c" x="721.386719"/>
     </g>
    </g>
    <g id="patch_174">
     <path d="M 599.495 420.2505 
L 631.495 420.2505 
L 631.495 409.0505 
L 599.495 409.0505 
z
" style="fill: #175262"/>
    </g>
    <g id="text_30">
     <!-- c7g.metal -->
     <g transform="translate(644.295 420.2505) scale(0.16 -0.16)">
      <use xlink:href="#DejaVuSans-63"/>
      <use xlink:href="#DejaVuSans-37" x="54.980469"/>
      <use xlink:href="#DejaVuSans-67" x="118.603516"/>
      <use xlink:href="#DejaVuSans-2e" x="182.080078"/>
      <use xlink:href="#DejaVuSans-6d" x="213.867188"/>
      <use xlink:href="#DejaVuSans-65" x="311.279297"/>
      <use xlink:href="#DejaVuSans-74" x="372.802734"/>
      <use xlink:href="#DejaVuSans-61" x="412.011719"/>
      <use xlink:href="#DejaVuSans-6c" x="473.291016"/>
     </g>
    </g>
    <g id="patch_175">
     <path d="M 599.495 443.7355 
L 631.495 443.7355 
L 631.495 432.5355 
L 599.495 432.5355 
z
" style="fill: #fcbfd6"/>
    </g>
    <g id="text_31">
     <!-- c7gn.16xlarge -->
     <g transform="translate(644.295 443.7355) scale(0.16 -0.16)">
      <use xlink:href="#DejaVuSans-63"/>
      <use xlink:href="#DejaVuSans-37" x="54.980469"/>
      <use xlink:href="#DejaVuSans-67" x="118.603516"/>
      <use xlink:href="#DejaVuSans-6e" x="182.080078"/>
      <use xlink:href="#DejaVuSans-2e" x="245.458984"/>
      <use xlink:href="#DejaVuSans-31" x="277.246094"/>
      <use xlink:href="#DejaVuSans-36" x="340.869141"/>
      <use xlink:href="#DejaVuSans-78" x="404.492188"/>
      <use xlink:href="#DejaVuSans-6c" x="463.671875"/>
      <use xlink:href="#DejaVuSans-61" x="491.455078"/>
      <use xlink:href="#DejaVuSans-72" x="552.734375"/>
      <use xlink:href="#DejaVuSans-67" x="592.097656"/>
      <use xlink:href="#DejaVuSans-65" x="655.574219"/>
     </g>
    </g>
    <g id="patch_176">
     <path d="M 791.035 420.2505 
L 823.035 420.2505 
L 823.035 409.0505 
L 791.035 409.0505 
z
" style="fill: #fca890"/>
    </g>
    <g id="text_32">
     <!-- c7i.metal-48xl -->
     <g transform="translate(835.835 420.2505) scale(0.16 -0.16)">
      <use xlink:href="#DejaVuSans-63"/>
      <use xlink:href="#DejaVuSans-37" x="54.980469"/>
      <use xlink:href="#DejaVuSans-69" x="118.603516"/>
      <use xlink:href="#DejaVuSans-2e" x="146.386719"/>
      <use xlink:href="#DejaVuSans-6d" x="178.173828"/>
      <use xlink:href="#DejaVuSans-65" x="275.585938"/>
      <use xlink:href="#DejaVuSans-74" x="337.109375"/>
      <use xlink:href="#DejaVuSans-61" x="376.318359"/>
      <use xlink:href="#DejaVuSans-6c" x="437.597656"/>
      <use xlink:href="#DejaVuSans-2d" x="465.380859"/>
      <use xlink:href="#DejaVuSans-34" x="501.464844"/>
      <use xlink:href="#DejaVuSans-38" x="565.087891"/>
      <use xlink:href="#DejaVuSans-78" x="628.710938"/>
      <use xlink:href="#DejaVuSans-6c" x="687.890625"/>
     </g>
    </g>
    <g id="patch_177">
     <path d="M 791.035 443.7355 
L 823.035 443.7355 
L 823.035 432.5355 
L 791.035 432.5355 
z
" style="fill: #356a59"/>
    </g>
    <g id="text_33">
     <!-- m5a.24xlarge -->
     <g transform="translate(835.835 443.7355) scale(0.16 -0.16)">
      <use xlink:href="#DejaVuSans-6d"/>
      <use xlink:href="#DejaVuSans-35" x="97.412109"/>
      <use xlink:href="#DejaVuSans-61" x="161.035156"/>
      <use xlink:href="#DejaVuSans-2e" x="222.314453"/>
      <use xlink:href="#DejaVuSans-32" x="254.101562"/>
      <use xlink:href="#DejaVuSans-34" x="317.724609"/>
      <use xlink:href="#DejaVuSans-78" x="381.347656"/>
      <use xlink:href="#DejaVuSans-6c" x="440.527344"/>
      <use xlink:href="#DejaVuSans-61" x="468.310547"/>
      <use xlink:href="#DejaVuSans-72" x="529.589844"/>
      <use xlink:href="#DejaVuSans-67" x="568.953125"/>
      <use xlink:href="#DejaVuSans-65" x="632.429688"/>
     </g>
    </g>
   </g>
  </g>
 </g>
 <defs>
  <clipPath id="p4a5ff96e67">
   <rect x="59.13" y="27.789" width="892.8" height="332.64"/>
  </clipPath>
 </defs>
</svg>
