<?xml version="1.0" encoding="utf-8" standalone="no"?>
<!DOCTYPE svg PUBLIC "-//W3C//DTD SVG 1.1//EN"
  "http://www.w3.org/Graphics/SVG/1.1/DTD/svg11.dtd">
<svg xmlns:xlink="http://www.w3.org/1999/xlink" width="564.44125pt" height="578.088pt" viewBox="0 0 564.44125 578.088" xmlns="http://www.w3.org/2000/svg" version="1.1">
 <metadata>
  <rdf:RDF xmlns:dc="http://purl.org/dc/elements/1.1/" xmlns:cc="http://creativecommons.org/ns#" xmlns:rdf="http://www.w3.org/1999/02/22-rdf-syntax-ns#">
   <cc:Work>
    <dc:type rdf:resource="http://purl.org/dc/dcmitype/StillImage"/>
    <dc:date>2024-04-13T23:02:10.135866</dc:date>
    <dc:format>image/svg+xml</dc:format>
    <dc:creator>
     <cc:Agent>
      <dc:title>Matplotlib v3.8.2, https://matplotlib.org/</dc:title>
     </cc:Agent>
    </dc:creator>
   </cc:Work>
  </rdf:RDF>
 </metadata>
 <defs>
  <style type="text/css">*{stroke-linejoin: round; stroke-linecap: butt}</style>
 </defs>
 <g id="figure_1">
  <g id="patch_1">
   <path d="M 0 578.088 
L 564.44125 578.088 
L 564.44125 0 
L 0 0 
z
" style="fill: #ffffff"/>
  </g>
  <g id="axes_1">
   <g id="patch_2">
    <path d="M 59.13 360.429 
L 505.53 360.429 
L 505.53 27.789 
L 59.13 27.789 
z
" style="fill: #ffffff"/>
   </g>
   <g id="patch_3">
    <path d="M 79.420909 360.429 
L 80.916029 360.429 
L 80.916029 233.006954 
L 79.420909 233.006954 
z
" clip-path="url(#p377714eb47)" style="fill: #011959"/>
   </g>
   <g id="patch_4">
    <path d="M 113.595072 360.429 
L 115.090191 360.429 
L 115.090191 246.298286 
L 113.595072 246.298286 
z
" clip-path="url(#p377714eb47)" style="fill: #011959"/>
   </g>
   <g id="patch_5">
    <path d="M 147.769234 360.429 
L 149.264354 360.429 
L 149.264354 246.298286 
L 147.769234 246.298286 
z
" clip-path="url(#p377714eb47)" style="fill: #011959"/>
   </g>
   <g id="patch_6">
    <path d="M 181.943397 360.429 
L 183.438517 360.429 
L 183.438517 320.104271 
L 181.943397 320.104271 
z
" clip-path="url(#p377714eb47)" style="fill: #011959"/>
   </g>
   <g id="patch_7">
    <path d="M 216.11756 360.429 
L 217.612679 360.429 
L 217.612679 320.466457 
L 216.11756 320.466457 
z
" clip-path="url(#p377714eb47)" style="fill: #011959"/>
   </g>
   <g id="patch_8">
    <path d="M 250.291722 360.429 
L 251.786842 360.429 
L 251.786842 315.159164 
L 250.291722 315.159164 
z
" clip-path="url(#p377714eb47)" style="fill: #011959"/>
   </g>
   <g id="patch_9">
    <path d="M 284.465885 360.429 
L 285.961005 360.429 
L 285.961005 319.999562 
L 284.465885 319.999562 
z
" clip-path="url(#p377714eb47)" style="fill: #011959"/>
   </g>
   <g id="patch_10">
    <path d="M 318.640048 360.429 
L 320.135167 360.429 
L 320.135167 252.267965 
L 318.640048 252.267965 
z
" clip-path="url(#p377714eb47)" style="fill: #011959"/>
   </g>
   <g id="patch_11">
    <path d="M 352.814211 360.429 
L 354.30933 360.429 
L 354.30933 186.458098 
L 352.814211 186.458098 
z
" clip-path="url(#p377714eb47)" style="fill: #011959"/>
   </g>
   <g id="patch_12">
    <path d="M 386.988373 360.429 
L 388.483493 360.429 
L 388.483493 218.366675 
L 386.988373 218.366675 
z
" clip-path="url(#p377714eb47)" style="fill: #011959"/>
   </g>
   <g id="patch_13">
    <path d="M 421.162536 360.429 
L 422.657656 360.429 
L 422.657656 225.74873 
L 421.162536 225.74873 
z
" clip-path="url(#p377714eb47)" style="fill: #011959"/>
   </g>
   <g id="patch_14">
    <path d="M 455.336699 360.429 
L 456.831818 360.429 
L 456.831818 323.652545 
L 455.336699 323.652545 
z
" clip-path="url(#p377714eb47)" style="fill: #011959"/>
   </g>
   <g id="patch_15">
    <path d="M 80.916029 360.429 
L 82.411148 360.429 
L 82.411148 166.624288 
L 80.916029 166.624288 
z
" clip-path="url(#p377714eb47)" style="fill: #faccfa"/>
   </g>
   <g id="patch_16">
    <path d="M 115.090191 360.429 
L 116.585311 360.429 
L 116.585311 187.563463 
L 115.090191 187.563463 
z
" clip-path="url(#p377714eb47)" style="fill: #faccfa"/>
   </g>
   <g id="patch_17">
    <path d="M 149.264354 360.429 
L 150.759474 360.429 
L 150.759474 187.563463 
L 149.264354 187.563463 
z
" clip-path="url(#p377714eb47)" style="fill: #faccfa"/>
   </g>
   <g id="patch_18">
    <path d="M 183.438517 360.429 
L 184.933636 360.429 
L 184.933636 263.077396 
L 183.438517 263.077396 
z
" clip-path="url(#p377714eb47)" style="fill: #faccfa"/>
   </g>
   <g id="patch_19">
    <path d="M 217.612679 360.429 
L 219.107799 360.429 
L 219.107799 271.632269 
L 217.612679 271.632269 
z
" clip-path="url(#p377714eb47)" style="fill: #faccfa"/>
   </g>
   <g id="patch_20">
    <path d="M 251.786842 360.429 
L 253.281962 360.429 
L 253.281962 237.036488 
L 251.786842 237.036488 
z
" clip-path="url(#p377714eb47)" style="fill: #faccfa"/>
   </g>
   <g id="patch_21">
    <path d="M 285.961005 360.429 
L 287.456124 360.429 
L 287.456124 291.028153 
L 285.961005 291.028153 
z
" clip-path="url(#p377714eb47)" style="fill: #faccfa"/>
   </g>
   <g id="patch_22">
    <path d="M 320.135167 360.429 
L 321.630287 360.429 
L 321.630287 253.63385 
L 320.135167 253.63385 
z
" clip-path="url(#p377714eb47)" style="fill: #faccfa"/>
   </g>
   <g id="patch_23">
    <path d="M 354.30933 360.429 
L 355.80445 360.429 
L 355.80445 121.000512 
L 354.30933 121.000512 
z
" clip-path="url(#p377714eb47)" style="fill: #faccfa"/>
   </g>
   <g id="patch_24">
    <path d="M 388.483493 360.429 
L 389.978612 360.429 
L 389.978612 152.072858 
L 388.483493 152.072858 
z
" clip-path="url(#p377714eb47)" style="fill: #faccfa"/>
   </g>
   <g id="patch_25">
    <path d="M 422.657656 360.429 
L 424.152775 360.429 
L 424.152775 149.495378 
L 422.657656 149.495378 
z
" clip-path="url(#p377714eb47)" style="fill: #faccfa"/>
   </g>
   <g id="patch_26">
    <path d="M 456.831818 360.429 
L 458.326938 360.429 
L 458.326938 321.400926 
L 456.831818 321.400926 
z
" clip-path="url(#p377714eb47)" style="fill: #faccfa"/>
   </g>
   <g id="patch_27">
    <path d="M 82.411148 360.429 
L 83.906268 360.429 
L 83.906268 139.521307 
L 82.411148 139.521307 
z
" clip-path="url(#p377714eb47)" style="fill: #828231"/>
   </g>
   <g id="patch_28">
    <path d="M 116.585311 360.429 
L 118.080431 360.429 
L 118.080431 136.796543 
L 116.585311 136.796543 
z
" clip-path="url(#p377714eb47)" style="fill: #828231"/>
   </g>
   <g id="patch_29">
    <path d="M 150.759474 360.429 
L 152.254593 360.429 
L 152.254593 136.796543 
L 150.759474 136.796543 
z
" clip-path="url(#p377714eb47)" style="fill: #828231"/>
   </g>
   <g id="patch_30">
    <path d="M 184.933636 360.429 
L 186.428756 360.429 
L 186.428756 246.252038 
L 184.933636 246.252038 
z
" clip-path="url(#p377714eb47)" style="fill: #828231"/>
   </g>
   <g id="patch_31">
    <path d="M 219.107799 360.429 
L 220.602919 360.429 
L 220.602919 257.712619 
L 219.107799 257.712619 
z
" clip-path="url(#p377714eb47)" style="fill: #828231"/>
   </g>
   <g id="patch_32">
    <path d="M 253.281962 360.429 
L 254.777081 360.429 
L 254.777081 216.156387 
L 253.281962 216.156387 
z
" clip-path="url(#p377714eb47)" style="fill: #828231"/>
   </g>
   <g id="patch_33">
    <path d="M 287.456124 360.429 
L 288.951244 360.429 
L 288.951244 278.736153 
L 287.456124 278.736153 
z
" clip-path="url(#p377714eb47)" style="fill: #828231"/>
   </g>
   <g id="patch_34">
    <path d="M 321.630287 360.429 
L 323.125407 360.429 
L 323.125407 43.629 
L 321.630287 43.629 
z
" clip-path="url(#p377714eb47)" style="fill: #828231"/>
   </g>
   <g id="patch_35">
    <path d="M 355.80445 360.429 
L 357.299569 360.429 
L 357.299569 97.218662 
L 355.80445 97.218662 
z
" clip-path="url(#p377714eb47)" style="fill: #828231"/>
   </g>
   <g id="patch_36">
    <path d="M 389.978612 360.429 
L 391.473732 360.429 
L 391.473732 146.182009 
L 389.978612 146.182009 
z
" clip-path="url(#p377714eb47)" style="fill: #828231"/>
   </g>
   <g id="patch_37">
    <path d="M 424.152775 360.429 
L 425.647895 360.429 
L 425.647895 139.492433 
L 424.152775 139.492433 
z
" clip-path="url(#p377714eb47)" style="fill: #828231"/>
   </g>
   <g id="patch_38">
    <path d="M 458.326938 360.429 
L 459.822057 360.429 
L 459.822057 313.606858 
L 458.326938 313.606858 
z
" clip-path="url(#p377714eb47)" style="fill: #828231"/>
   </g>
   <g id="patch_39">
    <path d="M 83.906268 360.429 
L 85.401388 360.429 
L 85.401388 90.889318 
L 83.906268 90.889318 
z
" clip-path="url(#p377714eb47)" style="fill: #226061"/>
   </g>
   <g id="patch_40">
    <path d="M 118.080431 360.429 
L 119.57555 360.429 
L 119.57555 73.432749 
L 118.080431 73.432749 
z
" clip-path="url(#p377714eb47)" style="fill: #226061"/>
   </g>
   <g id="patch_41">
    <path d="M 152.254593 360.429 
L 153.749713 360.429 
L 153.749713 73.432749 
L 152.254593 73.432749 
z
" clip-path="url(#p377714eb47)" style="fill: #226061"/>
   </g>
   <g id="patch_42">
    <path d="M 186.428756 360.429 
L 187.923876 360.429 
L 187.923876 111.635482 
L 186.428756 111.635482 
z
" clip-path="url(#p377714eb47)" style="fill: #226061"/>
   </g>
   <g id="patch_43">
    <path d="M 220.602919 360.429 
L 222.098038 360.429 
L 222.098038 122.129003 
L 220.602919 122.129003 
z
" clip-path="url(#p377714eb47)" style="fill: #226061"/>
   </g>
   <g id="patch_44">
    <path d="M 254.777081 360.429 
L 256.272201 360.429 
L 256.272201 96.003253 
L 254.777081 96.003253 
z
" clip-path="url(#p377714eb47)" style="fill: #226061"/>
   </g>
   <g id="patch_45">
    <path d="M 288.951244 360.429 
L 290.446364 360.429 
L 290.446364 124.427443 
L 288.951244 124.427443 
z
" clip-path="url(#p377714eb47)" style="fill: #226061"/>
   </g>
   <g id="patch_46">
    <path d="M 323.125407 360.429 
L 324.620526 360.429 
L 324.620526 72.824796 
L 323.125407 72.824796 
z
" clip-path="url(#p377714eb47)" style="fill: #226061"/>
   </g>
   <g id="patch_47">
    <path d="M 357.299569 360.429 
L 358.794689 360.429 
L 358.794689 129.418458 
L 357.299569 129.418458 
z
" clip-path="url(#p377714eb47)" style="fill: #226061"/>
   </g>
   <g id="patch_48">
    <path d="M 391.473732 360.429 
L 392.968852 360.429 
L 392.968852 116.002289 
L 391.473732 116.002289 
z
" clip-path="url(#p377714eb47)" style="fill: #226061"/>
   </g>
   <g id="patch_49">
    <path d="M 425.647895 360.429 
L 427.143014 360.429 
L 427.143014 106.675359 
L 425.647895 106.675359 
z
" clip-path="url(#p377714eb47)" style="fill: #226061"/>
   </g>
   <g id="patch_50">
    <path d="M 459.822057 360.429 
L 461.317177 360.429 
L 461.317177 73.217592 
L 459.822057 73.217592 
z
" clip-path="url(#p377714eb47)" style="fill: #226061"/>
   </g>
   <g id="patch_51">
    <path d="M 85.401388 360.429 
L 86.896507 360.429 
L 86.896507 141.853148 
L 85.401388 141.853148 
z
" clip-path="url(#p377714eb47)" style="fill: #f19d6b"/>
   </g>
   <g id="patch_52">
    <path d="M 119.57555 360.429 
L 121.07067 360.429 
L 121.07067 117.066499 
L 119.57555 117.066499 
z
" clip-path="url(#p377714eb47)" style="fill: #f19d6b"/>
   </g>
   <g id="patch_53">
    <path d="M 153.749713 360.429 
L 155.244833 360.429 
L 155.244833 117.066499 
L 153.749713 117.066499 
z
" clip-path="url(#p377714eb47)" style="fill: #f19d6b"/>
   </g>
   <g id="patch_54">
    <path d="M 187.923876 360.429 
L 189.418995 360.429 
L 189.418995 202.799078 
L 187.923876 202.799078 
z
" clip-path="url(#p377714eb47)" style="fill: #f19d6b"/>
   </g>
   <g id="patch_55">
    <path d="M 222.098038 360.429 
L 223.593158 360.429 
L 223.593158 212.922858 
L 222.098038 212.922858 
z
" clip-path="url(#p377714eb47)" style="fill: #f19d6b"/>
   </g>
   <g id="patch_56">
    <path d="M 256.272201 360.429 
L 257.767321 360.429 
L 257.767321 172.733922 
L 256.272201 172.733922 
z
" clip-path="url(#p377714eb47)" style="fill: #f19d6b"/>
   </g>
   <g id="patch_57">
    <path d="M 290.446364 360.429 
L 291.941483 360.429 
L 291.941483 213.867755 
L 290.446364 213.867755 
z
" clip-path="url(#p377714eb47)" style="fill: #f19d6b"/>
   </g>
   <g id="patch_58">
    <path d="M 324.620526 360.429 
L 326.115646 360.429 
L 326.115646 340.02609 
L 324.620526 340.02609 
z
" clip-path="url(#p377714eb47)" style="fill: #f19d6b"/>
   </g>
   <g id="patch_59">
    <path d="M 358.794689 360.429 
L 360.289809 360.429 
L 360.289809 238.299771 
L 358.794689 238.299771 
z
" clip-path="url(#p377714eb47)" style="fill: #f19d6b"/>
   </g>
   <g id="patch_60">
    <path d="M 392.968852 360.429 
L 394.463971 360.429 
L 394.463971 149.79487 
L 392.968852 149.79487 
z
" clip-path="url(#p377714eb47)" style="fill: #f19d6b"/>
   </g>
   <g id="patch_61">
    <path d="M 427.143014 360.429 
L 428.638134 360.429 
L 428.638134 157.864984 
L 427.143014 157.864984 
z
" clip-path="url(#p377714eb47)" style="fill: #f19d6b"/>
   </g>
   <g id="patch_62">
    <path d="M 461.317177 360.429 
L 462.812297 360.429 
L 462.812297 200.968141 
L 461.317177 200.968141 
z
" clip-path="url(#p377714eb47)" style="fill: #f19d6b"/>
   </g>
   <g id="patch_63">
    <path d="M 86.896507 360.429 
L 88.391627 360.429 
L 88.391627 118.784128 
L 86.896507 118.784128 
z
" clip-path="url(#p377714eb47)" style="fill: #4d734d"/>
   </g>
   <g id="patch_64">
    <path d="M 121.07067 360.429 
L 122.565789 360.429 
L 122.565789 102.970901 
L 121.07067 102.970901 
z
" clip-path="url(#p377714eb47)" style="fill: #4d734d"/>
   </g>
   <g id="patch_65">
    <path d="M 155.244833 360.429 
L 156.739952 360.429 
L 156.739952 102.970901 
L 155.244833 102.970901 
z
" clip-path="url(#p377714eb47)" style="fill: #4d734d"/>
   </g>
   <g id="patch_66">
    <path d="M 189.418995 360.429 
L 190.914115 360.429 
L 190.914115 274.118609 
L 189.418995 274.118609 
z
" clip-path="url(#p377714eb47)" style="fill: #4d734d"/>
   </g>
   <g id="patch_67">
    <path d="M 223.593158 360.429 
L 225.088278 360.429 
L 225.088278 283.464474 
L 223.593158 283.464474 
z
" clip-path="url(#p377714eb47)" style="fill: #4d734d"/>
   </g>
   <g id="patch_68">
    <path d="M 257.767321 360.429 
L 259.26244 360.429 
L 259.26244 250.197616 
L 257.767321 250.197616 
z
" clip-path="url(#p377714eb47)" style="fill: #4d734d"/>
   </g>
   <g id="patch_69">
    <path d="M 291.941483 360.429 
L 293.436603 360.429 
L 293.436603 301.120404 
L 291.941483 301.120404 
z
" clip-path="url(#p377714eb47)" style="fill: #4d734d"/>
   </g>
   <g id="patch_70">
    <path d="M 326.115646 360.429 
L 327.610766 360.429 
L 327.610766 164.680576 
L 326.115646 164.680576 
z
" clip-path="url(#p377714eb47)" style="fill: #4d734d"/>
   </g>
   <g id="patch_71">
    <path d="M 360.289809 360.429 
L 361.784928 360.429 
L 361.784928 164.700236 
L 360.289809 164.700236 
z
" clip-path="url(#p377714eb47)" style="fill: #4d734d"/>
   </g>
   <g id="patch_72">
    <path d="M 394.463971 360.429 
L 395.959091 360.429 
L 395.959091 163.216139 
L 394.463971 163.216139 
z
" clip-path="url(#p377714eb47)" style="fill: #4d734d"/>
   </g>
   <g id="patch_73">
    <path d="M 428.638134 360.429 
L 430.133254 360.429 
L 430.133254 152.376266 
L 428.638134 152.376266 
z
" clip-path="url(#p377714eb47)" style="fill: #4d734d"/>
   </g>
   <g id="patch_74">
    <path d="M 462.812297 360.429 
L 464.307416 360.429 
L 464.307416 328.199085 
L 462.812297 328.199085 
z
" clip-path="url(#p377714eb47)" style="fill: #4d734d"/>
   </g>
   <g id="patch_75">
    <path d="M 88.391627 360.429 
L 89.886746 360.429 
L 89.886746 78.644032 
L 88.391627 78.644032 
z
" clip-path="url(#p377714eb47)" style="fill: #114360"/>
   </g>
   <g id="patch_76">
    <path d="M 122.565789 360.429 
L 124.060909 360.429 
L 124.060909 58.843899 
L 122.565789 58.843899 
z
" clip-path="url(#p377714eb47)" style="fill: #114360"/>
   </g>
   <g id="patch_77">
    <path d="M 156.739952 360.429 
L 158.235072 360.429 
L 158.235072 58.843899 
L 156.739952 58.843899 
z
" clip-path="url(#p377714eb47)" style="fill: #114360"/>
   </g>
   <g id="patch_78">
    <path d="M 190.914115 360.429 
L 192.409234 360.429 
L 192.409234 148.359667 
L 190.914115 148.359667 
z
" clip-path="url(#p377714eb47)" style="fill: #114360"/>
   </g>
   <g id="patch_79">
    <path d="M 225.088278 360.429 
L 226.583397 360.429 
L 226.583397 168.31374 
L 225.088278 168.31374 
z
" clip-path="url(#p377714eb47)" style="fill: #114360"/>
   </g>
   <g id="patch_80">
    <path d="M 259.26244 360.429 
L 260.75756 360.429 
L 260.75756 95.003674 
L 259.26244 95.003674 
z
" clip-path="url(#p377714eb47)" style="fill: #114360"/>
   </g>
   <g id="patch_81">
    <path d="M 293.436603 360.429 
L 294.931722 360.429 
L 294.931722 164.578891 
L 293.436603 164.578891 
z
" clip-path="url(#p377714eb47)" style="fill: #114360"/>
   </g>
   <g id="patch_82">
    <path d="M 327.610766 360.429 
L 329.105885 360.429 
L 329.105885 337.891894 
L 327.610766 337.891894 
z
" clip-path="url(#p377714eb47)" style="fill: #114360"/>
   </g>
   <g id="patch_83">
    <path d="M 361.784928 360.429 
L 363.280048 360.429 
L 363.280048 224.499858 
L 361.784928 224.499858 
z
" clip-path="url(#p377714eb47)" style="fill: #114360"/>
   </g>
   <g id="patch_84">
    <path d="M 395.959091 360.429 
L 397.454211 360.429 
L 397.454211 186.590913 
L 395.959091 186.590913 
z
" clip-path="url(#p377714eb47)" style="fill: #114360"/>
   </g>
   <g id="patch_85">
    <path d="M 430.133254 360.429 
L 431.628373 360.429 
L 431.628373 189.627403 
L 430.133254 189.627403 
z
" clip-path="url(#p377714eb47)" style="fill: #114360"/>
   </g>
   <g id="patch_86">
    <path d="M 464.307416 360.429 
L 465.802536 360.429 
L 465.802536 165.822667 
L 464.307416 165.822667 
z
" clip-path="url(#p377714eb47)" style="fill: #114360"/>
   </g>
   <g id="patch_87">
    <path d="M 89.886746 360.429 
L 91.381866 360.429 
L 91.381866 60.425741 
L 89.886746 60.425741 
z
" clip-path="url(#p377714eb47)" style="fill: #fdb4b4"/>
   </g>
   <g id="patch_88">
    <path d="M 124.060909 360.429 
L 125.556029 360.429 
L 125.556029 48.06826 
L 124.060909 48.06826 
z
" clip-path="url(#p377714eb47)" style="fill: #fdb4b4"/>
   </g>
   <g id="patch_89">
    <path d="M 158.235072 360.429 
L 159.730191 360.429 
L 159.730191 48.06826 
L 158.235072 48.06826 
z
" clip-path="url(#p377714eb47)" style="fill: #fdb4b4"/>
   </g>
   <g id="patch_90">
    <path d="M 192.409234 360.429 
L 193.904354 360.429 
L 193.904354 141.439229 
L 192.409234 141.439229 
z
" clip-path="url(#p377714eb47)" style="fill: #fdb4b4"/>
   </g>
   <g id="patch_91">
    <path d="M 226.583397 360.429 
L 228.078517 360.429 
L 228.078517 160.897287 
L 226.583397 160.897287 
z
" clip-path="url(#p377714eb47)" style="fill: #fdb4b4"/>
   </g>
   <g id="patch_92">
    <path d="M 260.75756 360.429 
L 262.252679 360.429 
L 262.252679 77.944187 
L 260.75756 77.944187 
z
" clip-path="url(#p377714eb47)" style="fill: #fdb4b4"/>
   </g>
   <g id="patch_93">
    <path d="M 294.931722 360.429 
L 296.426842 360.429 
L 296.426842 158.59606 
L 294.931722 158.59606 
z
" clip-path="url(#p377714eb47)" style="fill: #fdb4b4"/>
   </g>
   <g id="patch_94">
    <path d="M 329.105885 360.429 
L 330.601005 360.429 
L 330.601005 115.252605 
L 329.105885 115.252605 
z
" clip-path="url(#p377714eb47)" style="fill: #fdb4b4"/>
   </g>
   <g id="patch_95">
    <path d="M 363.280048 360.429 
L 364.775167 360.429 
L 364.775167 71.136826 
L 363.280048 71.136826 
z
" clip-path="url(#p377714eb47)" style="fill: #fdb4b4"/>
   </g>
   <g id="patch_96">
    <path d="M 397.454211 360.429 
L 398.94933 360.429 
L 398.94933 94.310616 
L 397.454211 94.310616 
z
" clip-path="url(#p377714eb47)" style="fill: #fdb4b4"/>
   </g>
   <g id="patch_97">
    <path d="M 431.628373 360.429 
L 433.123493 360.429 
L 433.123493 130.594246 
L 431.628373 130.594246 
z
" clip-path="url(#p377714eb47)" style="fill: #fdb4b4"/>
   </g>
   <g id="patch_98">
    <path d="M 465.802536 360.429 
L 467.297656 360.429 
L 467.297656 155.11304 
L 465.802536 155.11304 
z
" clip-path="url(#p377714eb47)" style="fill: #fdb4b4"/>
   </g>
   <g id="patch_99">
    <path d="M 91.381866 360.429 
L 92.876986 360.429 
L 92.876986 156.972709 
L 91.381866 156.972709 
z
" clip-path="url(#p377714eb47)" style="fill: #c09036"/>
   </g>
   <g id="patch_100">
    <path d="M 125.556029 360.429 
L 127.051148 360.429 
L 127.051148 111.925305 
L 125.556029 111.925305 
z
" clip-path="url(#p377714eb47)" style="fill: #c09036"/>
   </g>
   <g id="patch_101">
    <path d="M 159.730191 360.429 
L 161.225311 360.429 
L 161.225311 111.925305 
L 159.730191 111.925305 
z
" clip-path="url(#p377714eb47)" style="fill: #c09036"/>
   </g>
   <g id="patch_102">
    <path d="M 193.904354 360.429 
L 195.399474 360.429 
L 195.399474 203.730018 
L 193.904354 203.730018 
z
" clip-path="url(#p377714eb47)" style="fill: #c09036"/>
   </g>
   <g id="patch_103">
    <path d="M 228.078517 360.429 
L 229.573636 360.429 
L 229.573636 204.914292 
L 228.078517 204.914292 
z
" clip-path="url(#p377714eb47)" style="fill: #c09036"/>
   </g>
   <g id="patch_104">
    <path d="M 262.252679 360.429 
L 263.747799 360.429 
L 263.747799 200.09648 
L 262.252679 200.09648 
z
" clip-path="url(#p377714eb47)" style="fill: #c09036"/>
   </g>
   <g id="patch_105">
    <path d="M 296.426842 360.429 
L 297.921962 360.429 
L 297.921962 202.445985 
L 296.426842 202.445985 
z
" clip-path="url(#p377714eb47)" style="fill: #c09036"/>
   </g>
   <g id="patch_106">
    <path d="M 330.601005 360.429 
L 332.096124 360.429 
L 332.096124 123.191813 
L 330.601005 123.191813 
z
" clip-path="url(#p377714eb47)" style="fill: #c09036"/>
   </g>
   <g id="patch_107">
    <path d="M 364.775167 360.429 
L 366.270287 360.429 
L 366.270287 124.496489 
L 364.775167 124.496489 
z
" clip-path="url(#p377714eb47)" style="fill: #c09036"/>
   </g>
   <g id="patch_108">
    <path d="M 398.94933 360.429 
L 400.44445 360.429 
L 400.44445 129.031803 
L 398.94933 129.031803 
z
" clip-path="url(#p377714eb47)" style="fill: #c09036"/>
   </g>
   <g id="patch_109">
    <path d="M 433.123493 360.429 
L 434.618612 360.429 
L 434.618612 127.092088 
L 433.123493 127.092088 
z
" clip-path="url(#p377714eb47)" style="fill: #c09036"/>
   </g>
   <g id="patch_110">
    <path d="M 467.297656 360.429 
L 468.792775 360.429 
L 468.792775 215.055197 
L 467.297656 215.055197 
z
" clip-path="url(#p377714eb47)" style="fill: #c09036"/>
   </g>
   <g id="patch_111">
    <path d="M 92.876986 360.429 
L 94.372105 360.429 
L 94.372105 84.735501 
L 92.876986 84.735501 
z
" clip-path="url(#p377714eb47)" style="fill: #175262"/>
   </g>
   <g id="patch_112">
    <path d="M 127.051148 360.429 
L 128.546268 360.429 
L 128.546268 96.160241 
L 127.051148 96.160241 
z
" clip-path="url(#p377714eb47)" style="fill: #175262"/>
   </g>
   <g id="patch_113">
    <path d="M 161.225311 360.429 
L 162.720431 360.429 
L 162.720431 96.160241 
L 161.225311 96.160241 
z
" clip-path="url(#p377714eb47)" style="fill: #175262"/>
   </g>
   <g id="patch_114">
    <path d="M 195.399474 360.429 
L 196.894593 360.429 
L 196.894593 84.864133 
L 195.399474 84.864133 
z
" clip-path="url(#p377714eb47)" style="fill: #175262"/>
   </g>
   <g id="patch_115">
    <path d="M 229.573636 360.429 
L 231.068756 360.429 
L 231.068756 96.39722 
L 229.573636 96.39722 
z
" clip-path="url(#p377714eb47)" style="fill: #175262"/>
   </g>
   <g id="patch_116">
    <path d="M 263.747799 360.429 
L 265.242919 360.429 
L 265.242919 60.714402 
L 263.747799 60.714402 
z
" clip-path="url(#p377714eb47)" style="fill: #175262"/>
   </g>
   <g id="patch_117">
    <path d="M 297.921962 360.429 
L 299.417081 360.429 
L 299.417081 90.669769 
L 297.921962 90.669769 
z
" clip-path="url(#p377714eb47)" style="fill: #175262"/>
   </g>
   <g id="patch_118">
    <path d="M 332.096124 360.429 
L 333.591244 360.429 
L 333.591244 125.411377 
L 332.096124 125.411377 
z
" clip-path="url(#p377714eb47)" style="fill: #175262"/>
   </g>
   <g id="patch_119">
    <path d="M 366.270287 360.429 
L 367.765407 360.429 
L 367.765407 43.629 
L 366.270287 43.629 
z
" clip-path="url(#p377714eb47)" style="fill: #175262"/>
   </g>
   <g id="patch_120">
    <path d="M 400.44445 360.429 
L 401.939569 360.429 
L 401.939569 61.490171 
L 400.44445 61.490171 
z
" clip-path="url(#p377714eb47)" style="fill: #175262"/>
   </g>
   <g id="patch_121">
    <path d="M 434.618612 360.429 
L 436.113732 360.429 
L 436.113732 71.483431 
L 434.618612 71.483431 
z
" clip-path="url(#p377714eb47)" style="fill: #175262"/>
   </g>
   <g id="patch_122">
    <path d="M 468.792775 360.429 
L 470.287895 360.429 
L 470.287895 57.225319 
L 468.792775 57.225319 
z
" clip-path="url(#p377714eb47)" style="fill: #175262"/>
   </g>
   <g id="patch_123">
    <path d="M 94.372105 360.429 
L 95.867225 360.429 
L 95.867225 52.812964 
L 94.372105 52.812964 
z
" clip-path="url(#p377714eb47)" style="fill: #fcbfd6"/>
   </g>
   <g id="patch_124">
    <path d="M 128.546268 360.429 
L 130.041388 360.429 
L 130.041388 43.629 
L 128.546268 43.629 
z
" clip-path="url(#p377714eb47)" style="fill: #fcbfd6"/>
   </g>
   <g id="patch_125">
    <path d="M 162.720431 360.429 
L 164.21555 360.429 
L 164.21555 43.629 
L 162.720431 43.629 
z
" clip-path="url(#p377714eb47)" style="fill: #fcbfd6"/>
   </g>
   <g id="patch_126">
    <path d="M 196.894593 360.429 
L 198.389713 360.429 
L 198.389713 187.575483 
L 196.894593 187.575483 
z
" clip-path="url(#p377714eb47)" style="fill: #fcbfd6"/>
   </g>
   <g id="patch_127">
    <path d="M 231.068756 360.429 
L 232.563876 360.429 
L 232.563876 187.39179 
L 231.068756 187.39179 
z
" clip-path="url(#p377714eb47)" style="fill: #fcbfd6"/>
   </g>
   <g id="patch_128">
    <path d="M 265.242919 360.429 
L 266.738038 360.429 
L 266.738038 139.947721 
L 265.242919 139.947721 
z
" clip-path="url(#p377714eb47)" style="fill: #fcbfd6"/>
   </g>
   <g id="patch_129">
    <path d="M 299.417081 360.429 
L 300.912201 360.429 
L 300.912201 188.461872 
L 299.417081 188.461872 
z
" clip-path="url(#p377714eb47)" style="fill: #fcbfd6"/>
   </g>
   <g id="patch_130">
    <path d="M 333.591244 360.429 
L 335.086364 360.429 
L 335.086364 78.885912 
L 333.591244 78.885912 
z
" clip-path="url(#p377714eb47)" style="fill: #fcbfd6"/>
   </g>
   <g id="patch_131">
    <path d="M 367.765407 360.429 
L 369.260526 360.429 
L 369.260526 61.706886 
L 367.765407 61.706886 
z
" clip-path="url(#p377714eb47)" style="fill: #fcbfd6"/>
   </g>
   <g id="patch_132">
    <path d="M 401.939569 360.429 
L 403.434689 360.429 
L 403.434689 71.414655 
L 401.939569 71.414655 
z
" clip-path="url(#p377714eb47)" style="fill: #fcbfd6"/>
   </g>
   <g id="patch_133">
    <path d="M 436.113732 360.429 
L 437.608852 360.429 
L 437.608852 110.878951 
L 436.113732 110.878951 
z
" clip-path="url(#p377714eb47)" style="fill: #fcbfd6"/>
   </g>
   <g id="patch_134">
    <path d="M 470.287895 360.429 
L 471.783014 360.429 
L 471.783014 246.058268 
L 470.287895 246.058268 
z
" clip-path="url(#p377714eb47)" style="fill: #fcbfd6"/>
   </g>
   <g id="patch_135">
    <path d="M 95.867225 360.429 
L 97.362344 360.429 
L 97.362344 87.541192 
L 95.867225 87.541192 
z
" clip-path="url(#p377714eb47)" style="fill: #fca890"/>
   </g>
   <g id="patch_136">
    <path d="M 130.041388 360.429 
L 131.536507 360.429 
L 131.536507 96.103328 
L 130.041388 96.103328 
z
" clip-path="url(#p377714eb47)" style="fill: #fca890"/>
   </g>
   <g id="patch_137">
    <path d="M 164.21555 360.429 
L 165.71067 360.429 
L 165.71067 96.103328 
L 164.21555 96.103328 
z
" clip-path="url(#p377714eb47)" style="fill: #fca890"/>
   </g>
   <g id="patch_138">
    <path d="M 198.389713 360.429 
L 199.884833 360.429 
L 199.884833 187.014182 
L 198.389713 187.014182 
z
" clip-path="url(#p377714eb47)" style="fill: #fca890"/>
   </g>
   <g id="patch_139">
    <path d="M 232.563876 360.429 
L 234.058995 360.429 
L 234.058995 187.110788 
L 232.563876 187.110788 
z
" clip-path="url(#p377714eb47)" style="fill: #fca890"/>
   </g>
   <g id="patch_140">
    <path d="M 266.738038 360.429 
L 268.233158 360.429 
L 268.233158 170.801402 
L 266.738038 170.801402 
z
" clip-path="url(#p377714eb47)" style="fill: #fca890"/>
   </g>
   <g id="patch_141">
    <path d="M 300.912201 360.429 
L 302.407321 360.429 
L 302.407321 197.756412 
L 300.912201 197.756412 
z
" clip-path="url(#p377714eb47)" style="fill: #fca890"/>
   </g>
   <g id="patch_142">
    <path d="M 335.086364 360.429 
L 336.581483 360.429 
L 336.581483 341.306607 
L 335.086364 341.306607 
z
" clip-path="url(#p377714eb47)" style="fill: #fca890"/>
   </g>
   <g id="patch_143">
    <path d="M 369.260526 360.429 
L 370.755646 360.429 
L 370.755646 227.995836 
L 369.260526 227.995836 
z
" clip-path="url(#p377714eb47)" style="fill: #fca890"/>
   </g>
   <g id="patch_144">
    <path d="M 403.434689 360.429 
L 404.929809 360.429 
L 404.929809 130.700393 
L 403.434689 130.700393 
z
" clip-path="url(#p377714eb47)" style="fill: #fca890"/>
   </g>
   <g id="patch_145">
    <path d="M 437.608852 360.429 
L 439.103971 360.429 
L 439.103971 131.844301 
L 437.608852 131.844301 
z
" clip-path="url(#p377714eb47)" style="fill: #fca890"/>
   </g>
   <g id="patch_146">
    <path d="M 471.783014 360.429 
L 473.278134 360.429 
L 473.278134 227.857676 
L 471.783014 227.857676 
z
" clip-path="url(#p377714eb47)" style="fill: #fca890"/>
   </g>
   <g id="patch_147">
    <path d="M 97.362344 360.429 
L 98.857464 360.429 
L 98.857464 86.406446 
L 97.362344 86.406446 
z
" clip-path="url(#p377714eb47)" style="fill: #356a59"/>
   </g>
   <g id="patch_148">
    <path d="M 131.536507 360.429 
L 133.031627 360.429 
L 133.031627 95.685961 
L 131.536507 95.685961 
z
" clip-path="url(#p377714eb47)" style="fill: #356a59"/>
   </g>
   <g id="patch_149">
    <path d="M 165.71067 360.429 
L 167.205789 360.429 
L 167.205789 95.685961 
L 165.71067 95.685961 
z
" clip-path="url(#p377714eb47)" style="fill: #356a59"/>
   </g>
   <g id="patch_150">
    <path d="M 199.884833 360.429 
L 201.379952 360.429 
L 201.379952 185.795747 
L 199.884833 185.795747 
z
" clip-path="url(#p377714eb47)" style="fill: #356a59"/>
   </g>
   <g id="patch_151">
    <path d="M 234.058995 360.429 
L 235.554115 360.429 
L 235.554115 190.613281 
L 234.058995 190.613281 
z
" clip-path="url(#p377714eb47)" style="fill: #356a59"/>
   </g>
   <g id="patch_152">
    <path d="M 268.233158 360.429 
L 269.728278 360.429 
L 269.728278 168.509774 
L 268.233158 168.509774 
z
" clip-path="url(#p377714eb47)" style="fill: #356a59"/>
   </g>
   <g id="patch_153">
    <path d="M 302.407321 360.429 
L 303.90244 360.429 
L 303.90244 198.457431 
L 302.407321 198.457431 
z
" clip-path="url(#p377714eb47)" style="fill: #356a59"/>
   </g>
   <g id="patch_154">
    <path d="M 336.581483 360.429 
L 338.076603 360.429 
L 338.076603 62.836761 
L 336.581483 62.836761 
z
" clip-path="url(#p377714eb47)" style="fill: #356a59"/>
   </g>
   <g id="patch_155">
    <path d="M 370.755646 360.429 
L 372.250766 360.429 
L 372.250766 96.068669 
L 370.755646 96.068669 
z
" clip-path="url(#p377714eb47)" style="fill: #356a59"/>
   </g>
   <g id="patch_156">
    <path d="M 404.929809 360.429 
L 406.424928 360.429 
L 406.424928 83.559091 
L 404.929809 83.559091 
z
" clip-path="url(#p377714eb47)" style="fill: #356a59"/>
   </g>
   <g id="patch_157">
    <path d="M 439.103971 360.429 
L 440.599091 360.429 
L 440.599091 81.691796 
L 439.103971 81.691796 
z
" clip-path="url(#p377714eb47)" style="fill: #356a59"/>
   </g>
   <g id="patch_158">
    <path d="M 473.278134 360.429 
L 474.773254 360.429 
L 474.773254 227.843242 
L 473.278134 227.843242 
z
" clip-path="url(#p377714eb47)" style="fill: #356a59"/>
   </g>
   <g id="patch_159">
    <path d="M 98.857464 360.429 
L 100.352584 360.429 
L 100.352584 85.614617 
L 98.857464 85.614617 
z
" clip-path="url(#p377714eb47)" style="fill: #0d315d"/>
   </g>
   <g id="patch_160">
    <path d="M 133.031627 360.429 
L 134.526746 360.429 
L 134.526746 96.084357 
L 133.031627 96.084357 
z
" clip-path="url(#p377714eb47)" style="fill: #0d315d"/>
   </g>
   <g id="patch_161">
    <path d="M 167.205789 360.429 
L 168.700909 360.429 
L 168.700909 96.084357 
L 167.205789 96.084357 
z
" clip-path="url(#p377714eb47)" style="fill: #0d315d"/>
   </g>
   <g id="patch_162">
    <path d="M 201.379952 360.429 
L 202.875072 360.429 
L 202.875072 187.732922 
L 201.379952 187.732922 
z
" clip-path="url(#p377714eb47)" style="fill: #0d315d"/>
   </g>
   <g id="patch_163">
    <path d="M 235.554115 360.429 
L 237.049234 360.429 
L 237.049234 194.406812 
L 235.554115 194.406812 
z
" clip-path="url(#p377714eb47)" style="fill: #0d315d"/>
   </g>
   <g id="patch_164">
    <path d="M 269.728278 360.429 
L 271.223397 360.429 
L 271.223397 168.631945 
L 269.728278 168.631945 
z
" clip-path="url(#p377714eb47)" style="fill: #0d315d"/>
   </g>
   <g id="patch_165">
    <path d="M 303.90244 360.429 
L 305.39756 360.429 
L 305.39756 199.230969 
L 303.90244 199.230969 
z
" clip-path="url(#p377714eb47)" style="fill: #0d315d"/>
   </g>
   <g id="patch_166">
    <path d="M 338.076603 360.429 
L 339.571722 360.429 
L 339.571722 341.733446 
L 338.076603 341.733446 
z
" clip-path="url(#p377714eb47)" style="fill: #0d315d"/>
   </g>
   <g id="patch_167">
    <path d="M 372.250766 360.429 
L 373.745885 360.429 
L 373.745885 227.075842 
L 372.250766 227.075842 
z
" clip-path="url(#p377714eb47)" style="fill: #0d315d"/>
   </g>
   <g id="patch_168">
    <path d="M 406.424928 360.429 
L 407.920048 360.429 
L 407.920048 131.991737 
L 406.424928 131.991737 
z
" clip-path="url(#p377714eb47)" style="fill: #0d315d"/>
   </g>
   <g id="patch_169">
    <path d="M 440.599091 360.429 
L 442.094211 360.429 
L 442.094211 138.936296 
L 440.599091 138.936296 
z
" clip-path="url(#p377714eb47)" style="fill: #0d315d"/>
   </g>
   <g id="patch_170">
    <path d="M 474.773254 360.429 
L 476.268373 360.429 
L 476.268373 227.973143 
L 474.773254 227.973143 
z
" clip-path="url(#p377714eb47)" style="fill: #0d315d"/>
   </g>
   <g id="patch_171">
    <path d="M 100.352584 360.429 
L 101.847703 360.429 
L 101.847703 46.085539 
L 100.352584 46.085539 
z
" clip-path="url(#p377714eb47)" style="fill: #a18a2b"/>
   </g>
   <g id="patch_172">
    <path d="M 134.526746 360.429 
L 136.021866 360.429 
L 136.021866 55.106574 
L 134.526746 55.106574 
z
" clip-path="url(#p377714eb47)" style="fill: #a18a2b"/>
   </g>
   <g id="patch_173">
    <path d="M 168.700909 360.429 
L 170.196029 360.429 
L 170.196029 55.106574 
L 168.700909 55.106574 
z
" clip-path="url(#p377714eb47)" style="fill: #a18a2b"/>
   </g>
   <g id="patch_174">
    <path d="M 202.875072 360.429 
L 204.370191 360.429 
L 204.370191 45.06648 
L 202.875072 45.06648 
z
" clip-path="url(#p377714eb47)" style="fill: #a18a2b"/>
   </g>
   <g id="patch_175">
    <path d="M 237.049234 360.429 
L 238.544354 360.429 
L 238.544354 44.170933 
L 237.049234 44.170933 
z
" clip-path="url(#p377714eb47)" style="fill: #a18a2b"/>
   </g>
   <g id="patch_176">
    <path d="M 271.223397 360.429 
L 272.718517 360.429 
L 272.718517 43.629 
L 271.223397 43.629 
z
" clip-path="url(#p377714eb47)" style="fill: #a18a2b"/>
   </g>
   <g id="patch_177">
    <path d="M 305.39756 360.429 
L 306.892679 360.429 
L 306.892679 43.629 
L 305.39756 43.629 
z
" clip-path="url(#p377714eb47)" style="fill: #a18a2b"/>
   </g>
   <g id="patch_178">
    <path d="M 339.571722 360.429 
L 341.066842 360.429 
L 341.066842 102.788903 
L 339.571722 102.788903 
z
" clip-path="url(#p377714eb47)" style="fill: #a18a2b"/>
   </g>
   <g id="patch_179">
    <path d="M 373.745885 360.429 
L 375.241005 360.429 
L 375.241005 126.980474 
L 373.745885 126.980474 
z
" clip-path="url(#p377714eb47)" style="fill: #a18a2b"/>
   </g>
   <g id="patch_180">
    <path d="M 407.920048 360.429 
L 409.415167 360.429 
L 409.415167 43.629 
L 407.920048 43.629 
z
" clip-path="url(#p377714eb47)" style="fill: #a18a2b"/>
   </g>
   <g id="patch_181">
    <path d="M 442.094211 360.429 
L 443.58933 360.429 
L 443.58933 43.629 
L 442.094211 43.629 
z
" clip-path="url(#p377714eb47)" style="fill: #a18a2b"/>
   </g>
   <g id="patch_182">
    <path d="M 476.268373 360.429 
L 477.763493 360.429 
L 477.763493 61.786292 
L 476.268373 61.786292 
z
" clip-path="url(#p377714eb47)" style="fill: #a18a2b"/>
   </g>
   <g id="patch_183">
    <path d="M 101.847703 360.429 
L 103.342823 360.429 
L 103.342823 43.629 
L 101.847703 43.629 
z
" clip-path="url(#p377714eb47)" style="fill: #677b3e"/>
   </g>
   <g id="patch_184">
    <path d="M 136.021866 360.429 
L 137.516986 360.429 
L 137.516986 55.068631 
L 136.021866 55.068631 
z
" clip-path="url(#p377714eb47)" style="fill: #677b3e"/>
   </g>
   <g id="patch_185">
    <path d="M 170.196029 360.429 
L 171.691148 360.429 
L 171.691148 55.068631 
L 170.196029 55.068631 
z
" clip-path="url(#p377714eb47)" style="fill: #677b3e"/>
   </g>
   <g id="patch_186">
    <path d="M 204.370191 360.429 
L 205.865311 360.429 
L 205.865311 43.629 
L 204.370191 43.629 
z
" clip-path="url(#p377714eb47)" style="fill: #677b3e"/>
   </g>
   <g id="patch_187">
    <path d="M 238.544354 360.429 
L 240.039474 360.429 
L 240.039474 43.629 
L 238.544354 43.629 
z
" clip-path="url(#p377714eb47)" style="fill: #677b3e"/>
   </g>
   <g id="patch_188">
    <path d="M 272.718517 360.429 
L 274.213636 360.429 
L 274.213636 46.438928 
L 272.718517 46.438928 
z
" clip-path="url(#p377714eb47)" style="fill: #677b3e"/>
   </g>
   <g id="patch_189">
    <path d="M 306.892679 360.429 
L 308.387799 360.429 
L 308.387799 45.707883 
L 306.892679 45.707883 
z
" clip-path="url(#p377714eb47)" style="fill: #677b3e"/>
   </g>
   <g id="patch_190">
    <path d="M 341.066842 360.429 
L 342.561962 360.429 
L 342.561962 103.130374 
L 341.066842 103.130374 
z
" clip-path="url(#p377714eb47)" style="fill: #677b3e"/>
   </g>
   <g id="patch_191">
    <path d="M 375.241005 360.429 
L 376.736124 360.429 
L 376.736124 146.852348 
L 375.241005 146.852348 
z
" clip-path="url(#p377714eb47)" style="fill: #677b3e"/>
   </g>
   <g id="patch_192">
    <path d="M 409.415167 360.429 
L 410.910287 360.429 
L 410.910287 69.818613 
L 409.415167 69.818613 
z
" clip-path="url(#p377714eb47)" style="fill: #677b3e"/>
   </g>
   <g id="patch_193">
    <path d="M 443.58933 360.429 
L 445.08445 360.429 
L 445.08445 103.691761 
L 443.58933 103.691761 
z
" clip-path="url(#p377714eb47)" style="fill: #677b3e"/>
   </g>
   <g id="patch_194">
    <path d="M 477.763493 360.429 
L 479.258612 360.429 
L 479.258612 43.629 
L 477.763493 43.629 
z
" clip-path="url(#p377714eb47)" style="fill: #677b3e"/>
   </g>
   <g id="patch_195">
    <path d="M 103.342823 360.429 
L 104.837943 360.429 
L 104.837943 180.47817 
L 103.342823 180.47817 
z
" clip-path="url(#p377714eb47)" style="fill: #dd954d"/>
   </g>
   <g id="patch_196">
    <path d="M 137.516986 360.429 
L 139.012105 360.429 
L 139.012105 178.760828 
L 137.516986 178.760828 
z
" clip-path="url(#p377714eb47)" style="fill: #dd954d"/>
   </g>
   <g id="patch_197">
    <path d="M 171.691148 360.429 
L 173.186268 360.429 
L 173.186268 178.760828 
L 171.691148 178.760828 
z
" clip-path="url(#p377714eb47)" style="fill: #dd954d"/>
   </g>
   <g id="patch_198">
    <path d="M 205.865311 360.429 
L 207.360431 360.429 
L 207.360431 268.094884 
L 205.865311 268.094884 
z
" clip-path="url(#p377714eb47)" style="fill: #dd954d"/>
   </g>
   <g id="patch_199">
    <path d="M 240.039474 360.429 
L 241.534593 360.429 
L 241.534593 277.553389 
L 240.039474 277.553389 
z
" clip-path="url(#p377714eb47)" style="fill: #dd954d"/>
   </g>
   <g id="patch_200">
    <path d="M 274.213636 360.429 
L 275.708756 360.429 
L 275.708756 240.797868 
L 274.213636 240.797868 
z
" clip-path="url(#p377714eb47)" style="fill: #dd954d"/>
   </g>
   <g id="patch_201">
    <path d="M 308.387799 360.429 
L 309.882919 360.429 
L 309.882919 295.016707 
L 308.387799 295.016707 
z
" clip-path="url(#p377714eb47)" style="fill: #dd954d"/>
   </g>
   <g id="patch_202">
    <path d="M 342.561962 360.429 
L 344.057081 360.429 
L 344.057081 90.154465 
L 342.561962 90.154465 
z
" clip-path="url(#p377714eb47)" style="fill: #dd954d"/>
   </g>
   <g id="patch_203">
    <path d="M 376.736124 360.429 
L 378.231244 360.429 
L 378.231244 125.232485 
L 376.736124 125.232485 
z
" clip-path="url(#p377714eb47)" style="fill: #dd954d"/>
   </g>
   <g id="patch_204">
    <path d="M 410.910287 360.429 
L 412.405407 360.429 
L 412.405407 166.916057 
L 410.910287 166.916057 
z
" clip-path="url(#p377714eb47)" style="fill: #dd954d"/>
   </g>
   <g id="patch_205">
    <path d="M 445.08445 360.429 
L 446.579569 360.429 
L 446.579569 160.748378 
L 445.08445 160.748378 
z
" clip-path="url(#p377714eb47)" style="fill: #dd954d"/>
   </g>
   <g id="patch_206">
    <path d="M 479.258612 360.429 
L 480.753732 360.429 
L 480.753732 323.118507 
L 479.258612 323.118507 
z
" clip-path="url(#p377714eb47)" style="fill: #dd954d"/>
   </g>
   <g id="patch_207">
    <path d="M 104.837943 360.429 
L 106.333062 360.429 
L 106.333062 160.507881 
L 104.837943 160.507881 
z
" clip-path="url(#p377714eb47)" style="fill: #08255b"/>
   </g>
   <g id="patch_208">
    <path d="M 139.012105 360.429 
L 140.507225 360.429 
L 140.507225 132.072715 
L 139.012105 132.072715 
z
" clip-path="url(#p377714eb47)" style="fill: #08255b"/>
   </g>
   <g id="patch_209">
    <path d="M 173.186268 360.429 
L 174.681388 360.429 
L 174.681388 132.072715 
L 173.186268 132.072715 
z
" clip-path="url(#p377714eb47)" style="fill: #08255b"/>
   </g>
   <g id="patch_210">
    <path d="M 207.360431 360.429 
L 208.85555 360.429 
L 208.85555 260.695286 
L 207.360431 260.695286 
z
" clip-path="url(#p377714eb47)" style="fill: #08255b"/>
   </g>
   <g id="patch_211">
    <path d="M 241.534593 360.429 
L 243.029713 360.429 
L 243.029713 270.1269 
L 241.534593 270.1269 
z
" clip-path="url(#p377714eb47)" style="fill: #08255b"/>
   </g>
   <g id="patch_212">
    <path d="M 275.708756 360.429 
L 277.203876 360.429 
L 277.203876 233.082597 
L 275.708756 233.082597 
z
" clip-path="url(#p377714eb47)" style="fill: #08255b"/>
   </g>
   <g id="patch_213">
    <path d="M 309.882919 360.429 
L 311.378038 360.429 
L 311.378038 288.030694 
L 309.882919 288.030694 
z
" clip-path="url(#p377714eb47)" style="fill: #08255b"/>
   </g>
   <g id="patch_214">
    <path d="M 344.057081 360.429 
L 345.552201 360.429 
L 345.552201 163.485427 
L 344.057081 163.485427 
z
" clip-path="url(#p377714eb47)" style="fill: #08255b"/>
   </g>
   <g id="patch_215">
    <path d="M 378.231244 360.429 
L 379.726364 360.429 
L 379.726364 154.718299 
L 378.231244 154.718299 
z
" clip-path="url(#p377714eb47)" style="fill: #08255b"/>
   </g>
   <g id="patch_216">
    <path d="M 412.405407 360.429 
L 413.900526 360.429 
L 413.900526 153.436749 
L 412.405407 153.436749 
z
" clip-path="url(#p377714eb47)" style="fill: #08255b"/>
   </g>
   <g id="patch_217">
    <path d="M 446.579569 360.429 
L 448.074689 360.429 
L 448.074689 159.894132 
L 446.579569 159.894132 
z
" clip-path="url(#p377714eb47)" style="fill: #08255b"/>
   </g>
   <g id="patch_218">
    <path d="M 480.753732 360.429 
L 482.248852 360.429 
L 482.248852 318.124531 
L 480.753732 318.124531 
z
" clip-path="url(#p377714eb47)" style="fill: #08255b"/>
   </g>
   <g id="patch_219">
    <path d="M 106.333062 360.429 
L 107.828182 360.429 
L 107.828182 118.840242 
L 106.333062 118.840242 
z
" clip-path="url(#p377714eb47)" style="fill: #fdaea2"/>
   </g>
   <g id="patch_220">
    <path d="M 140.507225 360.429 
L 142.002344 360.429 
L 142.002344 102.970901 
L 140.507225 102.970901 
z
" clip-path="url(#p377714eb47)" style="fill: #fdaea2"/>
   </g>
   <g id="patch_221">
    <path d="M 174.681388 360.429 
L 176.176507 360.429 
L 176.176507 102.970901 
L 174.681388 102.970901 
z
" clip-path="url(#p377714eb47)" style="fill: #fdaea2"/>
   </g>
   <g id="patch_222">
    <path d="M 208.85555 360.429 
L 210.35067 360.429 
L 210.35067 135.182769 
L 208.85555 135.182769 
z
" clip-path="url(#p377714eb47)" style="fill: #fdaea2"/>
   </g>
   <g id="patch_223">
    <path d="M 243.029713 360.429 
L 244.524833 360.429 
L 244.524833 146.20488 
L 243.029713 146.20488 
z
" clip-path="url(#p377714eb47)" style="fill: #fdaea2"/>
   </g>
   <g id="patch_224">
    <path d="M 277.203876 360.429 
L 278.698995 360.429 
L 278.698995 111.178348 
L 277.203876 111.178348 
z
" clip-path="url(#p377714eb47)" style="fill: #fdaea2"/>
   </g>
   <g id="patch_225">
    <path d="M 311.378038 360.429 
L 312.873158 360.429 
L 312.873158 148.346683 
L 311.378038 148.346683 
z
" clip-path="url(#p377714eb47)" style="fill: #fdaea2"/>
   </g>
   <g id="patch_226">
    <path d="M 345.552201 360.429 
L 347.047321 360.429 
L 347.047321 95.703373 
L 345.552201 95.703373 
z
" clip-path="url(#p377714eb47)" style="fill: #fdaea2"/>
   </g>
   <g id="patch_227">
    <path d="M 379.726364 360.429 
L 381.221483 360.429 
L 381.221483 141.608381 
L 379.726364 141.608381 
z
" clip-path="url(#p377714eb47)" style="fill: #fdaea2"/>
   </g>
   <g id="patch_228">
    <path d="M 413.900526 360.429 
L 415.395646 360.429 
L 415.395646 127.972611 
L 413.900526 127.972611 
z
" clip-path="url(#p377714eb47)" style="fill: #fdaea2"/>
   </g>
   <g id="patch_229">
    <path d="M 448.074689 360.429 
L 449.569809 360.429 
L 449.569809 122.12694 
L 448.074689 122.12694 
z
" clip-path="url(#p377714eb47)" style="fill: #fdaea2"/>
   </g>
   <g id="patch_230">
    <path d="M 482.248852 360.429 
L 483.743971 360.429 
L 483.743971 102.806183 
L 482.248852 102.806183 
z
" clip-path="url(#p377714eb47)" style="fill: #fdaea2"/>
   </g>
   <g id="patch_231">
    <path d="M 107.828182 360.429 
L 109.323301 360.429 
L 109.323301 223.274321 
L 107.828182 223.274321 
z
" clip-path="url(#p377714eb47)" style="fill: #fbc6e8"/>
   </g>
   <g id="patch_232">
    <path d="M 142.002344 360.429 
L 143.497464 360.429 
L 143.497464 190.447085 
L 142.002344 190.447085 
z
" clip-path="url(#p377714eb47)" style="fill: #fbc6e8"/>
   </g>
   <g id="patch_233">
    <path d="M 176.176507 360.429 
L 177.671627 360.429 
L 177.671627 190.447085 
L 176.176507 190.447085 
z
" clip-path="url(#p377714eb47)" style="fill: #fbc6e8"/>
   </g>
   <g id="patch_234">
    <path d="M 210.35067 360.429 
L 211.845789 360.429 
L 211.845789 261.489323 
L 210.35067 261.489323 
z
" clip-path="url(#p377714eb47)" style="fill: #fbc6e8"/>
   </g>
   <g id="patch_235">
    <path d="M 244.524833 360.429 
L 246.019952 360.429 
L 246.019952 267.638022 
L 244.524833 267.638022 
z
" clip-path="url(#p377714eb47)" style="fill: #fbc6e8"/>
   </g>
   <g id="patch_236">
    <path d="M 278.698995 360.429 
L 280.194115 360.429 
L 280.194115 249.812593 
L 278.698995 249.812593 
z
" clip-path="url(#p377714eb47)" style="fill: #fbc6e8"/>
   </g>
   <g id="patch_237">
    <path d="M 312.873158 360.429 
L 314.368278 360.429 
L 314.368278 265.549751 
L 312.873158 265.549751 
z
" clip-path="url(#p377714eb47)" style="fill: #fbc6e8"/>
   </g>
   <g id="patch_238">
    <path d="M 347.047321 360.429 
L 348.54244 360.429 
L 348.54244 346.599412 
L 347.047321 346.599412 
z
" clip-path="url(#p377714eb47)" style="fill: #fbc6e8"/>
   </g>
   <g id="patch_239">
    <path d="M 381.221483 360.429 
L 382.716603 360.429 
L 382.716603 289.543448 
L 381.221483 289.543448 
z
" clip-path="url(#p377714eb47)" style="fill: #fbc6e8"/>
   </g>
   <g id="patch_240">
    <path d="M 415.395646 360.429 
L 416.890766 360.429 
L 416.890766 230.090336 
L 415.395646 230.090336 
z
" clip-path="url(#p377714eb47)" style="fill: #fbc6e8"/>
   </g>
   <g id="patch_241">
    <path d="M 449.569809 360.429 
L 451.064928 360.429 
L 451.064928 255.684916 
L 449.569809 255.684916 
z
" clip-path="url(#p377714eb47)" style="fill: #fbc6e8"/>
   </g>
   <g id="patch_242">
    <path d="M 483.743971 360.429 
L 485.239091 360.429 
L 485.239091 245.8995 
L 483.743971 245.8995 
z
" clip-path="url(#p377714eb47)" style="fill: #fbc6e8"/>
   </g>
   <g id="matplotlib.axis_1">
    <g id="xtick_1">
     <g id="line2d_1">
      <defs>
       <path id="m0e5c197d63" d="M 0 0 
L 0 3.5 
" style="stroke: #000000; stroke-width: 0.8"/>
      </defs>
      <g>
       <use xlink:href="#m0e5c197d63" x="94.372105" y="360.429" style="stroke: #000000; stroke-width: 0.8"/>
      </g>
     </g>
     <g id="text_1">
      <!-- DH -->
      <g transform="translate(82.195855 379.5865) scale(0.16 -0.16)">
       <defs>
        <path id="DejaVuSans-44" d="M 1259 4147 
L 1259 519 
L 2022 519 
Q 2988 519 3436 956 
Q 3884 1394 3884 2338 
Q 3884 3275 3436 3711 
Q 2988 4147 2022 4147 
L 1259 4147 
z
M 628 4666 
L 1925 4666 
Q 3281 4666 3915 4102 
Q 4550 3538 4550 2338 
Q 4550 1131 3912 565 
Q 3275 0 1925 0 
L 628 0 
L 628 4666 
z
" transform="scale(0.015625)"/>
        <path id="DejaVuSans-48" d="M 628 4666 
L 1259 4666 
L 1259 2753 
L 3553 2753 
L 3553 4666 
L 4184 4666 
L 4184 0 
L 3553 0 
L 3553 2222 
L 1259 2222 
L 1259 0 
L 628 0 
L 628 4666 
z
" transform="scale(0.015625)"/>
       </defs>
       <use xlink:href="#DejaVuSans-44"/>
       <use xlink:href="#DejaVuSans-48" x="77.001953"/>
      </g>
     </g>
    </g>
    <g id="xtick_2">
     <g id="line2d_2">
      <g>
       <use xlink:href="#m0e5c197d63" x="128.546268" y="360.429" style="stroke: #000000; stroke-width: 0.8"/>
      </g>
     </g>
     <g id="text_2">
      <!-- WH -->
      <g transform="translate(114.620018 379.5865) scale(0.16 -0.16)">
       <defs>
        <path id="DejaVuSans-57" d="M 213 4666 
L 850 4666 
L 1831 722 
L 2809 4666 
L 3519 4666 
L 4500 722 
L 5478 4666 
L 6119 4666 
L 4947 0 
L 4153 0 
L 3169 4050 
L 2175 0 
L 1381 0 
L 213 4666 
z
" transform="scale(0.015625)"/>
       </defs>
       <use xlink:href="#DejaVuSans-57"/>
       <use xlink:href="#DejaVuSans-48" x="98.876953"/>
      </g>
     </g>
    </g>
    <g id="xtick_3">
     <g id="line2d_3">
      <g>
       <use xlink:href="#m0e5c197d63" x="162.720431" y="360.429" style="stroke: #000000; stroke-width: 0.8"/>
      </g>
     </g>
     <g id="text_3">
      <!-- ET -->
      <g transform="translate(152.779181 379.5865) scale(0.16 -0.16)">
       <defs>
        <path id="DejaVuSans-45" d="M 628 4666 
L 3578 4666 
L 3578 4134 
L 1259 4134 
L 1259 2753 
L 3481 2753 
L 3481 2222 
L 1259 2222 
L 1259 531 
L 3634 531 
L 3634 0 
L 628 0 
L 628 4666 
z
" transform="scale(0.015625)"/>
        <path id="DejaVuSans-54" d="M -19 4666 
L 3928 4666 
L 3928 4134 
L 2272 4134 
L 2272 0 
L 1638 0 
L 1638 4134 
L -19 4134 
L -19 4666 
z
" transform="scale(0.015625)"/>
       </defs>
       <use xlink:href="#DejaVuSans-45"/>
       <use xlink:href="#DejaVuSans-54" x="63.183594"/>
      </g>
     </g>
    </g>
    <g id="xtick_4">
     <g id="line2d_4">
      <g>
       <use xlink:href="#m0e5c197d63" x="196.894593" y="360.429" style="stroke: #000000; stroke-width: 0.8"/>
      </g>
     </g>
     <g id="text_4">
      <!-- FC1 -->
      <g transform="translate(181.617093 379.5865) scale(0.16 -0.16)">
       <defs>
        <path id="DejaVuSans-46" d="M 628 4666 
L 3309 4666 
L 3309 4134 
L 1259 4134 
L 1259 2759 
L 3109 2759 
L 3109 2228 
L 1259 2228 
L 1259 0 
L 628 0 
L 628 4666 
z
" transform="scale(0.015625)"/>
        <path id="DejaVuSans-43" d="M 4122 4306 
L 4122 3641 
Q 3803 3938 3442 4084 
Q 3081 4231 2675 4231 
Q 1875 4231 1450 3742 
Q 1025 3253 1025 2328 
Q 1025 1406 1450 917 
Q 1875 428 2675 428 
Q 3081 428 3442 575 
Q 3803 722 4122 1019 
L 4122 359 
Q 3791 134 3420 21 
Q 3050 -91 2638 -91 
Q 1578 -91 968 557 
Q 359 1206 359 2328 
Q 359 3453 968 4101 
Q 1578 4750 2638 4750 
Q 3056 4750 3426 4639 
Q 3797 4528 4122 4306 
z
" transform="scale(0.015625)"/>
        <path id="DejaVuSans-31" d="M 794 531 
L 1825 531 
L 1825 4091 
L 703 3866 
L 703 4441 
L 1819 4666 
L 2450 4666 
L 2450 531 
L 3481 531 
L 3481 0 
L 794 0 
L 794 531 
z
" transform="scale(0.015625)"/>
       </defs>
       <use xlink:href="#DejaVuSans-46"/>
       <use xlink:href="#DejaVuSans-43" x="57.519531"/>
       <use xlink:href="#DejaVuSans-31" x="127.34375"/>
      </g>
     </g>
    </g>
    <g id="xtick_5">
     <g id="line2d_5">
      <g>
       <use xlink:href="#m0e5c197d63" x="231.068756" y="360.429" style="stroke: #000000; stroke-width: 0.8"/>
      </g>
     </g>
     <g id="text_5">
      <!-- FC2 -->
      <g transform="translate(215.791256 379.5865) scale(0.16 -0.16)">
       <defs>
        <path id="DejaVuSans-32" d="M 1228 531 
L 3431 531 
L 3431 0 
L 469 0 
L 469 531 
Q 828 903 1448 1529 
Q 2069 2156 2228 2338 
Q 2531 2678 2651 2914 
Q 2772 3150 2772 3378 
Q 2772 3750 2511 3984 
Q 2250 4219 1831 4219 
Q 1534 4219 1204 4116 
Q 875 4013 500 3803 
L 500 4441 
Q 881 4594 1212 4672 
Q 1544 4750 1819 4750 
Q 2544 4750 2975 4387 
Q 3406 4025 3406 3419 
Q 3406 3131 3298 2873 
Q 3191 2616 2906 2266 
Q 2828 2175 2409 1742 
Q 1991 1309 1228 531 
z
" transform="scale(0.015625)"/>
       </defs>
       <use xlink:href="#DejaVuSans-46"/>
       <use xlink:href="#DejaVuSans-43" x="57.519531"/>
       <use xlink:href="#DejaVuSans-32" x="127.34375"/>
      </g>
     </g>
    </g>
    <g id="xtick_6">
     <g id="line2d_6">
      <g>
       <use xlink:href="#m0e5c197d63" x="265.242919" y="360.429" style="stroke: #000000; stroke-width: 0.8"/>
      </g>
     </g>
     <g id="text_6">
      <!-- FC3 -->
      <g transform="translate(249.965419 379.5865) scale(0.16 -0.16)">
       <defs>
        <path id="DejaVuSans-33" d="M 2597 2516 
Q 3050 2419 3304 2112 
Q 3559 1806 3559 1356 
Q 3559 666 3084 287 
Q 2609 -91 1734 -91 
Q 1441 -91 1130 -33 
Q 819 25 488 141 
L 488 750 
Q 750 597 1062 519 
Q 1375 441 1716 441 
Q 2309 441 2620 675 
Q 2931 909 2931 1356 
Q 2931 1769 2642 2001 
Q 2353 2234 1838 2234 
L 1294 2234 
L 1294 2753 
L 1863 2753 
Q 2328 2753 2575 2939 
Q 2822 3125 2822 3475 
Q 2822 3834 2567 4026 
Q 2313 4219 1838 4219 
Q 1578 4219 1281 4162 
Q 984 4106 628 3988 
L 628 4550 
Q 988 4650 1302 4700 
Q 1616 4750 1894 4750 
Q 2613 4750 3031 4423 
Q 3450 4097 3450 3541 
Q 3450 3153 3228 2886 
Q 3006 2619 2597 2516 
z
" transform="scale(0.015625)"/>
       </defs>
       <use xlink:href="#DejaVuSans-46"/>
       <use xlink:href="#DejaVuSans-43" x="57.519531"/>
       <use xlink:href="#DejaVuSans-33" x="127.34375"/>
      </g>
     </g>
    </g>
    <g id="xtick_7">
     <g id="line2d_7">
      <g>
       <use xlink:href="#m0e5c197d63" x="299.417081" y="360.429" style="stroke: #000000; stroke-width: 0.8"/>
      </g>
     </g>
     <g id="text_7">
      <!-- PT -->
      <g transform="translate(289.707081 379.5865) scale(0.16 -0.16)">
       <defs>
        <path id="DejaVuSans-50" d="M 1259 4147 
L 1259 2394 
L 2053 2394 
Q 2494 2394 2734 2622 
Q 2975 2850 2975 3272 
Q 2975 3691 2734 3919 
Q 2494 4147 2053 4147 
L 1259 4147 
z
M 628 4666 
L 2053 4666 
Q 2838 4666 3239 4311 
Q 3641 3956 3641 3272 
Q 3641 2581 3239 2228 
Q 2838 1875 2053 1875 
L 1259 1875 
L 1259 0 
L 628 0 
L 628 4666 
z
" transform="scale(0.015625)"/>
       </defs>
       <use xlink:href="#DejaVuSans-50"/>
       <use xlink:href="#DejaVuSans-54" x="60.302734"/>
      </g>
     </g>
    </g>
    <g id="xtick_8">
     <g id="line2d_8">
      <g>
       <use xlink:href="#m0e5c197d63" x="333.591244" y="360.429" style="stroke: #000000; stroke-width: 0.8"/>
      </g>
     </g>
     <g id="text_8">
      <!-- CS -->
      <g transform="translate(322.926244 379.5865) scale(0.16 -0.16)">
       <defs>
        <path id="DejaVuSans-53" d="M 3425 4513 
L 3425 3897 
Q 3066 4069 2747 4153 
Q 2428 4238 2131 4238 
Q 1616 4238 1336 4038 
Q 1056 3838 1056 3469 
Q 1056 3159 1242 3001 
Q 1428 2844 1947 2747 
L 2328 2669 
Q 3034 2534 3370 2195 
Q 3706 1856 3706 1288 
Q 3706 609 3251 259 
Q 2797 -91 1919 -91 
Q 1588 -91 1214 -16 
Q 841 59 441 206 
L 441 856 
Q 825 641 1194 531 
Q 1563 422 1919 422 
Q 2459 422 2753 634 
Q 3047 847 3047 1241 
Q 3047 1584 2836 1778 
Q 2625 1972 2144 2069 
L 1759 2144 
Q 1053 2284 737 2584 
Q 422 2884 422 3419 
Q 422 4038 858 4394 
Q 1294 4750 2059 4750 
Q 2388 4750 2728 4690 
Q 3069 4631 3425 4513 
z
" transform="scale(0.015625)"/>
       </defs>
       <use xlink:href="#DejaVuSans-43"/>
       <use xlink:href="#DejaVuSans-53" x="69.824219"/>
      </g>
     </g>
    </g>
    <g id="xtick_9">
     <g id="line2d_9">
      <g>
       <use xlink:href="#m0e5c197d63" x="367.765407" y="360.429" style="stroke: #000000; stroke-width: 0.8"/>
      </g>
     </g>
     <g id="text_9">
      <!-- PC -->
      <g transform="translate(357.355407 379.5865) scale(0.16 -0.16)">
       <use xlink:href="#DejaVuSans-50"/>
       <use xlink:href="#DejaVuSans-43" x="60.302734"/>
      </g>
     </g>
    </g>
    <g id="xtick_10">
     <g id="line2d_10">
      <g>
       <use xlink:href="#m0e5c197d63" x="401.939569" y="360.429" style="stroke: #000000; stroke-width: 0.8"/>
      </g>
     </g>
     <g id="text_10">
      <!-- SS1 -->
      <g transform="translate(386.692069 379.5865) scale(0.16 -0.16)">
       <use xlink:href="#DejaVuSans-53"/>
       <use xlink:href="#DejaVuSans-53" x="63.476562"/>
       <use xlink:href="#DejaVuSans-31" x="126.953125"/>
      </g>
     </g>
    </g>
    <g id="xtick_11">
     <g id="line2d_11">
      <g>
       <use xlink:href="#m0e5c197d63" x="436.113732" y="360.429" style="stroke: #000000; stroke-width: 0.8"/>
      </g>
     </g>
     <g id="text_11">
      <!-- SS8 -->
      <g transform="translate(420.866232 379.5865) scale(0.16 -0.16)">
       <defs>
        <path id="DejaVuSans-38" d="M 2034 2216 
Q 1584 2216 1326 1975 
Q 1069 1734 1069 1313 
Q 1069 891 1326 650 
Q 1584 409 2034 409 
Q 2484 409 2743 651 
Q 3003 894 3003 1313 
Q 3003 1734 2745 1975 
Q 2488 2216 2034 2216 
z
M 1403 2484 
Q 997 2584 770 2862 
Q 544 3141 544 3541 
Q 544 4100 942 4425 
Q 1341 4750 2034 4750 
Q 2731 4750 3128 4425 
Q 3525 4100 3525 3541 
Q 3525 3141 3298 2862 
Q 3072 2584 2669 2484 
Q 3125 2378 3379 2068 
Q 3634 1759 3634 1313 
Q 3634 634 3220 271 
Q 2806 -91 2034 -91 
Q 1263 -91 848 271 
Q 434 634 434 1313 
Q 434 1759 690 2068 
Q 947 2378 1403 2484 
z
M 1172 3481 
Q 1172 3119 1398 2916 
Q 1625 2713 2034 2713 
Q 2441 2713 2670 2916 
Q 2900 3119 2900 3481 
Q 2900 3844 2670 4047 
Q 2441 4250 2034 4250 
Q 1625 4250 1398 4047 
Q 1172 3844 1172 3481 
z
" transform="scale(0.015625)"/>
       </defs>
       <use xlink:href="#DejaVuSans-53"/>
       <use xlink:href="#DejaVuSans-53" x="63.476562"/>
       <use xlink:href="#DejaVuSans-38" x="126.953125"/>
      </g>
     </g>
    </g>
    <g id="xtick_12">
     <g id="line2d_12">
      <g>
       <use xlink:href="#m0e5c197d63" x="470.287895" y="360.429" style="stroke: #000000; stroke-width: 0.8"/>
      </g>
     </g>
     <g id="text_12">
      <!-- SC -->
      <g transform="translate(459.622895 379.5865) scale(0.16 -0.16)">
       <use xlink:href="#DejaVuSans-53"/>
       <use xlink:href="#DejaVuSans-43" x="63.476562"/>
      </g>
     </g>
    </g>
   </g>
   <g id="matplotlib.axis_2">
    <g id="ytick_1">
     <g id="line2d_13">
      <defs>
       <path id="m7c5988fcd4" d="M 0 0 
L -3.5 0 
" style="stroke: #000000; stroke-width: 0.8"/>
      </defs>
      <g>
       <use xlink:href="#m7c5988fcd4" x="59.13" y="360.429" style="stroke: #000000; stroke-width: 0.8"/>
      </g>
     </g>
     <g id="text_13">
      <!-- 0.0 -->
      <g transform="translate(26.685 366.50775) scale(0.16 -0.16)">
       <defs>
        <path id="DejaVuSans-30" d="M 2034 4250 
Q 1547 4250 1301 3770 
Q 1056 3291 1056 2328 
Q 1056 1369 1301 889 
Q 1547 409 2034 409 
Q 2525 409 2770 889 
Q 3016 1369 3016 2328 
Q 3016 3291 2770 3770 
Q 2525 4250 2034 4250 
z
M 2034 4750 
Q 2819 4750 3233 4129 
Q 3647 3509 3647 2328 
Q 3647 1150 3233 529 
Q 2819 -91 2034 -91 
Q 1250 -91 836 529 
Q 422 1150 422 2328 
Q 422 3509 836 4129 
Q 1250 4750 2034 4750 
z
" transform="scale(0.015625)"/>
        <path id="DejaVuSans-2e" d="M 684 794 
L 1344 794 
L 1344 0 
L 684 0 
L 684 794 
z
" transform="scale(0.015625)"/>
       </defs>
       <use xlink:href="#DejaVuSans-30"/>
       <use xlink:href="#DejaVuSans-2e" x="63.623047"/>
       <use xlink:href="#DejaVuSans-30" x="95.410156"/>
      </g>
     </g>
    </g>
    <g id="ytick_2">
     <g id="line2d_14">
      <g>
       <use xlink:href="#m7c5988fcd4" x="59.13" y="297.069" style="stroke: #000000; stroke-width: 0.8"/>
      </g>
     </g>
     <g id="text_14">
      <!-- 0.2 -->
      <g transform="translate(26.685 303.14775) scale(0.16 -0.16)">
       <use xlink:href="#DejaVuSans-30"/>
       <use xlink:href="#DejaVuSans-2e" x="63.623047"/>
       <use xlink:href="#DejaVuSans-32" x="95.410156"/>
      </g>
     </g>
    </g>
    <g id="ytick_3">
     <g id="line2d_15">
      <g>
       <use xlink:href="#m7c5988fcd4" x="59.13" y="233.709" style="stroke: #000000; stroke-width: 0.8"/>
      </g>
     </g>
     <g id="text_15">
      <!-- 0.4 -->
      <g transform="translate(26.685 239.78775) scale(0.16 -0.16)">
       <defs>
        <path id="DejaVuSans-34" d="M 2419 4116 
L 825 1625 
L 2419 1625 
L 2419 4116 
z
M 2253 4666 
L 3047 4666 
L 3047 1625 
L 3713 1625 
L 3713 1100 
L 3047 1100 
L 3047 0 
L 2419 0 
L 2419 1100 
L 313 1100 
L 313 1709 
L 2253 4666 
z
" transform="scale(0.015625)"/>
       </defs>
       <use xlink:href="#DejaVuSans-30"/>
       <use xlink:href="#DejaVuSans-2e" x="63.623047"/>
       <use xlink:href="#DejaVuSans-34" x="95.410156"/>
      </g>
     </g>
    </g>
    <g id="ytick_4">
     <g id="line2d_16">
      <g>
       <use xlink:href="#m7c5988fcd4" x="59.13" y="170.349" style="stroke: #000000; stroke-width: 0.8"/>
      </g>
     </g>
     <g id="text_16">
      <!-- 0.6 -->
      <g transform="translate(26.685 176.42775) scale(0.16 -0.16)">
       <defs>
        <path id="DejaVuSans-36" d="M 2113 2584 
Q 1688 2584 1439 2293 
Q 1191 2003 1191 1497 
Q 1191 994 1439 701 
Q 1688 409 2113 409 
Q 2538 409 2786 701 
Q 3034 994 3034 1497 
Q 3034 2003 2786 2293 
Q 2538 2584 2113 2584 
z
M 3366 4563 
L 3366 3988 
Q 3128 4100 2886 4159 
Q 2644 4219 2406 4219 
Q 1781 4219 1451 3797 
Q 1122 3375 1075 2522 
Q 1259 2794 1537 2939 
Q 1816 3084 2150 3084 
Q 2853 3084 3261 2657 
Q 3669 2231 3669 1497 
Q 3669 778 3244 343 
Q 2819 -91 2113 -91 
Q 1303 -91 875 529 
Q 447 1150 447 2328 
Q 447 3434 972 4092 
Q 1497 4750 2381 4750 
Q 2619 4750 2861 4703 
Q 3103 4656 3366 4563 
z
" transform="scale(0.015625)"/>
       </defs>
       <use xlink:href="#DejaVuSans-30"/>
       <use xlink:href="#DejaVuSans-2e" x="63.623047"/>
       <use xlink:href="#DejaVuSans-36" x="95.410156"/>
      </g>
     </g>
    </g>
    <g id="ytick_5">
     <g id="line2d_17">
      <g>
       <use xlink:href="#m7c5988fcd4" x="59.13" y="106.989" style="stroke: #000000; stroke-width: 0.8"/>
      </g>
     </g>
     <g id="text_17">
      <!-- 0.8 -->
      <g transform="translate(26.685 113.06775) scale(0.16 -0.16)">
       <use xlink:href="#DejaVuSans-30"/>
       <use xlink:href="#DejaVuSans-2e" x="63.623047"/>
       <use xlink:href="#DejaVuSans-38" x="95.410156"/>
      </g>
     </g>
    </g>
    <g id="ytick_6">
     <g id="line2d_18">
      <g>
       <use xlink:href="#m7c5988fcd4" x="59.13" y="43.629" style="stroke: #000000; stroke-width: 0.8"/>
      </g>
     </g>
     <g id="text_18">
      <!-- 1.0 -->
      <g transform="translate(26.685 49.70775) scale(0.16 -0.16)">
       <use xlink:href="#DejaVuSans-31"/>
       <use xlink:href="#DejaVuSans-2e" x="63.623047"/>
       <use xlink:href="#DejaVuSans-30" x="95.410156"/>
      </g>
     </g>
    </g>
    <g id="text_19">
     <!-- Index -->
     <g transform="translate(19.3575 216.13525) rotate(-90) scale(0.16 -0.16)">
      <defs>
       <path id="DejaVuSans-49" d="M 628 4666 
L 1259 4666 
L 1259 0 
L 628 0 
L 628 4666 
z
" transform="scale(0.015625)"/>
       <path id="DejaVuSans-6e" d="M 3513 2113 
L 3513 0 
L 2938 0 
L 2938 2094 
Q 2938 2591 2744 2837 
Q 2550 3084 2163 3084 
Q 1697 3084 1428 2787 
Q 1159 2491 1159 1978 
L 1159 0 
L 581 0 
L 581 3500 
L 1159 3500 
L 1159 2956 
Q 1366 3272 1645 3428 
Q 1925 3584 2291 3584 
Q 2894 3584 3203 3211 
Q 3513 2838 3513 2113 
z
" transform="scale(0.015625)"/>
       <path id="DejaVuSans-64" d="M 2906 2969 
L 2906 4863 
L 3481 4863 
L 3481 0 
L 2906 0 
L 2906 525 
Q 2725 213 2448 61 
Q 2172 -91 1784 -91 
Q 1150 -91 751 415 
Q 353 922 353 1747 
Q 353 2572 751 3078 
Q 1150 3584 1784 3584 
Q 2172 3584 2448 3432 
Q 2725 3281 2906 2969 
z
M 947 1747 
Q 947 1113 1208 752 
Q 1469 391 1925 391 
Q 2381 391 2643 752 
Q 2906 1113 2906 1747 
Q 2906 2381 2643 2742 
Q 2381 3103 1925 3103 
Q 1469 3103 1208 2742 
Q 947 2381 947 1747 
z
" transform="scale(0.015625)"/>
       <path id="DejaVuSans-65" d="M 3597 1894 
L 3597 1613 
L 953 1613 
Q 991 1019 1311 708 
Q 1631 397 2203 397 
Q 2534 397 2845 478 
Q 3156 559 3463 722 
L 3463 178 
Q 3153 47 2828 -22 
Q 2503 -91 2169 -91 
Q 1331 -91 842 396 
Q 353 884 353 1716 
Q 353 2575 817 3079 
Q 1281 3584 2069 3584 
Q 2775 3584 3186 3129 
Q 3597 2675 3597 1894 
z
M 3022 2063 
Q 3016 2534 2758 2815 
Q 2500 3097 2075 3097 
Q 1594 3097 1305 2825 
Q 1016 2553 972 2059 
L 3022 2063 
z
" transform="scale(0.015625)"/>
       <path id="DejaVuSans-78" d="M 3513 3500 
L 2247 1797 
L 3578 0 
L 2900 0 
L 1881 1375 
L 863 0 
L 184 0 
L 1544 1831 
L 300 3500 
L 978 3500 
L 1906 2253 
L 2834 3500 
L 3513 3500 
z
" transform="scale(0.015625)"/>
      </defs>
      <use xlink:href="#DejaVuSans-49"/>
      <use xlink:href="#DejaVuSans-6e" x="29.492188"/>
      <use xlink:href="#DejaVuSans-64" x="92.871094"/>
      <use xlink:href="#DejaVuSans-65" x="156.347656"/>
      <use xlink:href="#DejaVuSans-78" x="216.121094"/>
     </g>
    </g>
   </g>
   <g id="patch_243">
    <path d="M 59.13 360.429 
L 59.13 27.789 
" style="fill: none; stroke: #000000; stroke-width: 0.8; stroke-linejoin: miter; stroke-linecap: square"/>
   </g>
   <g id="patch_244">
    <path d="M 505.53 360.429 
L 505.53 27.789 
" style="fill: none; stroke: #000000; stroke-width: 0.8; stroke-linejoin: miter; stroke-linecap: square"/>
   </g>
   <g id="patch_245">
    <path d="M 59.13 360.429 
L 505.53 360.429 
" style="fill: none; stroke: #000000; stroke-width: 0.8; stroke-linejoin: miter; stroke-linecap: square"/>
   </g>
   <g id="patch_246">
    <path d="M 59.13 27.789 
L 505.53 27.789 
" style="fill: none; stroke: #000000; stroke-width: 0.8; stroke-linejoin: miter; stroke-linecap: square"/>
   </g>
   <g id="text_20">
    <!-- UnixBench Individual Tests Single Core Normalised -->
    <g transform="translate(38.883 21.789) scale(0.192 -0.192)">
     <defs>
      <path id="DejaVuSans-55" d="M 556 4666 
L 1191 4666 
L 1191 1831 
Q 1191 1081 1462 751 
Q 1734 422 2344 422 
Q 2950 422 3222 751 
Q 3494 1081 3494 1831 
L 3494 4666 
L 4128 4666 
L 4128 1753 
Q 4128 841 3676 375 
Q 3225 -91 2344 -91 
Q 1459 -91 1007 375 
Q 556 841 556 1753 
L 556 4666 
z
" transform="scale(0.015625)"/>
      <path id="DejaVuSans-69" d="M 603 3500 
L 1178 3500 
L 1178 0 
L 603 0 
L 603 3500 
z
M 603 4863 
L 1178 4863 
L 1178 4134 
L 603 4134 
L 603 4863 
z
" transform="scale(0.015625)"/>
      <path id="DejaVuSans-42" d="M 1259 2228 
L 1259 519 
L 2272 519 
Q 2781 519 3026 730 
Q 3272 941 3272 1375 
Q 3272 1813 3026 2020 
Q 2781 2228 2272 2228 
L 1259 2228 
z
M 1259 4147 
L 1259 2741 
L 2194 2741 
Q 2656 2741 2882 2914 
Q 3109 3088 3109 3444 
Q 3109 3797 2882 3972 
Q 2656 4147 2194 4147 
L 1259 4147 
z
M 628 4666 
L 2241 4666 
Q 2963 4666 3353 4366 
Q 3744 4066 3744 3513 
Q 3744 3084 3544 2831 
Q 3344 2578 2956 2516 
Q 3422 2416 3680 2098 
Q 3938 1781 3938 1306 
Q 3938 681 3513 340 
Q 3088 0 2303 0 
L 628 0 
L 628 4666 
z
" transform="scale(0.015625)"/>
      <path id="DejaVuSans-63" d="M 3122 3366 
L 3122 2828 
Q 2878 2963 2633 3030 
Q 2388 3097 2138 3097 
Q 1578 3097 1268 2742 
Q 959 2388 959 1747 
Q 959 1106 1268 751 
Q 1578 397 2138 397 
Q 2388 397 2633 464 
Q 2878 531 3122 666 
L 3122 134 
Q 2881 22 2623 -34 
Q 2366 -91 2075 -91 
Q 1284 -91 818 406 
Q 353 903 353 1747 
Q 353 2603 823 3093 
Q 1294 3584 2113 3584 
Q 2378 3584 2631 3529 
Q 2884 3475 3122 3366 
z
" transform="scale(0.015625)"/>
      <path id="DejaVuSans-68" d="M 3513 2113 
L 3513 0 
L 2938 0 
L 2938 2094 
Q 2938 2591 2744 2837 
Q 2550 3084 2163 3084 
Q 1697 3084 1428 2787 
Q 1159 2491 1159 1978 
L 1159 0 
L 581 0 
L 581 4863 
L 1159 4863 
L 1159 2956 
Q 1366 3272 1645 3428 
Q 1925 3584 2291 3584 
Q 2894 3584 3203 3211 
Q 3513 2838 3513 2113 
z
" transform="scale(0.015625)"/>
      <path id="DejaVuSans-20" transform="scale(0.015625)"/>
      <path id="DejaVuSans-76" d="M 191 3500 
L 800 3500 
L 1894 563 
L 2988 3500 
L 3597 3500 
L 2284 0 
L 1503 0 
L 191 3500 
z
" transform="scale(0.015625)"/>
      <path id="DejaVuSans-75" d="M 544 1381 
L 544 3500 
L 1119 3500 
L 1119 1403 
Q 1119 906 1312 657 
Q 1506 409 1894 409 
Q 2359 409 2629 706 
Q 2900 1003 2900 1516 
L 2900 3500 
L 3475 3500 
L 3475 0 
L 2900 0 
L 2900 538 
Q 2691 219 2414 64 
Q 2138 -91 1772 -91 
Q 1169 -91 856 284 
Q 544 659 544 1381 
z
M 1991 3584 
L 1991 3584 
z
" transform="scale(0.015625)"/>
      <path id="DejaVuSans-61" d="M 2194 1759 
Q 1497 1759 1228 1600 
Q 959 1441 959 1056 
Q 959 750 1161 570 
Q 1363 391 1709 391 
Q 2188 391 2477 730 
Q 2766 1069 2766 1631 
L 2766 1759 
L 2194 1759 
z
M 3341 1997 
L 3341 0 
L 2766 0 
L 2766 531 
Q 2569 213 2275 61 
Q 1981 -91 1556 -91 
Q 1019 -91 701 211 
Q 384 513 384 1019 
Q 384 1609 779 1909 
Q 1175 2209 1959 2209 
L 2766 2209 
L 2766 2266 
Q 2766 2663 2505 2880 
Q 2244 3097 1772 3097 
Q 1472 3097 1187 3025 
Q 903 2953 641 2809 
L 641 3341 
Q 956 3463 1253 3523 
Q 1550 3584 1831 3584 
Q 2591 3584 2966 3190 
Q 3341 2797 3341 1997 
z
" transform="scale(0.015625)"/>
      <path id="DejaVuSans-6c" d="M 603 4863 
L 1178 4863 
L 1178 0 
L 603 0 
L 603 4863 
z
" transform="scale(0.015625)"/>
      <path id="DejaVuSans-73" d="M 2834 3397 
L 2834 2853 
Q 2591 2978 2328 3040 
Q 2066 3103 1784 3103 
Q 1356 3103 1142 2972 
Q 928 2841 928 2578 
Q 928 2378 1081 2264 
Q 1234 2150 1697 2047 
L 1894 2003 
Q 2506 1872 2764 1633 
Q 3022 1394 3022 966 
Q 3022 478 2636 193 
Q 2250 -91 1575 -91 
Q 1294 -91 989 -36 
Q 684 19 347 128 
L 347 722 
Q 666 556 975 473 
Q 1284 391 1588 391 
Q 1994 391 2212 530 
Q 2431 669 2431 922 
Q 2431 1156 2273 1281 
Q 2116 1406 1581 1522 
L 1381 1569 
Q 847 1681 609 1914 
Q 372 2147 372 2553 
Q 372 3047 722 3315 
Q 1072 3584 1716 3584 
Q 2034 3584 2315 3537 
Q 2597 3491 2834 3397 
z
" transform="scale(0.015625)"/>
      <path id="DejaVuSans-74" d="M 1172 4494 
L 1172 3500 
L 2356 3500 
L 2356 3053 
L 1172 3053 
L 1172 1153 
Q 1172 725 1289 603 
Q 1406 481 1766 481 
L 2356 481 
L 2356 0 
L 1766 0 
Q 1100 0 847 248 
Q 594 497 594 1153 
L 594 3053 
L 172 3053 
L 172 3500 
L 594 3500 
L 594 4494 
L 1172 4494 
z
" transform="scale(0.015625)"/>
      <path id="DejaVuSans-67" d="M 2906 1791 
Q 2906 2416 2648 2759 
Q 2391 3103 1925 3103 
Q 1463 3103 1205 2759 
Q 947 2416 947 1791 
Q 947 1169 1205 825 
Q 1463 481 1925 481 
Q 2391 481 2648 825 
Q 2906 1169 2906 1791 
z
M 3481 434 
Q 3481 -459 3084 -895 
Q 2688 -1331 1869 -1331 
Q 1566 -1331 1297 -1286 
Q 1028 -1241 775 -1147 
L 775 -588 
Q 1028 -725 1275 -790 
Q 1522 -856 1778 -856 
Q 2344 -856 2625 -561 
Q 2906 -266 2906 331 
L 2906 616 
Q 2728 306 2450 153 
Q 2172 0 1784 0 
Q 1141 0 747 490 
Q 353 981 353 1791 
Q 353 2603 747 3093 
Q 1141 3584 1784 3584 
Q 2172 3584 2450 3431 
Q 2728 3278 2906 2969 
L 2906 3500 
L 3481 3500 
L 3481 434 
z
" transform="scale(0.015625)"/>
      <path id="DejaVuSans-6f" d="M 1959 3097 
Q 1497 3097 1228 2736 
Q 959 2375 959 1747 
Q 959 1119 1226 758 
Q 1494 397 1959 397 
Q 2419 397 2687 759 
Q 2956 1122 2956 1747 
Q 2956 2369 2687 2733 
Q 2419 3097 1959 3097 
z
M 1959 3584 
Q 2709 3584 3137 3096 
Q 3566 2609 3566 1747 
Q 3566 888 3137 398 
Q 2709 -91 1959 -91 
Q 1206 -91 779 398 
Q 353 888 353 1747 
Q 353 2609 779 3096 
Q 1206 3584 1959 3584 
z
" transform="scale(0.015625)"/>
      <path id="DejaVuSans-72" d="M 2631 2963 
Q 2534 3019 2420 3045 
Q 2306 3072 2169 3072 
Q 1681 3072 1420 2755 
Q 1159 2438 1159 1844 
L 1159 0 
L 581 0 
L 581 3500 
L 1159 3500 
L 1159 2956 
Q 1341 3275 1631 3429 
Q 1922 3584 2338 3584 
Q 2397 3584 2469 3576 
Q 2541 3569 2628 3553 
L 2631 2963 
z
" transform="scale(0.015625)"/>
      <path id="DejaVuSans-4e" d="M 628 4666 
L 1478 4666 
L 3547 763 
L 3547 4666 
L 4159 4666 
L 4159 0 
L 3309 0 
L 1241 3903 
L 1241 0 
L 628 0 
L 628 4666 
z
" transform="scale(0.015625)"/>
      <path id="DejaVuSans-6d" d="M 3328 2828 
Q 3544 3216 3844 3400 
Q 4144 3584 4550 3584 
Q 5097 3584 5394 3201 
Q 5691 2819 5691 2113 
L 5691 0 
L 5113 0 
L 5113 2094 
Q 5113 2597 4934 2840 
Q 4756 3084 4391 3084 
Q 3944 3084 3684 2787 
Q 3425 2491 3425 1978 
L 3425 0 
L 2847 0 
L 2847 2094 
Q 2847 2600 2669 2842 
Q 2491 3084 2119 3084 
Q 1678 3084 1418 2786 
Q 1159 2488 1159 1978 
L 1159 0 
L 581 0 
L 581 3500 
L 1159 3500 
L 1159 2956 
Q 1356 3278 1631 3431 
Q 1906 3584 2284 3584 
Q 2666 3584 2933 3390 
Q 3200 3197 3328 2828 
z
" transform="scale(0.015625)"/>
     </defs>
     <use xlink:href="#DejaVuSans-55"/>
     <use xlink:href="#DejaVuSans-6e" x="73.193359"/>
     <use xlink:href="#DejaVuSans-69" x="136.572266"/>
     <use xlink:href="#DejaVuSans-78" x="164.355469"/>
     <use xlink:href="#DejaVuSans-42" x="223.535156"/>
     <use xlink:href="#DejaVuSans-65" x="292.138672"/>
     <use xlink:href="#DejaVuSans-6e" x="353.662109"/>
     <use xlink:href="#DejaVuSans-63" x="417.041016"/>
     <use xlink:href="#DejaVuSans-68" x="472.021484"/>
     <use xlink:href="#DejaVuSans-20" x="535.400391"/>
     <use xlink:href="#DejaVuSans-49" x="567.1875"/>
     <use xlink:href="#DejaVuSans-6e" x="596.679688"/>
     <use xlink:href="#DejaVuSans-64" x="660.058594"/>
     <use xlink:href="#DejaVuSans-69" x="723.535156"/>
     <use xlink:href="#DejaVuSans-76" x="751.318359"/>
     <use xlink:href="#DejaVuSans-69" x="810.498047"/>
     <use xlink:href="#DejaVuSans-64" x="838.28125"/>
     <use xlink:href="#DejaVuSans-75" x="901.757812"/>
     <use xlink:href="#DejaVuSans-61" x="965.136719"/>
     <use xlink:href="#DejaVuSans-6c" x="1026.416016"/>
     <use xlink:href="#DejaVuSans-20" x="1054.199219"/>
     <use xlink:href="#DejaVuSans-54" x="1085.986328"/>
     <use xlink:href="#DejaVuSans-65" x="1130.070312"/>
     <use xlink:href="#DejaVuSans-73" x="1191.59375"/>
     <use xlink:href="#DejaVuSans-74" x="1243.693359"/>
     <use xlink:href="#DejaVuSans-73" x="1282.902344"/>
     <use xlink:href="#DejaVuSans-20" x="1335.001953"/>
     <use xlink:href="#DejaVuSans-53" x="1366.789062"/>
     <use xlink:href="#DejaVuSans-69" x="1430.265625"/>
     <use xlink:href="#DejaVuSans-6e" x="1458.048828"/>
     <use xlink:href="#DejaVuSans-67" x="1521.427734"/>
     <use xlink:href="#DejaVuSans-6c" x="1584.904297"/>
     <use xlink:href="#DejaVuSans-65" x="1612.6875"/>
     <use xlink:href="#DejaVuSans-20" x="1674.210938"/>
     <use xlink:href="#DejaVuSans-43" x="1705.998047"/>
     <use xlink:href="#DejaVuSans-6f" x="1775.822266"/>
     <use xlink:href="#DejaVuSans-72" x="1837.003906"/>
     <use xlink:href="#DejaVuSans-65" x="1875.867188"/>
     <use xlink:href="#DejaVuSans-20" x="1937.390625"/>
     <use xlink:href="#DejaVuSans-4e" x="1969.177734"/>
     <use xlink:href="#DejaVuSans-6f" x="2043.982422"/>
     <use xlink:href="#DejaVuSans-72" x="2105.164062"/>
     <use xlink:href="#DejaVuSans-6d" x="2144.527344"/>
     <use xlink:href="#DejaVuSans-61" x="2241.939453"/>
     <use xlink:href="#DejaVuSans-6c" x="2303.21875"/>
     <use xlink:href="#DejaVuSans-69" x="2331.001953"/>
     <use xlink:href="#DejaVuSans-73" x="2358.785156"/>
     <use xlink:href="#DejaVuSans-65" x="2410.884766"/>
     <use xlink:href="#DejaVuSans-64" x="2472.408203"/>
    </g>
   </g>
   <g id="legend_1">
    <g id="patch_247">
     <path d="M 12.61875 572.888 
L 556.04125 572.888 
Q 559.24125 572.888 559.24125 569.688 
L 559.24125 406.893 
Q 559.24125 403.693 556.04125 403.693 
L 12.61875 403.693 
Q 9.41875 403.693 9.41875 406.893 
L 9.41875 569.688 
Q 9.41875 572.888 12.61875 572.888 
z
" style="fill: #4d4d4d; opacity: 0.5; stroke: #4d4d4d; stroke-linejoin: miter"/>
    </g>
    <g id="patch_248">
     <path d="M 10.61875 570.888 
L 554.04125 570.888 
Q 557.24125 570.888 557.24125 567.688 
L 557.24125 404.893 
Q 557.24125 401.693 554.04125 401.693 
L 10.61875 401.693 
Q 7.41875 401.693 7.41875 404.893 
L 7.41875 567.688 
Q 7.41875 570.888 10.61875 570.888 
z
" style="fill: #ffffff; stroke: #cccccc; stroke-linejoin: miter"/>
    </g>
    <g id="patch_249">
     <path d="M 13.81875 420.2505 
L 45.81875 420.2505 
L 45.81875 409.0505 
L 13.81875 409.0505 
z
" style="fill: #011959"/>
    </g>
    <g id="text_21">
     <!-- a1.metal -->
     <g transform="translate(58.61875 420.2505) scale(0.16 -0.16)">
      <use xlink:href="#DejaVuSans-61"/>
      <use xlink:href="#DejaVuSans-31" x="61.279297"/>
      <use xlink:href="#DejaVuSans-2e" x="124.902344"/>
      <use xlink:href="#DejaVuSans-6d" x="156.689453"/>
      <use xlink:href="#DejaVuSans-65" x="254.101562"/>
      <use xlink:href="#DejaVuSans-74" x="315.625"/>
      <use xlink:href="#DejaVuSans-61" x="354.833984"/>
      <use xlink:href="#DejaVuSans-6c" x="416.113281"/>
     </g>
    </g>
    <g id="patch_250">
     <path d="M 13.81875 443.7355 
L 45.81875 443.7355 
L 45.81875 432.5355 
L 13.81875 432.5355 
z
" style="fill: #faccfa"/>
    </g>
    <g id="text_22">
     <!-- c3.8xlarge -->
     <g transform="translate(58.61875 443.7355) scale(0.16 -0.16)">
      <use xlink:href="#DejaVuSans-63"/>
      <use xlink:href="#DejaVuSans-33" x="54.980469"/>
      <use xlink:href="#DejaVuSans-2e" x="118.603516"/>
      <use xlink:href="#DejaVuSans-38" x="150.390625"/>
      <use xlink:href="#DejaVuSans-78" x="214.013672"/>
      <use xlink:href="#DejaVuSans-6c" x="273.193359"/>
      <use xlink:href="#DejaVuSans-61" x="300.976562"/>
      <use xlink:href="#DejaVuSans-72" x="362.255859"/>
      <use xlink:href="#DejaVuSans-67" x="401.619141"/>
      <use xlink:href="#DejaVuSans-65" x="465.095703"/>
     </g>
    </g>
    <g id="patch_251">
     <path d="M 13.81875 467.2205 
L 45.81875 467.2205 
L 45.81875 456.0205 
L 13.81875 456.0205 
z
" style="fill: #828231"/>
    </g>
    <g id="text_23">
     <!-- c4.8xlarge -->
     <g transform="translate(58.61875 467.2205) scale(0.16 -0.16)">
      <use xlink:href="#DejaVuSans-63"/>
      <use xlink:href="#DejaVuSans-34" x="54.980469"/>
      <use xlink:href="#DejaVuSans-2e" x="118.603516"/>
      <use xlink:href="#DejaVuSans-38" x="150.390625"/>
      <use xlink:href="#DejaVuSans-78" x="214.013672"/>
      <use xlink:href="#DejaVuSans-6c" x="273.193359"/>
      <use xlink:href="#DejaVuSans-61" x="300.976562"/>
      <use xlink:href="#DejaVuSans-72" x="362.255859"/>
      <use xlink:href="#DejaVuSans-67" x="401.619141"/>
      <use xlink:href="#DejaVuSans-65" x="465.095703"/>
     </g>
    </g>
    <g id="patch_252">
     <path d="M 13.81875 490.7055 
L 45.81875 490.7055 
L 45.81875 479.5055 
L 13.81875 479.5055 
z
" style="fill: #226061"/>
    </g>
    <g id="text_24">
     <!-- c5.metal -->
     <g transform="translate(58.61875 490.7055) scale(0.16 -0.16)">
      <defs>
       <path id="DejaVuSans-35" d="M 691 4666 
L 3169 4666 
L 3169 4134 
L 1269 4134 
L 1269 2991 
Q 1406 3038 1543 3061 
Q 1681 3084 1819 3084 
Q 2600 3084 3056 2656 
Q 3513 2228 3513 1497 
Q 3513 744 3044 326 
Q 2575 -91 1722 -91 
Q 1428 -91 1123 -41 
Q 819 9 494 109 
L 494 744 
Q 775 591 1075 516 
Q 1375 441 1709 441 
Q 2250 441 2565 725 
Q 2881 1009 2881 1497 
Q 2881 1984 2565 2268 
Q 2250 2553 1709 2553 
Q 1456 2553 1204 2497 
Q 953 2441 691 2322 
L 691 4666 
z
" transform="scale(0.015625)"/>
      </defs>
      <use xlink:href="#DejaVuSans-63"/>
      <use xlink:href="#DejaVuSans-35" x="54.980469"/>
      <use xlink:href="#DejaVuSans-2e" x="118.603516"/>
      <use xlink:href="#DejaVuSans-6d" x="150.390625"/>
      <use xlink:href="#DejaVuSans-65" x="247.802734"/>
      <use xlink:href="#DejaVuSans-74" x="309.326172"/>
      <use xlink:href="#DejaVuSans-61" x="348.535156"/>
      <use xlink:href="#DejaVuSans-6c" x="409.814453"/>
     </g>
    </g>
    <g id="patch_253">
     <path d="M 13.81875 514.1905 
L 45.81875 514.1905 
L 45.81875 502.9905 
L 13.81875 502.9905 
z
" style="fill: #f19d6b"/>
    </g>
    <g id="text_25">
     <!-- c5a.24xlarge -->
     <g transform="translate(58.61875 514.1905) scale(0.16 -0.16)">
      <use xlink:href="#DejaVuSans-63"/>
      <use xlink:href="#DejaVuSans-35" x="54.980469"/>
      <use xlink:href="#DejaVuSans-61" x="118.603516"/>
      <use xlink:href="#DejaVuSans-2e" x="179.882812"/>
      <use xlink:href="#DejaVuSans-32" x="211.669922"/>
      <use xlink:href="#DejaVuSans-34" x="275.292969"/>
      <use xlink:href="#DejaVuSans-78" x="338.916016"/>
      <use xlink:href="#DejaVuSans-6c" x="398.095703"/>
      <use xlink:href="#DejaVuSans-61" x="425.878906"/>
      <use xlink:href="#DejaVuSans-72" x="487.158203"/>
      <use xlink:href="#DejaVuSans-67" x="526.521484"/>
      <use xlink:href="#DejaVuSans-65" x="589.998047"/>
     </g>
    </g>
    <g id="patch_254">
     <path d="M 13.81875 537.6755 
L 45.81875 537.6755 
L 45.81875 526.4755 
L 13.81875 526.4755 
z
" style="fill: #4d734d"/>
    </g>
    <g id="text_26">
     <!-- c5n.metal -->
     <g transform="translate(58.61875 537.6755) scale(0.16 -0.16)">
      <use xlink:href="#DejaVuSans-63"/>
      <use xlink:href="#DejaVuSans-35" x="54.980469"/>
      <use xlink:href="#DejaVuSans-6e" x="118.603516"/>
      <use xlink:href="#DejaVuSans-2e" x="181.982422"/>
      <use xlink:href="#DejaVuSans-6d" x="213.769531"/>
      <use xlink:href="#DejaVuSans-65" x="311.181641"/>
      <use xlink:href="#DejaVuSans-74" x="372.705078"/>
      <use xlink:href="#DejaVuSans-61" x="411.914062"/>
      <use xlink:href="#DejaVuSans-6c" x="473.193359"/>
     </g>
    </g>
    <g id="patch_255">
     <path d="M 13.81875 561.1605 
L 45.81875 561.1605 
L 45.81875 549.9605 
L 13.81875 549.9605 
z
" style="fill: #114360"/>
    </g>
    <g id="text_27">
     <!-- c6a.48xlarge -->
     <g transform="translate(58.61875 561.1605) scale(0.16 -0.16)">
      <use xlink:href="#DejaVuSans-63"/>
      <use xlink:href="#DejaVuSans-36" x="54.980469"/>
      <use xlink:href="#DejaVuSans-61" x="118.603516"/>
      <use xlink:href="#DejaVuSans-2e" x="179.882812"/>
      <use xlink:href="#DejaVuSans-34" x="211.669922"/>
      <use xlink:href="#DejaVuSans-38" x="275.292969"/>
      <use xlink:href="#DejaVuSans-78" x="338.916016"/>
      <use xlink:href="#DejaVuSans-6c" x="398.095703"/>
      <use xlink:href="#DejaVuSans-61" x="425.878906"/>
      <use xlink:href="#DejaVuSans-72" x="487.158203"/>
      <use xlink:href="#DejaVuSans-67" x="526.521484"/>
      <use xlink:href="#DejaVuSans-65" x="589.998047"/>
     </g>
    </g>
    <g id="patch_256">
     <path d="M 194.86625 420.2505 
L 226.86625 420.2505 
L 226.86625 409.0505 
L 194.86625 409.0505 
z
" style="fill: #fdb4b4"/>
    </g>
    <g id="text_28">
     <!-- c6a.metal -->
     <g transform="translate(239.66625 420.2505) scale(0.16 -0.16)">
      <use xlink:href="#DejaVuSans-63"/>
      <use xlink:href="#DejaVuSans-36" x="54.980469"/>
      <use xlink:href="#DejaVuSans-61" x="118.603516"/>
      <use xlink:href="#DejaVuSans-2e" x="179.882812"/>
      <use xlink:href="#DejaVuSans-6d" x="211.669922"/>
      <use xlink:href="#DejaVuSans-65" x="309.082031"/>
      <use xlink:href="#DejaVuSans-74" x="370.605469"/>
      <use xlink:href="#DejaVuSans-61" x="409.814453"/>
      <use xlink:href="#DejaVuSans-6c" x="471.09375"/>
     </g>
    </g>
    <g id="patch_257">
     <path d="M 194.86625 443.7355 
L 226.86625 443.7355 
L 226.86625 432.5355 
L 194.86625 432.5355 
z
" style="fill: #c09036"/>
    </g>
    <g id="text_29">
     <!-- c6g.metal -->
     <g transform="translate(239.66625 443.7355) scale(0.16 -0.16)">
      <use xlink:href="#DejaVuSans-63"/>
      <use xlink:href="#DejaVuSans-36" x="54.980469"/>
      <use xlink:href="#DejaVuSans-67" x="118.603516"/>
      <use xlink:href="#DejaVuSans-2e" x="182.080078"/>
      <use xlink:href="#DejaVuSans-6d" x="213.867188"/>
      <use xlink:href="#DejaVuSans-65" x="311.279297"/>
      <use xlink:href="#DejaVuSans-74" x="372.802734"/>
      <use xlink:href="#DejaVuSans-61" x="412.011719"/>
      <use xlink:href="#DejaVuSans-6c" x="473.291016"/>
     </g>
    </g>
    <g id="patch_258">
     <path d="M 194.86625 467.2205 
L 226.86625 467.2205 
L 226.86625 456.0205 
L 194.86625 456.0205 
z
" style="fill: #175262"/>
    </g>
    <g id="text_30">
     <!-- c6i.metal -->
     <g transform="translate(239.66625 467.2205) scale(0.16 -0.16)">
      <use xlink:href="#DejaVuSans-63"/>
      <use xlink:href="#DejaVuSans-36" x="54.980469"/>
      <use xlink:href="#DejaVuSans-69" x="118.603516"/>
      <use xlink:href="#DejaVuSans-2e" x="146.386719"/>
      <use xlink:href="#DejaVuSans-6d" x="178.173828"/>
      <use xlink:href="#DejaVuSans-65" x="275.585938"/>
      <use xlink:href="#DejaVuSans-74" x="337.109375"/>
      <use xlink:href="#DejaVuSans-61" x="376.318359"/>
      <use xlink:href="#DejaVuSans-6c" x="437.597656"/>
     </g>
    </g>
    <g id="patch_259">
     <path d="M 194.86625 490.7055 
L 226.86625 490.7055 
L 226.86625 479.5055 
L 194.86625 479.5055 
z
" style="fill: #fcbfd6"/>
    </g>
    <g id="text_31">
     <!-- c7a.metal-48xl -->
     <g transform="translate(239.66625 490.7055) scale(0.16 -0.16)">
      <defs>
       <path id="DejaVuSans-37" d="M 525 4666 
L 3525 4666 
L 3525 4397 
L 1831 0 
L 1172 0 
L 2766 4134 
L 525 4134 
L 525 4666 
z
" transform="scale(0.015625)"/>
       <path id="DejaVuSans-2d" d="M 313 2009 
L 1997 2009 
L 1997 1497 
L 313 1497 
L 313 2009 
z
" transform="scale(0.015625)"/>
      </defs>
      <use xlink:href="#DejaVuSans-63"/>
      <use xlink:href="#DejaVuSans-37" x="54.980469"/>
      <use xlink:href="#DejaVuSans-61" x="118.603516"/>
      <use xlink:href="#DejaVuSans-2e" x="179.882812"/>
      <use xlink:href="#DejaVuSans-6d" x="211.669922"/>
      <use xlink:href="#DejaVuSans-65" x="309.082031"/>
      <use xlink:href="#DejaVuSans-74" x="370.605469"/>
      <use xlink:href="#DejaVuSans-61" x="409.814453"/>
      <use xlink:href="#DejaVuSans-6c" x="471.09375"/>
      <use xlink:href="#DejaVuSans-2d" x="498.876953"/>
      <use xlink:href="#DejaVuSans-34" x="534.960938"/>
      <use xlink:href="#DejaVuSans-38" x="598.583984"/>
      <use xlink:href="#DejaVuSans-78" x="662.207031"/>
      <use xlink:href="#DejaVuSans-6c" x="721.386719"/>
     </g>
    </g>
    <g id="patch_260">
     <path d="M 194.86625 514.1905 
L 226.86625 514.1905 
L 226.86625 502.9905 
L 194.86625 502.9905 
z
" style="fill: #fca890"/>
    </g>
    <g id="text_32">
     <!-- c7g.16xlarge -->
     <g transform="translate(239.66625 514.1905) scale(0.16 -0.16)">
      <use xlink:href="#DejaVuSans-63"/>
      <use xlink:href="#DejaVuSans-37" x="54.980469"/>
      <use xlink:href="#DejaVuSans-67" x="118.603516"/>
      <use xlink:href="#DejaVuSans-2e" x="182.080078"/>
      <use xlink:href="#DejaVuSans-31" x="213.867188"/>
      <use xlink:href="#DejaVuSans-36" x="277.490234"/>
      <use xlink:href="#DejaVuSans-78" x="341.113281"/>
      <use xlink:href="#DejaVuSans-6c" x="400.292969"/>
      <use xlink:href="#DejaVuSans-61" x="428.076172"/>
      <use xlink:href="#DejaVuSans-72" x="489.355469"/>
      <use xlink:href="#DejaVuSans-67" x="528.71875"/>
      <use xlink:href="#DejaVuSans-65" x="592.195312"/>
     </g>
    </g>
    <g id="patch_261">
     <path d="M 194.86625 537.6755 
L 226.86625 537.6755 
L 226.86625 526.4755 
L 194.86625 526.4755 
z
" style="fill: #356a59"/>
    </g>
    <g id="text_33">
     <!-- c7g.metal -->
     <g transform="translate(239.66625 537.6755) scale(0.16 -0.16)">
      <use xlink:href="#DejaVuSans-63"/>
      <use xlink:href="#DejaVuSans-37" x="54.980469"/>
      <use xlink:href="#DejaVuSans-67" x="118.603516"/>
      <use xlink:href="#DejaVuSans-2e" x="182.080078"/>
      <use xlink:href="#DejaVuSans-6d" x="213.867188"/>
      <use xlink:href="#DejaVuSans-65" x="311.279297"/>
      <use xlink:href="#DejaVuSans-74" x="372.802734"/>
      <use xlink:href="#DejaVuSans-61" x="412.011719"/>
      <use xlink:href="#DejaVuSans-6c" x="473.291016"/>
     </g>
    </g>
    <g id="patch_262">
     <path d="M 194.86625 561.1605 
L 226.86625 561.1605 
L 226.86625 549.9605 
L 194.86625 549.9605 
z
" style="fill: #0d315d"/>
    </g>
    <g id="text_34">
     <!-- c7gn.16xlarge -->
     <g transform="translate(239.66625 561.1605) scale(0.16 -0.16)">
      <use xlink:href="#DejaVuSans-63"/>
      <use xlink:href="#DejaVuSans-37" x="54.980469"/>
      <use xlink:href="#DejaVuSans-67" x="118.603516"/>
      <use xlink:href="#DejaVuSans-6e" x="182.080078"/>
      <use xlink:href="#DejaVuSans-2e" x="245.458984"/>
      <use xlink:href="#DejaVuSans-31" x="277.246094"/>
      <use xlink:href="#DejaVuSans-36" x="340.869141"/>
      <use xlink:href="#DejaVuSans-78" x="404.492188"/>
      <use xlink:href="#DejaVuSans-6c" x="463.671875"/>
      <use xlink:href="#DejaVuSans-61" x="491.455078"/>
      <use xlink:href="#DejaVuSans-72" x="552.734375"/>
      <use xlink:href="#DejaVuSans-67" x="592.097656"/>
      <use xlink:href="#DejaVuSans-65" x="655.574219"/>
     </g>
    </g>
    <g id="patch_263">
     <path d="M 391.53375 420.2505 
L 423.53375 420.2505 
L 423.53375 409.0505 
L 391.53375 409.0505 
z
" style="fill: #a18a2b"/>
    </g>
    <g id="text_35">
     <!-- c7i.metal-24xl -->
     <g transform="translate(436.33375 420.2505) scale(0.16 -0.16)">
      <use xlink:href="#DejaVuSans-63"/>
      <use xlink:href="#DejaVuSans-37" x="54.980469"/>
      <use xlink:href="#DejaVuSans-69" x="118.603516"/>
      <use xlink:href="#DejaVuSans-2e" x="146.386719"/>
      <use xlink:href="#DejaVuSans-6d" x="178.173828"/>
      <use xlink:href="#DejaVuSans-65" x="275.585938"/>
      <use xlink:href="#DejaVuSans-74" x="337.109375"/>
      <use xlink:href="#DejaVuSans-61" x="376.318359"/>
      <use xlink:href="#DejaVuSans-6c" x="437.597656"/>
      <use xlink:href="#DejaVuSans-2d" x="465.380859"/>
      <use xlink:href="#DejaVuSans-32" x="501.464844"/>
      <use xlink:href="#DejaVuSans-34" x="565.087891"/>
      <use xlink:href="#DejaVuSans-78" x="628.710938"/>
      <use xlink:href="#DejaVuSans-6c" x="687.890625"/>
     </g>
    </g>
    <g id="patch_264">
     <path d="M 391.53375 443.7355 
L 423.53375 443.7355 
L 423.53375 432.5355 
L 391.53375 432.5355 
z
" style="fill: #677b3e"/>
    </g>
    <g id="text_36">
     <!-- c7i.metal-48xl -->
     <g transform="translate(436.33375 443.7355) scale(0.16 -0.16)">
      <use xlink:href="#DejaVuSans-63"/>
      <use xlink:href="#DejaVuSans-37" x="54.980469"/>
      <use xlink:href="#DejaVuSans-69" x="118.603516"/>
      <use xlink:href="#DejaVuSans-2e" x="146.386719"/>
      <use xlink:href="#DejaVuSans-6d" x="178.173828"/>
      <use xlink:href="#DejaVuSans-65" x="275.585938"/>
      <use xlink:href="#DejaVuSans-74" x="337.109375"/>
      <use xlink:href="#DejaVuSans-61" x="376.318359"/>
      <use xlink:href="#DejaVuSans-6c" x="437.597656"/>
      <use xlink:href="#DejaVuSans-2d" x="465.380859"/>
      <use xlink:href="#DejaVuSans-34" x="501.464844"/>
      <use xlink:href="#DejaVuSans-38" x="565.087891"/>
      <use xlink:href="#DejaVuSans-78" x="628.710938"/>
      <use xlink:href="#DejaVuSans-6c" x="687.890625"/>
     </g>
    </g>
    <g id="patch_265">
     <path d="M 391.53375 467.2205 
L 423.53375 467.2205 
L 423.53375 456.0205 
L 391.53375 456.0205 
z
" style="fill: #dd954d"/>
    </g>
    <g id="text_37">
     <!-- d2.8xlarge -->
     <g transform="translate(436.33375 467.2205) scale(0.16 -0.16)">
      <use xlink:href="#DejaVuSans-64"/>
      <use xlink:href="#DejaVuSans-32" x="63.476562"/>
      <use xlink:href="#DejaVuSans-2e" x="127.099609"/>
      <use xlink:href="#DejaVuSans-38" x="158.886719"/>
      <use xlink:href="#DejaVuSans-78" x="222.509766"/>
      <use xlink:href="#DejaVuSans-6c" x="281.689453"/>
      <use xlink:href="#DejaVuSans-61" x="309.472656"/>
      <use xlink:href="#DejaVuSans-72" x="370.751953"/>
      <use xlink:href="#DejaVuSans-67" x="410.115234"/>
      <use xlink:href="#DejaVuSans-65" x="473.591797"/>
     </g>
    </g>
    <g id="patch_266">
     <path d="M 391.53375 490.7055 
L 423.53375 490.7055 
L 423.53375 479.5055 
L 391.53375 479.5055 
z
" style="fill: #08255b"/>
    </g>
    <g id="text_38">
     <!-- i3.metal -->
     <g transform="translate(436.33375 490.7055) scale(0.16 -0.16)">
      <use xlink:href="#DejaVuSans-69"/>
      <use xlink:href="#DejaVuSans-33" x="27.783203"/>
      <use xlink:href="#DejaVuSans-2e" x="91.40625"/>
      <use xlink:href="#DejaVuSans-6d" x="123.193359"/>
      <use xlink:href="#DejaVuSans-65" x="220.605469"/>
      <use xlink:href="#DejaVuSans-74" x="282.128906"/>
      <use xlink:href="#DejaVuSans-61" x="321.337891"/>
      <use xlink:href="#DejaVuSans-6c" x="382.617188"/>
     </g>
    </g>
    <g id="patch_267">
     <path d="M 391.53375 514.1905 
L 423.53375 514.1905 
L 423.53375 502.9905 
L 391.53375 502.9905 
z
" style="fill: #fdaea2"/>
    </g>
    <g id="text_39">
     <!-- m5.metal -->
     <g transform="translate(436.33375 514.1905) scale(0.16 -0.16)">
      <use xlink:href="#DejaVuSans-6d"/>
      <use xlink:href="#DejaVuSans-35" x="97.412109"/>
      <use xlink:href="#DejaVuSans-2e" x="161.035156"/>
      <use xlink:href="#DejaVuSans-6d" x="192.822266"/>
      <use xlink:href="#DejaVuSans-65" x="290.234375"/>
      <use xlink:href="#DejaVuSans-74" x="351.757812"/>
      <use xlink:href="#DejaVuSans-61" x="390.966797"/>
      <use xlink:href="#DejaVuSans-6c" x="452.246094"/>
     </g>
    </g>
    <g id="patch_268">
     <path d="M 391.53375 537.6755 
L 423.53375 537.6755 
L 423.53375 526.4755 
L 391.53375 526.4755 
z
" style="fill: #fbc6e8"/>
    </g>
    <g id="text_40">
     <!-- m5a.24xlarge -->
     <g transform="translate(436.33375 537.6755) scale(0.16 -0.16)">
      <use xlink:href="#DejaVuSans-6d"/>
      <use xlink:href="#DejaVuSans-35" x="97.412109"/>
      <use xlink:href="#DejaVuSans-61" x="161.035156"/>
      <use xlink:href="#DejaVuSans-2e" x="222.314453"/>
      <use xlink:href="#DejaVuSans-32" x="254.101562"/>
      <use xlink:href="#DejaVuSans-34" x="317.724609"/>
      <use xlink:href="#DejaVuSans-78" x="381.347656"/>
      <use xlink:href="#DejaVuSans-6c" x="440.527344"/>
      <use xlink:href="#DejaVuSans-61" x="468.310547"/>
      <use xlink:href="#DejaVuSans-72" x="529.589844"/>
      <use xlink:href="#DejaVuSans-67" x="568.953125"/>
      <use xlink:href="#DejaVuSans-65" x="632.429688"/>
     </g>
    </g>
   </g>
  </g>
 </g>
 <defs>
  <clipPath id="p377714eb47">
   <rect x="59.13" y="27.789" width="446.4" height="332.64"/>
  </clipPath>
 </defs>
</svg>
