<?xml version="1.0" encoding="utf-8" standalone="no"?>
<!DOCTYPE svg PUBLIC "-//W3C//DTD SVG 1.1//EN"
  "http://www.w3.org/Graphics/SVG/1.1/DTD/svg11.dtd">
<svg xmlns:xlink="http://www.w3.org/1999/xlink" width="969.0375pt" height="505.6478pt" viewBox="0 0 969.0375 505.6478" xmlns="http://www.w3.org/2000/svg" version="1.1">
 <metadata>
  <rdf:RDF xmlns:dc="http://purl.org/dc/elements/1.1/" xmlns:cc="http://creativecommons.org/ns#" xmlns:rdf="http://www.w3.org/1999/02/22-rdf-syntax-ns#">
   <cc:Work>
    <dc:type rdf:resource="http://purl.org/dc/dcmitype/StillImage"/>
    <dc:date>2024-04-14T14:20:30.553656</dc:date>
    <dc:format>image/svg+xml</dc:format>
    <dc:creator>
     <cc:Agent>
      <dc:title>Matplotlib v3.8.2, https://matplotlib.org/</dc:title>
     </cc:Agent>
    </dc:creator>
   </cc:Work>
  </rdf:RDF>
 </metadata>
 <defs>
  <style type="text/css">*{stroke-linejoin: round; stroke-linecap: butt}</style>
 </defs>
 <g id="figure_1">
  <g id="patch_1">
   <path d="M 0 505.6478 
L 969.0375 505.6478 
L 969.0375 0 
L 0 0 
z
" style="fill: #ffffff"/>
  </g>
  <g id="axes_1">
   <g id="patch_2">
    <path d="M 64.225 381.9288 
L 957.025 381.9288 
L 957.025 49.2888 
L 64.225 49.2888 
z
" style="fill: #ffffff"/>
   </g>
   <g id="patch_3">
    <path d="M 104.806818 381.9288 
L 109.407186 381.9288 
L 109.407186 188.288429 
L 104.806818 188.288429 
z
" clip-path="url(#p8482991fea)" style="fill: #011959"/>
   </g>
   <g id="patch_4">
    <path d="M 173.155144 381.9288 
L 177.755512 381.9288 
L 177.755512 189.435034 
L 173.155144 189.435034 
z
" clip-path="url(#p8482991fea)" style="fill: #011959"/>
   </g>
   <g id="patch_5">
    <path d="M 241.503469 381.9288 
L 246.103837 381.9288 
L 246.103837 189.435034 
L 241.503469 189.435034 
z
" clip-path="url(#p8482991fea)" style="fill: #011959"/>
   </g>
   <g id="patch_6">
    <path d="M 309.851794 381.9288 
L 314.452162 381.9288 
L 314.452162 200.621833 
L 309.851794 200.621833 
z
" clip-path="url(#p8482991fea)" style="fill: #011959"/>
   </g>
   <g id="patch_7">
    <path d="M 378.20012 381.9288 
L 382.800488 381.9288 
L 382.800488 201.742114 
L 378.20012 201.742114 
z
" clip-path="url(#p8482991fea)" style="fill: #011959"/>
   </g>
   <g id="patch_8">
    <path d="M 446.548445 381.9288 
L 451.148813 381.9288 
L 451.148813 231.55063 
L 446.548445 231.55063 
z
" clip-path="url(#p8482991fea)" style="fill: #011959"/>
   </g>
   <g id="patch_9">
    <path d="M 514.89677 381.9288 
L 519.497138 381.9288 
L 519.497138 190.442181 
L 514.89677 190.442181 
z
" clip-path="url(#p8482991fea)" style="fill: #011959"/>
   </g>
   <g id="patch_10">
    <path d="M 583.245096 381.9288 
L 587.845464 381.9288 
L 587.845464 182.883486 
L 583.245096 182.883486 
z
" clip-path="url(#p8482991fea)" style="fill: #011959"/>
   </g>
   <g id="patch_11">
    <path d="M 651.593421 381.9288 
L 656.193789 381.9288 
L 656.193789 282.612428 
L 651.593421 282.612428 
z
" clip-path="url(#p8482991fea)" style="fill: #011959"/>
   </g>
   <g id="patch_12">
    <path d="M 719.941746 381.9288 
L 724.542114 381.9288 
L 724.542114 267.599747 
L 719.941746 267.599747 
z
" clip-path="url(#p8482991fea)" style="fill: #011959"/>
   </g>
   <g id="patch_13">
    <path d="M 788.290072 381.9288 
L 792.89044 381.9288 
L 792.89044 364.029202 
L 788.290072 364.029202 
z
" clip-path="url(#p8482991fea)" style="fill: #011959"/>
   </g>
   <g id="patch_14">
    <path d="M 856.638397 381.9288 
L 861.238765 381.9288 
L 861.238765 189.733417 
L 856.638397 189.733417 
z
" clip-path="url(#p8482991fea)" style="fill: #011959"/>
   </g>
   <g id="patch_15">
    <path d="M 109.407186 381.9288 
L 114.007554 381.9288 
L 114.007554 269.640463 
L 109.407186 269.640463 
z
" clip-path="url(#p8482991fea)" style="fill: #faccfa"/>
   </g>
   <g id="patch_16">
    <path d="M 177.755512 381.9288 
L 182.35588 381.9288 
L 182.35588 211.14578 
L 177.755512 211.14578 
z
" clip-path="url(#p8482991fea)" style="fill: #faccfa"/>
   </g>
   <g id="patch_17">
    <path d="M 246.103837 381.9288 
L 250.704205 381.9288 
L 250.704205 211.14578 
L 246.103837 211.14578 
z
" clip-path="url(#p8482991fea)" style="fill: #faccfa"/>
   </g>
   <g id="patch_18">
    <path d="M 314.452162 381.9288 
L 319.05253 381.9288 
L 319.05253 276.599859 
L 314.452162 276.599859 
z
" clip-path="url(#p8482991fea)" style="fill: #faccfa"/>
   </g>
   <g id="patch_19">
    <path d="M 382.800488 381.9288 
L 387.400856 381.9288 
L 387.400856 264.317095 
L 382.800488 264.317095 
z
" clip-path="url(#p8482991fea)" style="fill: #faccfa"/>
   </g>
   <g id="patch_20">
    <path d="M 451.148813 381.9288 
L 455.749181 381.9288 
L 455.749181 295.497053 
L 451.148813 295.497053 
z
" clip-path="url(#p8482991fea)" style="fill: #faccfa"/>
   </g>
   <g id="patch_21">
    <path d="M 519.497138 381.9288 
L 524.097506 381.9288 
L 524.097506 259.161479 
L 519.497138 259.161479 
z
" clip-path="url(#p8482991fea)" style="fill: #faccfa"/>
   </g>
   <g id="patch_22">
    <path d="M 587.845464 381.9288 
L 592.445832 381.9288 
L 592.445832 146.112467 
L 587.845464 146.112467 
z
" clip-path="url(#p8482991fea)" style="fill: #faccfa"/>
   </g>
   <g id="patch_23">
    <path d="M 656.193789 381.9288 
L 660.794157 381.9288 
L 660.794157 295.393282 
L 656.193789 295.393282 
z
" clip-path="url(#p8482991fea)" style="fill: #faccfa"/>
   </g>
   <g id="patch_24">
    <path d="M 724.542114 381.9288 
L 729.142483 381.9288 
L 729.142483 298.471565 
L 724.542114 298.471565 
z
" clip-path="url(#p8482991fea)" style="fill: #faccfa"/>
   </g>
   <g id="patch_25">
    <path d="M 792.89044 381.9288 
L 797.490808 381.9288 
L 797.490808 368.367256 
L 792.89044 368.367256 
z
" clip-path="url(#p8482991fea)" style="fill: #faccfa"/>
   </g>
   <g id="patch_26">
    <path d="M 861.238765 381.9288 
L 865.839133 381.9288 
L 865.839133 261.942674 
L 861.238765 261.942674 
z
" clip-path="url(#p8482991fea)" style="fill: #faccfa"/>
   </g>
   <g id="patch_27">
    <path d="M 114.007554 381.9288 
L 118.607922 381.9288 
L 118.607922 265.681376 
L 114.007554 265.681376 
z
" clip-path="url(#p8482991fea)" style="fill: #828231"/>
   </g>
   <g id="patch_28">
    <path d="M 182.35588 381.9288 
L 186.956248 381.9288 
L 186.956248 219.967653 
L 182.35588 219.967653 
z
" clip-path="url(#p8482991fea)" style="fill: #828231"/>
   </g>
   <g id="patch_29">
    <path d="M 250.704205 381.9288 
L 255.304573 381.9288 
L 255.304573 219.967653 
L 250.704205 219.967653 
z
" clip-path="url(#p8482991fea)" style="fill: #828231"/>
   </g>
   <g id="patch_30">
    <path d="M 319.05253 381.9288 
L 323.652898 381.9288 
L 323.652898 287.67376 
L 319.05253 287.67376 
z
" clip-path="url(#p8482991fea)" style="fill: #828231"/>
   </g>
   <g id="patch_31">
    <path d="M 387.400856 381.9288 
L 392.001224 381.9288 
L 392.001224 275.372289 
L 387.400856 275.372289 
z
" clip-path="url(#p8482991fea)" style="fill: #828231"/>
   </g>
   <g id="patch_32">
    <path d="M 455.749181 381.9288 
L 460.349549 381.9288 
L 460.349549 308.659145 
L 455.749181 308.659145 
z
" clip-path="url(#p8482991fea)" style="fill: #828231"/>
   </g>
   <g id="patch_33">
    <path d="M 524.097506 381.9288 
L 528.697874 381.9288 
L 528.697874 271.582889 
L 524.097506 271.582889 
z
" clip-path="url(#p8482991fea)" style="fill: #828231"/>
   </g>
   <g id="patch_34">
    <path d="M 592.445832 381.9288 
L 597.0462 381.9288 
L 597.0462 279.198507 
L 592.445832 279.198507 
z
" clip-path="url(#p8482991fea)" style="fill: #828231"/>
   </g>
   <g id="patch_35">
    <path d="M 660.794157 381.9288 
L 665.394525 381.9288 
L 665.394525 327.470153 
L 660.794157 327.470153 
z
" clip-path="url(#p8482991fea)" style="fill: #828231"/>
   </g>
   <g id="patch_36">
    <path d="M 729.142483 381.9288 
L 733.742851 381.9288 
L 733.742851 305.677517 
L 729.142483 305.677517 
z
" clip-path="url(#p8482991fea)" style="fill: #828231"/>
   </g>
   <g id="patch_37">
    <path d="M 797.490808 381.9288 
L 802.091176 381.9288 
L 802.091176 369.978519 
L 797.490808 369.978519 
z
" clip-path="url(#p8482991fea)" style="fill: #828231"/>
   </g>
   <g id="patch_38">
    <path d="M 865.839133 381.9288 
L 870.439501 381.9288 
L 870.439501 280.396251 
L 865.839133 280.396251 
z
" clip-path="url(#p8482991fea)" style="fill: #828231"/>
   </g>
   <g id="patch_39">
    <path d="M 118.607922 381.9288 
L 123.20829 381.9288 
L 123.20829 271.354638 
L 118.607922 271.354638 
z
" clip-path="url(#p8482991fea)" style="fill: #226061"/>
   </g>
   <g id="patch_40">
    <path d="M 186.956248 381.9288 
L 191.556616 381.9288 
L 191.556616 225.972037 
L 186.956248 225.972037 
z
" clip-path="url(#p8482991fea)" style="fill: #226061"/>
   </g>
   <g id="patch_41">
    <path d="M 255.304573 381.9288 
L 259.904941 381.9288 
L 259.904941 225.972037 
L 255.304573 225.972037 
z
" clip-path="url(#p8482991fea)" style="fill: #226061"/>
   </g>
   <g id="patch_42">
    <path d="M 323.652898 381.9288 
L 328.253266 381.9288 
L 328.253266 300.256781 
L 323.652898 300.256781 
z
" clip-path="url(#p8482991fea)" style="fill: #226061"/>
   </g>
   <g id="patch_43">
    <path d="M 392.001224 381.9288 
L 396.601592 381.9288 
L 396.601592 288.127283 
L 392.001224 288.127283 
z
" clip-path="url(#p8482991fea)" style="fill: #226061"/>
   </g>
   <g id="patch_44">
    <path d="M 460.349549 381.9288 
L 464.949917 381.9288 
L 464.949917 341.49563 
L 460.349549 341.49563 
z
" clip-path="url(#p8482991fea)" style="fill: #226061"/>
   </g>
   <g id="patch_45">
    <path d="M 528.697874 381.9288 
L 533.298243 381.9288 
L 533.298243 278.802251 
L 528.697874 278.802251 
z
" clip-path="url(#p8482991fea)" style="fill: #226061"/>
   </g>
   <g id="patch_46">
    <path d="M 597.0462 381.9288 
L 601.646568 381.9288 
L 601.646568 329.663413 
L 597.0462 329.663413 
z
" clip-path="url(#p8482991fea)" style="fill: #226061"/>
   </g>
   <g id="patch_47">
    <path d="M 665.394525 381.9288 
L 669.994893 381.9288 
L 669.994893 345.929077 
L 665.394525 345.929077 
z
" clip-path="url(#p8482991fea)" style="fill: #226061"/>
   </g>
   <g id="patch_48">
    <path d="M 733.742851 381.9288 
L 738.343219 381.9288 
L 738.343219 346.71528 
L 733.742851 346.71528 
z
" clip-path="url(#p8482991fea)" style="fill: #226061"/>
   </g>
   <g id="patch_49">
    <path d="M 802.091176 381.9288 
L 806.691544 381.9288 
L 806.691544 376.335417 
L 802.091176 376.335417 
z
" clip-path="url(#p8482991fea)" style="fill: #226061"/>
   </g>
   <g id="patch_50">
    <path d="M 870.439501 381.9288 
L 875.039869 381.9288 
L 875.039869 267.669381 
L 870.439501 267.669381 
z
" clip-path="url(#p8482991fea)" style="fill: #226061"/>
   </g>
   <g id="patch_51">
    <path d="M 123.20829 381.9288 
L 127.808658 381.9288 
L 127.808658 251.473894 
L 123.20829 251.473894 
z
" clip-path="url(#p8482991fea)" style="fill: #f19d6b"/>
   </g>
   <g id="patch_52">
    <path d="M 191.556616 381.9288 
L 196.156984 381.9288 
L 196.156984 211.019832 
L 191.556616 211.019832 
z
" clip-path="url(#p8482991fea)" style="fill: #f19d6b"/>
   </g>
   <g id="patch_53">
    <path d="M 259.904941 381.9288 
L 264.505309 381.9288 
L 264.505309 211.019832 
L 259.904941 211.019832 
z
" clip-path="url(#p8482991fea)" style="fill: #f19d6b"/>
   </g>
   <g id="patch_54">
    <path d="M 328.253266 381.9288 
L 332.853635 381.9288 
L 332.853635 254.107765 
L 328.253266 254.107765 
z
" clip-path="url(#p8482991fea)" style="fill: #f19d6b"/>
   </g>
   <g id="patch_55">
    <path d="M 396.601592 381.9288 
L 401.20196 381.9288 
L 401.20196 250.055441 
L 396.601592 250.055441 
z
" clip-path="url(#p8482991fea)" style="fill: #f19d6b"/>
   </g>
   <g id="patch_56">
    <path d="M 464.949917 381.9288 
L 469.550285 381.9288 
L 469.550285 354.42113 
L 464.949917 354.42113 
z
" clip-path="url(#p8482991fea)" style="fill: #f19d6b"/>
   </g>
   <g id="patch_57">
    <path d="M 533.298243 381.9288 
L 537.898611 381.9288 
L 537.898611 268.37392 
L 533.298243 268.37392 
z
" clip-path="url(#p8482991fea)" style="fill: #f19d6b"/>
   </g>
   <g id="patch_58">
    <path d="M 601.646568 381.9288 
L 606.246936 381.9288 
L 606.246936 258.202401 
L 601.646568 258.202401 
z
" clip-path="url(#p8482991fea)" style="fill: #f19d6b"/>
   </g>
   <g id="patch_59">
    <path d="M 669.994893 381.9288 
L 674.595261 381.9288 
L 674.595261 339.506421 
L 669.994893 339.506421 
z
" clip-path="url(#p8482991fea)" style="fill: #f19d6b"/>
   </g>
   <g id="patch_60">
    <path d="M 738.343219 381.9288 
L 742.943587 381.9288 
L 742.943587 348.880693 
L 738.343219 348.880693 
z
" clip-path="url(#p8482991fea)" style="fill: #f19d6b"/>
   </g>
   <g id="patch_61">
    <path d="M 806.691544 381.9288 
L 811.291912 381.9288 
L 811.291912 376.368508 
L 806.691544 376.368508 
z
" clip-path="url(#p8482991fea)" style="fill: #f19d6b"/>
   </g>
   <g id="patch_62">
    <path d="M 875.039869 381.9288 
L 879.640237 381.9288 
L 879.640237 229.845834 
L 875.039869 229.845834 
z
" clip-path="url(#p8482991fea)" style="fill: #f19d6b"/>
   </g>
   <g id="patch_63">
    <path d="M 127.808658 381.9288 
L 132.409026 381.9288 
L 132.409026 268.201862 
L 127.808658 268.201862 
z
" clip-path="url(#p8482991fea)" style="fill: #4d734d"/>
   </g>
   <g id="patch_64">
    <path d="M 196.156984 381.9288 
L 200.757352 381.9288 
L 200.757352 230.264461 
L 196.156984 230.264461 
z
" clip-path="url(#p8482991fea)" style="fill: #4d734d"/>
   </g>
   <g id="patch_65">
    <path d="M 264.505309 381.9288 
L 269.105677 381.9288 
L 269.105677 230.264461 
L 264.505309 230.264461 
z
" clip-path="url(#p8482991fea)" style="fill: #4d734d"/>
   </g>
   <g id="patch_66">
    <path d="M 332.853635 381.9288 
L 337.454003 381.9288 
L 337.454003 286.47782 
L 332.853635 286.47782 
z
" clip-path="url(#p8482991fea)" style="fill: #4d734d"/>
   </g>
   <g id="patch_67">
    <path d="M 401.20196 381.9288 
L 405.802328 381.9288 
L 405.802328 266.096381 
L 401.20196 266.096381 
z
" clip-path="url(#p8482991fea)" style="fill: #4d734d"/>
   </g>
   <g id="patch_68">
    <path d="M 469.550285 381.9288 
L 474.150653 381.9288 
L 474.150653 361.519355 
L 469.550285 361.519355 
z
" clip-path="url(#p8482991fea)" style="fill: #4d734d"/>
   </g>
   <g id="patch_69">
    <path d="M 537.898611 381.9288 
L 542.498979 381.9288 
L 542.498979 262.004633 
L 537.898611 262.004633 
z
" clip-path="url(#p8482991fea)" style="fill: #4d734d"/>
   </g>
   <g id="patch_70">
    <path d="M 606.246936 381.9288 
L 610.847304 381.9288 
L 610.847304 268.390554 
L 606.246936 268.390554 
z
" clip-path="url(#p8482991fea)" style="fill: #4d734d"/>
   </g>
   <g id="patch_71">
    <path d="M 674.595261 381.9288 
L 679.195629 381.9288 
L 679.195629 371.116307 
L 674.595261 371.116307 
z
" clip-path="url(#p8482991fea)" style="fill: #4d734d"/>
   </g>
   <g id="patch_72">
    <path d="M 742.943587 381.9288 
L 747.543955 381.9288 
L 747.543955 371.165494 
L 742.943587 371.165494 
z
" clip-path="url(#p8482991fea)" style="fill: #4d734d"/>
   </g>
   <g id="patch_73">
    <path d="M 811.291912 381.9288 
L 815.89228 381.9288 
L 815.89228 380.012768 
L 811.291912 380.012768 
z
" clip-path="url(#p8482991fea)" style="fill: #4d734d"/>
   </g>
   <g id="patch_74">
    <path d="M 879.640237 381.9288 
L 884.240605 381.9288 
L 884.240605 242.847155 
L 879.640237 242.847155 
z
" clip-path="url(#p8482991fea)" style="fill: #4d734d"/>
   </g>
   <g id="patch_75">
    <path d="M 132.409026 381.9288 
L 137.009395 381.9288 
L 137.009395 190.015094 
L 132.409026 190.015094 
z
" clip-path="url(#p8482991fea)" style="fill: #114360"/>
   </g>
   <g id="patch_76">
    <path d="M 200.757352 381.9288 
L 205.35772 381.9288 
L 205.35772 189.607861 
L 200.757352 189.607861 
z
" clip-path="url(#p8482991fea)" style="fill: #114360"/>
   </g>
   <g id="patch_77">
    <path d="M 269.105677 381.9288 
L 273.706045 381.9288 
L 273.706045 189.607861 
L 269.105677 189.607861 
z
" clip-path="url(#p8482991fea)" style="fill: #114360"/>
   </g>
   <g id="patch_78">
    <path d="M 337.454003 381.9288 
L 342.054371 381.9288 
L 342.054371 222.14877 
L 337.454003 222.14877 
z
" clip-path="url(#p8482991fea)" style="fill: #114360"/>
   </g>
   <g id="patch_79">
    <path d="M 405.802328 381.9288 
L 410.402696 381.9288 
L 410.402696 187.48812 
L 405.802328 187.48812 
z
" clip-path="url(#p8482991fea)" style="fill: #114360"/>
   </g>
   <g id="patch_80">
    <path d="M 474.150653 381.9288 
L 478.751021 381.9288 
L 478.751021 322.022804 
L 474.150653 322.022804 
z
" clip-path="url(#p8482991fea)" style="fill: #114360"/>
   </g>
   <g id="patch_81">
    <path d="M 542.498979 381.9288 
L 547.099347 381.9288 
L 547.099347 189.514838 
L 542.498979 189.514838 
z
" clip-path="url(#p8482991fea)" style="fill: #114360"/>
   </g>
   <g id="patch_82">
    <path d="M 610.847304 381.9288 
L 615.447672 381.9288 
L 615.447672 76.856924 
L 610.847304 76.856924 
z
" clip-path="url(#p8482991fea)" style="fill: #114360"/>
   </g>
   <g id="patch_83">
    <path d="M 679.195629 381.9288 
L 683.795997 381.9288 
L 683.795997 316.298883 
L 679.195629 316.298883 
z
" clip-path="url(#p8482991fea)" style="fill: #114360"/>
   </g>
   <g id="patch_84">
    <path d="M 747.543955 381.9288 
L 752.144323 381.9288 
L 752.144323 316.153305 
L 747.543955 316.153305 
z
" clip-path="url(#p8482991fea)" style="fill: #114360"/>
   </g>
   <g id="patch_85">
    <path d="M 815.89228 381.9288 
L 820.492648 381.9288 
L 820.492648 372.107697 
L 815.89228 372.107697 
z
" clip-path="url(#p8482991fea)" style="fill: #114360"/>
   </g>
   <g id="patch_86">
    <path d="M 884.240605 381.9288 
L 888.840974 381.9288 
L 888.840974 190.016722 
L 884.240605 190.016722 
z
" clip-path="url(#p8482991fea)" style="fill: #114360"/>
   </g>
   <g id="patch_87">
    <path d="M 137.009395 381.9288 
L 141.609763 381.9288 
L 141.609763 280.432563 
L 137.009395 280.432563 
z
" clip-path="url(#p8482991fea)" style="fill: #fdb4b4"/>
   </g>
   <g id="patch_88">
    <path d="M 205.35772 381.9288 
L 209.958088 381.9288 
L 209.958088 211.266252 
L 205.35772 211.266252 
z
" clip-path="url(#p8482991fea)" style="fill: #fdb4b4"/>
   </g>
   <g id="patch_89">
    <path d="M 273.706045 381.9288 
L 278.306413 381.9288 
L 278.306413 211.266252 
L 273.706045 211.266252 
z
" clip-path="url(#p8482991fea)" style="fill: #fdb4b4"/>
   </g>
   <g id="patch_90">
    <path d="M 342.054371 381.9288 
L 346.654739 381.9288 
L 346.654739 304.744482 
L 342.054371 304.744482 
z
" clip-path="url(#p8482991fea)" style="fill: #fdb4b4"/>
   </g>
   <g id="patch_91">
    <path d="M 410.402696 381.9288 
L 415.003064 381.9288 
L 415.003064 285.422413 
L 410.402696 285.422413 
z
" clip-path="url(#p8482991fea)" style="fill: #fdb4b4"/>
   </g>
   <g id="patch_92">
    <path d="M 478.751021 381.9288 
L 483.351389 381.9288 
L 483.351389 345.009441 
L 478.751021 345.009441 
z
" clip-path="url(#p8482991fea)" style="fill: #fdb4b4"/>
   </g>
   <g id="patch_93">
    <path d="M 547.099347 381.9288 
L 551.699715 381.9288 
L 551.699715 276.062599 
L 547.099347 276.062599 
z
" clip-path="url(#p8482991fea)" style="fill: #fdb4b4"/>
   </g>
   <g id="patch_94">
    <path d="M 615.447672 381.9288 
L 620.04804 381.9288 
L 620.04804 328.655688 
L 615.447672 328.655688 
z
" clip-path="url(#p8482991fea)" style="fill: #fdb4b4"/>
   </g>
   <g id="patch_95">
    <path d="M 683.795997 381.9288 
L 688.396365 381.9288 
L 688.396365 360.250655 
L 683.795997 360.250655 
z
" clip-path="url(#p8482991fea)" style="fill: #fdb4b4"/>
   </g>
   <g id="patch_96">
    <path d="M 752.144323 381.9288 
L 756.744691 381.9288 
L 756.744691 356.629394 
L 752.144323 356.629394 
z
" clip-path="url(#p8482991fea)" style="fill: #fdb4b4"/>
   </g>
   <g id="patch_97">
    <path d="M 820.492648 381.9288 
L 825.093016 381.9288 
L 825.093016 377.6463 
L 820.492648 377.6463 
z
" clip-path="url(#p8482991fea)" style="fill: #fdb4b4"/>
   </g>
   <g id="patch_98">
    <path d="M 888.840974 381.9288 
L 893.441342 381.9288 
L 893.441342 246.497584 
L 888.840974 246.497584 
z
" clip-path="url(#p8482991fea)" style="fill: #fdb4b4"/>
   </g>
   <g id="patch_99">
    <path d="M 141.609763 381.9288 
L 146.210131 381.9288 
L 146.210131 227.882011 
L 141.609763 227.882011 
z
" clip-path="url(#p8482991fea)" style="fill: #c09036"/>
   </g>
   <g id="patch_100">
    <path d="M 209.958088 381.9288 
L 214.558456 381.9288 
L 214.558456 200.105187 
L 209.958088 200.105187 
z
" clip-path="url(#p8482991fea)" style="fill: #c09036"/>
   </g>
   <g id="patch_101">
    <path d="M 278.306413 381.9288 
L 282.906781 381.9288 
L 282.906781 200.105187 
L 278.306413 200.105187 
z
" clip-path="url(#p8482991fea)" style="fill: #c09036"/>
   </g>
   <g id="patch_102">
    <path d="M 346.654739 381.9288 
L 351.255107 381.9288 
L 351.255107 227.810957 
L 346.654739 227.810957 
z
" clip-path="url(#p8482991fea)" style="fill: #c09036"/>
   </g>
   <g id="patch_103">
    <path d="M 415.003064 381.9288 
L 419.603432 381.9288 
L 419.603432 225.799275 
L 415.003064 225.799275 
z
" clip-path="url(#p8482991fea)" style="fill: #c09036"/>
   </g>
   <g id="patch_104">
    <path d="M 483.351389 381.9288 
L 487.951757 381.9288 
L 487.951757 304.520957 
L 483.351389 304.520957 
z
" clip-path="url(#p8482991fea)" style="fill: #c09036"/>
   </g>
   <g id="patch_105">
    <path d="M 551.699715 381.9288 
L 556.300083 381.9288 
L 556.300083 209.723265 
L 551.699715 209.723265 
z
" clip-path="url(#p8482991fea)" style="fill: #c09036"/>
   </g>
   <g id="patch_106">
    <path d="M 620.04804 381.9288 
L 624.648408 381.9288 
L 624.648408 94.187531 
L 620.04804 94.187531 
z
" clip-path="url(#p8482991fea)" style="fill: #c09036"/>
   </g>
   <g id="patch_107">
    <path d="M 688.396365 381.9288 
L 692.996734 381.9288 
L 692.996734 372.101783 
L 688.396365 372.101783 
z
" clip-path="url(#p8482991fea)" style="fill: #c09036"/>
   </g>
   <g id="patch_108">
    <path d="M 756.744691 381.9288 
L 761.345059 381.9288 
L 761.345059 371.13083 
L 756.744691 371.13083 
z
" clip-path="url(#p8482991fea)" style="fill: #c09036"/>
   </g>
   <g id="patch_109">
    <path d="M 825.093016 381.9288 
L 829.693384 381.9288 
L 829.693384 379.908854 
L 825.093016 379.908854 
z
" clip-path="url(#p8482991fea)" style="fill: #c09036"/>
   </g>
   <g id="patch_110">
    <path d="M 893.441342 381.9288 
L 898.04171 381.9288 
L 898.04171 190.38098 
L 893.441342 190.38098 
z
" clip-path="url(#p8482991fea)" style="fill: #c09036"/>
   </g>
   <g id="patch_111">
    <path d="M 146.210131 381.9288 
L 150.810499 381.9288 
L 150.810499 190.747328 
L 146.210131 190.747328 
z
" clip-path="url(#p8482991fea)" style="fill: #175262"/>
   </g>
   <g id="patch_112">
    <path d="M 214.558456 381.9288 
L 219.158824 381.9288 
L 219.158824 189.520714 
L 214.558456 189.520714 
z
" clip-path="url(#p8482991fea)" style="fill: #175262"/>
   </g>
   <g id="patch_113">
    <path d="M 282.906781 381.9288 
L 287.507149 381.9288 
L 287.507149 189.520714 
L 282.906781 189.520714 
z
" clip-path="url(#p8482991fea)" style="fill: #175262"/>
   </g>
   <g id="patch_114">
    <path d="M 351.255107 381.9288 
L 355.855475 381.9288 
L 355.855475 213.610347 
L 351.255107 213.610347 
z
" clip-path="url(#p8482991fea)" style="fill: #175262"/>
   </g>
   <g id="patch_115">
    <path d="M 419.603432 381.9288 
L 424.2038 381.9288 
L 424.2038 189.854697 
L 419.603432 189.854697 
z
" clip-path="url(#p8482991fea)" style="fill: #175262"/>
   </g>
   <g id="patch_116">
    <path d="M 487.951757 381.9288 
L 492.552126 381.9288 
L 492.552126 285.596151 
L 487.951757 285.596151 
z
" clip-path="url(#p8482991fea)" style="fill: #175262"/>
   </g>
   <g id="patch_117">
    <path d="M 556.300083 381.9288 
L 560.900451 381.9288 
L 560.900451 189.791659 
L 556.300083 189.791659 
z
" clip-path="url(#p8482991fea)" style="fill: #175262"/>
   </g>
   <g id="patch_118">
    <path d="M 624.648408 381.9288 
L 629.248776 381.9288 
L 629.248776 65.1288 
L 624.648408 65.1288 
z
" clip-path="url(#p8482991fea)" style="fill: #175262"/>
   </g>
   <g id="patch_119">
    <path d="M 692.996734 381.9288 
L 697.597102 381.9288 
L 697.597102 316.44953 
L 692.996734 316.44953 
z
" clip-path="url(#p8482991fea)" style="fill: #175262"/>
   </g>
   <g id="patch_120">
    <path d="M 761.345059 381.9288 
L 765.945427 381.9288 
L 765.945427 321.614864 
L 761.345059 321.614864 
z
" clip-path="url(#p8482991fea)" style="fill: #175262"/>
   </g>
   <g id="patch_121">
    <path d="M 829.693384 381.9288 
L 834.293752 381.9288 
L 834.293752 372.781536 
L 829.693384 372.781536 
z
" clip-path="url(#p8482991fea)" style="fill: #175262"/>
   </g>
   <g id="patch_122">
    <path d="M 898.04171 381.9288 
L 902.642078 381.9288 
L 902.642078 190.861763 
L 898.04171 190.861763 
z
" clip-path="url(#p8482991fea)" style="fill: #175262"/>
   </g>
   <g id="patch_123">
    <path d="M 150.810499 381.9288 
L 155.410867 381.9288 
L 155.410867 190.527025 
L 150.810499 190.527025 
z
" clip-path="url(#p8482991fea)" style="fill: #fcbfd6"/>
   </g>
   <g id="patch_124">
    <path d="M 219.158824 381.9288 
L 223.759192 381.9288 
L 223.759192 189.473378 
L 219.158824 189.473378 
z
" clip-path="url(#p8482991fea)" style="fill: #fcbfd6"/>
   </g>
   <g id="patch_125">
    <path d="M 287.507149 381.9288 
L 292.107517 381.9288 
L 292.107517 189.473378 
L 287.507149 189.473378 
z
" clip-path="url(#p8482991fea)" style="fill: #fcbfd6"/>
   </g>
   <g id="patch_126">
    <path d="M 355.855475 381.9288 
L 360.455843 381.9288 
L 360.455843 215.202415 
L 355.855475 215.202415 
z
" clip-path="url(#p8482991fea)" style="fill: #fcbfd6"/>
   </g>
   <g id="patch_127">
    <path d="M 424.2038 381.9288 
L 428.804168 381.9288 
L 428.804168 186.522863 
L 424.2038 186.522863 
z
" clip-path="url(#p8482991fea)" style="fill: #fcbfd6"/>
   </g>
   <g id="patch_128">
    <path d="M 492.552126 381.9288 
L 497.152494 381.9288 
L 497.152494 287.264617 
L 492.552126 287.264617 
z
" clip-path="url(#p8482991fea)" style="fill: #fcbfd6"/>
   </g>
   <g id="patch_129">
    <path d="M 560.900451 381.9288 
L 565.500819 381.9288 
L 565.500819 189.393578 
L 560.900451 189.393578 
z
" clip-path="url(#p8482991fea)" style="fill: #fcbfd6"/>
   </g>
   <g id="patch_130">
    <path d="M 629.248776 381.9288 
L 633.849144 381.9288 
L 633.849144 267.350236 
L 629.248776 267.350236 
z
" clip-path="url(#p8482991fea)" style="fill: #fcbfd6"/>
   </g>
   <g id="patch_131">
    <path d="M 697.597102 381.9288 
L 702.19747 381.9288 
L 702.19747 315.477917 
L 697.597102 315.477917 
z
" clip-path="url(#p8482991fea)" style="fill: #fcbfd6"/>
   </g>
   <g id="patch_132">
    <path d="M 765.945427 381.9288 
L 770.545795 381.9288 
L 770.545795 336.608245 
L 765.945427 336.608245 
z
" clip-path="url(#p8482991fea)" style="fill: #fcbfd6"/>
   </g>
   <g id="patch_133">
    <path d="M 834.293752 381.9288 
L 838.89412 381.9288 
L 838.89412 374.409013 
L 834.293752 374.409013 
z
" clip-path="url(#p8482991fea)" style="fill: #fcbfd6"/>
   </g>
   <g id="patch_134">
    <path d="M 902.642078 381.9288 
L 907.242446 381.9288 
L 907.242446 189.43244 
L 902.642078 189.43244 
z
" clip-path="url(#p8482991fea)" style="fill: #fcbfd6"/>
   </g>
   <g id="patch_135">
    <path d="M 155.410867 381.9288 
L 160.011235 381.9288 
L 160.011235 274.367214 
L 155.410867 274.367214 
z
" clip-path="url(#p8482991fea)" style="fill: #fca890"/>
   </g>
   <g id="patch_136">
    <path d="M 223.759192 381.9288 
L 228.35956 381.9288 
L 228.35956 236.032319 
L 223.759192 236.032319 
z
" clip-path="url(#p8482991fea)" style="fill: #fca890"/>
   </g>
   <g id="patch_137">
    <path d="M 292.107517 381.9288 
L 296.707886 381.9288 
L 296.707886 236.032319 
L 292.107517 236.032319 
z
" clip-path="url(#p8482991fea)" style="fill: #fca890"/>
   </g>
   <g id="patch_138">
    <path d="M 360.455843 381.9288 
L 365.056211 381.9288 
L 365.056211 314.283817 
L 360.455843 314.283817 
z
" clip-path="url(#p8482991fea)" style="fill: #fca890"/>
   </g>
   <g id="patch_139">
    <path d="M 428.804168 381.9288 
L 433.404536 381.9288 
L 433.404536 297.527696 
L 428.804168 297.527696 
z
" clip-path="url(#p8482991fea)" style="fill: #fca890"/>
   </g>
   <g id="patch_140">
    <path d="M 497.152494 381.9288 
L 501.752862 381.9288 
L 501.752862 353.326407 
L 497.152494 353.326407 
z
" clip-path="url(#p8482991fea)" style="fill: #fca890"/>
   </g>
   <g id="patch_141">
    <path d="M 565.500819 381.9288 
L 570.101187 381.9288 
L 570.101187 283.22384 
L 565.500819 283.22384 
z
" clip-path="url(#p8482991fea)" style="fill: #fca890"/>
   </g>
   <g id="patch_142">
    <path d="M 633.849144 381.9288 
L 638.449512 381.9288 
L 638.449512 359.587059 
L 633.849144 359.587059 
z
" clip-path="url(#p8482991fea)" style="fill: #fca890"/>
   </g>
   <g id="patch_143">
    <path d="M 702.19747 381.9288 
L 706.797838 381.9288 
L 706.797838 364.858869 
L 702.19747 364.858869 
z
" clip-path="url(#p8482991fea)" style="fill: #fca890"/>
   </g>
   <g id="patch_144">
    <path d="M 770.545795 381.9288 
L 775.146163 381.9288 
L 775.146163 369.66228 
L 770.545795 369.66228 
z
" clip-path="url(#p8482991fea)" style="fill: #fca890"/>
   </g>
   <g id="patch_145">
    <path d="M 838.89412 381.9288 
L 843.494488 381.9288 
L 843.494488 379.720803 
L 838.89412 379.720803 
z
" clip-path="url(#p8482991fea)" style="fill: #fca890"/>
   </g>
   <g id="patch_146">
    <path d="M 907.242446 381.9288 
L 911.842814 381.9288 
L 911.842814 270.330432 
L 907.242446 270.330432 
z
" clip-path="url(#p8482991fea)" style="fill: #fca890"/>
   </g>
   <g id="patch_147">
    <path d="M 160.011235 381.9288 
L 164.611603 381.9288 
L 164.611603 231.143651 
L 160.011235 231.143651 
z
" clip-path="url(#p8482991fea)" style="fill: #356a59"/>
   </g>
   <g id="patch_148">
    <path d="M 228.35956 381.9288 
L 232.959928 381.9288 
L 232.959928 205.44312 
L 228.35956 205.44312 
z
" clip-path="url(#p8482991fea)" style="fill: #356a59"/>
   </g>
   <g id="patch_149">
    <path d="M 296.707886 381.9288 
L 301.308254 381.9288 
L 301.308254 205.44312 
L 296.707886 205.44312 
z
" clip-path="url(#p8482991fea)" style="fill: #356a59"/>
   </g>
   <g id="patch_150">
    <path d="M 365.056211 381.9288 
L 369.656579 381.9288 
L 369.656579 233.530013 
L 365.056211 233.530013 
z
" clip-path="url(#p8482991fea)" style="fill: #356a59"/>
   </g>
   <g id="patch_151">
    <path d="M 433.404536 381.9288 
L 438.004904 381.9288 
L 438.004904 227.0531 
L 433.404536 227.0531 
z
" clip-path="url(#p8482991fea)" style="fill: #356a59"/>
   </g>
   <g id="patch_152">
    <path d="M 501.752862 381.9288 
L 506.35323 381.9288 
L 506.35323 315.072602 
L 501.752862 315.072602 
z
" clip-path="url(#p8482991fea)" style="fill: #356a59"/>
   </g>
   <g id="patch_153">
    <path d="M 570.101187 381.9288 
L 574.701555 381.9288 
L 574.701555 226.599956 
L 570.101187 226.599956 
z
" clip-path="url(#p8482991fea)" style="fill: #356a59"/>
   </g>
   <g id="patch_154">
    <path d="M 638.449512 381.9288 
L 643.04988 381.9288 
L 643.04988 242.620196 
L 638.449512 242.620196 
z
" clip-path="url(#p8482991fea)" style="fill: #356a59"/>
   </g>
   <g id="patch_155">
    <path d="M 706.797838 381.9288 
L 711.398206 381.9288 
L 711.398206 345.921334 
L 706.797838 345.921334 
z
" clip-path="url(#p8482991fea)" style="fill: #356a59"/>
   </g>
   <g id="patch_156">
    <path d="M 775.146163 381.9288 
L 779.746531 381.9288 
L 779.746531 354.144375 
L 775.146163 354.144375 
z
" clip-path="url(#p8482991fea)" style="fill: #356a59"/>
   </g>
   <g id="patch_157">
    <path d="M 843.494488 381.9288 
L 848.094856 381.9288 
L 848.094856 376.594136 
L 843.494488 376.594136 
z
" clip-path="url(#p8482991fea)" style="fill: #356a59"/>
   </g>
   <g id="patch_158">
    <path d="M 911.842814 381.9288 
L 916.443182 381.9288 
L 916.443182 224.23246 
L 911.842814 224.23246 
z
" clip-path="url(#p8482991fea)" style="fill: #356a59"/>
   </g>
   <g id="matplotlib.axis_1">
    <g id="xtick_1">
     <g id="line2d_1">
      <defs>
       <path id="m66ddae67a5" d="M 0 0 
L 0 3.5 
" style="stroke: #000000; stroke-width: 0.8"/>
      </defs>
      <g>
       <use xlink:href="#m66ddae67a5" x="134.709211" y="381.9288" style="stroke: #000000; stroke-width: 0.8"/>
      </g>
     </g>
     <g id="text_1">
      <!-- DH -->
      <g transform="translate(122.532961 401.0863) scale(0.16 -0.16)">
       <defs>
        <path id="DejaVuSans-44" d="M 1259 4147 
L 1259 519 
L 2022 519 
Q 2988 519 3436 956 
Q 3884 1394 3884 2338 
Q 3884 3275 3436 3711 
Q 2988 4147 2022 4147 
L 1259 4147 
z
M 628 4666 
L 1925 4666 
Q 3281 4666 3915 4102 
Q 4550 3538 4550 2338 
Q 4550 1131 3912 565 
Q 3275 0 1925 0 
L 628 0 
L 628 4666 
z
" transform="scale(0.015625)"/>
        <path id="DejaVuSans-48" d="M 628 4666 
L 1259 4666 
L 1259 2753 
L 3553 2753 
L 3553 4666 
L 4184 4666 
L 4184 0 
L 3553 0 
L 3553 2222 
L 1259 2222 
L 1259 0 
L 628 0 
L 628 4666 
z
" transform="scale(0.015625)"/>
       </defs>
       <use xlink:href="#DejaVuSans-44"/>
       <use xlink:href="#DejaVuSans-48" x="77.001953"/>
      </g>
     </g>
    </g>
    <g id="xtick_2">
     <g id="line2d_2">
      <g>
       <use xlink:href="#m66ddae67a5" x="203.057536" y="381.9288" style="stroke: #000000; stroke-width: 0.8"/>
      </g>
     </g>
     <g id="text_2">
      <!-- WH -->
      <g transform="translate(189.131286 401.0863) scale(0.16 -0.16)">
       <defs>
        <path id="DejaVuSans-57" d="M 213 4666 
L 850 4666 
L 1831 722 
L 2809 4666 
L 3519 4666 
L 4500 722 
L 5478 4666 
L 6119 4666 
L 4947 0 
L 4153 0 
L 3169 4050 
L 2175 0 
L 1381 0 
L 213 4666 
z
" transform="scale(0.015625)"/>
       </defs>
       <use xlink:href="#DejaVuSans-57"/>
       <use xlink:href="#DejaVuSans-48" x="98.876953"/>
      </g>
     </g>
    </g>
    <g id="xtick_3">
     <g id="line2d_3">
      <g>
       <use xlink:href="#m66ddae67a5" x="271.405861" y="381.9288" style="stroke: #000000; stroke-width: 0.8"/>
      </g>
     </g>
     <g id="text_3">
      <!-- ET -->
      <g transform="translate(261.464611 401.0863) scale(0.16 -0.16)">
       <defs>
        <path id="DejaVuSans-45" d="M 628 4666 
L 3578 4666 
L 3578 4134 
L 1259 4134 
L 1259 2753 
L 3481 2753 
L 3481 2222 
L 1259 2222 
L 1259 531 
L 3634 531 
L 3634 0 
L 628 0 
L 628 4666 
z
" transform="scale(0.015625)"/>
        <path id="DejaVuSans-54" d="M -19 4666 
L 3928 4666 
L 3928 4134 
L 2272 4134 
L 2272 0 
L 1638 0 
L 1638 4134 
L -19 4134 
L -19 4666 
z
" transform="scale(0.015625)"/>
       </defs>
       <use xlink:href="#DejaVuSans-45"/>
       <use xlink:href="#DejaVuSans-54" x="63.183594"/>
      </g>
     </g>
    </g>
    <g id="xtick_4">
     <g id="line2d_4">
      <g>
       <use xlink:href="#m66ddae67a5" x="339.754187" y="381.9288" style="stroke: #000000; stroke-width: 0.8"/>
      </g>
     </g>
     <g id="text_4">
      <!-- FC1 -->
      <g transform="translate(324.476687 401.0863) scale(0.16 -0.16)">
       <defs>
        <path id="DejaVuSans-46" d="M 628 4666 
L 3309 4666 
L 3309 4134 
L 1259 4134 
L 1259 2759 
L 3109 2759 
L 3109 2228 
L 1259 2228 
L 1259 0 
L 628 0 
L 628 4666 
z
" transform="scale(0.015625)"/>
        <path id="DejaVuSans-43" d="M 4122 4306 
L 4122 3641 
Q 3803 3938 3442 4084 
Q 3081 4231 2675 4231 
Q 1875 4231 1450 3742 
Q 1025 3253 1025 2328 
Q 1025 1406 1450 917 
Q 1875 428 2675 428 
Q 3081 428 3442 575 
Q 3803 722 4122 1019 
L 4122 359 
Q 3791 134 3420 21 
Q 3050 -91 2638 -91 
Q 1578 -91 968 557 
Q 359 1206 359 2328 
Q 359 3453 968 4101 
Q 1578 4750 2638 4750 
Q 3056 4750 3426 4639 
Q 3797 4528 4122 4306 
z
" transform="scale(0.015625)"/>
        <path id="DejaVuSans-31" d="M 794 531 
L 1825 531 
L 1825 4091 
L 703 3866 
L 703 4441 
L 1819 4666 
L 2450 4666 
L 2450 531 
L 3481 531 
L 3481 0 
L 794 0 
L 794 531 
z
" transform="scale(0.015625)"/>
       </defs>
       <use xlink:href="#DejaVuSans-46"/>
       <use xlink:href="#DejaVuSans-43" x="57.519531"/>
       <use xlink:href="#DejaVuSans-31" x="127.34375"/>
      </g>
     </g>
    </g>
    <g id="xtick_5">
     <g id="line2d_5">
      <g>
       <use xlink:href="#m66ddae67a5" x="408.102512" y="381.9288" style="stroke: #000000; stroke-width: 0.8"/>
      </g>
     </g>
     <g id="text_5">
      <!-- FC2 -->
      <g transform="translate(392.825012 401.0863) scale(0.16 -0.16)">
       <defs>
        <path id="DejaVuSans-32" d="M 1228 531 
L 3431 531 
L 3431 0 
L 469 0 
L 469 531 
Q 828 903 1448 1529 
Q 2069 2156 2228 2338 
Q 2531 2678 2651 2914 
Q 2772 3150 2772 3378 
Q 2772 3750 2511 3984 
Q 2250 4219 1831 4219 
Q 1534 4219 1204 4116 
Q 875 4013 500 3803 
L 500 4441 
Q 881 4594 1212 4672 
Q 1544 4750 1819 4750 
Q 2544 4750 2975 4387 
Q 3406 4025 3406 3419 
Q 3406 3131 3298 2873 
Q 3191 2616 2906 2266 
Q 2828 2175 2409 1742 
Q 1991 1309 1228 531 
z
" transform="scale(0.015625)"/>
       </defs>
       <use xlink:href="#DejaVuSans-46"/>
       <use xlink:href="#DejaVuSans-43" x="57.519531"/>
       <use xlink:href="#DejaVuSans-32" x="127.34375"/>
      </g>
     </g>
    </g>
    <g id="xtick_6">
     <g id="line2d_6">
      <g>
       <use xlink:href="#m66ddae67a5" x="476.450837" y="381.9288" style="stroke: #000000; stroke-width: 0.8"/>
      </g>
     </g>
     <g id="text_6">
      <!-- FC3 -->
      <g transform="translate(461.173337 401.0863) scale(0.16 -0.16)">
       <defs>
        <path id="DejaVuSans-33" d="M 2597 2516 
Q 3050 2419 3304 2112 
Q 3559 1806 3559 1356 
Q 3559 666 3084 287 
Q 2609 -91 1734 -91 
Q 1441 -91 1130 -33 
Q 819 25 488 141 
L 488 750 
Q 750 597 1062 519 
Q 1375 441 1716 441 
Q 2309 441 2620 675 
Q 2931 909 2931 1356 
Q 2931 1769 2642 2001 
Q 2353 2234 1838 2234 
L 1294 2234 
L 1294 2753 
L 1863 2753 
Q 2328 2753 2575 2939 
Q 2822 3125 2822 3475 
Q 2822 3834 2567 4026 
Q 2313 4219 1838 4219 
Q 1578 4219 1281 4162 
Q 984 4106 628 3988 
L 628 4550 
Q 988 4650 1302 4700 
Q 1616 4750 1894 4750 
Q 2613 4750 3031 4423 
Q 3450 4097 3450 3541 
Q 3450 3153 3228 2886 
Q 3006 2619 2597 2516 
z
" transform="scale(0.015625)"/>
       </defs>
       <use xlink:href="#DejaVuSans-46"/>
       <use xlink:href="#DejaVuSans-43" x="57.519531"/>
       <use xlink:href="#DejaVuSans-33" x="127.34375"/>
      </g>
     </g>
    </g>
    <g id="xtick_7">
     <g id="line2d_7">
      <g>
       <use xlink:href="#m66ddae67a5" x="544.799163" y="381.9288" style="stroke: #000000; stroke-width: 0.8"/>
      </g>
     </g>
     <g id="text_7">
      <!-- PT -->
      <g transform="translate(535.089163 401.0863) scale(0.16 -0.16)">
       <defs>
        <path id="DejaVuSans-50" d="M 1259 4147 
L 1259 2394 
L 2053 2394 
Q 2494 2394 2734 2622 
Q 2975 2850 2975 3272 
Q 2975 3691 2734 3919 
Q 2494 4147 2053 4147 
L 1259 4147 
z
M 628 4666 
L 2053 4666 
Q 2838 4666 3239 4311 
Q 3641 3956 3641 3272 
Q 3641 2581 3239 2228 
Q 2838 1875 2053 1875 
L 1259 1875 
L 1259 0 
L 628 0 
L 628 4666 
z
" transform="scale(0.015625)"/>
       </defs>
       <use xlink:href="#DejaVuSans-50"/>
       <use xlink:href="#DejaVuSans-54" x="60.302734"/>
      </g>
     </g>
    </g>
    <g id="xtick_8">
     <g id="line2d_8">
      <g>
       <use xlink:href="#m66ddae67a5" x="613.147488" y="381.9288" style="stroke: #000000; stroke-width: 0.8"/>
      </g>
     </g>
     <g id="text_8">
      <!-- CS -->
      <g transform="translate(602.482488 401.0863) scale(0.16 -0.16)">
       <defs>
        <path id="DejaVuSans-53" d="M 3425 4513 
L 3425 3897 
Q 3066 4069 2747 4153 
Q 2428 4238 2131 4238 
Q 1616 4238 1336 4038 
Q 1056 3838 1056 3469 
Q 1056 3159 1242 3001 
Q 1428 2844 1947 2747 
L 2328 2669 
Q 3034 2534 3370 2195 
Q 3706 1856 3706 1288 
Q 3706 609 3251 259 
Q 2797 -91 1919 -91 
Q 1588 -91 1214 -16 
Q 841 59 441 206 
L 441 856 
Q 825 641 1194 531 
Q 1563 422 1919 422 
Q 2459 422 2753 634 
Q 3047 847 3047 1241 
Q 3047 1584 2836 1778 
Q 2625 1972 2144 2069 
L 1759 2144 
Q 1053 2284 737 2584 
Q 422 2884 422 3419 
Q 422 4038 858 4394 
Q 1294 4750 2059 4750 
Q 2388 4750 2728 4690 
Q 3069 4631 3425 4513 
z
" transform="scale(0.015625)"/>
       </defs>
       <use xlink:href="#DejaVuSans-43"/>
       <use xlink:href="#DejaVuSans-53" x="69.824219"/>
      </g>
     </g>
    </g>
    <g id="xtick_9">
     <g id="line2d_9">
      <g>
       <use xlink:href="#m66ddae67a5" x="681.495813" y="381.9288" style="stroke: #000000; stroke-width: 0.8"/>
      </g>
     </g>
     <g id="text_9">
      <!-- PC -->
      <g transform="translate(671.085813 401.0863) scale(0.16 -0.16)">
       <use xlink:href="#DejaVuSans-50"/>
       <use xlink:href="#DejaVuSans-43" x="60.302734"/>
      </g>
     </g>
    </g>
    <g id="xtick_10">
     <g id="line2d_10">
      <g>
       <use xlink:href="#m66ddae67a5" x="749.844139" y="381.9288" style="stroke: #000000; stroke-width: 0.8"/>
      </g>
     </g>
     <g id="text_10">
      <!-- SS1 -->
      <g transform="translate(734.596639 401.0863) scale(0.16 -0.16)">
       <use xlink:href="#DejaVuSans-53"/>
       <use xlink:href="#DejaVuSans-53" x="63.476562"/>
       <use xlink:href="#DejaVuSans-31" x="126.953125"/>
      </g>
     </g>
    </g>
    <g id="xtick_11">
     <g id="line2d_11">
      <g>
       <use xlink:href="#m66ddae67a5" x="818.192464" y="381.9288" style="stroke: #000000; stroke-width: 0.8"/>
      </g>
     </g>
     <g id="text_11">
      <!-- SS8 -->
      <g transform="translate(802.944964 401.0863) scale(0.16 -0.16)">
       <defs>
        <path id="DejaVuSans-38" d="M 2034 2216 
Q 1584 2216 1326 1975 
Q 1069 1734 1069 1313 
Q 1069 891 1326 650 
Q 1584 409 2034 409 
Q 2484 409 2743 651 
Q 3003 894 3003 1313 
Q 3003 1734 2745 1975 
Q 2488 2216 2034 2216 
z
M 1403 2484 
Q 997 2584 770 2862 
Q 544 3141 544 3541 
Q 544 4100 942 4425 
Q 1341 4750 2034 4750 
Q 2731 4750 3128 4425 
Q 3525 4100 3525 3541 
Q 3525 3141 3298 2862 
Q 3072 2584 2669 2484 
Q 3125 2378 3379 2068 
Q 3634 1759 3634 1313 
Q 3634 634 3220 271 
Q 2806 -91 2034 -91 
Q 1263 -91 848 271 
Q 434 634 434 1313 
Q 434 1759 690 2068 
Q 947 2378 1403 2484 
z
M 1172 3481 
Q 1172 3119 1398 2916 
Q 1625 2713 2034 2713 
Q 2441 2713 2670 2916 
Q 2900 3119 2900 3481 
Q 2900 3844 2670 4047 
Q 2441 4250 2034 4250 
Q 1625 4250 1398 4047 
Q 1172 3844 1172 3481 
z
" transform="scale(0.015625)"/>
       </defs>
       <use xlink:href="#DejaVuSans-53"/>
       <use xlink:href="#DejaVuSans-53" x="63.476562"/>
       <use xlink:href="#DejaVuSans-38" x="126.953125"/>
      </g>
     </g>
    </g>
    <g id="xtick_12">
     <g id="line2d_12">
      <g>
       <use xlink:href="#m66ddae67a5" x="886.540789" y="381.9288" style="stroke: #000000; stroke-width: 0.8"/>
      </g>
     </g>
     <g id="text_12">
      <!-- SC -->
      <g transform="translate(875.875789 401.0863) scale(0.16 -0.16)">
       <use xlink:href="#DejaVuSans-53"/>
       <use xlink:href="#DejaVuSans-43" x="63.476562"/>
      </g>
     </g>
    </g>
   </g>
   <g id="matplotlib.axis_2">
    <g id="ytick_1">
     <g id="line2d_13">
      <defs>
       <path id="m7752b232fb" d="M 0 0 
L -3.5 0 
" style="stroke: #000000; stroke-width: 0.8"/>
      </defs>
      <g>
       <use xlink:href="#m7752b232fb" x="64.225" y="381.9288" style="stroke: #000000; stroke-width: 0.8"/>
      </g>
     </g>
     <g id="text_13">
      <!-- 0 -->
      <g transform="translate(47.045 388.00755) scale(0.16 -0.16)">
       <defs>
        <path id="DejaVuSans-30" d="M 2034 4250 
Q 1547 4250 1301 3770 
Q 1056 3291 1056 2328 
Q 1056 1369 1301 889 
Q 1547 409 2034 409 
Q 2525 409 2770 889 
Q 3016 1369 3016 2328 
Q 3016 3291 2770 3770 
Q 2525 4250 2034 4250 
z
M 2034 4750 
Q 2819 4750 3233 4129 
Q 3647 3509 3647 2328 
Q 3647 1150 3233 529 
Q 2819 -91 2034 -91 
Q 1250 -91 836 529 
Q 422 1150 422 2328 
Q 422 3509 836 4129 
Q 1250 4750 2034 4750 
z
" transform="scale(0.015625)"/>
       </defs>
       <use xlink:href="#DejaVuSans-30"/>
      </g>
     </g>
    </g>
    <g id="ytick_2">
     <g id="line2d_14">
      <g>
       <use xlink:href="#m7752b232fb" x="64.225" y="343.426447" style="stroke: #000000; stroke-width: 0.8"/>
      </g>
     </g>
     <g id="text_14">
      <!-- 20 -->
      <g transform="translate(36.865 349.505197) scale(0.16 -0.16)">
       <use xlink:href="#DejaVuSans-32"/>
       <use xlink:href="#DejaVuSans-30" x="63.623047"/>
      </g>
     </g>
    </g>
    <g id="ytick_3">
     <g id="line2d_15">
      <g>
       <use xlink:href="#m7752b232fb" x="64.225" y="304.924094" style="stroke: #000000; stroke-width: 0.8"/>
      </g>
     </g>
     <g id="text_15">
      <!-- 40 -->
      <g transform="translate(36.865 311.002844) scale(0.16 -0.16)">
       <defs>
        <path id="DejaVuSans-34" d="M 2419 4116 
L 825 1625 
L 2419 1625 
L 2419 4116 
z
M 2253 4666 
L 3047 4666 
L 3047 1625 
L 3713 1625 
L 3713 1100 
L 3047 1100 
L 3047 0 
L 2419 0 
L 2419 1100 
L 313 1100 
L 313 1709 
L 2253 4666 
z
" transform="scale(0.015625)"/>
       </defs>
       <use xlink:href="#DejaVuSans-34"/>
       <use xlink:href="#DejaVuSans-30" x="63.623047"/>
      </g>
     </g>
    </g>
    <g id="ytick_4">
     <g id="line2d_16">
      <g>
       <use xlink:href="#m7752b232fb" x="64.225" y="266.421741" style="stroke: #000000; stroke-width: 0.8"/>
      </g>
     </g>
     <g id="text_16">
      <!-- 60 -->
      <g transform="translate(36.865 272.500491) scale(0.16 -0.16)">
       <defs>
        <path id="DejaVuSans-36" d="M 2113 2584 
Q 1688 2584 1439 2293 
Q 1191 2003 1191 1497 
Q 1191 994 1439 701 
Q 1688 409 2113 409 
Q 2538 409 2786 701 
Q 3034 994 3034 1497 
Q 3034 2003 2786 2293 
Q 2538 2584 2113 2584 
z
M 3366 4563 
L 3366 3988 
Q 3128 4100 2886 4159 
Q 2644 4219 2406 4219 
Q 1781 4219 1451 3797 
Q 1122 3375 1075 2522 
Q 1259 2794 1537 2939 
Q 1816 3084 2150 3084 
Q 2853 3084 3261 2657 
Q 3669 2231 3669 1497 
Q 3669 778 3244 343 
Q 2819 -91 2113 -91 
Q 1303 -91 875 529 
Q 447 1150 447 2328 
Q 447 3434 972 4092 
Q 1497 4750 2381 4750 
Q 2619 4750 2861 4703 
Q 3103 4656 3366 4563 
z
" transform="scale(0.015625)"/>
       </defs>
       <use xlink:href="#DejaVuSans-36"/>
       <use xlink:href="#DejaVuSans-30" x="63.623047"/>
      </g>
     </g>
    </g>
    <g id="ytick_5">
     <g id="line2d_17">
      <g>
       <use xlink:href="#m7752b232fb" x="64.225" y="227.919387" style="stroke: #000000; stroke-width: 0.8"/>
      </g>
     </g>
     <g id="text_17">
      <!-- 80 -->
      <g transform="translate(36.865 233.998137) scale(0.16 -0.16)">
       <use xlink:href="#DejaVuSans-38"/>
       <use xlink:href="#DejaVuSans-30" x="63.623047"/>
      </g>
     </g>
    </g>
    <g id="ytick_6">
     <g id="line2d_18">
      <g>
       <use xlink:href="#m7752b232fb" x="64.225" y="189.417034" style="stroke: #000000; stroke-width: 0.8"/>
      </g>
     </g>
     <g id="text_18">
      <!-- 100 -->
      <g transform="translate(26.685 195.495784) scale(0.16 -0.16)">
       <use xlink:href="#DejaVuSans-31"/>
       <use xlink:href="#DejaVuSans-30" x="63.623047"/>
       <use xlink:href="#DejaVuSans-30" x="127.246094"/>
      </g>
     </g>
    </g>
    <g id="ytick_7">
     <g id="line2d_19">
      <g>
       <use xlink:href="#m7752b232fb" x="64.225" y="150.914681" style="stroke: #000000; stroke-width: 0.8"/>
      </g>
     </g>
     <g id="text_19">
      <!-- 120 -->
      <g transform="translate(26.685 156.993431) scale(0.16 -0.16)">
       <use xlink:href="#DejaVuSans-31"/>
       <use xlink:href="#DejaVuSans-32" x="63.623047"/>
       <use xlink:href="#DejaVuSans-30" x="127.246094"/>
      </g>
     </g>
    </g>
    <g id="ytick_8">
     <g id="line2d_20">
      <g>
       <use xlink:href="#m7752b232fb" x="64.225" y="112.412328" style="stroke: #000000; stroke-width: 0.8"/>
      </g>
     </g>
     <g id="text_20">
      <!-- 140 -->
      <g transform="translate(26.685 118.491078) scale(0.16 -0.16)">
       <use xlink:href="#DejaVuSans-31"/>
       <use xlink:href="#DejaVuSans-34" x="63.623047"/>
       <use xlink:href="#DejaVuSans-30" x="127.246094"/>
      </g>
     </g>
    </g>
    <g id="ytick_9">
     <g id="line2d_21">
      <g>
       <use xlink:href="#m7752b232fb" x="64.225" y="73.909975" style="stroke: #000000; stroke-width: 0.8"/>
      </g>
     </g>
     <g id="text_21">
      <!-- 160 -->
      <g transform="translate(26.685 79.988725) scale(0.16 -0.16)">
       <use xlink:href="#DejaVuSans-31"/>
       <use xlink:href="#DejaVuSans-36" x="63.623047"/>
       <use xlink:href="#DejaVuSans-30" x="127.246094"/>
      </g>
     </g>
    </g>
    <g id="text_22">
     <!-- Index scaling in % -->
     <g transform="translate(19.3575 288.2188) rotate(-90) scale(0.16 -0.16)">
      <defs>
       <path id="DejaVuSans-49" d="M 628 4666 
L 1259 4666 
L 1259 0 
L 628 0 
L 628 4666 
z
" transform="scale(0.015625)"/>
       <path id="DejaVuSans-6e" d="M 3513 2113 
L 3513 0 
L 2938 0 
L 2938 2094 
Q 2938 2591 2744 2837 
Q 2550 3084 2163 3084 
Q 1697 3084 1428 2787 
Q 1159 2491 1159 1978 
L 1159 0 
L 581 0 
L 581 3500 
L 1159 3500 
L 1159 2956 
Q 1366 3272 1645 3428 
Q 1925 3584 2291 3584 
Q 2894 3584 3203 3211 
Q 3513 2838 3513 2113 
z
" transform="scale(0.015625)"/>
       <path id="DejaVuSans-64" d="M 2906 2969 
L 2906 4863 
L 3481 4863 
L 3481 0 
L 2906 0 
L 2906 525 
Q 2725 213 2448 61 
Q 2172 -91 1784 -91 
Q 1150 -91 751 415 
Q 353 922 353 1747 
Q 353 2572 751 3078 
Q 1150 3584 1784 3584 
Q 2172 3584 2448 3432 
Q 2725 3281 2906 2969 
z
M 947 1747 
Q 947 1113 1208 752 
Q 1469 391 1925 391 
Q 2381 391 2643 752 
Q 2906 1113 2906 1747 
Q 2906 2381 2643 2742 
Q 2381 3103 1925 3103 
Q 1469 3103 1208 2742 
Q 947 2381 947 1747 
z
" transform="scale(0.015625)"/>
       <path id="DejaVuSans-65" d="M 3597 1894 
L 3597 1613 
L 953 1613 
Q 991 1019 1311 708 
Q 1631 397 2203 397 
Q 2534 397 2845 478 
Q 3156 559 3463 722 
L 3463 178 
Q 3153 47 2828 -22 
Q 2503 -91 2169 -91 
Q 1331 -91 842 396 
Q 353 884 353 1716 
Q 353 2575 817 3079 
Q 1281 3584 2069 3584 
Q 2775 3584 3186 3129 
Q 3597 2675 3597 1894 
z
M 3022 2063 
Q 3016 2534 2758 2815 
Q 2500 3097 2075 3097 
Q 1594 3097 1305 2825 
Q 1016 2553 972 2059 
L 3022 2063 
z
" transform="scale(0.015625)"/>
       <path id="DejaVuSans-78" d="M 3513 3500 
L 2247 1797 
L 3578 0 
L 2900 0 
L 1881 1375 
L 863 0 
L 184 0 
L 1544 1831 
L 300 3500 
L 978 3500 
L 1906 2253 
L 2834 3500 
L 3513 3500 
z
" transform="scale(0.015625)"/>
       <path id="DejaVuSans-20" transform="scale(0.015625)"/>
       <path id="DejaVuSans-73" d="M 2834 3397 
L 2834 2853 
Q 2591 2978 2328 3040 
Q 2066 3103 1784 3103 
Q 1356 3103 1142 2972 
Q 928 2841 928 2578 
Q 928 2378 1081 2264 
Q 1234 2150 1697 2047 
L 1894 2003 
Q 2506 1872 2764 1633 
Q 3022 1394 3022 966 
Q 3022 478 2636 193 
Q 2250 -91 1575 -91 
Q 1294 -91 989 -36 
Q 684 19 347 128 
L 347 722 
Q 666 556 975 473 
Q 1284 391 1588 391 
Q 1994 391 2212 530 
Q 2431 669 2431 922 
Q 2431 1156 2273 1281 
Q 2116 1406 1581 1522 
L 1381 1569 
Q 847 1681 609 1914 
Q 372 2147 372 2553 
Q 372 3047 722 3315 
Q 1072 3584 1716 3584 
Q 2034 3584 2315 3537 
Q 2597 3491 2834 3397 
z
" transform="scale(0.015625)"/>
       <path id="DejaVuSans-63" d="M 3122 3366 
L 3122 2828 
Q 2878 2963 2633 3030 
Q 2388 3097 2138 3097 
Q 1578 3097 1268 2742 
Q 959 2388 959 1747 
Q 959 1106 1268 751 
Q 1578 397 2138 397 
Q 2388 397 2633 464 
Q 2878 531 3122 666 
L 3122 134 
Q 2881 22 2623 -34 
Q 2366 -91 2075 -91 
Q 1284 -91 818 406 
Q 353 903 353 1747 
Q 353 2603 823 3093 
Q 1294 3584 2113 3584 
Q 2378 3584 2631 3529 
Q 2884 3475 3122 3366 
z
" transform="scale(0.015625)"/>
       <path id="DejaVuSans-61" d="M 2194 1759 
Q 1497 1759 1228 1600 
Q 959 1441 959 1056 
Q 959 750 1161 570 
Q 1363 391 1709 391 
Q 2188 391 2477 730 
Q 2766 1069 2766 1631 
L 2766 1759 
L 2194 1759 
z
M 3341 1997 
L 3341 0 
L 2766 0 
L 2766 531 
Q 2569 213 2275 61 
Q 1981 -91 1556 -91 
Q 1019 -91 701 211 
Q 384 513 384 1019 
Q 384 1609 779 1909 
Q 1175 2209 1959 2209 
L 2766 2209 
L 2766 2266 
Q 2766 2663 2505 2880 
Q 2244 3097 1772 3097 
Q 1472 3097 1187 3025 
Q 903 2953 641 2809 
L 641 3341 
Q 956 3463 1253 3523 
Q 1550 3584 1831 3584 
Q 2591 3584 2966 3190 
Q 3341 2797 3341 1997 
z
" transform="scale(0.015625)"/>
       <path id="DejaVuSans-6c" d="M 603 4863 
L 1178 4863 
L 1178 0 
L 603 0 
L 603 4863 
z
" transform="scale(0.015625)"/>
       <path id="DejaVuSans-69" d="M 603 3500 
L 1178 3500 
L 1178 0 
L 603 0 
L 603 3500 
z
M 603 4863 
L 1178 4863 
L 1178 4134 
L 603 4134 
L 603 4863 
z
" transform="scale(0.015625)"/>
       <path id="DejaVuSans-67" d="M 2906 1791 
Q 2906 2416 2648 2759 
Q 2391 3103 1925 3103 
Q 1463 3103 1205 2759 
Q 947 2416 947 1791 
Q 947 1169 1205 825 
Q 1463 481 1925 481 
Q 2391 481 2648 825 
Q 2906 1169 2906 1791 
z
M 3481 434 
Q 3481 -459 3084 -895 
Q 2688 -1331 1869 -1331 
Q 1566 -1331 1297 -1286 
Q 1028 -1241 775 -1147 
L 775 -588 
Q 1028 -725 1275 -790 
Q 1522 -856 1778 -856 
Q 2344 -856 2625 -561 
Q 2906 -266 2906 331 
L 2906 616 
Q 2728 306 2450 153 
Q 2172 0 1784 0 
Q 1141 0 747 490 
Q 353 981 353 1791 
Q 353 2603 747 3093 
Q 1141 3584 1784 3584 
Q 2172 3584 2450 3431 
Q 2728 3278 2906 2969 
L 2906 3500 
L 3481 3500 
L 3481 434 
z
" transform="scale(0.015625)"/>
       <path id="DejaVuSans-25" d="M 4653 2053 
Q 4381 2053 4226 1822 
Q 4072 1591 4072 1178 
Q 4072 772 4226 539 
Q 4381 306 4653 306 
Q 4919 306 5073 539 
Q 5228 772 5228 1178 
Q 5228 1588 5073 1820 
Q 4919 2053 4653 2053 
z
M 4653 2450 
Q 5147 2450 5437 2106 
Q 5728 1763 5728 1178 
Q 5728 594 5436 251 
Q 5144 -91 4653 -91 
Q 4153 -91 3862 251 
Q 3572 594 3572 1178 
Q 3572 1766 3864 2108 
Q 4156 2450 4653 2450 
z
M 1428 4353 
Q 1159 4353 1004 4120 
Q 850 3888 850 3481 
Q 850 3069 1003 2837 
Q 1156 2606 1428 2606 
Q 1700 2606 1854 2837 
Q 2009 3069 2009 3481 
Q 2009 3884 1853 4118 
Q 1697 4353 1428 4353 
z
M 4250 4750 
L 4750 4750 
L 1831 -91 
L 1331 -91 
L 4250 4750 
z
M 1428 4750 
Q 1922 4750 2215 4408 
Q 2509 4066 2509 3481 
Q 2509 2891 2217 2550 
Q 1925 2209 1428 2209 
Q 931 2209 642 2551 
Q 353 2894 353 3481 
Q 353 4063 643 4406 
Q 934 4750 1428 4750 
z
" transform="scale(0.015625)"/>
      </defs>
      <use xlink:href="#DejaVuSans-49"/>
      <use xlink:href="#DejaVuSans-6e" x="29.492188"/>
      <use xlink:href="#DejaVuSans-64" x="92.871094"/>
      <use xlink:href="#DejaVuSans-65" x="156.347656"/>
      <use xlink:href="#DejaVuSans-78" x="216.121094"/>
      <use xlink:href="#DejaVuSans-20" x="275.300781"/>
      <use xlink:href="#DejaVuSans-73" x="307.087891"/>
      <use xlink:href="#DejaVuSans-63" x="359.1875"/>
      <use xlink:href="#DejaVuSans-61" x="414.167969"/>
      <use xlink:href="#DejaVuSans-6c" x="475.447266"/>
      <use xlink:href="#DejaVuSans-69" x="503.230469"/>
      <use xlink:href="#DejaVuSans-6e" x="531.013672"/>
      <use xlink:href="#DejaVuSans-67" x="594.392578"/>
      <use xlink:href="#DejaVuSans-20" x="657.869141"/>
      <use xlink:href="#DejaVuSans-69" x="689.65625"/>
      <use xlink:href="#DejaVuSans-6e" x="717.439453"/>
      <use xlink:href="#DejaVuSans-20" x="780.818359"/>
      <use xlink:href="#DejaVuSans-25" x="812.605469"/>
     </g>
    </g>
   </g>
   <g id="patch_159">
    <path d="M 64.225 381.9288 
L 64.225 49.2888 
" style="fill: none; stroke: #000000; stroke-width: 0.8; stroke-linejoin: miter; stroke-linecap: square"/>
   </g>
   <g id="patch_160">
    <path d="M 957.025 381.9288 
L 957.025 49.2888 
" style="fill: none; stroke: #000000; stroke-width: 0.8; stroke-linejoin: miter; stroke-linecap: square"/>
   </g>
   <g id="patch_161">
    <path d="M 64.225 381.9288 
L 957.025 381.9288 
" style="fill: none; stroke: #000000; stroke-width: 0.8; stroke-linejoin: miter; stroke-linecap: square"/>
   </g>
   <g id="patch_162">
    <path d="M 64.225 49.2888 
L 957.025 49.2888 
" style="fill: none; stroke: #000000; stroke-width: 0.8; stroke-linejoin: miter; stroke-linecap: square"/>
   </g>
   <g id="text_23">
    <!-- UnixBench Individual Tests -->
    <g transform="translate(382.465 21.789) scale(0.192 -0.192)">
     <defs>
      <path id="DejaVuSans-55" d="M 556 4666 
L 1191 4666 
L 1191 1831 
Q 1191 1081 1462 751 
Q 1734 422 2344 422 
Q 2950 422 3222 751 
Q 3494 1081 3494 1831 
L 3494 4666 
L 4128 4666 
L 4128 1753 
Q 4128 841 3676 375 
Q 3225 -91 2344 -91 
Q 1459 -91 1007 375 
Q 556 841 556 1753 
L 556 4666 
z
" transform="scale(0.015625)"/>
      <path id="DejaVuSans-42" d="M 1259 2228 
L 1259 519 
L 2272 519 
Q 2781 519 3026 730 
Q 3272 941 3272 1375 
Q 3272 1813 3026 2020 
Q 2781 2228 2272 2228 
L 1259 2228 
z
M 1259 4147 
L 1259 2741 
L 2194 2741 
Q 2656 2741 2882 2914 
Q 3109 3088 3109 3444 
Q 3109 3797 2882 3972 
Q 2656 4147 2194 4147 
L 1259 4147 
z
M 628 4666 
L 2241 4666 
Q 2963 4666 3353 4366 
Q 3744 4066 3744 3513 
Q 3744 3084 3544 2831 
Q 3344 2578 2956 2516 
Q 3422 2416 3680 2098 
Q 3938 1781 3938 1306 
Q 3938 681 3513 340 
Q 3088 0 2303 0 
L 628 0 
L 628 4666 
z
" transform="scale(0.015625)"/>
      <path id="DejaVuSans-68" d="M 3513 2113 
L 3513 0 
L 2938 0 
L 2938 2094 
Q 2938 2591 2744 2837 
Q 2550 3084 2163 3084 
Q 1697 3084 1428 2787 
Q 1159 2491 1159 1978 
L 1159 0 
L 581 0 
L 581 4863 
L 1159 4863 
L 1159 2956 
Q 1366 3272 1645 3428 
Q 1925 3584 2291 3584 
Q 2894 3584 3203 3211 
Q 3513 2838 3513 2113 
z
" transform="scale(0.015625)"/>
      <path id="DejaVuSans-76" d="M 191 3500 
L 800 3500 
L 1894 563 
L 2988 3500 
L 3597 3500 
L 2284 0 
L 1503 0 
L 191 3500 
z
" transform="scale(0.015625)"/>
      <path id="DejaVuSans-75" d="M 544 1381 
L 544 3500 
L 1119 3500 
L 1119 1403 
Q 1119 906 1312 657 
Q 1506 409 1894 409 
Q 2359 409 2629 706 
Q 2900 1003 2900 1516 
L 2900 3500 
L 3475 3500 
L 3475 0 
L 2900 0 
L 2900 538 
Q 2691 219 2414 64 
Q 2138 -91 1772 -91 
Q 1169 -91 856 284 
Q 544 659 544 1381 
z
M 1991 3584 
L 1991 3584 
z
" transform="scale(0.015625)"/>
      <path id="DejaVuSans-74" d="M 1172 4494 
L 1172 3500 
L 2356 3500 
L 2356 3053 
L 1172 3053 
L 1172 1153 
Q 1172 725 1289 603 
Q 1406 481 1766 481 
L 2356 481 
L 2356 0 
L 1766 0 
Q 1100 0 847 248 
Q 594 497 594 1153 
L 594 3053 
L 172 3053 
L 172 3500 
L 594 3500 
L 594 4494 
L 1172 4494 
z
" transform="scale(0.015625)"/>
     </defs>
     <use xlink:href="#DejaVuSans-55"/>
     <use xlink:href="#DejaVuSans-6e" x="73.193359"/>
     <use xlink:href="#DejaVuSans-69" x="136.572266"/>
     <use xlink:href="#DejaVuSans-78" x="164.355469"/>
     <use xlink:href="#DejaVuSans-42" x="223.535156"/>
     <use xlink:href="#DejaVuSans-65" x="292.138672"/>
     <use xlink:href="#DejaVuSans-6e" x="353.662109"/>
     <use xlink:href="#DejaVuSans-63" x="417.041016"/>
     <use xlink:href="#DejaVuSans-68" x="472.021484"/>
     <use xlink:href="#DejaVuSans-20" x="535.400391"/>
     <use xlink:href="#DejaVuSans-49" x="567.1875"/>
     <use xlink:href="#DejaVuSans-6e" x="596.679688"/>
     <use xlink:href="#DejaVuSans-64" x="660.058594"/>
     <use xlink:href="#DejaVuSans-69" x="723.535156"/>
     <use xlink:href="#DejaVuSans-76" x="751.318359"/>
     <use xlink:href="#DejaVuSans-69" x="810.498047"/>
     <use xlink:href="#DejaVuSans-64" x="838.28125"/>
     <use xlink:href="#DejaVuSans-75" x="901.757812"/>
     <use xlink:href="#DejaVuSans-61" x="965.136719"/>
     <use xlink:href="#DejaVuSans-6c" x="1026.416016"/>
     <use xlink:href="#DejaVuSans-20" x="1054.199219"/>
     <use xlink:href="#DejaVuSans-54" x="1085.986328"/>
     <use xlink:href="#DejaVuSans-65" x="1130.070312"/>
     <use xlink:href="#DejaVuSans-73" x="1191.59375"/>
     <use xlink:href="#DejaVuSans-74" x="1243.693359"/>
     <use xlink:href="#DejaVuSans-73" x="1282.902344"/>
    </g>
    <!-- Multi Core / (Single Core* vCPU) -->
    <g transform="translate(357.2365 43.2888) scale(0.192 -0.192)">
     <defs>
      <path id="DejaVuSans-4d" d="M 628 4666 
L 1569 4666 
L 2759 1491 
L 3956 4666 
L 4897 4666 
L 4897 0 
L 4281 0 
L 4281 4097 
L 3078 897 
L 2444 897 
L 1241 4097 
L 1241 0 
L 628 0 
L 628 4666 
z
" transform="scale(0.015625)"/>
      <path id="DejaVuSans-6f" d="M 1959 3097 
Q 1497 3097 1228 2736 
Q 959 2375 959 1747 
Q 959 1119 1226 758 
Q 1494 397 1959 397 
Q 2419 397 2687 759 
Q 2956 1122 2956 1747 
Q 2956 2369 2687 2733 
Q 2419 3097 1959 3097 
z
M 1959 3584 
Q 2709 3584 3137 3096 
Q 3566 2609 3566 1747 
Q 3566 888 3137 398 
Q 2709 -91 1959 -91 
Q 1206 -91 779 398 
Q 353 888 353 1747 
Q 353 2609 779 3096 
Q 1206 3584 1959 3584 
z
" transform="scale(0.015625)"/>
      <path id="DejaVuSans-72" d="M 2631 2963 
Q 2534 3019 2420 3045 
Q 2306 3072 2169 3072 
Q 1681 3072 1420 2755 
Q 1159 2438 1159 1844 
L 1159 0 
L 581 0 
L 581 3500 
L 1159 3500 
L 1159 2956 
Q 1341 3275 1631 3429 
Q 1922 3584 2338 3584 
Q 2397 3584 2469 3576 
Q 2541 3569 2628 3553 
L 2631 2963 
z
" transform="scale(0.015625)"/>
      <path id="DejaVuSans-2f" d="M 1625 4666 
L 2156 4666 
L 531 -594 
L 0 -594 
L 1625 4666 
z
" transform="scale(0.015625)"/>
      <path id="DejaVuSans-28" d="M 1984 4856 
Q 1566 4138 1362 3434 
Q 1159 2731 1159 2009 
Q 1159 1288 1364 580 
Q 1569 -128 1984 -844 
L 1484 -844 
Q 1016 -109 783 600 
Q 550 1309 550 2009 
Q 550 2706 781 3412 
Q 1013 4119 1484 4856 
L 1984 4856 
z
" transform="scale(0.015625)"/>
      <path id="DejaVuSans-2a" d="M 3009 3897 
L 1888 3291 
L 3009 2681 
L 2828 2375 
L 1778 3009 
L 1778 1831 
L 1422 1831 
L 1422 3009 
L 372 2375 
L 191 2681 
L 1313 3291 
L 191 3897 
L 372 4206 
L 1422 3572 
L 1422 4750 
L 1778 4750 
L 1778 3572 
L 2828 4206 
L 3009 3897 
z
" transform="scale(0.015625)"/>
      <path id="DejaVuSans-29" d="M 513 4856 
L 1013 4856 
Q 1481 4119 1714 3412 
Q 1947 2706 1947 2009 
Q 1947 1309 1714 600 
Q 1481 -109 1013 -844 
L 513 -844 
Q 928 -128 1133 580 
Q 1338 1288 1338 2009 
Q 1338 2731 1133 3434 
Q 928 4138 513 4856 
z
" transform="scale(0.015625)"/>
     </defs>
     <use xlink:href="#DejaVuSans-4d"/>
     <use xlink:href="#DejaVuSans-75" x="86.279297"/>
     <use xlink:href="#DejaVuSans-6c" x="149.658203"/>
     <use xlink:href="#DejaVuSans-74" x="177.441406"/>
     <use xlink:href="#DejaVuSans-69" x="216.650391"/>
     <use xlink:href="#DejaVuSans-20" x="244.433594"/>
     <use xlink:href="#DejaVuSans-43" x="276.220703"/>
     <use xlink:href="#DejaVuSans-6f" x="346.044922"/>
     <use xlink:href="#DejaVuSans-72" x="407.226562"/>
     <use xlink:href="#DejaVuSans-65" x="446.089844"/>
     <use xlink:href="#DejaVuSans-20" x="507.613281"/>
     <use xlink:href="#DejaVuSans-2f" x="539.400391"/>
     <use xlink:href="#DejaVuSans-20" x="573.091797"/>
     <use xlink:href="#DejaVuSans-28" x="604.878906"/>
     <use xlink:href="#DejaVuSans-53" x="643.892578"/>
     <use xlink:href="#DejaVuSans-69" x="707.369141"/>
     <use xlink:href="#DejaVuSans-6e" x="735.152344"/>
     <use xlink:href="#DejaVuSans-67" x="798.53125"/>
     <use xlink:href="#DejaVuSans-6c" x="862.007812"/>
     <use xlink:href="#DejaVuSans-65" x="889.791016"/>
     <use xlink:href="#DejaVuSans-20" x="951.314453"/>
     <use xlink:href="#DejaVuSans-43" x="983.101562"/>
     <use xlink:href="#DejaVuSans-6f" x="1052.925781"/>
     <use xlink:href="#DejaVuSans-72" x="1114.107422"/>
     <use xlink:href="#DejaVuSans-65" x="1152.970703"/>
     <use xlink:href="#DejaVuSans-2a" x="1214.494141"/>
     <use xlink:href="#DejaVuSans-20" x="1264.494141"/>
     <use xlink:href="#DejaVuSans-76" x="1296.28125"/>
     <use xlink:href="#DejaVuSans-43" x="1355.460938"/>
     <use xlink:href="#DejaVuSans-50" x="1425.285156"/>
     <use xlink:href="#DejaVuSans-55" x="1485.587891"/>
     <use xlink:href="#DejaVuSans-29" x="1558.78125"/>
    </g>
   </g>
   <g id="legend_1">
    <g id="patch_163">
     <path d="M 64.6125 500.4478 
L 960.6375 500.4478 
Q 963.8375 500.4478 963.8375 497.2478 
L 963.8375 428.3928 
Q 963.8375 425.1928 960.6375 425.1928 
L 64.6125 425.1928 
Q 61.4125 425.1928 61.4125 428.3928 
L 61.4125 497.2478 
Q 61.4125 500.4478 64.6125 500.4478 
z
" style="fill: #4d4d4d; opacity: 0.5; stroke: #4d4d4d; stroke-linejoin: miter"/>
    </g>
    <g id="patch_164">
     <path d="M 62.6125 498.4478 
L 958.6375 498.4478 
Q 961.8375 498.4478 961.8375 495.2478 
L 961.8375 426.3928 
Q 961.8375 423.1928 958.6375 423.1928 
L 62.6125 423.1928 
Q 59.4125 423.1928 59.4125 426.3928 
L 59.4125 495.2478 
Q 59.4125 498.4478 62.6125 498.4478 
z
" style="fill: #ffffff; stroke: #cccccc; stroke-linejoin: miter"/>
    </g>
    <g id="patch_165">
     <path d="M 65.8125 441.7503 
L 97.8125 441.7503 
L 97.8125 430.5503 
L 65.8125 430.5503 
z
" style="fill: #011959"/>
    </g>
    <g id="text_24">
     <!-- a1.metal -->
     <g transform="translate(110.6125 441.7503) scale(0.16 -0.16)">
      <defs>
       <path id="DejaVuSans-2e" d="M 684 794 
L 1344 794 
L 1344 0 
L 684 0 
L 684 794 
z
" transform="scale(0.015625)"/>
       <path id="DejaVuSans-6d" d="M 3328 2828 
Q 3544 3216 3844 3400 
Q 4144 3584 4550 3584 
Q 5097 3584 5394 3201 
Q 5691 2819 5691 2113 
L 5691 0 
L 5113 0 
L 5113 2094 
Q 5113 2597 4934 2840 
Q 4756 3084 4391 3084 
Q 3944 3084 3684 2787 
Q 3425 2491 3425 1978 
L 3425 0 
L 2847 0 
L 2847 2094 
Q 2847 2600 2669 2842 
Q 2491 3084 2119 3084 
Q 1678 3084 1418 2786 
Q 1159 2488 1159 1978 
L 1159 0 
L 581 0 
L 581 3500 
L 1159 3500 
L 1159 2956 
Q 1356 3278 1631 3431 
Q 1906 3584 2284 3584 
Q 2666 3584 2933 3390 
Q 3200 3197 3328 2828 
z
" transform="scale(0.015625)"/>
      </defs>
      <use xlink:href="#DejaVuSans-61"/>
      <use xlink:href="#DejaVuSans-31" x="61.279297"/>
      <use xlink:href="#DejaVuSans-2e" x="124.902344"/>
      <use xlink:href="#DejaVuSans-6d" x="156.689453"/>
      <use xlink:href="#DejaVuSans-65" x="254.101562"/>
      <use xlink:href="#DejaVuSans-74" x="315.625"/>
      <use xlink:href="#DejaVuSans-61" x="354.833984"/>
      <use xlink:href="#DejaVuSans-6c" x="416.113281"/>
     </g>
    </g>
    <g id="patch_166">
     <path d="M 65.8125 465.2353 
L 97.8125 465.2353 
L 97.8125 454.0353 
L 65.8125 454.0353 
z
" style="fill: #faccfa"/>
    </g>
    <g id="text_25">
     <!-- c3.8xlarge -->
     <g transform="translate(110.6125 465.2353) scale(0.16 -0.16)">
      <use xlink:href="#DejaVuSans-63"/>
      <use xlink:href="#DejaVuSans-33" x="54.980469"/>
      <use xlink:href="#DejaVuSans-2e" x="118.603516"/>
      <use xlink:href="#DejaVuSans-38" x="150.390625"/>
      <use xlink:href="#DejaVuSans-78" x="214.013672"/>
      <use xlink:href="#DejaVuSans-6c" x="273.193359"/>
      <use xlink:href="#DejaVuSans-61" x="300.976562"/>
      <use xlink:href="#DejaVuSans-72" x="362.255859"/>
      <use xlink:href="#DejaVuSans-67" x="401.619141"/>
      <use xlink:href="#DejaVuSans-65" x="465.095703"/>
     </g>
    </g>
    <g id="patch_167">
     <path d="M 65.8125 488.7203 
L 97.8125 488.7203 
L 97.8125 477.5203 
L 65.8125 477.5203 
z
" style="fill: #828231"/>
    </g>
    <g id="text_26">
     <!-- c4.8xlarge -->
     <g transform="translate(110.6125 488.7203) scale(0.16 -0.16)">
      <use xlink:href="#DejaVuSans-63"/>
      <use xlink:href="#DejaVuSans-34" x="54.980469"/>
      <use xlink:href="#DejaVuSans-2e" x="118.603516"/>
      <use xlink:href="#DejaVuSans-38" x="150.390625"/>
      <use xlink:href="#DejaVuSans-78" x="214.013672"/>
      <use xlink:href="#DejaVuSans-6c" x="273.193359"/>
      <use xlink:href="#DejaVuSans-61" x="300.976562"/>
      <use xlink:href="#DejaVuSans-72" x="362.255859"/>
      <use xlink:href="#DejaVuSans-67" x="401.619141"/>
      <use xlink:href="#DejaVuSans-65" x="465.095703"/>
     </g>
    </g>
    <g id="patch_168">
     <path d="M 226.875 441.7503 
L 258.875 441.7503 
L 258.875 430.5503 
L 226.875 430.5503 
z
" style="fill: #226061"/>
    </g>
    <g id="text_27">
     <!-- c5.metal -->
     <g transform="translate(271.675 441.7503) scale(0.16 -0.16)">
      <defs>
       <path id="DejaVuSans-35" d="M 691 4666 
L 3169 4666 
L 3169 4134 
L 1269 4134 
L 1269 2991 
Q 1406 3038 1543 3061 
Q 1681 3084 1819 3084 
Q 2600 3084 3056 2656 
Q 3513 2228 3513 1497 
Q 3513 744 3044 326 
Q 2575 -91 1722 -91 
Q 1428 -91 1123 -41 
Q 819 9 494 109 
L 494 744 
Q 775 591 1075 516 
Q 1375 441 1709 441 
Q 2250 441 2565 725 
Q 2881 1009 2881 1497 
Q 2881 1984 2565 2268 
Q 2250 2553 1709 2553 
Q 1456 2553 1204 2497 
Q 953 2441 691 2322 
L 691 4666 
z
" transform="scale(0.015625)"/>
      </defs>
      <use xlink:href="#DejaVuSans-63"/>
      <use xlink:href="#DejaVuSans-35" x="54.980469"/>
      <use xlink:href="#DejaVuSans-2e" x="118.603516"/>
      <use xlink:href="#DejaVuSans-6d" x="150.390625"/>
      <use xlink:href="#DejaVuSans-65" x="247.802734"/>
      <use xlink:href="#DejaVuSans-74" x="309.326172"/>
      <use xlink:href="#DejaVuSans-61" x="348.535156"/>
      <use xlink:href="#DejaVuSans-6c" x="409.814453"/>
     </g>
    </g>
    <g id="patch_169">
     <path d="M 226.875 465.2353 
L 258.875 465.2353 
L 258.875 454.0353 
L 226.875 454.0353 
z
" style="fill: #f19d6b"/>
    </g>
    <g id="text_28">
     <!-- c5a.24xlarge -->
     <g transform="translate(271.675 465.2353) scale(0.16 -0.16)">
      <use xlink:href="#DejaVuSans-63"/>
      <use xlink:href="#DejaVuSans-35" x="54.980469"/>
      <use xlink:href="#DejaVuSans-61" x="118.603516"/>
      <use xlink:href="#DejaVuSans-2e" x="179.882812"/>
      <use xlink:href="#DejaVuSans-32" x="211.669922"/>
      <use xlink:href="#DejaVuSans-34" x="275.292969"/>
      <use xlink:href="#DejaVuSans-78" x="338.916016"/>
      <use xlink:href="#DejaVuSans-6c" x="398.095703"/>
      <use xlink:href="#DejaVuSans-61" x="425.878906"/>
      <use xlink:href="#DejaVuSans-72" x="487.158203"/>
      <use xlink:href="#DejaVuSans-67" x="526.521484"/>
      <use xlink:href="#DejaVuSans-65" x="589.998047"/>
     </g>
    </g>
    <g id="patch_170">
     <path d="M 226.875 488.7203 
L 258.875 488.7203 
L 258.875 477.5203 
L 226.875 477.5203 
z
" style="fill: #4d734d"/>
    </g>
    <g id="text_29">
     <!-- c6a.metal -->
     <g transform="translate(271.675 488.7203) scale(0.16 -0.16)">
      <use xlink:href="#DejaVuSans-63"/>
      <use xlink:href="#DejaVuSans-36" x="54.980469"/>
      <use xlink:href="#DejaVuSans-61" x="118.603516"/>
      <use xlink:href="#DejaVuSans-2e" x="179.882812"/>
      <use xlink:href="#DejaVuSans-6d" x="211.669922"/>
      <use xlink:href="#DejaVuSans-65" x="309.082031"/>
      <use xlink:href="#DejaVuSans-74" x="370.605469"/>
      <use xlink:href="#DejaVuSans-61" x="409.814453"/>
      <use xlink:href="#DejaVuSans-6c" x="471.09375"/>
     </g>
    </g>
    <g id="patch_171">
     <path d="M 407.9225 441.7503 
L 439.9225 441.7503 
L 439.9225 430.5503 
L 407.9225 430.5503 
z
" style="fill: #114360"/>
    </g>
    <g id="text_30">
     <!-- c6g.metal -->
     <g transform="translate(452.7225 441.7503) scale(0.16 -0.16)">
      <use xlink:href="#DejaVuSans-63"/>
      <use xlink:href="#DejaVuSans-36" x="54.980469"/>
      <use xlink:href="#DejaVuSans-67" x="118.603516"/>
      <use xlink:href="#DejaVuSans-2e" x="182.080078"/>
      <use xlink:href="#DejaVuSans-6d" x="213.867188"/>
      <use xlink:href="#DejaVuSans-65" x="311.279297"/>
      <use xlink:href="#DejaVuSans-74" x="372.802734"/>
      <use xlink:href="#DejaVuSans-61" x="412.011719"/>
      <use xlink:href="#DejaVuSans-6c" x="473.291016"/>
     </g>
    </g>
    <g id="patch_172">
     <path d="M 407.9225 465.2353 
L 439.9225 465.2353 
L 439.9225 454.0353 
L 407.9225 454.0353 
z
" style="fill: #fdb4b4"/>
    </g>
    <g id="text_31">
     <!-- c6i.metal -->
     <g transform="translate(452.7225 465.2353) scale(0.16 -0.16)">
      <use xlink:href="#DejaVuSans-63"/>
      <use xlink:href="#DejaVuSans-36" x="54.980469"/>
      <use xlink:href="#DejaVuSans-69" x="118.603516"/>
      <use xlink:href="#DejaVuSans-2e" x="146.386719"/>
      <use xlink:href="#DejaVuSans-6d" x="178.173828"/>
      <use xlink:href="#DejaVuSans-65" x="275.585938"/>
      <use xlink:href="#DejaVuSans-74" x="337.109375"/>
      <use xlink:href="#DejaVuSans-61" x="376.318359"/>
      <use xlink:href="#DejaVuSans-6c" x="437.597656"/>
     </g>
    </g>
    <g id="patch_173">
     <path d="M 407.9225 488.7203 
L 439.9225 488.7203 
L 439.9225 477.5203 
L 407.9225 477.5203 
z
" style="fill: #c09036"/>
    </g>
    <g id="text_32">
     <!-- c7a.metal-48xl -->
     <g transform="translate(452.7225 488.7203) scale(0.16 -0.16)">
      <defs>
       <path id="DejaVuSans-37" d="M 525 4666 
L 3525 4666 
L 3525 4397 
L 1831 0 
L 1172 0 
L 2766 4134 
L 525 4134 
L 525 4666 
z
" transform="scale(0.015625)"/>
       <path id="DejaVuSans-2d" d="M 313 2009 
L 1997 2009 
L 1997 1497 
L 313 1497 
L 313 2009 
z
" transform="scale(0.015625)"/>
      </defs>
      <use xlink:href="#DejaVuSans-63"/>
      <use xlink:href="#DejaVuSans-37" x="54.980469"/>
      <use xlink:href="#DejaVuSans-61" x="118.603516"/>
      <use xlink:href="#DejaVuSans-2e" x="179.882812"/>
      <use xlink:href="#DejaVuSans-6d" x="211.669922"/>
      <use xlink:href="#DejaVuSans-65" x="309.082031"/>
      <use xlink:href="#DejaVuSans-74" x="370.605469"/>
      <use xlink:href="#DejaVuSans-61" x="409.814453"/>
      <use xlink:href="#DejaVuSans-6c" x="471.09375"/>
      <use xlink:href="#DejaVuSans-2d" x="498.876953"/>
      <use xlink:href="#DejaVuSans-34" x="534.960938"/>
      <use xlink:href="#DejaVuSans-38" x="598.583984"/>
      <use xlink:href="#DejaVuSans-78" x="662.207031"/>
      <use xlink:href="#DejaVuSans-6c" x="721.386719"/>
     </g>
    </g>
    <g id="patch_174">
     <path d="M 604.59 441.7503 
L 636.59 441.7503 
L 636.59 430.5503 
L 604.59 430.5503 
z
" style="fill: #175262"/>
    </g>
    <g id="text_33">
     <!-- c7g.metal -->
     <g transform="translate(649.39 441.7503) scale(0.16 -0.16)">
      <use xlink:href="#DejaVuSans-63"/>
      <use xlink:href="#DejaVuSans-37" x="54.980469"/>
      <use xlink:href="#DejaVuSans-67" x="118.603516"/>
      <use xlink:href="#DejaVuSans-2e" x="182.080078"/>
      <use xlink:href="#DejaVuSans-6d" x="213.867188"/>
      <use xlink:href="#DejaVuSans-65" x="311.279297"/>
      <use xlink:href="#DejaVuSans-74" x="372.802734"/>
      <use xlink:href="#DejaVuSans-61" x="412.011719"/>
      <use xlink:href="#DejaVuSans-6c" x="473.291016"/>
     </g>
    </g>
    <g id="patch_175">
     <path d="M 604.59 465.2353 
L 636.59 465.2353 
L 636.59 454.0353 
L 604.59 454.0353 
z
" style="fill: #fcbfd6"/>
    </g>
    <g id="text_34">
     <!-- c7gn.16xlarge -->
     <g transform="translate(649.39 465.2353) scale(0.16 -0.16)">
      <use xlink:href="#DejaVuSans-63"/>
      <use xlink:href="#DejaVuSans-37" x="54.980469"/>
      <use xlink:href="#DejaVuSans-67" x="118.603516"/>
      <use xlink:href="#DejaVuSans-6e" x="182.080078"/>
      <use xlink:href="#DejaVuSans-2e" x="245.458984"/>
      <use xlink:href="#DejaVuSans-31" x="277.246094"/>
      <use xlink:href="#DejaVuSans-36" x="340.869141"/>
      <use xlink:href="#DejaVuSans-78" x="404.492188"/>
      <use xlink:href="#DejaVuSans-6c" x="463.671875"/>
      <use xlink:href="#DejaVuSans-61" x="491.455078"/>
      <use xlink:href="#DejaVuSans-72" x="552.734375"/>
      <use xlink:href="#DejaVuSans-67" x="592.097656"/>
      <use xlink:href="#DejaVuSans-65" x="655.574219"/>
     </g>
    </g>
    <g id="patch_176">
     <path d="M 796.13 441.7503 
L 828.13 441.7503 
L 828.13 430.5503 
L 796.13 430.5503 
z
" style="fill: #fca890"/>
    </g>
    <g id="text_35">
     <!-- c7i.metal-48xl -->
     <g transform="translate(840.93 441.7503) scale(0.16 -0.16)">
      <use xlink:href="#DejaVuSans-63"/>
      <use xlink:href="#DejaVuSans-37" x="54.980469"/>
      <use xlink:href="#DejaVuSans-69" x="118.603516"/>
      <use xlink:href="#DejaVuSans-2e" x="146.386719"/>
      <use xlink:href="#DejaVuSans-6d" x="178.173828"/>
      <use xlink:href="#DejaVuSans-65" x="275.585938"/>
      <use xlink:href="#DejaVuSans-74" x="337.109375"/>
      <use xlink:href="#DejaVuSans-61" x="376.318359"/>
      <use xlink:href="#DejaVuSans-6c" x="437.597656"/>
      <use xlink:href="#DejaVuSans-2d" x="465.380859"/>
      <use xlink:href="#DejaVuSans-34" x="501.464844"/>
      <use xlink:href="#DejaVuSans-38" x="565.087891"/>
      <use xlink:href="#DejaVuSans-78" x="628.710938"/>
      <use xlink:href="#DejaVuSans-6c" x="687.890625"/>
     </g>
    </g>
    <g id="patch_177">
     <path d="M 796.13 465.2353 
L 828.13 465.2353 
L 828.13 454.0353 
L 796.13 454.0353 
z
" style="fill: #356a59"/>
    </g>
    <g id="text_36">
     <!-- m5a.24xlarge -->
     <g transform="translate(840.93 465.2353) scale(0.16 -0.16)">
      <use xlink:href="#DejaVuSans-6d"/>
      <use xlink:href="#DejaVuSans-35" x="97.412109"/>
      <use xlink:href="#DejaVuSans-61" x="161.035156"/>
      <use xlink:href="#DejaVuSans-2e" x="222.314453"/>
      <use xlink:href="#DejaVuSans-32" x="254.101562"/>
      <use xlink:href="#DejaVuSans-34" x="317.724609"/>
      <use xlink:href="#DejaVuSans-78" x="381.347656"/>
      <use xlink:href="#DejaVuSans-6c" x="440.527344"/>
      <use xlink:href="#DejaVuSans-61" x="468.310547"/>
      <use xlink:href="#DejaVuSans-72" x="529.589844"/>
      <use xlink:href="#DejaVuSans-67" x="568.953125"/>
      <use xlink:href="#DejaVuSans-65" x="632.429688"/>
     </g>
    </g>
   </g>
  </g>
 </g>
 <defs>
  <clipPath id="p8482991fea">
   <rect x="64.225" y="49.2888" width="892.8" height="332.64"/>
  </clipPath>
 </defs>
</svg>
