<?xml version="1.0" encoding="utf-8" standalone="no"?>
<!DOCTYPE svg PUBLIC "-//W3C//DTD SVG 1.1//EN"
  "http://www.w3.org/Graphics/SVG/1.1/DTD/svg11.dtd">
<svg xmlns:xlink="http://www.w3.org/1999/xlink" width="962.20625pt" height="507.633pt" viewBox="0 0 962.20625 507.633" xmlns="http://www.w3.org/2000/svg" version="1.1">
 <metadata>
  <rdf:RDF xmlns:dc="http://purl.org/dc/elements/1.1/" xmlns:cc="http://creativecommons.org/ns#" xmlns:rdf="http://www.w3.org/1999/02/22-rdf-syntax-ns#">
   <cc:Work>
    <dc:type rdf:resource="http://purl.org/dc/dcmitype/StillImage"/>
    <dc:date>2024-04-14T14:36:35.022648</dc:date>
    <dc:format>image/svg+xml</dc:format>
    <dc:creator>
     <cc:Agent>
      <dc:title>Matplotlib v3.8.2, https://matplotlib.org/</dc:title>
     </cc:Agent>
    </dc:creator>
   </cc:Work>
  </rdf:RDF>
 </metadata>
 <defs>
  <style type="text/css">*{stroke-linejoin: round; stroke-linecap: butt}</style>
 </defs>
 <g id="figure_1">
  <g id="patch_1">
   <path d="M 0 507.633 
L 962.20625 507.633 
L 962.20625 0 
L 0 0 
z
" style="fill: #ffffff"/>
  </g>
  <g id="axes_1">
   <g id="patch_2">
    <path d="M 59.13 360.429 
L 951.93 360.429 
L 951.93 27.789 
L 59.13 27.789 
z
" style="fill: #ffffff"/>
   </g>
   <g id="patch_3">
    <path d="M 99.711818 360.429 
L 103.449617 360.429 
L 103.449617 346.682796 
L 99.711818 346.682796 
z
" clip-path="url(#pb7593c0567)" style="fill: #011959"/>
   </g>
   <g id="patch_4">
    <path d="M 168.060144 360.429 
L 171.797943 360.429 
L 171.797943 350.359969 
L 168.060144 350.359969 
z
" clip-path="url(#pb7593c0567)" style="fill: #011959"/>
   </g>
   <g id="patch_5">
    <path d="M 236.408469 360.429 
L 240.146268 360.429 
L 240.146268 350.359969 
L 236.408469 350.359969 
z
" clip-path="url(#pb7593c0567)" style="fill: #011959"/>
   </g>
   <g id="patch_6">
    <path d="M 304.756794 360.429 
L 308.494593 360.429 
L 308.494593 353.183661 
L 304.756794 353.183661 
z
" clip-path="url(#pb7593c0567)" style="fill: #011959"/>
   </g>
   <g id="patch_7">
    <path d="M 373.10512 360.429 
L 376.842919 360.429 
L 376.842919 353.392524 
L 373.10512 353.392524 
z
" clip-path="url(#pb7593c0567)" style="fill: #011959"/>
   </g>
   <g id="patch_8">
    <path d="M 441.453445 360.429 
L 445.191244 360.429 
L 445.191244 349.898695 
L 441.453445 349.898695 
z
" clip-path="url(#pb7593c0567)" style="fill: #011959"/>
   </g>
   <g id="patch_9">
    <path d="M 509.80177 360.429 
L 513.539569 360.429 
L 513.539569 353.849768 
L 509.80177 353.849768 
z
" clip-path="url(#pb7593c0567)" style="fill: #011959"/>
   </g>
   <g id="patch_10">
    <path d="M 578.150096 360.429 
L 581.887895 360.429 
L 581.887895 353.41316 
L 578.150096 353.41316 
z
" clip-path="url(#pb7593c0567)" style="fill: #011959"/>
   </g>
   <g id="patch_11">
    <path d="M 646.498421 360.429 
L 650.23622 360.429 
L 650.23622 281.375241 
L 646.498421 281.375241 
z
" clip-path="url(#pb7593c0567)" style="fill: #011959"/>
   </g>
   <g id="patch_12">
    <path d="M 714.846746 360.429 
L 718.584545 360.429 
L 718.584545 283.397692 
L 714.846746 283.397692 
z
" clip-path="url(#pb7593c0567)" style="fill: #011959"/>
   </g>
   <g id="patch_13">
    <path d="M 783.195072 360.429 
L 786.932871 360.429 
L 786.932871 285.545476 
L 783.195072 285.545476 
z
" clip-path="url(#pb7593c0567)" style="fill: #011959"/>
   </g>
   <g id="patch_14">
    <path d="M 851.543397 360.429 
L 855.281196 360.429 
L 855.281196 355.150947 
L 851.543397 355.150947 
z
" clip-path="url(#pb7593c0567)" style="fill: #011959"/>
   </g>
   <g id="patch_15">
    <path d="M 103.449617 360.429 
L 107.187416 360.429 
L 107.187416 336.181259 
L 103.449617 336.181259 
z
" clip-path="url(#pb7593c0567)" style="fill: #faccfa"/>
   </g>
   <g id="patch_16">
    <path d="M 171.797943 360.429 
L 175.535742 360.429 
L 175.535742 333.367518 
L 171.797943 333.367518 
z
" clip-path="url(#pb7593c0567)" style="fill: #faccfa"/>
   </g>
   <g id="patch_17">
    <path d="M 240.146268 360.429 
L 243.884067 360.429 
L 243.884067 333.367518 
L 240.146268 333.367518 
z
" clip-path="url(#pb7593c0567)" style="fill: #faccfa"/>
   </g>
   <g id="patch_18">
    <path d="M 308.494593 360.429 
L 312.232392 360.429 
L 312.232392 340.105729 
L 308.494593 340.105729 
z
" clip-path="url(#pb7593c0567)" style="fill: #faccfa"/>
   </g>
   <g id="patch_19">
    <path d="M 376.842919 360.429 
L 380.580718 360.429 
L 380.580718 340.018347 
L 376.842919 340.018347 
z
" clip-path="url(#pb7593c0567)" style="fill: #faccfa"/>
   </g>
   <g id="patch_20">
    <path d="M 445.191244 360.429 
L 448.929043 360.429 
L 448.929043 327.434669 
L 445.191244 327.434669 
z
" clip-path="url(#pb7593c0567)" style="fill: #faccfa"/>
   </g>
   <g id="patch_21">
    <path d="M 513.539569 360.429 
L 517.277368 360.429 
L 517.277368 345.947398 
L 513.539569 345.947398 
z
" clip-path="url(#pb7593c0567)" style="fill: #faccfa"/>
   </g>
   <g id="patch_22">
    <path d="M 581.887895 360.429 
L 585.625694 360.429 
L 585.625694 344.01508 
L 581.887895 344.01508 
z
" clip-path="url(#pb7593c0567)" style="fill: #faccfa"/>
   </g>
   <g id="patch_23">
    <path d="M 650.23622 360.429 
L 653.974019 360.429 
L 653.974019 170.834698 
L 650.23622 170.834698 
z
" clip-path="url(#pb7593c0567)" style="fill: #faccfa"/>
   </g>
   <g id="patch_24">
    <path d="M 718.584545 360.429 
L 722.322344 360.429 
L 722.322344 195.4867 
L 718.584545 195.4867 
z
" clip-path="url(#pb7593c0567)" style="fill: #faccfa"/>
   </g>
   <g id="patch_25">
    <path d="M 786.932871 360.429 
L 790.67067 360.429 
L 790.67067 182.714051 
L 786.932871 182.714051 
z
" clip-path="url(#pb7593c0567)" style="fill: #faccfa"/>
   </g>
   <g id="patch_26">
    <path d="M 855.281196 360.429 
L 859.018995 360.429 
L 859.018995 353.435428 
L 855.281196 353.435428 
z
" clip-path="url(#pb7593c0567)" style="fill: #faccfa"/>
   </g>
   <g id="patch_27">
    <path d="M 107.187416 360.429 
L 110.925215 360.429 
L 110.925215 328.239146 
L 107.187416 328.239146 
z
" clip-path="url(#pb7593c0567)" style="fill: #828231"/>
   </g>
   <g id="patch_28">
    <path d="M 175.535742 360.429 
L 179.273541 360.429 
L 179.273541 323.078479 
L 175.535742 323.078479 
z
" clip-path="url(#pb7593c0567)" style="fill: #828231"/>
   </g>
   <g id="patch_29">
    <path d="M 243.884067 360.429 
L 247.621866 360.429 
L 247.621866 323.078479 
L 243.884067 323.078479 
z
" clip-path="url(#pb7593c0567)" style="fill: #828231"/>
   </g>
   <g id="patch_30">
    <path d="M 312.232392 360.429 
L 315.970191 360.429 
L 315.970191 336.433027 
L 312.232392 336.433027 
z
" clip-path="url(#pb7593c0567)" style="fill: #828231"/>
   </g>
   <g id="patch_31">
    <path d="M 380.580718 360.429 
L 384.318517 360.429 
L 384.318517 336.364236 
L 380.580718 336.364236 
z
" clip-path="url(#pb7593c0567)" style="fill: #828231"/>
   </g>
   <g id="patch_32">
    <path d="M 448.929043 360.429 
L 452.666842 360.429 
L 452.666842 323.638321 
L 448.929043 323.638321 
z
" clip-path="url(#pb7593c0567)" style="fill: #828231"/>
   </g>
   <g id="patch_33">
    <path d="M 517.277368 360.429 
L 521.015167 360.429 
L 521.015167 343.191993 
L 517.277368 343.191993 
z
" clip-path="url(#pb7593c0567)" style="fill: #828231"/>
   </g>
   <g id="patch_34">
    <path d="M 585.625694 360.429 
L 589.363493 360.429 
L 589.363493 336.566105 
L 585.625694 336.566105 
z
" clip-path="url(#pb7593c0567)" style="fill: #828231"/>
   </g>
   <g id="patch_35">
    <path d="M 653.974019 360.429 
L 657.711818 360.429 
L 657.711818 212.866035 
L 653.974019 212.866035 
z
" clip-path="url(#pb7593c0567)" style="fill: #828231"/>
   </g>
   <g id="patch_36">
    <path d="M 722.322344 360.429 
L 726.060144 360.429 
L 726.060144 186.097384 
L 722.322344 186.097384 
z
" clip-path="url(#pb7593c0567)" style="fill: #828231"/>
   </g>
   <g id="patch_37">
    <path d="M 790.67067 360.429 
L 794.408469 360.429 
L 794.408469 175.898882 
L 790.67067 175.898882 
z
" clip-path="url(#pb7593c0567)" style="fill: #828231"/>
   </g>
   <g id="patch_38">
    <path d="M 859.018995 360.429 
L 862.756794 360.429 
L 862.756794 352.4417 
L 859.018995 352.4417 
z
" clip-path="url(#pb7593c0567)" style="fill: #828231"/>
   </g>
   <g id="patch_39">
    <path d="M 110.925215 360.429 
L 114.663014 360.429 
L 114.663014 260.803636 
L 110.925215 260.803636 
z
" clip-path="url(#pb7593c0567)" style="fill: #226061"/>
   </g>
   <g id="patch_40">
    <path d="M 179.273541 360.429 
L 183.01134 360.429 
L 183.01134 237.345409 
L 179.273541 237.345409 
z
" clip-path="url(#pb7593c0567)" style="fill: #226061"/>
   </g>
   <g id="patch_41">
    <path d="M 247.621866 360.429 
L 251.359665 360.429 
L 251.359665 237.345409 
L 247.621866 237.345409 
z
" clip-path="url(#pb7593c0567)" style="fill: #226061"/>
   </g>
   <g id="patch_42">
    <path d="M 315.970191 360.429 
L 319.70799 360.429 
L 319.70799 239.609679 
L 315.970191 239.609679 
z
" clip-path="url(#pb7593c0567)" style="fill: #226061"/>
   </g>
   <g id="patch_43">
    <path d="M 384.318517 360.429 
L 388.056316 360.429 
L 388.056316 229.370699 
L 384.318517 229.370699 
z
" clip-path="url(#pb7593c0567)" style="fill: #226061"/>
   </g>
   <g id="patch_44">
    <path d="M 452.666842 360.429 
L 456.404641 360.429 
L 456.404641 261.199678 
L 452.666842 261.199678 
z
" clip-path="url(#pb7593c0567)" style="fill: #226061"/>
   </g>
   <g id="patch_45">
    <path d="M 521.015167 360.429 
L 524.752967 360.429 
L 524.752967 236.327889 
L 521.015167 236.327889 
z
" clip-path="url(#pb7593c0567)" style="fill: #226061"/>
   </g>
   <g id="patch_46">
    <path d="M 589.363493 360.429 
L 593.101292 360.429 
L 593.101292 331.037784 
L 589.363493 331.037784 
z
" clip-path="url(#pb7593c0567)" style="fill: #226061"/>
   </g>
   <g id="patch_47">
    <path d="M 657.711818 360.429 
L 661.449617 360.429 
L 661.449617 132.128288 
L 657.711818 132.128288 
z
" clip-path="url(#pb7593c0567)" style="fill: #226061"/>
   </g>
   <g id="patch_48">
    <path d="M 726.060144 360.429 
L 729.797943 360.429 
L 729.797943 115.499496 
L 726.060144 115.499496 
z
" clip-path="url(#pb7593c0567)" style="fill: #226061"/>
   </g>
   <g id="patch_49">
    <path d="M 794.408469 360.429 
L 798.146268 360.429 
L 798.146268 95.897662 
L 794.408469 95.897662 
z
" clip-path="url(#pb7593c0567)" style="fill: #226061"/>
   </g>
   <g id="patch_50">
    <path d="M 862.756794 360.429 
L 866.494593 360.429 
L 866.494593 213.399034 
L 862.756794 213.399034 
z
" clip-path="url(#pb7593c0567)" style="fill: #226061"/>
   </g>
   <g id="patch_51">
    <path d="M 114.663014 360.429 
L 118.400813 360.429 
L 118.400813 265.11512 
L 114.663014 265.11512 
z
" clip-path="url(#pb7593c0567)" style="fill: #f19d6b"/>
   </g>
   <g id="patch_52">
    <path d="M 183.01134 360.429 
L 186.749139 360.429 
L 186.749139 246.052123 
L 183.01134 246.052123 
z
" clip-path="url(#pb7593c0567)" style="fill: #f19d6b"/>
   </g>
   <g id="patch_53">
    <path d="M 251.359665 360.429 
L 255.097464 360.429 
L 255.097464 246.052123 
L 251.359665 246.052123 
z
" clip-path="url(#pb7593c0567)" style="fill: #f19d6b"/>
   </g>
   <g id="patch_54">
    <path d="M 319.70799 360.429 
L 323.445789 360.429 
L 323.445789 240.626736 
L 319.70799 240.626736 
z
" clip-path="url(#pb7593c0567)" style="fill: #f19d6b"/>
   </g>
   <g id="patch_55">
    <path d="M 388.056316 360.429 
L 391.794115 360.429 
L 391.794115 246.378338 
L 388.056316 246.378338 
z
" clip-path="url(#pb7593c0567)" style="fill: #f19d6b"/>
   </g>
   <g id="patch_56">
    <path d="M 456.404641 360.429 
L 460.14244 360.429 
L 460.14244 312.510283 
L 456.404641 312.510283 
z
" clip-path="url(#pb7593c0567)" style="fill: #f19d6b"/>
   </g>
   <g id="patch_57">
    <path d="M 524.752967 360.429 
L 528.490766 360.429 
L 528.490766 275.566609 
L 524.752967 275.566609 
z
" clip-path="url(#pb7593c0567)" style="fill: #f19d6b"/>
   </g>
   <g id="patch_58">
    <path d="M 593.101292 360.429 
L 596.839091 360.429 
L 596.839091 355.493142 
L 593.101292 355.493142 
z
" clip-path="url(#pb7593c0567)" style="fill: #f19d6b"/>
   </g>
   <g id="patch_59">
    <path d="M 661.449617 360.429 
L 665.187416 360.429 
L 665.187416 218.199087 
L 661.449617 218.199087 
z
" clip-path="url(#pb7593c0567)" style="fill: #f19d6b"/>
   </g>
   <g id="patch_60">
    <path d="M 729.797943 360.429 
L 733.535742 360.429 
L 733.535742 162.340923 
L 729.797943 162.340923 
z
" clip-path="url(#pb7593c0567)" style="fill: #f19d6b"/>
   </g>
   <g id="patch_61">
    <path d="M 798.146268 360.429 
L 801.884067 360.429 
L 801.884067 150.510765 
L 798.146268 150.510765 
z
" clip-path="url(#pb7593c0567)" style="fill: #f19d6b"/>
   </g>
   <g id="patch_62">
    <path d="M 866.494593 360.429 
L 870.232392 360.429 
L 870.232392 251.774721 
L 866.494593 251.774721 
z
" clip-path="url(#pb7593c0567)" style="fill: #f19d6b"/>
   </g>
   <g id="patch_63">
    <path d="M 118.400813 360.429 
L 122.138612 360.429 
L 122.138612 132.335521 
L 118.400813 132.335521 
z
" clip-path="url(#pb7593c0567)" style="fill: #4d734d"/>
   </g>
   <g id="patch_64">
    <path d="M 186.749139 360.429 
L 190.486938 360.429 
L 190.486938 99.879865 
L 186.749139 99.879865 
z
" clip-path="url(#pb7593c0567)" style="fill: #4d734d"/>
   </g>
   <g id="patch_65">
    <path d="M 255.097464 360.429 
L 258.835263 360.429 
L 258.835263 99.879865 
L 255.097464 99.879865 
z
" clip-path="url(#pb7593c0567)" style="fill: #4d734d"/>
   </g>
   <g id="patch_66">
    <path d="M 323.445789 360.429 
L 327.183589 360.429 
L 327.183589 111.853539 
L 323.445789 111.853539 
z
" clip-path="url(#pb7593c0567)" style="fill: #4d734d"/>
   </g>
   <g id="patch_67">
    <path d="M 391.794115 360.429 
L 395.531914 360.429 
L 395.531914 89.408159 
L 391.794115 89.408159 
z
" clip-path="url(#pb7593c0567)" style="fill: #4d734d"/>
   </g>
   <g id="patch_68">
    <path d="M 460.14244 360.429 
L 463.880239 360.429 
L 463.880239 253.411505 
L 460.14244 253.411505 
z
" clip-path="url(#pb7593c0567)" style="fill: #4d734d"/>
   </g>
   <g id="patch_69">
    <path d="M 528.490766 360.429 
L 532.228565 360.429 
L 532.228565 113.586993 
L 528.490766 113.586993 
z
" clip-path="url(#pb7593c0567)" style="fill: #4d734d"/>
   </g>
   <g id="patch_70">
    <path d="M 596.839091 360.429 
L 600.57689 360.429 
L 600.57689 251.571343 
L 596.839091 251.571343 
z
" clip-path="url(#pb7593c0567)" style="fill: #4d734d"/>
   </g>
   <g id="patch_71">
    <path d="M 665.187416 360.429 
L 668.925215 360.429 
L 668.925215 188.690039 
L 665.187416 188.690039 
z
" clip-path="url(#pb7593c0567)" style="fill: #4d734d"/>
   </g>
   <g id="patch_72">
    <path d="M 733.535742 360.429 
L 737.273541 360.429 
L 737.273541 197.411758 
L 733.535742 197.411758 
z
" clip-path="url(#pb7593c0567)" style="fill: #4d734d"/>
   </g>
   <g id="patch_73">
    <path d="M 801.884067 360.429 
L 805.621866 360.429 
L 805.621866 196.279784 
L 801.884067 196.279784 
z
" clip-path="url(#pb7593c0567)" style="fill: #4d734d"/>
   </g>
   <g id="patch_74">
    <path d="M 870.232392 360.429 
L 873.970191 360.429 
L 873.970191 104.549977 
L 870.232392 104.549977 
z
" clip-path="url(#pb7593c0567)" style="fill: #4d734d"/>
   </g>
   <g id="patch_75">
    <path d="M 122.138612 360.429 
L 125.876411 360.429 
L 125.876411 273.416948 
L 122.138612 273.416948 
z
" clip-path="url(#pb7593c0567)" style="fill: #114360"/>
   </g>
   <g id="patch_76">
    <path d="M 190.486938 360.429 
L 194.224737 360.429 
L 194.224737 272.8121 
L 190.486938 272.8121 
z
" clip-path="url(#pb7593c0567)" style="fill: #114360"/>
   </g>
   <g id="patch_77">
    <path d="M 258.835263 360.429 
L 262.573062 360.429 
L 262.573062 272.8121 
L 258.835263 272.8121 
z
" clip-path="url(#pb7593c0567)" style="fill: #114360"/>
   </g>
   <g id="patch_78">
    <path d="M 327.183589 360.429 
L 330.921388 360.429 
L 330.921388 261.181071 
L 327.183589 261.181071 
z
" clip-path="url(#pb7593c0567)" style="fill: #114360"/>
   </g>
   <g id="patch_79">
    <path d="M 395.531914 360.429 
L 399.269713 360.429 
L 399.269713 242.234306 
L 395.531914 242.234306 
z
" clip-path="url(#pb7593c0567)" style="fill: #114360"/>
   </g>
   <g id="patch_80">
    <path d="M 463.880239 360.429 
L 467.618038 360.429 
L 467.618038 300.999901 
L 463.880239 300.999901 
z
" clip-path="url(#pb7593c0567)" style="fill: #114360"/>
   </g>
   <g id="patch_81">
    <path d="M 532.228565 360.429 
L 535.966364 360.429 
L 535.966364 257.094335 
L 532.228565 257.094335 
z
" clip-path="url(#pb7593c0567)" style="fill: #114360"/>
   </g>
   <g id="patch_82">
    <path d="M 600.57689 360.429 
L 604.314689 360.429 
L 604.314689 266.087705 
L 600.57689 266.087705 
z
" clip-path="url(#pb7593c0567)" style="fill: #114360"/>
   </g>
   <g id="patch_83">
    <path d="M 668.925215 360.429 
L 672.663014 360.429 
L 672.663014 77.045407 
L 668.925215 77.045407 
z
" clip-path="url(#pb7593c0567)" style="fill: #114360"/>
   </g>
   <g id="patch_84">
    <path d="M 737.273541 360.429 
L 741.01134 360.429 
L 741.01134 71.684343 
L 737.273541 71.684343 
z
" clip-path="url(#pb7593c0567)" style="fill: #114360"/>
   </g>
   <g id="patch_85">
    <path d="M 805.621866 360.429 
L 809.359665 360.429 
L 809.359665 75.69278 
L 805.621866 75.69278 
z
" clip-path="url(#pb7593c0567)" style="fill: #114360"/>
   </g>
   <g id="patch_86">
    <path d="M 873.970191 360.429 
L 877.70799 360.429 
L 877.70799 277.097469 
L 873.970191 277.097469 
z
" clip-path="url(#pb7593c0567)" style="fill: #114360"/>
   </g>
   <g id="patch_87">
    <path d="M 125.876411 360.429 
L 129.614211 360.429 
L 129.614211 235.716852 
L 125.876411 235.716852 
z
" clip-path="url(#pb7593c0567)" style="fill: #fdb4b4"/>
   </g>
   <g id="patch_88">
    <path d="M 194.224737 360.429 
L 197.962536 360.429 
L 197.962536 195.064413 
L 194.224737 195.064413 
z
" clip-path="url(#pb7593c0567)" style="fill: #fdb4b4"/>
   </g>
   <g id="patch_89">
    <path d="M 262.573062 360.429 
L 266.310861 360.429 
L 266.310861 195.064413 
L 262.573062 195.064413 
z
" clip-path="url(#pb7593c0567)" style="fill: #fdb4b4"/>
   </g>
   <g id="patch_90">
    <path d="M 330.921388 360.429 
L 334.659187 360.429 
L 334.659187 191.806436 
L 330.921388 191.806436 
z
" clip-path="url(#pb7593c0567)" style="fill: #fdb4b4"/>
   </g>
   <g id="patch_91">
    <path d="M 399.269713 360.429 
L 403.007512 360.429 
L 403.007512 161.232532 
L 399.269713 161.232532 
z
" clip-path="url(#pb7593c0567)" style="fill: #fdb4b4"/>
   </g>
   <g id="patch_92">
    <path d="M 467.618038 360.429 
L 471.355837 360.429 
L 471.355837 223.498791 
L 467.618038 223.498791 
z
" clip-path="url(#pb7593c0567)" style="fill: #fdb4b4"/>
   </g>
   <g id="patch_93">
    <path d="M 535.966364 360.429 
L 539.704163 360.429 
L 539.704163 166.267689 
L 535.966364 166.267689 
z
" clip-path="url(#pb7593c0567)" style="fill: #fdb4b4"/>
   </g>
   <g id="patch_94">
    <path d="M 604.314689 360.429 
L 608.052488 360.429 
L 608.052488 327.788606 
L 604.314689 327.788606 
z
" clip-path="url(#pb7593c0567)" style="fill: #fdb4b4"/>
   </g>
   <g id="patch_95">
    <path d="M 672.663014 360.429 
L 676.400813 360.429 
L 676.400813 109.053848 
L 672.663014 109.053848 
z
" clip-path="url(#pb7593c0567)" style="fill: #fdb4b4"/>
   </g>
   <g id="patch_96">
    <path d="M 741.01134 360.429 
L 744.749139 360.429 
L 744.749139 73.473612 
L 741.01134 73.473612 
z
" clip-path="url(#pb7593c0567)" style="fill: #fdb4b4"/>
   </g>
   <g id="patch_97">
    <path d="M 809.359665 360.429 
L 813.097464 360.429 
L 813.097464 52.930923 
L 809.359665 52.930923 
z
" clip-path="url(#pb7593c0567)" style="fill: #fdb4b4"/>
   </g>
   <g id="patch_98">
    <path d="M 877.70799 360.429 
L 881.445789 360.429 
L 881.445789 115.125275 
L 877.70799 115.125275 
z
" clip-path="url(#pb7593c0567)" style="fill: #fdb4b4"/>
   </g>
   <g id="patch_99">
    <path d="M 129.614211 360.429 
L 133.35201 360.429 
L 133.35201 43.629 
L 129.614211 43.629 
z
" clip-path="url(#pb7593c0567)" style="fill: #c09036"/>
   </g>
   <g id="patch_100">
    <path d="M 197.962536 360.429 
L 201.700335 360.429 
L 201.700335 43.629 
L 197.962536 43.629 
z
" clip-path="url(#pb7593c0567)" style="fill: #c09036"/>
   </g>
   <g id="patch_101">
    <path d="M 266.310861 360.429 
L 270.04866 360.429 
L 270.04866 43.629 
L 266.310861 43.629 
z
" clip-path="url(#pb7593c0567)" style="fill: #c09036"/>
   </g>
   <g id="patch_102">
    <path d="M 334.659187 360.429 
L 338.396986 360.429 
L 338.396986 43.629 
L 334.659187 43.629 
z
" clip-path="url(#pb7593c0567)" style="fill: #c09036"/>
   </g>
   <g id="patch_103">
    <path d="M 403.007512 360.429 
L 406.745311 360.429 
L 406.745311 43.629 
L 403.007512 43.629 
z
" clip-path="url(#pb7593c0567)" style="fill: #c09036"/>
   </g>
   <g id="patch_104">
    <path d="M 471.355837 360.429 
L 475.093636 360.429 
L 475.093636 43.629 
L 471.355837 43.629 
z
" clip-path="url(#pb7593c0567)" style="fill: #c09036"/>
   </g>
   <g id="patch_105">
    <path d="M 539.704163 360.429 
L 543.441962 360.429 
L 543.441962 58.424888 
L 539.704163 58.424888 
z
" clip-path="url(#pb7593c0567)" style="fill: #c09036"/>
   </g>
   <g id="patch_106">
    <path d="M 608.052488 360.429 
L 611.790287 360.429 
L 611.790287 43.629 
L 608.052488 43.629 
z
" clip-path="url(#pb7593c0567)" style="fill: #c09036"/>
   </g>
   <g id="patch_107">
    <path d="M 676.400813 360.429 
L 680.138612 360.429 
L 680.138612 199.254851 
L 676.400813 199.254851 
z
" clip-path="url(#pb7593c0567)" style="fill: #c09036"/>
   </g>
   <g id="patch_108">
    <path d="M 744.749139 360.429 
L 748.486938 360.429 
L 748.486938 182.816091 
L 744.749139 182.816091 
z
" clip-path="url(#pb7593c0567)" style="fill: #c09036"/>
   </g>
   <g id="patch_109">
    <path d="M 813.097464 360.429 
L 816.835263 360.429 
L 816.835263 172.532962 
L 813.097464 172.532962 
z
" clip-path="url(#pb7593c0567)" style="fill: #c09036"/>
   </g>
   <g id="patch_110">
    <path d="M 881.445789 360.429 
L 885.183589 360.429 
L 885.183589 164.122685 
L 881.445789 164.122685 
z
" clip-path="url(#pb7593c0567)" style="fill: #c09036"/>
   </g>
   <g id="patch_111">
    <path d="M 133.35201 360.429 
L 137.089809 360.429 
L 137.089809 243.685044 
L 133.35201 243.685044 
z
" clip-path="url(#pb7593c0567)" style="fill: #175262"/>
   </g>
   <g id="patch_112">
    <path d="M 201.700335 360.429 
L 205.438134 360.429 
L 205.438134 267.04417 
L 201.700335 267.04417 
z
" clip-path="url(#pb7593c0567)" style="fill: #175262"/>
   </g>
   <g id="patch_113">
    <path d="M 270.04866 360.429 
L 273.786459 360.429 
L 273.786459 267.04417 
L 270.04866 267.04417 
z
" clip-path="url(#pb7593c0567)" style="fill: #175262"/>
   </g>
   <g id="patch_114">
    <path d="M 338.396986 360.429 
L 342.134785 360.429 
L 342.134785 243.911421 
L 338.396986 243.911421 
z
" clip-path="url(#pb7593c0567)" style="fill: #175262"/>
   </g>
   <g id="patch_115">
    <path d="M 406.745311 360.429 
L 410.48311 360.429 
L 410.48311 232.936077 
L 406.745311 232.936077 
z
" clip-path="url(#pb7593c0567)" style="fill: #175262"/>
   </g>
   <g id="patch_116">
    <path d="M 475.093636 360.429 
L 478.831435 360.429 
L 478.831435 246.036061 
L 475.093636 246.036061 
z
" clip-path="url(#pb7593c0567)" style="fill: #175262"/>
   </g>
   <g id="patch_117">
    <path d="M 543.441962 360.429 
L 547.179761 360.429 
L 547.179761 254.637891 
L 543.441962 254.637891 
z
" clip-path="url(#pb7593c0567)" style="fill: #175262"/>
   </g>
   <g id="patch_118">
    <path d="M 611.790287 360.429 
L 615.528086 360.429 
L 615.528086 237.536984 
L 611.790287 237.536984 
z
" clip-path="url(#pb7593c0567)" style="fill: #175262"/>
   </g>
   <g id="patch_119">
    <path d="M 680.138612 360.429 
L 683.876411 360.429 
L 683.876411 43.629 
L 680.138612 43.629 
z
" clip-path="url(#pb7593c0567)" style="fill: #175262"/>
   </g>
   <g id="patch_120">
    <path d="M 748.486938 360.429 
L 752.224737 360.429 
L 752.224737 43.629 
L 748.486938 43.629 
z
" clip-path="url(#pb7593c0567)" style="fill: #175262"/>
   </g>
   <g id="patch_121">
    <path d="M 816.835263 360.429 
L 820.573062 360.429 
L 820.573062 43.629 
L 816.835263 43.629 
z
" clip-path="url(#pb7593c0567)" style="fill: #175262"/>
   </g>
   <g id="patch_122">
    <path d="M 885.183589 360.429 
L 888.921388 360.429 
L 888.921388 284.762518 
L 885.183589 284.762518 
z
" clip-path="url(#pb7593c0567)" style="fill: #175262"/>
   </g>
   <g id="patch_123">
    <path d="M 137.089809 360.429 
L 140.827608 360.429 
L 140.827608 243.212779 
L 137.089809 243.212779 
z
" clip-path="url(#pb7593c0567)" style="fill: #fcbfd6"/>
   </g>
   <g id="patch_124">
    <path d="M 205.438134 360.429 
L 209.175933 360.429 
L 209.175933 267.161759 
L 205.438134 267.161759 
z
" clip-path="url(#pb7593c0567)" style="fill: #fcbfd6"/>
   </g>
   <g id="patch_125">
    <path d="M 273.786459 360.429 
L 277.524258 360.429 
L 277.524258 267.161759 
L 273.786459 267.161759 
z
" clip-path="url(#pb7593c0567)" style="fill: #fcbfd6"/>
   </g>
   <g id="patch_126">
    <path d="M 342.134785 360.429 
L 345.872584 360.429 
L 345.872584 246.293805 
L 342.134785 246.293805 
z
" clip-path="url(#pb7593c0567)" style="fill: #fcbfd6"/>
   </g>
   <g id="patch_127">
    <path d="M 410.48311 360.429 
L 414.220909 360.429 
L 414.220909 233.621989 
L 410.48311 233.621989 
z
" clip-path="url(#pb7593c0567)" style="fill: #fcbfd6"/>
   </g>
   <g id="patch_128">
    <path d="M 478.831435 360.429 
L 482.569234 360.429 
L 482.569234 248.088887 
L 478.831435 248.088887 
z
" clip-path="url(#pb7593c0567)" style="fill: #fcbfd6"/>
   </g>
   <g id="patch_129">
    <path d="M 547.179761 360.429 
L 550.91756 360.429 
L 550.91756 254.924987 
L 547.179761 254.924987 
z
" clip-path="url(#pb7593c0567)" style="fill: #fcbfd6"/>
   </g>
   <g id="patch_130">
    <path d="M 615.528086 360.429 
L 619.265885 360.429 
L 619.265885 357.636722 
L 615.528086 357.636722 
z
" clip-path="url(#pb7593c0567)" style="fill: #fcbfd6"/>
   </g>
   <g id="patch_131">
    <path d="M 683.876411 360.429 
L 687.614211 360.429 
L 687.614211 198.252055 
L 683.876411 198.252055 
z
" clip-path="url(#pb7593c0567)" style="fill: #fcbfd6"/>
   </g>
   <g id="patch_132">
    <path d="M 752.224737 360.429 
L 755.962536 360.429 
L 755.962536 164.023383 
L 752.224737 164.023383 
z
" clip-path="url(#pb7593c0567)" style="fill: #fcbfd6"/>
   </g>
   <g id="patch_133">
    <path d="M 820.573062 360.429 
L 824.310861 360.429 
L 824.310861 153.479703 
L 820.573062 153.479703 
z
" clip-path="url(#pb7593c0567)" style="fill: #fcbfd6"/>
   </g>
   <g id="patch_134">
    <path d="M 888.921388 360.429 
L 892.659187 360.429 
L 892.659187 284.271165 
L 888.921388 284.271165 
z
" clip-path="url(#pb7593c0567)" style="fill: #fcbfd6"/>
   </g>
   <g id="patch_135">
    <path d="M 140.827608 360.429 
L 144.565407 360.429 
L 144.565407 132.622599 
L 140.827608 132.622599 
z
" clip-path="url(#pb7593c0567)" style="fill: #fca890"/>
   </g>
   <g id="patch_136">
    <path d="M 209.175933 360.429 
L 212.913732 360.429 
L 212.913732 115.405801 
L 209.175933 115.405801 
z
" clip-path="url(#pb7593c0567)" style="fill: #fca890"/>
   </g>
   <g id="patch_137">
    <path d="M 277.524258 360.429 
L 281.262057 360.429 
L 281.262057 115.405801 
L 277.524258 115.405801 
z
" clip-path="url(#pb7593c0567)" style="fill: #fca890"/>
   </g>
   <g id="patch_138">
    <path d="M 345.872584 360.429 
L 349.610383 360.429 
L 349.610383 105.584774 
L 345.872584 105.584774 
z
" clip-path="url(#pb7593c0567)" style="fill: #fca890"/>
   </g>
   <g id="patch_139">
    <path d="M 414.220909 360.429 
L 417.958708 360.429 
L 417.958708 46.888295 
L 414.220909 46.888295 
z
" clip-path="url(#pb7593c0567)" style="fill: #fca890"/>
   </g>
   <g id="patch_140">
    <path d="M 482.569234 360.429 
L 486.307033 360.429 
L 486.307033 193.724709 
L 482.569234 193.724709 
z
" clip-path="url(#pb7593c0567)" style="fill: #fca890"/>
   </g>
   <g id="patch_141">
    <path d="M 550.91756 360.429 
L 554.655359 360.429 
L 554.655359 43.629 
L 550.91756 43.629 
z
" clip-path="url(#pb7593c0567)" style="fill: #fca890"/>
   </g>
   <g id="patch_142">
    <path d="M 619.265885 360.429 
L 623.003684 360.429 
L 623.003684 337.94919 
L 619.265885 337.94919 
z
" clip-path="url(#pb7593c0567)" style="fill: #fca890"/>
   </g>
   <g id="patch_143">
    <path d="M 687.614211 360.429 
L 691.35201 360.429 
L 691.35201 160.262289 
L 687.614211 160.262289 
z
" clip-path="url(#pb7593c0567)" style="fill: #fca890"/>
   </g>
   <g id="patch_144">
    <path d="M 755.962536 360.429 
L 759.700335 360.429 
L 759.700335 157.546079 
L 755.962536 157.546079 
z
" clip-path="url(#pb7593c0567)" style="fill: #fca890"/>
   </g>
   <g id="patch_145">
    <path d="M 824.310861 360.429 
L 828.04866 360.429 
L 828.04866 149.125073 
L 824.310861 149.125073 
z
" clip-path="url(#pb7593c0567)" style="fill: #fca890"/>
   </g>
   <g id="patch_146">
    <path d="M 892.659187 360.429 
L 896.396986 360.429 
L 896.396986 43.629 
L 892.659187 43.629 
z
" clip-path="url(#pb7593c0567)" style="fill: #fca890"/>
   </g>
   <g id="patch_147">
    <path d="M 144.565407 360.429 
L 148.303206 360.429 
L 148.303206 333.169715 
L 144.565407 333.169715 
z
" clip-path="url(#pb7593c0567)" style="fill: #356a59"/>
   </g>
   <g id="patch_148">
    <path d="M 212.913732 360.429 
L 216.651531 360.429 
L 216.651531 328.845885 
L 212.913732 328.845885 
z
" clip-path="url(#pb7593c0567)" style="fill: #356a59"/>
   </g>
   <g id="patch_149">
    <path d="M 281.262057 360.429 
L 284.999856 360.429 
L 284.999856 328.845885 
L 281.262057 328.845885 
z
" clip-path="url(#pb7593c0567)" style="fill: #356a59"/>
   </g>
   <g id="patch_150">
    <path d="M 349.610383 360.429 
L 353.348182 360.429 
L 353.348182 339.737545 
L 349.610383 339.737545 
z
" clip-path="url(#pb7593c0567)" style="fill: #356a59"/>
   </g>
   <g id="patch_151">
    <path d="M 417.958708 360.429 
L 421.696507 360.429 
L 421.696507 339.929142 
L 417.958708 339.929142 
z
" clip-path="url(#pb7593c0567)" style="fill: #356a59"/>
   </g>
   <g id="patch_152">
    <path d="M 486.307033 360.429 
L 490.044833 360.429 
L 490.044833 327.7951 
L 486.307033 327.7951 
z
" clip-path="url(#pb7593c0567)" style="fill: #356a59"/>
   </g>
   <g id="patch_153">
    <path d="M 554.655359 360.429 
L 558.393158 360.429 
L 558.393158 346.303333 
L 554.655359 346.303333 
z
" clip-path="url(#pb7593c0567)" style="fill: #356a59"/>
   </g>
   <g id="patch_154">
    <path d="M 623.003684 360.429 
L 626.741483 360.429 
L 626.741483 340.385655 
L 623.003684 340.385655 
z
" clip-path="url(#pb7593c0567)" style="fill: #356a59"/>
   </g>
   <g id="patch_155">
    <path d="M 691.35201 360.429 
L 695.089809 360.429 
L 695.089809 224.26651 
L 691.35201 224.26651 
z
" clip-path="url(#pb7593c0567)" style="fill: #356a59"/>
   </g>
   <g id="patch_156">
    <path d="M 759.700335 360.429 
L 763.438134 360.429 
L 763.438134 203.203493 
L 759.700335 203.203493 
z
" clip-path="url(#pb7593c0567)" style="fill: #356a59"/>
   </g>
   <g id="patch_157">
    <path d="M 828.04866 360.429 
L 831.786459 360.429 
L 831.786459 192.211656 
L 828.04866 192.211656 
z
" clip-path="url(#pb7593c0567)" style="fill: #356a59"/>
   </g>
   <g id="patch_158">
    <path d="M 896.396986 360.429 
L 900.134785 360.429 
L 900.134785 353.542283 
L 896.396986 353.542283 
z
" clip-path="url(#pb7593c0567)" style="fill: #356a59"/>
   </g>
   <g id="patch_159">
    <path d="M 148.303206 360.429 
L 152.041005 360.429 
L 152.041005 306.551456 
L 148.303206 306.551456 
z
" clip-path="url(#pb7593c0567)" style="fill: #0d315d"/>
   </g>
   <g id="patch_160">
    <path d="M 216.651531 360.429 
L 220.38933 360.429 
L 220.38933 289.85121 
L 216.651531 289.85121 
z
" clip-path="url(#pb7593c0567)" style="fill: #0d315d"/>
   </g>
   <g id="patch_161">
    <path d="M 284.999856 360.429 
L 288.737656 360.429 
L 288.737656 289.85121 
L 284.999856 289.85121 
z
" clip-path="url(#pb7593c0567)" style="fill: #0d315d"/>
   </g>
   <g id="patch_162">
    <path d="M 353.348182 360.429 
L 357.085981 360.429 
L 357.085981 323.403414 
L 353.348182 323.403414 
z
" clip-path="url(#pb7593c0567)" style="fill: #0d315d"/>
   </g>
   <g id="patch_163">
    <path d="M 421.696507 360.429 
L 425.434306 360.429 
L 425.434306 324.810152 
L 421.696507 324.810152 
z
" clip-path="url(#pb7593c0567)" style="fill: #0d315d"/>
   </g>
   <g id="patch_164">
    <path d="M 490.044833 360.429 
L 493.782632 360.429 
L 493.782632 310.314827 
L 490.044833 310.314827 
z
" clip-path="url(#pb7593c0567)" style="fill: #0d315d"/>
   </g>
   <g id="patch_165">
    <path d="M 558.393158 360.429 
L 562.130957 360.429 
L 562.130957 339.955705 
L 558.393158 339.955705 
z
" clip-path="url(#pb7593c0567)" style="fill: #0d315d"/>
   </g>
   <g id="patch_166">
    <path d="M 626.741483 360.429 
L 630.479282 360.429 
L 630.479282 336.299999 
L 626.741483 336.299999 
z
" clip-path="url(#pb7593c0567)" style="fill: #0d315d"/>
   </g>
   <g id="patch_167">
    <path d="M 695.089809 360.429 
L 698.827608 360.429 
L 698.827608 160.269886 
L 695.089809 160.269886 
z
" clip-path="url(#pb7593c0567)" style="fill: #0d315d"/>
   </g>
   <g id="patch_168">
    <path d="M 763.438134 360.429 
L 767.175933 360.429 
L 767.175933 132.968261 
L 763.438134 132.968261 
z
" clip-path="url(#pb7593c0567)" style="fill: #0d315d"/>
   </g>
   <g id="patch_169">
    <path d="M 831.786459 360.429 
L 835.524258 360.429 
L 835.524258 134.37682 
L 831.786459 134.37682 
z
" clip-path="url(#pb7593c0567)" style="fill: #0d315d"/>
   </g>
   <g id="patch_170">
    <path d="M 900.134785 360.429 
L 903.872584 360.429 
L 903.872584 352.503427 
L 900.134785 352.503427 
z
" clip-path="url(#pb7593c0567)" style="fill: #0d315d"/>
   </g>
   <g id="patch_171">
    <path d="M 152.041005 360.429 
L 155.778804 360.429 
L 155.778804 269.059366 
L 152.041005 269.059366 
z
" clip-path="url(#pb7593c0567)" style="fill: #a18a2b"/>
   </g>
   <g id="patch_172">
    <path d="M 220.38933 360.429 
L 224.127129 360.429 
L 224.127129 252.722789 
L 220.38933 252.722789 
z
" clip-path="url(#pb7593c0567)" style="fill: #a18a2b"/>
   </g>
   <g id="patch_173">
    <path d="M 288.737656 360.429 
L 292.475455 360.429 
L 292.475455 252.722789 
L 288.737656 252.722789 
z
" clip-path="url(#pb7593c0567)" style="fill: #a18a2b"/>
   </g>
   <g id="patch_174">
    <path d="M 357.085981 360.429 
L 360.82378 360.429 
L 360.82378 246.719204 
L 357.085981 246.719204 
z
" clip-path="url(#pb7593c0567)" style="fill: #a18a2b"/>
   </g>
   <g id="patch_175">
    <path d="M 425.434306 360.429 
L 429.172105 360.429 
L 429.172105 239.09348 
L 425.434306 239.09348 
z
" clip-path="url(#pb7593c0567)" style="fill: #a18a2b"/>
   </g>
   <g id="patch_176">
    <path d="M 493.782632 360.429 
L 497.520431 360.429 
L 497.520431 260.148494 
L 493.782632 260.148494 
z
" clip-path="url(#pb7593c0567)" style="fill: #a18a2b"/>
   </g>
   <g id="patch_177">
    <path d="M 562.130957 360.429 
L 565.868756 360.429 
L 565.868756 247.506219 
L 562.130957 247.506219 
z
" clip-path="url(#pb7593c0567)" style="fill: #a18a2b"/>
   </g>
   <g id="patch_178">
    <path d="M 630.479282 360.429 
L 634.217081 360.429 
L 634.217081 335.547871 
L 630.479282 335.547871 
z
" clip-path="url(#pb7593c0567)" style="fill: #a18a2b"/>
   </g>
   <g id="patch_179">
    <path d="M 698.827608 360.429 
L 702.565407 360.429 
L 702.565407 138.570493 
L 698.827608 138.570493 
z
" clip-path="url(#pb7593c0567)" style="fill: #a18a2b"/>
   </g>
   <g id="patch_180">
    <path d="M 767.175933 360.429 
L 770.913732 360.429 
L 770.913732 122.543967 
L 767.175933 122.543967 
z
" clip-path="url(#pb7593c0567)" style="fill: #a18a2b"/>
   </g>
   <g id="patch_181">
    <path d="M 835.524258 360.429 
L 839.262057 360.429 
L 839.262057 103.403804 
L 835.524258 103.403804 
z
" clip-path="url(#pb7593c0567)" style="fill: #a18a2b"/>
   </g>
   <g id="patch_182">
    <path d="M 903.872584 360.429 
L 907.610383 360.429 
L 907.610383 229.890533 
L 903.872584 229.890533 
z
" clip-path="url(#pb7593c0567)" style="fill: #a18a2b"/>
   </g>
   <g id="patch_183">
    <path d="M 155.778804 360.429 
L 159.516603 360.429 
L 159.516603 291.299606 
L 155.778804 291.299606 
z
" clip-path="url(#pb7593c0567)" style="fill: #677b3e"/>
   </g>
   <g id="patch_184">
    <path d="M 224.127129 360.429 
L 227.864928 360.429 
L 227.864928 277.933186 
L 224.127129 277.933186 
z
" clip-path="url(#pb7593c0567)" style="fill: #677b3e"/>
   </g>
   <g id="patch_185">
    <path d="M 292.475455 360.429 
L 296.213254 360.429 
L 296.213254 277.933186 
L 292.475455 277.933186 
z
" clip-path="url(#pb7593c0567)" style="fill: #677b3e"/>
   </g>
   <g id="patch_186">
    <path d="M 360.82378 360.429 
L 364.561579 360.429 
L 364.561579 273.126863 
L 360.82378 273.126863 
z
" clip-path="url(#pb7593c0567)" style="fill: #677b3e"/>
   </g>
   <g id="patch_187">
    <path d="M 429.172105 360.429 
L 432.909904 360.429 
L 432.909904 276.169346 
L 429.172105 276.169346 
z
" clip-path="url(#pb7593c0567)" style="fill: #677b3e"/>
   </g>
   <g id="patch_188">
    <path d="M 497.520431 360.429 
L 501.25823 360.429 
L 501.25823 291.791776 
L 497.520431 291.791776 
z
" clip-path="url(#pb7593c0567)" style="fill: #677b3e"/>
   </g>
   <g id="patch_189">
    <path d="M 565.868756 360.429 
L 569.606555 360.429 
L 569.606555 285.281651 
L 565.868756 285.281651 
z
" clip-path="url(#pb7593c0567)" style="fill: #677b3e"/>
   </g>
   <g id="patch_190">
    <path d="M 634.217081 360.429 
L 637.95488 360.429 
L 637.95488 356.662003 
L 634.217081 356.662003 
z
" clip-path="url(#pb7593c0567)" style="fill: #677b3e"/>
   </g>
   <g id="patch_191">
    <path d="M 702.565407 360.429 
L 706.303206 360.429 
L 706.303206 290.359889 
L 702.565407 290.359889 
z
" clip-path="url(#pb7593c0567)" style="fill: #677b3e"/>
   </g>
   <g id="patch_192">
    <path d="M 770.913732 360.429 
L 774.651531 360.429 
L 774.651531 257.376701 
L 770.913732 257.376701 
z
" clip-path="url(#pb7593c0567)" style="fill: #677b3e"/>
   </g>
   <g id="patch_193">
    <path d="M 839.262057 360.429 
L 842.999856 360.429 
L 842.999856 256.286785 
L 839.262057 256.286785 
z
" clip-path="url(#pb7593c0567)" style="fill: #677b3e"/>
   </g>
   <g id="patch_194">
    <path d="M 907.610383 360.429 
L 911.348182 360.429 
L 911.348182 279.509882 
L 907.610383 279.509882 
z
" clip-path="url(#pb7593c0567)" style="fill: #677b3e"/>
   </g>
   <g id="matplotlib.axis_1">
    <g id="xtick_1">
     <g id="line2d_1">
      <defs>
       <path id="m95eb0cb440" d="M 0 0 
L 0 3.5 
" style="stroke: #000000; stroke-width: 0.8"/>
      </defs>
      <g>
       <use xlink:href="#m95eb0cb440" x="129.614211" y="360.429" style="stroke: #000000; stroke-width: 0.8"/>
      </g>
     </g>
     <g id="text_1">
      <!-- DH -->
      <g transform="translate(117.437961 379.5865) scale(0.16 -0.16)">
       <defs>
        <path id="DejaVuSans-44" d="M 1259 4147 
L 1259 519 
L 2022 519 
Q 2988 519 3436 956 
Q 3884 1394 3884 2338 
Q 3884 3275 3436 3711 
Q 2988 4147 2022 4147 
L 1259 4147 
z
M 628 4666 
L 1925 4666 
Q 3281 4666 3915 4102 
Q 4550 3538 4550 2338 
Q 4550 1131 3912 565 
Q 3275 0 1925 0 
L 628 0 
L 628 4666 
z
" transform="scale(0.015625)"/>
        <path id="DejaVuSans-48" d="M 628 4666 
L 1259 4666 
L 1259 2753 
L 3553 2753 
L 3553 4666 
L 4184 4666 
L 4184 0 
L 3553 0 
L 3553 2222 
L 1259 2222 
L 1259 0 
L 628 0 
L 628 4666 
z
" transform="scale(0.015625)"/>
       </defs>
       <use xlink:href="#DejaVuSans-44"/>
       <use xlink:href="#DejaVuSans-48" x="77.001953"/>
      </g>
     </g>
    </g>
    <g id="xtick_2">
     <g id="line2d_2">
      <g>
       <use xlink:href="#m95eb0cb440" x="197.962536" y="360.429" style="stroke: #000000; stroke-width: 0.8"/>
      </g>
     </g>
     <g id="text_2">
      <!-- WH -->
      <g transform="translate(184.036286 379.5865) scale(0.16 -0.16)">
       <defs>
        <path id="DejaVuSans-57" d="M 213 4666 
L 850 4666 
L 1831 722 
L 2809 4666 
L 3519 4666 
L 4500 722 
L 5478 4666 
L 6119 4666 
L 4947 0 
L 4153 0 
L 3169 4050 
L 2175 0 
L 1381 0 
L 213 4666 
z
" transform="scale(0.015625)"/>
       </defs>
       <use xlink:href="#DejaVuSans-57"/>
       <use xlink:href="#DejaVuSans-48" x="98.876953"/>
      </g>
     </g>
    </g>
    <g id="xtick_3">
     <g id="line2d_3">
      <g>
       <use xlink:href="#m95eb0cb440" x="266.310861" y="360.429" style="stroke: #000000; stroke-width: 0.8"/>
      </g>
     </g>
     <g id="text_3">
      <!-- ET -->
      <g transform="translate(256.369611 379.5865) scale(0.16 -0.16)">
       <defs>
        <path id="DejaVuSans-45" d="M 628 4666 
L 3578 4666 
L 3578 4134 
L 1259 4134 
L 1259 2753 
L 3481 2753 
L 3481 2222 
L 1259 2222 
L 1259 531 
L 3634 531 
L 3634 0 
L 628 0 
L 628 4666 
z
" transform="scale(0.015625)"/>
        <path id="DejaVuSans-54" d="M -19 4666 
L 3928 4666 
L 3928 4134 
L 2272 4134 
L 2272 0 
L 1638 0 
L 1638 4134 
L -19 4134 
L -19 4666 
z
" transform="scale(0.015625)"/>
       </defs>
       <use xlink:href="#DejaVuSans-45"/>
       <use xlink:href="#DejaVuSans-54" x="63.183594"/>
      </g>
     </g>
    </g>
    <g id="xtick_4">
     <g id="line2d_4">
      <g>
       <use xlink:href="#m95eb0cb440" x="334.659187" y="360.429" style="stroke: #000000; stroke-width: 0.8"/>
      </g>
     </g>
     <g id="text_4">
      <!-- FC1 -->
      <g transform="translate(319.381687 379.5865) scale(0.16 -0.16)">
       <defs>
        <path id="DejaVuSans-46" d="M 628 4666 
L 3309 4666 
L 3309 4134 
L 1259 4134 
L 1259 2759 
L 3109 2759 
L 3109 2228 
L 1259 2228 
L 1259 0 
L 628 0 
L 628 4666 
z
" transform="scale(0.015625)"/>
        <path id="DejaVuSans-43" d="M 4122 4306 
L 4122 3641 
Q 3803 3938 3442 4084 
Q 3081 4231 2675 4231 
Q 1875 4231 1450 3742 
Q 1025 3253 1025 2328 
Q 1025 1406 1450 917 
Q 1875 428 2675 428 
Q 3081 428 3442 575 
Q 3803 722 4122 1019 
L 4122 359 
Q 3791 134 3420 21 
Q 3050 -91 2638 -91 
Q 1578 -91 968 557 
Q 359 1206 359 2328 
Q 359 3453 968 4101 
Q 1578 4750 2638 4750 
Q 3056 4750 3426 4639 
Q 3797 4528 4122 4306 
z
" transform="scale(0.015625)"/>
        <path id="DejaVuSans-31" d="M 794 531 
L 1825 531 
L 1825 4091 
L 703 3866 
L 703 4441 
L 1819 4666 
L 2450 4666 
L 2450 531 
L 3481 531 
L 3481 0 
L 794 0 
L 794 531 
z
" transform="scale(0.015625)"/>
       </defs>
       <use xlink:href="#DejaVuSans-46"/>
       <use xlink:href="#DejaVuSans-43" x="57.519531"/>
       <use xlink:href="#DejaVuSans-31" x="127.34375"/>
      </g>
     </g>
    </g>
    <g id="xtick_5">
     <g id="line2d_5">
      <g>
       <use xlink:href="#m95eb0cb440" x="403.007512" y="360.429" style="stroke: #000000; stroke-width: 0.8"/>
      </g>
     </g>
     <g id="text_5">
      <!-- FC2 -->
      <g transform="translate(387.730012 379.5865) scale(0.16 -0.16)">
       <defs>
        <path id="DejaVuSans-32" d="M 1228 531 
L 3431 531 
L 3431 0 
L 469 0 
L 469 531 
Q 828 903 1448 1529 
Q 2069 2156 2228 2338 
Q 2531 2678 2651 2914 
Q 2772 3150 2772 3378 
Q 2772 3750 2511 3984 
Q 2250 4219 1831 4219 
Q 1534 4219 1204 4116 
Q 875 4013 500 3803 
L 500 4441 
Q 881 4594 1212 4672 
Q 1544 4750 1819 4750 
Q 2544 4750 2975 4387 
Q 3406 4025 3406 3419 
Q 3406 3131 3298 2873 
Q 3191 2616 2906 2266 
Q 2828 2175 2409 1742 
Q 1991 1309 1228 531 
z
" transform="scale(0.015625)"/>
       </defs>
       <use xlink:href="#DejaVuSans-46"/>
       <use xlink:href="#DejaVuSans-43" x="57.519531"/>
       <use xlink:href="#DejaVuSans-32" x="127.34375"/>
      </g>
     </g>
    </g>
    <g id="xtick_6">
     <g id="line2d_6">
      <g>
       <use xlink:href="#m95eb0cb440" x="471.355837" y="360.429" style="stroke: #000000; stroke-width: 0.8"/>
      </g>
     </g>
     <g id="text_6">
      <!-- FC3 -->
      <g transform="translate(456.078337 379.5865) scale(0.16 -0.16)">
       <defs>
        <path id="DejaVuSans-33" d="M 2597 2516 
Q 3050 2419 3304 2112 
Q 3559 1806 3559 1356 
Q 3559 666 3084 287 
Q 2609 -91 1734 -91 
Q 1441 -91 1130 -33 
Q 819 25 488 141 
L 488 750 
Q 750 597 1062 519 
Q 1375 441 1716 441 
Q 2309 441 2620 675 
Q 2931 909 2931 1356 
Q 2931 1769 2642 2001 
Q 2353 2234 1838 2234 
L 1294 2234 
L 1294 2753 
L 1863 2753 
Q 2328 2753 2575 2939 
Q 2822 3125 2822 3475 
Q 2822 3834 2567 4026 
Q 2313 4219 1838 4219 
Q 1578 4219 1281 4162 
Q 984 4106 628 3988 
L 628 4550 
Q 988 4650 1302 4700 
Q 1616 4750 1894 4750 
Q 2613 4750 3031 4423 
Q 3450 4097 3450 3541 
Q 3450 3153 3228 2886 
Q 3006 2619 2597 2516 
z
" transform="scale(0.015625)"/>
       </defs>
       <use xlink:href="#DejaVuSans-46"/>
       <use xlink:href="#DejaVuSans-43" x="57.519531"/>
       <use xlink:href="#DejaVuSans-33" x="127.34375"/>
      </g>
     </g>
    </g>
    <g id="xtick_7">
     <g id="line2d_7">
      <g>
       <use xlink:href="#m95eb0cb440" x="539.704163" y="360.429" style="stroke: #000000; stroke-width: 0.8"/>
      </g>
     </g>
     <g id="text_7">
      <!-- PT -->
      <g transform="translate(529.994163 379.5865) scale(0.16 -0.16)">
       <defs>
        <path id="DejaVuSans-50" d="M 1259 4147 
L 1259 2394 
L 2053 2394 
Q 2494 2394 2734 2622 
Q 2975 2850 2975 3272 
Q 2975 3691 2734 3919 
Q 2494 4147 2053 4147 
L 1259 4147 
z
M 628 4666 
L 2053 4666 
Q 2838 4666 3239 4311 
Q 3641 3956 3641 3272 
Q 3641 2581 3239 2228 
Q 2838 1875 2053 1875 
L 1259 1875 
L 1259 0 
L 628 0 
L 628 4666 
z
" transform="scale(0.015625)"/>
       </defs>
       <use xlink:href="#DejaVuSans-50"/>
       <use xlink:href="#DejaVuSans-54" x="60.302734"/>
      </g>
     </g>
    </g>
    <g id="xtick_8">
     <g id="line2d_8">
      <g>
       <use xlink:href="#m95eb0cb440" x="608.052488" y="360.429" style="stroke: #000000; stroke-width: 0.8"/>
      </g>
     </g>
     <g id="text_8">
      <!-- CS -->
      <g transform="translate(597.387488 379.5865) scale(0.16 -0.16)">
       <defs>
        <path id="DejaVuSans-53" d="M 3425 4513 
L 3425 3897 
Q 3066 4069 2747 4153 
Q 2428 4238 2131 4238 
Q 1616 4238 1336 4038 
Q 1056 3838 1056 3469 
Q 1056 3159 1242 3001 
Q 1428 2844 1947 2747 
L 2328 2669 
Q 3034 2534 3370 2195 
Q 3706 1856 3706 1288 
Q 3706 609 3251 259 
Q 2797 -91 1919 -91 
Q 1588 -91 1214 -16 
Q 841 59 441 206 
L 441 856 
Q 825 641 1194 531 
Q 1563 422 1919 422 
Q 2459 422 2753 634 
Q 3047 847 3047 1241 
Q 3047 1584 2836 1778 
Q 2625 1972 2144 2069 
L 1759 2144 
Q 1053 2284 737 2584 
Q 422 2884 422 3419 
Q 422 4038 858 4394 
Q 1294 4750 2059 4750 
Q 2388 4750 2728 4690 
Q 3069 4631 3425 4513 
z
" transform="scale(0.015625)"/>
       </defs>
       <use xlink:href="#DejaVuSans-43"/>
       <use xlink:href="#DejaVuSans-53" x="69.824219"/>
      </g>
     </g>
    </g>
    <g id="xtick_9">
     <g id="line2d_9">
      <g>
       <use xlink:href="#m95eb0cb440" x="676.400813" y="360.429" style="stroke: #000000; stroke-width: 0.8"/>
      </g>
     </g>
     <g id="text_9">
      <!-- PC -->
      <g transform="translate(665.990813 379.5865) scale(0.16 -0.16)">
       <use xlink:href="#DejaVuSans-50"/>
       <use xlink:href="#DejaVuSans-43" x="60.302734"/>
      </g>
     </g>
    </g>
    <g id="xtick_10">
     <g id="line2d_10">
      <g>
       <use xlink:href="#m95eb0cb440" x="744.749139" y="360.429" style="stroke: #000000; stroke-width: 0.8"/>
      </g>
     </g>
     <g id="text_10">
      <!-- SS1 -->
      <g transform="translate(729.501639 379.5865) scale(0.16 -0.16)">
       <use xlink:href="#DejaVuSans-53"/>
       <use xlink:href="#DejaVuSans-53" x="63.476562"/>
       <use xlink:href="#DejaVuSans-31" x="126.953125"/>
      </g>
     </g>
    </g>
    <g id="xtick_11">
     <g id="line2d_11">
      <g>
       <use xlink:href="#m95eb0cb440" x="813.097464" y="360.429" style="stroke: #000000; stroke-width: 0.8"/>
      </g>
     </g>
     <g id="text_11">
      <!-- SS8 -->
      <g transform="translate(797.849964 379.5865) scale(0.16 -0.16)">
       <defs>
        <path id="DejaVuSans-38" d="M 2034 2216 
Q 1584 2216 1326 1975 
Q 1069 1734 1069 1313 
Q 1069 891 1326 650 
Q 1584 409 2034 409 
Q 2484 409 2743 651 
Q 3003 894 3003 1313 
Q 3003 1734 2745 1975 
Q 2488 2216 2034 2216 
z
M 1403 2484 
Q 997 2584 770 2862 
Q 544 3141 544 3541 
Q 544 4100 942 4425 
Q 1341 4750 2034 4750 
Q 2731 4750 3128 4425 
Q 3525 4100 3525 3541 
Q 3525 3141 3298 2862 
Q 3072 2584 2669 2484 
Q 3125 2378 3379 2068 
Q 3634 1759 3634 1313 
Q 3634 634 3220 271 
Q 2806 -91 2034 -91 
Q 1263 -91 848 271 
Q 434 634 434 1313 
Q 434 1759 690 2068 
Q 947 2378 1403 2484 
z
M 1172 3481 
Q 1172 3119 1398 2916 
Q 1625 2713 2034 2713 
Q 2441 2713 2670 2916 
Q 2900 3119 2900 3481 
Q 2900 3844 2670 4047 
Q 2441 4250 2034 4250 
Q 1625 4250 1398 4047 
Q 1172 3844 1172 3481 
z
" transform="scale(0.015625)"/>
       </defs>
       <use xlink:href="#DejaVuSans-53"/>
       <use xlink:href="#DejaVuSans-53" x="63.476562"/>
       <use xlink:href="#DejaVuSans-38" x="126.953125"/>
      </g>
     </g>
    </g>
    <g id="xtick_12">
     <g id="line2d_12">
      <g>
       <use xlink:href="#m95eb0cb440" x="881.445789" y="360.429" style="stroke: #000000; stroke-width: 0.8"/>
      </g>
     </g>
     <g id="text_12">
      <!-- SC -->
      <g transform="translate(870.780789 379.5865) scale(0.16 -0.16)">
       <use xlink:href="#DejaVuSans-53"/>
       <use xlink:href="#DejaVuSans-43" x="63.476562"/>
      </g>
     </g>
    </g>
   </g>
   <g id="matplotlib.axis_2">
    <g id="ytick_1">
     <g id="line2d_13">
      <defs>
       <path id="m4e37816ab3" d="M 0 0 
L -3.5 0 
" style="stroke: #000000; stroke-width: 0.8"/>
      </defs>
      <g>
       <use xlink:href="#m4e37816ab3" x="59.13" y="360.429" style="stroke: #000000; stroke-width: 0.8"/>
      </g>
     </g>
     <g id="text_13">
      <!-- 0.0 -->
      <g transform="translate(26.685 366.50775) scale(0.16 -0.16)">
       <defs>
        <path id="DejaVuSans-30" d="M 2034 4250 
Q 1547 4250 1301 3770 
Q 1056 3291 1056 2328 
Q 1056 1369 1301 889 
Q 1547 409 2034 409 
Q 2525 409 2770 889 
Q 3016 1369 3016 2328 
Q 3016 3291 2770 3770 
Q 2525 4250 2034 4250 
z
M 2034 4750 
Q 2819 4750 3233 4129 
Q 3647 3509 3647 2328 
Q 3647 1150 3233 529 
Q 2819 -91 2034 -91 
Q 1250 -91 836 529 
Q 422 1150 422 2328 
Q 422 3509 836 4129 
Q 1250 4750 2034 4750 
z
" transform="scale(0.015625)"/>
        <path id="DejaVuSans-2e" d="M 684 794 
L 1344 794 
L 1344 0 
L 684 0 
L 684 794 
z
" transform="scale(0.015625)"/>
       </defs>
       <use xlink:href="#DejaVuSans-30"/>
       <use xlink:href="#DejaVuSans-2e" x="63.623047"/>
       <use xlink:href="#DejaVuSans-30" x="95.410156"/>
      </g>
     </g>
    </g>
    <g id="ytick_2">
     <g id="line2d_14">
      <g>
       <use xlink:href="#m4e37816ab3" x="59.13" y="297.069" style="stroke: #000000; stroke-width: 0.8"/>
      </g>
     </g>
     <g id="text_14">
      <!-- 0.2 -->
      <g transform="translate(26.685 303.14775) scale(0.16 -0.16)">
       <use xlink:href="#DejaVuSans-30"/>
       <use xlink:href="#DejaVuSans-2e" x="63.623047"/>
       <use xlink:href="#DejaVuSans-32" x="95.410156"/>
      </g>
     </g>
    </g>
    <g id="ytick_3">
     <g id="line2d_15">
      <g>
       <use xlink:href="#m4e37816ab3" x="59.13" y="233.709" style="stroke: #000000; stroke-width: 0.8"/>
      </g>
     </g>
     <g id="text_15">
      <!-- 0.4 -->
      <g transform="translate(26.685 239.78775) scale(0.16 -0.16)">
       <defs>
        <path id="DejaVuSans-34" d="M 2419 4116 
L 825 1625 
L 2419 1625 
L 2419 4116 
z
M 2253 4666 
L 3047 4666 
L 3047 1625 
L 3713 1625 
L 3713 1100 
L 3047 1100 
L 3047 0 
L 2419 0 
L 2419 1100 
L 313 1100 
L 313 1709 
L 2253 4666 
z
" transform="scale(0.015625)"/>
       </defs>
       <use xlink:href="#DejaVuSans-30"/>
       <use xlink:href="#DejaVuSans-2e" x="63.623047"/>
       <use xlink:href="#DejaVuSans-34" x="95.410156"/>
      </g>
     </g>
    </g>
    <g id="ytick_4">
     <g id="line2d_16">
      <g>
       <use xlink:href="#m4e37816ab3" x="59.13" y="170.349" style="stroke: #000000; stroke-width: 0.8"/>
      </g>
     </g>
     <g id="text_16">
      <!-- 0.6 -->
      <g transform="translate(26.685 176.42775) scale(0.16 -0.16)">
       <defs>
        <path id="DejaVuSans-36" d="M 2113 2584 
Q 1688 2584 1439 2293 
Q 1191 2003 1191 1497 
Q 1191 994 1439 701 
Q 1688 409 2113 409 
Q 2538 409 2786 701 
Q 3034 994 3034 1497 
Q 3034 2003 2786 2293 
Q 2538 2584 2113 2584 
z
M 3366 4563 
L 3366 3988 
Q 3128 4100 2886 4159 
Q 2644 4219 2406 4219 
Q 1781 4219 1451 3797 
Q 1122 3375 1075 2522 
Q 1259 2794 1537 2939 
Q 1816 3084 2150 3084 
Q 2853 3084 3261 2657 
Q 3669 2231 3669 1497 
Q 3669 778 3244 343 
Q 2819 -91 2113 -91 
Q 1303 -91 875 529 
Q 447 1150 447 2328 
Q 447 3434 972 4092 
Q 1497 4750 2381 4750 
Q 2619 4750 2861 4703 
Q 3103 4656 3366 4563 
z
" transform="scale(0.015625)"/>
       </defs>
       <use xlink:href="#DejaVuSans-30"/>
       <use xlink:href="#DejaVuSans-2e" x="63.623047"/>
       <use xlink:href="#DejaVuSans-36" x="95.410156"/>
      </g>
     </g>
    </g>
    <g id="ytick_5">
     <g id="line2d_17">
      <g>
       <use xlink:href="#m4e37816ab3" x="59.13" y="106.989" style="stroke: #000000; stroke-width: 0.8"/>
      </g>
     </g>
     <g id="text_17">
      <!-- 0.8 -->
      <g transform="translate(26.685 113.06775) scale(0.16 -0.16)">
       <use xlink:href="#DejaVuSans-30"/>
       <use xlink:href="#DejaVuSans-2e" x="63.623047"/>
       <use xlink:href="#DejaVuSans-38" x="95.410156"/>
      </g>
     </g>
    </g>
    <g id="ytick_6">
     <g id="line2d_18">
      <g>
       <use xlink:href="#m4e37816ab3" x="59.13" y="43.629" style="stroke: #000000; stroke-width: 0.8"/>
      </g>
     </g>
     <g id="text_18">
      <!-- 1.0 -->
      <g transform="translate(26.685 49.70775) scale(0.16 -0.16)">
       <use xlink:href="#DejaVuSans-31"/>
       <use xlink:href="#DejaVuSans-2e" x="63.623047"/>
       <use xlink:href="#DejaVuSans-30" x="95.410156"/>
      </g>
     </g>
    </g>
    <g id="text_19">
     <!-- Index -->
     <g transform="translate(19.3575 216.13525) rotate(-90) scale(0.16 -0.16)">
      <defs>
       <path id="DejaVuSans-49" d="M 628 4666 
L 1259 4666 
L 1259 0 
L 628 0 
L 628 4666 
z
" transform="scale(0.015625)"/>
       <path id="DejaVuSans-6e" d="M 3513 2113 
L 3513 0 
L 2938 0 
L 2938 2094 
Q 2938 2591 2744 2837 
Q 2550 3084 2163 3084 
Q 1697 3084 1428 2787 
Q 1159 2491 1159 1978 
L 1159 0 
L 581 0 
L 581 3500 
L 1159 3500 
L 1159 2956 
Q 1366 3272 1645 3428 
Q 1925 3584 2291 3584 
Q 2894 3584 3203 3211 
Q 3513 2838 3513 2113 
z
" transform="scale(0.015625)"/>
       <path id="DejaVuSans-64" d="M 2906 2969 
L 2906 4863 
L 3481 4863 
L 3481 0 
L 2906 0 
L 2906 525 
Q 2725 213 2448 61 
Q 2172 -91 1784 -91 
Q 1150 -91 751 415 
Q 353 922 353 1747 
Q 353 2572 751 3078 
Q 1150 3584 1784 3584 
Q 2172 3584 2448 3432 
Q 2725 3281 2906 2969 
z
M 947 1747 
Q 947 1113 1208 752 
Q 1469 391 1925 391 
Q 2381 391 2643 752 
Q 2906 1113 2906 1747 
Q 2906 2381 2643 2742 
Q 2381 3103 1925 3103 
Q 1469 3103 1208 2742 
Q 947 2381 947 1747 
z
" transform="scale(0.015625)"/>
       <path id="DejaVuSans-65" d="M 3597 1894 
L 3597 1613 
L 953 1613 
Q 991 1019 1311 708 
Q 1631 397 2203 397 
Q 2534 397 2845 478 
Q 3156 559 3463 722 
L 3463 178 
Q 3153 47 2828 -22 
Q 2503 -91 2169 -91 
Q 1331 -91 842 396 
Q 353 884 353 1716 
Q 353 2575 817 3079 
Q 1281 3584 2069 3584 
Q 2775 3584 3186 3129 
Q 3597 2675 3597 1894 
z
M 3022 2063 
Q 3016 2534 2758 2815 
Q 2500 3097 2075 3097 
Q 1594 3097 1305 2825 
Q 1016 2553 972 2059 
L 3022 2063 
z
" transform="scale(0.015625)"/>
       <path id="DejaVuSans-78" d="M 3513 3500 
L 2247 1797 
L 3578 0 
L 2900 0 
L 1881 1375 
L 863 0 
L 184 0 
L 1544 1831 
L 300 3500 
L 978 3500 
L 1906 2253 
L 2834 3500 
L 3513 3500 
z
" transform="scale(0.015625)"/>
      </defs>
      <use xlink:href="#DejaVuSans-49"/>
      <use xlink:href="#DejaVuSans-6e" x="29.492188"/>
      <use xlink:href="#DejaVuSans-64" x="92.871094"/>
      <use xlink:href="#DejaVuSans-65" x="156.347656"/>
      <use xlink:href="#DejaVuSans-78" x="216.121094"/>
     </g>
    </g>
   </g>
   <g id="patch_195">
    <path d="M 59.13 360.429 
L 59.13 27.789 
" style="fill: none; stroke: #000000; stroke-width: 0.8; stroke-linejoin: miter; stroke-linecap: square"/>
   </g>
   <g id="patch_196">
    <path d="M 951.93 360.429 
L 951.93 27.789 
" style="fill: none; stroke: #000000; stroke-width: 0.8; stroke-linejoin: miter; stroke-linecap: square"/>
   </g>
   <g id="patch_197">
    <path d="M 59.13 360.429 
L 951.93 360.429 
" style="fill: none; stroke: #000000; stroke-width: 0.8; stroke-linejoin: miter; stroke-linecap: square"/>
   </g>
   <g id="patch_198">
    <path d="M 59.13 27.789 
L 951.93 27.789 
" style="fill: none; stroke: #000000; stroke-width: 0.8; stroke-linejoin: miter; stroke-linecap: square"/>
   </g>
   <g id="text_20">
    <!-- UnixBench Individual Tests Multi Core Normalised -->
    <g transform="translate(268.1325 21.789) scale(0.192 -0.192)">
     <defs>
      <path id="DejaVuSans-55" d="M 556 4666 
L 1191 4666 
L 1191 1831 
Q 1191 1081 1462 751 
Q 1734 422 2344 422 
Q 2950 422 3222 751 
Q 3494 1081 3494 1831 
L 3494 4666 
L 4128 4666 
L 4128 1753 
Q 4128 841 3676 375 
Q 3225 -91 2344 -91 
Q 1459 -91 1007 375 
Q 556 841 556 1753 
L 556 4666 
z
" transform="scale(0.015625)"/>
      <path id="DejaVuSans-69" d="M 603 3500 
L 1178 3500 
L 1178 0 
L 603 0 
L 603 3500 
z
M 603 4863 
L 1178 4863 
L 1178 4134 
L 603 4134 
L 603 4863 
z
" transform="scale(0.015625)"/>
      <path id="DejaVuSans-42" d="M 1259 2228 
L 1259 519 
L 2272 519 
Q 2781 519 3026 730 
Q 3272 941 3272 1375 
Q 3272 1813 3026 2020 
Q 2781 2228 2272 2228 
L 1259 2228 
z
M 1259 4147 
L 1259 2741 
L 2194 2741 
Q 2656 2741 2882 2914 
Q 3109 3088 3109 3444 
Q 3109 3797 2882 3972 
Q 2656 4147 2194 4147 
L 1259 4147 
z
M 628 4666 
L 2241 4666 
Q 2963 4666 3353 4366 
Q 3744 4066 3744 3513 
Q 3744 3084 3544 2831 
Q 3344 2578 2956 2516 
Q 3422 2416 3680 2098 
Q 3938 1781 3938 1306 
Q 3938 681 3513 340 
Q 3088 0 2303 0 
L 628 0 
L 628 4666 
z
" transform="scale(0.015625)"/>
      <path id="DejaVuSans-63" d="M 3122 3366 
L 3122 2828 
Q 2878 2963 2633 3030 
Q 2388 3097 2138 3097 
Q 1578 3097 1268 2742 
Q 959 2388 959 1747 
Q 959 1106 1268 751 
Q 1578 397 2138 397 
Q 2388 397 2633 464 
Q 2878 531 3122 666 
L 3122 134 
Q 2881 22 2623 -34 
Q 2366 -91 2075 -91 
Q 1284 -91 818 406 
Q 353 903 353 1747 
Q 353 2603 823 3093 
Q 1294 3584 2113 3584 
Q 2378 3584 2631 3529 
Q 2884 3475 3122 3366 
z
" transform="scale(0.015625)"/>
      <path id="DejaVuSans-68" d="M 3513 2113 
L 3513 0 
L 2938 0 
L 2938 2094 
Q 2938 2591 2744 2837 
Q 2550 3084 2163 3084 
Q 1697 3084 1428 2787 
Q 1159 2491 1159 1978 
L 1159 0 
L 581 0 
L 581 4863 
L 1159 4863 
L 1159 2956 
Q 1366 3272 1645 3428 
Q 1925 3584 2291 3584 
Q 2894 3584 3203 3211 
Q 3513 2838 3513 2113 
z
" transform="scale(0.015625)"/>
      <path id="DejaVuSans-20" transform="scale(0.015625)"/>
      <path id="DejaVuSans-76" d="M 191 3500 
L 800 3500 
L 1894 563 
L 2988 3500 
L 3597 3500 
L 2284 0 
L 1503 0 
L 191 3500 
z
" transform="scale(0.015625)"/>
      <path id="DejaVuSans-75" d="M 544 1381 
L 544 3500 
L 1119 3500 
L 1119 1403 
Q 1119 906 1312 657 
Q 1506 409 1894 409 
Q 2359 409 2629 706 
Q 2900 1003 2900 1516 
L 2900 3500 
L 3475 3500 
L 3475 0 
L 2900 0 
L 2900 538 
Q 2691 219 2414 64 
Q 2138 -91 1772 -91 
Q 1169 -91 856 284 
Q 544 659 544 1381 
z
M 1991 3584 
L 1991 3584 
z
" transform="scale(0.015625)"/>
      <path id="DejaVuSans-61" d="M 2194 1759 
Q 1497 1759 1228 1600 
Q 959 1441 959 1056 
Q 959 750 1161 570 
Q 1363 391 1709 391 
Q 2188 391 2477 730 
Q 2766 1069 2766 1631 
L 2766 1759 
L 2194 1759 
z
M 3341 1997 
L 3341 0 
L 2766 0 
L 2766 531 
Q 2569 213 2275 61 
Q 1981 -91 1556 -91 
Q 1019 -91 701 211 
Q 384 513 384 1019 
Q 384 1609 779 1909 
Q 1175 2209 1959 2209 
L 2766 2209 
L 2766 2266 
Q 2766 2663 2505 2880 
Q 2244 3097 1772 3097 
Q 1472 3097 1187 3025 
Q 903 2953 641 2809 
L 641 3341 
Q 956 3463 1253 3523 
Q 1550 3584 1831 3584 
Q 2591 3584 2966 3190 
Q 3341 2797 3341 1997 
z
" transform="scale(0.015625)"/>
      <path id="DejaVuSans-6c" d="M 603 4863 
L 1178 4863 
L 1178 0 
L 603 0 
L 603 4863 
z
" transform="scale(0.015625)"/>
      <path id="DejaVuSans-73" d="M 2834 3397 
L 2834 2853 
Q 2591 2978 2328 3040 
Q 2066 3103 1784 3103 
Q 1356 3103 1142 2972 
Q 928 2841 928 2578 
Q 928 2378 1081 2264 
Q 1234 2150 1697 2047 
L 1894 2003 
Q 2506 1872 2764 1633 
Q 3022 1394 3022 966 
Q 3022 478 2636 193 
Q 2250 -91 1575 -91 
Q 1294 -91 989 -36 
Q 684 19 347 128 
L 347 722 
Q 666 556 975 473 
Q 1284 391 1588 391 
Q 1994 391 2212 530 
Q 2431 669 2431 922 
Q 2431 1156 2273 1281 
Q 2116 1406 1581 1522 
L 1381 1569 
Q 847 1681 609 1914 
Q 372 2147 372 2553 
Q 372 3047 722 3315 
Q 1072 3584 1716 3584 
Q 2034 3584 2315 3537 
Q 2597 3491 2834 3397 
z
" transform="scale(0.015625)"/>
      <path id="DejaVuSans-74" d="M 1172 4494 
L 1172 3500 
L 2356 3500 
L 2356 3053 
L 1172 3053 
L 1172 1153 
Q 1172 725 1289 603 
Q 1406 481 1766 481 
L 2356 481 
L 2356 0 
L 1766 0 
Q 1100 0 847 248 
Q 594 497 594 1153 
L 594 3053 
L 172 3053 
L 172 3500 
L 594 3500 
L 594 4494 
L 1172 4494 
z
" transform="scale(0.015625)"/>
      <path id="DejaVuSans-4d" d="M 628 4666 
L 1569 4666 
L 2759 1491 
L 3956 4666 
L 4897 4666 
L 4897 0 
L 4281 0 
L 4281 4097 
L 3078 897 
L 2444 897 
L 1241 4097 
L 1241 0 
L 628 0 
L 628 4666 
z
" transform="scale(0.015625)"/>
      <path id="DejaVuSans-6f" d="M 1959 3097 
Q 1497 3097 1228 2736 
Q 959 2375 959 1747 
Q 959 1119 1226 758 
Q 1494 397 1959 397 
Q 2419 397 2687 759 
Q 2956 1122 2956 1747 
Q 2956 2369 2687 2733 
Q 2419 3097 1959 3097 
z
M 1959 3584 
Q 2709 3584 3137 3096 
Q 3566 2609 3566 1747 
Q 3566 888 3137 398 
Q 2709 -91 1959 -91 
Q 1206 -91 779 398 
Q 353 888 353 1747 
Q 353 2609 779 3096 
Q 1206 3584 1959 3584 
z
" transform="scale(0.015625)"/>
      <path id="DejaVuSans-72" d="M 2631 2963 
Q 2534 3019 2420 3045 
Q 2306 3072 2169 3072 
Q 1681 3072 1420 2755 
Q 1159 2438 1159 1844 
L 1159 0 
L 581 0 
L 581 3500 
L 1159 3500 
L 1159 2956 
Q 1341 3275 1631 3429 
Q 1922 3584 2338 3584 
Q 2397 3584 2469 3576 
Q 2541 3569 2628 3553 
L 2631 2963 
z
" transform="scale(0.015625)"/>
      <path id="DejaVuSans-4e" d="M 628 4666 
L 1478 4666 
L 3547 763 
L 3547 4666 
L 4159 4666 
L 4159 0 
L 3309 0 
L 1241 3903 
L 1241 0 
L 628 0 
L 628 4666 
z
" transform="scale(0.015625)"/>
      <path id="DejaVuSans-6d" d="M 3328 2828 
Q 3544 3216 3844 3400 
Q 4144 3584 4550 3584 
Q 5097 3584 5394 3201 
Q 5691 2819 5691 2113 
L 5691 0 
L 5113 0 
L 5113 2094 
Q 5113 2597 4934 2840 
Q 4756 3084 4391 3084 
Q 3944 3084 3684 2787 
Q 3425 2491 3425 1978 
L 3425 0 
L 2847 0 
L 2847 2094 
Q 2847 2600 2669 2842 
Q 2491 3084 2119 3084 
Q 1678 3084 1418 2786 
Q 1159 2488 1159 1978 
L 1159 0 
L 581 0 
L 581 3500 
L 1159 3500 
L 1159 2956 
Q 1356 3278 1631 3431 
Q 1906 3584 2284 3584 
Q 2666 3584 2933 3390 
Q 3200 3197 3328 2828 
z
" transform="scale(0.015625)"/>
     </defs>
     <use xlink:href="#DejaVuSans-55"/>
     <use xlink:href="#DejaVuSans-6e" x="73.193359"/>
     <use xlink:href="#DejaVuSans-69" x="136.572266"/>
     <use xlink:href="#DejaVuSans-78" x="164.355469"/>
     <use xlink:href="#DejaVuSans-42" x="223.535156"/>
     <use xlink:href="#DejaVuSans-65" x="292.138672"/>
     <use xlink:href="#DejaVuSans-6e" x="353.662109"/>
     <use xlink:href="#DejaVuSans-63" x="417.041016"/>
     <use xlink:href="#DejaVuSans-68" x="472.021484"/>
     <use xlink:href="#DejaVuSans-20" x="535.400391"/>
     <use xlink:href="#DejaVuSans-49" x="567.1875"/>
     <use xlink:href="#DejaVuSans-6e" x="596.679688"/>
     <use xlink:href="#DejaVuSans-64" x="660.058594"/>
     <use xlink:href="#DejaVuSans-69" x="723.535156"/>
     <use xlink:href="#DejaVuSans-76" x="751.318359"/>
     <use xlink:href="#DejaVuSans-69" x="810.498047"/>
     <use xlink:href="#DejaVuSans-64" x="838.28125"/>
     <use xlink:href="#DejaVuSans-75" x="901.757812"/>
     <use xlink:href="#DejaVuSans-61" x="965.136719"/>
     <use xlink:href="#DejaVuSans-6c" x="1026.416016"/>
     <use xlink:href="#DejaVuSans-20" x="1054.199219"/>
     <use xlink:href="#DejaVuSans-54" x="1085.986328"/>
     <use xlink:href="#DejaVuSans-65" x="1130.070312"/>
     <use xlink:href="#DejaVuSans-73" x="1191.59375"/>
     <use xlink:href="#DejaVuSans-74" x="1243.693359"/>
     <use xlink:href="#DejaVuSans-73" x="1282.902344"/>
     <use xlink:href="#DejaVuSans-20" x="1335.001953"/>
     <use xlink:href="#DejaVuSans-4d" x="1366.789062"/>
     <use xlink:href="#DejaVuSans-75" x="1453.068359"/>
     <use xlink:href="#DejaVuSans-6c" x="1516.447266"/>
     <use xlink:href="#DejaVuSans-74" x="1544.230469"/>
     <use xlink:href="#DejaVuSans-69" x="1583.439453"/>
     <use xlink:href="#DejaVuSans-20" x="1611.222656"/>
     <use xlink:href="#DejaVuSans-43" x="1643.009766"/>
     <use xlink:href="#DejaVuSans-6f" x="1712.833984"/>
     <use xlink:href="#DejaVuSans-72" x="1774.015625"/>
     <use xlink:href="#DejaVuSans-65" x="1812.878906"/>
     <use xlink:href="#DejaVuSans-20" x="1874.402344"/>
     <use xlink:href="#DejaVuSans-4e" x="1906.189453"/>
     <use xlink:href="#DejaVuSans-6f" x="1980.994141"/>
     <use xlink:href="#DejaVuSans-72" x="2042.175781"/>
     <use xlink:href="#DejaVuSans-6d" x="2081.539062"/>
     <use xlink:href="#DejaVuSans-61" x="2178.951172"/>
     <use xlink:href="#DejaVuSans-6c" x="2240.230469"/>
     <use xlink:href="#DejaVuSans-69" x="2268.013672"/>
     <use xlink:href="#DejaVuSans-73" x="2295.796875"/>
     <use xlink:href="#DejaVuSans-65" x="2347.896484"/>
     <use xlink:href="#DejaVuSans-64" x="2409.419922"/>
    </g>
   </g>
   <g id="legend_1">
    <g id="patch_199">
     <path d="M 61.25375 502.433 
L 953.80625 502.433 
Q 957.00625 502.433 957.00625 499.233 
L 957.00625 406.893 
Q 957.00625 403.693 953.80625 403.693 
L 61.25375 403.693 
Q 58.05375 403.693 58.05375 406.893 
L 58.05375 499.233 
Q 58.05375 502.433 61.25375 502.433 
z
" style="fill: #4d4d4d; opacity: 0.5; stroke: #4d4d4d; stroke-linejoin: miter"/>
    </g>
    <g id="patch_200">
     <path d="M 59.25375 500.433 
L 951.80625 500.433 
Q 955.00625 500.433 955.00625 497.233 
L 955.00625 404.893 
Q 955.00625 401.693 951.80625 401.693 
L 59.25375 401.693 
Q 56.05375 401.693 56.05375 404.893 
L 56.05375 497.233 
Q 56.05375 500.433 59.25375 500.433 
z
" style="fill: #ffffff; stroke: #cccccc; stroke-linejoin: miter"/>
    </g>
    <g id="patch_201">
     <path d="M 62.45375 420.2505 
L 94.45375 420.2505 
L 94.45375 409.0505 
L 62.45375 409.0505 
z
" style="fill: #011959"/>
    </g>
    <g id="text_21">
     <!-- a1.metal -->
     <g transform="translate(107.25375 420.2505) scale(0.16 -0.16)">
      <use xlink:href="#DejaVuSans-61"/>
      <use xlink:href="#DejaVuSans-31" x="61.279297"/>
      <use xlink:href="#DejaVuSans-2e" x="124.902344"/>
      <use xlink:href="#DejaVuSans-6d" x="156.689453"/>
      <use xlink:href="#DejaVuSans-65" x="254.101562"/>
      <use xlink:href="#DejaVuSans-74" x="315.625"/>
      <use xlink:href="#DejaVuSans-61" x="354.833984"/>
      <use xlink:href="#DejaVuSans-6c" x="416.113281"/>
     </g>
    </g>
    <g id="patch_202">
     <path d="M 62.45375 443.7355 
L 94.45375 443.7355 
L 94.45375 432.5355 
L 62.45375 432.5355 
z
" style="fill: #faccfa"/>
    </g>
    <g id="text_22">
     <!-- c3.8xlarge -->
     <g transform="translate(107.25375 443.7355) scale(0.16 -0.16)">
      <defs>
       <path id="DejaVuSans-67" d="M 2906 1791 
Q 2906 2416 2648 2759 
Q 2391 3103 1925 3103 
Q 1463 3103 1205 2759 
Q 947 2416 947 1791 
Q 947 1169 1205 825 
Q 1463 481 1925 481 
Q 2391 481 2648 825 
Q 2906 1169 2906 1791 
z
M 3481 434 
Q 3481 -459 3084 -895 
Q 2688 -1331 1869 -1331 
Q 1566 -1331 1297 -1286 
Q 1028 -1241 775 -1147 
L 775 -588 
Q 1028 -725 1275 -790 
Q 1522 -856 1778 -856 
Q 2344 -856 2625 -561 
Q 2906 -266 2906 331 
L 2906 616 
Q 2728 306 2450 153 
Q 2172 0 1784 0 
Q 1141 0 747 490 
Q 353 981 353 1791 
Q 353 2603 747 3093 
Q 1141 3584 1784 3584 
Q 2172 3584 2450 3431 
Q 2728 3278 2906 2969 
L 2906 3500 
L 3481 3500 
L 3481 434 
z
" transform="scale(0.015625)"/>
      </defs>
      <use xlink:href="#DejaVuSans-63"/>
      <use xlink:href="#DejaVuSans-33" x="54.980469"/>
      <use xlink:href="#DejaVuSans-2e" x="118.603516"/>
      <use xlink:href="#DejaVuSans-38" x="150.390625"/>
      <use xlink:href="#DejaVuSans-78" x="214.013672"/>
      <use xlink:href="#DejaVuSans-6c" x="273.193359"/>
      <use xlink:href="#DejaVuSans-61" x="300.976562"/>
      <use xlink:href="#DejaVuSans-72" x="362.255859"/>
      <use xlink:href="#DejaVuSans-67" x="401.619141"/>
      <use xlink:href="#DejaVuSans-65" x="465.095703"/>
     </g>
    </g>
    <g id="patch_203">
     <path d="M 62.45375 467.2205 
L 94.45375 467.2205 
L 94.45375 456.0205 
L 62.45375 456.0205 
z
" style="fill: #828231"/>
    </g>
    <g id="text_23">
     <!-- c4.8xlarge -->
     <g transform="translate(107.25375 467.2205) scale(0.16 -0.16)">
      <use xlink:href="#DejaVuSans-63"/>
      <use xlink:href="#DejaVuSans-34" x="54.980469"/>
      <use xlink:href="#DejaVuSans-2e" x="118.603516"/>
      <use xlink:href="#DejaVuSans-38" x="150.390625"/>
      <use xlink:href="#DejaVuSans-78" x="214.013672"/>
      <use xlink:href="#DejaVuSans-6c" x="273.193359"/>
      <use xlink:href="#DejaVuSans-61" x="300.976562"/>
      <use xlink:href="#DejaVuSans-72" x="362.255859"/>
      <use xlink:href="#DejaVuSans-67" x="401.619141"/>
      <use xlink:href="#DejaVuSans-65" x="465.095703"/>
     </g>
    </g>
    <g id="patch_204">
     <path d="M 62.45375 490.7055 
L 94.45375 490.7055 
L 94.45375 479.5055 
L 62.45375 479.5055 
z
" style="fill: #226061"/>
    </g>
    <g id="text_24">
     <!-- c5.metal -->
     <g transform="translate(107.25375 490.7055) scale(0.16 -0.16)">
      <defs>
       <path id="DejaVuSans-35" d="M 691 4666 
L 3169 4666 
L 3169 4134 
L 1269 4134 
L 1269 2991 
Q 1406 3038 1543 3061 
Q 1681 3084 1819 3084 
Q 2600 3084 3056 2656 
Q 3513 2228 3513 1497 
Q 3513 744 3044 326 
Q 2575 -91 1722 -91 
Q 1428 -91 1123 -41 
Q 819 9 494 109 
L 494 744 
Q 775 591 1075 516 
Q 1375 441 1709 441 
Q 2250 441 2565 725 
Q 2881 1009 2881 1497 
Q 2881 1984 2565 2268 
Q 2250 2553 1709 2553 
Q 1456 2553 1204 2497 
Q 953 2441 691 2322 
L 691 4666 
z
" transform="scale(0.015625)"/>
      </defs>
      <use xlink:href="#DejaVuSans-63"/>
      <use xlink:href="#DejaVuSans-35" x="54.980469"/>
      <use xlink:href="#DejaVuSans-2e" x="118.603516"/>
      <use xlink:href="#DejaVuSans-6d" x="150.390625"/>
      <use xlink:href="#DejaVuSans-65" x="247.802734"/>
      <use xlink:href="#DejaVuSans-74" x="309.326172"/>
      <use xlink:href="#DejaVuSans-61" x="348.535156"/>
      <use xlink:href="#DejaVuSans-6c" x="409.814453"/>
     </g>
    </g>
    <g id="patch_205">
     <path d="M 223.51625 420.2505 
L 255.51625 420.2505 
L 255.51625 409.0505 
L 223.51625 409.0505 
z
" style="fill: #f19d6b"/>
    </g>
    <g id="text_25">
     <!-- c5a.24xlarge -->
     <g transform="translate(268.31625 420.2505) scale(0.16 -0.16)">
      <use xlink:href="#DejaVuSans-63"/>
      <use xlink:href="#DejaVuSans-35" x="54.980469"/>
      <use xlink:href="#DejaVuSans-61" x="118.603516"/>
      <use xlink:href="#DejaVuSans-2e" x="179.882812"/>
      <use xlink:href="#DejaVuSans-32" x="211.669922"/>
      <use xlink:href="#DejaVuSans-34" x="275.292969"/>
      <use xlink:href="#DejaVuSans-78" x="338.916016"/>
      <use xlink:href="#DejaVuSans-6c" x="398.095703"/>
      <use xlink:href="#DejaVuSans-61" x="425.878906"/>
      <use xlink:href="#DejaVuSans-72" x="487.158203"/>
      <use xlink:href="#DejaVuSans-67" x="526.521484"/>
      <use xlink:href="#DejaVuSans-65" x="589.998047"/>
     </g>
    </g>
    <g id="patch_206">
     <path d="M 223.51625 443.7355 
L 255.51625 443.7355 
L 255.51625 432.5355 
L 223.51625 432.5355 
z
" style="fill: #4d734d"/>
    </g>
    <g id="text_26">
     <!-- c6a.metal -->
     <g transform="translate(268.31625 443.7355) scale(0.16 -0.16)">
      <use xlink:href="#DejaVuSans-63"/>
      <use xlink:href="#DejaVuSans-36" x="54.980469"/>
      <use xlink:href="#DejaVuSans-61" x="118.603516"/>
      <use xlink:href="#DejaVuSans-2e" x="179.882812"/>
      <use xlink:href="#DejaVuSans-6d" x="211.669922"/>
      <use xlink:href="#DejaVuSans-65" x="309.082031"/>
      <use xlink:href="#DejaVuSans-74" x="370.605469"/>
      <use xlink:href="#DejaVuSans-61" x="409.814453"/>
      <use xlink:href="#DejaVuSans-6c" x="471.09375"/>
     </g>
    </g>
    <g id="patch_207">
     <path d="M 223.51625 467.2205 
L 255.51625 467.2205 
L 255.51625 456.0205 
L 223.51625 456.0205 
z
" style="fill: #114360"/>
    </g>
    <g id="text_27">
     <!-- c6g.metal -->
     <g transform="translate(268.31625 467.2205) scale(0.16 -0.16)">
      <use xlink:href="#DejaVuSans-63"/>
      <use xlink:href="#DejaVuSans-36" x="54.980469"/>
      <use xlink:href="#DejaVuSans-67" x="118.603516"/>
      <use xlink:href="#DejaVuSans-2e" x="182.080078"/>
      <use xlink:href="#DejaVuSans-6d" x="213.867188"/>
      <use xlink:href="#DejaVuSans-65" x="311.279297"/>
      <use xlink:href="#DejaVuSans-74" x="372.802734"/>
      <use xlink:href="#DejaVuSans-61" x="412.011719"/>
      <use xlink:href="#DejaVuSans-6c" x="473.291016"/>
     </g>
    </g>
    <g id="patch_208">
     <path d="M 404.56375 420.2505 
L 436.56375 420.2505 
L 436.56375 409.0505 
L 404.56375 409.0505 
z
" style="fill: #fdb4b4"/>
    </g>
    <g id="text_28">
     <!-- c6i.metal -->
     <g transform="translate(449.36375 420.2505) scale(0.16 -0.16)">
      <use xlink:href="#DejaVuSans-63"/>
      <use xlink:href="#DejaVuSans-36" x="54.980469"/>
      <use xlink:href="#DejaVuSans-69" x="118.603516"/>
      <use xlink:href="#DejaVuSans-2e" x="146.386719"/>
      <use xlink:href="#DejaVuSans-6d" x="178.173828"/>
      <use xlink:href="#DejaVuSans-65" x="275.585938"/>
      <use xlink:href="#DejaVuSans-74" x="337.109375"/>
      <use xlink:href="#DejaVuSans-61" x="376.318359"/>
      <use xlink:href="#DejaVuSans-6c" x="437.597656"/>
     </g>
    </g>
    <g id="patch_209">
     <path d="M 404.56375 443.7355 
L 436.56375 443.7355 
L 436.56375 432.5355 
L 404.56375 432.5355 
z
" style="fill: #c09036"/>
    </g>
    <g id="text_29">
     <!-- c7a.metal-48xl -->
     <g transform="translate(449.36375 443.7355) scale(0.16 -0.16)">
      <defs>
       <path id="DejaVuSans-37" d="M 525 4666 
L 3525 4666 
L 3525 4397 
L 1831 0 
L 1172 0 
L 2766 4134 
L 525 4134 
L 525 4666 
z
" transform="scale(0.015625)"/>
       <path id="DejaVuSans-2d" d="M 313 2009 
L 1997 2009 
L 1997 1497 
L 313 1497 
L 313 2009 
z
" transform="scale(0.015625)"/>
      </defs>
      <use xlink:href="#DejaVuSans-63"/>
      <use xlink:href="#DejaVuSans-37" x="54.980469"/>
      <use xlink:href="#DejaVuSans-61" x="118.603516"/>
      <use xlink:href="#DejaVuSans-2e" x="179.882812"/>
      <use xlink:href="#DejaVuSans-6d" x="211.669922"/>
      <use xlink:href="#DejaVuSans-65" x="309.082031"/>
      <use xlink:href="#DejaVuSans-74" x="370.605469"/>
      <use xlink:href="#DejaVuSans-61" x="409.814453"/>
      <use xlink:href="#DejaVuSans-6c" x="471.09375"/>
      <use xlink:href="#DejaVuSans-2d" x="498.876953"/>
      <use xlink:href="#DejaVuSans-34" x="534.960938"/>
      <use xlink:href="#DejaVuSans-38" x="598.583984"/>
      <use xlink:href="#DejaVuSans-78" x="662.207031"/>
      <use xlink:href="#DejaVuSans-6c" x="721.386719"/>
     </g>
    </g>
    <g id="patch_210">
     <path d="M 404.56375 467.2205 
L 436.56375 467.2205 
L 436.56375 456.0205 
L 404.56375 456.0205 
z
" style="fill: #175262"/>
    </g>
    <g id="text_30">
     <!-- c7g.metal -->
     <g transform="translate(449.36375 467.2205) scale(0.16 -0.16)">
      <use xlink:href="#DejaVuSans-63"/>
      <use xlink:href="#DejaVuSans-37" x="54.980469"/>
      <use xlink:href="#DejaVuSans-67" x="118.603516"/>
      <use xlink:href="#DejaVuSans-2e" x="182.080078"/>
      <use xlink:href="#DejaVuSans-6d" x="213.867188"/>
      <use xlink:href="#DejaVuSans-65" x="311.279297"/>
      <use xlink:href="#DejaVuSans-74" x="372.802734"/>
      <use xlink:href="#DejaVuSans-61" x="412.011719"/>
      <use xlink:href="#DejaVuSans-6c" x="473.291016"/>
     </g>
    </g>
    <g id="patch_211">
     <path d="M 601.23125 420.2505 
L 633.23125 420.2505 
L 633.23125 409.0505 
L 601.23125 409.0505 
z
" style="fill: #fcbfd6"/>
    </g>
    <g id="text_31">
     <!-- c7gn.16xlarge -->
     <g transform="translate(646.03125 420.2505) scale(0.16 -0.16)">
      <use xlink:href="#DejaVuSans-63"/>
      <use xlink:href="#DejaVuSans-37" x="54.980469"/>
      <use xlink:href="#DejaVuSans-67" x="118.603516"/>
      <use xlink:href="#DejaVuSans-6e" x="182.080078"/>
      <use xlink:href="#DejaVuSans-2e" x="245.458984"/>
      <use xlink:href="#DejaVuSans-31" x="277.246094"/>
      <use xlink:href="#DejaVuSans-36" x="340.869141"/>
      <use xlink:href="#DejaVuSans-78" x="404.492188"/>
      <use xlink:href="#DejaVuSans-6c" x="463.671875"/>
      <use xlink:href="#DejaVuSans-61" x="491.455078"/>
      <use xlink:href="#DejaVuSans-72" x="552.734375"/>
      <use xlink:href="#DejaVuSans-67" x="592.097656"/>
      <use xlink:href="#DejaVuSans-65" x="655.574219"/>
     </g>
    </g>
    <g id="patch_212">
     <path d="M 601.23125 443.7355 
L 633.23125 443.7355 
L 633.23125 432.5355 
L 601.23125 432.5355 
z
" style="fill: #fca890"/>
    </g>
    <g id="text_32">
     <!-- c7i.metal-48xl -->
     <g transform="translate(646.03125 443.7355) scale(0.16 -0.16)">
      <use xlink:href="#DejaVuSans-63"/>
      <use xlink:href="#DejaVuSans-37" x="54.980469"/>
      <use xlink:href="#DejaVuSans-69" x="118.603516"/>
      <use xlink:href="#DejaVuSans-2e" x="146.386719"/>
      <use xlink:href="#DejaVuSans-6d" x="178.173828"/>
      <use xlink:href="#DejaVuSans-65" x="275.585938"/>
      <use xlink:href="#DejaVuSans-74" x="337.109375"/>
      <use xlink:href="#DejaVuSans-61" x="376.318359"/>
      <use xlink:href="#DejaVuSans-6c" x="437.597656"/>
      <use xlink:href="#DejaVuSans-2d" x="465.380859"/>
      <use xlink:href="#DejaVuSans-34" x="501.464844"/>
      <use xlink:href="#DejaVuSans-38" x="565.087891"/>
      <use xlink:href="#DejaVuSans-78" x="628.710938"/>
      <use xlink:href="#DejaVuSans-6c" x="687.890625"/>
     </g>
    </g>
    <g id="patch_213">
     <path d="M 601.23125 467.2205 
L 633.23125 467.2205 
L 633.23125 456.0205 
L 601.23125 456.0205 
z
" style="fill: #356a59"/>
    </g>
    <g id="text_33">
     <!-- d2.8xlarge -->
     <g transform="translate(646.03125 467.2205) scale(0.16 -0.16)">
      <use xlink:href="#DejaVuSans-64"/>
      <use xlink:href="#DejaVuSans-32" x="63.476562"/>
      <use xlink:href="#DejaVuSans-2e" x="127.099609"/>
      <use xlink:href="#DejaVuSans-38" x="158.886719"/>
      <use xlink:href="#DejaVuSans-78" x="222.509766"/>
      <use xlink:href="#DejaVuSans-6c" x="281.689453"/>
      <use xlink:href="#DejaVuSans-61" x="309.472656"/>
      <use xlink:href="#DejaVuSans-72" x="370.751953"/>
      <use xlink:href="#DejaVuSans-67" x="410.115234"/>
      <use xlink:href="#DejaVuSans-65" x="473.591797"/>
     </g>
    </g>
    <g id="patch_214">
     <path d="M 792.77125 420.2505 
L 824.77125 420.2505 
L 824.77125 409.0505 
L 792.77125 409.0505 
z
" style="fill: #0d315d"/>
    </g>
    <g id="text_34">
     <!-- i3.metal -->
     <g transform="translate(837.57125 420.2505) scale(0.16 -0.16)">
      <use xlink:href="#DejaVuSans-69"/>
      <use xlink:href="#DejaVuSans-33" x="27.783203"/>
      <use xlink:href="#DejaVuSans-2e" x="91.40625"/>
      <use xlink:href="#DejaVuSans-6d" x="123.193359"/>
      <use xlink:href="#DejaVuSans-65" x="220.605469"/>
      <use xlink:href="#DejaVuSans-74" x="282.128906"/>
      <use xlink:href="#DejaVuSans-61" x="321.337891"/>
      <use xlink:href="#DejaVuSans-6c" x="382.617188"/>
     </g>
    </g>
    <g id="patch_215">
     <path d="M 792.77125 443.7355 
L 824.77125 443.7355 
L 824.77125 432.5355 
L 792.77125 432.5355 
z
" style="fill: #a18a2b"/>
    </g>
    <g id="text_35">
     <!-- m5.metal -->
     <g transform="translate(837.57125 443.7355) scale(0.16 -0.16)">
      <use xlink:href="#DejaVuSans-6d"/>
      <use xlink:href="#DejaVuSans-35" x="97.412109"/>
      <use xlink:href="#DejaVuSans-2e" x="161.035156"/>
      <use xlink:href="#DejaVuSans-6d" x="192.822266"/>
      <use xlink:href="#DejaVuSans-65" x="290.234375"/>
      <use xlink:href="#DejaVuSans-74" x="351.757812"/>
      <use xlink:href="#DejaVuSans-61" x="390.966797"/>
      <use xlink:href="#DejaVuSans-6c" x="452.246094"/>
     </g>
    </g>
    <g id="patch_216">
     <path d="M 792.77125 467.2205 
L 824.77125 467.2205 
L 824.77125 456.0205 
L 792.77125 456.0205 
z
" style="fill: #677b3e"/>
    </g>
    <g id="text_36">
     <!-- m5a.24xlarge -->
     <g transform="translate(837.57125 467.2205) scale(0.16 -0.16)">
      <use xlink:href="#DejaVuSans-6d"/>
      <use xlink:href="#DejaVuSans-35" x="97.412109"/>
      <use xlink:href="#DejaVuSans-61" x="161.035156"/>
      <use xlink:href="#DejaVuSans-2e" x="222.314453"/>
      <use xlink:href="#DejaVuSans-32" x="254.101562"/>
      <use xlink:href="#DejaVuSans-34" x="317.724609"/>
      <use xlink:href="#DejaVuSans-78" x="381.347656"/>
      <use xlink:href="#DejaVuSans-6c" x="440.527344"/>
      <use xlink:href="#DejaVuSans-61" x="468.310547"/>
      <use xlink:href="#DejaVuSans-72" x="529.589844"/>
      <use xlink:href="#DejaVuSans-67" x="568.953125"/>
      <use xlink:href="#DejaVuSans-65" x="632.429688"/>
     </g>
    </g>
   </g>
  </g>
 </g>
 <defs>
  <clipPath id="pb7593c0567">
   <rect x="59.13" y="27.789" width="892.8" height="332.64"/>
  </clipPath>
 </defs>
</svg>
