<?xml version="1.0" encoding="utf-8" standalone="no"?>
<!DOCTYPE svg PUBLIC "-//W3C//DTD SVG 1.1//EN"
  "http://www.w3.org/Graphics/SVG/1.1/DTD/svg11.dtd">
<svg xmlns:xlink="http://www.w3.org/1999/xlink" width="532.977pt" height="484.148pt" viewBox="0 0 532.977 484.148" xmlns="http://www.w3.org/2000/svg" version="1.1">
 <metadata>
  <rdf:RDF xmlns:dc="http://purl.org/dc/elements/1.1/" xmlns:cc="http://creativecommons.org/ns#" xmlns:rdf="http://www.w3.org/1999/02/22-rdf-syntax-ns#">
   <cc:Work>
    <dc:type rdf:resource="http://purl.org/dc/dcmitype/StillImage"/>
    <dc:date>2024-04-14T13:55:04.137629</dc:date>
    <dc:format>image/svg+xml</dc:format>
    <dc:creator>
     <cc:Agent>
      <dc:title>Matplotlib v3.8.2, https://matplotlib.org/</dc:title>
     </cc:Agent>
    </dc:creator>
   </cc:Work>
  </rdf:RDF>
 </metadata>
 <defs>
  <style type="text/css">*{stroke-linejoin: round; stroke-linecap: butt}</style>
 </defs>
 <g id="figure_1">
  <g id="patch_1">
   <path d="M 0 484.148 
L 532.977 484.148 
L 532.977 0 
L 0 0 
z
" style="fill: #ffffff"/>
  </g>
  <g id="axes_1">
   <g id="patch_2">
    <path d="M 59.13 360.429 
L 505.53 360.429 
L 505.53 27.789 
L 59.13 27.789 
z
" style="fill: #ffffff"/>
   </g>
   <g id="patch_3">
    <path d="M 79.420909 360.429 
L 85.401388 360.429 
L 85.401388 166.624288 
L 79.420909 166.624288 
z
" clip-path="url(#p8b120fc877)" style="fill: #011959"/>
   </g>
   <g id="patch_4">
    <path d="M 113.595072 360.429 
L 119.57555 360.429 
L 119.57555 181.087449 
L 113.595072 181.087449 
z
" clip-path="url(#p8b120fc877)" style="fill: #011959"/>
   </g>
   <g id="patch_5">
    <path d="M 147.769234 360.429 
L 153.749713 360.429 
L 153.749713 181.087449 
L 147.769234 181.087449 
z
" clip-path="url(#p8b120fc877)" style="fill: #011959"/>
   </g>
   <g id="patch_6">
    <path d="M 181.943397 360.429 
L 187.923876 360.429 
L 187.923876 263.077396 
L 181.943397 263.077396 
z
" clip-path="url(#p8b120fc877)" style="fill: #011959"/>
   </g>
   <g id="patch_7">
    <path d="M 216.11756 360.429 
L 222.098038 360.429 
L 222.098038 271.632269 
L 216.11756 271.632269 
z
" clip-path="url(#p8b120fc877)" style="fill: #011959"/>
   </g>
   <g id="patch_8">
    <path d="M 250.291722 360.429 
L 256.272201 360.429 
L 256.272201 235.932237 
L 250.291722 235.932237 
z
" clip-path="url(#p8b120fc877)" style="fill: #011959"/>
   </g>
   <g id="patch_9">
    <path d="M 284.465885 360.429 
L 290.446364 360.429 
L 290.446364 290.569727 
L 284.465885 290.569727 
z
" clip-path="url(#p8b120fc877)" style="fill: #011959"/>
   </g>
   <g id="patch_10">
    <path d="M 318.640048 360.429 
L 324.620526 360.429 
L 324.620526 253.63385 
L 318.640048 253.63385 
z
" clip-path="url(#p8b120fc877)" style="fill: #011959"/>
   </g>
   <g id="patch_11">
    <path d="M 352.814211 360.429 
L 358.794689 360.429 
L 358.794689 121.000512 
L 352.814211 121.000512 
z
" clip-path="url(#p8b120fc877)" style="fill: #011959"/>
   </g>
   <g id="patch_12">
    <path d="M 386.988373 360.429 
L 392.968852 360.429 
L 392.968852 139.623875 
L 386.988373 139.623875 
z
" clip-path="url(#p8b120fc877)" style="fill: #011959"/>
   </g>
   <g id="patch_13">
    <path d="M 421.162536 360.429 
L 427.143014 360.429 
L 427.143014 129.16132 
L 421.162536 129.16132 
z
" clip-path="url(#p8b120fc877)" style="fill: #011959"/>
   </g>
   <g id="patch_14">
    <path d="M 455.336699 360.429 
L 461.317177 360.429 
L 461.317177 321.400926 
L 455.336699 321.400926 
z
" clip-path="url(#p8b120fc877)" style="fill: #011959"/>
   </g>
   <g id="patch_15">
    <path d="M 85.401388 360.429 
L 91.381866 360.429 
L 91.381866 139.521307 
L 85.401388 139.521307 
z
" clip-path="url(#p8b120fc877)" style="fill: #faccfa"/>
   </g>
   <g id="patch_16">
    <path d="M 119.57555 360.429 
L 125.556029 360.429 
L 125.556029 128.418662 
L 119.57555 128.418662 
z
" clip-path="url(#p8b120fc877)" style="fill: #faccfa"/>
   </g>
   <g id="patch_17">
    <path d="M 153.749713 360.429 
L 159.730191 360.429 
L 159.730191 128.418662 
L 153.749713 128.418662 
z
" clip-path="url(#p8b120fc877)" style="fill: #faccfa"/>
   </g>
   <g id="patch_18">
    <path d="M 187.923876 360.429 
L 193.904354 360.429 
L 193.904354 246.252038 
L 187.923876 246.252038 
z
" clip-path="url(#p8b120fc877)" style="fill: #faccfa"/>
   </g>
   <g id="patch_19">
    <path d="M 222.098038 360.429 
L 228.078517 360.429 
L 228.078517 257.712619 
L 222.098038 257.712619 
z
" clip-path="url(#p8b120fc877)" style="fill: #faccfa"/>
   </g>
   <g id="patch_20">
    <path d="M 256.272201 360.429 
L 262.252679 360.429 
L 262.252679 214.865277 
L 256.272201 214.865277 
z
" clip-path="url(#p8b120fc877)" style="fill: #faccfa"/>
   </g>
   <g id="patch_21">
    <path d="M 290.446364 360.429 
L 296.426842 360.429 
L 296.426842 278.196533 
L 290.446364 278.196533 
z
" clip-path="url(#p8b120fc877)" style="fill: #faccfa"/>
   </g>
   <g id="patch_22">
    <path d="M 324.620526 360.429 
L 330.601005 360.429 
L 330.601005 43.629 
L 324.620526 43.629 
z
" clip-path="url(#p8b120fc877)" style="fill: #faccfa"/>
   </g>
   <g id="patch_23">
    <path d="M 358.794689 360.429 
L 364.775167 360.429 
L 364.775167 97.218662 
L 358.794689 97.218662 
z
" clip-path="url(#p8b120fc877)" style="fill: #faccfa"/>
   </g>
   <g id="patch_24">
    <path d="M 392.968852 360.429 
L 398.94933 360.429 
L 398.94933 133.381056 
L 392.968852 133.381056 
z
" clip-path="url(#p8b120fc877)" style="fill: #faccfa"/>
   </g>
   <g id="patch_25">
    <path d="M 427.143014 360.429 
L 433.123493 360.429 
L 433.123493 118.194088 
L 427.143014 118.194088 
z
" clip-path="url(#p8b120fc877)" style="fill: #faccfa"/>
   </g>
   <g id="patch_26">
    <path d="M 461.317177 360.429 
L 467.297656 360.429 
L 467.297656 313.606858 
L 461.317177 313.606858 
z
" clip-path="url(#p8b120fc877)" style="fill: #faccfa"/>
   </g>
   <g id="patch_27">
    <path d="M 91.381866 360.429 
L 97.362344 360.429 
L 97.362344 90.889318 
L 91.381866 90.889318 
z
" clip-path="url(#p8b120fc877)" style="fill: #828231"/>
   </g>
   <g id="patch_28">
    <path d="M 125.556029 360.429 
L 131.536507 360.429 
L 131.536507 62.681087 
L 125.556029 62.681087 
z
" clip-path="url(#p8b120fc877)" style="fill: #828231"/>
   </g>
   <g id="patch_29">
    <path d="M 159.730191 360.429 
L 165.71067 360.429 
L 165.71067 62.681087 
L 159.730191 62.681087 
z
" clip-path="url(#p8b120fc877)" style="fill: #828231"/>
   </g>
   <g id="patch_30">
    <path d="M 193.904354 360.429 
L 199.884833 360.429 
L 199.884833 111.635482 
L 193.904354 111.635482 
z
" clip-path="url(#p8b120fc877)" style="fill: #828231"/>
   </g>
   <g id="patch_31">
    <path d="M 228.078517 360.429 
L 234.058995 360.429 
L 234.058995 122.129003 
L 228.078517 122.129003 
z
" clip-path="url(#p8b120fc877)" style="fill: #828231"/>
   </g>
   <g id="patch_32">
    <path d="M 262.252679 360.429 
L 268.233158 360.429 
L 268.233158 93.636881 
L 262.252679 93.636881 
z
" clip-path="url(#p8b120fc877)" style="fill: #828231"/>
   </g>
   <g id="patch_33">
    <path d="M 296.426842 360.429 
L 302.407321 360.429 
L 302.407321 122.868541 
L 296.426842 122.868541 
z
" clip-path="url(#p8b120fc877)" style="fill: #828231"/>
   </g>
   <g id="patch_34">
    <path d="M 330.601005 360.429 
L 336.581483 360.429 
L 336.581483 72.824796 
L 330.601005 72.824796 
z
" clip-path="url(#p8b120fc877)" style="fill: #828231"/>
   </g>
   <g id="patch_35">
    <path d="M 364.775167 360.429 
L 370.755646 360.429 
L 370.755646 129.418458 
L 364.775167 129.418458 
z
" clip-path="url(#p8b120fc877)" style="fill: #828231"/>
   </g>
   <g id="patch_36">
    <path d="M 398.94933 360.429 
L 404.929809 360.429 
L 404.929809 101.39814 
L 398.94933 101.39814 
z
" clip-path="url(#p8b120fc877)" style="fill: #828231"/>
   </g>
   <g id="patch_37">
    <path d="M 433.123493 360.429 
L 439.103971 360.429 
L 439.103971 82.213439 
L 433.123493 82.213439 
z
" clip-path="url(#p8b120fc877)" style="fill: #828231"/>
   </g>
   <g id="patch_38">
    <path d="M 467.297656 360.429 
L 473.278134 360.429 
L 473.278134 73.217592 
L 467.297656 73.217592 
z
" clip-path="url(#p8b120fc877)" style="fill: #828231"/>
   </g>
   <g id="patch_39">
    <path d="M 97.362344 360.429 
L 103.342823 360.429 
L 103.342823 84.735501 
L 97.362344 84.735501 
z
" clip-path="url(#p8b120fc877)" style="fill: #226061"/>
   </g>
   <g id="patch_40">
    <path d="M 131.536507 360.429 
L 137.516986 360.429 
L 137.516986 86.260014 
L 131.536507 86.260014 
z
" clip-path="url(#p8b120fc877)" style="fill: #226061"/>
   </g>
   <g id="patch_41">
    <path d="M 165.71067 360.429 
L 171.691148 360.429 
L 171.691148 86.260014 
L 165.71067 86.260014 
z
" clip-path="url(#p8b120fc877)" style="fill: #226061"/>
   </g>
   <g id="patch_42">
    <path d="M 199.884833 360.429 
L 205.865311 360.429 
L 205.865311 84.864133 
L 199.884833 84.864133 
z
" clip-path="url(#p8b120fc877)" style="fill: #226061"/>
   </g>
   <g id="patch_43">
    <path d="M 234.058995 360.429 
L 240.039474 360.429 
L 240.039474 96.39722 
L 234.058995 96.39722 
z
" clip-path="url(#p8b120fc877)" style="fill: #226061"/>
   </g>
   <g id="patch_44">
    <path d="M 268.233158 360.429 
L 274.213636 360.429 
L 274.213636 58.032226 
L 268.233158 58.032226 
z
" clip-path="url(#p8b120fc877)" style="fill: #226061"/>
   </g>
   <g id="patch_45">
    <path d="M 302.407321 360.429 
L 308.387799 360.429 
L 308.387799 88.887881 
L 302.407321 88.887881 
z
" clip-path="url(#p8b120fc877)" style="fill: #226061"/>
   </g>
   <g id="patch_46">
    <path d="M 336.581483 360.429 
L 342.561962 360.429 
L 342.561962 125.411377 
L 336.581483 125.411377 
z
" clip-path="url(#p8b120fc877)" style="fill: #226061"/>
   </g>
   <g id="patch_47">
    <path d="M 370.755646 360.429 
L 376.736124 360.429 
L 376.736124 43.629 
L 370.755646 43.629 
z
" clip-path="url(#p8b120fc877)" style="fill: #226061"/>
   </g>
   <g id="patch_48">
    <path d="M 404.929809 360.429 
L 410.910287 360.429 
L 410.910287 43.629 
L 404.929809 43.629 
z
" clip-path="url(#p8b120fc877)" style="fill: #226061"/>
   </g>
   <g id="patch_49">
    <path d="M 439.103971 360.429 
L 445.08445 360.429 
L 445.08445 43.629 
L 439.103971 43.629 
z
" clip-path="url(#p8b120fc877)" style="fill: #226061"/>
   </g>
   <g id="patch_50">
    <path d="M 473.278134 360.429 
L 479.258612 360.429 
L 479.258612 57.225319 
L 473.278134 57.225319 
z
" clip-path="url(#p8b120fc877)" style="fill: #226061"/>
   </g>
   <g id="patch_51">
    <path d="M 103.342823 360.429 
L 109.323301 360.429 
L 109.323301 43.629 
L 103.342823 43.629 
z
" clip-path="url(#p8b120fc877)" style="fill: #f19d6b"/>
   </g>
   <g id="patch_52">
    <path d="M 137.516986 360.429 
L 143.497464 360.429 
L 143.497464 43.629 
L 137.516986 43.629 
z
" clip-path="url(#p8b120fc877)" style="fill: #f19d6b"/>
   </g>
   <g id="patch_53">
    <path d="M 171.691148 360.429 
L 177.671627 360.429 
L 177.671627 43.629 
L 171.691148 43.629 
z
" clip-path="url(#p8b120fc877)" style="fill: #f19d6b"/>
   </g>
   <g id="patch_54">
    <path d="M 205.865311 360.429 
L 211.845789 360.429 
L 211.845789 43.629 
L 205.865311 43.629 
z
" clip-path="url(#p8b120fc877)" style="fill: #f19d6b"/>
   </g>
   <g id="patch_55">
    <path d="M 240.039474 360.429 
L 246.019952 360.429 
L 246.019952 43.629 
L 240.039474 43.629 
z
" clip-path="url(#p8b120fc877)" style="fill: #f19d6b"/>
   </g>
   <g id="patch_56">
    <path d="M 274.213636 360.429 
L 280.194115 360.429 
L 280.194115 43.629 
L 274.213636 43.629 
z
" clip-path="url(#p8b120fc877)" style="fill: #f19d6b"/>
   </g>
   <g id="patch_57">
    <path d="M 308.387799 360.429 
L 314.368278 360.429 
L 314.368278 43.629 
L 308.387799 43.629 
z
" clip-path="url(#p8b120fc877)" style="fill: #f19d6b"/>
   </g>
   <g id="patch_58">
    <path d="M 342.561962 360.429 
L 348.54244 360.429 
L 348.54244 103.130374 
L 342.561962 103.130374 
z
" clip-path="url(#p8b120fc877)" style="fill: #f19d6b"/>
   </g>
   <g id="patch_59">
    <path d="M 376.736124 360.429 
L 382.716603 360.429 
L 382.716603 146.852348 
L 376.736124 146.852348 
z
" clip-path="url(#p8b120fc877)" style="fill: #f19d6b"/>
   </g>
   <g id="patch_60">
    <path d="M 410.910287 360.429 
L 416.890766 360.429 
L 416.890766 52.455054 
L 410.910287 52.455054 
z
" clip-path="url(#p8b120fc877)" style="fill: #f19d6b"/>
   </g>
   <g id="patch_61">
    <path d="M 445.08445 360.429 
L 451.064928 360.429 
L 451.064928 78.942222 
L 445.08445 78.942222 
z
" clip-path="url(#p8b120fc877)" style="fill: #f19d6b"/>
   </g>
   <g id="patch_62">
    <path d="M 479.258612 360.429 
L 485.239091 360.429 
L 485.239091 43.629 
L 479.258612 43.629 
z
" clip-path="url(#p8b120fc877)" style="fill: #f19d6b"/>
   </g>
   <g id="matplotlib.axis_1">
    <g id="xtick_1">
     <g id="line2d_1">
      <defs>
       <path id="med42aa4ae4" d="M 0 0 
L 0 3.5 
" style="stroke: #000000; stroke-width: 0.8"/>
      </defs>
      <g>
       <use xlink:href="#med42aa4ae4" x="94.372105" y="360.429" style="stroke: #000000; stroke-width: 0.8"/>
      </g>
     </g>
     <g id="text_1">
      <!-- DH -->
      <g transform="translate(82.195855 379.5865) scale(0.16 -0.16)">
       <defs>
        <path id="DejaVuSans-44" d="M 1259 4147 
L 1259 519 
L 2022 519 
Q 2988 519 3436 956 
Q 3884 1394 3884 2338 
Q 3884 3275 3436 3711 
Q 2988 4147 2022 4147 
L 1259 4147 
z
M 628 4666 
L 1925 4666 
Q 3281 4666 3915 4102 
Q 4550 3538 4550 2338 
Q 4550 1131 3912 565 
Q 3275 0 1925 0 
L 628 0 
L 628 4666 
z
" transform="scale(0.015625)"/>
        <path id="DejaVuSans-48" d="M 628 4666 
L 1259 4666 
L 1259 2753 
L 3553 2753 
L 3553 4666 
L 4184 4666 
L 4184 0 
L 3553 0 
L 3553 2222 
L 1259 2222 
L 1259 0 
L 628 0 
L 628 4666 
z
" transform="scale(0.015625)"/>
       </defs>
       <use xlink:href="#DejaVuSans-44"/>
       <use xlink:href="#DejaVuSans-48" x="77.001953"/>
      </g>
     </g>
    </g>
    <g id="xtick_2">
     <g id="line2d_2">
      <g>
       <use xlink:href="#med42aa4ae4" x="128.546268" y="360.429" style="stroke: #000000; stroke-width: 0.8"/>
      </g>
     </g>
     <g id="text_2">
      <!-- WH -->
      <g transform="translate(114.620018 379.5865) scale(0.16 -0.16)">
       <defs>
        <path id="DejaVuSans-57" d="M 213 4666 
L 850 4666 
L 1831 722 
L 2809 4666 
L 3519 4666 
L 4500 722 
L 5478 4666 
L 6119 4666 
L 4947 0 
L 4153 0 
L 3169 4050 
L 2175 0 
L 1381 0 
L 213 4666 
z
" transform="scale(0.015625)"/>
       </defs>
       <use xlink:href="#DejaVuSans-57"/>
       <use xlink:href="#DejaVuSans-48" x="98.876953"/>
      </g>
     </g>
    </g>
    <g id="xtick_3">
     <g id="line2d_3">
      <g>
       <use xlink:href="#med42aa4ae4" x="162.720431" y="360.429" style="stroke: #000000; stroke-width: 0.8"/>
      </g>
     </g>
     <g id="text_3">
      <!-- ET -->
      <g transform="translate(152.779181 379.5865) scale(0.16 -0.16)">
       <defs>
        <path id="DejaVuSans-45" d="M 628 4666 
L 3578 4666 
L 3578 4134 
L 1259 4134 
L 1259 2753 
L 3481 2753 
L 3481 2222 
L 1259 2222 
L 1259 531 
L 3634 531 
L 3634 0 
L 628 0 
L 628 4666 
z
" transform="scale(0.015625)"/>
        <path id="DejaVuSans-54" d="M -19 4666 
L 3928 4666 
L 3928 4134 
L 2272 4134 
L 2272 0 
L 1638 0 
L 1638 4134 
L -19 4134 
L -19 4666 
z
" transform="scale(0.015625)"/>
       </defs>
       <use xlink:href="#DejaVuSans-45"/>
       <use xlink:href="#DejaVuSans-54" x="63.183594"/>
      </g>
     </g>
    </g>
    <g id="xtick_4">
     <g id="line2d_4">
      <g>
       <use xlink:href="#med42aa4ae4" x="196.894593" y="360.429" style="stroke: #000000; stroke-width: 0.8"/>
      </g>
     </g>
     <g id="text_4">
      <!-- FC1 -->
      <g transform="translate(181.617093 379.5865) scale(0.16 -0.16)">
       <defs>
        <path id="DejaVuSans-46" d="M 628 4666 
L 3309 4666 
L 3309 4134 
L 1259 4134 
L 1259 2759 
L 3109 2759 
L 3109 2228 
L 1259 2228 
L 1259 0 
L 628 0 
L 628 4666 
z
" transform="scale(0.015625)"/>
        <path id="DejaVuSans-43" d="M 4122 4306 
L 4122 3641 
Q 3803 3938 3442 4084 
Q 3081 4231 2675 4231 
Q 1875 4231 1450 3742 
Q 1025 3253 1025 2328 
Q 1025 1406 1450 917 
Q 1875 428 2675 428 
Q 3081 428 3442 575 
Q 3803 722 4122 1019 
L 4122 359 
Q 3791 134 3420 21 
Q 3050 -91 2638 -91 
Q 1578 -91 968 557 
Q 359 1206 359 2328 
Q 359 3453 968 4101 
Q 1578 4750 2638 4750 
Q 3056 4750 3426 4639 
Q 3797 4528 4122 4306 
z
" transform="scale(0.015625)"/>
        <path id="DejaVuSans-31" d="M 794 531 
L 1825 531 
L 1825 4091 
L 703 3866 
L 703 4441 
L 1819 4666 
L 2450 4666 
L 2450 531 
L 3481 531 
L 3481 0 
L 794 0 
L 794 531 
z
" transform="scale(0.015625)"/>
       </defs>
       <use xlink:href="#DejaVuSans-46"/>
       <use xlink:href="#DejaVuSans-43" x="57.519531"/>
       <use xlink:href="#DejaVuSans-31" x="127.34375"/>
      </g>
     </g>
    </g>
    <g id="xtick_5">
     <g id="line2d_5">
      <g>
       <use xlink:href="#med42aa4ae4" x="231.068756" y="360.429" style="stroke: #000000; stroke-width: 0.8"/>
      </g>
     </g>
     <g id="text_5">
      <!-- FC2 -->
      <g transform="translate(215.791256 379.5865) scale(0.16 -0.16)">
       <defs>
        <path id="DejaVuSans-32" d="M 1228 531 
L 3431 531 
L 3431 0 
L 469 0 
L 469 531 
Q 828 903 1448 1529 
Q 2069 2156 2228 2338 
Q 2531 2678 2651 2914 
Q 2772 3150 2772 3378 
Q 2772 3750 2511 3984 
Q 2250 4219 1831 4219 
Q 1534 4219 1204 4116 
Q 875 4013 500 3803 
L 500 4441 
Q 881 4594 1212 4672 
Q 1544 4750 1819 4750 
Q 2544 4750 2975 4387 
Q 3406 4025 3406 3419 
Q 3406 3131 3298 2873 
Q 3191 2616 2906 2266 
Q 2828 2175 2409 1742 
Q 1991 1309 1228 531 
z
" transform="scale(0.015625)"/>
       </defs>
       <use xlink:href="#DejaVuSans-46"/>
       <use xlink:href="#DejaVuSans-43" x="57.519531"/>
       <use xlink:href="#DejaVuSans-32" x="127.34375"/>
      </g>
     </g>
    </g>
    <g id="xtick_6">
     <g id="line2d_6">
      <g>
       <use xlink:href="#med42aa4ae4" x="265.242919" y="360.429" style="stroke: #000000; stroke-width: 0.8"/>
      </g>
     </g>
     <g id="text_6">
      <!-- FC3 -->
      <g transform="translate(249.965419 379.5865) scale(0.16 -0.16)">
       <defs>
        <path id="DejaVuSans-33" d="M 2597 2516 
Q 3050 2419 3304 2112 
Q 3559 1806 3559 1356 
Q 3559 666 3084 287 
Q 2609 -91 1734 -91 
Q 1441 -91 1130 -33 
Q 819 25 488 141 
L 488 750 
Q 750 597 1062 519 
Q 1375 441 1716 441 
Q 2309 441 2620 675 
Q 2931 909 2931 1356 
Q 2931 1769 2642 2001 
Q 2353 2234 1838 2234 
L 1294 2234 
L 1294 2753 
L 1863 2753 
Q 2328 2753 2575 2939 
Q 2822 3125 2822 3475 
Q 2822 3834 2567 4026 
Q 2313 4219 1838 4219 
Q 1578 4219 1281 4162 
Q 984 4106 628 3988 
L 628 4550 
Q 988 4650 1302 4700 
Q 1616 4750 1894 4750 
Q 2613 4750 3031 4423 
Q 3450 4097 3450 3541 
Q 3450 3153 3228 2886 
Q 3006 2619 2597 2516 
z
" transform="scale(0.015625)"/>
       </defs>
       <use xlink:href="#DejaVuSans-46"/>
       <use xlink:href="#DejaVuSans-43" x="57.519531"/>
       <use xlink:href="#DejaVuSans-33" x="127.34375"/>
      </g>
     </g>
    </g>
    <g id="xtick_7">
     <g id="line2d_7">
      <g>
       <use xlink:href="#med42aa4ae4" x="299.417081" y="360.429" style="stroke: #000000; stroke-width: 0.8"/>
      </g>
     </g>
     <g id="text_7">
      <!-- PT -->
      <g transform="translate(289.707081 379.5865) scale(0.16 -0.16)">
       <defs>
        <path id="DejaVuSans-50" d="M 1259 4147 
L 1259 2394 
L 2053 2394 
Q 2494 2394 2734 2622 
Q 2975 2850 2975 3272 
Q 2975 3691 2734 3919 
Q 2494 4147 2053 4147 
L 1259 4147 
z
M 628 4666 
L 2053 4666 
Q 2838 4666 3239 4311 
Q 3641 3956 3641 3272 
Q 3641 2581 3239 2228 
Q 2838 1875 2053 1875 
L 1259 1875 
L 1259 0 
L 628 0 
L 628 4666 
z
" transform="scale(0.015625)"/>
       </defs>
       <use xlink:href="#DejaVuSans-50"/>
       <use xlink:href="#DejaVuSans-54" x="60.302734"/>
      </g>
     </g>
    </g>
    <g id="xtick_8">
     <g id="line2d_8">
      <g>
       <use xlink:href="#med42aa4ae4" x="333.591244" y="360.429" style="stroke: #000000; stroke-width: 0.8"/>
      </g>
     </g>
     <g id="text_8">
      <!-- CS -->
      <g transform="translate(322.926244 379.5865) scale(0.16 -0.16)">
       <defs>
        <path id="DejaVuSans-53" d="M 3425 4513 
L 3425 3897 
Q 3066 4069 2747 4153 
Q 2428 4238 2131 4238 
Q 1616 4238 1336 4038 
Q 1056 3838 1056 3469 
Q 1056 3159 1242 3001 
Q 1428 2844 1947 2747 
L 2328 2669 
Q 3034 2534 3370 2195 
Q 3706 1856 3706 1288 
Q 3706 609 3251 259 
Q 2797 -91 1919 -91 
Q 1588 -91 1214 -16 
Q 841 59 441 206 
L 441 856 
Q 825 641 1194 531 
Q 1563 422 1919 422 
Q 2459 422 2753 634 
Q 3047 847 3047 1241 
Q 3047 1584 2836 1778 
Q 2625 1972 2144 2069 
L 1759 2144 
Q 1053 2284 737 2584 
Q 422 2884 422 3419 
Q 422 4038 858 4394 
Q 1294 4750 2059 4750 
Q 2388 4750 2728 4690 
Q 3069 4631 3425 4513 
z
" transform="scale(0.015625)"/>
       </defs>
       <use xlink:href="#DejaVuSans-43"/>
       <use xlink:href="#DejaVuSans-53" x="69.824219"/>
      </g>
     </g>
    </g>
    <g id="xtick_9">
     <g id="line2d_9">
      <g>
       <use xlink:href="#med42aa4ae4" x="367.765407" y="360.429" style="stroke: #000000; stroke-width: 0.8"/>
      </g>
     </g>
     <g id="text_9">
      <!-- PC -->
      <g transform="translate(357.355407 379.5865) scale(0.16 -0.16)">
       <use xlink:href="#DejaVuSans-50"/>
       <use xlink:href="#DejaVuSans-43" x="60.302734"/>
      </g>
     </g>
    </g>
    <g id="xtick_10">
     <g id="line2d_10">
      <g>
       <use xlink:href="#med42aa4ae4" x="401.939569" y="360.429" style="stroke: #000000; stroke-width: 0.8"/>
      </g>
     </g>
     <g id="text_10">
      <!-- SS1 -->
      <g transform="translate(386.692069 379.5865) scale(0.16 -0.16)">
       <use xlink:href="#DejaVuSans-53"/>
       <use xlink:href="#DejaVuSans-53" x="63.476562"/>
       <use xlink:href="#DejaVuSans-31" x="126.953125"/>
      </g>
     </g>
    </g>
    <g id="xtick_11">
     <g id="line2d_11">
      <g>
       <use xlink:href="#med42aa4ae4" x="436.113732" y="360.429" style="stroke: #000000; stroke-width: 0.8"/>
      </g>
     </g>
     <g id="text_11">
      <!-- SS8 -->
      <g transform="translate(420.866232 379.5865) scale(0.16 -0.16)">
       <defs>
        <path id="DejaVuSans-38" d="M 2034 2216 
Q 1584 2216 1326 1975 
Q 1069 1734 1069 1313 
Q 1069 891 1326 650 
Q 1584 409 2034 409 
Q 2484 409 2743 651 
Q 3003 894 3003 1313 
Q 3003 1734 2745 1975 
Q 2488 2216 2034 2216 
z
M 1403 2484 
Q 997 2584 770 2862 
Q 544 3141 544 3541 
Q 544 4100 942 4425 
Q 1341 4750 2034 4750 
Q 2731 4750 3128 4425 
Q 3525 4100 3525 3541 
Q 3525 3141 3298 2862 
Q 3072 2584 2669 2484 
Q 3125 2378 3379 2068 
Q 3634 1759 3634 1313 
Q 3634 634 3220 271 
Q 2806 -91 2034 -91 
Q 1263 -91 848 271 
Q 434 634 434 1313 
Q 434 1759 690 2068 
Q 947 2378 1403 2484 
z
M 1172 3481 
Q 1172 3119 1398 2916 
Q 1625 2713 2034 2713 
Q 2441 2713 2670 2916 
Q 2900 3119 2900 3481 
Q 2900 3844 2670 4047 
Q 2441 4250 2034 4250 
Q 1625 4250 1398 4047 
Q 1172 3844 1172 3481 
z
" transform="scale(0.015625)"/>
       </defs>
       <use xlink:href="#DejaVuSans-53"/>
       <use xlink:href="#DejaVuSans-53" x="63.476562"/>
       <use xlink:href="#DejaVuSans-38" x="126.953125"/>
      </g>
     </g>
    </g>
    <g id="xtick_12">
     <g id="line2d_12">
      <g>
       <use xlink:href="#med42aa4ae4" x="470.287895" y="360.429" style="stroke: #000000; stroke-width: 0.8"/>
      </g>
     </g>
     <g id="text_12">
      <!-- SC -->
      <g transform="translate(459.622895 379.5865) scale(0.16 -0.16)">
       <use xlink:href="#DejaVuSans-53"/>
       <use xlink:href="#DejaVuSans-43" x="63.476562"/>
      </g>
     </g>
    </g>
   </g>
   <g id="matplotlib.axis_2">
    <g id="ytick_1">
     <g id="line2d_13">
      <defs>
       <path id="mbd9f0b2072" d="M 0 0 
L -3.5 0 
" style="stroke: #000000; stroke-width: 0.8"/>
      </defs>
      <g>
       <use xlink:href="#mbd9f0b2072" x="59.13" y="360.429" style="stroke: #000000; stroke-width: 0.8"/>
      </g>
     </g>
     <g id="text_13">
      <!-- 0.0 -->
      <g transform="translate(26.685 366.50775) scale(0.16 -0.16)">
       <defs>
        <path id="DejaVuSans-30" d="M 2034 4250 
Q 1547 4250 1301 3770 
Q 1056 3291 1056 2328 
Q 1056 1369 1301 889 
Q 1547 409 2034 409 
Q 2525 409 2770 889 
Q 3016 1369 3016 2328 
Q 3016 3291 2770 3770 
Q 2525 4250 2034 4250 
z
M 2034 4750 
Q 2819 4750 3233 4129 
Q 3647 3509 3647 2328 
Q 3647 1150 3233 529 
Q 2819 -91 2034 -91 
Q 1250 -91 836 529 
Q 422 1150 422 2328 
Q 422 3509 836 4129 
Q 1250 4750 2034 4750 
z
" transform="scale(0.015625)"/>
        <path id="DejaVuSans-2e" d="M 684 794 
L 1344 794 
L 1344 0 
L 684 0 
L 684 794 
z
" transform="scale(0.015625)"/>
       </defs>
       <use xlink:href="#DejaVuSans-30"/>
       <use xlink:href="#DejaVuSans-2e" x="63.623047"/>
       <use xlink:href="#DejaVuSans-30" x="95.410156"/>
      </g>
     </g>
    </g>
    <g id="ytick_2">
     <g id="line2d_14">
      <g>
       <use xlink:href="#mbd9f0b2072" x="59.13" y="297.069" style="stroke: #000000; stroke-width: 0.8"/>
      </g>
     </g>
     <g id="text_14">
      <!-- 0.2 -->
      <g transform="translate(26.685 303.14775) scale(0.16 -0.16)">
       <use xlink:href="#DejaVuSans-30"/>
       <use xlink:href="#DejaVuSans-2e" x="63.623047"/>
       <use xlink:href="#DejaVuSans-32" x="95.410156"/>
      </g>
     </g>
    </g>
    <g id="ytick_3">
     <g id="line2d_15">
      <g>
       <use xlink:href="#mbd9f0b2072" x="59.13" y="233.709" style="stroke: #000000; stroke-width: 0.8"/>
      </g>
     </g>
     <g id="text_15">
      <!-- 0.4 -->
      <g transform="translate(26.685 239.78775) scale(0.16 -0.16)">
       <defs>
        <path id="DejaVuSans-34" d="M 2419 4116 
L 825 1625 
L 2419 1625 
L 2419 4116 
z
M 2253 4666 
L 3047 4666 
L 3047 1625 
L 3713 1625 
L 3713 1100 
L 3047 1100 
L 3047 0 
L 2419 0 
L 2419 1100 
L 313 1100 
L 313 1709 
L 2253 4666 
z
" transform="scale(0.015625)"/>
       </defs>
       <use xlink:href="#DejaVuSans-30"/>
       <use xlink:href="#DejaVuSans-2e" x="63.623047"/>
       <use xlink:href="#DejaVuSans-34" x="95.410156"/>
      </g>
     </g>
    </g>
    <g id="ytick_4">
     <g id="line2d_16">
      <g>
       <use xlink:href="#mbd9f0b2072" x="59.13" y="170.349" style="stroke: #000000; stroke-width: 0.8"/>
      </g>
     </g>
     <g id="text_16">
      <!-- 0.6 -->
      <g transform="translate(26.685 176.42775) scale(0.16 -0.16)">
       <defs>
        <path id="DejaVuSans-36" d="M 2113 2584 
Q 1688 2584 1439 2293 
Q 1191 2003 1191 1497 
Q 1191 994 1439 701 
Q 1688 409 2113 409 
Q 2538 409 2786 701 
Q 3034 994 3034 1497 
Q 3034 2003 2786 2293 
Q 2538 2584 2113 2584 
z
M 3366 4563 
L 3366 3988 
Q 3128 4100 2886 4159 
Q 2644 4219 2406 4219 
Q 1781 4219 1451 3797 
Q 1122 3375 1075 2522 
Q 1259 2794 1537 2939 
Q 1816 3084 2150 3084 
Q 2853 3084 3261 2657 
Q 3669 2231 3669 1497 
Q 3669 778 3244 343 
Q 2819 -91 2113 -91 
Q 1303 -91 875 529 
Q 447 1150 447 2328 
Q 447 3434 972 4092 
Q 1497 4750 2381 4750 
Q 2619 4750 2861 4703 
Q 3103 4656 3366 4563 
z
" transform="scale(0.015625)"/>
       </defs>
       <use xlink:href="#DejaVuSans-30"/>
       <use xlink:href="#DejaVuSans-2e" x="63.623047"/>
       <use xlink:href="#DejaVuSans-36" x="95.410156"/>
      </g>
     </g>
    </g>
    <g id="ytick_5">
     <g id="line2d_17">
      <g>
       <use xlink:href="#mbd9f0b2072" x="59.13" y="106.989" style="stroke: #000000; stroke-width: 0.8"/>
      </g>
     </g>
     <g id="text_17">
      <!-- 0.8 -->
      <g transform="translate(26.685 113.06775) scale(0.16 -0.16)">
       <use xlink:href="#DejaVuSans-30"/>
       <use xlink:href="#DejaVuSans-2e" x="63.623047"/>
       <use xlink:href="#DejaVuSans-38" x="95.410156"/>
      </g>
     </g>
    </g>
    <g id="ytick_6">
     <g id="line2d_18">
      <g>
       <use xlink:href="#mbd9f0b2072" x="59.13" y="43.629" style="stroke: #000000; stroke-width: 0.8"/>
      </g>
     </g>
     <g id="text_18">
      <!-- 1.0 -->
      <g transform="translate(26.685 49.70775) scale(0.16 -0.16)">
       <use xlink:href="#DejaVuSans-31"/>
       <use xlink:href="#DejaVuSans-2e" x="63.623047"/>
       <use xlink:href="#DejaVuSans-30" x="95.410156"/>
      </g>
     </g>
    </g>
    <g id="text_19">
     <!-- Index -->
     <g transform="translate(19.3575 216.13525) rotate(-90) scale(0.16 -0.16)">
      <defs>
       <path id="DejaVuSans-49" d="M 628 4666 
L 1259 4666 
L 1259 0 
L 628 0 
L 628 4666 
z
" transform="scale(0.015625)"/>
       <path id="DejaVuSans-6e" d="M 3513 2113 
L 3513 0 
L 2938 0 
L 2938 2094 
Q 2938 2591 2744 2837 
Q 2550 3084 2163 3084 
Q 1697 3084 1428 2787 
Q 1159 2491 1159 1978 
L 1159 0 
L 581 0 
L 581 3500 
L 1159 3500 
L 1159 2956 
Q 1366 3272 1645 3428 
Q 1925 3584 2291 3584 
Q 2894 3584 3203 3211 
Q 3513 2838 3513 2113 
z
" transform="scale(0.015625)"/>
       <path id="DejaVuSans-64" d="M 2906 2969 
L 2906 4863 
L 3481 4863 
L 3481 0 
L 2906 0 
L 2906 525 
Q 2725 213 2448 61 
Q 2172 -91 1784 -91 
Q 1150 -91 751 415 
Q 353 922 353 1747 
Q 353 2572 751 3078 
Q 1150 3584 1784 3584 
Q 2172 3584 2448 3432 
Q 2725 3281 2906 2969 
z
M 947 1747 
Q 947 1113 1208 752 
Q 1469 391 1925 391 
Q 2381 391 2643 752 
Q 2906 1113 2906 1747 
Q 2906 2381 2643 2742 
Q 2381 3103 1925 3103 
Q 1469 3103 1208 2742 
Q 947 2381 947 1747 
z
" transform="scale(0.015625)"/>
       <path id="DejaVuSans-65" d="M 3597 1894 
L 3597 1613 
L 953 1613 
Q 991 1019 1311 708 
Q 1631 397 2203 397 
Q 2534 397 2845 478 
Q 3156 559 3463 722 
L 3463 178 
Q 3153 47 2828 -22 
Q 2503 -91 2169 -91 
Q 1331 -91 842 396 
Q 353 884 353 1716 
Q 353 2575 817 3079 
Q 1281 3584 2069 3584 
Q 2775 3584 3186 3129 
Q 3597 2675 3597 1894 
z
M 3022 2063 
Q 3016 2534 2758 2815 
Q 2500 3097 2075 3097 
Q 1594 3097 1305 2825 
Q 1016 2553 972 2059 
L 3022 2063 
z
" transform="scale(0.015625)"/>
       <path id="DejaVuSans-78" d="M 3513 3500 
L 2247 1797 
L 3578 0 
L 2900 0 
L 1881 1375 
L 863 0 
L 184 0 
L 1544 1831 
L 300 3500 
L 978 3500 
L 1906 2253 
L 2834 3500 
L 3513 3500 
z
" transform="scale(0.015625)"/>
      </defs>
      <use xlink:href="#DejaVuSans-49"/>
      <use xlink:href="#DejaVuSans-6e" x="29.492188"/>
      <use xlink:href="#DejaVuSans-64" x="92.871094"/>
      <use xlink:href="#DejaVuSans-65" x="156.347656"/>
      <use xlink:href="#DejaVuSans-78" x="216.121094"/>
     </g>
    </g>
   </g>
   <g id="patch_63">
    <path d="M 59.13 360.429 
L 59.13 27.789 
" style="fill: none; stroke: #000000; stroke-width: 0.8; stroke-linejoin: miter; stroke-linecap: square"/>
   </g>
   <g id="patch_64">
    <path d="M 505.53 360.429 
L 505.53 27.789 
" style="fill: none; stroke: #000000; stroke-width: 0.8; stroke-linejoin: miter; stroke-linecap: square"/>
   </g>
   <g id="patch_65">
    <path d="M 59.13 360.429 
L 505.53 360.429 
" style="fill: none; stroke: #000000; stroke-width: 0.8; stroke-linejoin: miter; stroke-linecap: square"/>
   </g>
   <g id="patch_66">
    <path d="M 59.13 27.789 
L 505.53 27.789 
" style="fill: none; stroke: #000000; stroke-width: 0.8; stroke-linejoin: miter; stroke-linecap: square"/>
   </g>
   <g id="text_20">
    <!-- UnixBench Individual Tests Single Core Normalised -->
    <g transform="translate(38.883 21.789) scale(0.192 -0.192)">
     <defs>
      <path id="DejaVuSans-55" d="M 556 4666 
L 1191 4666 
L 1191 1831 
Q 1191 1081 1462 751 
Q 1734 422 2344 422 
Q 2950 422 3222 751 
Q 3494 1081 3494 1831 
L 3494 4666 
L 4128 4666 
L 4128 1753 
Q 4128 841 3676 375 
Q 3225 -91 2344 -91 
Q 1459 -91 1007 375 
Q 556 841 556 1753 
L 556 4666 
z
" transform="scale(0.015625)"/>
      <path id="DejaVuSans-69" d="M 603 3500 
L 1178 3500 
L 1178 0 
L 603 0 
L 603 3500 
z
M 603 4863 
L 1178 4863 
L 1178 4134 
L 603 4134 
L 603 4863 
z
" transform="scale(0.015625)"/>
      <path id="DejaVuSans-42" d="M 1259 2228 
L 1259 519 
L 2272 519 
Q 2781 519 3026 730 
Q 3272 941 3272 1375 
Q 3272 1813 3026 2020 
Q 2781 2228 2272 2228 
L 1259 2228 
z
M 1259 4147 
L 1259 2741 
L 2194 2741 
Q 2656 2741 2882 2914 
Q 3109 3088 3109 3444 
Q 3109 3797 2882 3972 
Q 2656 4147 2194 4147 
L 1259 4147 
z
M 628 4666 
L 2241 4666 
Q 2963 4666 3353 4366 
Q 3744 4066 3744 3513 
Q 3744 3084 3544 2831 
Q 3344 2578 2956 2516 
Q 3422 2416 3680 2098 
Q 3938 1781 3938 1306 
Q 3938 681 3513 340 
Q 3088 0 2303 0 
L 628 0 
L 628 4666 
z
" transform="scale(0.015625)"/>
      <path id="DejaVuSans-63" d="M 3122 3366 
L 3122 2828 
Q 2878 2963 2633 3030 
Q 2388 3097 2138 3097 
Q 1578 3097 1268 2742 
Q 959 2388 959 1747 
Q 959 1106 1268 751 
Q 1578 397 2138 397 
Q 2388 397 2633 464 
Q 2878 531 3122 666 
L 3122 134 
Q 2881 22 2623 -34 
Q 2366 -91 2075 -91 
Q 1284 -91 818 406 
Q 353 903 353 1747 
Q 353 2603 823 3093 
Q 1294 3584 2113 3584 
Q 2378 3584 2631 3529 
Q 2884 3475 3122 3366 
z
" transform="scale(0.015625)"/>
      <path id="DejaVuSans-68" d="M 3513 2113 
L 3513 0 
L 2938 0 
L 2938 2094 
Q 2938 2591 2744 2837 
Q 2550 3084 2163 3084 
Q 1697 3084 1428 2787 
Q 1159 2491 1159 1978 
L 1159 0 
L 581 0 
L 581 4863 
L 1159 4863 
L 1159 2956 
Q 1366 3272 1645 3428 
Q 1925 3584 2291 3584 
Q 2894 3584 3203 3211 
Q 3513 2838 3513 2113 
z
" transform="scale(0.015625)"/>
      <path id="DejaVuSans-20" transform="scale(0.015625)"/>
      <path id="DejaVuSans-76" d="M 191 3500 
L 800 3500 
L 1894 563 
L 2988 3500 
L 3597 3500 
L 2284 0 
L 1503 0 
L 191 3500 
z
" transform="scale(0.015625)"/>
      <path id="DejaVuSans-75" d="M 544 1381 
L 544 3500 
L 1119 3500 
L 1119 1403 
Q 1119 906 1312 657 
Q 1506 409 1894 409 
Q 2359 409 2629 706 
Q 2900 1003 2900 1516 
L 2900 3500 
L 3475 3500 
L 3475 0 
L 2900 0 
L 2900 538 
Q 2691 219 2414 64 
Q 2138 -91 1772 -91 
Q 1169 -91 856 284 
Q 544 659 544 1381 
z
M 1991 3584 
L 1991 3584 
z
" transform="scale(0.015625)"/>
      <path id="DejaVuSans-61" d="M 2194 1759 
Q 1497 1759 1228 1600 
Q 959 1441 959 1056 
Q 959 750 1161 570 
Q 1363 391 1709 391 
Q 2188 391 2477 730 
Q 2766 1069 2766 1631 
L 2766 1759 
L 2194 1759 
z
M 3341 1997 
L 3341 0 
L 2766 0 
L 2766 531 
Q 2569 213 2275 61 
Q 1981 -91 1556 -91 
Q 1019 -91 701 211 
Q 384 513 384 1019 
Q 384 1609 779 1909 
Q 1175 2209 1959 2209 
L 2766 2209 
L 2766 2266 
Q 2766 2663 2505 2880 
Q 2244 3097 1772 3097 
Q 1472 3097 1187 3025 
Q 903 2953 641 2809 
L 641 3341 
Q 956 3463 1253 3523 
Q 1550 3584 1831 3584 
Q 2591 3584 2966 3190 
Q 3341 2797 3341 1997 
z
" transform="scale(0.015625)"/>
      <path id="DejaVuSans-6c" d="M 603 4863 
L 1178 4863 
L 1178 0 
L 603 0 
L 603 4863 
z
" transform="scale(0.015625)"/>
      <path id="DejaVuSans-73" d="M 2834 3397 
L 2834 2853 
Q 2591 2978 2328 3040 
Q 2066 3103 1784 3103 
Q 1356 3103 1142 2972 
Q 928 2841 928 2578 
Q 928 2378 1081 2264 
Q 1234 2150 1697 2047 
L 1894 2003 
Q 2506 1872 2764 1633 
Q 3022 1394 3022 966 
Q 3022 478 2636 193 
Q 2250 -91 1575 -91 
Q 1294 -91 989 -36 
Q 684 19 347 128 
L 347 722 
Q 666 556 975 473 
Q 1284 391 1588 391 
Q 1994 391 2212 530 
Q 2431 669 2431 922 
Q 2431 1156 2273 1281 
Q 2116 1406 1581 1522 
L 1381 1569 
Q 847 1681 609 1914 
Q 372 2147 372 2553 
Q 372 3047 722 3315 
Q 1072 3584 1716 3584 
Q 2034 3584 2315 3537 
Q 2597 3491 2834 3397 
z
" transform="scale(0.015625)"/>
      <path id="DejaVuSans-74" d="M 1172 4494 
L 1172 3500 
L 2356 3500 
L 2356 3053 
L 1172 3053 
L 1172 1153 
Q 1172 725 1289 603 
Q 1406 481 1766 481 
L 2356 481 
L 2356 0 
L 1766 0 
Q 1100 0 847 248 
Q 594 497 594 1153 
L 594 3053 
L 172 3053 
L 172 3500 
L 594 3500 
L 594 4494 
L 1172 4494 
z
" transform="scale(0.015625)"/>
      <path id="DejaVuSans-67" d="M 2906 1791 
Q 2906 2416 2648 2759 
Q 2391 3103 1925 3103 
Q 1463 3103 1205 2759 
Q 947 2416 947 1791 
Q 947 1169 1205 825 
Q 1463 481 1925 481 
Q 2391 481 2648 825 
Q 2906 1169 2906 1791 
z
M 3481 434 
Q 3481 -459 3084 -895 
Q 2688 -1331 1869 -1331 
Q 1566 -1331 1297 -1286 
Q 1028 -1241 775 -1147 
L 775 -588 
Q 1028 -725 1275 -790 
Q 1522 -856 1778 -856 
Q 2344 -856 2625 -561 
Q 2906 -266 2906 331 
L 2906 616 
Q 2728 306 2450 153 
Q 2172 0 1784 0 
Q 1141 0 747 490 
Q 353 981 353 1791 
Q 353 2603 747 3093 
Q 1141 3584 1784 3584 
Q 2172 3584 2450 3431 
Q 2728 3278 2906 2969 
L 2906 3500 
L 3481 3500 
L 3481 434 
z
" transform="scale(0.015625)"/>
      <path id="DejaVuSans-6f" d="M 1959 3097 
Q 1497 3097 1228 2736 
Q 959 2375 959 1747 
Q 959 1119 1226 758 
Q 1494 397 1959 397 
Q 2419 397 2687 759 
Q 2956 1122 2956 1747 
Q 2956 2369 2687 2733 
Q 2419 3097 1959 3097 
z
M 1959 3584 
Q 2709 3584 3137 3096 
Q 3566 2609 3566 1747 
Q 3566 888 3137 398 
Q 2709 -91 1959 -91 
Q 1206 -91 779 398 
Q 353 888 353 1747 
Q 353 2609 779 3096 
Q 1206 3584 1959 3584 
z
" transform="scale(0.015625)"/>
      <path id="DejaVuSans-72" d="M 2631 2963 
Q 2534 3019 2420 3045 
Q 2306 3072 2169 3072 
Q 1681 3072 1420 2755 
Q 1159 2438 1159 1844 
L 1159 0 
L 581 0 
L 581 3500 
L 1159 3500 
L 1159 2956 
Q 1341 3275 1631 3429 
Q 1922 3584 2338 3584 
Q 2397 3584 2469 3576 
Q 2541 3569 2628 3553 
L 2631 2963 
z
" transform="scale(0.015625)"/>
      <path id="DejaVuSans-4e" d="M 628 4666 
L 1478 4666 
L 3547 763 
L 3547 4666 
L 4159 4666 
L 4159 0 
L 3309 0 
L 1241 3903 
L 1241 0 
L 628 0 
L 628 4666 
z
" transform="scale(0.015625)"/>
      <path id="DejaVuSans-6d" d="M 3328 2828 
Q 3544 3216 3844 3400 
Q 4144 3584 4550 3584 
Q 5097 3584 5394 3201 
Q 5691 2819 5691 2113 
L 5691 0 
L 5113 0 
L 5113 2094 
Q 5113 2597 4934 2840 
Q 4756 3084 4391 3084 
Q 3944 3084 3684 2787 
Q 3425 2491 3425 1978 
L 3425 0 
L 2847 0 
L 2847 2094 
Q 2847 2600 2669 2842 
Q 2491 3084 2119 3084 
Q 1678 3084 1418 2786 
Q 1159 2488 1159 1978 
L 1159 0 
L 581 0 
L 581 3500 
L 1159 3500 
L 1159 2956 
Q 1356 3278 1631 3431 
Q 1906 3584 2284 3584 
Q 2666 3584 2933 3390 
Q 3200 3197 3328 2828 
z
" transform="scale(0.015625)"/>
     </defs>
     <use xlink:href="#DejaVuSans-55"/>
     <use xlink:href="#DejaVuSans-6e" x="73.193359"/>
     <use xlink:href="#DejaVuSans-69" x="136.572266"/>
     <use xlink:href="#DejaVuSans-78" x="164.355469"/>
     <use xlink:href="#DejaVuSans-42" x="223.535156"/>
     <use xlink:href="#DejaVuSans-65" x="292.138672"/>
     <use xlink:href="#DejaVuSans-6e" x="353.662109"/>
     <use xlink:href="#DejaVuSans-63" x="417.041016"/>
     <use xlink:href="#DejaVuSans-68" x="472.021484"/>
     <use xlink:href="#DejaVuSans-20" x="535.400391"/>
     <use xlink:href="#DejaVuSans-49" x="567.1875"/>
     <use xlink:href="#DejaVuSans-6e" x="596.679688"/>
     <use xlink:href="#DejaVuSans-64" x="660.058594"/>
     <use xlink:href="#DejaVuSans-69" x="723.535156"/>
     <use xlink:href="#DejaVuSans-76" x="751.318359"/>
     <use xlink:href="#DejaVuSans-69" x="810.498047"/>
     <use xlink:href="#DejaVuSans-64" x="838.28125"/>
     <use xlink:href="#DejaVuSans-75" x="901.757812"/>
     <use xlink:href="#DejaVuSans-61" x="965.136719"/>
     <use xlink:href="#DejaVuSans-6c" x="1026.416016"/>
     <use xlink:href="#DejaVuSans-20" x="1054.199219"/>
     <use xlink:href="#DejaVuSans-54" x="1085.986328"/>
     <use xlink:href="#DejaVuSans-65" x="1130.070312"/>
     <use xlink:href="#DejaVuSans-73" x="1191.59375"/>
     <use xlink:href="#DejaVuSans-74" x="1243.693359"/>
     <use xlink:href="#DejaVuSans-73" x="1282.902344"/>
     <use xlink:href="#DejaVuSans-20" x="1335.001953"/>
     <use xlink:href="#DejaVuSans-53" x="1366.789062"/>
     <use xlink:href="#DejaVuSans-69" x="1430.265625"/>
     <use xlink:href="#DejaVuSans-6e" x="1458.048828"/>
     <use xlink:href="#DejaVuSans-67" x="1521.427734"/>
     <use xlink:href="#DejaVuSans-6c" x="1584.904297"/>
     <use xlink:href="#DejaVuSans-65" x="1612.6875"/>
     <use xlink:href="#DejaVuSans-20" x="1674.210938"/>
     <use xlink:href="#DejaVuSans-43" x="1705.998047"/>
     <use xlink:href="#DejaVuSans-6f" x="1775.822266"/>
     <use xlink:href="#DejaVuSans-72" x="1837.003906"/>
     <use xlink:href="#DejaVuSans-65" x="1875.867188"/>
     <use xlink:href="#DejaVuSans-20" x="1937.390625"/>
     <use xlink:href="#DejaVuSans-4e" x="1969.177734"/>
     <use xlink:href="#DejaVuSans-6f" x="2043.982422"/>
     <use xlink:href="#DejaVuSans-72" x="2105.164062"/>
     <use xlink:href="#DejaVuSans-6d" x="2144.527344"/>
     <use xlink:href="#DejaVuSans-61" x="2241.939453"/>
     <use xlink:href="#DejaVuSans-6c" x="2303.21875"/>
     <use xlink:href="#DejaVuSans-69" x="2331.001953"/>
     <use xlink:href="#DejaVuSans-73" x="2358.785156"/>
     <use xlink:href="#DejaVuSans-65" x="2410.884766"/>
     <use xlink:href="#DejaVuSans-64" x="2472.408203"/>
    </g>
   </g>
   <g id="legend_1">
    <g id="patch_67">
     <path d="M 120.945 478.948 
L 447.715 478.948 
Q 450.915 478.948 450.915 475.748 
L 450.915 406.893 
Q 450.915 403.693 447.715 403.693 
L 120.945 403.693 
Q 117.745 403.693 117.745 406.893 
L 117.745 475.748 
Q 117.745 478.948 120.945 478.948 
z
" style="fill: #4d4d4d; opacity: 0.5; stroke: #4d4d4d; stroke-linejoin: miter"/>
    </g>
    <g id="patch_68">
     <path d="M 118.945 476.948 
L 445.715 476.948 
Q 448.915 476.948 448.915 473.748 
L 448.915 404.893 
Q 448.915 401.693 445.715 401.693 
L 118.945 401.693 
Q 115.745 401.693 115.745 404.893 
L 115.745 473.748 
Q 115.745 476.948 118.945 476.948 
z
" style="fill: #ffffff; stroke: #cccccc; stroke-linejoin: miter"/>
    </g>
    <g id="patch_69">
     <path d="M 122.145 420.2505 
L 154.145 420.2505 
L 154.145 409.0505 
L 122.145 409.0505 
z
" style="fill: #011959"/>
    </g>
    <g id="text_21">
     <!-- c3.8xlarge -->
     <g transform="translate(166.945 420.2505) scale(0.16 -0.16)">
      <use xlink:href="#DejaVuSans-63"/>
      <use xlink:href="#DejaVuSans-33" x="54.980469"/>
      <use xlink:href="#DejaVuSans-2e" x="118.603516"/>
      <use xlink:href="#DejaVuSans-38" x="150.390625"/>
      <use xlink:href="#DejaVuSans-78" x="214.013672"/>
      <use xlink:href="#DejaVuSans-6c" x="273.193359"/>
      <use xlink:href="#DejaVuSans-61" x="300.976562"/>
      <use xlink:href="#DejaVuSans-72" x="362.255859"/>
      <use xlink:href="#DejaVuSans-67" x="401.619141"/>
      <use xlink:href="#DejaVuSans-65" x="465.095703"/>
     </g>
    </g>
    <g id="patch_70">
     <path d="M 122.145 443.7355 
L 154.145 443.7355 
L 154.145 432.5355 
L 122.145 432.5355 
z
" style="fill: #faccfa"/>
    </g>
    <g id="text_22">
     <!-- c4.8xlarge -->
     <g transform="translate(166.945 443.7355) scale(0.16 -0.16)">
      <use xlink:href="#DejaVuSans-63"/>
      <use xlink:href="#DejaVuSans-34" x="54.980469"/>
      <use xlink:href="#DejaVuSans-2e" x="118.603516"/>
      <use xlink:href="#DejaVuSans-38" x="150.390625"/>
      <use xlink:href="#DejaVuSans-78" x="214.013672"/>
      <use xlink:href="#DejaVuSans-6c" x="273.193359"/>
      <use xlink:href="#DejaVuSans-61" x="300.976562"/>
      <use xlink:href="#DejaVuSans-72" x="362.255859"/>
      <use xlink:href="#DejaVuSans-67" x="401.619141"/>
      <use xlink:href="#DejaVuSans-65" x="465.095703"/>
     </g>
    </g>
    <g id="patch_71">
     <path d="M 122.145 467.2205 
L 154.145 467.2205 
L 154.145 456.0205 
L 122.145 456.0205 
z
" style="fill: #828231"/>
    </g>
    <g id="text_23">
     <!-- c5.metal -->
     <g transform="translate(166.945 467.2205) scale(0.16 -0.16)">
      <defs>
       <path id="DejaVuSans-35" d="M 691 4666 
L 3169 4666 
L 3169 4134 
L 1269 4134 
L 1269 2991 
Q 1406 3038 1543 3061 
Q 1681 3084 1819 3084 
Q 2600 3084 3056 2656 
Q 3513 2228 3513 1497 
Q 3513 744 3044 326 
Q 2575 -91 1722 -91 
Q 1428 -91 1123 -41 
Q 819 9 494 109 
L 494 744 
Q 775 591 1075 516 
Q 1375 441 1709 441 
Q 2250 441 2565 725 
Q 2881 1009 2881 1497 
Q 2881 1984 2565 2268 
Q 2250 2553 1709 2553 
Q 1456 2553 1204 2497 
Q 953 2441 691 2322 
L 691 4666 
z
" transform="scale(0.015625)"/>
      </defs>
      <use xlink:href="#DejaVuSans-63"/>
      <use xlink:href="#DejaVuSans-35" x="54.980469"/>
      <use xlink:href="#DejaVuSans-2e" x="118.603516"/>
      <use xlink:href="#DejaVuSans-6d" x="150.390625"/>
      <use xlink:href="#DejaVuSans-65" x="247.802734"/>
      <use xlink:href="#DejaVuSans-74" x="309.326172"/>
      <use xlink:href="#DejaVuSans-61" x="348.535156"/>
      <use xlink:href="#DejaVuSans-6c" x="409.814453"/>
     </g>
    </g>
    <g id="patch_72">
     <path d="M 283.2075 420.2505 
L 315.2075 420.2505 
L 315.2075 409.0505 
L 283.2075 409.0505 
z
" style="fill: #226061"/>
    </g>
    <g id="text_24">
     <!-- c6i.metal -->
     <g transform="translate(328.0075 420.2505) scale(0.16 -0.16)">
      <use xlink:href="#DejaVuSans-63"/>
      <use xlink:href="#DejaVuSans-36" x="54.980469"/>
      <use xlink:href="#DejaVuSans-69" x="118.603516"/>
      <use xlink:href="#DejaVuSans-2e" x="146.386719"/>
      <use xlink:href="#DejaVuSans-6d" x="178.173828"/>
      <use xlink:href="#DejaVuSans-65" x="275.585938"/>
      <use xlink:href="#DejaVuSans-74" x="337.109375"/>
      <use xlink:href="#DejaVuSans-61" x="376.318359"/>
      <use xlink:href="#DejaVuSans-6c" x="437.597656"/>
     </g>
    </g>
    <g id="patch_73">
     <path d="M 283.2075 443.7355 
L 315.2075 443.7355 
L 315.2075 432.5355 
L 283.2075 432.5355 
z
" style="fill: #f19d6b"/>
    </g>
    <g id="text_25">
     <!-- c7i.metal-48xl -->
     <g transform="translate(328.0075 443.7355) scale(0.16 -0.16)">
      <defs>
       <path id="DejaVuSans-37" d="M 525 4666 
L 3525 4666 
L 3525 4397 
L 1831 0 
L 1172 0 
L 2766 4134 
L 525 4134 
L 525 4666 
z
" transform="scale(0.015625)"/>
       <path id="DejaVuSans-2d" d="M 313 2009 
L 1997 2009 
L 1997 1497 
L 313 1497 
L 313 2009 
z
" transform="scale(0.015625)"/>
      </defs>
      <use xlink:href="#DejaVuSans-63"/>
      <use xlink:href="#DejaVuSans-37" x="54.980469"/>
      <use xlink:href="#DejaVuSans-69" x="118.603516"/>
      <use xlink:href="#DejaVuSans-2e" x="146.386719"/>
      <use xlink:href="#DejaVuSans-6d" x="178.173828"/>
      <use xlink:href="#DejaVuSans-65" x="275.585938"/>
      <use xlink:href="#DejaVuSans-74" x="337.109375"/>
      <use xlink:href="#DejaVuSans-61" x="376.318359"/>
      <use xlink:href="#DejaVuSans-6c" x="437.597656"/>
      <use xlink:href="#DejaVuSans-2d" x="465.380859"/>
      <use xlink:href="#DejaVuSans-34" x="501.464844"/>
      <use xlink:href="#DejaVuSans-38" x="565.087891"/>
      <use xlink:href="#DejaVuSans-78" x="628.710938"/>
      <use xlink:href="#DejaVuSans-6c" x="687.890625"/>
     </g>
    </g>
   </g>
  </g>
 </g>
 <defs>
  <clipPath id="p8b120fc877">
   <rect x="59.13" y="27.789" width="446.4" height="332.64"/>
  </clipPath>
 </defs>
</svg>
