<?xml version="1.0" encoding="utf-8" standalone="no"?>
<!DOCTYPE svg PUBLIC "-//W3C//DTD SVG 1.1//EN"
  "http://www.w3.org/Graphics/SVG/1.1/DTD/svg11.dtd">
<svg xmlns:xlink="http://www.w3.org/1999/xlink" width="997.84125pt" height="507.633pt" viewBox="0 0 997.84125 507.633" xmlns="http://www.w3.org/2000/svg" version="1.1">
 <metadata>
  <rdf:RDF xmlns:dc="http://purl.org/dc/elements/1.1/" xmlns:cc="http://creativecommons.org/ns#" xmlns:rdf="http://www.w3.org/1999/02/22-rdf-syntax-ns#">
   <cc:Work>
    <dc:type rdf:resource="http://purl.org/dc/dcmitype/StillImage"/>
    <dc:date>2024-04-14T14:33:59.137009</dc:date>
    <dc:format>image/svg+xml</dc:format>
    <dc:creator>
     <cc:Agent>
      <dc:title>Matplotlib v3.8.2, https://matplotlib.org/</dc:title>
     </cc:Agent>
    </dc:creator>
   </cc:Work>
  </rdf:RDF>
 </metadata>
 <defs>
  <style type="text/css">*{stroke-linejoin: round; stroke-linecap: butt}</style>
 </defs>
 <g id="figure_1">
  <g id="patch_1">
   <path d="M 0 507.633 
L 997.84125 507.633 
L 997.84125 0 
L 0 0 
z
" style="fill: #ffffff"/>
  </g>
  <g id="axes_1">
   <g id="patch_2">
    <path d="M 94.765 360.429 
L 987.565 360.429 
L 987.565 27.789 
L 94.765 27.789 
z
" style="fill: #ffffff"/>
   </g>
   <g id="patch_3">
    <path d="M 135.346818 360.429 
L 139.084617 360.429 
L 139.084617 148.318887 
L 135.346818 148.318887 
z
" clip-path="url(#pb181b1c25f)" style="fill: #011959"/>
   </g>
   <g id="patch_4">
    <path d="M 203.695144 360.429 
L 207.432943 360.429 
L 207.432943 298.360276 
L 203.695144 298.360276 
z
" clip-path="url(#pb181b1c25f)" style="fill: #011959"/>
   </g>
   <g id="patch_5">
    <path d="M 272.043469 360.429 
L 275.781268 360.429 
L 275.781268 298.360276 
L 272.043469 298.360276 
z
" clip-path="url(#pb181b1c25f)" style="fill: #011959"/>
   </g>
   <g id="patch_6">
    <path d="M 340.391794 360.429 
L 344.129593 360.429 
L 344.129593 303.182118 
L 340.391794 303.182118 
z
" clip-path="url(#pb181b1c25f)" style="fill: #011959"/>
   </g>
   <g id="patch_7">
    <path d="M 408.74012 360.429 
L 412.477919 360.429 
L 412.477919 321.972277 
L 408.74012 321.972277 
z
" clip-path="url(#pb181b1c25f)" style="fill: #011959"/>
   </g>
   <g id="patch_8">
    <path d="M 477.088445 360.429 
L 480.826244 360.429 
L 480.826244 261.871757 
L 477.088445 261.871757 
z
" clip-path="url(#pb181b1c25f)" style="fill: #011959"/>
   </g>
   <g id="patch_9">
    <path d="M 545.43677 360.429 
L 549.174569 360.429 
L 549.174569 326.098283 
L 545.43677 326.098283 
z
" clip-path="url(#pb181b1c25f)" style="fill: #011959"/>
   </g>
   <g id="patch_10">
    <path d="M 613.785096 360.429 
L 617.522895 360.429 
L 617.522895 346.912106 
L 613.785096 346.912106 
z
" clip-path="url(#pb181b1c25f)" style="fill: #011959"/>
   </g>
   <g id="patch_11">
    <path d="M 682.133421 360.429 
L 685.87122 360.429 
L 685.87122 340.296825 
L 682.133421 340.296825 
z
" clip-path="url(#pb181b1c25f)" style="fill: #011959"/>
   </g>
   <g id="patch_12">
    <path d="M 750.481746 360.429 
L 754.219545 360.429 
L 754.219545 300.431662 
L 750.481746 300.431662 
z
" clip-path="url(#pb181b1c25f)" style="fill: #011959"/>
   </g>
   <g id="patch_13">
    <path d="M 818.830072 360.429 
L 822.567871 360.429 
L 822.567871 308.850701 
L 818.830072 308.850701 
z
" clip-path="url(#pb181b1c25f)" style="fill: #011959"/>
   </g>
   <g id="patch_14">
    <path d="M 887.178397 360.429 
L 890.916196 360.429 
L 890.916196 334.181334 
L 887.178397 334.181334 
z
" clip-path="url(#pb181b1c25f)" style="fill: #011959"/>
   </g>
   <g id="patch_15">
    <path d="M 139.084617 360.429 
L 142.822416 360.429 
L 142.822416 269.563138 
L 139.084617 269.563138 
z
" clip-path="url(#pb181b1c25f)" style="fill: #faccfa"/>
   </g>
   <g id="patch_16">
    <path d="M 207.432943 360.429 
L 211.170742 360.429 
L 211.170742 319.916635 
L 207.432943 319.916635 
z
" clip-path="url(#pb181b1c25f)" style="fill: #faccfa"/>
   </g>
   <g id="patch_17">
    <path d="M 275.781268 360.429 
L 279.519067 360.429 
L 279.519067 319.916635 
L 275.781268 319.916635 
z
" clip-path="url(#pb181b1c25f)" style="fill: #faccfa"/>
   </g>
   <g id="patch_18">
    <path d="M 344.129593 360.429 
L 347.867392 360.429 
L 347.867392 321.431426 
L 344.129593 321.431426 
z
" clip-path="url(#pb181b1c25f)" style="fill: #faccfa"/>
   </g>
   <g id="patch_19">
    <path d="M 412.477919 360.429 
L 416.215718 360.429 
L 416.215718 333.338011 
L 412.477919 333.338011 
z
" clip-path="url(#pb181b1c25f)" style="fill: #faccfa"/>
   </g>
   <g id="patch_20">
    <path d="M 480.826244 360.429 
L 484.564043 360.429 
L 484.564043 285.433051 
L 480.826244 285.433051 
z
" clip-path="url(#pb181b1c25f)" style="fill: #faccfa"/>
   </g>
   <g id="patch_21">
    <path d="M 549.174569 360.429 
L 552.912368 360.429 
L 552.912368 342.077348 
L 549.174569 342.077348 
z
" clip-path="url(#pb181b1c25f)" style="fill: #faccfa"/>
   </g>
   <g id="patch_22">
    <path d="M 617.522895 360.429 
L 621.260694 360.429 
L 621.260694 352.749015 
L 617.522895 352.749015 
z
" clip-path="url(#pb181b1c25f)" style="fill: #faccfa"/>
   </g>
   <g id="patch_23">
    <path d="M 685.87122 360.429 
L 689.609019 360.429 
L 689.609019 348.70315 
L 685.87122 348.70315 
z
" clip-path="url(#pb181b1c25f)" style="fill: #faccfa"/>
   </g>
   <g id="patch_24">
    <path d="M 754.219545 360.429 
L 757.957344 360.429 
L 757.957344 329.2295 
L 754.219545 329.2295 
z
" clip-path="url(#pb181b1c25f)" style="fill: #faccfa"/>
   </g>
   <g id="patch_25">
    <path d="M 822.567871 360.429 
L 826.30567 360.429 
L 826.30567 330.701692 
L 822.567871 330.701692 
z
" clip-path="url(#pb181b1c25f)" style="fill: #faccfa"/>
   </g>
   <g id="patch_26">
    <path d="M 890.916196 360.429 
L 894.653995 360.429 
L 894.653995 351.982692 
L 890.916196 351.982692 
z
" clip-path="url(#pb181b1c25f)" style="fill: #faccfa"/>
   </g>
   <g id="patch_27">
    <path d="M 142.822416 360.429 
L 146.560215 360.429 
L 146.560215 233.05301 
L 142.822416 233.05301 
z
" clip-path="url(#pb181b1c25f)" style="fill: #828231"/>
   </g>
   <g id="patch_28">
    <path d="M 211.170742 360.429 
L 214.908541 360.429 
L 214.908541 301.38554 
L 211.170742 301.38554 
z
" clip-path="url(#pb181b1c25f)" style="fill: #828231"/>
   </g>
   <g id="patch_29">
    <path d="M 279.519067 360.429 
L 283.256866 360.429 
L 283.256866 301.38554 
L 279.519067 301.38554 
z
" clip-path="url(#pb181b1c25f)" style="fill: #828231"/>
   </g>
   <g id="patch_30">
    <path d="M 347.867392 360.429 
L 351.605191 360.429 
L 351.605191 311.808272 
L 347.867392 311.808272 
z
" clip-path="url(#pb181b1c25f)" style="fill: #828231"/>
   </g>
   <g id="patch_31">
    <path d="M 416.215718 360.429 
L 419.953517 360.429 
L 419.953517 326.701149 
L 416.215718 326.701149 
z
" clip-path="url(#pb181b1c25f)" style="fill: #828231"/>
   </g>
   <g id="patch_32">
    <path d="M 484.564043 360.429 
L 488.301842 360.429 
L 488.301842 272.126016 
L 484.564043 272.126016 
z
" clip-path="url(#pb181b1c25f)" style="fill: #828231"/>
   </g>
   <g id="patch_33">
    <path d="M 552.912368 360.429 
L 556.650167 360.429 
L 556.650167 337.363678 
L 552.912368 337.363678 
z
" clip-path="url(#pb181b1c25f)" style="fill: #828231"/>
   </g>
   <g id="patch_34">
    <path d="M 621.260694 360.429 
L 624.998493 360.429 
L 624.998493 348.639095 
L 621.260694 348.639095 
z
" clip-path="url(#pb181b1c25f)" style="fill: #828231"/>
   </g>
   <g id="patch_35">
    <path d="M 689.609019 360.429 
L 693.346818 360.429 
L 693.346818 350.792141 
L 689.609019 350.792141 
z
" clip-path="url(#pb181b1c25f)" style="fill: #828231"/>
   </g>
   <g id="patch_36">
    <path d="M 757.957344 360.429 
L 761.695144 360.429 
L 761.695144 325.608833 
L 757.957344 325.608833 
z
" clip-path="url(#pb181b1c25f)" style="fill: #828231"/>
   </g>
   <g id="patch_37">
    <path d="M 826.30567 360.429 
L 830.043469 360.429 
L 830.043469 327.834975 
L 826.30567 327.834975 
z
" clip-path="url(#pb181b1c25f)" style="fill: #828231"/>
   </g>
   <g id="patch_38">
    <path d="M 894.653995 360.429 
L 898.391794 360.429 
L 898.391794 350.242923 
L 894.653995 350.242923 
z
" clip-path="url(#pb181b1c25f)" style="fill: #828231"/>
   </g>
   <g id="patch_39">
    <path d="M 146.560215 360.429 
L 150.298014 360.429 
L 150.298014 206.702581 
L 146.560215 206.702581 
z
" clip-path="url(#pb181b1c25f)" style="fill: #226061"/>
   </g>
   <g id="patch_40">
    <path d="M 214.908541 360.429 
L 218.64634 360.429 
L 218.64634 284.556341 
L 214.908541 284.556341 
z
" clip-path="url(#pb181b1c25f)" style="fill: #226061"/>
   </g>
   <g id="patch_41">
    <path d="M 283.256866 360.429 
L 286.994665 360.429 
L 286.994665 284.556341 
L 283.256866 284.556341 
z
" clip-path="url(#pb181b1c25f)" style="fill: #226061"/>
   </g>
   <g id="patch_42">
    <path d="M 351.605191 360.429 
L 355.34299 360.429 
L 355.34299 264.967228 
L 351.605191 264.967228 
z
" clip-path="url(#pb181b1c25f)" style="fill: #226061"/>
   </g>
   <g id="patch_43">
    <path d="M 419.953517 360.429 
L 423.691316 360.429 
L 423.691316 288.801201 
L 419.953517 288.801201 
z
" clip-path="url(#pb181b1c25f)" style="fill: #226061"/>
   </g>
   <g id="patch_44">
    <path d="M 488.301842 360.429 
L 492.039641 360.429 
L 492.039641 267.556397 
L 488.301842 267.556397 
z
" clip-path="url(#pb181b1c25f)" style="fill: #226061"/>
   </g>
   <g id="patch_45">
    <path d="M 556.650167 360.429 
L 560.387967 360.429 
L 560.387967 295.672503 
L 556.650167 295.672503 
z
" clip-path="url(#pb181b1c25f)" style="fill: #226061"/>
   </g>
   <g id="patch_46">
    <path d="M 624.998493 360.429 
L 628.736292 360.429 
L 628.736292 354.766415 
L 624.998493 354.766415 
z
" clip-path="url(#pb181b1c25f)" style="fill: #226061"/>
   </g>
   <g id="patch_47">
    <path d="M 693.346818 360.429 
L 697.084617 360.429 
L 697.084617 354.614995 
L 693.346818 354.614995 
z
" clip-path="url(#pb181b1c25f)" style="fill: #226061"/>
   </g>
   <g id="patch_48">
    <path d="M 761.695144 360.429 
L 765.432943 360.429 
L 765.432943 341.352188 
L 761.695144 341.352188 
z
" clip-path="url(#pb181b1c25f)" style="fill: #226061"/>
   </g>
   <g id="patch_49">
    <path d="M 830.043469 360.429 
L 833.781268 360.429 
L 833.781268 342.208601 
L 830.043469 342.208601 
z
" clip-path="url(#pb181b1c25f)" style="fill: #226061"/>
   </g>
   <g id="patch_50">
    <path d="M 898.391794 360.429 
L 902.129593 360.429 
L 902.129593 287.311247 
L 898.391794 287.311247 
z
" clip-path="url(#pb181b1c25f)" style="fill: #226061"/>
   </g>
   <g id="patch_51">
    <path d="M 150.298014 360.429 
L 154.035813 360.429 
L 154.035813 198.07502 
L 150.298014 198.07502 
z
" clip-path="url(#pb181b1c25f)" style="fill: #f19d6b"/>
   </g>
   <g id="patch_52">
    <path d="M 218.64634 360.429 
L 222.384139 360.429 
L 222.384139 282.598185 
L 218.64634 282.598185 
z
" clip-path="url(#pb181b1c25f)" style="fill: #f19d6b"/>
   </g>
   <g id="patch_53">
    <path d="M 286.994665 360.429 
L 290.732464 360.429 
L 290.732464 282.598185 
L 286.994665 282.598185 
z
" clip-path="url(#pb181b1c25f)" style="fill: #f19d6b"/>
   </g>
   <g id="patch_54">
    <path d="M 355.34299 360.429 
L 359.080789 360.429 
L 359.080789 255.93621 
L 355.34299 255.93621 
z
" clip-path="url(#pb181b1c25f)" style="fill: #f19d6b"/>
   </g>
   <g id="patch_55">
    <path d="M 423.691316 360.429 
L 427.429115 360.429 
L 427.429115 291.620342 
L 423.691316 291.620342 
z
" clip-path="url(#pb181b1c25f)" style="fill: #f19d6b"/>
   </g>
   <g id="patch_56">
    <path d="M 492.039641 360.429 
L 495.77744 360.429 
L 495.77744 310.920362 
L 492.039641 310.920362 
z
" clip-path="url(#pb181b1c25f)" style="fill: #f19d6b"/>
   </g>
   <g id="patch_57">
    <path d="M 560.387967 360.429 
L 564.125766 360.429 
L 564.125766 311.546755 
L 560.387967 311.546755 
z
" clip-path="url(#pb181b1c25f)" style="fill: #f19d6b"/>
   </g>
   <g id="patch_58">
    <path d="M 628.736292 360.429 
L 632.474091 360.429 
L 632.474091 359.379245 
L 628.736292 359.379245 
z
" clip-path="url(#pb181b1c25f)" style="fill: #f19d6b"/>
   </g>
   <g id="patch_59">
    <path d="M 697.084617 360.429 
L 700.822416 360.429 
L 700.822416 356.43059 
L 697.084617 356.43059 
z
" clip-path="url(#pb181b1c25f)" style="fill: #f19d6b"/>
   </g>
   <g id="patch_60">
    <path d="M 765.432943 360.429 
L 769.170742 360.429 
L 769.170742 343.397565 
L 765.432943 343.397565 
z
" clip-path="url(#pb181b1c25f)" style="fill: #f19d6b"/>
   </g>
   <g id="patch_61">
    <path d="M 833.781268 360.429 
L 837.519067 360.429 
L 837.519067 344.468036 
L 833.781268 344.468036 
z
" clip-path="url(#pb181b1c25f)" style="fill: #f19d6b"/>
   </g>
   <g id="patch_62">
    <path d="M 902.129593 360.429 
L 905.867392 360.429 
L 905.867392 300.781532 
L 902.129593 300.781532 
z
" clip-path="url(#pb181b1c25f)" style="fill: #f19d6b"/>
   </g>
   <g id="patch_63">
    <path d="M 154.035813 360.429 
L 157.773612 360.429 
L 157.773612 164.8965 
L 154.035813 164.8965 
z
" clip-path="url(#pb181b1c25f)" style="fill: #4d734d"/>
   </g>
   <g id="patch_64">
    <path d="M 222.384139 360.429 
L 226.121938 360.429 
L 226.121938 271.200771 
L 222.384139 271.200771 
z
" clip-path="url(#pb181b1c25f)" style="fill: #4d734d"/>
   </g>
   <g id="patch_65">
    <path d="M 290.732464 360.429 
L 294.470263 360.429 
L 294.470263 271.200771 
L 290.732464 271.200771 
z
" clip-path="url(#pb181b1c25f)" style="fill: #4d734d"/>
   </g>
   <g id="patch_66">
    <path d="M 359.080789 360.429 
L 362.818589 360.429 
L 362.818589 251.315409 
L 359.080789 251.315409 
z
" clip-path="url(#pb181b1c25f)" style="fill: #4d734d"/>
   </g>
   <g id="patch_67">
    <path d="M 427.429115 360.429 
L 431.166914 360.429 
L 431.166914 278.138963 
L 427.429115 278.138963 
z
" clip-path="url(#pb181b1c25f)" style="fill: #4d734d"/>
   </g>
   <g id="patch_68">
    <path d="M 495.77744 360.429 
L 499.515239 360.429 
L 499.515239 304.783523 
L 495.77744 304.783523 
z
" clip-path="url(#pb181b1c25f)" style="fill: #4d734d"/>
   </g>
   <g id="patch_69">
    <path d="M 564.125766 360.429 
L 567.863565 360.429 
L 567.863565 288.871651 
L 564.125766 288.871651 
z
" clip-path="url(#pb181b1c25f)" style="fill: #4d734d"/>
   </g>
   <g id="patch_70">
    <path d="M 632.474091 360.429 
L 636.21189 360.429 
L 636.21189 348.777451 
L 632.474091 348.777451 
z
" clip-path="url(#pb181b1c25f)" style="fill: #4d734d"/>
   </g>
   <g id="patch_71">
    <path d="M 700.822416 360.429 
L 704.560215 360.429 
L 704.560215 357.999234 
L 700.822416 357.999234 
z
" clip-path="url(#pb181b1c25f)" style="fill: #4d734d"/>
   </g>
   <g id="patch_72">
    <path d="M 769.170742 360.429 
L 772.908541 360.429 
L 772.908541 353.375158 
L 769.170742 353.375158 
z
" clip-path="url(#pb181b1c25f)" style="fill: #4d734d"/>
   </g>
   <g id="patch_73">
    <path d="M 837.519067 360.429 
L 841.256866 360.429 
L 841.256866 354.147736 
L 837.519067 354.147736 
z
" clip-path="url(#pb181b1c25f)" style="fill: #4d734d"/>
   </g>
   <g id="patch_74">
    <path d="M 905.867392 360.429 
L 909.605191 360.429 
L 909.605191 289.735553 
L 905.867392 289.735553 
z
" clip-path="url(#pb181b1c25f)" style="fill: #4d734d"/>
   </g>
   <g id="patch_75">
    <path d="M 157.773612 360.429 
L 161.511411 360.429 
L 161.511411 108.684917 
L 157.773612 108.684917 
z
" clip-path="url(#pb181b1c25f)" style="fill: #114360"/>
   </g>
   <g id="patch_76">
    <path d="M 226.121938 360.429 
L 229.859737 360.429 
L 229.859737 259.160518 
L 226.121938 259.160518 
z
" clip-path="url(#pb181b1c25f)" style="fill: #114360"/>
   </g>
   <g id="patch_77">
    <path d="M 294.470263 360.429 
L 298.208062 360.429 
L 298.208062 259.160518 
L 294.470263 259.160518 
z
" clip-path="url(#pb181b1c25f)" style="fill: #114360"/>
   </g>
   <g id="patch_78">
    <path d="M 362.818589 360.429 
L 366.556388 360.429 
L 366.556388 213.39566 
L 362.818589 213.39566 
z
" clip-path="url(#pb181b1c25f)" style="fill: #114360"/>
   </g>
   <g id="patch_79">
    <path d="M 431.166914 360.429 
L 434.904713 360.429 
L 434.904713 239.30887 
L 431.166914 239.30887 
z
" clip-path="url(#pb181b1c25f)" style="fill: #114360"/>
   </g>
   <g id="patch_80">
    <path d="M 499.515239 360.429 
L 503.253038 360.429 
L 503.253038 256.137717 
L 499.515239 256.137717 
z
" clip-path="url(#pb181b1c25f)" style="fill: #114360"/>
   </g>
   <g id="patch_81">
    <path d="M 567.863565 360.429 
L 571.601364 360.429 
L 571.601364 259.328109 
L 567.863565 259.328109 
z
" clip-path="url(#pb181b1c25f)" style="fill: #114360"/>
   </g>
   <g id="patch_82">
    <path d="M 636.21189 360.429 
L 639.949689 360.429 
L 639.949689 326.348943 
L 636.21189 326.348943 
z
" clip-path="url(#pb181b1c25f)" style="fill: #114360"/>
   </g>
   <g id="patch_83">
    <path d="M 704.560215 360.429 
L 708.298014 360.429 
L 708.298014 346.897556 
L 704.560215 346.897556 
z
" clip-path="url(#pb181b1c25f)" style="fill: #114360"/>
   </g>
   <g id="patch_84">
    <path d="M 772.908541 360.429 
L 776.64634 360.429 
L 776.64634 318.261298 
L 772.908541 318.261298 
z
" clip-path="url(#pb181b1c25f)" style="fill: #114360"/>
   </g>
   <g id="patch_85">
    <path d="M 841.256866 360.429 
L 844.994665 360.429 
L 844.994665 323.656367 
L 841.256866 323.656367 
z
" clip-path="url(#pb181b1c25f)" style="fill: #114360"/>
   </g>
   <g id="patch_86">
    <path d="M 909.605191 360.429 
L 913.34299 360.429 
L 913.34299 282.72782 
L 909.605191 282.72782 
z
" clip-path="url(#pb181b1c25f)" style="fill: #114360"/>
   </g>
   <g id="patch_87">
    <path d="M 161.511411 360.429 
L 165.249211 360.429 
L 165.249211 216.101659 
L 161.511411 216.101659 
z
" clip-path="url(#pb181b1c25f)" style="fill: #fdb4b4"/>
   </g>
   <g id="patch_88">
    <path d="M 229.859737 360.429 
L 233.597536 360.429 
L 233.597536 283.976988 
L 229.859737 283.976988 
z
" clip-path="url(#pb181b1c25f)" style="fill: #fdb4b4"/>
   </g>
   <g id="patch_89">
    <path d="M 298.208062 360.429 
L 301.945861 360.429 
L 301.945861 283.976988 
L 298.208062 283.976988 
z
" clip-path="url(#pb181b1c25f)" style="fill: #fdb4b4"/>
   </g>
   <g id="patch_90">
    <path d="M 366.556388 360.429 
L 370.294187 360.429 
L 370.294187 260.504945 
L 366.556388 260.504945 
z
" clip-path="url(#pb181b1c25f)" style="fill: #fdb4b4"/>
   </g>
   <g id="patch_91">
    <path d="M 434.904713 360.429 
L 438.642512 360.429 
L 438.642512 278.778289 
L 434.904713 278.778289 
z
" clip-path="url(#pb181b1c25f)" style="fill: #fdb4b4"/>
   </g>
   <g id="patch_92">
    <path d="M 503.253038 360.429 
L 506.990837 360.429 
L 506.990837 264.310247 
L 503.253038 264.310247 
z
" clip-path="url(#pb181b1c25f)" style="fill: #fdb4b4"/>
   </g>
   <g id="patch_93">
    <path d="M 571.601364 360.429 
L 575.339163 360.429 
L 575.339163 284.443341 
L 571.601364 284.443341 
z
" clip-path="url(#pb181b1c25f)" style="fill: #fdb4b4"/>
   </g>
   <g id="patch_94">
    <path d="M 639.949689 360.429 
L 643.687488 360.429 
L 643.687488 355.712565 
L 639.949689 355.712565 
z
" clip-path="url(#pb181b1c25f)" style="fill: #fdb4b4"/>
   </g>
   <g id="patch_95">
    <path d="M 708.298014 360.429 
L 712.035813 360.429 
L 712.035813 355.627778 
L 708.298014 355.627778 
z
" clip-path="url(#pb181b1c25f)" style="fill: #fdb4b4"/>
   </g>
   <g id="patch_96">
    <path d="M 776.64634 360.429 
L 780.384139 360.429 
L 780.384139 343.66644 
L 776.64634 343.66644 
z
" clip-path="url(#pb181b1c25f)" style="fill: #fdb4b4"/>
   </g>
   <g id="patch_97">
    <path d="M 844.994665 360.429 
L 848.732464 360.429 
L 848.732464 344.544103 
L 844.994665 344.544103 
z
" clip-path="url(#pb181b1c25f)" style="fill: #fdb4b4"/>
   </g>
   <g id="patch_98">
    <path d="M 913.34299 360.429 
L 917.080789 360.429 
L 917.080789 268.937155 
L 913.34299 268.937155 
z
" clip-path="url(#pb181b1c25f)" style="fill: #fdb4b4"/>
   </g>
   <g id="patch_99">
    <path d="M 165.249211 360.429 
L 168.98701 360.429 
L 168.98701 158.017097 
L 165.249211 158.017097 
z
" clip-path="url(#pb181b1c25f)" style="fill: #c09036"/>
   </g>
   <g id="patch_100">
    <path d="M 233.597536 360.429 
L 237.335335 360.429 
L 237.335335 279.567349 
L 233.597536 279.567349 
z
" clip-path="url(#pb181b1c25f)" style="fill: #c09036"/>
   </g>
   <g id="patch_101">
    <path d="M 301.945861 360.429 
L 305.68366 360.429 
L 305.68366 279.567349 
L 301.945861 279.567349 
z
" clip-path="url(#pb181b1c25f)" style="fill: #c09036"/>
   </g>
   <g id="patch_102">
    <path d="M 370.294187 360.429 
L 374.031986 360.429 
L 374.031986 256.783474 
L 370.294187 256.783474 
z
" clip-path="url(#pb181b1c25f)" style="fill: #c09036"/>
   </g>
   <g id="patch_103">
    <path d="M 438.642512 360.429 
L 442.380311 360.429 
L 442.380311 288.736366 
L 438.642512 288.736366 
z
" clip-path="url(#pb181b1c25f)" style="fill: #c09036"/>
   </g>
   <g id="patch_104">
    <path d="M 506.990837 360.429 
L 510.728636 360.429 
L 510.728636 237.655382 
L 506.990837 237.655382 
z
" clip-path="url(#pb181b1c25f)" style="fill: #c09036"/>
   </g>
   <g id="patch_105">
    <path d="M 575.339163 360.429 
L 579.076962 360.429 
L 579.076962 295.177151 
L 575.339163 295.177151 
z
" clip-path="url(#pb181b1c25f)" style="fill: #c09036"/>
   </g>
   <g id="patch_106">
    <path d="M 643.687488 360.429 
L 647.425287 360.429 
L 647.425287 335.156124 
L 643.687488 335.156124 
z
" clip-path="url(#pb181b1c25f)" style="fill: #c09036"/>
   </g>
   <g id="patch_107">
    <path d="M 712.035813 360.429 
L 715.773612 360.429 
L 715.773612 358.729443 
L 712.035813 358.729443 
z
" clip-path="url(#pb181b1c25f)" style="fill: #c09036"/>
   </g>
   <g id="patch_108">
    <path d="M 780.384139 360.429 
L 784.121938 360.429 
L 784.121938 354.700888 
L 780.384139 354.700888 
z
" clip-path="url(#pb181b1c25f)" style="fill: #c09036"/>
   </g>
   <g id="patch_109">
    <path d="M 848.732464 360.429 
L 852.470263 360.429 
L 852.470263 355.070162 
L 848.732464 355.070162 
z
" clip-path="url(#pb181b1c25f)" style="fill: #c09036"/>
   </g>
   <g id="patch_110">
    <path d="M 917.080789 360.429 
L 920.818589 360.429 
L 920.818589 320.006466 
L 917.080789 320.006466 
z
" clip-path="url(#pb181b1c25f)" style="fill: #c09036"/>
   </g>
   <g id="patch_111">
    <path d="M 168.98701 360.429 
L 172.724809 360.429 
L 172.724809 43.629 
L 168.98701 43.629 
z
" clip-path="url(#pb181b1c25f)" style="fill: #175262"/>
   </g>
   <g id="patch_112">
    <path d="M 237.335335 360.429 
L 241.073134 360.429 
L 241.073134 259.193308 
L 237.335335 259.193308 
z
" clip-path="url(#pb181b1c25f)" style="fill: #175262"/>
   </g>
   <g id="patch_113">
    <path d="M 305.68366 360.429 
L 309.421459 360.429 
L 309.421459 259.193308 
L 305.68366 259.193308 
z
" clip-path="url(#pb181b1c25f)" style="fill: #175262"/>
   </g>
   <g id="patch_114">
    <path d="M 374.031986 360.429 
L 377.769785 360.429 
L 377.769785 198.525316 
L 374.031986 198.525316 
z
" clip-path="url(#pb181b1c25f)" style="fill: #175262"/>
   </g>
   <g id="patch_115">
    <path d="M 442.380311 360.429 
L 446.11811 360.429 
L 446.11811 237.889718 
L 442.380311 237.889718 
z
" clip-path="url(#pb181b1c25f)" style="fill: #175262"/>
   </g>
   <g id="patch_116">
    <path d="M 510.728636 360.429 
L 514.466435 360.429 
L 514.466435 172.142583 
L 510.728636 172.142583 
z
" clip-path="url(#pb181b1c25f)" style="fill: #175262"/>
   </g>
   <g id="patch_117">
    <path d="M 579.076962 360.429 
L 582.814761 360.429 
L 582.814761 263.349166 
L 579.076962 263.349166 
z
" clip-path="url(#pb181b1c25f)" style="fill: #175262"/>
   </g>
   <g id="patch_118">
    <path d="M 647.425287 360.429 
L 651.163086 360.429 
L 651.163086 318.790694 
L 647.425287 318.790694 
z
" clip-path="url(#pb181b1c25f)" style="fill: #175262"/>
   </g>
   <g id="patch_119">
    <path d="M 715.773612 360.429 
L 719.511411 360.429 
L 719.511411 346.240858 
L 715.773612 346.240858 
z
" clip-path="url(#pb181b1c25f)" style="fill: #175262"/>
   </g>
   <g id="patch_120">
    <path d="M 784.121938 360.429 
L 787.859737 360.429 
L 787.859737 317.035762 
L 784.121938 317.035762 
z
" clip-path="url(#pb181b1c25f)" style="fill: #175262"/>
   </g>
   <g id="patch_121">
    <path d="M 852.470263 360.429 
L 856.208062 360.429 
L 856.208062 322.054909 
L 852.470263 322.054909 
z
" clip-path="url(#pb181b1c25f)" style="fill: #175262"/>
   </g>
   <g id="patch_122">
    <path d="M 920.818589 360.429 
L 924.556388 360.429 
L 924.556388 294.25419 
L 920.818589 294.25419 
z
" clip-path="url(#pb181b1c25f)" style="fill: #175262"/>
   </g>
   <g id="patch_123">
    <path d="M 172.724809 360.429 
L 176.462608 360.429 
L 176.462608 175.646047 
L 172.724809 175.646047 
z
" clip-path="url(#pb181b1c25f)" style="fill: #fcbfd6"/>
   </g>
   <g id="patch_124">
    <path d="M 241.073134 360.429 
L 244.810933 360.429 
L 244.810933 301.692255 
L 241.073134 301.692255 
z
" clip-path="url(#pb181b1c25f)" style="fill: #fcbfd6"/>
   </g>
   <g id="patch_125">
    <path d="M 309.421459 360.429 
L 313.159258 360.429 
L 313.159258 301.692255 
L 309.421459 301.692255 
z
" clip-path="url(#pb181b1c25f)" style="fill: #fcbfd6"/>
   </g>
   <g id="patch_126">
    <path d="M 377.769785 360.429 
L 381.507584 360.429 
L 381.507584 268.29747 
L 377.769785 268.29747 
z
" clip-path="url(#pb181b1c25f)" style="fill: #fcbfd6"/>
   </g>
   <g id="patch_127">
    <path d="M 446.11811 360.429 
L 449.855909 360.429 
L 449.855909 289.625302 
L 446.11811 289.625302 
z
" clip-path="url(#pb181b1c25f)" style="fill: #fcbfd6"/>
   </g>
   <g id="patch_128">
    <path d="M 514.466435 360.429 
L 518.204234 360.429 
L 518.204234 253.010756 
L 514.466435 253.010756 
z
" clip-path="url(#pb181b1c25f)" style="fill: #fcbfd6"/>
   </g>
   <g id="patch_129">
    <path d="M 582.814761 360.429 
L 586.55256 360.429 
L 586.55256 304.185511 
L 582.814761 304.185511 
z
" clip-path="url(#pb181b1c25f)" style="fill: #fcbfd6"/>
   </g>
   <g id="patch_130">
    <path d="M 651.163086 360.429 
L 654.900885 360.429 
L 654.900885 359.879394 
L 651.163086 359.879394 
z
" clip-path="url(#pb181b1c25f)" style="fill: #fcbfd6"/>
   </g>
   <g id="patch_131">
    <path d="M 719.511411 360.429 
L 723.249211 360.429 
L 723.249211 356.209579 
L 719.511411 356.209579 
z
" clip-path="url(#pb181b1c25f)" style="fill: #fcbfd6"/>
   </g>
   <g id="patch_132">
    <path d="M 787.859737 360.429 
L 791.597536 360.429 
L 791.597536 344.800611 
L 787.859737 344.800611 
z
" clip-path="url(#pb181b1c25f)" style="fill: #fcbfd6"/>
   </g>
   <g id="patch_133">
    <path d="M 856.208062 360.429 
L 859.945861 360.429 
L 859.945861 345.866354 
L 856.208062 345.866354 
z
" clip-path="url(#pb181b1c25f)" style="fill: #fcbfd6"/>
   </g>
   <g id="patch_134">
    <path d="M 924.556388 360.429 
L 928.294187 360.429 
L 928.294187 321.736466 
L 924.556388 321.736466 
z
" clip-path="url(#pb181b1c25f)" style="fill: #fcbfd6"/>
   </g>
   <g id="patch_135">
    <path d="M 176.462608 360.429 
L 180.200407 360.429 
L 180.200407 193.040655 
L 176.462608 193.040655 
z
" clip-path="url(#pb181b1c25f)" style="fill: #fca890"/>
   </g>
   <g id="patch_136">
    <path d="M 244.810933 360.429 
L 248.548732 360.429 
L 248.548732 288.505129 
L 244.810933 288.505129 
z
" clip-path="url(#pb181b1c25f)" style="fill: #fca890"/>
   </g>
   <g id="patch_137">
    <path d="M 313.159258 360.429 
L 316.897057 360.429 
L 316.897057 288.505129 
L 313.159258 288.505129 
z
" clip-path="url(#pb181b1c25f)" style="fill: #fca890"/>
   </g>
   <g id="patch_138">
    <path d="M 381.507584 360.429 
L 385.245383 360.429 
L 385.245383 264.544457 
L 381.507584 264.544457 
z
" clip-path="url(#pb181b1c25f)" style="fill: #fca890"/>
   </g>
   <g id="patch_139">
    <path d="M 449.855909 360.429 
L 453.593708 360.429 
L 453.593708 278.828708 
L 449.855909 278.828708 
z
" clip-path="url(#pb181b1c25f)" style="fill: #fca890"/>
   </g>
   <g id="patch_140">
    <path d="M 518.204234 360.429 
L 521.942033 360.429 
L 521.942033 286.13135 
L 518.204234 286.13135 
z
" clip-path="url(#pb181b1c25f)" style="fill: #fca890"/>
   </g>
   <g id="patch_141">
    <path d="M 586.55256 360.429 
L 590.290359 360.429 
L 590.290359 281.71109 
L 586.55256 281.71109 
z
" clip-path="url(#pb181b1c25f)" style="fill: #fca890"/>
   </g>
   <g id="patch_142">
    <path d="M 654.900885 360.429 
L 658.638684 360.429 
L 658.638684 358.366611 
L 654.900885 358.366611 
z
" clip-path="url(#pb181b1c25f)" style="fill: #fca890"/>
   </g>
   <g id="patch_143">
    <path d="M 723.249211 360.429 
L 726.98701 360.429 
L 726.98701 358.001603 
L 723.249211 358.001603 
z
" clip-path="url(#pb181b1c25f)" style="fill: #fca890"/>
   </g>
   <g id="patch_144">
    <path d="M 791.597536 360.429 
L 795.335335 360.429 
L 795.335335 352.90427 
L 791.597536 352.90427 
z
" clip-path="url(#pb181b1c25f)" style="fill: #fca890"/>
   </g>
   <g id="patch_145">
    <path d="M 859.945861 360.429 
L 863.68366 360.429 
L 863.68366 353.498429 
L 859.945861 353.498429 
z
" clip-path="url(#pb181b1c25f)" style="fill: #fca890"/>
   </g>
   <g id="patch_146">
    <path d="M 928.294187 360.429 
L 932.031986 360.429 
L 932.031986 285.407998 
L 928.294187 285.407998 
z
" clip-path="url(#pb181b1c25f)" style="fill: #fca890"/>
   </g>
   <g id="patch_147">
    <path d="M 180.200407 360.429 
L 183.938206 360.429 
L 183.938206 329.339472 
L 180.200407 329.339472 
z
" clip-path="url(#pb181b1c25f)" style="fill: #356a59"/>
   </g>
   <g id="patch_148">
    <path d="M 248.548732 360.429 
L 252.286531 360.429 
L 252.286531 346.038987 
L 248.548732 346.038987 
z
" clip-path="url(#pb181b1c25f)" style="fill: #356a59"/>
   </g>
   <g id="patch_149">
    <path d="M 316.897057 360.429 
L 320.634856 360.429 
L 320.634856 346.038987 
L 316.897057 346.038987 
z
" clip-path="url(#pb181b1c25f)" style="fill: #356a59"/>
   </g>
   <g id="patch_150">
    <path d="M 385.245383 360.429 
L 388.983182 360.429 
L 388.983182 348.345153 
L 385.245383 348.345153 
z
" clip-path="url(#pb181b1c25f)" style="fill: #356a59"/>
   </g>
   <g id="patch_151">
    <path d="M 453.593708 360.429 
L 457.331507 360.429 
L 457.331507 352.147881 
L 453.593708 352.147881 
z
" clip-path="url(#pb181b1c25f)" style="fill: #356a59"/>
   </g>
   <g id="patch_152">
    <path d="M 521.942033 360.429 
L 525.679833 360.429 
L 525.679833 337.853486 
L 521.942033 337.853486 
z
" clip-path="url(#pb181b1c25f)" style="fill: #356a59"/>
   </g>
   <g id="patch_153">
    <path d="M 590.290359 360.429 
L 594.028158 360.429 
L 594.028158 354.980992 
L 590.290359 354.980992 
z
" clip-path="url(#pb181b1c25f)" style="fill: #356a59"/>
   </g>
   <g id="patch_154">
    <path d="M 658.638684 360.429 
L 662.376483 360.429 
L 662.376483 357.574773 
L 658.638684 357.574773 
z
" clip-path="url(#pb181b1c25f)" style="fill: #356a59"/>
   </g>
   <g id="patch_155">
    <path d="M 726.98701 360.429 
L 730.724809 360.429 
L 730.724809 357.866011 
L 726.98701 357.866011 
z
" clip-path="url(#pb181b1c25f)" style="fill: #356a59"/>
   </g>
   <g id="patch_156">
    <path d="M 795.335335 360.429 
L 799.073134 360.429 
L 799.073134 351.377745 
L 795.335335 351.377745 
z
" clip-path="url(#pb181b1c25f)" style="fill: #356a59"/>
   </g>
   <g id="patch_157">
    <path d="M 863.68366 360.429 
L 867.421459 360.429 
L 867.421459 351.86508 
L 863.68366 351.86508 
z
" clip-path="url(#pb181b1c25f)" style="fill: #356a59"/>
   </g>
   <g id="patch_158">
    <path d="M 932.031986 360.429 
L 935.769785 360.429 
L 935.769785 357.897661 
L 932.031986 357.897661 
z
" clip-path="url(#pb181b1c25f)" style="fill: #356a59"/>
   </g>
   <g id="patch_159">
    <path d="M 183.938206 360.429 
L 187.676005 360.429 
L 187.676005 292.481738 
L 183.938206 292.481738 
z
" clip-path="url(#pb181b1c25f)" style="fill: #0d315d"/>
   </g>
   <g id="patch_160">
    <path d="M 252.286531 360.429 
L 256.02433 360.429 
L 256.02433 324.87088 
L 252.286531 324.87088 
z
" clip-path="url(#pb181b1c25f)" style="fill: #0d315d"/>
   </g>
   <g id="patch_161">
    <path d="M 320.634856 360.429 
L 324.372656 360.429 
L 324.372656 324.87088 
L 320.634856 324.87088 
z
" clip-path="url(#pb181b1c25f)" style="fill: #0d315d"/>
   </g>
   <g id="patch_162">
    <path d="M 388.983182 360.429 
L 392.720981 360.429 
L 392.720981 336.518942 
L 388.983182 336.518942 
z
" clip-path="url(#pb181b1c25f)" style="fill: #0d315d"/>
   </g>
   <g id="patch_163">
    <path d="M 457.331507 360.429 
L 461.069306 360.429 
L 461.069306 344.518548 
L 457.331507 344.518548 
z
" clip-path="url(#pb181b1c25f)" style="fill: #0d315d"/>
   </g>
   <g id="patch_164">
    <path d="M 525.679833 360.429 
L 529.417632 360.429 
L 529.417632 322.094152 
L 525.679833 322.094152 
z
" clip-path="url(#pb181b1c25f)" style="fill: #0d315d"/>
   </g>
   <g id="patch_165">
    <path d="M 594.028158 360.429 
L 597.765957 360.429 
L 597.765957 351.697658 
L 594.028158 351.697658 
z
" clip-path="url(#pb181b1c25f)" style="fill: #0d315d"/>
   </g>
   <g id="patch_166">
    <path d="M 662.376483 360.429 
L 666.114282 360.429 
L 666.114282 356.629538 
L 662.376483 356.629538 
z
" clip-path="url(#pb181b1c25f)" style="fill: #0d315d"/>
   </g>
   <g id="patch_167">
    <path d="M 730.724809 360.429 
L 734.462608 360.429 
L 734.462608 356.262905 
L 730.724809 356.262905 
z
" clip-path="url(#pb181b1c25f)" style="fill: #0d315d"/>
   </g>
   <g id="patch_168">
    <path d="M 799.073134 360.429 
L 802.810933 360.429 
L 802.810933 345.949394 
L 799.073134 345.949394 
z
" clip-path="url(#pb181b1c25f)" style="fill: #0d315d"/>
   </g>
   <g id="patch_169">
    <path d="M 867.421459 360.429 
L 871.159258 360.429 
L 871.159258 347.703495 
L 867.421459 347.703495 
z
" clip-path="url(#pb181b1c25f)" style="fill: #0d315d"/>
   </g>
   <g id="patch_170">
    <path d="M 935.769785 360.429 
L 939.507584 360.429 
L 939.507584 357.207685 
L 935.769785 357.207685 
z
" clip-path="url(#pb181b1c25f)" style="fill: #0d315d"/>
   </g>
   <g id="patch_171">
    <path d="M 187.676005 360.429 
L 191.413804 360.429 
L 191.413804 235.596357 
L 187.676005 235.596357 
z
" clip-path="url(#pb181b1c25f)" style="fill: #a18a2b"/>
   </g>
   <g id="patch_172">
    <path d="M 256.02433 360.429 
L 259.762129 360.429 
L 259.762129 301.643044 
L 256.02433 301.643044 
z
" clip-path="url(#pb181b1c25f)" style="fill: #a18a2b"/>
   </g>
   <g id="patch_173">
    <path d="M 324.372656 360.429 
L 328.110455 360.429 
L 328.110455 301.643044 
L 324.372656 301.643044 
z
" clip-path="url(#pb181b1c25f)" style="fill: #a18a2b"/>
   </g>
   <g id="patch_174">
    <path d="M 392.720981 360.429 
L 396.45878 360.429 
L 396.45878 280.879277 
L 392.720981 280.879277 
z
" clip-path="url(#pb181b1c25f)" style="fill: #a18a2b"/>
   </g>
   <g id="patch_175">
    <path d="M 461.069306 360.429 
L 464.807105 360.429 
L 464.807105 301.713505 
L 461.069306 301.713505 
z
" clip-path="url(#pb181b1c25f)" style="fill: #a18a2b"/>
   </g>
   <g id="patch_176">
    <path d="M 529.417632 360.429 
L 533.155431 360.429 
L 533.155431 277.326938 
L 529.417632 277.326938 
z
" clip-path="url(#pb181b1c25f)" style="fill: #a18a2b"/>
   </g>
   <g id="patch_177">
    <path d="M 597.765957 360.429 
L 601.503756 360.429 
L 601.503756 308.257066 
L 597.765957 308.257066 
z
" clip-path="url(#pb181b1c25f)" style="fill: #a18a2b"/>
   </g>
   <g id="patch_178">
    <path d="M 666.114282 360.429 
L 669.852081 360.429 
L 669.852081 356.184613 
L 666.114282 356.184613 
z
" clip-path="url(#pb181b1c25f)" style="fill: #a18a2b"/>
   </g>
   <g id="patch_179">
    <path d="M 734.462608 360.429 
L 738.200407 360.429 
L 738.200407 355.426444 
L 734.462608 355.426444 
z
" clip-path="url(#pb181b1c25f)" style="fill: #a18a2b"/>
   </g>
   <g id="patch_180">
    <path d="M 802.810933 360.429 
L 806.548732 360.429 
L 806.548732 344.023876 
L 802.810933 344.023876 
z
" clip-path="url(#pb181b1c25f)" style="fill: #a18a2b"/>
   </g>
   <g id="patch_181">
    <path d="M 871.159258 360.429 
L 874.897057 360.429 
L 874.897057 344.754123 
L 871.159258 344.754123 
z
" clip-path="url(#pb181b1c25f)" style="fill: #a18a2b"/>
   </g>
   <g id="patch_182">
    <path d="M 939.507584 360.429 
L 943.245383 360.429 
L 943.245383 302.950797 
L 939.507584 302.950797 
z
" clip-path="url(#pb181b1c25f)" style="fill: #a18a2b"/>
   </g>
   <g id="patch_183">
    <path d="M 191.413804 360.429 
L 195.151603 360.429 
L 195.151603 254.99958 
L 191.413804 254.99958 
z
" clip-path="url(#pb181b1c25f)" style="fill: #677b3e"/>
   </g>
   <g id="patch_184">
    <path d="M 259.762129 360.429 
L 263.499928 360.429 
L 263.499928 310.167259 
L 259.762129 310.167259 
z
" clip-path="url(#pb181b1c25f)" style="fill: #677b3e"/>
   </g>
   <g id="patch_185">
    <path d="M 328.110455 360.429 
L 331.848254 360.429 
L 331.848254 310.167259 
L 328.110455 310.167259 
z
" clip-path="url(#pb181b1c25f)" style="fill: #677b3e"/>
   </g>
   <g id="patch_186">
    <path d="M 396.45878 360.429 
L 400.196579 360.429 
L 400.196579 292.251912 
L 396.45878 292.251912 
z
" clip-path="url(#pb181b1c25f)" style="fill: #677b3e"/>
   </g>
   <g id="patch_187">
    <path d="M 464.807105 360.429 
L 468.544904 360.429 
L 468.544904 314.91372 
L 464.807105 314.91372 
z
" clip-path="url(#pb181b1c25f)" style="fill: #677b3e"/>
   </g>
   <g id="patch_188">
    <path d="M 533.155431 360.429 
L 536.89323 360.429 
L 536.89323 296.935717 
L 533.155431 296.935717 
z
" clip-path="url(#pb181b1c25f)" style="fill: #677b3e"/>
   </g>
   <g id="patch_189">
    <path d="M 601.503756 360.429 
L 605.241555 360.429 
L 605.241555 321.672744 
L 601.503756 321.672744 
z
" clip-path="url(#pb181b1c25f)" style="fill: #677b3e"/>
   </g>
   <g id="patch_190">
    <path d="M 669.852081 360.429 
L 673.58988 360.429 
L 673.58988 359.71168 
L 669.852081 359.71168 
z
" clip-path="url(#pb181b1c25f)" style="fill: #677b3e"/>
   </g>
   <g id="patch_191">
    <path d="M 738.200407 360.429 
L 741.938206 360.429 
L 741.938206 358.665338 
L 738.200407 358.665338 
z
" clip-path="url(#pb181b1c25f)" style="fill: #677b3e"/>
   </g>
   <g id="patch_192">
    <path d="M 806.548732 360.429 
L 810.286531 360.429 
L 810.286531 352.495901 
L 806.548732 352.495901 
z
" clip-path="url(#pb181b1c25f)" style="fill: #677b3e"/>
   </g>
   <g id="patch_193">
    <path d="M 874.897057 360.429 
L 878.634856 360.429 
L 878.634856 353.339297 
L 874.897057 353.339297 
z
" clip-path="url(#pb181b1c25f)" style="fill: #677b3e"/>
   </g>
   <g id="patch_194">
    <path d="M 943.245383 360.429 
L 946.983182 360.429 
L 946.983182 320.655978 
L 943.245383 320.655978 
z
" clip-path="url(#pb181b1c25f)" style="fill: #677b3e"/>
   </g>
   <g id="matplotlib.axis_1">
    <g id="xtick_1">
     <g id="line2d_1">
      <defs>
       <path id="m70cfb7bfe9" d="M 0 0 
L 0 3.5 
" style="stroke: #000000; stroke-width: 0.8"/>
      </defs>
      <g>
       <use xlink:href="#m70cfb7bfe9" x="165.249211" y="360.429" style="stroke: #000000; stroke-width: 0.8"/>
      </g>
     </g>
     <g id="text_1">
      <!-- DH -->
      <g transform="translate(153.072961 379.5865) scale(0.16 -0.16)">
       <defs>
        <path id="DejaVuSans-44" d="M 1259 4147 
L 1259 519 
L 2022 519 
Q 2988 519 3436 956 
Q 3884 1394 3884 2338 
Q 3884 3275 3436 3711 
Q 2988 4147 2022 4147 
L 1259 4147 
z
M 628 4666 
L 1925 4666 
Q 3281 4666 3915 4102 
Q 4550 3538 4550 2338 
Q 4550 1131 3912 565 
Q 3275 0 1925 0 
L 628 0 
L 628 4666 
z
" transform="scale(0.015625)"/>
        <path id="DejaVuSans-48" d="M 628 4666 
L 1259 4666 
L 1259 2753 
L 3553 2753 
L 3553 4666 
L 4184 4666 
L 4184 0 
L 3553 0 
L 3553 2222 
L 1259 2222 
L 1259 0 
L 628 0 
L 628 4666 
z
" transform="scale(0.015625)"/>
       </defs>
       <use xlink:href="#DejaVuSans-44"/>
       <use xlink:href="#DejaVuSans-48" x="77.001953"/>
      </g>
     </g>
    </g>
    <g id="xtick_2">
     <g id="line2d_2">
      <g>
       <use xlink:href="#m70cfb7bfe9" x="233.597536" y="360.429" style="stroke: #000000; stroke-width: 0.8"/>
      </g>
     </g>
     <g id="text_2">
      <!-- WH -->
      <g transform="translate(219.671286 379.5865) scale(0.16 -0.16)">
       <defs>
        <path id="DejaVuSans-57" d="M 213 4666 
L 850 4666 
L 1831 722 
L 2809 4666 
L 3519 4666 
L 4500 722 
L 5478 4666 
L 6119 4666 
L 4947 0 
L 4153 0 
L 3169 4050 
L 2175 0 
L 1381 0 
L 213 4666 
z
" transform="scale(0.015625)"/>
       </defs>
       <use xlink:href="#DejaVuSans-57"/>
       <use xlink:href="#DejaVuSans-48" x="98.876953"/>
      </g>
     </g>
    </g>
    <g id="xtick_3">
     <g id="line2d_3">
      <g>
       <use xlink:href="#m70cfb7bfe9" x="301.945861" y="360.429" style="stroke: #000000; stroke-width: 0.8"/>
      </g>
     </g>
     <g id="text_3">
      <!-- ET -->
      <g transform="translate(292.004611 379.5865) scale(0.16 -0.16)">
       <defs>
        <path id="DejaVuSans-45" d="M 628 4666 
L 3578 4666 
L 3578 4134 
L 1259 4134 
L 1259 2753 
L 3481 2753 
L 3481 2222 
L 1259 2222 
L 1259 531 
L 3634 531 
L 3634 0 
L 628 0 
L 628 4666 
z
" transform="scale(0.015625)"/>
        <path id="DejaVuSans-54" d="M -19 4666 
L 3928 4666 
L 3928 4134 
L 2272 4134 
L 2272 0 
L 1638 0 
L 1638 4134 
L -19 4134 
L -19 4666 
z
" transform="scale(0.015625)"/>
       </defs>
       <use xlink:href="#DejaVuSans-45"/>
       <use xlink:href="#DejaVuSans-54" x="63.183594"/>
      </g>
     </g>
    </g>
    <g id="xtick_4">
     <g id="line2d_4">
      <g>
       <use xlink:href="#m70cfb7bfe9" x="370.294187" y="360.429" style="stroke: #000000; stroke-width: 0.8"/>
      </g>
     </g>
     <g id="text_4">
      <!-- FC1 -->
      <g transform="translate(355.016687 379.5865) scale(0.16 -0.16)">
       <defs>
        <path id="DejaVuSans-46" d="M 628 4666 
L 3309 4666 
L 3309 4134 
L 1259 4134 
L 1259 2759 
L 3109 2759 
L 3109 2228 
L 1259 2228 
L 1259 0 
L 628 0 
L 628 4666 
z
" transform="scale(0.015625)"/>
        <path id="DejaVuSans-43" d="M 4122 4306 
L 4122 3641 
Q 3803 3938 3442 4084 
Q 3081 4231 2675 4231 
Q 1875 4231 1450 3742 
Q 1025 3253 1025 2328 
Q 1025 1406 1450 917 
Q 1875 428 2675 428 
Q 3081 428 3442 575 
Q 3803 722 4122 1019 
L 4122 359 
Q 3791 134 3420 21 
Q 3050 -91 2638 -91 
Q 1578 -91 968 557 
Q 359 1206 359 2328 
Q 359 3453 968 4101 
Q 1578 4750 2638 4750 
Q 3056 4750 3426 4639 
Q 3797 4528 4122 4306 
z
" transform="scale(0.015625)"/>
        <path id="DejaVuSans-31" d="M 794 531 
L 1825 531 
L 1825 4091 
L 703 3866 
L 703 4441 
L 1819 4666 
L 2450 4666 
L 2450 531 
L 3481 531 
L 3481 0 
L 794 0 
L 794 531 
z
" transform="scale(0.015625)"/>
       </defs>
       <use xlink:href="#DejaVuSans-46"/>
       <use xlink:href="#DejaVuSans-43" x="57.519531"/>
       <use xlink:href="#DejaVuSans-31" x="127.34375"/>
      </g>
     </g>
    </g>
    <g id="xtick_5">
     <g id="line2d_5">
      <g>
       <use xlink:href="#m70cfb7bfe9" x="438.642512" y="360.429" style="stroke: #000000; stroke-width: 0.8"/>
      </g>
     </g>
     <g id="text_5">
      <!-- FC2 -->
      <g transform="translate(423.365012 379.5865) scale(0.16 -0.16)">
       <defs>
        <path id="DejaVuSans-32" d="M 1228 531 
L 3431 531 
L 3431 0 
L 469 0 
L 469 531 
Q 828 903 1448 1529 
Q 2069 2156 2228 2338 
Q 2531 2678 2651 2914 
Q 2772 3150 2772 3378 
Q 2772 3750 2511 3984 
Q 2250 4219 1831 4219 
Q 1534 4219 1204 4116 
Q 875 4013 500 3803 
L 500 4441 
Q 881 4594 1212 4672 
Q 1544 4750 1819 4750 
Q 2544 4750 2975 4387 
Q 3406 4025 3406 3419 
Q 3406 3131 3298 2873 
Q 3191 2616 2906 2266 
Q 2828 2175 2409 1742 
Q 1991 1309 1228 531 
z
" transform="scale(0.015625)"/>
       </defs>
       <use xlink:href="#DejaVuSans-46"/>
       <use xlink:href="#DejaVuSans-43" x="57.519531"/>
       <use xlink:href="#DejaVuSans-32" x="127.34375"/>
      </g>
     </g>
    </g>
    <g id="xtick_6">
     <g id="line2d_6">
      <g>
       <use xlink:href="#m70cfb7bfe9" x="506.990837" y="360.429" style="stroke: #000000; stroke-width: 0.8"/>
      </g>
     </g>
     <g id="text_6">
      <!-- FC3 -->
      <g transform="translate(491.713337 379.5865) scale(0.16 -0.16)">
       <defs>
        <path id="DejaVuSans-33" d="M 2597 2516 
Q 3050 2419 3304 2112 
Q 3559 1806 3559 1356 
Q 3559 666 3084 287 
Q 2609 -91 1734 -91 
Q 1441 -91 1130 -33 
Q 819 25 488 141 
L 488 750 
Q 750 597 1062 519 
Q 1375 441 1716 441 
Q 2309 441 2620 675 
Q 2931 909 2931 1356 
Q 2931 1769 2642 2001 
Q 2353 2234 1838 2234 
L 1294 2234 
L 1294 2753 
L 1863 2753 
Q 2328 2753 2575 2939 
Q 2822 3125 2822 3475 
Q 2822 3834 2567 4026 
Q 2313 4219 1838 4219 
Q 1578 4219 1281 4162 
Q 984 4106 628 3988 
L 628 4550 
Q 988 4650 1302 4700 
Q 1616 4750 1894 4750 
Q 2613 4750 3031 4423 
Q 3450 4097 3450 3541 
Q 3450 3153 3228 2886 
Q 3006 2619 2597 2516 
z
" transform="scale(0.015625)"/>
       </defs>
       <use xlink:href="#DejaVuSans-46"/>
       <use xlink:href="#DejaVuSans-43" x="57.519531"/>
       <use xlink:href="#DejaVuSans-33" x="127.34375"/>
      </g>
     </g>
    </g>
    <g id="xtick_7">
     <g id="line2d_7">
      <g>
       <use xlink:href="#m70cfb7bfe9" x="575.339163" y="360.429" style="stroke: #000000; stroke-width: 0.8"/>
      </g>
     </g>
     <g id="text_7">
      <!-- PT -->
      <g transform="translate(565.629163 379.5865) scale(0.16 -0.16)">
       <defs>
        <path id="DejaVuSans-50" d="M 1259 4147 
L 1259 2394 
L 2053 2394 
Q 2494 2394 2734 2622 
Q 2975 2850 2975 3272 
Q 2975 3691 2734 3919 
Q 2494 4147 2053 4147 
L 1259 4147 
z
M 628 4666 
L 2053 4666 
Q 2838 4666 3239 4311 
Q 3641 3956 3641 3272 
Q 3641 2581 3239 2228 
Q 2838 1875 2053 1875 
L 1259 1875 
L 1259 0 
L 628 0 
L 628 4666 
z
" transform="scale(0.015625)"/>
       </defs>
       <use xlink:href="#DejaVuSans-50"/>
       <use xlink:href="#DejaVuSans-54" x="60.302734"/>
      </g>
     </g>
    </g>
    <g id="xtick_8">
     <g id="line2d_8">
      <g>
       <use xlink:href="#m70cfb7bfe9" x="643.687488" y="360.429" style="stroke: #000000; stroke-width: 0.8"/>
      </g>
     </g>
     <g id="text_8">
      <!-- CS -->
      <g transform="translate(633.022488 379.5865) scale(0.16 -0.16)">
       <defs>
        <path id="DejaVuSans-53" d="M 3425 4513 
L 3425 3897 
Q 3066 4069 2747 4153 
Q 2428 4238 2131 4238 
Q 1616 4238 1336 4038 
Q 1056 3838 1056 3469 
Q 1056 3159 1242 3001 
Q 1428 2844 1947 2747 
L 2328 2669 
Q 3034 2534 3370 2195 
Q 3706 1856 3706 1288 
Q 3706 609 3251 259 
Q 2797 -91 1919 -91 
Q 1588 -91 1214 -16 
Q 841 59 441 206 
L 441 856 
Q 825 641 1194 531 
Q 1563 422 1919 422 
Q 2459 422 2753 634 
Q 3047 847 3047 1241 
Q 3047 1584 2836 1778 
Q 2625 1972 2144 2069 
L 1759 2144 
Q 1053 2284 737 2584 
Q 422 2884 422 3419 
Q 422 4038 858 4394 
Q 1294 4750 2059 4750 
Q 2388 4750 2728 4690 
Q 3069 4631 3425 4513 
z
" transform="scale(0.015625)"/>
       </defs>
       <use xlink:href="#DejaVuSans-43"/>
       <use xlink:href="#DejaVuSans-53" x="69.824219"/>
      </g>
     </g>
    </g>
    <g id="xtick_9">
     <g id="line2d_9">
      <g>
       <use xlink:href="#m70cfb7bfe9" x="712.035813" y="360.429" style="stroke: #000000; stroke-width: 0.8"/>
      </g>
     </g>
     <g id="text_9">
      <!-- PC -->
      <g transform="translate(701.625813 379.5865) scale(0.16 -0.16)">
       <use xlink:href="#DejaVuSans-50"/>
       <use xlink:href="#DejaVuSans-43" x="60.302734"/>
      </g>
     </g>
    </g>
    <g id="xtick_10">
     <g id="line2d_10">
      <g>
       <use xlink:href="#m70cfb7bfe9" x="780.384139" y="360.429" style="stroke: #000000; stroke-width: 0.8"/>
      </g>
     </g>
     <g id="text_10">
      <!-- SS1 -->
      <g transform="translate(765.136639 379.5865) scale(0.16 -0.16)">
       <use xlink:href="#DejaVuSans-53"/>
       <use xlink:href="#DejaVuSans-53" x="63.476562"/>
       <use xlink:href="#DejaVuSans-31" x="126.953125"/>
      </g>
     </g>
    </g>
    <g id="xtick_11">
     <g id="line2d_11">
      <g>
       <use xlink:href="#m70cfb7bfe9" x="848.732464" y="360.429" style="stroke: #000000; stroke-width: 0.8"/>
      </g>
     </g>
     <g id="text_11">
      <!-- SS8 -->
      <g transform="translate(833.484964 379.5865) scale(0.16 -0.16)">
       <defs>
        <path id="DejaVuSans-38" d="M 2034 2216 
Q 1584 2216 1326 1975 
Q 1069 1734 1069 1313 
Q 1069 891 1326 650 
Q 1584 409 2034 409 
Q 2484 409 2743 651 
Q 3003 894 3003 1313 
Q 3003 1734 2745 1975 
Q 2488 2216 2034 2216 
z
M 1403 2484 
Q 997 2584 770 2862 
Q 544 3141 544 3541 
Q 544 4100 942 4425 
Q 1341 4750 2034 4750 
Q 2731 4750 3128 4425 
Q 3525 4100 3525 3541 
Q 3525 3141 3298 2862 
Q 3072 2584 2669 2484 
Q 3125 2378 3379 2068 
Q 3634 1759 3634 1313 
Q 3634 634 3220 271 
Q 2806 -91 2034 -91 
Q 1263 -91 848 271 
Q 434 634 434 1313 
Q 434 1759 690 2068 
Q 947 2378 1403 2484 
z
M 1172 3481 
Q 1172 3119 1398 2916 
Q 1625 2713 2034 2713 
Q 2441 2713 2670 2916 
Q 2900 3119 2900 3481 
Q 2900 3844 2670 4047 
Q 2441 4250 2034 4250 
Q 1625 4250 1398 4047 
Q 1172 3844 1172 3481 
z
" transform="scale(0.015625)"/>
       </defs>
       <use xlink:href="#DejaVuSans-53"/>
       <use xlink:href="#DejaVuSans-53" x="63.476562"/>
       <use xlink:href="#DejaVuSans-38" x="126.953125"/>
      </g>
     </g>
    </g>
    <g id="xtick_12">
     <g id="line2d_12">
      <g>
       <use xlink:href="#m70cfb7bfe9" x="917.080789" y="360.429" style="stroke: #000000; stroke-width: 0.8"/>
      </g>
     </g>
     <g id="text_12">
      <!-- SC -->
      <g transform="translate(906.415789 379.5865) scale(0.16 -0.16)">
       <use xlink:href="#DejaVuSans-53"/>
       <use xlink:href="#DejaVuSans-43" x="63.476562"/>
      </g>
     </g>
    </g>
   </g>
   <g id="matplotlib.axis_2">
    <g id="ytick_1">
     <g id="line2d_13">
      <defs>
       <path id="m1dd3643b76" d="M 0 0 
L -3.5 0 
" style="stroke: #000000; stroke-width: 0.8"/>
      </defs>
      <g>
       <use xlink:href="#m1dd3643b76" x="94.765" y="360.429" style="stroke: #000000; stroke-width: 0.8"/>
      </g>
     </g>
     <g id="text_13">
      <!-- 0 -->
      <g transform="translate(77.585 366.50775) scale(0.16 -0.16)">
       <defs>
        <path id="DejaVuSans-30" d="M 2034 4250 
Q 1547 4250 1301 3770 
Q 1056 3291 1056 2328 
Q 1056 1369 1301 889 
Q 1547 409 2034 409 
Q 2525 409 2770 889 
Q 3016 1369 3016 2328 
Q 3016 3291 2770 3770 
Q 2525 4250 2034 4250 
z
M 2034 4750 
Q 2819 4750 3233 4129 
Q 3647 3509 3647 2328 
Q 3647 1150 3233 529 
Q 2819 -91 2034 -91 
Q 1250 -91 836 529 
Q 422 1150 422 2328 
Q 422 3509 836 4129 
Q 1250 4750 2034 4750 
z
" transform="scale(0.015625)"/>
       </defs>
       <use xlink:href="#DejaVuSans-30"/>
      </g>
     </g>
    </g>
    <g id="ytick_2">
     <g id="line2d_14">
      <g>
       <use xlink:href="#m1dd3643b76" x="94.765" y="307.805979" style="stroke: #000000; stroke-width: 0.8"/>
      </g>
     </g>
     <g id="text_14">
      <!-- 20000 -->
      <g transform="translate(36.865 313.884729) scale(0.16 -0.16)">
       <use xlink:href="#DejaVuSans-32"/>
       <use xlink:href="#DejaVuSans-30" x="63.623047"/>
       <use xlink:href="#DejaVuSans-30" x="127.246094"/>
       <use xlink:href="#DejaVuSans-30" x="190.869141"/>
       <use xlink:href="#DejaVuSans-30" x="254.492188"/>
      </g>
     </g>
    </g>
    <g id="ytick_3">
     <g id="line2d_15">
      <g>
       <use xlink:href="#m1dd3643b76" x="94.765" y="255.182958" style="stroke: #000000; stroke-width: 0.8"/>
      </g>
     </g>
     <g id="text_15">
      <!-- 40000 -->
      <g transform="translate(36.865 261.261708) scale(0.16 -0.16)">
       <defs>
        <path id="DejaVuSans-34" d="M 2419 4116 
L 825 1625 
L 2419 1625 
L 2419 4116 
z
M 2253 4666 
L 3047 4666 
L 3047 1625 
L 3713 1625 
L 3713 1100 
L 3047 1100 
L 3047 0 
L 2419 0 
L 2419 1100 
L 313 1100 
L 313 1709 
L 2253 4666 
z
" transform="scale(0.015625)"/>
       </defs>
       <use xlink:href="#DejaVuSans-34"/>
       <use xlink:href="#DejaVuSans-30" x="63.623047"/>
       <use xlink:href="#DejaVuSans-30" x="127.246094"/>
       <use xlink:href="#DejaVuSans-30" x="190.869141"/>
       <use xlink:href="#DejaVuSans-30" x="254.492188"/>
      </g>
     </g>
    </g>
    <g id="ytick_4">
     <g id="line2d_16">
      <g>
       <use xlink:href="#m1dd3643b76" x="94.765" y="202.559937" style="stroke: #000000; stroke-width: 0.8"/>
      </g>
     </g>
     <g id="text_16">
      <!-- 60000 -->
      <g transform="translate(36.865 208.638687) scale(0.16 -0.16)">
       <defs>
        <path id="DejaVuSans-36" d="M 2113 2584 
Q 1688 2584 1439 2293 
Q 1191 2003 1191 1497 
Q 1191 994 1439 701 
Q 1688 409 2113 409 
Q 2538 409 2786 701 
Q 3034 994 3034 1497 
Q 3034 2003 2786 2293 
Q 2538 2584 2113 2584 
z
M 3366 4563 
L 3366 3988 
Q 3128 4100 2886 4159 
Q 2644 4219 2406 4219 
Q 1781 4219 1451 3797 
Q 1122 3375 1075 2522 
Q 1259 2794 1537 2939 
Q 1816 3084 2150 3084 
Q 2853 3084 3261 2657 
Q 3669 2231 3669 1497 
Q 3669 778 3244 343 
Q 2819 -91 2113 -91 
Q 1303 -91 875 529 
Q 447 1150 447 2328 
Q 447 3434 972 4092 
Q 1497 4750 2381 4750 
Q 2619 4750 2861 4703 
Q 3103 4656 3366 4563 
z
" transform="scale(0.015625)"/>
       </defs>
       <use xlink:href="#DejaVuSans-36"/>
       <use xlink:href="#DejaVuSans-30" x="63.623047"/>
       <use xlink:href="#DejaVuSans-30" x="127.246094"/>
       <use xlink:href="#DejaVuSans-30" x="190.869141"/>
       <use xlink:href="#DejaVuSans-30" x="254.492188"/>
      </g>
     </g>
    </g>
    <g id="ytick_5">
     <g id="line2d_17">
      <g>
       <use xlink:href="#m1dd3643b76" x="94.765" y="149.936916" style="stroke: #000000; stroke-width: 0.8"/>
      </g>
     </g>
     <g id="text_17">
      <!-- 80000 -->
      <g transform="translate(36.865 156.015666) scale(0.16 -0.16)">
       <use xlink:href="#DejaVuSans-38"/>
       <use xlink:href="#DejaVuSans-30" x="63.623047"/>
       <use xlink:href="#DejaVuSans-30" x="127.246094"/>
       <use xlink:href="#DejaVuSans-30" x="190.869141"/>
       <use xlink:href="#DejaVuSans-30" x="254.492188"/>
      </g>
     </g>
    </g>
    <g id="ytick_6">
     <g id="line2d_18">
      <g>
       <use xlink:href="#m1dd3643b76" x="94.765" y="97.313895" style="stroke: #000000; stroke-width: 0.8"/>
      </g>
     </g>
     <g id="text_18">
      <!-- 100000 -->
      <g transform="translate(26.685 103.392645) scale(0.16 -0.16)">
       <use xlink:href="#DejaVuSans-31"/>
       <use xlink:href="#DejaVuSans-30" x="63.623047"/>
       <use xlink:href="#DejaVuSans-30" x="127.246094"/>
       <use xlink:href="#DejaVuSans-30" x="190.869141"/>
       <use xlink:href="#DejaVuSans-30" x="254.492188"/>
       <use xlink:href="#DejaVuSans-30" x="318.115234"/>
      </g>
     </g>
    </g>
    <g id="ytick_7">
     <g id="line2d_19">
      <g>
       <use xlink:href="#m1dd3643b76" x="94.765" y="44.690874" style="stroke: #000000; stroke-width: 0.8"/>
      </g>
     </g>
     <g id="text_19">
      <!-- 120000 -->
      <g transform="translate(26.685 50.769624) scale(0.16 -0.16)">
       <use xlink:href="#DejaVuSans-31"/>
       <use xlink:href="#DejaVuSans-32" x="63.623047"/>
       <use xlink:href="#DejaVuSans-30" x="127.246094"/>
       <use xlink:href="#DejaVuSans-30" x="190.869141"/>
       <use xlink:href="#DejaVuSans-30" x="254.492188"/>
       <use xlink:href="#DejaVuSans-30" x="318.115234"/>
      </g>
     </g>
    </g>
    <g id="text_20">
     <!-- Index per US$ -->
     <g transform="translate(19.3575 250.534) rotate(-90) scale(0.16 -0.16)">
      <defs>
       <path id="DejaVuSans-49" d="M 628 4666 
L 1259 4666 
L 1259 0 
L 628 0 
L 628 4666 
z
" transform="scale(0.015625)"/>
       <path id="DejaVuSans-6e" d="M 3513 2113 
L 3513 0 
L 2938 0 
L 2938 2094 
Q 2938 2591 2744 2837 
Q 2550 3084 2163 3084 
Q 1697 3084 1428 2787 
Q 1159 2491 1159 1978 
L 1159 0 
L 581 0 
L 581 3500 
L 1159 3500 
L 1159 2956 
Q 1366 3272 1645 3428 
Q 1925 3584 2291 3584 
Q 2894 3584 3203 3211 
Q 3513 2838 3513 2113 
z
" transform="scale(0.015625)"/>
       <path id="DejaVuSans-64" d="M 2906 2969 
L 2906 4863 
L 3481 4863 
L 3481 0 
L 2906 0 
L 2906 525 
Q 2725 213 2448 61 
Q 2172 -91 1784 -91 
Q 1150 -91 751 415 
Q 353 922 353 1747 
Q 353 2572 751 3078 
Q 1150 3584 1784 3584 
Q 2172 3584 2448 3432 
Q 2725 3281 2906 2969 
z
M 947 1747 
Q 947 1113 1208 752 
Q 1469 391 1925 391 
Q 2381 391 2643 752 
Q 2906 1113 2906 1747 
Q 2906 2381 2643 2742 
Q 2381 3103 1925 3103 
Q 1469 3103 1208 2742 
Q 947 2381 947 1747 
z
" transform="scale(0.015625)"/>
       <path id="DejaVuSans-65" d="M 3597 1894 
L 3597 1613 
L 953 1613 
Q 991 1019 1311 708 
Q 1631 397 2203 397 
Q 2534 397 2845 478 
Q 3156 559 3463 722 
L 3463 178 
Q 3153 47 2828 -22 
Q 2503 -91 2169 -91 
Q 1331 -91 842 396 
Q 353 884 353 1716 
Q 353 2575 817 3079 
Q 1281 3584 2069 3584 
Q 2775 3584 3186 3129 
Q 3597 2675 3597 1894 
z
M 3022 2063 
Q 3016 2534 2758 2815 
Q 2500 3097 2075 3097 
Q 1594 3097 1305 2825 
Q 1016 2553 972 2059 
L 3022 2063 
z
" transform="scale(0.015625)"/>
       <path id="DejaVuSans-78" d="M 3513 3500 
L 2247 1797 
L 3578 0 
L 2900 0 
L 1881 1375 
L 863 0 
L 184 0 
L 1544 1831 
L 300 3500 
L 978 3500 
L 1906 2253 
L 2834 3500 
L 3513 3500 
z
" transform="scale(0.015625)"/>
       <path id="DejaVuSans-20" transform="scale(0.015625)"/>
       <path id="DejaVuSans-70" d="M 1159 525 
L 1159 -1331 
L 581 -1331 
L 581 3500 
L 1159 3500 
L 1159 2969 
Q 1341 3281 1617 3432 
Q 1894 3584 2278 3584 
Q 2916 3584 3314 3078 
Q 3713 2572 3713 1747 
Q 3713 922 3314 415 
Q 2916 -91 2278 -91 
Q 1894 -91 1617 61 
Q 1341 213 1159 525 
z
M 3116 1747 
Q 3116 2381 2855 2742 
Q 2594 3103 2138 3103 
Q 1681 3103 1420 2742 
Q 1159 2381 1159 1747 
Q 1159 1113 1420 752 
Q 1681 391 2138 391 
Q 2594 391 2855 752 
Q 3116 1113 3116 1747 
z
" transform="scale(0.015625)"/>
       <path id="DejaVuSans-72" d="M 2631 2963 
Q 2534 3019 2420 3045 
Q 2306 3072 2169 3072 
Q 1681 3072 1420 2755 
Q 1159 2438 1159 1844 
L 1159 0 
L 581 0 
L 581 3500 
L 1159 3500 
L 1159 2956 
Q 1341 3275 1631 3429 
Q 1922 3584 2338 3584 
Q 2397 3584 2469 3576 
Q 2541 3569 2628 3553 
L 2631 2963 
z
" transform="scale(0.015625)"/>
       <path id="DejaVuSans-55" d="M 556 4666 
L 1191 4666 
L 1191 1831 
Q 1191 1081 1462 751 
Q 1734 422 2344 422 
Q 2950 422 3222 751 
Q 3494 1081 3494 1831 
L 3494 4666 
L 4128 4666 
L 4128 1753 
Q 4128 841 3676 375 
Q 3225 -91 2344 -91 
Q 1459 -91 1007 375 
Q 556 841 556 1753 
L 556 4666 
z
" transform="scale(0.015625)"/>
       <path id="DejaVuSans-24" d="M 2163 -941 
L 1850 -941 
L 1847 0 
Q 1519 6 1191 76 
Q 863 147 531 288 
L 531 850 
Q 850 650 1176 548 
Q 1503 447 1850 444 
L 1850 1869 
Q 1159 1981 845 2250 
Q 531 2519 531 2988 
Q 531 3497 872 3790 
Q 1213 4084 1850 4128 
L 1850 4863 
L 2163 4863 
L 2163 4138 
Q 2453 4125 2725 4076 
Q 2997 4028 3256 3944 
L 3256 3397 
Q 2997 3528 2723 3600 
Q 2450 3672 2163 3684 
L 2163 2350 
Q 2872 2241 3206 1959 
Q 3541 1678 3541 1191 
Q 3541 663 3186 358 
Q 2831 53 2163 6 
L 2163 -941 
z
M 1850 2406 
L 1850 3688 
Q 1488 3647 1297 3481 
Q 1106 3316 1106 3041 
Q 1106 2772 1282 2622 
Q 1459 2472 1850 2406 
z
M 2163 1806 
L 2163 453 
Q 2559 506 2761 678 
Q 2963 850 2963 1131 
Q 2963 1406 2770 1568 
Q 2578 1731 2163 1806 
z
" transform="scale(0.015625)"/>
      </defs>
      <use xlink:href="#DejaVuSans-49"/>
      <use xlink:href="#DejaVuSans-6e" x="29.492188"/>
      <use xlink:href="#DejaVuSans-64" x="92.871094"/>
      <use xlink:href="#DejaVuSans-65" x="156.347656"/>
      <use xlink:href="#DejaVuSans-78" x="216.121094"/>
      <use xlink:href="#DejaVuSans-20" x="275.300781"/>
      <use xlink:href="#DejaVuSans-70" x="307.087891"/>
      <use xlink:href="#DejaVuSans-65" x="370.564453"/>
      <use xlink:href="#DejaVuSans-72" x="432.087891"/>
      <use xlink:href="#DejaVuSans-20" x="473.201172"/>
      <use xlink:href="#DejaVuSans-55" x="504.988281"/>
      <use xlink:href="#DejaVuSans-53" x="578.181641"/>
      <use xlink:href="#DejaVuSans-24" x="641.658203"/>
     </g>
    </g>
   </g>
   <g id="patch_195">
    <path d="M 94.765 360.429 
L 94.765 27.789 
" style="fill: none; stroke: #000000; stroke-width: 0.8; stroke-linejoin: miter; stroke-linecap: square"/>
   </g>
   <g id="patch_196">
    <path d="M 987.565 360.429 
L 987.565 27.789 
" style="fill: none; stroke: #000000; stroke-width: 0.8; stroke-linejoin: miter; stroke-linecap: square"/>
   </g>
   <g id="patch_197">
    <path d="M 94.765 360.429 
L 987.565 360.429 
" style="fill: none; stroke: #000000; stroke-width: 0.8; stroke-linejoin: miter; stroke-linecap: square"/>
   </g>
   <g id="patch_198">
    <path d="M 94.765 27.789 
L 987.565 27.789 
" style="fill: none; stroke: #000000; stroke-width: 0.8; stroke-linejoin: miter; stroke-linecap: square"/>
   </g>
   <g id="text_21">
    <!-- UnixBench Individual Tests Multi Core per US$ -->
    <g transform="translate(319.945 21.789) scale(0.192 -0.192)">
     <defs>
      <path id="DejaVuSans-69" d="M 603 3500 
L 1178 3500 
L 1178 0 
L 603 0 
L 603 3500 
z
M 603 4863 
L 1178 4863 
L 1178 4134 
L 603 4134 
L 603 4863 
z
" transform="scale(0.015625)"/>
      <path id="DejaVuSans-42" d="M 1259 2228 
L 1259 519 
L 2272 519 
Q 2781 519 3026 730 
Q 3272 941 3272 1375 
Q 3272 1813 3026 2020 
Q 2781 2228 2272 2228 
L 1259 2228 
z
M 1259 4147 
L 1259 2741 
L 2194 2741 
Q 2656 2741 2882 2914 
Q 3109 3088 3109 3444 
Q 3109 3797 2882 3972 
Q 2656 4147 2194 4147 
L 1259 4147 
z
M 628 4666 
L 2241 4666 
Q 2963 4666 3353 4366 
Q 3744 4066 3744 3513 
Q 3744 3084 3544 2831 
Q 3344 2578 2956 2516 
Q 3422 2416 3680 2098 
Q 3938 1781 3938 1306 
Q 3938 681 3513 340 
Q 3088 0 2303 0 
L 628 0 
L 628 4666 
z
" transform="scale(0.015625)"/>
      <path id="DejaVuSans-63" d="M 3122 3366 
L 3122 2828 
Q 2878 2963 2633 3030 
Q 2388 3097 2138 3097 
Q 1578 3097 1268 2742 
Q 959 2388 959 1747 
Q 959 1106 1268 751 
Q 1578 397 2138 397 
Q 2388 397 2633 464 
Q 2878 531 3122 666 
L 3122 134 
Q 2881 22 2623 -34 
Q 2366 -91 2075 -91 
Q 1284 -91 818 406 
Q 353 903 353 1747 
Q 353 2603 823 3093 
Q 1294 3584 2113 3584 
Q 2378 3584 2631 3529 
Q 2884 3475 3122 3366 
z
" transform="scale(0.015625)"/>
      <path id="DejaVuSans-68" d="M 3513 2113 
L 3513 0 
L 2938 0 
L 2938 2094 
Q 2938 2591 2744 2837 
Q 2550 3084 2163 3084 
Q 1697 3084 1428 2787 
Q 1159 2491 1159 1978 
L 1159 0 
L 581 0 
L 581 4863 
L 1159 4863 
L 1159 2956 
Q 1366 3272 1645 3428 
Q 1925 3584 2291 3584 
Q 2894 3584 3203 3211 
Q 3513 2838 3513 2113 
z
" transform="scale(0.015625)"/>
      <path id="DejaVuSans-76" d="M 191 3500 
L 800 3500 
L 1894 563 
L 2988 3500 
L 3597 3500 
L 2284 0 
L 1503 0 
L 191 3500 
z
" transform="scale(0.015625)"/>
      <path id="DejaVuSans-75" d="M 544 1381 
L 544 3500 
L 1119 3500 
L 1119 1403 
Q 1119 906 1312 657 
Q 1506 409 1894 409 
Q 2359 409 2629 706 
Q 2900 1003 2900 1516 
L 2900 3500 
L 3475 3500 
L 3475 0 
L 2900 0 
L 2900 538 
Q 2691 219 2414 64 
Q 2138 -91 1772 -91 
Q 1169 -91 856 284 
Q 544 659 544 1381 
z
M 1991 3584 
L 1991 3584 
z
" transform="scale(0.015625)"/>
      <path id="DejaVuSans-61" d="M 2194 1759 
Q 1497 1759 1228 1600 
Q 959 1441 959 1056 
Q 959 750 1161 570 
Q 1363 391 1709 391 
Q 2188 391 2477 730 
Q 2766 1069 2766 1631 
L 2766 1759 
L 2194 1759 
z
M 3341 1997 
L 3341 0 
L 2766 0 
L 2766 531 
Q 2569 213 2275 61 
Q 1981 -91 1556 -91 
Q 1019 -91 701 211 
Q 384 513 384 1019 
Q 384 1609 779 1909 
Q 1175 2209 1959 2209 
L 2766 2209 
L 2766 2266 
Q 2766 2663 2505 2880 
Q 2244 3097 1772 3097 
Q 1472 3097 1187 3025 
Q 903 2953 641 2809 
L 641 3341 
Q 956 3463 1253 3523 
Q 1550 3584 1831 3584 
Q 2591 3584 2966 3190 
Q 3341 2797 3341 1997 
z
" transform="scale(0.015625)"/>
      <path id="DejaVuSans-6c" d="M 603 4863 
L 1178 4863 
L 1178 0 
L 603 0 
L 603 4863 
z
" transform="scale(0.015625)"/>
      <path id="DejaVuSans-73" d="M 2834 3397 
L 2834 2853 
Q 2591 2978 2328 3040 
Q 2066 3103 1784 3103 
Q 1356 3103 1142 2972 
Q 928 2841 928 2578 
Q 928 2378 1081 2264 
Q 1234 2150 1697 2047 
L 1894 2003 
Q 2506 1872 2764 1633 
Q 3022 1394 3022 966 
Q 3022 478 2636 193 
Q 2250 -91 1575 -91 
Q 1294 -91 989 -36 
Q 684 19 347 128 
L 347 722 
Q 666 556 975 473 
Q 1284 391 1588 391 
Q 1994 391 2212 530 
Q 2431 669 2431 922 
Q 2431 1156 2273 1281 
Q 2116 1406 1581 1522 
L 1381 1569 
Q 847 1681 609 1914 
Q 372 2147 372 2553 
Q 372 3047 722 3315 
Q 1072 3584 1716 3584 
Q 2034 3584 2315 3537 
Q 2597 3491 2834 3397 
z
" transform="scale(0.015625)"/>
      <path id="DejaVuSans-74" d="M 1172 4494 
L 1172 3500 
L 2356 3500 
L 2356 3053 
L 1172 3053 
L 1172 1153 
Q 1172 725 1289 603 
Q 1406 481 1766 481 
L 2356 481 
L 2356 0 
L 1766 0 
Q 1100 0 847 248 
Q 594 497 594 1153 
L 594 3053 
L 172 3053 
L 172 3500 
L 594 3500 
L 594 4494 
L 1172 4494 
z
" transform="scale(0.015625)"/>
      <path id="DejaVuSans-4d" d="M 628 4666 
L 1569 4666 
L 2759 1491 
L 3956 4666 
L 4897 4666 
L 4897 0 
L 4281 0 
L 4281 4097 
L 3078 897 
L 2444 897 
L 1241 4097 
L 1241 0 
L 628 0 
L 628 4666 
z
" transform="scale(0.015625)"/>
      <path id="DejaVuSans-6f" d="M 1959 3097 
Q 1497 3097 1228 2736 
Q 959 2375 959 1747 
Q 959 1119 1226 758 
Q 1494 397 1959 397 
Q 2419 397 2687 759 
Q 2956 1122 2956 1747 
Q 2956 2369 2687 2733 
Q 2419 3097 1959 3097 
z
M 1959 3584 
Q 2709 3584 3137 3096 
Q 3566 2609 3566 1747 
Q 3566 888 3137 398 
Q 2709 -91 1959 -91 
Q 1206 -91 779 398 
Q 353 888 353 1747 
Q 353 2609 779 3096 
Q 1206 3584 1959 3584 
z
" transform="scale(0.015625)"/>
     </defs>
     <use xlink:href="#DejaVuSans-55"/>
     <use xlink:href="#DejaVuSans-6e" x="73.193359"/>
     <use xlink:href="#DejaVuSans-69" x="136.572266"/>
     <use xlink:href="#DejaVuSans-78" x="164.355469"/>
     <use xlink:href="#DejaVuSans-42" x="223.535156"/>
     <use xlink:href="#DejaVuSans-65" x="292.138672"/>
     <use xlink:href="#DejaVuSans-6e" x="353.662109"/>
     <use xlink:href="#DejaVuSans-63" x="417.041016"/>
     <use xlink:href="#DejaVuSans-68" x="472.021484"/>
     <use xlink:href="#DejaVuSans-20" x="535.400391"/>
     <use xlink:href="#DejaVuSans-49" x="567.1875"/>
     <use xlink:href="#DejaVuSans-6e" x="596.679688"/>
     <use xlink:href="#DejaVuSans-64" x="660.058594"/>
     <use xlink:href="#DejaVuSans-69" x="723.535156"/>
     <use xlink:href="#DejaVuSans-76" x="751.318359"/>
     <use xlink:href="#DejaVuSans-69" x="810.498047"/>
     <use xlink:href="#DejaVuSans-64" x="838.28125"/>
     <use xlink:href="#DejaVuSans-75" x="901.757812"/>
     <use xlink:href="#DejaVuSans-61" x="965.136719"/>
     <use xlink:href="#DejaVuSans-6c" x="1026.416016"/>
     <use xlink:href="#DejaVuSans-20" x="1054.199219"/>
     <use xlink:href="#DejaVuSans-54" x="1085.986328"/>
     <use xlink:href="#DejaVuSans-65" x="1130.070312"/>
     <use xlink:href="#DejaVuSans-73" x="1191.59375"/>
     <use xlink:href="#DejaVuSans-74" x="1243.693359"/>
     <use xlink:href="#DejaVuSans-73" x="1282.902344"/>
     <use xlink:href="#DejaVuSans-20" x="1335.001953"/>
     <use xlink:href="#DejaVuSans-4d" x="1366.789062"/>
     <use xlink:href="#DejaVuSans-75" x="1453.068359"/>
     <use xlink:href="#DejaVuSans-6c" x="1516.447266"/>
     <use xlink:href="#DejaVuSans-74" x="1544.230469"/>
     <use xlink:href="#DejaVuSans-69" x="1583.439453"/>
     <use xlink:href="#DejaVuSans-20" x="1611.222656"/>
     <use xlink:href="#DejaVuSans-43" x="1643.009766"/>
     <use xlink:href="#DejaVuSans-6f" x="1712.833984"/>
     <use xlink:href="#DejaVuSans-72" x="1774.015625"/>
     <use xlink:href="#DejaVuSans-65" x="1812.878906"/>
     <use xlink:href="#DejaVuSans-20" x="1874.402344"/>
     <use xlink:href="#DejaVuSans-70" x="1906.189453"/>
     <use xlink:href="#DejaVuSans-65" x="1969.666016"/>
     <use xlink:href="#DejaVuSans-72" x="2031.189453"/>
     <use xlink:href="#DejaVuSans-20" x="2072.302734"/>
     <use xlink:href="#DejaVuSans-55" x="2104.089844"/>
     <use xlink:href="#DejaVuSans-53" x="2177.283203"/>
     <use xlink:href="#DejaVuSans-24" x="2240.759766"/>
    </g>
   </g>
   <g id="legend_1">
    <g id="patch_199">
     <path d="M 96.88875 502.433 
L 989.44125 502.433 
Q 992.64125 502.433 992.64125 499.233 
L 992.64125 406.893 
Q 992.64125 403.693 989.44125 403.693 
L 96.88875 403.693 
Q 93.68875 403.693 93.68875 406.893 
L 93.68875 499.233 
Q 93.68875 502.433 96.88875 502.433 
z
" style="fill: #4d4d4d; opacity: 0.5; stroke: #4d4d4d; stroke-linejoin: miter"/>
    </g>
    <g id="patch_200">
     <path d="M 94.88875 500.433 
L 987.44125 500.433 
Q 990.64125 500.433 990.64125 497.233 
L 990.64125 404.893 
Q 990.64125 401.693 987.44125 401.693 
L 94.88875 401.693 
Q 91.68875 401.693 91.68875 404.893 
L 91.68875 497.233 
Q 91.68875 500.433 94.88875 500.433 
z
" style="fill: #ffffff; stroke: #cccccc; stroke-linejoin: miter"/>
    </g>
    <g id="patch_201">
     <path d="M 98.08875 420.2505 
L 130.08875 420.2505 
L 130.08875 409.0505 
L 98.08875 409.0505 
z
" style="fill: #011959"/>
    </g>
    <g id="text_22">
     <!-- a1.metal -->
     <g transform="translate(142.88875 420.2505) scale(0.16 -0.16)">
      <defs>
       <path id="DejaVuSans-2e" d="M 684 794 
L 1344 794 
L 1344 0 
L 684 0 
L 684 794 
z
" transform="scale(0.015625)"/>
       <path id="DejaVuSans-6d" d="M 3328 2828 
Q 3544 3216 3844 3400 
Q 4144 3584 4550 3584 
Q 5097 3584 5394 3201 
Q 5691 2819 5691 2113 
L 5691 0 
L 5113 0 
L 5113 2094 
Q 5113 2597 4934 2840 
Q 4756 3084 4391 3084 
Q 3944 3084 3684 2787 
Q 3425 2491 3425 1978 
L 3425 0 
L 2847 0 
L 2847 2094 
Q 2847 2600 2669 2842 
Q 2491 3084 2119 3084 
Q 1678 3084 1418 2786 
Q 1159 2488 1159 1978 
L 1159 0 
L 581 0 
L 581 3500 
L 1159 3500 
L 1159 2956 
Q 1356 3278 1631 3431 
Q 1906 3584 2284 3584 
Q 2666 3584 2933 3390 
Q 3200 3197 3328 2828 
z
" transform="scale(0.015625)"/>
      </defs>
      <use xlink:href="#DejaVuSans-61"/>
      <use xlink:href="#DejaVuSans-31" x="61.279297"/>
      <use xlink:href="#DejaVuSans-2e" x="124.902344"/>
      <use xlink:href="#DejaVuSans-6d" x="156.689453"/>
      <use xlink:href="#DejaVuSans-65" x="254.101562"/>
      <use xlink:href="#DejaVuSans-74" x="315.625"/>
      <use xlink:href="#DejaVuSans-61" x="354.833984"/>
      <use xlink:href="#DejaVuSans-6c" x="416.113281"/>
     </g>
    </g>
    <g id="patch_202">
     <path d="M 98.08875 443.7355 
L 130.08875 443.7355 
L 130.08875 432.5355 
L 98.08875 432.5355 
z
" style="fill: #faccfa"/>
    </g>
    <g id="text_23">
     <!-- c3.8xlarge -->
     <g transform="translate(142.88875 443.7355) scale(0.16 -0.16)">
      <defs>
       <path id="DejaVuSans-67" d="M 2906 1791 
Q 2906 2416 2648 2759 
Q 2391 3103 1925 3103 
Q 1463 3103 1205 2759 
Q 947 2416 947 1791 
Q 947 1169 1205 825 
Q 1463 481 1925 481 
Q 2391 481 2648 825 
Q 2906 1169 2906 1791 
z
M 3481 434 
Q 3481 -459 3084 -895 
Q 2688 -1331 1869 -1331 
Q 1566 -1331 1297 -1286 
Q 1028 -1241 775 -1147 
L 775 -588 
Q 1028 -725 1275 -790 
Q 1522 -856 1778 -856 
Q 2344 -856 2625 -561 
Q 2906 -266 2906 331 
L 2906 616 
Q 2728 306 2450 153 
Q 2172 0 1784 0 
Q 1141 0 747 490 
Q 353 981 353 1791 
Q 353 2603 747 3093 
Q 1141 3584 1784 3584 
Q 2172 3584 2450 3431 
Q 2728 3278 2906 2969 
L 2906 3500 
L 3481 3500 
L 3481 434 
z
" transform="scale(0.015625)"/>
      </defs>
      <use xlink:href="#DejaVuSans-63"/>
      <use xlink:href="#DejaVuSans-33" x="54.980469"/>
      <use xlink:href="#DejaVuSans-2e" x="118.603516"/>
      <use xlink:href="#DejaVuSans-38" x="150.390625"/>
      <use xlink:href="#DejaVuSans-78" x="214.013672"/>
      <use xlink:href="#DejaVuSans-6c" x="273.193359"/>
      <use xlink:href="#DejaVuSans-61" x="300.976562"/>
      <use xlink:href="#DejaVuSans-72" x="362.255859"/>
      <use xlink:href="#DejaVuSans-67" x="401.619141"/>
      <use xlink:href="#DejaVuSans-65" x="465.095703"/>
     </g>
    </g>
    <g id="patch_203">
     <path d="M 98.08875 467.2205 
L 130.08875 467.2205 
L 130.08875 456.0205 
L 98.08875 456.0205 
z
" style="fill: #828231"/>
    </g>
    <g id="text_24">
     <!-- c4.8xlarge -->
     <g transform="translate(142.88875 467.2205) scale(0.16 -0.16)">
      <use xlink:href="#DejaVuSans-63"/>
      <use xlink:href="#DejaVuSans-34" x="54.980469"/>
      <use xlink:href="#DejaVuSans-2e" x="118.603516"/>
      <use xlink:href="#DejaVuSans-38" x="150.390625"/>
      <use xlink:href="#DejaVuSans-78" x="214.013672"/>
      <use xlink:href="#DejaVuSans-6c" x="273.193359"/>
      <use xlink:href="#DejaVuSans-61" x="300.976562"/>
      <use xlink:href="#DejaVuSans-72" x="362.255859"/>
      <use xlink:href="#DejaVuSans-67" x="401.619141"/>
      <use xlink:href="#DejaVuSans-65" x="465.095703"/>
     </g>
    </g>
    <g id="patch_204">
     <path d="M 98.08875 490.7055 
L 130.08875 490.7055 
L 130.08875 479.5055 
L 98.08875 479.5055 
z
" style="fill: #226061"/>
    </g>
    <g id="text_25">
     <!-- c5.metal -->
     <g transform="translate(142.88875 490.7055) scale(0.16 -0.16)">
      <defs>
       <path id="DejaVuSans-35" d="M 691 4666 
L 3169 4666 
L 3169 4134 
L 1269 4134 
L 1269 2991 
Q 1406 3038 1543 3061 
Q 1681 3084 1819 3084 
Q 2600 3084 3056 2656 
Q 3513 2228 3513 1497 
Q 3513 744 3044 326 
Q 2575 -91 1722 -91 
Q 1428 -91 1123 -41 
Q 819 9 494 109 
L 494 744 
Q 775 591 1075 516 
Q 1375 441 1709 441 
Q 2250 441 2565 725 
Q 2881 1009 2881 1497 
Q 2881 1984 2565 2268 
Q 2250 2553 1709 2553 
Q 1456 2553 1204 2497 
Q 953 2441 691 2322 
L 691 4666 
z
" transform="scale(0.015625)"/>
      </defs>
      <use xlink:href="#DejaVuSans-63"/>
      <use xlink:href="#DejaVuSans-35" x="54.980469"/>
      <use xlink:href="#DejaVuSans-2e" x="118.603516"/>
      <use xlink:href="#DejaVuSans-6d" x="150.390625"/>
      <use xlink:href="#DejaVuSans-65" x="247.802734"/>
      <use xlink:href="#DejaVuSans-74" x="309.326172"/>
      <use xlink:href="#DejaVuSans-61" x="348.535156"/>
      <use xlink:href="#DejaVuSans-6c" x="409.814453"/>
     </g>
    </g>
    <g id="patch_205">
     <path d="M 259.15125 420.2505 
L 291.15125 420.2505 
L 291.15125 409.0505 
L 259.15125 409.0505 
z
" style="fill: #f19d6b"/>
    </g>
    <g id="text_26">
     <!-- c5a.24xlarge -->
     <g transform="translate(303.95125 420.2505) scale(0.16 -0.16)">
      <use xlink:href="#DejaVuSans-63"/>
      <use xlink:href="#DejaVuSans-35" x="54.980469"/>
      <use xlink:href="#DejaVuSans-61" x="118.603516"/>
      <use xlink:href="#DejaVuSans-2e" x="179.882812"/>
      <use xlink:href="#DejaVuSans-32" x="211.669922"/>
      <use xlink:href="#DejaVuSans-34" x="275.292969"/>
      <use xlink:href="#DejaVuSans-78" x="338.916016"/>
      <use xlink:href="#DejaVuSans-6c" x="398.095703"/>
      <use xlink:href="#DejaVuSans-61" x="425.878906"/>
      <use xlink:href="#DejaVuSans-72" x="487.158203"/>
      <use xlink:href="#DejaVuSans-67" x="526.521484"/>
      <use xlink:href="#DejaVuSans-65" x="589.998047"/>
     </g>
    </g>
    <g id="patch_206">
     <path d="M 259.15125 443.7355 
L 291.15125 443.7355 
L 291.15125 432.5355 
L 259.15125 432.5355 
z
" style="fill: #4d734d"/>
    </g>
    <g id="text_27">
     <!-- c6a.metal -->
     <g transform="translate(303.95125 443.7355) scale(0.16 -0.16)">
      <use xlink:href="#DejaVuSans-63"/>
      <use xlink:href="#DejaVuSans-36" x="54.980469"/>
      <use xlink:href="#DejaVuSans-61" x="118.603516"/>
      <use xlink:href="#DejaVuSans-2e" x="179.882812"/>
      <use xlink:href="#DejaVuSans-6d" x="211.669922"/>
      <use xlink:href="#DejaVuSans-65" x="309.082031"/>
      <use xlink:href="#DejaVuSans-74" x="370.605469"/>
      <use xlink:href="#DejaVuSans-61" x="409.814453"/>
      <use xlink:href="#DejaVuSans-6c" x="471.09375"/>
     </g>
    </g>
    <g id="patch_207">
     <path d="M 259.15125 467.2205 
L 291.15125 467.2205 
L 291.15125 456.0205 
L 259.15125 456.0205 
z
" style="fill: #114360"/>
    </g>
    <g id="text_28">
     <!-- c6g.metal -->
     <g transform="translate(303.95125 467.2205) scale(0.16 -0.16)">
      <use xlink:href="#DejaVuSans-63"/>
      <use xlink:href="#DejaVuSans-36" x="54.980469"/>
      <use xlink:href="#DejaVuSans-67" x="118.603516"/>
      <use xlink:href="#DejaVuSans-2e" x="182.080078"/>
      <use xlink:href="#DejaVuSans-6d" x="213.867188"/>
      <use xlink:href="#DejaVuSans-65" x="311.279297"/>
      <use xlink:href="#DejaVuSans-74" x="372.802734"/>
      <use xlink:href="#DejaVuSans-61" x="412.011719"/>
      <use xlink:href="#DejaVuSans-6c" x="473.291016"/>
     </g>
    </g>
    <g id="patch_208">
     <path d="M 440.19875 420.2505 
L 472.19875 420.2505 
L 472.19875 409.0505 
L 440.19875 409.0505 
z
" style="fill: #fdb4b4"/>
    </g>
    <g id="text_29">
     <!-- c6i.metal -->
     <g transform="translate(484.99875 420.2505) scale(0.16 -0.16)">
      <use xlink:href="#DejaVuSans-63"/>
      <use xlink:href="#DejaVuSans-36" x="54.980469"/>
      <use xlink:href="#DejaVuSans-69" x="118.603516"/>
      <use xlink:href="#DejaVuSans-2e" x="146.386719"/>
      <use xlink:href="#DejaVuSans-6d" x="178.173828"/>
      <use xlink:href="#DejaVuSans-65" x="275.585938"/>
      <use xlink:href="#DejaVuSans-74" x="337.109375"/>
      <use xlink:href="#DejaVuSans-61" x="376.318359"/>
      <use xlink:href="#DejaVuSans-6c" x="437.597656"/>
     </g>
    </g>
    <g id="patch_209">
     <path d="M 440.19875 443.7355 
L 472.19875 443.7355 
L 472.19875 432.5355 
L 440.19875 432.5355 
z
" style="fill: #c09036"/>
    </g>
    <g id="text_30">
     <!-- c7a.metal-48xl -->
     <g transform="translate(484.99875 443.7355) scale(0.16 -0.16)">
      <defs>
       <path id="DejaVuSans-37" d="M 525 4666 
L 3525 4666 
L 3525 4397 
L 1831 0 
L 1172 0 
L 2766 4134 
L 525 4134 
L 525 4666 
z
" transform="scale(0.015625)"/>
       <path id="DejaVuSans-2d" d="M 313 2009 
L 1997 2009 
L 1997 1497 
L 313 1497 
L 313 2009 
z
" transform="scale(0.015625)"/>
      </defs>
      <use xlink:href="#DejaVuSans-63"/>
      <use xlink:href="#DejaVuSans-37" x="54.980469"/>
      <use xlink:href="#DejaVuSans-61" x="118.603516"/>
      <use xlink:href="#DejaVuSans-2e" x="179.882812"/>
      <use xlink:href="#DejaVuSans-6d" x="211.669922"/>
      <use xlink:href="#DejaVuSans-65" x="309.082031"/>
      <use xlink:href="#DejaVuSans-74" x="370.605469"/>
      <use xlink:href="#DejaVuSans-61" x="409.814453"/>
      <use xlink:href="#DejaVuSans-6c" x="471.09375"/>
      <use xlink:href="#DejaVuSans-2d" x="498.876953"/>
      <use xlink:href="#DejaVuSans-34" x="534.960938"/>
      <use xlink:href="#DejaVuSans-38" x="598.583984"/>
      <use xlink:href="#DejaVuSans-78" x="662.207031"/>
      <use xlink:href="#DejaVuSans-6c" x="721.386719"/>
     </g>
    </g>
    <g id="patch_210">
     <path d="M 440.19875 467.2205 
L 472.19875 467.2205 
L 472.19875 456.0205 
L 440.19875 456.0205 
z
" style="fill: #175262"/>
    </g>
    <g id="text_31">
     <!-- c7g.metal -->
     <g transform="translate(484.99875 467.2205) scale(0.16 -0.16)">
      <use xlink:href="#DejaVuSans-63"/>
      <use xlink:href="#DejaVuSans-37" x="54.980469"/>
      <use xlink:href="#DejaVuSans-67" x="118.603516"/>
      <use xlink:href="#DejaVuSans-2e" x="182.080078"/>
      <use xlink:href="#DejaVuSans-6d" x="213.867188"/>
      <use xlink:href="#DejaVuSans-65" x="311.279297"/>
      <use xlink:href="#DejaVuSans-74" x="372.802734"/>
      <use xlink:href="#DejaVuSans-61" x="412.011719"/>
      <use xlink:href="#DejaVuSans-6c" x="473.291016"/>
     </g>
    </g>
    <g id="patch_211">
     <path d="M 636.86625 420.2505 
L 668.86625 420.2505 
L 668.86625 409.0505 
L 636.86625 409.0505 
z
" style="fill: #fcbfd6"/>
    </g>
    <g id="text_32">
     <!-- c7gn.16xlarge -->
     <g transform="translate(681.66625 420.2505) scale(0.16 -0.16)">
      <use xlink:href="#DejaVuSans-63"/>
      <use xlink:href="#DejaVuSans-37" x="54.980469"/>
      <use xlink:href="#DejaVuSans-67" x="118.603516"/>
      <use xlink:href="#DejaVuSans-6e" x="182.080078"/>
      <use xlink:href="#DejaVuSans-2e" x="245.458984"/>
      <use xlink:href="#DejaVuSans-31" x="277.246094"/>
      <use xlink:href="#DejaVuSans-36" x="340.869141"/>
      <use xlink:href="#DejaVuSans-78" x="404.492188"/>
      <use xlink:href="#DejaVuSans-6c" x="463.671875"/>
      <use xlink:href="#DejaVuSans-61" x="491.455078"/>
      <use xlink:href="#DejaVuSans-72" x="552.734375"/>
      <use xlink:href="#DejaVuSans-67" x="592.097656"/>
      <use xlink:href="#DejaVuSans-65" x="655.574219"/>
     </g>
    </g>
    <g id="patch_212">
     <path d="M 636.86625 443.7355 
L 668.86625 443.7355 
L 668.86625 432.5355 
L 636.86625 432.5355 
z
" style="fill: #fca890"/>
    </g>
    <g id="text_33">
     <!-- c7i.metal-48xl -->
     <g transform="translate(681.66625 443.7355) scale(0.16 -0.16)">
      <use xlink:href="#DejaVuSans-63"/>
      <use xlink:href="#DejaVuSans-37" x="54.980469"/>
      <use xlink:href="#DejaVuSans-69" x="118.603516"/>
      <use xlink:href="#DejaVuSans-2e" x="146.386719"/>
      <use xlink:href="#DejaVuSans-6d" x="178.173828"/>
      <use xlink:href="#DejaVuSans-65" x="275.585938"/>
      <use xlink:href="#DejaVuSans-74" x="337.109375"/>
      <use xlink:href="#DejaVuSans-61" x="376.318359"/>
      <use xlink:href="#DejaVuSans-6c" x="437.597656"/>
      <use xlink:href="#DejaVuSans-2d" x="465.380859"/>
      <use xlink:href="#DejaVuSans-34" x="501.464844"/>
      <use xlink:href="#DejaVuSans-38" x="565.087891"/>
      <use xlink:href="#DejaVuSans-78" x="628.710938"/>
      <use xlink:href="#DejaVuSans-6c" x="687.890625"/>
     </g>
    </g>
    <g id="patch_213">
     <path d="M 636.86625 467.2205 
L 668.86625 467.2205 
L 668.86625 456.0205 
L 636.86625 456.0205 
z
" style="fill: #356a59"/>
    </g>
    <g id="text_34">
     <!-- d2.8xlarge -->
     <g transform="translate(681.66625 467.2205) scale(0.16 -0.16)">
      <use xlink:href="#DejaVuSans-64"/>
      <use xlink:href="#DejaVuSans-32" x="63.476562"/>
      <use xlink:href="#DejaVuSans-2e" x="127.099609"/>
      <use xlink:href="#DejaVuSans-38" x="158.886719"/>
      <use xlink:href="#DejaVuSans-78" x="222.509766"/>
      <use xlink:href="#DejaVuSans-6c" x="281.689453"/>
      <use xlink:href="#DejaVuSans-61" x="309.472656"/>
      <use xlink:href="#DejaVuSans-72" x="370.751953"/>
      <use xlink:href="#DejaVuSans-67" x="410.115234"/>
      <use xlink:href="#DejaVuSans-65" x="473.591797"/>
     </g>
    </g>
    <g id="patch_214">
     <path d="M 828.40625 420.2505 
L 860.40625 420.2505 
L 860.40625 409.0505 
L 828.40625 409.0505 
z
" style="fill: #0d315d"/>
    </g>
    <g id="text_35">
     <!-- i3.metal -->
     <g transform="translate(873.20625 420.2505) scale(0.16 -0.16)">
      <use xlink:href="#DejaVuSans-69"/>
      <use xlink:href="#DejaVuSans-33" x="27.783203"/>
      <use xlink:href="#DejaVuSans-2e" x="91.40625"/>
      <use xlink:href="#DejaVuSans-6d" x="123.193359"/>
      <use xlink:href="#DejaVuSans-65" x="220.605469"/>
      <use xlink:href="#DejaVuSans-74" x="282.128906"/>
      <use xlink:href="#DejaVuSans-61" x="321.337891"/>
      <use xlink:href="#DejaVuSans-6c" x="382.617188"/>
     </g>
    </g>
    <g id="patch_215">
     <path d="M 828.40625 443.7355 
L 860.40625 443.7355 
L 860.40625 432.5355 
L 828.40625 432.5355 
z
" style="fill: #a18a2b"/>
    </g>
    <g id="text_36">
     <!-- m5.metal -->
     <g transform="translate(873.20625 443.7355) scale(0.16 -0.16)">
      <use xlink:href="#DejaVuSans-6d"/>
      <use xlink:href="#DejaVuSans-35" x="97.412109"/>
      <use xlink:href="#DejaVuSans-2e" x="161.035156"/>
      <use xlink:href="#DejaVuSans-6d" x="192.822266"/>
      <use xlink:href="#DejaVuSans-65" x="290.234375"/>
      <use xlink:href="#DejaVuSans-74" x="351.757812"/>
      <use xlink:href="#DejaVuSans-61" x="390.966797"/>
      <use xlink:href="#DejaVuSans-6c" x="452.246094"/>
     </g>
    </g>
    <g id="patch_216">
     <path d="M 828.40625 467.2205 
L 860.40625 467.2205 
L 860.40625 456.0205 
L 828.40625 456.0205 
z
" style="fill: #677b3e"/>
    </g>
    <g id="text_37">
     <!-- m5a.24xlarge -->
     <g transform="translate(873.20625 467.2205) scale(0.16 -0.16)">
      <use xlink:href="#DejaVuSans-6d"/>
      <use xlink:href="#DejaVuSans-35" x="97.412109"/>
      <use xlink:href="#DejaVuSans-61" x="161.035156"/>
      <use xlink:href="#DejaVuSans-2e" x="222.314453"/>
      <use xlink:href="#DejaVuSans-32" x="254.101562"/>
      <use xlink:href="#DejaVuSans-34" x="317.724609"/>
      <use xlink:href="#DejaVuSans-78" x="381.347656"/>
      <use xlink:href="#DejaVuSans-6c" x="440.527344"/>
      <use xlink:href="#DejaVuSans-61" x="468.310547"/>
      <use xlink:href="#DejaVuSans-72" x="529.589844"/>
      <use xlink:href="#DejaVuSans-67" x="568.953125"/>
      <use xlink:href="#DejaVuSans-65" x="632.429688"/>
     </g>
    </g>
   </g>
  </g>
 </g>
 <defs>
  <clipPath id="pb181b1c25f">
   <rect x="94.765" y="27.789" width="892.8" height="332.64"/>
  </clipPath>
 </defs>
</svg>
