<?xml version="1.0" encoding="utf-8" standalone="no"?>
<!DOCTYPE svg PUBLIC "-//W3C//DTD SVG 1.1//EN"
  "http://www.w3.org/Graphics/SVG/1.1/DTD/svg11.dtd">
<svg xmlns:xlink="http://www.w3.org/1999/xlink" width="571.752pt" height="578.088pt" viewBox="0 0 571.752 578.088" xmlns="http://www.w3.org/2000/svg" version="1.1">
 <metadata>
  <rdf:RDF xmlns:dc="http://purl.org/dc/elements/1.1/" xmlns:cc="http://creativecommons.org/ns#" xmlns:rdf="http://www.w3.org/1999/02/22-rdf-syntax-ns#">
   <cc:Work>
    <dc:type rdf:resource="http://purl.org/dc/dcmitype/StillImage"/>
    <dc:date>2024-04-13T22:58:50.843260</dc:date>
    <dc:format>image/svg+xml</dc:format>
    <dc:creator>
     <cc:Agent>
      <dc:title>Matplotlib v3.8.2, https://matplotlib.org/</dc:title>
     </cc:Agent>
    </dc:creator>
   </cc:Work>
  </rdf:RDF>
 </metadata>
 <defs>
  <style type="text/css">*{stroke-linejoin: round; stroke-linecap: butt}</style>
 </defs>
 <g id="figure_1">
  <g id="patch_1">
   <path d="M 0 578.088 
L 571.752 578.088 
L 571.752 0 
L 0 0 
z
" style="fill: #ffffff"/>
  </g>
  <g id="axes_1">
   <g id="patch_2">
    <path d="M 62.676 360.429 
L 509.076 360.429 
L 509.076 27.789 
L 62.676 27.789 
z
" style="fill: #ffffff"/>
   </g>
   <g id="patch_3">
    <path d="M 82.966909 360.429 
L 84.462029 360.429 
L 84.462029 148.856346 
L 82.966909 148.856346 
z
" clip-path="url(#p2ea69f805a)" style="fill: #011959"/>
   </g>
   <g id="patch_4">
    <path d="M 117.141072 360.429 
L 118.636191 360.429 
L 118.636191 166.258301 
L 117.141072 166.258301 
z
" clip-path="url(#p2ea69f805a)" style="fill: #011959"/>
   </g>
   <g id="patch_5">
    <path d="M 151.315234 360.429 
L 152.810354 360.429 
L 152.810354 166.258301 
L 151.315234 166.258301 
z
" clip-path="url(#p2ea69f805a)" style="fill: #011959"/>
   </g>
   <g id="patch_6">
    <path d="M 185.489397 360.429 
L 186.984517 360.429 
L 186.984517 248.412943 
L 185.489397 248.412943 
z
" clip-path="url(#p2ea69f805a)" style="fill: #011959"/>
   </g>
   <g id="patch_7">
    <path d="M 219.66356 360.429 
L 221.158679 360.429 
L 221.158679 261.007087 
L 219.66356 261.007087 
z
" clip-path="url(#p2ea69f805a)" style="fill: #011959"/>
   </g>
   <g id="patch_8">
    <path d="M 253.837722 360.429 
L 255.332842 360.429 
L 255.332842 194.602196 
L 253.837722 194.602196 
z
" clip-path="url(#p2ea69f805a)" style="fill: #011959"/>
   </g>
   <g id="patch_9">
    <path d="M 288.011885 360.429 
L 289.507005 360.429 
L 289.507005 252.853576 
L 288.011885 252.853576 
z
" clip-path="url(#p2ea69f805a)" style="fill: #011959"/>
   </g>
   <g id="patch_10">
    <path d="M 322.186048 360.429 
L 323.681167 360.429 
L 323.681167 257.587354 
L 322.186048 257.587354 
z
" clip-path="url(#p2ea69f805a)" style="fill: #011959"/>
   </g>
   <g id="patch_11">
    <path d="M 356.360211 360.429 
L 357.85533 360.429 
L 357.85533 43.629 
L 356.360211 43.629 
z
" clip-path="url(#p2ea69f805a)" style="fill: #011959"/>
   </g>
   <g id="patch_12">
    <path d="M 390.534373 360.429 
L 392.029493 360.429 
L 392.029493 43.629 
L 390.534373 43.629 
z
" clip-path="url(#p2ea69f805a)" style="fill: #011959"/>
   </g>
   <g id="patch_13">
    <path d="M 424.708536 360.429 
L 426.203656 360.429 
L 426.203656 43.629 
L 424.708536 43.629 
z
" clip-path="url(#p2ea69f805a)" style="fill: #011959"/>
   </g>
   <g id="patch_14">
    <path d="M 458.882699 360.429 
L 460.377818 360.429 
L 460.377818 269.543734 
L 458.882699 269.543734 
z
" clip-path="url(#p2ea69f805a)" style="fill: #011959"/>
   </g>
   <g id="patch_15">
    <path d="M 84.462029 360.429 
L 85.957148 360.429 
L 85.957148 269.79338 
L 84.462029 269.79338 
z
" clip-path="url(#p2ea69f805a)" style="fill: #faccfa"/>
   </g>
   <g id="patch_16">
    <path d="M 118.636191 360.429 
L 120.131311 360.429 
L 120.131311 233.693444 
L 118.636191 233.693444 
z
" clip-path="url(#p2ea69f805a)" style="fill: #faccfa"/>
   </g>
   <g id="patch_17">
    <path d="M 152.810354 360.429 
L 154.305474 360.429 
L 154.305474 233.693444 
L 152.810354 233.693444 
z
" clip-path="url(#p2ea69f805a)" style="fill: #faccfa"/>
   </g>
   <g id="patch_18">
    <path d="M 186.984517 360.429 
L 188.479636 360.429 
L 188.479636 284.121709 
L 186.984517 284.121709 
z
" clip-path="url(#p2ea69f805a)" style="fill: #faccfa"/>
   </g>
   <g id="patch_19">
    <path d="M 221.158679 360.429 
L 222.653799 360.429 
L 222.653799 290.390844 
L 221.158679 290.390844 
z
" clip-path="url(#p2ea69f805a)" style="fill: #faccfa"/>
   </g>
   <g id="patch_20">
    <path d="M 255.332842 360.429 
L 256.827962 360.429 
L 256.827962 234.245088 
L 255.332842 234.245088 
z
" clip-path="url(#p2ea69f805a)" style="fill: #faccfa"/>
   </g>
   <g id="patch_21">
    <path d="M 289.507005 360.429 
L 291.002124 360.429 
L 291.002124 302.924033 
L 289.507005 302.924033 
z
" clip-path="url(#p2ea69f805a)" style="fill: #faccfa"/>
   </g>
   <g id="patch_22">
    <path d="M 323.681167 360.429 
L 325.176287 360.429 
L 325.176287 301.996763 
L 323.681167 301.996763 
z
" clip-path="url(#p2ea69f805a)" style="fill: #faccfa"/>
   </g>
   <g id="patch_23">
    <path d="M 357.85533 360.429 
L 359.35045 360.429 
L 359.35045 175.910969 
L 357.85533 175.910969 
z
" clip-path="url(#p2ea69f805a)" style="fill: #faccfa"/>
   </g>
   <g id="patch_24">
    <path d="M 392.029493 360.429 
L 393.524612 360.429 
L 393.524612 195.68833 
L 392.029493 195.68833 
z
" clip-path="url(#p2ea69f805a)" style="fill: #faccfa"/>
   </g>
   <g id="patch_25">
    <path d="M 426.203656 360.429 
L 427.698775 360.429 
L 427.698775 177.840364 
L 426.203656 177.840364 
z
" clip-path="url(#p2ea69f805a)" style="fill: #faccfa"/>
   </g>
   <g id="patch_26">
    <path d="M 460.377818 360.429 
L 461.872938 360.429 
L 461.872938 331.182782 
L 460.377818 331.182782 
z
" clip-path="url(#p2ea69f805a)" style="fill: #faccfa"/>
   </g>
   <g id="patch_27">
    <path d="M 85.957148 360.429 
L 87.452268 360.429 
L 87.452268 233.375764 
L 85.957148 233.375764 
z
" clip-path="url(#p2ea69f805a)" style="fill: #828231"/>
   </g>
   <g id="patch_28">
    <path d="M 120.131311 360.429 
L 121.626431 360.429 
L 121.626431 175.722291 
L 120.131311 175.722291 
z
" clip-path="url(#p2ea69f805a)" style="fill: #828231"/>
   </g>
   <g id="patch_29">
    <path d="M 154.305474 360.429 
L 155.800593 360.429 
L 155.800593 175.722291 
L 154.305474 175.722291 
z
" clip-path="url(#p2ea69f805a)" style="fill: #828231"/>
   </g>
   <g id="patch_30">
    <path d="M 188.479636 360.429 
L 189.974756 360.429 
L 189.974756 265.291903 
L 188.479636 265.291903 
z
" clip-path="url(#p2ea69f805a)" style="fill: #828231"/>
   </g>
   <g id="patch_31">
    <path d="M 222.653799 360.429 
L 224.148919 360.429 
L 224.148919 273.23261 
L 222.653799 273.23261 
z
" clip-path="url(#p2ea69f805a)" style="fill: #828231"/>
   </g>
   <g id="patch_32">
    <path d="M 256.827962 360.429 
L 258.323081 360.429 
L 258.323081 211.855429 
L 256.827962 211.855429 
z
" clip-path="url(#p2ea69f805a)" style="fill: #828231"/>
   </g>
   <g id="patch_33">
    <path d="M 291.002124 360.429 
L 292.497244 360.429 
L 292.497244 288.153733 
L 291.002124 288.153733 
z
" clip-path="url(#p2ea69f805a)" style="fill: #828231"/>
   </g>
   <g id="patch_34">
    <path d="M 325.176287 360.429 
L 326.671407 360.429 
L 326.671407 270.726937 
L 325.176287 270.726937 
z
" clip-path="url(#p2ea69f805a)" style="fill: #828231"/>
   </g>
   <g id="patch_35">
    <path d="M 359.35045 360.429 
L 360.845569 360.429 
L 360.845569 208.783334 
L 359.35045 208.783334 
z
" clip-path="url(#p2ea69f805a)" style="fill: #828231"/>
   </g>
   <g id="patch_36">
    <path d="M 393.524612 360.429 
L 395.019732 360.429 
L 395.019732 176.570361 
L 393.524612 176.570361 
z
" clip-path="url(#p2ea69f805a)" style="fill: #828231"/>
   </g>
   <g id="patch_37">
    <path d="M 427.698775 360.429 
L 429.193895 360.429 
L 429.193895 160.232656 
L 427.698775 160.232656 
z
" clip-path="url(#p2ea69f805a)" style="fill: #828231"/>
   </g>
   <g id="patch_38">
    <path d="M 461.872938 360.429 
L 463.368057 360.429 
L 463.368057 325.158652 
L 461.872938 325.158652 
z
" clip-path="url(#p2ea69f805a)" style="fill: #828231"/>
   </g>
   <g id="patch_39">
    <path d="M 87.452268 360.429 
L 88.947388 360.429 
L 88.947388 207.092104 
L 87.452268 207.092104 
z
" clip-path="url(#p2ea69f805a)" style="fill: #226061"/>
   </g>
   <g id="patch_40">
    <path d="M 121.626431 360.429 
L 123.12155 360.429 
L 123.12155 123.075207 
L 121.626431 123.075207 
z
" clip-path="url(#p2ea69f805a)" style="fill: #226061"/>
   </g>
   <g id="patch_41">
    <path d="M 155.800593 360.429 
L 157.295713 360.429 
L 157.295713 123.075207 
L 155.800593 123.075207 
z
" clip-path="url(#p2ea69f805a)" style="fill: #226061"/>
   </g>
   <g id="patch_42">
    <path d="M 189.974756 360.429 
L 191.469876 360.429 
L 191.469876 173.637146 
L 189.974756 173.637146 
z
" clip-path="url(#p2ea69f805a)" style="fill: #226061"/>
   </g>
   <g id="patch_43">
    <path d="M 224.148919 360.429 
L 225.644038 360.429 
L 225.644038 175.250122 
L 224.148919 175.250122 
z
" clip-path="url(#p2ea69f805a)" style="fill: #226061"/>
   </g>
   <g id="patch_44">
    <path d="M 258.323081 360.429 
L 259.818201 360.429 
L 259.818201 204.166849 
L 258.323081 204.166849 
z
" clip-path="url(#p2ea69f805a)" style="fill: #226061"/>
   </g>
   <g id="patch_45">
    <path d="M 292.497244 360.429 
L 293.992364 360.429 
L 293.992364 157.514288 
L 292.497244 157.514288 
z
" clip-path="url(#p2ea69f805a)" style="fill: #226061"/>
   </g>
   <g id="patch_46">
    <path d="M 326.671407 360.429 
L 328.166526 360.429 
L 328.166526 317.345906 
L 326.671407 317.345906 
z
" clip-path="url(#p2ea69f805a)" style="fill: #226061"/>
   </g>
   <g id="patch_47">
    <path d="M 360.845569 360.429 
L 362.340689 360.429 
L 362.340689 268.939782 
L 360.845569 268.939782 
z
" clip-path="url(#p2ea69f805a)" style="fill: #226061"/>
   </g>
   <g id="patch_48">
    <path d="M 395.019732 360.429 
L 396.514852 360.429 
L 396.514852 259.698961 
L 395.019732 259.698961 
z
" clip-path="url(#p2ea69f805a)" style="fill: #226061"/>
   </g>
   <g id="patch_49">
    <path d="M 429.193895 360.429 
L 430.689014 360.429 
L 430.689014 248.517162 
L 429.193895 248.517162 
z
" clip-path="url(#p2ea69f805a)" style="fill: #226061"/>
   </g>
   <g id="patch_50">
    <path d="M 463.368057 360.429 
L 464.863177 360.429 
L 464.863177 107.251199 
L 463.368057 107.251199 
z
" clip-path="url(#p2ea69f805a)" style="fill: #226061"/>
   </g>
   <g id="patch_51">
    <path d="M 88.947388 360.429 
L 90.442507 360.429 
L 90.442507 198.486404 
L 88.947388 198.486404 
z
" clip-path="url(#p2ea69f805a)" style="fill: #f19d6b"/>
   </g>
   <g id="patch_52">
    <path d="M 123.12155 360.429 
L 124.61667 360.429 
L 124.61667 116.949472 
L 123.12155 116.949472 
z
" clip-path="url(#p2ea69f805a)" style="fill: #f19d6b"/>
   </g>
   <g id="patch_53">
    <path d="M 157.295713 360.429 
L 158.790833 360.429 
L 158.790833 116.949472 
L 157.295713 116.949472 
z
" clip-path="url(#p2ea69f805a)" style="fill: #f19d6b"/>
   </g>
   <g id="patch_54">
    <path d="M 191.469876 360.429 
L 192.964995 360.429 
L 192.964995 155.965982 
L 191.469876 155.965982 
z
" clip-path="url(#p2ea69f805a)" style="fill: #f19d6b"/>
   </g>
   <g id="patch_55">
    <path d="M 225.644038 360.429 
L 227.139158 360.429 
L 227.139158 182.53843 
L 225.644038 182.53843 
z
" clip-path="url(#p2ea69f805a)" style="fill: #f19d6b"/>
   </g>
   <g id="patch_56">
    <path d="M 259.818201 360.429 
L 261.313321 360.429 
L 261.313321 277.128586 
L 259.818201 277.128586 
z
" clip-path="url(#p2ea69f805a)" style="fill: #f19d6b"/>
   </g>
   <g id="patch_57">
    <path d="M 293.992364 360.429 
L 295.487483 360.429 
L 295.487483 207.256313 
L 293.992364 207.256313 
z
" clip-path="url(#p2ea69f805a)" style="fill: #f19d6b"/>
   </g>
   <g id="patch_58">
    <path d="M 328.166526 360.429 
L 329.661646 360.429 
L 329.661646 352.442065 
L 328.166526 352.442065 
z
" clip-path="url(#p2ea69f805a)" style="fill: #f19d6b"/>
   </g>
   <g id="patch_59">
    <path d="M 362.340689 360.429 
L 363.835809 360.429 
L 363.835809 297.510003 
L 362.340689 297.510003 
z
" clip-path="url(#p2ea69f805a)" style="fill: #f19d6b"/>
   </g>
   <g id="patch_60">
    <path d="M 396.514852 360.429 
L 398.009971 360.429 
L 398.009971 270.499033 
L 396.514852 270.499033 
z
" clip-path="url(#p2ea69f805a)" style="fill: #f19d6b"/>
   </g>
   <g id="patch_61">
    <path d="M 430.689014 360.429 
L 432.184134 360.429 
L 432.184134 262.394877 
L 430.689014 262.394877 
z
" clip-path="url(#p2ea69f805a)" style="fill: #f19d6b"/>
   </g>
   <g id="patch_62">
    <path d="M 464.863177 360.429 
L 466.358297 360.429 
L 466.358297 153.893457 
L 464.863177 153.893457 
z
" clip-path="url(#p2ea69f805a)" style="fill: #f19d6b"/>
   </g>
   <g id="patch_63">
    <path d="M 90.442507 360.429 
L 91.937627 360.429 
L 91.937627 244.822907 
L 90.442507 244.822907 
z
" clip-path="url(#p2ea69f805a)" style="fill: #4d734d"/>
   </g>
   <g id="patch_64">
    <path d="M 124.61667 360.429 
L 126.111789 360.429 
L 126.111789 181.09272 
L 124.61667 181.09272 
z
" clip-path="url(#p2ea69f805a)" style="fill: #4d734d"/>
   </g>
   <g id="patch_65">
    <path d="M 158.790833 360.429 
L 160.285952 360.429 
L 160.285952 181.09272 
L 158.790833 181.09272 
z
" clip-path="url(#p2ea69f805a)" style="fill: #4d734d"/>
   </g>
   <g id="patch_66">
    <path d="M 192.964995 360.429 
L 194.460115 360.429 
L 194.460115 296.892852 
L 192.964995 296.892852 
z
" clip-path="url(#p2ea69f805a)" style="fill: #4d734d"/>
   </g>
   <g id="patch_67">
    <path d="M 227.139158 360.429 
L 228.634278 360.429 
L 228.634278 304.246712 
L 227.139158 304.246712 
z
" clip-path="url(#p2ea69f805a)" style="fill: #4d734d"/>
   </g>
   <g id="patch_68">
    <path d="M 261.313321 360.429 
L 262.80844 360.429 
L 262.80844 255.185934 
L 261.313321 255.185934 
z
" clip-path="url(#p2ea69f805a)" style="fill: #4d734d"/>
   </g>
   <g id="patch_69">
    <path d="M 295.487483 360.429 
L 296.982603 360.429 
L 296.982603 315.851735 
L 295.487483 315.851735 
z
" clip-path="url(#p2ea69f805a)" style="fill: #4d734d"/>
   </g>
   <g id="patch_70">
    <path d="M 329.661646 360.429 
L 331.156766 360.429 
L 331.156766 308.403306 
L 329.661646 308.403306 
z
" clip-path="url(#p2ea69f805a)" style="fill: #4d734d"/>
   </g>
   <g id="patch_71">
    <path d="M 363.835809 360.429 
L 365.330928 360.429 
L 365.330928 268.901884 
L 363.835809 268.901884 
z
" clip-path="url(#p2ea69f805a)" style="fill: #4d734d"/>
   </g>
   <g id="patch_72">
    <path d="M 398.009971 360.429 
L 399.505091 360.429 
L 399.505091 261.461073 
L 398.009971 261.461073 
z
" clip-path="url(#p2ea69f805a)" style="fill: #4d734d"/>
   </g>
   <g id="patch_73">
    <path d="M 432.184134 360.429 
L 433.679254 360.429 
L 433.679254 251.639278 
L 432.184134 251.639278 
z
" clip-path="url(#p2ea69f805a)" style="fill: #4d734d"/>
   </g>
   <g id="patch_74">
    <path d="M 466.358297 360.429 
L 467.853416 360.429 
L 467.853416 340.15456 
L 466.358297 340.15456 
z
" clip-path="url(#p2ea69f805a)" style="fill: #4d734d"/>
   </g>
   <g id="patch_75">
    <path d="M 91.937627 360.429 
L 93.432746 360.429 
L 93.432746 171.090594 
L 91.937627 171.090594 
z
" clip-path="url(#p2ea69f805a)" style="fill: #114360"/>
   </g>
   <g id="patch_76">
    <path d="M 126.111789 360.429 
L 127.606909 360.429 
L 127.606909 85.919786 
L 126.111789 85.919786 
z
" clip-path="url(#p2ea69f805a)" style="fill: #114360"/>
   </g>
   <g id="patch_77">
    <path d="M 160.285952 360.429 
L 161.781072 360.429 
L 161.781072 85.919786 
L 160.285952 85.919786 
z
" clip-path="url(#p2ea69f805a)" style="fill: #114360"/>
   </g>
   <g id="patch_78">
    <path d="M 194.460115 360.429 
L 195.955234 360.429 
L 195.955234 144.620132 
L 194.460115 144.620132 
z
" clip-path="url(#p2ea69f805a)" style="fill: #114360"/>
   </g>
   <g id="patch_79">
    <path d="M 228.634278 360.429 
L 230.129397 360.429 
L 230.129397 152.745984 
L 228.634278 152.745984 
z
" clip-path="url(#p2ea69f805a)" style="fill: #114360"/>
   </g>
   <g id="patch_80">
    <path d="M 262.80844 360.429 
L 264.30356 360.429 
L 264.30356 266.15049 
L 262.80844 266.15049 
z
" clip-path="url(#p2ea69f805a)" style="fill: #114360"/>
   </g>
   <g id="patch_81">
    <path d="M 296.982603 360.429 
L 298.477722 360.429 
L 298.477722 139.556356 
L 296.982603 139.556356 
z
" clip-path="url(#p2ea69f805a)" style="fill: #114360"/>
   </g>
   <g id="patch_82">
    <path d="M 331.156766 360.429 
L 332.651885 360.429 
L 332.651885 351.799984 
L 331.156766 351.799984 
z
" clip-path="url(#p2ea69f805a)" style="fill: #114360"/>
   </g>
   <g id="patch_83">
    <path d="M 365.330928 360.429 
L 366.826048 360.429 
L 366.826048 336.083968 
L 365.330928 336.083968 
z
" clip-path="url(#p2ea69f805a)" style="fill: #114360"/>
   </g>
   <g id="patch_84">
    <path d="M 399.505091 360.429 
L 401.000211 360.429 
L 401.000211 323.087905 
L 399.505091 323.087905 
z
" clip-path="url(#p2ea69f805a)" style="fill: #114360"/>
   </g>
   <g id="patch_85">
    <path d="M 433.679254 360.429 
L 435.174373 360.429 
L 435.174373 322.128205 
L 433.679254 322.128205 
z
" clip-path="url(#p2ea69f805a)" style="fill: #114360"/>
   </g>
   <g id="patch_86">
    <path d="M 467.853416 360.429 
L 469.348536 360.429 
L 469.348536 126.236597 
L 467.853416 126.236597 
z
" clip-path="url(#p2ea69f805a)" style="fill: #114360"/>
   </g>
   <g id="patch_87">
    <path d="M 93.432746 360.429 
L 94.927866 360.429 
L 94.927866 165.391954 
L 93.432746 165.391954 
z
" clip-path="url(#p2ea69f805a)" style="fill: #fdb4b4"/>
   </g>
   <g id="patch_88">
    <path d="M 127.606909 360.429 
L 129.102029 360.429 
L 129.102029 81.294737 
L 127.606909 81.294737 
z
" clip-path="url(#p2ea69f805a)" style="fill: #fdb4b4"/>
   </g>
   <g id="patch_89">
    <path d="M 161.781072 360.429 
L 163.276191 360.429 
L 163.276191 81.294737 
L 161.781072 81.294737 
z
" clip-path="url(#p2ea69f805a)" style="fill: #fdb4b4"/>
   </g>
   <g id="patch_90">
    <path d="M 195.955234 360.429 
L 197.450354 360.429 
L 197.450354 146.924374 
L 195.955234 146.924374 
z
" clip-path="url(#p2ea69f805a)" style="fill: #fdb4b4"/>
   </g>
   <g id="patch_91">
    <path d="M 230.129397 360.429 
L 231.624517 360.429 
L 231.624517 147.685108 
L 230.129397 147.685108 
z
" clip-path="url(#p2ea69f805a)" style="fill: #fdb4b4"/>
   </g>
   <g id="patch_92">
    <path d="M 264.30356 360.429 
L 265.798679 360.429 
L 265.798679 266.80309 
L 264.30356 266.80309 
z
" clip-path="url(#p2ea69f805a)" style="fill: #fdb4b4"/>
   </g>
   <g id="patch_93">
    <path d="M 298.477722 360.429 
L 299.972842 360.429 
L 299.972842 136.203794 
L 298.477722 136.203794 
z
" clip-path="url(#p2ea69f805a)" style="fill: #fdb4b4"/>
   </g>
   <g id="patch_94">
    <path d="M 332.651885 360.429 
L 334.147005 360.429 
L 334.147005 271.779599 
L 332.651885 271.779599 
z
" clip-path="url(#p2ea69f805a)" style="fill: #fdb4b4"/>
   </g>
   <g id="patch_95">
    <path d="M 366.826048 360.429 
L 368.321167 360.429 
L 368.321167 322.194187 
L 366.826048 322.194187 
z
" clip-path="url(#p2ea69f805a)" style="fill: #fdb4b4"/>
   </g>
   <g id="patch_96">
    <path d="M 401.000211 360.429 
L 402.49533 360.429 
L 402.49533 323.18306 
L 401.000211 323.18306 
z
" clip-path="url(#p2ea69f805a)" style="fill: #fdb4b4"/>
   </g>
   <g id="patch_97">
    <path d="M 435.174373 360.429 
L 436.669493 360.429 
L 436.669493 321.848735 
L 435.174373 321.848735 
z
" clip-path="url(#p2ea69f805a)" style="fill: #fdb4b4"/>
   </g>
   <g id="patch_98">
    <path d="M 469.348536 360.429 
L 470.843656 360.429 
L 470.843656 115.64561 
L 469.348536 115.64561 
z
" clip-path="url(#p2ea69f805a)" style="fill: #fdb4b4"/>
   </g>
   <g id="patch_99">
    <path d="M 94.927866 360.429 
L 96.422986 360.429 
L 96.422986 109.322804 
L 94.927866 109.322804 
z
" clip-path="url(#p2ea69f805a)" style="fill: #c09036"/>
   </g>
   <g id="patch_100">
    <path d="M 129.102029 360.429 
L 130.597148 360.429 
L 130.597148 43.629 
L 129.102029 43.629 
z
" clip-path="url(#p2ea69f805a)" style="fill: #c09036"/>
   </g>
   <g id="patch_101">
    <path d="M 163.276191 360.429 
L 164.771311 360.429 
L 164.771311 43.629 
L 163.276191 43.629 
z
" clip-path="url(#p2ea69f805a)" style="fill: #c09036"/>
   </g>
   <g id="patch_102">
    <path d="M 197.450354 360.429 
L 198.945474 360.429 
L 198.945474 72.726083 
L 197.450354 72.726083 
z
" clip-path="url(#p2ea69f805a)" style="fill: #c09036"/>
   </g>
   <g id="patch_103">
    <path d="M 231.624517 360.429 
L 233.119636 360.429 
L 233.119636 47.297927 
L 231.624517 47.297927 
z
" clip-path="url(#p2ea69f805a)" style="fill: #c09036"/>
   </g>
   <g id="patch_104">
    <path d="M 265.798679 360.429 
L 267.293799 360.429 
L 267.293799 184.954429 
L 265.798679 184.954429 
z
" clip-path="url(#p2ea69f805a)" style="fill: #c09036"/>
   </g>
   <g id="patch_105">
    <path d="M 299.972842 360.429 
L 301.467962 360.429 
L 301.467962 43.629 
L 299.972842 43.629 
z
" clip-path="url(#p2ea69f805a)" style="fill: #c09036"/>
   </g>
   <g id="patch_106">
    <path d="M 334.147005 360.429 
L 335.642124 360.429 
L 335.642124 101.135022 
L 334.147005 101.135022 
z
" clip-path="url(#p2ea69f805a)" style="fill: #c09036"/>
   </g>
   <g id="patch_107">
    <path d="M 368.321167 360.429 
L 369.816287 360.429 
L 369.816287 147.498133 
L 368.321167 147.498133 
z
" clip-path="url(#p2ea69f805a)" style="fill: #c09036"/>
   </g>
   <g id="patch_108">
    <path d="M 402.49533 360.429 
L 403.99045 360.429 
L 403.99045 137.773653 
L 402.49533 137.773653 
z
" clip-path="url(#p2ea69f805a)" style="fill: #c09036"/>
   </g>
   <g id="patch_109">
    <path d="M 436.669493 360.429 
L 438.164612 360.429 
L 438.164612 134.567147 
L 436.669493 134.567147 
z
" clip-path="url(#p2ea69f805a)" style="fill: #c09036"/>
   </g>
   <g id="patch_110">
    <path d="M 470.843656 360.429 
L 472.338775 360.429 
L 472.338775 91.380609 
L 470.843656 91.380609 
z
" clip-path="url(#p2ea69f805a)" style="fill: #c09036"/>
   </g>
   <g id="patch_111">
    <path d="M 96.422986 360.429 
L 97.918105 360.429 
L 97.918105 216.467365 
L 96.422986 216.467365 
z
" clip-path="url(#p2ea69f805a)" style="fill: #175262"/>
   </g>
   <g id="patch_112">
    <path d="M 130.597148 360.429 
L 132.092268 360.429 
L 132.092268 121.262807 
L 130.597148 121.262807 
z
" clip-path="url(#p2ea69f805a)" style="fill: #175262"/>
   </g>
   <g id="patch_113">
    <path d="M 164.771311 360.429 
L 166.266431 360.429 
L 166.266431 121.262807 
L 164.771311 121.262807 
z
" clip-path="url(#p2ea69f805a)" style="fill: #175262"/>
   </g>
   <g id="patch_114">
    <path d="M 198.945474 360.429 
L 200.440593 360.429 
L 200.440593 164.905711 
L 198.945474 164.905711 
z
" clip-path="url(#p2ea69f805a)" style="fill: #175262"/>
   </g>
   <g id="patch_115">
    <path d="M 233.119636 360.429 
L 234.614756 360.429 
L 234.614756 149.337953 
L 233.119636 149.337953 
z
" clip-path="url(#p2ea69f805a)" style="fill: #175262"/>
   </g>
   <g id="patch_116">
    <path d="M 267.293799 360.429 
L 268.788919 360.429 
L 268.788919 198.705061 
L 267.293799 198.705061 
z
" clip-path="url(#p2ea69f805a)" style="fill: #175262"/>
   </g>
   <g id="patch_117">
    <path d="M 301.467962 360.429 
L 302.963081 360.429 
L 302.963081 122.327667 
L 301.467962 122.327667 
z
" clip-path="url(#p2ea69f805a)" style="fill: #175262"/>
   </g>
   <g id="patch_118">
    <path d="M 335.642124 360.429 
L 337.137244 360.429 
L 337.137244 324.544576 
L 335.642124 324.544576 
z
" clip-path="url(#p2ea69f805a)" style="fill: #175262"/>
   </g>
   <g id="patch_119">
    <path d="M 369.816287 360.429 
L 371.311407 360.429 
L 371.311407 284.876949 
L 369.816287 284.876949 
z
" clip-path="url(#p2ea69f805a)" style="fill: #175262"/>
   </g>
   <g id="patch_120">
    <path d="M 403.99045 360.429 
L 405.485569 360.429 
L 405.485569 271.918754 
L 403.99045 271.918754 
z
" clip-path="url(#p2ea69f805a)" style="fill: #175262"/>
   </g>
   <g id="patch_121">
    <path d="M 438.164612 360.429 
L 439.659732 360.429 
L 439.659732 262.862086 
L 438.164612 262.862086 
z
" clip-path="url(#p2ea69f805a)" style="fill: #175262"/>
   </g>
   <g id="patch_122">
    <path d="M 472.338775 360.429 
L 473.833895 360.429 
L 473.833895 43.629 
L 472.338775 43.629 
z
" clip-path="url(#p2ea69f805a)" style="fill: #175262"/>
   </g>
   <g id="patch_123">
    <path d="M 97.918105 360.429 
L 99.413225 360.429 
L 99.413225 158.529982 
L 97.918105 158.529982 
z
" clip-path="url(#p2ea69f805a)" style="fill: #fcbfd6"/>
   </g>
   <g id="patch_124">
    <path d="M 132.092268 360.429 
L 133.587388 360.429 
L 133.587388 107.468054 
L 132.092268 107.468054 
z
" clip-path="url(#p2ea69f805a)" style="fill: #fcbfd6"/>
   </g>
   <g id="patch_125">
    <path d="M 166.266431 360.429 
L 167.76155 360.429 
L 167.76155 107.468054 
L 166.266431 107.468054 
z
" clip-path="url(#p2ea69f805a)" style="fill: #fcbfd6"/>
   </g>
   <g id="patch_126">
    <path d="M 200.440593 360.429 
L 201.935713 360.429 
L 201.935713 157.62384 
L 200.440593 157.62384 
z
" clip-path="url(#p2ea69f805a)" style="fill: #fcbfd6"/>
   </g>
   <g id="patch_127">
    <path d="M 234.614756 360.429 
L 236.109876 360.429 
L 236.109876 175.082506 
L 234.614756 175.082506 
z
" clip-path="url(#p2ea69f805a)" style="fill: #fcbfd6"/>
   </g>
   <g id="patch_128">
    <path d="M 268.788919 360.429 
L 270.284038 360.429 
L 270.284038 153.857104 
L 268.788919 153.857104 
z
" clip-path="url(#p2ea69f805a)" style="fill: #fcbfd6"/>
   </g>
   <g id="patch_129">
    <path d="M 302.963081 360.429 
L 304.458201 360.429 
L 304.458201 155.962101 
L 302.963081 155.962101 
z
" clip-path="url(#p2ea69f805a)" style="fill: #fcbfd6"/>
   </g>
   <g id="patch_130">
    <path d="M 337.137244 360.429 
L 338.632364 360.429 
L 338.632364 168.143389 
L 337.137244 168.143389 
z
" clip-path="url(#p2ea69f805a)" style="fill: #fcbfd6"/>
   </g>
   <g id="patch_131">
    <path d="M 371.311407 360.429 
L 372.806526 360.429 
L 372.806526 333.684756 
L 371.311407 333.684756 
z
" clip-path="url(#p2ea69f805a)" style="fill: #fcbfd6"/>
   </g>
   <g id="patch_132">
    <path d="M 405.485569 360.429 
L 406.980689 360.429 
L 406.980689 330.183225 
L 405.485569 330.183225 
z
" clip-path="url(#p2ea69f805a)" style="fill: #fcbfd6"/>
   </g>
   <g id="patch_133">
    <path d="M 439.659732 360.429 
L 441.154852 360.429 
L 441.154852 327.514383 
L 439.659732 327.514383 
z
" clip-path="url(#p2ea69f805a)" style="fill: #fcbfd6"/>
   </g>
   <g id="patch_134">
    <path d="M 473.833895 360.429 
L 475.329014 360.429 
L 475.329014 220.461784 
L 473.833895 220.461784 
z
" clip-path="url(#p2ea69f805a)" style="fill: #fcbfd6"/>
   </g>
   <g id="patch_135">
    <path d="M 99.413225 360.429 
L 100.908344 360.429 
L 100.908344 43.629 
L 99.413225 43.629 
z
" clip-path="url(#p2ea69f805a)" style="fill: #fca890"/>
   </g>
   <g id="patch_136">
    <path d="M 133.587388 360.429 
L 135.082507 360.429 
L 135.082507 44.164419 
L 133.587388 44.164419 
z
" clip-path="url(#p2ea69f805a)" style="fill: #fca890"/>
   </g>
   <g id="patch_137">
    <path d="M 167.76155 360.429 
L 169.25667 360.429 
L 169.25667 44.164419 
L 167.76155 44.164419 
z
" clip-path="url(#p2ea69f805a)" style="fill: #fca890"/>
   </g>
   <g id="patch_138">
    <path d="M 201.935713 360.429 
L 203.430833 360.429 
L 203.430833 45.938467 
L 201.935713 45.938467 
z
" clip-path="url(#p2ea69f805a)" style="fill: #fca890"/>
   </g>
   <g id="patch_139">
    <path d="M 236.109876 360.429 
L 237.604995 360.429 
L 237.604995 44.066165 
L 236.109876 44.066165 
z
" clip-path="url(#p2ea69f805a)" style="fill: #fca890"/>
   </g>
   <g id="patch_140">
    <path d="M 270.284038 360.429 
L 271.779158 360.429 
L 271.779158 44.932683 
L 270.284038 44.932683 
z
" clip-path="url(#p2ea69f805a)" style="fill: #fca890"/>
   </g>
   <g id="patch_141">
    <path d="M 304.458201 360.429 
L 305.953321 360.429 
L 305.953321 56.731143 
L 304.458201 56.731143 
z
" clip-path="url(#p2ea69f805a)" style="fill: #fca890"/>
   </g>
   <g id="patch_142">
    <path d="M 338.632364 360.429 
L 340.127483 360.429 
L 340.127483 354.824601 
L 338.632364 354.824601 
z
" clip-path="url(#p2ea69f805a)" style="fill: #fca890"/>
   </g>
   <g id="patch_143">
    <path d="M 372.806526 360.429 
L 374.301646 360.429 
L 374.301646 260.183605 
L 372.806526 260.183605 
z
" clip-path="url(#p2ea69f805a)" style="fill: #fca890"/>
   </g>
   <g id="patch_144">
    <path d="M 406.980689 360.429 
L 408.475809 360.429 
L 408.475809 206.006063 
L 406.980689 206.006063 
z
" clip-path="url(#p2ea69f805a)" style="fill: #fca890"/>
   </g>
   <g id="patch_145">
    <path d="M 441.154852 360.429 
L 442.649971 360.429 
L 442.649971 196.326116 
L 441.154852 196.326116 
z
" clip-path="url(#p2ea69f805a)" style="fill: #fca890"/>
   </g>
   <g id="patch_146">
    <path d="M 475.329014 360.429 
L 476.824134 360.429 
L 476.824134 129.820806 
L 475.329014 129.820806 
z
" clip-path="url(#p2ea69f805a)" style="fill: #fca890"/>
   </g>
   <g id="patch_147">
    <path d="M 100.908344 360.429 
L 102.403464 360.429 
L 102.403464 44.43173 
L 100.908344 44.43173 
z
" clip-path="url(#p2ea69f805a)" style="fill: #356a59"/>
   </g>
   <g id="patch_148">
    <path d="M 135.082507 360.429 
L 136.577627 360.429 
L 136.577627 43.731578 
L 135.082507 43.731578 
z
" clip-path="url(#p2ea69f805a)" style="fill: #356a59"/>
   </g>
   <g id="patch_149">
    <path d="M 169.25667 360.429 
L 170.751789 360.429 
L 170.751789 43.731578 
L 169.25667 43.731578 
z
" clip-path="url(#p2ea69f805a)" style="fill: #356a59"/>
   </g>
   <g id="patch_150">
    <path d="M 203.430833 360.429 
L 204.925952 360.429 
L 204.925952 43.629 
L 203.430833 43.629 
z
" clip-path="url(#p2ea69f805a)" style="fill: #356a59"/>
   </g>
   <g id="patch_151">
    <path d="M 237.604995 360.429 
L 239.100115 360.429 
L 239.100115 43.629 
L 237.604995 43.629 
z
" clip-path="url(#p2ea69f805a)" style="fill: #356a59"/>
   </g>
   <g id="patch_152">
    <path d="M 271.779158 360.429 
L 273.274278 360.429 
L 273.274278 43.629 
L 271.779158 43.629 
z
" clip-path="url(#p2ea69f805a)" style="fill: #356a59"/>
   </g>
   <g id="patch_153">
    <path d="M 305.953321 360.429 
L 307.44844 360.429 
L 307.44844 56.228997 
L 305.953321 56.228997 
z
" clip-path="url(#p2ea69f805a)" style="fill: #356a59"/>
   </g>
   <g id="patch_154">
    <path d="M 340.127483 360.429 
L 341.622603 360.429 
L 341.622603 43.629 
L 340.127483 43.629 
z
" clip-path="url(#p2ea69f805a)" style="fill: #356a59"/>
   </g>
   <g id="patch_155">
    <path d="M 374.301646 360.429 
L 375.796766 360.429 
L 375.796766 137.164333 
L 374.301646 137.164333 
z
" clip-path="url(#p2ea69f805a)" style="fill: #356a59"/>
   </g>
   <g id="patch_156">
    <path d="M 408.475809 360.429 
L 409.970928 360.429 
L 409.970928 131.302537 
L 408.475809 131.302537 
z
" clip-path="url(#p2ea69f805a)" style="fill: #356a59"/>
   </g>
   <g id="patch_157">
    <path d="M 442.649971 360.429 
L 444.145091 360.429 
L 444.145091 124.730808 
L 442.649971 124.730808 
z
" clip-path="url(#p2ea69f805a)" style="fill: #356a59"/>
   </g>
   <g id="patch_158">
    <path d="M 476.824134 360.429 
L 478.319254 360.429 
L 478.319254 131.291859 
L 476.824134 131.291859 
z
" clip-path="url(#p2ea69f805a)" style="fill: #356a59"/>
   </g>
   <g id="patch_159">
    <path d="M 102.403464 360.429 
L 103.898584 360.429 
L 103.898584 176.114263 
L 102.403464 176.114263 
z
" clip-path="url(#p2ea69f805a)" style="fill: #0d315d"/>
   </g>
   <g id="patch_160">
    <path d="M 136.577627 360.429 
L 138.072746 360.429 
L 138.072746 176.681793 
L 136.577627 176.681793 
z
" clip-path="url(#p2ea69f805a)" style="fill: #0d315d"/>
   </g>
   <g id="patch_161">
    <path d="M 170.751789 360.429 
L 172.246909 360.429 
L 172.246909 176.681793 
L 170.751789 176.681793 
z
" clip-path="url(#p2ea69f805a)" style="fill: #0d315d"/>
   </g>
   <g id="patch_162">
    <path d="M 204.925952 360.429 
L 206.421072 360.429 
L 206.421072 180.153492 
L 204.925952 180.153492 
z
" clip-path="url(#p2ea69f805a)" style="fill: #0d315d"/>
   </g>
   <g id="patch_163">
    <path d="M 239.100115 360.429 
L 240.595234 360.429 
L 240.595234 177.380667 
L 239.100115 177.380667 
z
" clip-path="url(#p2ea69f805a)" style="fill: #0d315d"/>
   </g>
   <g id="patch_164">
    <path d="M 273.274278 360.429 
L 274.769397 360.429 
L 274.769397 179.693182 
L 273.274278 179.693182 
z
" clip-path="url(#p2ea69f805a)" style="fill: #0d315d"/>
   </g>
   <g id="patch_165">
    <path d="M 307.44844 360.429 
L 308.94356 360.429 
L 308.94356 184.189828 
L 307.44844 184.189828 
z
" clip-path="url(#p2ea69f805a)" style="fill: #0d315d"/>
   </g>
   <g id="patch_166">
    <path d="M 341.622603 360.429 
L 343.117722 360.429 
L 343.117722 356.24739 
L 341.622603 356.24739 
z
" clip-path="url(#p2ea69f805a)" style="fill: #0d315d"/>
   </g>
   <g id="patch_167">
    <path d="M 375.796766 360.429 
L 377.291885 360.429 
L 377.291885 294.032167 
L 375.796766 294.032167 
z
" clip-path="url(#p2ea69f805a)" style="fill: #0d315d"/>
   </g>
   <g id="patch_168">
    <path d="M 409.970928 360.429 
L 411.466048 360.429 
L 411.466048 277.907445 
L 409.970928 277.907445 
z
" clip-path="url(#p2ea69f805a)" style="fill: #0d315d"/>
   </g>
   <g id="patch_169">
    <path d="M 444.145091 360.429 
L 445.640211 360.429 
L 445.640211 270.983508 
L 444.145091 270.983508 
z
" clip-path="url(#p2ea69f805a)" style="fill: #0d315d"/>
   </g>
   <g id="patch_170">
    <path d="M 478.319254 360.429 
L 479.814373 360.429 
L 479.814373 226.452091 
L 478.319254 226.452091 
z
" clip-path="url(#p2ea69f805a)" style="fill: #0d315d"/>
   </g>
   <g id="patch_171">
    <path d="M 103.898584 360.429 
L 105.393703 360.429 
L 105.393703 192.815076 
L 103.898584 192.815076 
z
" clip-path="url(#p2ea69f805a)" style="fill: #a18a2b"/>
   </g>
   <g id="patch_172">
    <path d="M 138.072746 360.429 
L 139.567866 360.429 
L 139.567866 135.472556 
L 138.072746 135.472556 
z
" clip-path="url(#p2ea69f805a)" style="fill: #a18a2b"/>
   </g>
   <g id="patch_173">
    <path d="M 172.246909 360.429 
L 173.742029 360.429 
L 173.742029 135.472556 
L 172.246909 135.472556 
z
" clip-path="url(#p2ea69f805a)" style="fill: #a18a2b"/>
   </g>
   <g id="patch_174">
    <path d="M 206.421072 360.429 
L 207.916191 360.429 
L 207.916191 161.493766 
L 206.421072 161.493766 
z
" clip-path="url(#p2ea69f805a)" style="fill: #a18a2b"/>
   </g>
   <g id="patch_175">
    <path d="M 240.595234 360.429 
L 242.090354 360.429 
L 242.090354 137.763477 
L 240.595234 137.763477 
z
" clip-path="url(#p2ea69f805a)" style="fill: #a18a2b"/>
   </g>
   <g id="patch_176">
    <path d="M 274.769397 360.429 
L 276.264517 360.429 
L 276.264517 225.389964 
L 274.769397 225.389964 
z
" clip-path="url(#p2ea69f805a)" style="fill: #a18a2b"/>
   </g>
   <g id="patch_177">
    <path d="M 308.94356 360.429 
L 310.438679 360.429 
L 310.438679 106.497747 
L 308.94356 106.497747 
z
" clip-path="url(#p2ea69f805a)" style="fill: #a18a2b"/>
   </g>
   <g id="patch_178">
    <path d="M 343.117722 360.429 
L 344.612842 360.429 
L 344.612842 330.478847 
L 343.117722 330.478847 
z
" clip-path="url(#p2ea69f805a)" style="fill: #a18a2b"/>
   </g>
   <g id="patch_179">
    <path d="M 377.291885 360.429 
L 378.787005 360.429 
L 378.787005 230.563703 
L 377.291885 230.563703 
z
" clip-path="url(#p2ea69f805a)" style="fill: #a18a2b"/>
   </g>
   <g id="patch_180">
    <path d="M 411.466048 360.429 
L 412.961167 360.429 
L 412.961167 228.61519 
L 411.466048 228.61519 
z
" clip-path="url(#p2ea69f805a)" style="fill: #a18a2b"/>
   </g>
   <g id="patch_181">
    <path d="M 445.640211 360.429 
L 447.13533 360.429 
L 447.13533 214.554028 
L 445.640211 214.554028 
z
" clip-path="url(#p2ea69f805a)" style="fill: #a18a2b"/>
   </g>
   <g id="patch_182">
    <path d="M 479.814373 360.429 
L 481.309493 360.429 
L 481.309493 83.405775 
L 479.814373 83.405775 
z
" clip-path="url(#p2ea69f805a)" style="fill: #a18a2b"/>
   </g>
   <g id="patch_183">
    <path d="M 105.393703 360.429 
L 106.888823 360.429 
L 106.888823 193.464795 
L 105.393703 193.464795 
z
" clip-path="url(#p2ea69f805a)" style="fill: #677b3e"/>
   </g>
   <g id="patch_184">
    <path d="M 139.567866 360.429 
L 141.062986 360.429 
L 141.062986 135.428269 
L 139.567866 135.428269 
z
" clip-path="url(#p2ea69f805a)" style="fill: #677b3e"/>
   </g>
   <g id="patch_185">
    <path d="M 173.742029 360.429 
L 175.237148 360.429 
L 175.237148 135.428269 
L 173.742029 135.428269 
z
" clip-path="url(#p2ea69f805a)" style="fill: #677b3e"/>
   </g>
   <g id="patch_186">
    <path d="M 207.916191 360.429 
L 209.411311 360.429 
L 209.411311 172.809901 
L 207.916191 172.809901 
z
" clip-path="url(#p2ea69f805a)" style="fill: #677b3e"/>
   </g>
   <g id="patch_187">
    <path d="M 242.090354 360.429 
L 243.585474 360.429 
L 243.585474 149.468303 
L 242.090354 149.468303 
z
" clip-path="url(#p2ea69f805a)" style="fill: #677b3e"/>
   </g>
   <g id="patch_188">
    <path d="M 276.264517 360.429 
L 277.759636 360.429 
L 277.759636 235.420006 
L 276.264517 235.420006 
z
" clip-path="url(#p2ea69f805a)" style="fill: #677b3e"/>
   </g>
   <g id="patch_189">
    <path d="M 310.438679 360.429 
L 311.933799 360.429 
L 311.933799 113.76615 
L 310.438679 113.76615 
z
" clip-path="url(#p2ea69f805a)" style="fill: #677b3e"/>
   </g>
   <g id="patch_190">
    <path d="M 344.612842 360.429 
L 346.107962 360.429 
L 346.107962 344.737565 
L 344.612842 344.737565 
z
" clip-path="url(#p2ea69f805a)" style="fill: #677b3e"/>
   </g>
   <g id="patch_191">
    <path d="M 378.787005 360.429 
L 380.282124 360.429 
L 380.282124 322.231477 
L 378.787005 322.231477 
z
" clip-path="url(#p2ea69f805a)" style="fill: #677b3e"/>
   </g>
   <g id="patch_192">
    <path d="M 412.961167 360.429 
L 414.456287 360.429 
L 414.456287 320.696665 
L 412.961167 320.696665 
z
" clip-path="url(#p2ea69f805a)" style="fill: #677b3e"/>
   </g>
   <g id="patch_193">
    <path d="M 447.13533 360.429 
L 448.63045 360.429 
L 448.63045 317.860615 
L 447.13533 317.860615 
z
" clip-path="url(#p2ea69f805a)" style="fill: #677b3e"/>
   </g>
   <g id="patch_194">
    <path d="M 481.309493 360.429 
L 482.804612 360.429 
L 482.804612 100.661004 
L 481.309493 100.661004 
z
" clip-path="url(#p2ea69f805a)" style="fill: #677b3e"/>
   </g>
   <g id="patch_195">
    <path d="M 106.888823 360.429 
L 108.383943 360.429 
L 108.383943 329.418249 
L 106.888823 329.418249 
z
" clip-path="url(#p2ea69f805a)" style="fill: #dd954d"/>
   </g>
   <g id="patch_196">
    <path d="M 141.062986 360.429 
L 142.558105 360.429 
L 142.558105 315.412465 
L 141.062986 315.412465 
z
" clip-path="url(#p2ea69f805a)" style="fill: #dd954d"/>
   </g>
   <g id="patch_197">
    <path d="M 175.237148 360.429 
L 176.732268 360.429 
L 176.732268 315.412465 
L 175.237148 315.412465 
z
" clip-path="url(#p2ea69f805a)" style="fill: #dd954d"/>
   </g>
   <g id="patch_198">
    <path d="M 209.411311 360.429 
L 210.906431 360.429 
L 210.906431 336.784308 
L 209.411311 336.784308 
z
" clip-path="url(#p2ea69f805a)" style="fill: #dd954d"/>
   </g>
   <g id="patch_199">
    <path d="M 243.585474 360.429 
L 245.080593 360.429 
L 245.080593 339.019878 
L 243.585474 339.019878 
z
" clip-path="url(#p2ea69f805a)" style="fill: #dd954d"/>
   </g>
   <g id="patch_200">
    <path d="M 277.759636 360.429 
L 279.254756 360.429 
L 279.254756 322.444725 
L 277.759636 322.444725 
z
" clip-path="url(#p2ea69f805a)" style="fill: #dd954d"/>
   </g>
   <g id="patch_201">
    <path d="M 311.933799 360.429 
L 313.428919 360.429 
L 313.428919 343.357648 
L 311.933799 343.357648 
z
" clip-path="url(#p2ea69f805a)" style="fill: #dd954d"/>
   </g>
   <g id="patch_202">
    <path d="M 346.107962 360.429 
L 347.603081 360.429 
L 347.603081 338.712961 
L 346.107962 338.712961 
z
" clip-path="url(#p2ea69f805a)" style="fill: #dd954d"/>
   </g>
   <g id="patch_203">
    <path d="M 380.282124 360.429 
L 381.777244 360.429 
L 381.777244 320.097793 
L 380.282124 320.097793 
z
" clip-path="url(#p2ea69f805a)" style="fill: #dd954d"/>
   </g>
   <g id="patch_204">
    <path d="M 414.456287 360.429 
L 415.951407 360.429 
L 415.951407 312.636253 
L 414.456287 312.636253 
z
" clip-path="url(#p2ea69f805a)" style="fill: #dd954d"/>
   </g>
   <g id="patch_205">
    <path d="M 448.63045 360.429 
L 450.125569 360.429 
L 450.125569 307.828393 
L 448.63045 307.828393 
z
" clip-path="url(#p2ea69f805a)" style="fill: #dd954d"/>
   </g>
   <g id="patch_206">
    <path d="M 482.804612 360.429 
L 484.299732 360.429 
L 484.299732 351.663977 
L 482.804612 351.663977 
z
" clip-path="url(#p2ea69f805a)" style="fill: #dd954d"/>
   </g>
   <g id="patch_207">
    <path d="M 108.383943 360.429 
L 109.879062 360.429 
L 109.879062 292.653907 
L 108.383943 292.653907 
z
" clip-path="url(#p2ea69f805a)" style="fill: #08255b"/>
   </g>
   <g id="patch_208">
    <path d="M 142.558105 360.429 
L 144.053225 360.429 
L 144.053225 249.1919 
L 142.558105 249.1919 
z
" clip-path="url(#p2ea69f805a)" style="fill: #08255b"/>
   </g>
   <g id="patch_209">
    <path d="M 176.732268 360.429 
L 178.227388 360.429 
L 178.227388 249.1919 
L 176.732268 249.1919 
z
" clip-path="url(#p2ea69f805a)" style="fill: #08255b"/>
   </g>
   <g id="patch_210">
    <path d="M 210.906431 360.429 
L 212.40155 360.429 
L 212.40155 313.643737 
L 210.906431 313.643737 
z
" clip-path="url(#p2ea69f805a)" style="fill: #08255b"/>
   </g>
   <g id="patch_211">
    <path d="M 245.080593 360.429 
L 246.575713 360.429 
L 246.575713 319.295812 
L 245.080593 319.295812 
z
" clip-path="url(#p2ea69f805a)" style="fill: #08255b"/>
   </g>
   <g id="patch_212">
    <path d="M 279.254756 360.429 
L 280.749876 360.429 
L 280.749876 295.928968 
L 279.254756 295.928968 
z
" clip-path="url(#p2ea69f805a)" style="fill: #08255b"/>
   </g>
   <g id="patch_213">
    <path d="M 313.428919 360.429 
L 314.924038 360.429 
L 314.924038 333.069309 
L 313.428919 333.069309 
z
" clip-path="url(#p2ea69f805a)" style="fill: #08255b"/>
   </g>
   <g id="patch_214">
    <path d="M 347.603081 360.429 
L 349.098201 360.429 
L 349.098201 331.521252 
L 347.603081 331.521252 
z
" clip-path="url(#p2ea69f805a)" style="fill: #08255b"/>
   </g>
   <g id="patch_215">
    <path d="M 381.777244 360.429 
L 383.272364 360.429 
L 383.272364 294.871316 
L 381.777244 294.871316 
z
" clip-path="url(#p2ea69f805a)" style="fill: #08255b"/>
   </g>
   <g id="patch_216">
    <path d="M 415.951407 360.429 
L 417.446526 360.429 
L 417.446526 283.973289 
L 415.951407 283.973289 
z
" clip-path="url(#p2ea69f805a)" style="fill: #08255b"/>
   </g>
   <g id="patch_217">
    <path d="M 450.125569 360.429 
L 451.620689 360.429 
L 451.620689 282.267446 
L 450.125569 282.267446 
z
" clip-path="url(#p2ea69f805a)" style="fill: #08255b"/>
   </g>
   <g id="patch_218">
    <path d="M 484.299732 360.429 
L 485.794852 360.429 
L 485.794852 349.274862 
L 484.299732 349.274862 
z
" clip-path="url(#p2ea69f805a)" style="fill: #08255b"/>
   </g>
   <g id="patch_219">
    <path d="M 109.879062 360.429 
L 111.374182 360.429 
L 111.374182 235.912666 
L 109.879062 235.912666 
z
" clip-path="url(#p2ea69f805a)" style="fill: #fdaea2"/>
   </g>
   <g id="patch_220">
    <path d="M 144.053225 360.429 
L 145.548344 360.429 
L 145.548344 176.527845 
L 144.053225 176.527845 
z
" clip-path="url(#p2ea69f805a)" style="fill: #fdaea2"/>
   </g>
   <g id="patch_221">
    <path d="M 178.227388 360.429 
L 179.722507 360.429 
L 179.722507 176.527845 
L 178.227388 176.527845 
z
" clip-path="url(#p2ea69f805a)" style="fill: #fdaea2"/>
   </g>
   <g id="patch_222">
    <path d="M 212.40155 360.429 
L 213.89667 360.429 
L 213.89667 204.772553 
L 212.40155 204.772553 
z
" clip-path="url(#p2ea69f805a)" style="fill: #fdaea2"/>
   </g>
   <g id="patch_223">
    <path d="M 246.575713 360.429 
L 248.070833 360.429 
L 248.070833 208.632218 
L 246.575713 208.632218 
z
" clip-path="url(#p2ea69f805a)" style="fill: #fdaea2"/>
   </g>
   <g id="patch_224">
    <path d="M 280.749876 360.429 
L 282.244995 360.429 
L 282.244995 220.606203 
L 280.749876 220.606203 
z
" clip-path="url(#p2ea69f805a)" style="fill: #fdaea2"/>
   </g>
   <g id="patch_225">
    <path d="M 314.924038 360.429 
L 316.419158 360.429 
L 316.419158 196.94806 
L 314.924038 196.94806 
z
" clip-path="url(#p2ea69f805a)" style="fill: #fdaea2"/>
   </g>
   <g id="patch_226">
    <path d="M 349.098201 360.429 
L 350.593321 360.429 
L 350.593321 328.136096 
L 349.098201 328.136096 
z
" clip-path="url(#p2ea69f805a)" style="fill: #fdaea2"/>
   </g>
   <g id="patch_227">
    <path d="M 383.272364 360.429 
L 384.767483 360.429 
L 384.767483 281.708757 
L 383.272364 281.708757 
z
" clip-path="url(#p2ea69f805a)" style="fill: #fdaea2"/>
   </g>
   <g id="patch_228">
    <path d="M 417.446526 360.429 
L 418.941646 360.429 
L 418.941646 273.806102 
L 417.446526 273.806102 
z
" clip-path="url(#p2ea69f805a)" style="fill: #fdaea2"/>
   </g>
   <g id="patch_229">
    <path d="M 451.620689 360.429 
L 453.115809 360.429 
L 453.115809 264.152057 
L 451.620689 264.152057 
z
" clip-path="url(#p2ea69f805a)" style="fill: #fdaea2"/>
   </g>
   <g id="patch_230">
    <path d="M 485.794852 360.429 
L 487.289971 360.429 
L 487.289971 161.404763 
L 485.794852 161.404763 
z
" clip-path="url(#p2ea69f805a)" style="fill: #fdaea2"/>
   </g>
   <g id="patch_231">
    <path d="M 111.374182 360.429 
L 112.869301 360.429 
L 112.869301 255.266725 
L 111.374182 255.266725 
z
" clip-path="url(#p2ea69f805a)" style="fill: #fbc6e8"/>
   </g>
   <g id="patch_232">
    <path d="M 145.548344 360.429 
L 147.043464 360.429 
L 147.043464 203.194297 
L 145.548344 203.194297 
z
" clip-path="url(#p2ea69f805a)" style="fill: #fbc6e8"/>
   </g>
   <g id="patch_233">
    <path d="M 179.722507 360.429 
L 181.217627 360.429 
L 181.217627 203.194297 
L 179.722507 203.194297 
z
" clip-path="url(#p2ea69f805a)" style="fill: #fbc6e8"/>
   </g>
   <g id="patch_234">
    <path d="M 213.89667 360.429 
L 215.391789 360.429 
L 215.391789 227.025602 
L 213.89667 227.025602 
z
" clip-path="url(#p2ea69f805a)" style="fill: #fbc6e8"/>
   </g>
   <g id="patch_235">
    <path d="M 248.070833 360.429 
L 249.565952 360.429 
L 249.565952 242.758646 
L 248.070833 242.758646 
z
" clip-path="url(#p2ea69f805a)" style="fill: #fbc6e8"/>
   </g>
   <g id="patch_236">
    <path d="M 282.244995 360.429 
L 283.740115 360.429 
L 283.740115 253.598819 
L 282.244995 253.598819 
z
" clip-path="url(#p2ea69f805a)" style="fill: #fbc6e8"/>
   </g>
   <g id="patch_237">
    <path d="M 316.419158 360.429 
L 317.914278 360.429 
L 317.914278 238.986135 
L 316.419158 238.986135 
z
" clip-path="url(#p2ea69f805a)" style="fill: #fbc6e8"/>
   </g>
   <g id="patch_238">
    <path d="M 350.593321 360.429 
L 352.08844 360.429 
L 352.08844 354.971357 
L 350.593321 354.971357 
z
" clip-path="url(#p2ea69f805a)" style="fill: #fbc6e8"/>
   </g>
   <g id="patch_239">
    <path d="M 384.767483 360.429 
L 386.262603 360.429 
L 386.262603 332.676013 
L 384.767483 332.676013 
z
" clip-path="url(#p2ea69f805a)" style="fill: #fbc6e8"/>
   </g>
   <g id="patch_240">
    <path d="M 418.941646 360.429 
L 420.436766 360.429 
L 420.436766 318.540379 
L 418.941646 318.540379 
z
" clip-path="url(#p2ea69f805a)" style="fill: #fbc6e8"/>
   </g>
   <g id="patch_241">
    <path d="M 453.115809 360.429 
L 454.610928 360.429 
L 454.610928 316.883209 
L 453.115809 316.883209 
z
" clip-path="url(#p2ea69f805a)" style="fill: #fbc6e8"/>
   </g>
   <g id="patch_242">
    <path d="M 487.289971 360.429 
L 488.785091 360.429 
L 488.785091 222.710786 
L 487.289971 222.710786 
z
" clip-path="url(#p2ea69f805a)" style="fill: #fbc6e8"/>
   </g>
   <g id="matplotlib.axis_1">
    <g id="xtick_1">
     <g id="line2d_1">
      <defs>
       <path id="mf7be20316e" d="M 0 0 
L 0 3.5 
" style="stroke: #000000; stroke-width: 0.8"/>
      </defs>
      <g>
       <use xlink:href="#mf7be20316e" x="97.918105" y="360.429" style="stroke: #000000; stroke-width: 0.8"/>
      </g>
     </g>
     <g id="text_1">
      <!-- DH -->
      <g transform="translate(85.741855 379.5865) scale(0.16 -0.16)">
       <defs>
        <path id="DejaVuSans-44" d="M 1259 4147 
L 1259 519 
L 2022 519 
Q 2988 519 3436 956 
Q 3884 1394 3884 2338 
Q 3884 3275 3436 3711 
Q 2988 4147 2022 4147 
L 1259 4147 
z
M 628 4666 
L 1925 4666 
Q 3281 4666 3915 4102 
Q 4550 3538 4550 2338 
Q 4550 1131 3912 565 
Q 3275 0 1925 0 
L 628 0 
L 628 4666 
z
" transform="scale(0.015625)"/>
        <path id="DejaVuSans-48" d="M 628 4666 
L 1259 4666 
L 1259 2753 
L 3553 2753 
L 3553 4666 
L 4184 4666 
L 4184 0 
L 3553 0 
L 3553 2222 
L 1259 2222 
L 1259 0 
L 628 0 
L 628 4666 
z
" transform="scale(0.015625)"/>
       </defs>
       <use xlink:href="#DejaVuSans-44"/>
       <use xlink:href="#DejaVuSans-48" x="77.001953"/>
      </g>
     </g>
    </g>
    <g id="xtick_2">
     <g id="line2d_2">
      <g>
       <use xlink:href="#mf7be20316e" x="132.092268" y="360.429" style="stroke: #000000; stroke-width: 0.8"/>
      </g>
     </g>
     <g id="text_2">
      <!-- WH -->
      <g transform="translate(118.166018 379.5865) scale(0.16 -0.16)">
       <defs>
        <path id="DejaVuSans-57" d="M 213 4666 
L 850 4666 
L 1831 722 
L 2809 4666 
L 3519 4666 
L 4500 722 
L 5478 4666 
L 6119 4666 
L 4947 0 
L 4153 0 
L 3169 4050 
L 2175 0 
L 1381 0 
L 213 4666 
z
" transform="scale(0.015625)"/>
       </defs>
       <use xlink:href="#DejaVuSans-57"/>
       <use xlink:href="#DejaVuSans-48" x="98.876953"/>
      </g>
     </g>
    </g>
    <g id="xtick_3">
     <g id="line2d_3">
      <g>
       <use xlink:href="#mf7be20316e" x="166.266431" y="360.429" style="stroke: #000000; stroke-width: 0.8"/>
      </g>
     </g>
     <g id="text_3">
      <!-- ET -->
      <g transform="translate(156.325181 379.5865) scale(0.16 -0.16)">
       <defs>
        <path id="DejaVuSans-45" d="M 628 4666 
L 3578 4666 
L 3578 4134 
L 1259 4134 
L 1259 2753 
L 3481 2753 
L 3481 2222 
L 1259 2222 
L 1259 531 
L 3634 531 
L 3634 0 
L 628 0 
L 628 4666 
z
" transform="scale(0.015625)"/>
        <path id="DejaVuSans-54" d="M -19 4666 
L 3928 4666 
L 3928 4134 
L 2272 4134 
L 2272 0 
L 1638 0 
L 1638 4134 
L -19 4134 
L -19 4666 
z
" transform="scale(0.015625)"/>
       </defs>
       <use xlink:href="#DejaVuSans-45"/>
       <use xlink:href="#DejaVuSans-54" x="63.183594"/>
      </g>
     </g>
    </g>
    <g id="xtick_4">
     <g id="line2d_4">
      <g>
       <use xlink:href="#mf7be20316e" x="200.440593" y="360.429" style="stroke: #000000; stroke-width: 0.8"/>
      </g>
     </g>
     <g id="text_4">
      <!-- FC1 -->
      <g transform="translate(185.163093 379.5865) scale(0.16 -0.16)">
       <defs>
        <path id="DejaVuSans-46" d="M 628 4666 
L 3309 4666 
L 3309 4134 
L 1259 4134 
L 1259 2759 
L 3109 2759 
L 3109 2228 
L 1259 2228 
L 1259 0 
L 628 0 
L 628 4666 
z
" transform="scale(0.015625)"/>
        <path id="DejaVuSans-43" d="M 4122 4306 
L 4122 3641 
Q 3803 3938 3442 4084 
Q 3081 4231 2675 4231 
Q 1875 4231 1450 3742 
Q 1025 3253 1025 2328 
Q 1025 1406 1450 917 
Q 1875 428 2675 428 
Q 3081 428 3442 575 
Q 3803 722 4122 1019 
L 4122 359 
Q 3791 134 3420 21 
Q 3050 -91 2638 -91 
Q 1578 -91 968 557 
Q 359 1206 359 2328 
Q 359 3453 968 4101 
Q 1578 4750 2638 4750 
Q 3056 4750 3426 4639 
Q 3797 4528 4122 4306 
z
" transform="scale(0.015625)"/>
        <path id="DejaVuSans-31" d="M 794 531 
L 1825 531 
L 1825 4091 
L 703 3866 
L 703 4441 
L 1819 4666 
L 2450 4666 
L 2450 531 
L 3481 531 
L 3481 0 
L 794 0 
L 794 531 
z
" transform="scale(0.015625)"/>
       </defs>
       <use xlink:href="#DejaVuSans-46"/>
       <use xlink:href="#DejaVuSans-43" x="57.519531"/>
       <use xlink:href="#DejaVuSans-31" x="127.34375"/>
      </g>
     </g>
    </g>
    <g id="xtick_5">
     <g id="line2d_5">
      <g>
       <use xlink:href="#mf7be20316e" x="234.614756" y="360.429" style="stroke: #000000; stroke-width: 0.8"/>
      </g>
     </g>
     <g id="text_5">
      <!-- FC2 -->
      <g transform="translate(219.337256 379.5865) scale(0.16 -0.16)">
       <defs>
        <path id="DejaVuSans-32" d="M 1228 531 
L 3431 531 
L 3431 0 
L 469 0 
L 469 531 
Q 828 903 1448 1529 
Q 2069 2156 2228 2338 
Q 2531 2678 2651 2914 
Q 2772 3150 2772 3378 
Q 2772 3750 2511 3984 
Q 2250 4219 1831 4219 
Q 1534 4219 1204 4116 
Q 875 4013 500 3803 
L 500 4441 
Q 881 4594 1212 4672 
Q 1544 4750 1819 4750 
Q 2544 4750 2975 4387 
Q 3406 4025 3406 3419 
Q 3406 3131 3298 2873 
Q 3191 2616 2906 2266 
Q 2828 2175 2409 1742 
Q 1991 1309 1228 531 
z
" transform="scale(0.015625)"/>
       </defs>
       <use xlink:href="#DejaVuSans-46"/>
       <use xlink:href="#DejaVuSans-43" x="57.519531"/>
       <use xlink:href="#DejaVuSans-32" x="127.34375"/>
      </g>
     </g>
    </g>
    <g id="xtick_6">
     <g id="line2d_6">
      <g>
       <use xlink:href="#mf7be20316e" x="268.788919" y="360.429" style="stroke: #000000; stroke-width: 0.8"/>
      </g>
     </g>
     <g id="text_6">
      <!-- FC3 -->
      <g transform="translate(253.511419 379.5865) scale(0.16 -0.16)">
       <defs>
        <path id="DejaVuSans-33" d="M 2597 2516 
Q 3050 2419 3304 2112 
Q 3559 1806 3559 1356 
Q 3559 666 3084 287 
Q 2609 -91 1734 -91 
Q 1441 -91 1130 -33 
Q 819 25 488 141 
L 488 750 
Q 750 597 1062 519 
Q 1375 441 1716 441 
Q 2309 441 2620 675 
Q 2931 909 2931 1356 
Q 2931 1769 2642 2001 
Q 2353 2234 1838 2234 
L 1294 2234 
L 1294 2753 
L 1863 2753 
Q 2328 2753 2575 2939 
Q 2822 3125 2822 3475 
Q 2822 3834 2567 4026 
Q 2313 4219 1838 4219 
Q 1578 4219 1281 4162 
Q 984 4106 628 3988 
L 628 4550 
Q 988 4650 1302 4700 
Q 1616 4750 1894 4750 
Q 2613 4750 3031 4423 
Q 3450 4097 3450 3541 
Q 3450 3153 3228 2886 
Q 3006 2619 2597 2516 
z
" transform="scale(0.015625)"/>
       </defs>
       <use xlink:href="#DejaVuSans-46"/>
       <use xlink:href="#DejaVuSans-43" x="57.519531"/>
       <use xlink:href="#DejaVuSans-33" x="127.34375"/>
      </g>
     </g>
    </g>
    <g id="xtick_7">
     <g id="line2d_7">
      <g>
       <use xlink:href="#mf7be20316e" x="302.963081" y="360.429" style="stroke: #000000; stroke-width: 0.8"/>
      </g>
     </g>
     <g id="text_7">
      <!-- PT -->
      <g transform="translate(293.253081 379.5865) scale(0.16 -0.16)">
       <defs>
        <path id="DejaVuSans-50" d="M 1259 4147 
L 1259 2394 
L 2053 2394 
Q 2494 2394 2734 2622 
Q 2975 2850 2975 3272 
Q 2975 3691 2734 3919 
Q 2494 4147 2053 4147 
L 1259 4147 
z
M 628 4666 
L 2053 4666 
Q 2838 4666 3239 4311 
Q 3641 3956 3641 3272 
Q 3641 2581 3239 2228 
Q 2838 1875 2053 1875 
L 1259 1875 
L 1259 0 
L 628 0 
L 628 4666 
z
" transform="scale(0.015625)"/>
       </defs>
       <use xlink:href="#DejaVuSans-50"/>
       <use xlink:href="#DejaVuSans-54" x="60.302734"/>
      </g>
     </g>
    </g>
    <g id="xtick_8">
     <g id="line2d_8">
      <g>
       <use xlink:href="#mf7be20316e" x="337.137244" y="360.429" style="stroke: #000000; stroke-width: 0.8"/>
      </g>
     </g>
     <g id="text_8">
      <!-- CS -->
      <g transform="translate(326.472244 379.5865) scale(0.16 -0.16)">
       <defs>
        <path id="DejaVuSans-53" d="M 3425 4513 
L 3425 3897 
Q 3066 4069 2747 4153 
Q 2428 4238 2131 4238 
Q 1616 4238 1336 4038 
Q 1056 3838 1056 3469 
Q 1056 3159 1242 3001 
Q 1428 2844 1947 2747 
L 2328 2669 
Q 3034 2534 3370 2195 
Q 3706 1856 3706 1288 
Q 3706 609 3251 259 
Q 2797 -91 1919 -91 
Q 1588 -91 1214 -16 
Q 841 59 441 206 
L 441 856 
Q 825 641 1194 531 
Q 1563 422 1919 422 
Q 2459 422 2753 634 
Q 3047 847 3047 1241 
Q 3047 1584 2836 1778 
Q 2625 1972 2144 2069 
L 1759 2144 
Q 1053 2284 737 2584 
Q 422 2884 422 3419 
Q 422 4038 858 4394 
Q 1294 4750 2059 4750 
Q 2388 4750 2728 4690 
Q 3069 4631 3425 4513 
z
" transform="scale(0.015625)"/>
       </defs>
       <use xlink:href="#DejaVuSans-43"/>
       <use xlink:href="#DejaVuSans-53" x="69.824219"/>
      </g>
     </g>
    </g>
    <g id="xtick_9">
     <g id="line2d_9">
      <g>
       <use xlink:href="#mf7be20316e" x="371.311407" y="360.429" style="stroke: #000000; stroke-width: 0.8"/>
      </g>
     </g>
     <g id="text_9">
      <!-- PC -->
      <g transform="translate(360.901407 379.5865) scale(0.16 -0.16)">
       <use xlink:href="#DejaVuSans-50"/>
       <use xlink:href="#DejaVuSans-43" x="60.302734"/>
      </g>
     </g>
    </g>
    <g id="xtick_10">
     <g id="line2d_10">
      <g>
       <use xlink:href="#mf7be20316e" x="405.485569" y="360.429" style="stroke: #000000; stroke-width: 0.8"/>
      </g>
     </g>
     <g id="text_10">
      <!-- SS1 -->
      <g transform="translate(390.238069 379.5865) scale(0.16 -0.16)">
       <use xlink:href="#DejaVuSans-53"/>
       <use xlink:href="#DejaVuSans-53" x="63.476562"/>
       <use xlink:href="#DejaVuSans-31" x="126.953125"/>
      </g>
     </g>
    </g>
    <g id="xtick_11">
     <g id="line2d_11">
      <g>
       <use xlink:href="#mf7be20316e" x="439.659732" y="360.429" style="stroke: #000000; stroke-width: 0.8"/>
      </g>
     </g>
     <g id="text_11">
      <!-- SS8 -->
      <g transform="translate(424.412232 379.5865) scale(0.16 -0.16)">
       <defs>
        <path id="DejaVuSans-38" d="M 2034 2216 
Q 1584 2216 1326 1975 
Q 1069 1734 1069 1313 
Q 1069 891 1326 650 
Q 1584 409 2034 409 
Q 2484 409 2743 651 
Q 3003 894 3003 1313 
Q 3003 1734 2745 1975 
Q 2488 2216 2034 2216 
z
M 1403 2484 
Q 997 2584 770 2862 
Q 544 3141 544 3541 
Q 544 4100 942 4425 
Q 1341 4750 2034 4750 
Q 2731 4750 3128 4425 
Q 3525 4100 3525 3541 
Q 3525 3141 3298 2862 
Q 3072 2584 2669 2484 
Q 3125 2378 3379 2068 
Q 3634 1759 3634 1313 
Q 3634 634 3220 271 
Q 2806 -91 2034 -91 
Q 1263 -91 848 271 
Q 434 634 434 1313 
Q 434 1759 690 2068 
Q 947 2378 1403 2484 
z
M 1172 3481 
Q 1172 3119 1398 2916 
Q 1625 2713 2034 2713 
Q 2441 2713 2670 2916 
Q 2900 3119 2900 3481 
Q 2900 3844 2670 4047 
Q 2441 4250 2034 4250 
Q 1625 4250 1398 4047 
Q 1172 3844 1172 3481 
z
" transform="scale(0.015625)"/>
       </defs>
       <use xlink:href="#DejaVuSans-53"/>
       <use xlink:href="#DejaVuSans-53" x="63.476562"/>
       <use xlink:href="#DejaVuSans-38" x="126.953125"/>
      </g>
     </g>
    </g>
    <g id="xtick_12">
     <g id="line2d_12">
      <g>
       <use xlink:href="#mf7be20316e" x="473.833895" y="360.429" style="stroke: #000000; stroke-width: 0.8"/>
      </g>
     </g>
     <g id="text_12">
      <!-- SC -->
      <g transform="translate(463.168895 379.5865) scale(0.16 -0.16)">
       <use xlink:href="#DejaVuSans-53"/>
       <use xlink:href="#DejaVuSans-43" x="63.476562"/>
      </g>
     </g>
    </g>
   </g>
   <g id="matplotlib.axis_2">
    <g id="ytick_1">
     <g id="line2d_13">
      <defs>
       <path id="m9fb4071186" d="M 0 0 
L -3.5 0 
" style="stroke: #000000; stroke-width: 0.8"/>
      </defs>
      <g>
       <use xlink:href="#m9fb4071186" x="62.676" y="360.429" style="stroke: #000000; stroke-width: 0.8"/>
      </g>
     </g>
     <g id="text_13">
      <!-- 0.0 -->
      <g transform="translate(30.231 366.50775) scale(0.16 -0.16)">
       <defs>
        <path id="DejaVuSans-30" d="M 2034 4250 
Q 1547 4250 1301 3770 
Q 1056 3291 1056 2328 
Q 1056 1369 1301 889 
Q 1547 409 2034 409 
Q 2525 409 2770 889 
Q 3016 1369 3016 2328 
Q 3016 3291 2770 3770 
Q 2525 4250 2034 4250 
z
M 2034 4750 
Q 2819 4750 3233 4129 
Q 3647 3509 3647 2328 
Q 3647 1150 3233 529 
Q 2819 -91 2034 -91 
Q 1250 -91 836 529 
Q 422 1150 422 2328 
Q 422 3509 836 4129 
Q 1250 4750 2034 4750 
z
" transform="scale(0.015625)"/>
        <path id="DejaVuSans-2e" d="M 684 794 
L 1344 794 
L 1344 0 
L 684 0 
L 684 794 
z
" transform="scale(0.015625)"/>
       </defs>
       <use xlink:href="#DejaVuSans-30"/>
       <use xlink:href="#DejaVuSans-2e" x="63.623047"/>
       <use xlink:href="#DejaVuSans-30" x="95.410156"/>
      </g>
     </g>
    </g>
    <g id="ytick_2">
     <g id="line2d_14">
      <g>
       <use xlink:href="#m9fb4071186" x="62.676" y="297.069" style="stroke: #000000; stroke-width: 0.8"/>
      </g>
     </g>
     <g id="text_14">
      <!-- 0.2 -->
      <g transform="translate(30.231 303.14775) scale(0.16 -0.16)">
       <use xlink:href="#DejaVuSans-30"/>
       <use xlink:href="#DejaVuSans-2e" x="63.623047"/>
       <use xlink:href="#DejaVuSans-32" x="95.410156"/>
      </g>
     </g>
    </g>
    <g id="ytick_3">
     <g id="line2d_15">
      <g>
       <use xlink:href="#m9fb4071186" x="62.676" y="233.709" style="stroke: #000000; stroke-width: 0.8"/>
      </g>
     </g>
     <g id="text_15">
      <!-- 0.4 -->
      <g transform="translate(30.231 239.78775) scale(0.16 -0.16)">
       <defs>
        <path id="DejaVuSans-34" d="M 2419 4116 
L 825 1625 
L 2419 1625 
L 2419 4116 
z
M 2253 4666 
L 3047 4666 
L 3047 1625 
L 3713 1625 
L 3713 1100 
L 3047 1100 
L 3047 0 
L 2419 0 
L 2419 1100 
L 313 1100 
L 313 1709 
L 2253 4666 
z
" transform="scale(0.015625)"/>
       </defs>
       <use xlink:href="#DejaVuSans-30"/>
       <use xlink:href="#DejaVuSans-2e" x="63.623047"/>
       <use xlink:href="#DejaVuSans-34" x="95.410156"/>
      </g>
     </g>
    </g>
    <g id="ytick_4">
     <g id="line2d_16">
      <g>
       <use xlink:href="#m9fb4071186" x="62.676" y="170.349" style="stroke: #000000; stroke-width: 0.8"/>
      </g>
     </g>
     <g id="text_16">
      <!-- 0.6 -->
      <g transform="translate(30.231 176.42775) scale(0.16 -0.16)">
       <defs>
        <path id="DejaVuSans-36" d="M 2113 2584 
Q 1688 2584 1439 2293 
Q 1191 2003 1191 1497 
Q 1191 994 1439 701 
Q 1688 409 2113 409 
Q 2538 409 2786 701 
Q 3034 994 3034 1497 
Q 3034 2003 2786 2293 
Q 2538 2584 2113 2584 
z
M 3366 4563 
L 3366 3988 
Q 3128 4100 2886 4159 
Q 2644 4219 2406 4219 
Q 1781 4219 1451 3797 
Q 1122 3375 1075 2522 
Q 1259 2794 1537 2939 
Q 1816 3084 2150 3084 
Q 2853 3084 3261 2657 
Q 3669 2231 3669 1497 
Q 3669 778 3244 343 
Q 2819 -91 2113 -91 
Q 1303 -91 875 529 
Q 447 1150 447 2328 
Q 447 3434 972 4092 
Q 1497 4750 2381 4750 
Q 2619 4750 2861 4703 
Q 3103 4656 3366 4563 
z
" transform="scale(0.015625)"/>
       </defs>
       <use xlink:href="#DejaVuSans-30"/>
       <use xlink:href="#DejaVuSans-2e" x="63.623047"/>
       <use xlink:href="#DejaVuSans-36" x="95.410156"/>
      </g>
     </g>
    </g>
    <g id="ytick_5">
     <g id="line2d_17">
      <g>
       <use xlink:href="#m9fb4071186" x="62.676" y="106.989" style="stroke: #000000; stroke-width: 0.8"/>
      </g>
     </g>
     <g id="text_17">
      <!-- 0.8 -->
      <g transform="translate(30.231 113.06775) scale(0.16 -0.16)">
       <use xlink:href="#DejaVuSans-30"/>
       <use xlink:href="#DejaVuSans-2e" x="63.623047"/>
       <use xlink:href="#DejaVuSans-38" x="95.410156"/>
      </g>
     </g>
    </g>
    <g id="ytick_6">
     <g id="line2d_18">
      <g>
       <use xlink:href="#m9fb4071186" x="62.676" y="43.629" style="stroke: #000000; stroke-width: 0.8"/>
      </g>
     </g>
     <g id="text_18">
      <!-- 1.0 -->
      <g transform="translate(30.231 49.70775) scale(0.16 -0.16)">
       <use xlink:href="#DejaVuSans-31"/>
       <use xlink:href="#DejaVuSans-2e" x="63.623047"/>
       <use xlink:href="#DejaVuSans-30" x="95.410156"/>
      </g>
     </g>
    </g>
    <g id="text_19">
     <!-- Index per US$ -->
     <g transform="translate(22.9035 250.534) rotate(-90) scale(0.16 -0.16)">
      <defs>
       <path id="DejaVuSans-49" d="M 628 4666 
L 1259 4666 
L 1259 0 
L 628 0 
L 628 4666 
z
" transform="scale(0.015625)"/>
       <path id="DejaVuSans-6e" d="M 3513 2113 
L 3513 0 
L 2938 0 
L 2938 2094 
Q 2938 2591 2744 2837 
Q 2550 3084 2163 3084 
Q 1697 3084 1428 2787 
Q 1159 2491 1159 1978 
L 1159 0 
L 581 0 
L 581 3500 
L 1159 3500 
L 1159 2956 
Q 1366 3272 1645 3428 
Q 1925 3584 2291 3584 
Q 2894 3584 3203 3211 
Q 3513 2838 3513 2113 
z
" transform="scale(0.015625)"/>
       <path id="DejaVuSans-64" d="M 2906 2969 
L 2906 4863 
L 3481 4863 
L 3481 0 
L 2906 0 
L 2906 525 
Q 2725 213 2448 61 
Q 2172 -91 1784 -91 
Q 1150 -91 751 415 
Q 353 922 353 1747 
Q 353 2572 751 3078 
Q 1150 3584 1784 3584 
Q 2172 3584 2448 3432 
Q 2725 3281 2906 2969 
z
M 947 1747 
Q 947 1113 1208 752 
Q 1469 391 1925 391 
Q 2381 391 2643 752 
Q 2906 1113 2906 1747 
Q 2906 2381 2643 2742 
Q 2381 3103 1925 3103 
Q 1469 3103 1208 2742 
Q 947 2381 947 1747 
z
" transform="scale(0.015625)"/>
       <path id="DejaVuSans-65" d="M 3597 1894 
L 3597 1613 
L 953 1613 
Q 991 1019 1311 708 
Q 1631 397 2203 397 
Q 2534 397 2845 478 
Q 3156 559 3463 722 
L 3463 178 
Q 3153 47 2828 -22 
Q 2503 -91 2169 -91 
Q 1331 -91 842 396 
Q 353 884 353 1716 
Q 353 2575 817 3079 
Q 1281 3584 2069 3584 
Q 2775 3584 3186 3129 
Q 3597 2675 3597 1894 
z
M 3022 2063 
Q 3016 2534 2758 2815 
Q 2500 3097 2075 3097 
Q 1594 3097 1305 2825 
Q 1016 2553 972 2059 
L 3022 2063 
z
" transform="scale(0.015625)"/>
       <path id="DejaVuSans-78" d="M 3513 3500 
L 2247 1797 
L 3578 0 
L 2900 0 
L 1881 1375 
L 863 0 
L 184 0 
L 1544 1831 
L 300 3500 
L 978 3500 
L 1906 2253 
L 2834 3500 
L 3513 3500 
z
" transform="scale(0.015625)"/>
       <path id="DejaVuSans-20" transform="scale(0.015625)"/>
       <path id="DejaVuSans-70" d="M 1159 525 
L 1159 -1331 
L 581 -1331 
L 581 3500 
L 1159 3500 
L 1159 2969 
Q 1341 3281 1617 3432 
Q 1894 3584 2278 3584 
Q 2916 3584 3314 3078 
Q 3713 2572 3713 1747 
Q 3713 922 3314 415 
Q 2916 -91 2278 -91 
Q 1894 -91 1617 61 
Q 1341 213 1159 525 
z
M 3116 1747 
Q 3116 2381 2855 2742 
Q 2594 3103 2138 3103 
Q 1681 3103 1420 2742 
Q 1159 2381 1159 1747 
Q 1159 1113 1420 752 
Q 1681 391 2138 391 
Q 2594 391 2855 752 
Q 3116 1113 3116 1747 
z
" transform="scale(0.015625)"/>
       <path id="DejaVuSans-72" d="M 2631 2963 
Q 2534 3019 2420 3045 
Q 2306 3072 2169 3072 
Q 1681 3072 1420 2755 
Q 1159 2438 1159 1844 
L 1159 0 
L 581 0 
L 581 3500 
L 1159 3500 
L 1159 2956 
Q 1341 3275 1631 3429 
Q 1922 3584 2338 3584 
Q 2397 3584 2469 3576 
Q 2541 3569 2628 3553 
L 2631 2963 
z
" transform="scale(0.015625)"/>
       <path id="DejaVuSans-55" d="M 556 4666 
L 1191 4666 
L 1191 1831 
Q 1191 1081 1462 751 
Q 1734 422 2344 422 
Q 2950 422 3222 751 
Q 3494 1081 3494 1831 
L 3494 4666 
L 4128 4666 
L 4128 1753 
Q 4128 841 3676 375 
Q 3225 -91 2344 -91 
Q 1459 -91 1007 375 
Q 556 841 556 1753 
L 556 4666 
z
" transform="scale(0.015625)"/>
       <path id="DejaVuSans-24" d="M 2163 -941 
L 1850 -941 
L 1847 0 
Q 1519 6 1191 76 
Q 863 147 531 288 
L 531 850 
Q 850 650 1176 548 
Q 1503 447 1850 444 
L 1850 1869 
Q 1159 1981 845 2250 
Q 531 2519 531 2988 
Q 531 3497 872 3790 
Q 1213 4084 1850 4128 
L 1850 4863 
L 2163 4863 
L 2163 4138 
Q 2453 4125 2725 4076 
Q 2997 4028 3256 3944 
L 3256 3397 
Q 2997 3528 2723 3600 
Q 2450 3672 2163 3684 
L 2163 2350 
Q 2872 2241 3206 1959 
Q 3541 1678 3541 1191 
Q 3541 663 3186 358 
Q 2831 53 2163 6 
L 2163 -941 
z
M 1850 2406 
L 1850 3688 
Q 1488 3647 1297 3481 
Q 1106 3316 1106 3041 
Q 1106 2772 1282 2622 
Q 1459 2472 1850 2406 
z
M 2163 1806 
L 2163 453 
Q 2559 506 2761 678 
Q 2963 850 2963 1131 
Q 2963 1406 2770 1568 
Q 2578 1731 2163 1806 
z
" transform="scale(0.015625)"/>
      </defs>
      <use xlink:href="#DejaVuSans-49"/>
      <use xlink:href="#DejaVuSans-6e" x="29.492188"/>
      <use xlink:href="#DejaVuSans-64" x="92.871094"/>
      <use xlink:href="#DejaVuSans-65" x="156.347656"/>
      <use xlink:href="#DejaVuSans-78" x="216.121094"/>
      <use xlink:href="#DejaVuSans-20" x="275.300781"/>
      <use xlink:href="#DejaVuSans-70" x="307.087891"/>
      <use xlink:href="#DejaVuSans-65" x="370.564453"/>
      <use xlink:href="#DejaVuSans-72" x="432.087891"/>
      <use xlink:href="#DejaVuSans-20" x="473.201172"/>
      <use xlink:href="#DejaVuSans-55" x="504.988281"/>
      <use xlink:href="#DejaVuSans-53" x="578.181641"/>
      <use xlink:href="#DejaVuSans-24" x="641.658203"/>
     </g>
    </g>
   </g>
   <g id="patch_243">
    <path d="M 62.676 360.429 
L 62.676 27.789 
" style="fill: none; stroke: #000000; stroke-width: 0.8; stroke-linejoin: miter; stroke-linecap: square"/>
   </g>
   <g id="patch_244">
    <path d="M 509.076 360.429 
L 509.076 27.789 
" style="fill: none; stroke: #000000; stroke-width: 0.8; stroke-linejoin: miter; stroke-linecap: square"/>
   </g>
   <g id="patch_245">
    <path d="M 62.676 360.429 
L 509.076 360.429 
" style="fill: none; stroke: #000000; stroke-width: 0.8; stroke-linejoin: miter; stroke-linecap: square"/>
   </g>
   <g id="patch_246">
    <path d="M 62.676 27.789 
L 509.076 27.789 
" style="fill: none; stroke: #000000; stroke-width: 0.8; stroke-linejoin: miter; stroke-linecap: square"/>
   </g>
   <g id="text_20">
    <!-- UnixBench Individual Tests Multi Core per US$ Normalised -->
    <g transform="translate(7.2 21.789) scale(0.192 -0.192)">
     <defs>
      <path id="DejaVuSans-69" d="M 603 3500 
L 1178 3500 
L 1178 0 
L 603 0 
L 603 3500 
z
M 603 4863 
L 1178 4863 
L 1178 4134 
L 603 4134 
L 603 4863 
z
" transform="scale(0.015625)"/>
      <path id="DejaVuSans-42" d="M 1259 2228 
L 1259 519 
L 2272 519 
Q 2781 519 3026 730 
Q 3272 941 3272 1375 
Q 3272 1813 3026 2020 
Q 2781 2228 2272 2228 
L 1259 2228 
z
M 1259 4147 
L 1259 2741 
L 2194 2741 
Q 2656 2741 2882 2914 
Q 3109 3088 3109 3444 
Q 3109 3797 2882 3972 
Q 2656 4147 2194 4147 
L 1259 4147 
z
M 628 4666 
L 2241 4666 
Q 2963 4666 3353 4366 
Q 3744 4066 3744 3513 
Q 3744 3084 3544 2831 
Q 3344 2578 2956 2516 
Q 3422 2416 3680 2098 
Q 3938 1781 3938 1306 
Q 3938 681 3513 340 
Q 3088 0 2303 0 
L 628 0 
L 628 4666 
z
" transform="scale(0.015625)"/>
      <path id="DejaVuSans-63" d="M 3122 3366 
L 3122 2828 
Q 2878 2963 2633 3030 
Q 2388 3097 2138 3097 
Q 1578 3097 1268 2742 
Q 959 2388 959 1747 
Q 959 1106 1268 751 
Q 1578 397 2138 397 
Q 2388 397 2633 464 
Q 2878 531 3122 666 
L 3122 134 
Q 2881 22 2623 -34 
Q 2366 -91 2075 -91 
Q 1284 -91 818 406 
Q 353 903 353 1747 
Q 353 2603 823 3093 
Q 1294 3584 2113 3584 
Q 2378 3584 2631 3529 
Q 2884 3475 3122 3366 
z
" transform="scale(0.015625)"/>
      <path id="DejaVuSans-68" d="M 3513 2113 
L 3513 0 
L 2938 0 
L 2938 2094 
Q 2938 2591 2744 2837 
Q 2550 3084 2163 3084 
Q 1697 3084 1428 2787 
Q 1159 2491 1159 1978 
L 1159 0 
L 581 0 
L 581 4863 
L 1159 4863 
L 1159 2956 
Q 1366 3272 1645 3428 
Q 1925 3584 2291 3584 
Q 2894 3584 3203 3211 
Q 3513 2838 3513 2113 
z
" transform="scale(0.015625)"/>
      <path id="DejaVuSans-76" d="M 191 3500 
L 800 3500 
L 1894 563 
L 2988 3500 
L 3597 3500 
L 2284 0 
L 1503 0 
L 191 3500 
z
" transform="scale(0.015625)"/>
      <path id="DejaVuSans-75" d="M 544 1381 
L 544 3500 
L 1119 3500 
L 1119 1403 
Q 1119 906 1312 657 
Q 1506 409 1894 409 
Q 2359 409 2629 706 
Q 2900 1003 2900 1516 
L 2900 3500 
L 3475 3500 
L 3475 0 
L 2900 0 
L 2900 538 
Q 2691 219 2414 64 
Q 2138 -91 1772 -91 
Q 1169 -91 856 284 
Q 544 659 544 1381 
z
M 1991 3584 
L 1991 3584 
z
" transform="scale(0.015625)"/>
      <path id="DejaVuSans-61" d="M 2194 1759 
Q 1497 1759 1228 1600 
Q 959 1441 959 1056 
Q 959 750 1161 570 
Q 1363 391 1709 391 
Q 2188 391 2477 730 
Q 2766 1069 2766 1631 
L 2766 1759 
L 2194 1759 
z
M 3341 1997 
L 3341 0 
L 2766 0 
L 2766 531 
Q 2569 213 2275 61 
Q 1981 -91 1556 -91 
Q 1019 -91 701 211 
Q 384 513 384 1019 
Q 384 1609 779 1909 
Q 1175 2209 1959 2209 
L 2766 2209 
L 2766 2266 
Q 2766 2663 2505 2880 
Q 2244 3097 1772 3097 
Q 1472 3097 1187 3025 
Q 903 2953 641 2809 
L 641 3341 
Q 956 3463 1253 3523 
Q 1550 3584 1831 3584 
Q 2591 3584 2966 3190 
Q 3341 2797 3341 1997 
z
" transform="scale(0.015625)"/>
      <path id="DejaVuSans-6c" d="M 603 4863 
L 1178 4863 
L 1178 0 
L 603 0 
L 603 4863 
z
" transform="scale(0.015625)"/>
      <path id="DejaVuSans-73" d="M 2834 3397 
L 2834 2853 
Q 2591 2978 2328 3040 
Q 2066 3103 1784 3103 
Q 1356 3103 1142 2972 
Q 928 2841 928 2578 
Q 928 2378 1081 2264 
Q 1234 2150 1697 2047 
L 1894 2003 
Q 2506 1872 2764 1633 
Q 3022 1394 3022 966 
Q 3022 478 2636 193 
Q 2250 -91 1575 -91 
Q 1294 -91 989 -36 
Q 684 19 347 128 
L 347 722 
Q 666 556 975 473 
Q 1284 391 1588 391 
Q 1994 391 2212 530 
Q 2431 669 2431 922 
Q 2431 1156 2273 1281 
Q 2116 1406 1581 1522 
L 1381 1569 
Q 847 1681 609 1914 
Q 372 2147 372 2553 
Q 372 3047 722 3315 
Q 1072 3584 1716 3584 
Q 2034 3584 2315 3537 
Q 2597 3491 2834 3397 
z
" transform="scale(0.015625)"/>
      <path id="DejaVuSans-74" d="M 1172 4494 
L 1172 3500 
L 2356 3500 
L 2356 3053 
L 1172 3053 
L 1172 1153 
Q 1172 725 1289 603 
Q 1406 481 1766 481 
L 2356 481 
L 2356 0 
L 1766 0 
Q 1100 0 847 248 
Q 594 497 594 1153 
L 594 3053 
L 172 3053 
L 172 3500 
L 594 3500 
L 594 4494 
L 1172 4494 
z
" transform="scale(0.015625)"/>
      <path id="DejaVuSans-4d" d="M 628 4666 
L 1569 4666 
L 2759 1491 
L 3956 4666 
L 4897 4666 
L 4897 0 
L 4281 0 
L 4281 4097 
L 3078 897 
L 2444 897 
L 1241 4097 
L 1241 0 
L 628 0 
L 628 4666 
z
" transform="scale(0.015625)"/>
      <path id="DejaVuSans-6f" d="M 1959 3097 
Q 1497 3097 1228 2736 
Q 959 2375 959 1747 
Q 959 1119 1226 758 
Q 1494 397 1959 397 
Q 2419 397 2687 759 
Q 2956 1122 2956 1747 
Q 2956 2369 2687 2733 
Q 2419 3097 1959 3097 
z
M 1959 3584 
Q 2709 3584 3137 3096 
Q 3566 2609 3566 1747 
Q 3566 888 3137 398 
Q 2709 -91 1959 -91 
Q 1206 -91 779 398 
Q 353 888 353 1747 
Q 353 2609 779 3096 
Q 1206 3584 1959 3584 
z
" transform="scale(0.015625)"/>
      <path id="DejaVuSans-4e" d="M 628 4666 
L 1478 4666 
L 3547 763 
L 3547 4666 
L 4159 4666 
L 4159 0 
L 3309 0 
L 1241 3903 
L 1241 0 
L 628 0 
L 628 4666 
z
" transform="scale(0.015625)"/>
      <path id="DejaVuSans-6d" d="M 3328 2828 
Q 3544 3216 3844 3400 
Q 4144 3584 4550 3584 
Q 5097 3584 5394 3201 
Q 5691 2819 5691 2113 
L 5691 0 
L 5113 0 
L 5113 2094 
Q 5113 2597 4934 2840 
Q 4756 3084 4391 3084 
Q 3944 3084 3684 2787 
Q 3425 2491 3425 1978 
L 3425 0 
L 2847 0 
L 2847 2094 
Q 2847 2600 2669 2842 
Q 2491 3084 2119 3084 
Q 1678 3084 1418 2786 
Q 1159 2488 1159 1978 
L 1159 0 
L 581 0 
L 581 3500 
L 1159 3500 
L 1159 2956 
Q 1356 3278 1631 3431 
Q 1906 3584 2284 3584 
Q 2666 3584 2933 3390 
Q 3200 3197 3328 2828 
z
" transform="scale(0.015625)"/>
     </defs>
     <use xlink:href="#DejaVuSans-55"/>
     <use xlink:href="#DejaVuSans-6e" x="73.193359"/>
     <use xlink:href="#DejaVuSans-69" x="136.572266"/>
     <use xlink:href="#DejaVuSans-78" x="164.355469"/>
     <use xlink:href="#DejaVuSans-42" x="223.535156"/>
     <use xlink:href="#DejaVuSans-65" x="292.138672"/>
     <use xlink:href="#DejaVuSans-6e" x="353.662109"/>
     <use xlink:href="#DejaVuSans-63" x="417.041016"/>
     <use xlink:href="#DejaVuSans-68" x="472.021484"/>
     <use xlink:href="#DejaVuSans-20" x="535.400391"/>
     <use xlink:href="#DejaVuSans-49" x="567.1875"/>
     <use xlink:href="#DejaVuSans-6e" x="596.679688"/>
     <use xlink:href="#DejaVuSans-64" x="660.058594"/>
     <use xlink:href="#DejaVuSans-69" x="723.535156"/>
     <use xlink:href="#DejaVuSans-76" x="751.318359"/>
     <use xlink:href="#DejaVuSans-69" x="810.498047"/>
     <use xlink:href="#DejaVuSans-64" x="838.28125"/>
     <use xlink:href="#DejaVuSans-75" x="901.757812"/>
     <use xlink:href="#DejaVuSans-61" x="965.136719"/>
     <use xlink:href="#DejaVuSans-6c" x="1026.416016"/>
     <use xlink:href="#DejaVuSans-20" x="1054.199219"/>
     <use xlink:href="#DejaVuSans-54" x="1085.986328"/>
     <use xlink:href="#DejaVuSans-65" x="1130.070312"/>
     <use xlink:href="#DejaVuSans-73" x="1191.59375"/>
     <use xlink:href="#DejaVuSans-74" x="1243.693359"/>
     <use xlink:href="#DejaVuSans-73" x="1282.902344"/>
     <use xlink:href="#DejaVuSans-20" x="1335.001953"/>
     <use xlink:href="#DejaVuSans-4d" x="1366.789062"/>
     <use xlink:href="#DejaVuSans-75" x="1453.068359"/>
     <use xlink:href="#DejaVuSans-6c" x="1516.447266"/>
     <use xlink:href="#DejaVuSans-74" x="1544.230469"/>
     <use xlink:href="#DejaVuSans-69" x="1583.439453"/>
     <use xlink:href="#DejaVuSans-20" x="1611.222656"/>
     <use xlink:href="#DejaVuSans-43" x="1643.009766"/>
     <use xlink:href="#DejaVuSans-6f" x="1712.833984"/>
     <use xlink:href="#DejaVuSans-72" x="1774.015625"/>
     <use xlink:href="#DejaVuSans-65" x="1812.878906"/>
     <use xlink:href="#DejaVuSans-20" x="1874.402344"/>
     <use xlink:href="#DejaVuSans-70" x="1906.189453"/>
     <use xlink:href="#DejaVuSans-65" x="1969.666016"/>
     <use xlink:href="#DejaVuSans-72" x="2031.189453"/>
     <use xlink:href="#DejaVuSans-20" x="2072.302734"/>
     <use xlink:href="#DejaVuSans-55" x="2104.089844"/>
     <use xlink:href="#DejaVuSans-53" x="2177.283203"/>
     <use xlink:href="#DejaVuSans-24" x="2240.759766"/>
     <use xlink:href="#DejaVuSans-20" x="2304.382812"/>
     <use xlink:href="#DejaVuSans-4e" x="2336.169922"/>
     <use xlink:href="#DejaVuSans-6f" x="2410.974609"/>
     <use xlink:href="#DejaVuSans-72" x="2472.15625"/>
     <use xlink:href="#DejaVuSans-6d" x="2511.519531"/>
     <use xlink:href="#DejaVuSans-61" x="2608.931641"/>
     <use xlink:href="#DejaVuSans-6c" x="2670.210938"/>
     <use xlink:href="#DejaVuSans-69" x="2697.994141"/>
     <use xlink:href="#DejaVuSans-73" x="2725.777344"/>
     <use xlink:href="#DejaVuSans-65" x="2777.876953"/>
     <use xlink:href="#DejaVuSans-64" x="2839.400391"/>
    </g>
   </g>
   <g id="legend_1">
    <g id="patch_247">
     <path d="M 16.16475 572.888 
L 559.58725 572.888 
Q 562.78725 572.888 562.78725 569.688 
L 562.78725 406.893 
Q 562.78725 403.693 559.58725 403.693 
L 16.16475 403.693 
Q 12.96475 403.693 12.96475 406.893 
L 12.96475 569.688 
Q 12.96475 572.888 16.16475 572.888 
z
" style="fill: #4d4d4d; opacity: 0.5; stroke: #4d4d4d; stroke-linejoin: miter"/>
    </g>
    <g id="patch_248">
     <path d="M 14.16475 570.888 
L 557.58725 570.888 
Q 560.78725 570.888 560.78725 567.688 
L 560.78725 404.893 
Q 560.78725 401.693 557.58725 401.693 
L 14.16475 401.693 
Q 10.96475 401.693 10.96475 404.893 
L 10.96475 567.688 
Q 10.96475 570.888 14.16475 570.888 
z
" style="fill: #ffffff; stroke: #cccccc; stroke-linejoin: miter"/>
    </g>
    <g id="patch_249">
     <path d="M 17.36475 420.2505 
L 49.36475 420.2505 
L 49.36475 409.0505 
L 17.36475 409.0505 
z
" style="fill: #011959"/>
    </g>
    <g id="text_21">
     <!-- a1.metal -->
     <g transform="translate(62.16475 420.2505) scale(0.16 -0.16)">
      <use xlink:href="#DejaVuSans-61"/>
      <use xlink:href="#DejaVuSans-31" x="61.279297"/>
      <use xlink:href="#DejaVuSans-2e" x="124.902344"/>
      <use xlink:href="#DejaVuSans-6d" x="156.689453"/>
      <use xlink:href="#DejaVuSans-65" x="254.101562"/>
      <use xlink:href="#DejaVuSans-74" x="315.625"/>
      <use xlink:href="#DejaVuSans-61" x="354.833984"/>
      <use xlink:href="#DejaVuSans-6c" x="416.113281"/>
     </g>
    </g>
    <g id="patch_250">
     <path d="M 17.36475 443.7355 
L 49.36475 443.7355 
L 49.36475 432.5355 
L 17.36475 432.5355 
z
" style="fill: #faccfa"/>
    </g>
    <g id="text_22">
     <!-- c3.8xlarge -->
     <g transform="translate(62.16475 443.7355) scale(0.16 -0.16)">
      <defs>
       <path id="DejaVuSans-67" d="M 2906 1791 
Q 2906 2416 2648 2759 
Q 2391 3103 1925 3103 
Q 1463 3103 1205 2759 
Q 947 2416 947 1791 
Q 947 1169 1205 825 
Q 1463 481 1925 481 
Q 2391 481 2648 825 
Q 2906 1169 2906 1791 
z
M 3481 434 
Q 3481 -459 3084 -895 
Q 2688 -1331 1869 -1331 
Q 1566 -1331 1297 -1286 
Q 1028 -1241 775 -1147 
L 775 -588 
Q 1028 -725 1275 -790 
Q 1522 -856 1778 -856 
Q 2344 -856 2625 -561 
Q 2906 -266 2906 331 
L 2906 616 
Q 2728 306 2450 153 
Q 2172 0 1784 0 
Q 1141 0 747 490 
Q 353 981 353 1791 
Q 353 2603 747 3093 
Q 1141 3584 1784 3584 
Q 2172 3584 2450 3431 
Q 2728 3278 2906 2969 
L 2906 3500 
L 3481 3500 
L 3481 434 
z
" transform="scale(0.015625)"/>
      </defs>
      <use xlink:href="#DejaVuSans-63"/>
      <use xlink:href="#DejaVuSans-33" x="54.980469"/>
      <use xlink:href="#DejaVuSans-2e" x="118.603516"/>
      <use xlink:href="#DejaVuSans-38" x="150.390625"/>
      <use xlink:href="#DejaVuSans-78" x="214.013672"/>
      <use xlink:href="#DejaVuSans-6c" x="273.193359"/>
      <use xlink:href="#DejaVuSans-61" x="300.976562"/>
      <use xlink:href="#DejaVuSans-72" x="362.255859"/>
      <use xlink:href="#DejaVuSans-67" x="401.619141"/>
      <use xlink:href="#DejaVuSans-65" x="465.095703"/>
     </g>
    </g>
    <g id="patch_251">
     <path d="M 17.36475 467.2205 
L 49.36475 467.2205 
L 49.36475 456.0205 
L 17.36475 456.0205 
z
" style="fill: #828231"/>
    </g>
    <g id="text_23">
     <!-- c4.8xlarge -->
     <g transform="translate(62.16475 467.2205) scale(0.16 -0.16)">
      <use xlink:href="#DejaVuSans-63"/>
      <use xlink:href="#DejaVuSans-34" x="54.980469"/>
      <use xlink:href="#DejaVuSans-2e" x="118.603516"/>
      <use xlink:href="#DejaVuSans-38" x="150.390625"/>
      <use xlink:href="#DejaVuSans-78" x="214.013672"/>
      <use xlink:href="#DejaVuSans-6c" x="273.193359"/>
      <use xlink:href="#DejaVuSans-61" x="300.976562"/>
      <use xlink:href="#DejaVuSans-72" x="362.255859"/>
      <use xlink:href="#DejaVuSans-67" x="401.619141"/>
      <use xlink:href="#DejaVuSans-65" x="465.095703"/>
     </g>
    </g>
    <g id="patch_252">
     <path d="M 17.36475 490.7055 
L 49.36475 490.7055 
L 49.36475 479.5055 
L 17.36475 479.5055 
z
" style="fill: #226061"/>
    </g>
    <g id="text_24">
     <!-- c5.metal -->
     <g transform="translate(62.16475 490.7055) scale(0.16 -0.16)">
      <defs>
       <path id="DejaVuSans-35" d="M 691 4666 
L 3169 4666 
L 3169 4134 
L 1269 4134 
L 1269 2991 
Q 1406 3038 1543 3061 
Q 1681 3084 1819 3084 
Q 2600 3084 3056 2656 
Q 3513 2228 3513 1497 
Q 3513 744 3044 326 
Q 2575 -91 1722 -91 
Q 1428 -91 1123 -41 
Q 819 9 494 109 
L 494 744 
Q 775 591 1075 516 
Q 1375 441 1709 441 
Q 2250 441 2565 725 
Q 2881 1009 2881 1497 
Q 2881 1984 2565 2268 
Q 2250 2553 1709 2553 
Q 1456 2553 1204 2497 
Q 953 2441 691 2322 
L 691 4666 
z
" transform="scale(0.015625)"/>
      </defs>
      <use xlink:href="#DejaVuSans-63"/>
      <use xlink:href="#DejaVuSans-35" x="54.980469"/>
      <use xlink:href="#DejaVuSans-2e" x="118.603516"/>
      <use xlink:href="#DejaVuSans-6d" x="150.390625"/>
      <use xlink:href="#DejaVuSans-65" x="247.802734"/>
      <use xlink:href="#DejaVuSans-74" x="309.326172"/>
      <use xlink:href="#DejaVuSans-61" x="348.535156"/>
      <use xlink:href="#DejaVuSans-6c" x="409.814453"/>
     </g>
    </g>
    <g id="patch_253">
     <path d="M 17.36475 514.1905 
L 49.36475 514.1905 
L 49.36475 502.9905 
L 17.36475 502.9905 
z
" style="fill: #f19d6b"/>
    </g>
    <g id="text_25">
     <!-- c5a.24xlarge -->
     <g transform="translate(62.16475 514.1905) scale(0.16 -0.16)">
      <use xlink:href="#DejaVuSans-63"/>
      <use xlink:href="#DejaVuSans-35" x="54.980469"/>
      <use xlink:href="#DejaVuSans-61" x="118.603516"/>
      <use xlink:href="#DejaVuSans-2e" x="179.882812"/>
      <use xlink:href="#DejaVuSans-32" x="211.669922"/>
      <use xlink:href="#DejaVuSans-34" x="275.292969"/>
      <use xlink:href="#DejaVuSans-78" x="338.916016"/>
      <use xlink:href="#DejaVuSans-6c" x="398.095703"/>
      <use xlink:href="#DejaVuSans-61" x="425.878906"/>
      <use xlink:href="#DejaVuSans-72" x="487.158203"/>
      <use xlink:href="#DejaVuSans-67" x="526.521484"/>
      <use xlink:href="#DejaVuSans-65" x="589.998047"/>
     </g>
    </g>
    <g id="patch_254">
     <path d="M 17.36475 537.6755 
L 49.36475 537.6755 
L 49.36475 526.4755 
L 17.36475 526.4755 
z
" style="fill: #4d734d"/>
    </g>
    <g id="text_26">
     <!-- c5n.metal -->
     <g transform="translate(62.16475 537.6755) scale(0.16 -0.16)">
      <use xlink:href="#DejaVuSans-63"/>
      <use xlink:href="#DejaVuSans-35" x="54.980469"/>
      <use xlink:href="#DejaVuSans-6e" x="118.603516"/>
      <use xlink:href="#DejaVuSans-2e" x="181.982422"/>
      <use xlink:href="#DejaVuSans-6d" x="213.769531"/>
      <use xlink:href="#DejaVuSans-65" x="311.181641"/>
      <use xlink:href="#DejaVuSans-74" x="372.705078"/>
      <use xlink:href="#DejaVuSans-61" x="411.914062"/>
      <use xlink:href="#DejaVuSans-6c" x="473.193359"/>
     </g>
    </g>
    <g id="patch_255">
     <path d="M 17.36475 561.1605 
L 49.36475 561.1605 
L 49.36475 549.9605 
L 17.36475 549.9605 
z
" style="fill: #114360"/>
    </g>
    <g id="text_27">
     <!-- c6a.48xlarge -->
     <g transform="translate(62.16475 561.1605) scale(0.16 -0.16)">
      <use xlink:href="#DejaVuSans-63"/>
      <use xlink:href="#DejaVuSans-36" x="54.980469"/>
      <use xlink:href="#DejaVuSans-61" x="118.603516"/>
      <use xlink:href="#DejaVuSans-2e" x="179.882812"/>
      <use xlink:href="#DejaVuSans-34" x="211.669922"/>
      <use xlink:href="#DejaVuSans-38" x="275.292969"/>
      <use xlink:href="#DejaVuSans-78" x="338.916016"/>
      <use xlink:href="#DejaVuSans-6c" x="398.095703"/>
      <use xlink:href="#DejaVuSans-61" x="425.878906"/>
      <use xlink:href="#DejaVuSans-72" x="487.158203"/>
      <use xlink:href="#DejaVuSans-67" x="526.521484"/>
      <use xlink:href="#DejaVuSans-65" x="589.998047"/>
     </g>
    </g>
    <g id="patch_256">
     <path d="M 198.41225 420.2505 
L 230.41225 420.2505 
L 230.41225 409.0505 
L 198.41225 409.0505 
z
" style="fill: #fdb4b4"/>
    </g>
    <g id="text_28">
     <!-- c6a.metal -->
     <g transform="translate(243.21225 420.2505) scale(0.16 -0.16)">
      <use xlink:href="#DejaVuSans-63"/>
      <use xlink:href="#DejaVuSans-36" x="54.980469"/>
      <use xlink:href="#DejaVuSans-61" x="118.603516"/>
      <use xlink:href="#DejaVuSans-2e" x="179.882812"/>
      <use xlink:href="#DejaVuSans-6d" x="211.669922"/>
      <use xlink:href="#DejaVuSans-65" x="309.082031"/>
      <use xlink:href="#DejaVuSans-74" x="370.605469"/>
      <use xlink:href="#DejaVuSans-61" x="409.814453"/>
      <use xlink:href="#DejaVuSans-6c" x="471.09375"/>
     </g>
    </g>
    <g id="patch_257">
     <path d="M 198.41225 443.7355 
L 230.41225 443.7355 
L 230.41225 432.5355 
L 198.41225 432.5355 
z
" style="fill: #c09036"/>
    </g>
    <g id="text_29">
     <!-- c6g.metal -->
     <g transform="translate(243.21225 443.7355) scale(0.16 -0.16)">
      <use xlink:href="#DejaVuSans-63"/>
      <use xlink:href="#DejaVuSans-36" x="54.980469"/>
      <use xlink:href="#DejaVuSans-67" x="118.603516"/>
      <use xlink:href="#DejaVuSans-2e" x="182.080078"/>
      <use xlink:href="#DejaVuSans-6d" x="213.867188"/>
      <use xlink:href="#DejaVuSans-65" x="311.279297"/>
      <use xlink:href="#DejaVuSans-74" x="372.802734"/>
      <use xlink:href="#DejaVuSans-61" x="412.011719"/>
      <use xlink:href="#DejaVuSans-6c" x="473.291016"/>
     </g>
    </g>
    <g id="patch_258">
     <path d="M 198.41225 467.2205 
L 230.41225 467.2205 
L 230.41225 456.0205 
L 198.41225 456.0205 
z
" style="fill: #175262"/>
    </g>
    <g id="text_30">
     <!-- c6i.metal -->
     <g transform="translate(243.21225 467.2205) scale(0.16 -0.16)">
      <use xlink:href="#DejaVuSans-63"/>
      <use xlink:href="#DejaVuSans-36" x="54.980469"/>
      <use xlink:href="#DejaVuSans-69" x="118.603516"/>
      <use xlink:href="#DejaVuSans-2e" x="146.386719"/>
      <use xlink:href="#DejaVuSans-6d" x="178.173828"/>
      <use xlink:href="#DejaVuSans-65" x="275.585938"/>
      <use xlink:href="#DejaVuSans-74" x="337.109375"/>
      <use xlink:href="#DejaVuSans-61" x="376.318359"/>
      <use xlink:href="#DejaVuSans-6c" x="437.597656"/>
     </g>
    </g>
    <g id="patch_259">
     <path d="M 198.41225 490.7055 
L 230.41225 490.7055 
L 230.41225 479.5055 
L 198.41225 479.5055 
z
" style="fill: #fcbfd6"/>
    </g>
    <g id="text_31">
     <!-- c7a.metal-48xl -->
     <g transform="translate(243.21225 490.7055) scale(0.16 -0.16)">
      <defs>
       <path id="DejaVuSans-37" d="M 525 4666 
L 3525 4666 
L 3525 4397 
L 1831 0 
L 1172 0 
L 2766 4134 
L 525 4134 
L 525 4666 
z
" transform="scale(0.015625)"/>
       <path id="DejaVuSans-2d" d="M 313 2009 
L 1997 2009 
L 1997 1497 
L 313 1497 
L 313 2009 
z
" transform="scale(0.015625)"/>
      </defs>
      <use xlink:href="#DejaVuSans-63"/>
      <use xlink:href="#DejaVuSans-37" x="54.980469"/>
      <use xlink:href="#DejaVuSans-61" x="118.603516"/>
      <use xlink:href="#DejaVuSans-2e" x="179.882812"/>
      <use xlink:href="#DejaVuSans-6d" x="211.669922"/>
      <use xlink:href="#DejaVuSans-65" x="309.082031"/>
      <use xlink:href="#DejaVuSans-74" x="370.605469"/>
      <use xlink:href="#DejaVuSans-61" x="409.814453"/>
      <use xlink:href="#DejaVuSans-6c" x="471.09375"/>
      <use xlink:href="#DejaVuSans-2d" x="498.876953"/>
      <use xlink:href="#DejaVuSans-34" x="534.960938"/>
      <use xlink:href="#DejaVuSans-38" x="598.583984"/>
      <use xlink:href="#DejaVuSans-78" x="662.207031"/>
      <use xlink:href="#DejaVuSans-6c" x="721.386719"/>
     </g>
    </g>
    <g id="patch_260">
     <path d="M 198.41225 514.1905 
L 230.41225 514.1905 
L 230.41225 502.9905 
L 198.41225 502.9905 
z
" style="fill: #fca890"/>
    </g>
    <g id="text_32">
     <!-- c7g.16xlarge -->
     <g transform="translate(243.21225 514.1905) scale(0.16 -0.16)">
      <use xlink:href="#DejaVuSans-63"/>
      <use xlink:href="#DejaVuSans-37" x="54.980469"/>
      <use xlink:href="#DejaVuSans-67" x="118.603516"/>
      <use xlink:href="#DejaVuSans-2e" x="182.080078"/>
      <use xlink:href="#DejaVuSans-31" x="213.867188"/>
      <use xlink:href="#DejaVuSans-36" x="277.490234"/>
      <use xlink:href="#DejaVuSans-78" x="341.113281"/>
      <use xlink:href="#DejaVuSans-6c" x="400.292969"/>
      <use xlink:href="#DejaVuSans-61" x="428.076172"/>
      <use xlink:href="#DejaVuSans-72" x="489.355469"/>
      <use xlink:href="#DejaVuSans-67" x="528.71875"/>
      <use xlink:href="#DejaVuSans-65" x="592.195312"/>
     </g>
    </g>
    <g id="patch_261">
     <path d="M 198.41225 537.6755 
L 230.41225 537.6755 
L 230.41225 526.4755 
L 198.41225 526.4755 
z
" style="fill: #356a59"/>
    </g>
    <g id="text_33">
     <!-- c7g.metal -->
     <g transform="translate(243.21225 537.6755) scale(0.16 -0.16)">
      <use xlink:href="#DejaVuSans-63"/>
      <use xlink:href="#DejaVuSans-37" x="54.980469"/>
      <use xlink:href="#DejaVuSans-67" x="118.603516"/>
      <use xlink:href="#DejaVuSans-2e" x="182.080078"/>
      <use xlink:href="#DejaVuSans-6d" x="213.867188"/>
      <use xlink:href="#DejaVuSans-65" x="311.279297"/>
      <use xlink:href="#DejaVuSans-74" x="372.802734"/>
      <use xlink:href="#DejaVuSans-61" x="412.011719"/>
      <use xlink:href="#DejaVuSans-6c" x="473.291016"/>
     </g>
    </g>
    <g id="patch_262">
     <path d="M 198.41225 561.1605 
L 230.41225 561.1605 
L 230.41225 549.9605 
L 198.41225 549.9605 
z
" style="fill: #0d315d"/>
    </g>
    <g id="text_34">
     <!-- c7gn.16xlarge -->
     <g transform="translate(243.21225 561.1605) scale(0.16 -0.16)">
      <use xlink:href="#DejaVuSans-63"/>
      <use xlink:href="#DejaVuSans-37" x="54.980469"/>
      <use xlink:href="#DejaVuSans-67" x="118.603516"/>
      <use xlink:href="#DejaVuSans-6e" x="182.080078"/>
      <use xlink:href="#DejaVuSans-2e" x="245.458984"/>
      <use xlink:href="#DejaVuSans-31" x="277.246094"/>
      <use xlink:href="#DejaVuSans-36" x="340.869141"/>
      <use xlink:href="#DejaVuSans-78" x="404.492188"/>
      <use xlink:href="#DejaVuSans-6c" x="463.671875"/>
      <use xlink:href="#DejaVuSans-61" x="491.455078"/>
      <use xlink:href="#DejaVuSans-72" x="552.734375"/>
      <use xlink:href="#DejaVuSans-67" x="592.097656"/>
      <use xlink:href="#DejaVuSans-65" x="655.574219"/>
     </g>
    </g>
    <g id="patch_263">
     <path d="M 395.07975 420.2505 
L 427.07975 420.2505 
L 427.07975 409.0505 
L 395.07975 409.0505 
z
" style="fill: #a18a2b"/>
    </g>
    <g id="text_35">
     <!-- c7i.metal-24xl -->
     <g transform="translate(439.87975 420.2505) scale(0.16 -0.16)">
      <use xlink:href="#DejaVuSans-63"/>
      <use xlink:href="#DejaVuSans-37" x="54.980469"/>
      <use xlink:href="#DejaVuSans-69" x="118.603516"/>
      <use xlink:href="#DejaVuSans-2e" x="146.386719"/>
      <use xlink:href="#DejaVuSans-6d" x="178.173828"/>
      <use xlink:href="#DejaVuSans-65" x="275.585938"/>
      <use xlink:href="#DejaVuSans-74" x="337.109375"/>
      <use xlink:href="#DejaVuSans-61" x="376.318359"/>
      <use xlink:href="#DejaVuSans-6c" x="437.597656"/>
      <use xlink:href="#DejaVuSans-2d" x="465.380859"/>
      <use xlink:href="#DejaVuSans-32" x="501.464844"/>
      <use xlink:href="#DejaVuSans-34" x="565.087891"/>
      <use xlink:href="#DejaVuSans-78" x="628.710938"/>
      <use xlink:href="#DejaVuSans-6c" x="687.890625"/>
     </g>
    </g>
    <g id="patch_264">
     <path d="M 395.07975 443.7355 
L 427.07975 443.7355 
L 427.07975 432.5355 
L 395.07975 432.5355 
z
" style="fill: #677b3e"/>
    </g>
    <g id="text_36">
     <!-- c7i.metal-48xl -->
     <g transform="translate(439.87975 443.7355) scale(0.16 -0.16)">
      <use xlink:href="#DejaVuSans-63"/>
      <use xlink:href="#DejaVuSans-37" x="54.980469"/>
      <use xlink:href="#DejaVuSans-69" x="118.603516"/>
      <use xlink:href="#DejaVuSans-2e" x="146.386719"/>
      <use xlink:href="#DejaVuSans-6d" x="178.173828"/>
      <use xlink:href="#DejaVuSans-65" x="275.585938"/>
      <use xlink:href="#DejaVuSans-74" x="337.109375"/>
      <use xlink:href="#DejaVuSans-61" x="376.318359"/>
      <use xlink:href="#DejaVuSans-6c" x="437.597656"/>
      <use xlink:href="#DejaVuSans-2d" x="465.380859"/>
      <use xlink:href="#DejaVuSans-34" x="501.464844"/>
      <use xlink:href="#DejaVuSans-38" x="565.087891"/>
      <use xlink:href="#DejaVuSans-78" x="628.710938"/>
      <use xlink:href="#DejaVuSans-6c" x="687.890625"/>
     </g>
    </g>
    <g id="patch_265">
     <path d="M 395.07975 467.2205 
L 427.07975 467.2205 
L 427.07975 456.0205 
L 395.07975 456.0205 
z
" style="fill: #dd954d"/>
    </g>
    <g id="text_37">
     <!-- d2.8xlarge -->
     <g transform="translate(439.87975 467.2205) scale(0.16 -0.16)">
      <use xlink:href="#DejaVuSans-64"/>
      <use xlink:href="#DejaVuSans-32" x="63.476562"/>
      <use xlink:href="#DejaVuSans-2e" x="127.099609"/>
      <use xlink:href="#DejaVuSans-38" x="158.886719"/>
      <use xlink:href="#DejaVuSans-78" x="222.509766"/>
      <use xlink:href="#DejaVuSans-6c" x="281.689453"/>
      <use xlink:href="#DejaVuSans-61" x="309.472656"/>
      <use xlink:href="#DejaVuSans-72" x="370.751953"/>
      <use xlink:href="#DejaVuSans-67" x="410.115234"/>
      <use xlink:href="#DejaVuSans-65" x="473.591797"/>
     </g>
    </g>
    <g id="patch_266">
     <path d="M 395.07975 490.7055 
L 427.07975 490.7055 
L 427.07975 479.5055 
L 395.07975 479.5055 
z
" style="fill: #08255b"/>
    </g>
    <g id="text_38">
     <!-- i3.metal -->
     <g transform="translate(439.87975 490.7055) scale(0.16 -0.16)">
      <use xlink:href="#DejaVuSans-69"/>
      <use xlink:href="#DejaVuSans-33" x="27.783203"/>
      <use xlink:href="#DejaVuSans-2e" x="91.40625"/>
      <use xlink:href="#DejaVuSans-6d" x="123.193359"/>
      <use xlink:href="#DejaVuSans-65" x="220.605469"/>
      <use xlink:href="#DejaVuSans-74" x="282.128906"/>
      <use xlink:href="#DejaVuSans-61" x="321.337891"/>
      <use xlink:href="#DejaVuSans-6c" x="382.617188"/>
     </g>
    </g>
    <g id="patch_267">
     <path d="M 395.07975 514.1905 
L 427.07975 514.1905 
L 427.07975 502.9905 
L 395.07975 502.9905 
z
" style="fill: #fdaea2"/>
    </g>
    <g id="text_39">
     <!-- m5.metal -->
     <g transform="translate(439.87975 514.1905) scale(0.16 -0.16)">
      <use xlink:href="#DejaVuSans-6d"/>
      <use xlink:href="#DejaVuSans-35" x="97.412109"/>
      <use xlink:href="#DejaVuSans-2e" x="161.035156"/>
      <use xlink:href="#DejaVuSans-6d" x="192.822266"/>
      <use xlink:href="#DejaVuSans-65" x="290.234375"/>
      <use xlink:href="#DejaVuSans-74" x="351.757812"/>
      <use xlink:href="#DejaVuSans-61" x="390.966797"/>
      <use xlink:href="#DejaVuSans-6c" x="452.246094"/>
     </g>
    </g>
    <g id="patch_268">
     <path d="M 395.07975 537.6755 
L 427.07975 537.6755 
L 427.07975 526.4755 
L 395.07975 526.4755 
z
" style="fill: #fbc6e8"/>
    </g>
    <g id="text_40">
     <!-- m5a.24xlarge -->
     <g transform="translate(439.87975 537.6755) scale(0.16 -0.16)">
      <use xlink:href="#DejaVuSans-6d"/>
      <use xlink:href="#DejaVuSans-35" x="97.412109"/>
      <use xlink:href="#DejaVuSans-61" x="161.035156"/>
      <use xlink:href="#DejaVuSans-2e" x="222.314453"/>
      <use xlink:href="#DejaVuSans-32" x="254.101562"/>
      <use xlink:href="#DejaVuSans-34" x="317.724609"/>
      <use xlink:href="#DejaVuSans-78" x="381.347656"/>
      <use xlink:href="#DejaVuSans-6c" x="440.527344"/>
      <use xlink:href="#DejaVuSans-61" x="468.310547"/>
      <use xlink:href="#DejaVuSans-72" x="529.589844"/>
      <use xlink:href="#DejaVuSans-67" x="568.953125"/>
      <use xlink:href="#DejaVuSans-65" x="632.429688"/>
     </g>
    </g>
   </g>
  </g>
 </g>
 <defs>
  <clipPath id="p2ea69f805a">
   <rect x="62.676" y="27.789" width="446.4" height="332.64"/>
  </clipPath>
 </defs>
</svg>
