<?xml version="1.0" encoding="utf-8" standalone="no"?>
<!DOCTYPE svg PUBLIC "-//W3C//DTD SVG 1.1//EN"
  "http://www.w3.org/Graphics/SVG/1.1/DTD/svg11.dtd">
<svg xmlns:xlink="http://www.w3.org/1999/xlink" width="600.07625pt" height="578.088pt" viewBox="0 0 600.07625 578.088" xmlns="http://www.w3.org/2000/svg" version="1.1">
 <metadata>
  <rdf:RDF xmlns:dc="http://purl.org/dc/elements/1.1/" xmlns:cc="http://creativecommons.org/ns#" xmlns:rdf="http://www.w3.org/1999/02/22-rdf-syntax-ns#">
   <cc:Work>
    <dc:type rdf:resource="http://purl.org/dc/dcmitype/StillImage"/>
    <dc:date>2024-04-13T23:02:00.590070</dc:date>
    <dc:format>image/svg+xml</dc:format>
    <dc:creator>
     <cc:Agent>
      <dc:title>Matplotlib v3.8.2, https://matplotlib.org/</dc:title>
     </cc:Agent>
    </dc:creator>
   </cc:Work>
  </rdf:RDF>
 </metadata>
 <defs>
  <style type="text/css">*{stroke-linejoin: round; stroke-linecap: butt}</style>
 </defs>
 <g id="figure_1">
  <g id="patch_1">
   <path d="M 0 578.088 
L 600.07625 578.088 
L 600.07625 0 
L 0 0 
z
" style="fill: #ffffff"/>
  </g>
  <g id="axes_1">
   <g id="patch_2">
    <path d="M 94.765 360.429 
L 541.165 360.429 
L 541.165 27.789 
L 94.765 27.789 
z
" style="fill: #ffffff"/>
   </g>
   <g id="patch_3">
    <path d="M 115.055909 360.429 
L 116.551029 360.429 
L 116.551029 346.682796 
L 115.055909 346.682796 
z
" clip-path="url(#pd6d9e46964)" style="fill: #011959"/>
   </g>
   <g id="patch_4">
    <path d="M 149.230072 360.429 
L 150.725191 360.429 
L 150.725191 356.406517 
L 149.230072 356.406517 
z
" clip-path="url(#pd6d9e46964)" style="fill: #011959"/>
   </g>
   <g id="patch_5">
    <path d="M 183.404234 360.429 
L 184.899354 360.429 
L 184.899354 356.406517 
L 183.404234 356.406517 
z
" clip-path="url(#pd6d9e46964)" style="fill: #011959"/>
   </g>
   <g id="patch_6">
    <path d="M 217.578397 360.429 
L 219.073517 360.429 
L 219.073517 356.719006 
L 217.578397 356.719006 
z
" clip-path="url(#pd6d9e46964)" style="fill: #011959"/>
   </g>
   <g id="patch_7">
    <path d="M 251.75256 360.429 
L 253.247679 360.429 
L 253.247679 357.936738 
L 251.75256 357.936738 
z
" clip-path="url(#pd6d9e46964)" style="fill: #011959"/>
   </g>
   <g id="patch_8">
    <path d="M 285.926722 360.429 
L 287.421842 360.429 
L 287.421842 354.041808 
L 285.926722 354.041808 
z
" clip-path="url(#pd6d9e46964)" style="fill: #011959"/>
   </g>
   <g id="patch_9">
    <path d="M 320.100885 360.429 
L 321.596005 360.429 
L 321.596005 358.204132 
L 320.100885 358.204132 
z
" clip-path="url(#pd6d9e46964)" style="fill: #011959"/>
   </g>
   <g id="patch_10">
    <path d="M 354.275048 360.429 
L 355.770167 360.429 
L 355.770167 359.553012 
L 354.275048 359.553012 
z
" clip-path="url(#pd6d9e46964)" style="fill: #011959"/>
   </g>
   <g id="patch_11">
    <path d="M 388.449211 360.429 
L 389.94433 360.429 
L 389.94433 359.124296 
L 388.449211 359.124296 
z
" clip-path="url(#pd6d9e46964)" style="fill: #011959"/>
   </g>
   <g id="patch_12">
    <path d="M 422.623373 360.429 
L 424.118493 360.429 
L 424.118493 356.540757 
L 422.623373 356.540757 
z
" clip-path="url(#pd6d9e46964)" style="fill: #011959"/>
   </g>
   <g id="patch_13">
    <path d="M 456.797536 360.429 
L 458.292656 360.429 
L 458.292656 357.086369 
L 456.797536 357.086369 
z
" clip-path="url(#pd6d9e46964)" style="fill: #011959"/>
   </g>
   <g id="patch_14">
    <path d="M 490.971699 360.429 
L 492.466818 360.429 
L 492.466818 358.727969 
L 490.971699 358.727969 
z
" clip-path="url(#pd6d9e46964)" style="fill: #011959"/>
   </g>
   <g id="patch_15">
    <path d="M 116.551029 360.429 
L 118.046148 360.429 
L 118.046148 336.181259 
L 116.551029 336.181259 
z
" clip-path="url(#pd6d9e46964)" style="fill: #faccfa"/>
   </g>
   <g id="patch_16">
    <path d="M 150.725191 360.429 
L 152.220311 360.429 
L 152.220311 349.618193 
L 150.725191 349.618193 
z
" clip-path="url(#pd6d9e46964)" style="fill: #faccfa"/>
   </g>
   <g id="patch_17">
    <path d="M 184.899354 360.429 
L 186.394474 360.429 
L 186.394474 349.618193 
L 184.899354 349.618193 
z
" clip-path="url(#pd6d9e46964)" style="fill: #faccfa"/>
   </g>
   <g id="patch_18">
    <path d="M 219.073517 360.429 
L 220.568636 360.429 
L 220.568636 350.022418 
L 219.073517 350.022418 
z
" clip-path="url(#pd6d9e46964)" style="fill: #faccfa"/>
   </g>
   <g id="patch_19">
    <path d="M 253.247679 360.429 
L 254.742799 360.429 
L 254.742799 353.199714 
L 253.247679 353.199714 
z
" clip-path="url(#pd6d9e46964)" style="fill: #faccfa"/>
   </g>
   <g id="patch_20">
    <path d="M 287.421842 360.429 
L 288.916962 360.429 
L 288.916962 340.416178 
L 287.421842 340.416178 
z
" clip-path="url(#pd6d9e46964)" style="fill: #faccfa"/>
   </g>
   <g id="patch_21">
    <path d="M 321.596005 360.429 
L 323.091124 360.429 
L 323.091124 355.531824 
L 321.596005 355.531824 
z
" clip-path="url(#pd6d9e46964)" style="fill: #faccfa"/>
   </g>
   <g id="patch_22">
    <path d="M 355.770167 360.429 
L 357.265287 360.429 
L 357.265287 358.37958 
L 355.770167 358.37958 
z
" clip-path="url(#pd6d9e46964)" style="fill: #faccfa"/>
   </g>
   <g id="patch_23">
    <path d="M 389.94433 360.429 
L 391.43945 360.429 
L 391.43945 357.299933 
L 389.94433 357.299933 
z
" clip-path="url(#pd6d9e46964)" style="fill: #faccfa"/>
   </g>
   <g id="patch_24">
    <path d="M 424.118493 360.429 
L 425.613612 360.429 
L 425.613612 352.10335 
L 424.118493 352.10335 
z
" clip-path="url(#pd6d9e46964)" style="fill: #faccfa"/>
   </g>
   <g id="patch_25">
    <path d="M 458.292656 360.429 
L 459.787775 360.429 
L 459.787775 352.496207 
L 458.292656 352.496207 
z
" clip-path="url(#pd6d9e46964)" style="fill: #faccfa"/>
   </g>
   <g id="patch_26">
    <path d="M 492.466818 360.429 
L 493.961938 360.429 
L 493.961938 358.175085 
L 492.466818 358.175085 
z
" clip-path="url(#pd6d9e46964)" style="fill: #faccfa"/>
   </g>
   <g id="patch_27">
    <path d="M 118.046148 360.429 
L 119.541268 360.429 
L 119.541268 328.239146 
L 118.046148 328.239146 
z
" clip-path="url(#pd6d9e46964)" style="fill: #828231"/>
   </g>
   <g id="patch_28">
    <path d="M 152.220311 360.429 
L 153.715431 360.429 
L 153.715431 345.507818 
L 152.220311 345.507818 
z
" clip-path="url(#pd6d9e46964)" style="fill: #828231"/>
   </g>
   <g id="patch_29">
    <path d="M 186.394474 360.429 
L 187.889593 360.429 
L 187.889593 345.507818 
L 186.394474 345.507818 
z
" clip-path="url(#pd6d9e46964)" style="fill: #828231"/>
   </g>
   <g id="patch_30">
    <path d="M 220.568636 360.429 
L 222.063756 360.429 
L 222.063756 348.141801 
L 220.568636 348.141801 
z
" clip-path="url(#pd6d9e46964)" style="fill: #828231"/>
   </g>
   <g id="patch_31">
    <path d="M 254.742799 360.429 
L 256.237919 360.429 
L 256.237919 351.905458 
L 254.742799 351.905458 
z
" clip-path="url(#pd6d9e46964)" style="fill: #828231"/>
   </g>
   <g id="patch_32">
    <path d="M 288.916962 360.429 
L 290.412081 360.429 
L 290.412081 338.113491 
L 288.916962 338.113491 
z
" clip-path="url(#pd6d9e46964)" style="fill: #828231"/>
   </g>
   <g id="patch_33">
    <path d="M 323.091124 360.429 
L 324.586244 360.429 
L 324.586244 354.600042 
L 323.091124 354.600042 
z
" clip-path="url(#pd6d9e46964)" style="fill: #828231"/>
   </g>
   <g id="patch_34">
    <path d="M 357.265287 360.429 
L 358.760407 360.429 
L 358.760407 357.449511 
L 357.265287 357.449511 
z
" clip-path="url(#pd6d9e46964)" style="fill: #828231"/>
   </g>
   <g id="patch_35">
    <path d="M 391.43945 360.429 
L 392.934569 360.429 
L 392.934569 357.993619 
L 391.43945 357.993619 
z
" clip-path="url(#pd6d9e46964)" style="fill: #828231"/>
   </g>
   <g id="patch_36">
    <path d="M 425.613612 360.429 
L 427.108732 360.429 
L 427.108732 351.629413 
L 425.613612 351.629413 
z
" clip-path="url(#pd6d9e46964)" style="fill: #828231"/>
   </g>
   <g id="patch_37">
    <path d="M 459.787775 360.429 
L 461.282895 360.429 
L 461.282895 352.191993 
L 459.787775 352.191993 
z
" clip-path="url(#pd6d9e46964)" style="fill: #828231"/>
   </g>
   <g id="patch_38">
    <path d="M 493.961938 360.429 
L 495.457057 360.429 
L 495.457057 357.854823 
L 493.961938 357.854823 
z
" clip-path="url(#pd6d9e46964)" style="fill: #828231"/>
   </g>
   <g id="patch_39">
    <path d="M 119.541268 360.429 
L 121.036388 360.429 
L 121.036388 260.803636 
L 119.541268 260.803636 
z
" clip-path="url(#pd6d9e46964)" style="fill: #226061"/>
   </g>
   <g id="patch_40">
    <path d="M 153.715431 360.429 
L 155.21055 360.429 
L 155.21055 311.258264 
L 153.715431 311.258264 
z
" clip-path="url(#pd6d9e46964)" style="fill: #226061"/>
   </g>
   <g id="patch_41">
    <path d="M 187.889593 360.429 
L 189.384713 360.429 
L 189.384713 311.258264 
L 187.889593 311.258264 
z
" clip-path="url(#pd6d9e46964)" style="fill: #226061"/>
   </g>
   <g id="patch_42">
    <path d="M 222.063756 360.429 
L 223.558876 360.429 
L 223.558876 298.563162 
L 222.063756 298.563162 
z
" clip-path="url(#pd6d9e46964)" style="fill: #226061"/>
   </g>
   <g id="patch_43">
    <path d="M 256.237919 360.429 
L 257.733038 360.429 
L 257.733038 314.009226 
L 256.237919 314.009226 
z
" clip-path="url(#pd6d9e46964)" style="fill: #226061"/>
   </g>
   <g id="patch_44">
    <path d="M 290.412081 360.429 
L 291.907201 360.429 
L 291.907201 300.241122 
L 290.412081 300.241122 
z
" clip-path="url(#pd6d9e46964)" style="fill: #226061"/>
   </g>
   <g id="patch_45">
    <path d="M 324.586244 360.429 
L 326.081364 360.429 
L 326.081364 318.462306 
L 324.586244 318.462306 
z
" clip-path="url(#pd6d9e46964)" style="fill: #226061"/>
   </g>
   <g id="patch_46">
    <path d="M 358.760407 360.429 
L 360.255526 360.429 
L 360.255526 356.759253 
L 358.760407 356.759253 
z
" clip-path="url(#pd6d9e46964)" style="fill: #226061"/>
   </g>
   <g id="patch_47">
    <path d="M 392.934569 360.429 
L 394.429689 360.429 
L 394.429689 356.661122 
L 392.934569 356.661122 
z
" clip-path="url(#pd6d9e46964)" style="fill: #226061"/>
   </g>
   <g id="patch_48">
    <path d="M 427.108732 360.429 
L 428.603852 360.429 
L 428.603852 348.065905 
L 427.108732 348.065905 
z
" clip-path="url(#pd6d9e46964)" style="fill: #226061"/>
   </g>
   <g id="patch_49">
    <path d="M 461.282895 360.429 
L 462.778014 360.429 
L 462.778014 348.62092 
L 461.282895 348.62092 
z
" clip-path="url(#pd6d9e46964)" style="fill: #226061"/>
   </g>
   <g id="patch_50">
    <path d="M 495.457057 360.429 
L 496.952177 360.429 
L 496.952177 313.043633 
L 495.457057 313.043633 
z
" clip-path="url(#pd6d9e46964)" style="fill: #226061"/>
   </g>
   <g id="patch_51">
    <path d="M 121.036388 360.429 
L 122.531507 360.429 
L 122.531507 265.11512 
L 121.036388 265.11512 
z
" clip-path="url(#pd6d9e46964)" style="fill: #f19d6b"/>
   </g>
   <g id="patch_52">
    <path d="M 155.21055 360.429 
L 156.70567 360.429 
L 156.70567 314.736514 
L 155.21055 314.736514 
z
" clip-path="url(#pd6d9e46964)" style="fill: #f19d6b"/>
   </g>
   <g id="patch_53">
    <path d="M 189.384713 360.429 
L 190.879833 360.429 
L 190.879833 314.736514 
L 189.384713 314.736514 
z
" clip-path="url(#pd6d9e46964)" style="fill: #f19d6b"/>
   </g>
   <g id="patch_54">
    <path d="M 223.558876 360.429 
L 225.053995 360.429 
L 225.053995 299.083949 
L 223.558876 299.083949 
z
" clip-path="url(#pd6d9e46964)" style="fill: #f19d6b"/>
   </g>
   <g id="patch_55">
    <path d="M 257.733038 360.429 
L 259.228158 360.429 
L 259.228158 320.033192 
L 257.733038 320.033192 
z
" clip-path="url(#pd6d9e46964)" style="fill: #f19d6b"/>
   </g>
   <g id="patch_56">
    <path d="M 291.907201 360.429 
L 293.402321 360.429 
L 293.402321 331.363742 
L 291.907201 331.363742 
z
" clip-path="url(#pd6d9e46964)" style="fill: #f19d6b"/>
   </g>
   <g id="patch_57">
    <path d="M 326.081364 360.429 
L 327.576483 360.429 
L 327.576483 331.731481 
L 326.081364 331.731481 
z
" clip-path="url(#pd6d9e46964)" style="fill: #f19d6b"/>
   </g>
   <g id="patch_58">
    <path d="M 360.255526 360.429 
L 361.750646 360.429 
L 361.750646 359.812715 
L 360.255526 359.812715 
z
" clip-path="url(#pd6d9e46964)" style="fill: #f19d6b"/>
   </g>
   <g id="patch_59">
    <path d="M 394.429689 360.429 
L 395.924809 360.429 
L 395.924809 358.081636 
L 394.429689 358.081636 
z
" clip-path="url(#pd6d9e46964)" style="fill: #f19d6b"/>
   </g>
   <g id="patch_60">
    <path d="M 428.603852 360.429 
L 430.098971 360.429 
L 430.098971 350.430279 
L 428.603852 350.430279 
z
" clip-path="url(#pd6d9e46964)" style="fill: #f19d6b"/>
   </g>
   <g id="patch_61">
    <path d="M 462.778014 360.429 
L 464.273134 360.429 
L 464.273134 351.058725 
L 462.778014 351.058725 
z
" clip-path="url(#pd6d9e46964)" style="fill: #f19d6b"/>
   </g>
   <g id="patch_62">
    <path d="M 496.952177 360.429 
L 498.447297 360.429 
L 498.447297 325.411493 
L 496.952177 325.411493 
z
" clip-path="url(#pd6d9e46964)" style="fill: #f19d6b"/>
   </g>
   <g id="patch_63">
    <path d="M 122.531507 360.429 
L 124.026627 360.429 
L 124.026627 288.852564 
L 122.531507 288.852564 
z
" clip-path="url(#pd6d9e46964)" style="fill: #4d734d"/>
   </g>
   <g id="patch_64">
    <path d="M 156.70567 360.429 
L 158.200789 360.429 
L 158.200789 325.025615 
L 156.70567 325.025615 
z
" clip-path="url(#pd6d9e46964)" style="fill: #4d734d"/>
   </g>
   <g id="patch_65">
    <path d="M 190.879833 360.429 
L 192.374952 360.429 
L 192.374952 325.025615 
L 190.879833 325.025615 
z
" clip-path="url(#pd6d9e46964)" style="fill: #4d734d"/>
   </g>
   <g id="patch_66">
    <path d="M 225.053995 360.429 
L 226.549115 360.429 
L 226.549115 340.375973 
L 225.053995 340.375973 
z
" clip-path="url(#pd6d9e46964)" style="fill: #4d734d"/>
   </g>
   <g id="patch_67">
    <path d="M 259.228158 360.429 
L 260.723278 360.429 
L 260.723278 347.008241 
L 259.228158 347.008241 
z
" clip-path="url(#pd6d9e46964)" style="fill: #4d734d"/>
   </g>
   <g id="patch_68">
    <path d="M 293.402321 360.429 
L 294.89744 360.429 
L 294.89744 321.79988 
L 293.402321 321.79988 
z
" clip-path="url(#pd6d9e46964)" style="fill: #4d734d"/>
   </g>
   <g id="patch_69">
    <path d="M 327.576483 360.429 
L 329.071603 360.429 
L 329.071603 351.643414 
L 327.576483 351.643414 
z
" clip-path="url(#pd6d9e46964)" style="fill: #4d734d"/>
   </g>
   <g id="patch_70">
    <path d="M 361.750646 360.429 
L 363.245766 360.429 
L 363.245766 356.206076 
L 361.750646 356.206076 
z
" clip-path="url(#pd6d9e46964)" style="fill: #4d734d"/>
   </g>
   <g id="patch_71">
    <path d="M 395.924809 360.429 
L 397.419928 360.429 
L 397.419928 356.836946 
L 395.924809 356.836946 
z
" clip-path="url(#pd6d9e46964)" style="fill: #4d734d"/>
   </g>
   <g id="patch_72">
    <path d="M 430.098971 360.429 
L 431.594091 360.429 
L 431.594091 348.853793 
L 430.098971 348.853793 
z
" clip-path="url(#pd6d9e46964)" style="fill: #4d734d"/>
   </g>
   <g id="patch_73">
    <path d="M 464.273134 360.429 
L 465.768254 360.429 
L 465.768254 349.490514 
L 464.273134 349.490514 
z
" clip-path="url(#pd6d9e46964)" style="fill: #4d734d"/>
   </g>
   <g id="patch_74">
    <path d="M 498.447297 360.429 
L 499.942416 360.429 
L 499.942416 356.812957 
L 498.447297 356.812957 
z
" clip-path="url(#pd6d9e46964)" style="fill: #4d734d"/>
   </g>
   <g id="patch_75">
    <path d="M 124.026627 360.429 
L 125.521746 360.429 
L 125.521746 139.000012 
L 124.026627 139.000012 
z
" clip-path="url(#pd6d9e46964)" style="fill: #114360"/>
   </g>
   <g id="patch_76">
    <path d="M 158.200789 360.429 
L 159.695909 360.429 
L 159.695909 258.066716 
L 158.200789 258.066716 
z
" clip-path="url(#pd6d9e46964)" style="fill: #114360"/>
   </g>
   <g id="patch_77">
    <path d="M 192.374952 360.429 
L 193.870072 360.429 
L 193.870072 258.066716 
L 192.374952 258.066716 
z
" clip-path="url(#pd6d9e46964)" style="fill: #114360"/>
   </g>
   <g id="patch_78">
    <path d="M 226.549115 360.429 
L 228.044234 360.429 
L 228.044234 231.771603 
L 226.549115 231.771603 
z
" clip-path="url(#pd6d9e46964)" style="fill: #114360"/>
   </g>
   <g id="patch_79">
    <path d="M 260.723278 360.429 
L 262.218397 360.429 
L 262.218397 266.71919 
L 260.723278 266.71919 
z
" clip-path="url(#pd6d9e46964)" style="fill: #114360"/>
   </g>
   <g id="patch_80">
    <path d="M 294.89744 360.429 
L 296.39256 360.429 
L 296.39256 295.064725 
L 294.89744 295.064725 
z
" clip-path="url(#pd6d9e46964)" style="fill: #114360"/>
   </g>
   <g id="patch_81">
    <path d="M 329.071603 360.429 
L 330.566722 360.429 
L 330.566722 278.203664 
L 329.071603 278.203664 
z
" clip-path="url(#pd6d9e46964)" style="fill: #114360"/>
   </g>
   <g id="patch_82">
    <path d="M 363.245766 360.429 
L 364.740885 360.429 
L 364.740885 359.10599 
L 363.245766 359.10599 
z
" clip-path="url(#pd6d9e46964)" style="fill: #114360"/>
   </g>
   <g id="patch_83">
    <path d="M 397.419928 360.429 
L 398.915048 360.429 
L 398.915048 358.62428 
L 397.419928 358.62428 
z
" clip-path="url(#pd6d9e46964)" style="fill: #114360"/>
   </g>
   <g id="patch_84">
    <path d="M 431.594091 360.429 
L 433.089211 360.429 
L 433.089211 352.179497 
L 431.594091 352.179497 
z
" clip-path="url(#pd6d9e46964)" style="fill: #114360"/>
   </g>
   <g id="patch_85">
    <path d="M 465.768254 360.429 
L 467.263373 360.429 
L 467.263373 353.154828 
L 465.768254 353.154828 
z
" clip-path="url(#pd6d9e46964)" style="fill: #114360"/>
   </g>
   <g id="patch_86">
    <path d="M 499.942416 360.429 
L 501.437536 360.429 
L 501.437536 281.531375 
L 499.942416 281.531375 
z
" clip-path="url(#pd6d9e46964)" style="fill: #114360"/>
   </g>
   <g id="patch_87">
    <path d="M 125.521746 360.429 
L 127.016866 360.429 
L 127.016866 132.335521 
L 125.521746 132.335521 
z
" clip-path="url(#pd6d9e46964)" style="fill: #fdb4b4"/>
   </g>
   <g id="patch_88">
    <path d="M 159.695909 360.429 
L 161.191029 360.429 
L 161.191029 256.342072 
L 159.695909 256.342072 
z
" clip-path="url(#pd6d9e46964)" style="fill: #fdb4b4"/>
   </g>
   <g id="patch_89">
    <path d="M 193.870072 360.429 
L 195.365191 360.429 
L 195.365191 256.342072 
L 193.870072 256.342072 
z
" clip-path="url(#pd6d9e46964)" style="fill: #fdb4b4"/>
   </g>
   <g id="patch_90">
    <path d="M 228.044234 360.429 
L 229.539354 360.429 
L 229.539354 233.145308 
L 228.044234 233.145308 
z
" clip-path="url(#pd6d9e46964)" style="fill: #fdb4b4"/>
   </g>
   <g id="patch_91">
    <path d="M 262.218397 360.429 
L 263.713517 360.429 
L 263.713517 264.435644 
L 262.218397 264.435644 
z
" clip-path="url(#pd6d9e46964)" style="fill: #fdb4b4"/>
   </g>
   <g id="patch_92">
    <path d="M 296.39256 360.429 
L 297.887679 360.429 
L 297.887679 295.51718 
L 296.39256 295.51718 
z
" clip-path="url(#pd6d9e46964)" style="fill: #fdb4b4"/>
   </g>
   <g id="patch_93">
    <path d="M 330.566722 360.429 
L 332.061842 360.429 
L 332.061842 276.95559 
L 330.566722 276.95559 
z
" clip-path="url(#pd6d9e46964)" style="fill: #fdb4b4"/>
   </g>
   <g id="patch_94">
    <path d="M 364.740885 360.429 
L 366.236005 360.429 
L 366.236005 346.837181 
L 364.740885 346.837181 
z
" clip-path="url(#pd6d9e46964)" style="fill: #fdb4b4"/>
   </g>
   <g id="patch_95">
    <path d="M 398.915048 360.429 
L 400.410167 360.429 
L 400.410167 357.594618 
L 398.915048 357.594618 
z
" clip-path="url(#pd6d9e46964)" style="fill: #fdb4b4"/>
   </g>
   <g id="patch_96">
    <path d="M 433.089211 360.429 
L 434.58433 360.429 
L 434.58433 352.200519 
L 433.089211 352.200519 
z
" clip-path="url(#pd6d9e46964)" style="fill: #fdb4b4"/>
   </g>
   <g id="patch_97">
    <path d="M 467.263373 360.429 
L 468.758493 360.429 
L 468.758493 353.101751 
L 467.263373 353.101751 
z
" clip-path="url(#pd6d9e46964)" style="fill: #fdb4b4"/>
   </g>
   <g id="patch_98">
    <path d="M 501.437536 360.429 
L 502.932656 360.429 
L 502.932656 277.963352 
L 501.437536 277.963352 
z
" clip-path="url(#pd6d9e46964)" style="fill: #fdb4b4"/>
   </g>
   <g id="patch_99">
    <path d="M 127.016866 360.429 
L 128.511986 360.429 
L 128.511986 273.416948 
L 127.016866 273.416948 
z
" clip-path="url(#pd6d9e46964)" style="fill: #c09036"/>
   </g>
   <g id="patch_100">
    <path d="M 161.191029 360.429 
L 162.686148 360.429 
L 162.686148 325.426873 
L 161.191029 325.426873 
z
" clip-path="url(#pd6d9e46964)" style="fill: #c09036"/>
   </g>
   <g id="patch_101">
    <path d="M 195.365191 360.429 
L 196.860311 360.429 
L 196.860311 325.426873 
L 195.365191 325.426873 
z
" clip-path="url(#pd6d9e46964)" style="fill: #c09036"/>
   </g>
   <g id="patch_102">
    <path d="M 229.539354 360.429 
L 231.034474 360.429 
L 231.034474 309.608848 
L 229.539354 309.608848 
z
" clip-path="url(#pd6d9e46964)" style="fill: #c09036"/>
   </g>
   <g id="patch_103">
    <path d="M 263.713517 360.429 
L 265.208636 360.429 
L 265.208636 318.56541 
L 263.713517 318.56541 
z
" clip-path="url(#pd6d9e46964)" style="fill: #c09036"/>
   </g>
   <g id="patch_104">
    <path d="M 297.887679 360.429 
L 299.382799 360.429 
L 299.382799 324.382081 
L 297.887679 324.382081 
z
" clip-path="url(#pd6d9e46964)" style="fill: #c09036"/>
   </g>
   <g id="patch_105">
    <path d="M 332.061842 360.429 
L 333.556962 360.429 
L 333.556962 325.484798 
L 332.061842 325.484798 
z
" clip-path="url(#pd6d9e46964)" style="fill: #c09036"/>
   </g>
   <g id="patch_106">
    <path d="M 366.236005 360.429 
L 367.731124 360.429 
L 367.731124 348.649674 
L 366.236005 348.649674 
z
" clip-path="url(#pd6d9e46964)" style="fill: #c09036"/>
   </g>
   <g id="patch_107">
    <path d="M 400.410167 360.429 
L 401.905287 360.429 
L 401.905287 355.752033 
L 400.410167 355.752033 
z
" clip-path="url(#pd6d9e46964)" style="fill: #c09036"/>
   </g>
   <g id="patch_108">
    <path d="M 434.58433 360.429 
L 436.07945 360.429 
L 436.07945 345.854285 
L 434.58433 345.854285 
z
" clip-path="url(#pd6d9e46964)" style="fill: #c09036"/>
   </g>
   <g id="patch_109">
    <path d="M 468.758493 360.429 
L 470.253612 360.429 
L 470.253612 347.71902 
L 468.758493 347.71902 
z
" clip-path="url(#pd6d9e46964)" style="fill: #c09036"/>
   </g>
   <g id="patch_110">
    <path d="M 502.932656 360.429 
L 504.427775 360.429 
L 504.427775 333.572603 
L 502.932656 333.572603 
z
" clip-path="url(#pd6d9e46964)" style="fill: #c09036"/>
   </g>
   <g id="patch_111">
    <path d="M 128.511986 360.429 
L 130.007105 360.429 
L 130.007105 235.716852 
L 128.511986 235.716852 
z
" clip-path="url(#pd6d9e46964)" style="fill: #175262"/>
   </g>
   <g id="patch_112">
    <path d="M 162.686148 360.429 
L 164.181268 360.429 
L 164.181268 294.367404 
L 162.686148 294.367404 
z
" clip-path="url(#pd6d9e46964)" style="fill: #175262"/>
   </g>
   <g id="patch_113">
    <path d="M 196.860311 360.429 
L 198.355431 360.429 
L 198.355431 294.367404 
L 196.860311 294.367404 
z
" clip-path="url(#pd6d9e46964)" style="fill: #175262"/>
   </g>
   <g id="patch_114">
    <path d="M 231.034474 360.429 
L 232.529593 360.429 
L 232.529593 274.085391 
L 231.034474 274.085391 
z
" clip-path="url(#pd6d9e46964)" style="fill: #175262"/>
   </g>
   <g id="patch_115">
    <path d="M 265.208636 360.429 
L 266.703756 360.429 
L 266.703756 289.875247 
L 265.208636 289.875247 
z
" clip-path="url(#pd6d9e46964)" style="fill: #175262"/>
   </g>
   <g id="patch_116">
    <path d="M 299.382799 360.429 
L 300.877919 360.429 
L 300.877919 277.373523 
L 299.382799 277.373523 
z
" clip-path="url(#pd6d9e46964)" style="fill: #175262"/>
   </g>
   <g id="patch_117">
    <path d="M 333.556962 360.429 
L 335.052081 360.429 
L 335.052081 294.770375 
L 333.556962 294.770375 
z
" clip-path="url(#pd6d9e46964)" style="fill: #175262"/>
   </g>
   <g id="patch_118">
    <path d="M 367.731124 360.429 
L 369.226244 360.429 
L 369.226244 356.353565 
L 367.731124 356.353565 
z
" clip-path="url(#pd6d9e46964)" style="fill: #175262"/>
   </g>
   <g id="patch_119">
    <path d="M 401.905287 360.429 
L 403.400407 360.429 
L 403.400407 356.280301 
L 401.905287 356.280301 
z
" clip-path="url(#pd6d9e46964)" style="fill: #175262"/>
   </g>
   <g id="patch_120">
    <path d="M 436.07945 360.429 
L 437.574569 360.429 
L 437.574569 345.9446 
L 436.07945 345.9446 
z
" clip-path="url(#pd6d9e46964)" style="fill: #175262"/>
   </g>
   <g id="patch_121">
    <path d="M 470.253612 360.429 
L 471.748732 360.429 
L 471.748732 346.702982 
L 470.253612 346.702982 
z
" clip-path="url(#pd6d9e46964)" style="fill: #175262"/>
   </g>
   <g id="patch_122">
    <path d="M 504.427775 360.429 
L 505.922895 360.429 
L 505.922895 281.371599 
L 504.427775 281.371599 
z
" clip-path="url(#pd6d9e46964)" style="fill: #175262"/>
   </g>
   <g id="patch_123">
    <path d="M 130.007105 360.429 
L 131.502225 360.429 
L 131.502225 43.629 
L 130.007105 43.629 
z
" clip-path="url(#pd6d9e46964)" style="fill: #fcbfd6"/>
   </g>
   <g id="patch_124">
    <path d="M 164.181268 360.429 
L 165.676388 360.429 
L 165.676388 233.870381 
L 164.181268 233.870381 
z
" clip-path="url(#pd6d9e46964)" style="fill: #fcbfd6"/>
   </g>
   <g id="patch_125">
    <path d="M 198.355431 360.429 
L 199.85055 360.429 
L 199.85055 233.870381 
L 198.355431 233.870381 
z
" clip-path="url(#pd6d9e46964)" style="fill: #fcbfd6"/>
   </g>
   <g id="patch_126">
    <path d="M 232.529593 360.429 
L 234.024713 360.429 
L 234.024713 198.210761 
L 232.529593 198.210761 
z
" clip-path="url(#pd6d9e46964)" style="fill: #fcbfd6"/>
   </g>
   <g id="patch_127">
    <path d="M 266.703756 360.429 
L 268.198876 360.429 
L 268.198876 248.221042 
L 266.703756 248.221042 
z
" clip-path="url(#pd6d9e46964)" style="fill: #fcbfd6"/>
   </g>
   <g id="patch_128">
    <path d="M 300.877919 360.429 
L 302.373038 360.429 
L 302.373038 168.272899 
L 300.877919 168.272899 
z
" clip-path="url(#pd6d9e46964)" style="fill: #fcbfd6"/>
   </g>
   <g id="patch_129">
    <path d="M 335.052081 360.429 
L 336.547201 360.429 
L 336.547201 258.301678 
L 335.052081 258.301678 
z
" clip-path="url(#pd6d9e46964)" style="fill: #fcbfd6"/>
   </g>
   <g id="patch_130">
    <path d="M 369.226244 360.429 
L 370.721364 360.429 
L 370.721364 320.873782 
L 369.226244 320.873782 
z
" clip-path="url(#pd6d9e46964)" style="fill: #fcbfd6"/>
   </g>
   <g id="patch_131">
    <path d="M 403.400407 360.429 
L 404.895526 360.429 
L 404.895526 357.76898 
L 403.400407 357.76898 
z
" clip-path="url(#pd6d9e46964)" style="fill: #fcbfd6"/>
   </g>
   <g id="patch_132">
    <path d="M 437.574569 360.429 
L 439.069689 360.429 
L 439.069689 351.463786 
L 437.574569 351.463786 
z
" clip-path="url(#pd6d9e46964)" style="fill: #fcbfd6"/>
   </g>
   <g id="patch_133">
    <path d="M 471.748732 360.429 
L 473.243852 360.429 
L 473.243852 352.041746 
L 471.748732 352.041746 
z
" clip-path="url(#pd6d9e46964)" style="fill: #fcbfd6"/>
   </g>
   <g id="patch_134">
    <path d="M 505.922895 360.429 
L 507.418014 360.429 
L 507.418014 297.162667 
L 505.922895 297.162667 
z
" clip-path="url(#pd6d9e46964)" style="fill: #fcbfd6"/>
   </g>
   <g id="patch_135">
    <path d="M 131.502225 360.429 
L 132.997344 360.429 
L 132.997344 243.388479 
L 131.502225 243.388479 
z
" clip-path="url(#pd6d9e46964)" style="fill: #fca890"/>
   </g>
   <g id="patch_136">
    <path d="M 165.676388 360.429 
L 167.171507 360.429 
L 167.171507 323.173627 
L 165.676388 323.173627 
z
" clip-path="url(#pd6d9e46964)" style="fill: #fca890"/>
   </g>
   <g id="patch_137">
    <path d="M 199.85055 360.429 
L 201.34567 360.429 
L 201.34567 323.173627 
L 199.85055 323.173627 
z
" clip-path="url(#pd6d9e46964)" style="fill: #fca890"/>
   </g>
   <g id="patch_138">
    <path d="M 234.024713 360.429 
L 235.519833 360.429 
L 235.519833 301.200823 
L 234.024713 301.200823 
z
" clip-path="url(#pd6d9e46964)" style="fill: #fca890"/>
   </g>
   <g id="patch_139">
    <path d="M 268.198876 360.429 
L 269.693995 360.429 
L 269.693995 315.334368 
L 268.198876 315.334368 
z
" clip-path="url(#pd6d9e46964)" style="fill: #fca890"/>
   </g>
   <g id="patch_140">
    <path d="M 302.373038 360.429 
L 303.868158 360.429 
L 303.868158 291.329112 
L 302.373038 291.329112 
z
" clip-path="url(#pd6d9e46964)" style="fill: #fca890"/>
   </g>
   <g id="patch_141">
    <path d="M 336.547201 360.429 
L 338.042321 360.429 
L 338.042321 324.713168 
L 336.547201 324.713168 
z
" clip-path="url(#pd6d9e46964)" style="fill: #fca890"/>
   </g>
   <g id="patch_142">
    <path d="M 370.721364 360.429 
L 372.216483 360.429 
L 372.216483 360.157552 
L 370.721364 360.157552 
z
" clip-path="url(#pd6d9e46964)" style="fill: #fca890"/>
   </g>
   <g id="patch_143">
    <path d="M 404.895526 360.429 
L 406.390646 360.429 
L 406.390646 358.081427 
L 404.895526 358.081427 
z
" clip-path="url(#pd6d9e46964)" style="fill: #fca890"/>
   </g>
   <g id="patch_144">
    <path d="M 439.069689 360.429 
L 440.564809 360.429 
L 440.564809 349.651753 
L 439.069689 349.651753 
z
" clip-path="url(#pd6d9e46964)" style="fill: #fca890"/>
   </g>
   <g id="patch_145">
    <path d="M 473.243852 360.429 
L 474.738971 360.429 
L 474.738971 350.583284 
L 473.243852 350.583284 
z
" clip-path="url(#pd6d9e46964)" style="fill: #fca890"/>
   </g>
   <g id="patch_146">
    <path d="M 507.418014 360.429 
L 508.913134 360.429 
L 508.913134 335.886365 
L 507.418014 335.886365 
z
" clip-path="url(#pd6d9e46964)" style="fill: #fca890"/>
   </g>
   <g id="patch_147">
    <path d="M 132.997344 360.429 
L 134.492464 360.429 
L 134.492464 243.685044 
L 132.997344 243.685044 
z
" clip-path="url(#pd6d9e46964)" style="fill: #356a59"/>
   </g>
   <g id="patch_148">
    <path d="M 167.171507 360.429 
L 168.666627 360.429 
L 168.666627 323.122639 
L 167.171507 323.122639 
z
" clip-path="url(#pd6d9e46964)" style="fill: #356a59"/>
   </g>
   <g id="patch_149">
    <path d="M 201.34567 360.429 
L 202.840789 360.429 
L 202.840789 323.122639 
L 201.34567 323.122639 
z
" clip-path="url(#pd6d9e46964)" style="fill: #356a59"/>
   </g>
   <g id="patch_150">
    <path d="M 235.519833 360.429 
L 237.014952 360.429 
L 237.014952 300.76588 
L 235.519833 300.76588 
z
" clip-path="url(#pd6d9e46964)" style="fill: #356a59"/>
   </g>
   <g id="patch_151">
    <path d="M 269.693995 360.429 
L 271.189115 360.429 
L 271.189115 315.272054 
L 269.693995 315.272054 
z
" clip-path="url(#pd6d9e46964)" style="fill: #356a59"/>
   </g>
   <g id="patch_152">
    <path d="M 303.868158 360.429 
L 305.363278 360.429 
L 305.363278 291.04358 
L 303.868158 291.04358 
z
" clip-path="url(#pd6d9e46964)" style="fill: #356a59"/>
   </g>
   <g id="patch_153">
    <path d="M 338.042321 360.429 
L 339.53744 360.429 
L 339.53744 324.654114 
L 338.042321 324.654114 
z
" clip-path="url(#pd6d9e46964)" style="fill: #356a59"/>
   </g>
   <g id="patch_154">
    <path d="M 372.216483 360.429 
L 373.711603 360.429 
L 373.711603 345.08487 
L 372.216483 345.08487 
z
" clip-path="url(#pd6d9e46964)" style="fill: #356a59"/>
   </g>
   <g id="patch_155">
    <path d="M 406.390646 360.429 
L 407.885766 360.429 
L 407.885766 355.200528 
L 406.390646 355.200528 
z
" clip-path="url(#pd6d9e46964)" style="fill: #356a59"/>
   </g>
   <g id="patch_156">
    <path d="M 440.564809 360.429 
L 442.059928 360.429 
L 442.059928 344.438159 
L 440.564809 344.438159 
z
" clip-path="url(#pd6d9e46964)" style="fill: #356a59"/>
   </g>
   <g id="patch_157">
    <path d="M 474.738971 360.429 
L 476.234091 360.429 
L 476.234091 346.287765 
L 474.738971 346.287765 
z
" clip-path="url(#pd6d9e46964)" style="fill: #356a59"/>
   </g>
   <g id="patch_158">
    <path d="M 508.913134 360.429 
L 510.408254 360.429 
L 510.408254 336.042923 
L 508.913134 336.042923 
z
" clip-path="url(#pd6d9e46964)" style="fill: #356a59"/>
   </g>
   <g id="patch_159">
    <path d="M 134.492464 360.429 
L 135.987584 360.429 
L 135.987584 243.212779 
L 134.492464 243.212779 
z
" clip-path="url(#pd6d9e46964)" style="fill: #0d315d"/>
   </g>
   <g id="patch_160">
    <path d="M 168.666627 360.429 
L 170.161746 360.429 
L 170.161746 323.169615 
L 168.666627 323.169615 
z
" clip-path="url(#pd6d9e46964)" style="fill: #0d315d"/>
   </g>
   <g id="patch_161">
    <path d="M 202.840789 360.429 
L 204.335909 360.429 
L 204.335909 323.169615 
L 202.840789 323.169615 
z
" clip-path="url(#pd6d9e46964)" style="fill: #0d315d"/>
   </g>
   <g id="patch_162">
    <path d="M 237.014952 360.429 
L 238.510072 360.429 
L 238.510072 301.985785 
L 237.014952 301.985785 
z
" clip-path="url(#pd6d9e46964)" style="fill: #0d315d"/>
   </g>
   <g id="patch_163">
    <path d="M 271.189115 360.429 
L 272.684234 360.429 
L 272.684234 315.514998 
L 271.189115 315.514998 
z
" clip-path="url(#pd6d9e46964)" style="fill: #0d315d"/>
   </g>
   <g id="patch_164">
    <path d="M 305.363278 360.429 
L 306.858397 360.429 
L 306.858397 292.288728 
L 305.363278 292.288728 
z
" clip-path="url(#pd6d9e46964)" style="fill: #0d315d"/>
   </g>
   <g id="patch_165">
    <path d="M 339.53744 360.429 
L 341.03256 360.429 
L 341.03256 324.7512 
L 339.53744 324.7512 
z
" clip-path="url(#pd6d9e46964)" style="fill: #0d315d"/>
   </g>
   <g id="patch_166">
    <path d="M 373.711603 360.429 
L 375.206722 360.429 
L 375.206722 360.08036 
L 373.711603 360.08036 
z
" clip-path="url(#pd6d9e46964)" style="fill: #0d315d"/>
   </g>
   <g id="patch_167">
    <path d="M 407.885766 360.429 
L 409.380885 360.429 
L 409.380885 357.752429 
L 407.885766 357.752429 
z
" clip-path="url(#pd6d9e46964)" style="fill: #0d315d"/>
   </g>
   <g id="patch_168">
    <path d="M 442.059928 360.429 
L 443.555048 360.429 
L 443.555048 350.515203 
L 442.059928 350.515203 
z
" clip-path="url(#pd6d9e46964)" style="fill: #0d315d"/>
   </g>
   <g id="patch_169">
    <path d="M 476.234091 360.429 
L 477.729211 360.429 
L 477.729211 351.191252 
L 476.234091 351.191252 
z
" clip-path="url(#pd6d9e46964)" style="fill: #0d315d"/>
   </g>
   <g id="patch_170">
    <path d="M 510.408254 360.429 
L 511.903373 360.429 
L 511.903373 335.884568 
L 510.408254 335.884568 
z
" clip-path="url(#pd6d9e46964)" style="fill: #0d315d"/>
   </g>
   <g id="patch_171">
    <path d="M 135.987584 360.429 
L 137.482703 360.429 
L 137.482703 246.08256 
L 135.987584 246.08256 
z
" clip-path="url(#pd6d9e46964)" style="fill: #a18a2b"/>
   </g>
   <g id="patch_172">
    <path d="M 170.161746 360.429 
L 171.656866 360.429 
L 171.656866 311.496402 
L 170.161746 311.496402 
z
" clip-path="url(#pd6d9e46964)" style="fill: #a18a2b"/>
   </g>
   <g id="patch_173">
    <path d="M 204.335909 360.429 
L 205.831029 360.429 
L 205.831029 311.496402 
L 204.335909 311.496402 
z
" clip-path="url(#pd6d9e46964)" style="fill: #a18a2b"/>
   </g>
   <g id="patch_174">
    <path d="M 238.510072 360.429 
L 240.005191 360.429 
L 240.005191 291.246862 
L 238.510072 291.246862 
z
" clip-path="url(#pd6d9e46964)" style="fill: #a18a2b"/>
   </g>
   <g id="patch_175">
    <path d="M 272.684234 360.429 
L 274.179354 360.429 
L 274.179354 301.821412 
L 272.684234 301.821412 
z
" clip-path="url(#pd6d9e46964)" style="fill: #a18a2b"/>
   </g>
   <g id="patch_176">
    <path d="M 306.858397 360.429 
L 308.353517 360.429 
L 308.353517 305.815016 
L 306.858397 305.815016 
z
" clip-path="url(#pd6d9e46964)" style="fill: #a18a2b"/>
   </g>
   <g id="patch_177">
    <path d="M 341.03256 360.429 
L 342.527679 360.429 
L 342.527679 305.285202 
L 341.03256 305.285202 
z
" clip-path="url(#pd6d9e46964)" style="fill: #a18a2b"/>
   </g>
   <g id="patch_178">
    <path d="M 375.206722 360.429 
L 376.701842 360.429 
L 376.701842 357.75034 
L 375.206722 357.75034 
z
" clip-path="url(#pd6d9e46964)" style="fill: #a18a2b"/>
   </g>
   <g id="patch_179">
    <path d="M 409.380885 360.429 
L 410.876005 360.429 
L 410.876005 354.81323 
L 409.380885 354.81323 
z
" clip-path="url(#pd6d9e46964)" style="fill: #a18a2b"/>
   </g>
   <g id="patch_180">
    <path d="M 443.555048 360.429 
L 445.050167 360.429 
L 445.050167 343.441932 
L 443.555048 343.441932 
z
" clip-path="url(#pd6d9e46964)" style="fill: #a18a2b"/>
   </g>
   <g id="patch_181">
    <path d="M 477.729211 360.429 
L 479.22433 360.429 
L 479.22433 344.26781 
L 477.729211 344.26781 
z
" clip-path="url(#pd6d9e46964)" style="fill: #a18a2b"/>
   </g>
   <g id="patch_182">
    <path d="M 511.903373 360.429 
L 513.398493 360.429 
L 513.398493 305.988249 
L 511.903373 305.988249 
z
" clip-path="url(#pd6d9e46964)" style="fill: #a18a2b"/>
   </g>
   <g id="patch_183">
    <path d="M 137.482703 360.429 
L 138.977823 360.429 
L 138.977823 132.622599 
L 137.482703 132.622599 
z
" clip-path="url(#pd6d9e46964)" style="fill: #677b3e"/>
   </g>
   <g id="patch_184">
    <path d="M 171.656866 360.429 
L 173.151986 360.429 
L 173.151986 262.544537 
L 171.656866 262.544537 
z
" clip-path="url(#pd6d9e46964)" style="fill: #677b3e"/>
   </g>
   <g id="patch_185">
    <path d="M 205.831029 360.429 
L 207.326148 360.429 
L 207.326148 262.544537 
L 205.831029 262.544537 
z
" clip-path="url(#pd6d9e46964)" style="fill: #677b3e"/>
   </g>
   <g id="patch_186">
    <path d="M 240.005191 360.429 
L 241.500311 360.429 
L 241.500311 229.935371 
L 240.005191 229.935371 
z
" clip-path="url(#pd6d9e46964)" style="fill: #677b3e"/>
   </g>
   <g id="patch_187">
    <path d="M 274.179354 360.429 
L 275.674474 360.429 
L 275.674474 249.375457 
L 274.179354 249.375457 
z
" clip-path="url(#pd6d9e46964)" style="fill: #677b3e"/>
   </g>
   <g id="patch_188">
    <path d="M 308.353517 360.429 
L 309.848636 360.429 
L 309.848636 259.313954 
L 308.353517 259.313954 
z
" clip-path="url(#pd6d9e46964)" style="fill: #677b3e"/>
   </g>
   <g id="patch_189">
    <path d="M 342.527679 360.429 
L 344.022799 360.429 
L 344.022799 253.298222 
L 342.527679 253.298222 
z
" clip-path="url(#pd6d9e46964)" style="fill: #677b3e"/>
   </g>
   <g id="patch_190">
    <path d="M 376.701842 360.429 
L 378.196962 360.429 
L 378.196962 357.622201 
L 376.701842 357.622201 
z
" clip-path="url(#pd6d9e46964)" style="fill: #677b3e"/>
   </g>
   <g id="patch_191">
    <path d="M 410.876005 360.429 
L 412.371124 360.429 
L 412.371124 357.125446 
L 410.876005 357.125446 
z
" clip-path="url(#pd6d9e46964)" style="fill: #677b3e"/>
   </g>
   <g id="patch_192">
    <path d="M 445.050167 360.429 
L 446.545287 360.429 
L 446.545287 350.188254 
L 445.050167 350.188254 
z
" clip-path="url(#pd6d9e46964)" style="fill: #677b3e"/>
   </g>
   <g id="patch_193">
    <path d="M 479.22433 360.429 
L 480.71945 360.429 
L 480.71945 350.996871 
L 479.22433 350.996871 
z
" clip-path="url(#pd6d9e46964)" style="fill: #677b3e"/>
   </g>
   <g id="patch_194">
    <path d="M 513.398493 360.429 
L 514.893612 360.429 
L 514.893612 258.329512 
L 513.398493 258.329512 
z
" clip-path="url(#pd6d9e46964)" style="fill: #677b3e"/>
   </g>
   <g id="patch_195">
    <path d="M 138.977823 360.429 
L 140.472943 360.429 
L 140.472943 333.169715 
L 138.977823 333.169715 
z
" clip-path="url(#pd6d9e46964)" style="fill: #dd954d"/>
   </g>
   <g id="patch_196">
    <path d="M 173.151986 360.429 
L 174.647105 360.429 
L 174.647105 347.811843 
L 173.151986 347.811843 
z
" clip-path="url(#pd6d9e46964)" style="fill: #dd954d"/>
   </g>
   <g id="patch_197">
    <path d="M 207.326148 360.429 
L 208.821268 360.429 
L 208.821268 347.811843 
L 207.326148 347.811843 
z
" clip-path="url(#pd6d9e46964)" style="fill: #dd954d"/>
   </g>
   <g id="patch_198">
    <path d="M 241.500311 360.429 
L 242.995431 360.429 
L 242.995431 349.833888 
L 241.500311 349.833888 
z
" clip-path="url(#pd6d9e46964)" style="fill: #dd954d"/>
   </g>
   <g id="patch_199">
    <path d="M 275.674474 360.429 
L 277.169593 360.429 
L 277.169593 353.168119 
L 275.674474 353.168119 
z
" clip-path="url(#pd6d9e46964)" style="fill: #dd954d"/>
   </g>
   <g id="patch_200">
    <path d="M 309.848636 360.429 
L 311.343756 360.429 
L 311.343756 340.634799 
L 309.848636 340.634799 
z
" clip-path="url(#pd6d9e46964)" style="fill: #dd954d"/>
   </g>
   <g id="patch_201">
    <path d="M 344.022799 360.429 
L 345.517919 360.429 
L 345.517919 355.652189 
L 344.022799 355.652189 
z
" clip-path="url(#pd6d9e46964)" style="fill: #dd954d"/>
   </g>
   <g id="patch_202">
    <path d="M 378.196962 360.429 
L 379.692081 360.429 
L 379.692081 357.926415 
L 378.196962 357.926415 
z
" clip-path="url(#pd6d9e46964)" style="fill: #dd954d"/>
   </g>
   <g id="patch_203">
    <path d="M 412.371124 360.429 
L 413.866244 360.429 
L 413.866244 358.181772 
L 412.371124 358.181772 
z
" clip-path="url(#pd6d9e46964)" style="fill: #dd954d"/>
   </g>
   <g id="patch_204">
    <path d="M 446.545287 360.429 
L 448.040407 360.429 
L 448.040407 352.492864 
L 446.545287 352.492864 
z
" clip-path="url(#pd6d9e46964)" style="fill: #dd954d"/>
   </g>
   <g id="patch_205">
    <path d="M 480.71945 360.429 
L 482.214569 360.429 
L 482.214569 352.920159 
L 480.71945 352.920159 
z
" clip-path="url(#pd6d9e46964)" style="fill: #dd954d"/>
   </g>
   <g id="patch_206">
    <path d="M 514.893612 360.429 
L 516.388732 360.429 
L 516.388732 358.209523 
L 514.893612 358.209523 
z
" clip-path="url(#pd6d9e46964)" style="fill: #dd954d"/>
   </g>
   <g id="patch_207">
    <path d="M 140.472943 360.429 
L 141.968062 360.429 
L 141.968062 306.551456 
L 140.472943 306.551456 
z
" clip-path="url(#pd6d9e46964)" style="fill: #08255b"/>
   </g>
   <g id="patch_208">
    <path d="M 174.647105 360.429 
L 176.142225 360.429 
L 176.142225 332.233837 
L 174.647105 332.233837 
z
" clip-path="url(#pd6d9e46964)" style="fill: #08255b"/>
   </g>
   <g id="patch_209">
    <path d="M 208.821268 360.429 
L 210.316388 360.429 
L 210.316388 332.233837 
L 208.821268 332.233837 
z
" clip-path="url(#pd6d9e46964)" style="fill: #08255b"/>
   </g>
   <g id="patch_210">
    <path d="M 242.995431 360.429 
L 244.49055 360.429 
L 244.49055 341.469955 
L 242.995431 341.469955 
z
" clip-path="url(#pd6d9e46964)" style="fill: #08255b"/>
   </g>
   <g id="patch_211">
    <path d="M 277.169593 360.429 
L 278.664713 360.429 
L 278.664713 347.813097 
L 277.169593 347.813097 
z
" clip-path="url(#pd6d9e46964)" style="fill: #08255b"/>
   </g>
   <g id="patch_212">
    <path d="M 311.343756 360.429 
L 312.838876 360.429 
L 312.838876 330.03208 
L 311.343756 330.03208 
z
" clip-path="url(#pd6d9e46964)" style="fill: #08255b"/>
   </g>
   <g id="patch_213">
    <path d="M 345.517919 360.429 
L 347.013038 360.429 
L 347.013038 353.505641 
L 345.517919 353.505641 
z
" clip-path="url(#pd6d9e46964)" style="fill: #08255b"/>
   </g>
   <g id="patch_214">
    <path d="M 379.692081 360.429 
L 381.187201 360.429 
L 381.187201 357.416286 
L 379.692081 357.416286 
z
" clip-path="url(#pd6d9e46964)" style="fill: #08255b"/>
   </g>
   <g id="patch_215">
    <path d="M 413.866244 360.429 
L 415.361364 360.429 
L 415.361364 357.125571 
L 413.866244 357.125571 
z
" clip-path="url(#pd6d9e46964)" style="fill: #08255b"/>
   </g>
   <g id="patch_216">
    <path d="M 448.040407 360.429 
L 449.535526 360.429 
L 449.535526 348.94766 
L 448.040407 348.94766 
z
" clip-path="url(#pd6d9e46964)" style="fill: #08255b"/>
   </g>
   <g id="patch_217">
    <path d="M 482.214569 360.429 
L 483.709689 360.429 
L 483.709689 350.338543 
L 482.214569 350.338543 
z
" clip-path="url(#pd6d9e46964)" style="fill: #08255b"/>
   </g>
   <g id="patch_218">
    <path d="M 516.388732 360.429 
L 517.883852 360.429 
L 517.883852 357.874717 
L 516.388732 357.874717 
z
" clip-path="url(#pd6d9e46964)" style="fill: #08255b"/>
   </g>
   <g id="patch_219">
    <path d="M 141.968062 360.429 
L 143.463182 360.429 
L 143.463182 269.059366 
L 141.968062 269.059366 
z
" clip-path="url(#pd6d9e46964)" style="fill: #fdaea2"/>
   </g>
   <g id="patch_220">
    <path d="M 176.142225 360.429 
L 177.637344 360.429 
L 177.637344 317.401382 
L 176.142225 317.401382 
z
" clip-path="url(#pd6d9e46964)" style="fill: #fdaea2"/>
   </g>
   <g id="patch_221">
    <path d="M 210.316388 360.429 
L 211.811507 360.429 
L 211.811507 317.401382 
L 210.316388 317.401382 
z
" clip-path="url(#pd6d9e46964)" style="fill: #fdaea2"/>
   </g>
   <g id="patch_222">
    <path d="M 244.49055 360.429 
L 245.98567 360.429 
L 245.98567 302.203612 
L 244.49055 302.203612 
z
" clip-path="url(#pd6d9e46964)" style="fill: #fdaea2"/>
   </g>
   <g id="patch_223">
    <path d="M 278.664713 360.429 
L 280.159833 360.429 
L 280.159833 317.452955 
L 278.664713 317.452955 
z
" clip-path="url(#pd6d9e46964)" style="fill: #fdaea2"/>
   </g>
   <g id="patch_224">
    <path d="M 312.838876 360.429 
L 314.333995 360.429 
L 314.333995 299.603523 
L 312.838876 299.603523 
z
" clip-path="url(#pd6d9e46964)" style="fill: #fdaea2"/>
   </g>
   <g id="patch_225">
    <path d="M 347.013038 360.429 
L 348.508158 360.429 
L 348.508158 322.24243 
L 347.013038 322.24243 
z
" clip-path="url(#pd6d9e46964)" style="fill: #fdaea2"/>
   </g>
   <g id="patch_226">
    <path d="M 381.187201 360.429 
L 382.682321 360.429 
L 382.682321 357.322376 
L 381.187201 357.322376 
z
" clip-path="url(#pd6d9e46964)" style="fill: #fdaea2"/>
   </g>
   <g id="patch_227">
    <path d="M 415.361364 360.429 
L 416.856483 360.429 
L 416.856483 356.767444 
L 415.361364 356.767444 
z
" clip-path="url(#pd6d9e46964)" style="fill: #fdaea2"/>
   </g>
   <g id="patch_228">
    <path d="M 449.535526 360.429 
L 451.030646 360.429 
L 451.030646 348.421482 
L 449.535526 348.421482 
z
" clip-path="url(#pd6d9e46964)" style="fill: #fdaea2"/>
   </g>
   <g id="patch_229">
    <path d="M 483.709689 360.429 
L 485.204809 360.429 
L 485.204809 348.955977 
L 483.709689 348.955977 
z
" clip-path="url(#pd6d9e46964)" style="fill: #fdaea2"/>
   </g>
   <g id="patch_230">
    <path d="M 517.883852 360.429 
L 519.378971 360.429 
L 519.378971 318.358575 
L 517.883852 318.358575 
z
" clip-path="url(#pd6d9e46964)" style="fill: #fdaea2"/>
   </g>
   <g id="patch_231">
    <path d="M 143.463182 360.429 
L 144.958301 360.429 
L 144.958301 291.299606 
L 143.463182 291.299606 
z
" clip-path="url(#pd6d9e46964)" style="fill: #fbc6e8"/>
   </g>
   <g id="patch_232">
    <path d="M 177.637344 360.429 
L 179.132464 360.429 
L 179.132464 327.472698 
L 177.637344 327.472698 
z
" clip-path="url(#pd6d9e46964)" style="fill: #fbc6e8"/>
   </g>
   <g id="patch_233">
    <path d="M 211.811507 360.429 
L 213.306627 360.429 
L 213.306627 327.472698 
L 211.811507 327.472698 
z
" clip-path="url(#pd6d9e46964)" style="fill: #fbc6e8"/>
   </g>
   <g id="patch_234">
    <path d="M 245.98567 360.429 
L 247.480789 360.429 
L 247.480789 315.72572 
L 245.98567 315.72572 
z
" clip-path="url(#pd6d9e46964)" style="fill: #fbc6e8"/>
   </g>
   <g id="patch_235">
    <path d="M 280.159833 360.429 
L 281.654952 360.429 
L 281.654952 330.584923 
L 280.159833 330.584923 
z
" clip-path="url(#pd6d9e46964)" style="fill: #fbc6e8"/>
   </g>
   <g id="patch_236">
    <path d="M 314.333995 360.429 
L 315.829115 360.429 
L 315.829115 318.796862 
L 314.333995 318.796862 
z
" clip-path="url(#pd6d9e46964)" style="fill: #fbc6e8"/>
   </g>
   <g id="patch_237">
    <path d="M 348.508158 360.429 
L 350.003278 360.429 
L 350.003278 335.016772 
L 348.508158 335.016772 
z
" clip-path="url(#pd6d9e46964)" style="fill: #fbc6e8"/>
   </g>
   <g id="patch_238">
    <path d="M 382.682321 360.429 
L 384.17744 360.429 
L 384.17744 359.958658 
L 382.682321 359.958658 
z
" clip-path="url(#pd6d9e46964)" style="fill: #fbc6e8"/>
   </g>
   <g id="patch_239">
    <path d="M 416.856483 360.429 
L 418.351603 360.429 
L 418.351603 359.272578 
L 416.856483 359.272578 
z
" clip-path="url(#pd6d9e46964)" style="fill: #fbc6e8"/>
   </g>
   <g id="patch_240">
    <path d="M 451.030646 360.429 
L 452.525766 360.429 
L 452.525766 355.227318 
L 451.030646 355.227318 
z
" clip-path="url(#pd6d9e46964)" style="fill: #fbc6e8"/>
   </g>
   <g id="patch_241">
    <path d="M 485.204809 360.429 
L 486.699928 360.429 
L 486.699928 355.780327 
L 485.204809 355.780327 
z
" clip-path="url(#pd6d9e46964)" style="fill: #fbc6e8"/>
   </g>
   <g id="patch_242">
    <path d="M 519.378971 360.429 
L 520.874091 360.429 
L 520.874091 334.350084 
L 519.378971 334.350084 
z
" clip-path="url(#pd6d9e46964)" style="fill: #fbc6e8"/>
   </g>
   <g id="matplotlib.axis_1">
    <g id="xtick_1">
     <g id="line2d_1">
      <defs>
       <path id="maee63bb9b4" d="M 0 0 
L 0 3.5 
" style="stroke: #000000; stroke-width: 0.8"/>
      </defs>
      <g>
       <use xlink:href="#maee63bb9b4" x="130.007105" y="360.429" style="stroke: #000000; stroke-width: 0.8"/>
      </g>
     </g>
     <g id="text_1">
      <!-- DH -->
      <g transform="translate(117.830855 379.5865) scale(0.16 -0.16)">
       <defs>
        <path id="DejaVuSans-44" d="M 1259 4147 
L 1259 519 
L 2022 519 
Q 2988 519 3436 956 
Q 3884 1394 3884 2338 
Q 3884 3275 3436 3711 
Q 2988 4147 2022 4147 
L 1259 4147 
z
M 628 4666 
L 1925 4666 
Q 3281 4666 3915 4102 
Q 4550 3538 4550 2338 
Q 4550 1131 3912 565 
Q 3275 0 1925 0 
L 628 0 
L 628 4666 
z
" transform="scale(0.015625)"/>
        <path id="DejaVuSans-48" d="M 628 4666 
L 1259 4666 
L 1259 2753 
L 3553 2753 
L 3553 4666 
L 4184 4666 
L 4184 0 
L 3553 0 
L 3553 2222 
L 1259 2222 
L 1259 0 
L 628 0 
L 628 4666 
z
" transform="scale(0.015625)"/>
       </defs>
       <use xlink:href="#DejaVuSans-44"/>
       <use xlink:href="#DejaVuSans-48" x="77.001953"/>
      </g>
     </g>
    </g>
    <g id="xtick_2">
     <g id="line2d_2">
      <g>
       <use xlink:href="#maee63bb9b4" x="164.181268" y="360.429" style="stroke: #000000; stroke-width: 0.8"/>
      </g>
     </g>
     <g id="text_2">
      <!-- WH -->
      <g transform="translate(150.255018 379.5865) scale(0.16 -0.16)">
       <defs>
        <path id="DejaVuSans-57" d="M 213 4666 
L 850 4666 
L 1831 722 
L 2809 4666 
L 3519 4666 
L 4500 722 
L 5478 4666 
L 6119 4666 
L 4947 0 
L 4153 0 
L 3169 4050 
L 2175 0 
L 1381 0 
L 213 4666 
z
" transform="scale(0.015625)"/>
       </defs>
       <use xlink:href="#DejaVuSans-57"/>
       <use xlink:href="#DejaVuSans-48" x="98.876953"/>
      </g>
     </g>
    </g>
    <g id="xtick_3">
     <g id="line2d_3">
      <g>
       <use xlink:href="#maee63bb9b4" x="198.355431" y="360.429" style="stroke: #000000; stroke-width: 0.8"/>
      </g>
     </g>
     <g id="text_3">
      <!-- ET -->
      <g transform="translate(188.414181 379.5865) scale(0.16 -0.16)">
       <defs>
        <path id="DejaVuSans-45" d="M 628 4666 
L 3578 4666 
L 3578 4134 
L 1259 4134 
L 1259 2753 
L 3481 2753 
L 3481 2222 
L 1259 2222 
L 1259 531 
L 3634 531 
L 3634 0 
L 628 0 
L 628 4666 
z
" transform="scale(0.015625)"/>
        <path id="DejaVuSans-54" d="M -19 4666 
L 3928 4666 
L 3928 4134 
L 2272 4134 
L 2272 0 
L 1638 0 
L 1638 4134 
L -19 4134 
L -19 4666 
z
" transform="scale(0.015625)"/>
       </defs>
       <use xlink:href="#DejaVuSans-45"/>
       <use xlink:href="#DejaVuSans-54" x="63.183594"/>
      </g>
     </g>
    </g>
    <g id="xtick_4">
     <g id="line2d_4">
      <g>
       <use xlink:href="#maee63bb9b4" x="232.529593" y="360.429" style="stroke: #000000; stroke-width: 0.8"/>
      </g>
     </g>
     <g id="text_4">
      <!-- FC1 -->
      <g transform="translate(217.252093 379.5865) scale(0.16 -0.16)">
       <defs>
        <path id="DejaVuSans-46" d="M 628 4666 
L 3309 4666 
L 3309 4134 
L 1259 4134 
L 1259 2759 
L 3109 2759 
L 3109 2228 
L 1259 2228 
L 1259 0 
L 628 0 
L 628 4666 
z
" transform="scale(0.015625)"/>
        <path id="DejaVuSans-43" d="M 4122 4306 
L 4122 3641 
Q 3803 3938 3442 4084 
Q 3081 4231 2675 4231 
Q 1875 4231 1450 3742 
Q 1025 3253 1025 2328 
Q 1025 1406 1450 917 
Q 1875 428 2675 428 
Q 3081 428 3442 575 
Q 3803 722 4122 1019 
L 4122 359 
Q 3791 134 3420 21 
Q 3050 -91 2638 -91 
Q 1578 -91 968 557 
Q 359 1206 359 2328 
Q 359 3453 968 4101 
Q 1578 4750 2638 4750 
Q 3056 4750 3426 4639 
Q 3797 4528 4122 4306 
z
" transform="scale(0.015625)"/>
        <path id="DejaVuSans-31" d="M 794 531 
L 1825 531 
L 1825 4091 
L 703 3866 
L 703 4441 
L 1819 4666 
L 2450 4666 
L 2450 531 
L 3481 531 
L 3481 0 
L 794 0 
L 794 531 
z
" transform="scale(0.015625)"/>
       </defs>
       <use xlink:href="#DejaVuSans-46"/>
       <use xlink:href="#DejaVuSans-43" x="57.519531"/>
       <use xlink:href="#DejaVuSans-31" x="127.34375"/>
      </g>
     </g>
    </g>
    <g id="xtick_5">
     <g id="line2d_5">
      <g>
       <use xlink:href="#maee63bb9b4" x="266.703756" y="360.429" style="stroke: #000000; stroke-width: 0.8"/>
      </g>
     </g>
     <g id="text_5">
      <!-- FC2 -->
      <g transform="translate(251.426256 379.5865) scale(0.16 -0.16)">
       <defs>
        <path id="DejaVuSans-32" d="M 1228 531 
L 3431 531 
L 3431 0 
L 469 0 
L 469 531 
Q 828 903 1448 1529 
Q 2069 2156 2228 2338 
Q 2531 2678 2651 2914 
Q 2772 3150 2772 3378 
Q 2772 3750 2511 3984 
Q 2250 4219 1831 4219 
Q 1534 4219 1204 4116 
Q 875 4013 500 3803 
L 500 4441 
Q 881 4594 1212 4672 
Q 1544 4750 1819 4750 
Q 2544 4750 2975 4387 
Q 3406 4025 3406 3419 
Q 3406 3131 3298 2873 
Q 3191 2616 2906 2266 
Q 2828 2175 2409 1742 
Q 1991 1309 1228 531 
z
" transform="scale(0.015625)"/>
       </defs>
       <use xlink:href="#DejaVuSans-46"/>
       <use xlink:href="#DejaVuSans-43" x="57.519531"/>
       <use xlink:href="#DejaVuSans-32" x="127.34375"/>
      </g>
     </g>
    </g>
    <g id="xtick_6">
     <g id="line2d_6">
      <g>
       <use xlink:href="#maee63bb9b4" x="300.877919" y="360.429" style="stroke: #000000; stroke-width: 0.8"/>
      </g>
     </g>
     <g id="text_6">
      <!-- FC3 -->
      <g transform="translate(285.600419 379.5865) scale(0.16 -0.16)">
       <defs>
        <path id="DejaVuSans-33" d="M 2597 2516 
Q 3050 2419 3304 2112 
Q 3559 1806 3559 1356 
Q 3559 666 3084 287 
Q 2609 -91 1734 -91 
Q 1441 -91 1130 -33 
Q 819 25 488 141 
L 488 750 
Q 750 597 1062 519 
Q 1375 441 1716 441 
Q 2309 441 2620 675 
Q 2931 909 2931 1356 
Q 2931 1769 2642 2001 
Q 2353 2234 1838 2234 
L 1294 2234 
L 1294 2753 
L 1863 2753 
Q 2328 2753 2575 2939 
Q 2822 3125 2822 3475 
Q 2822 3834 2567 4026 
Q 2313 4219 1838 4219 
Q 1578 4219 1281 4162 
Q 984 4106 628 3988 
L 628 4550 
Q 988 4650 1302 4700 
Q 1616 4750 1894 4750 
Q 2613 4750 3031 4423 
Q 3450 4097 3450 3541 
Q 3450 3153 3228 2886 
Q 3006 2619 2597 2516 
z
" transform="scale(0.015625)"/>
       </defs>
       <use xlink:href="#DejaVuSans-46"/>
       <use xlink:href="#DejaVuSans-43" x="57.519531"/>
       <use xlink:href="#DejaVuSans-33" x="127.34375"/>
      </g>
     </g>
    </g>
    <g id="xtick_7">
     <g id="line2d_7">
      <g>
       <use xlink:href="#maee63bb9b4" x="335.052081" y="360.429" style="stroke: #000000; stroke-width: 0.8"/>
      </g>
     </g>
     <g id="text_7">
      <!-- PT -->
      <g transform="translate(325.342081 379.5865) scale(0.16 -0.16)">
       <defs>
        <path id="DejaVuSans-50" d="M 1259 4147 
L 1259 2394 
L 2053 2394 
Q 2494 2394 2734 2622 
Q 2975 2850 2975 3272 
Q 2975 3691 2734 3919 
Q 2494 4147 2053 4147 
L 1259 4147 
z
M 628 4666 
L 2053 4666 
Q 2838 4666 3239 4311 
Q 3641 3956 3641 3272 
Q 3641 2581 3239 2228 
Q 2838 1875 2053 1875 
L 1259 1875 
L 1259 0 
L 628 0 
L 628 4666 
z
" transform="scale(0.015625)"/>
       </defs>
       <use xlink:href="#DejaVuSans-50"/>
       <use xlink:href="#DejaVuSans-54" x="60.302734"/>
      </g>
     </g>
    </g>
    <g id="xtick_8">
     <g id="line2d_8">
      <g>
       <use xlink:href="#maee63bb9b4" x="369.226244" y="360.429" style="stroke: #000000; stroke-width: 0.8"/>
      </g>
     </g>
     <g id="text_8">
      <!-- CS -->
      <g transform="translate(358.561244 379.5865) scale(0.16 -0.16)">
       <defs>
        <path id="DejaVuSans-53" d="M 3425 4513 
L 3425 3897 
Q 3066 4069 2747 4153 
Q 2428 4238 2131 4238 
Q 1616 4238 1336 4038 
Q 1056 3838 1056 3469 
Q 1056 3159 1242 3001 
Q 1428 2844 1947 2747 
L 2328 2669 
Q 3034 2534 3370 2195 
Q 3706 1856 3706 1288 
Q 3706 609 3251 259 
Q 2797 -91 1919 -91 
Q 1588 -91 1214 -16 
Q 841 59 441 206 
L 441 856 
Q 825 641 1194 531 
Q 1563 422 1919 422 
Q 2459 422 2753 634 
Q 3047 847 3047 1241 
Q 3047 1584 2836 1778 
Q 2625 1972 2144 2069 
L 1759 2144 
Q 1053 2284 737 2584 
Q 422 2884 422 3419 
Q 422 4038 858 4394 
Q 1294 4750 2059 4750 
Q 2388 4750 2728 4690 
Q 3069 4631 3425 4513 
z
" transform="scale(0.015625)"/>
       </defs>
       <use xlink:href="#DejaVuSans-43"/>
       <use xlink:href="#DejaVuSans-53" x="69.824219"/>
      </g>
     </g>
    </g>
    <g id="xtick_9">
     <g id="line2d_9">
      <g>
       <use xlink:href="#maee63bb9b4" x="403.400407" y="360.429" style="stroke: #000000; stroke-width: 0.8"/>
      </g>
     </g>
     <g id="text_9">
      <!-- PC -->
      <g transform="translate(392.990407 379.5865) scale(0.16 -0.16)">
       <use xlink:href="#DejaVuSans-50"/>
       <use xlink:href="#DejaVuSans-43" x="60.302734"/>
      </g>
     </g>
    </g>
    <g id="xtick_10">
     <g id="line2d_10">
      <g>
       <use xlink:href="#maee63bb9b4" x="437.574569" y="360.429" style="stroke: #000000; stroke-width: 0.8"/>
      </g>
     </g>
     <g id="text_10">
      <!-- SS1 -->
      <g transform="translate(422.327069 379.5865) scale(0.16 -0.16)">
       <use xlink:href="#DejaVuSans-53"/>
       <use xlink:href="#DejaVuSans-53" x="63.476562"/>
       <use xlink:href="#DejaVuSans-31" x="126.953125"/>
      </g>
     </g>
    </g>
    <g id="xtick_11">
     <g id="line2d_11">
      <g>
       <use xlink:href="#maee63bb9b4" x="471.748732" y="360.429" style="stroke: #000000; stroke-width: 0.8"/>
      </g>
     </g>
     <g id="text_11">
      <!-- SS8 -->
      <g transform="translate(456.501232 379.5865) scale(0.16 -0.16)">
       <defs>
        <path id="DejaVuSans-38" d="M 2034 2216 
Q 1584 2216 1326 1975 
Q 1069 1734 1069 1313 
Q 1069 891 1326 650 
Q 1584 409 2034 409 
Q 2484 409 2743 651 
Q 3003 894 3003 1313 
Q 3003 1734 2745 1975 
Q 2488 2216 2034 2216 
z
M 1403 2484 
Q 997 2584 770 2862 
Q 544 3141 544 3541 
Q 544 4100 942 4425 
Q 1341 4750 2034 4750 
Q 2731 4750 3128 4425 
Q 3525 4100 3525 3541 
Q 3525 3141 3298 2862 
Q 3072 2584 2669 2484 
Q 3125 2378 3379 2068 
Q 3634 1759 3634 1313 
Q 3634 634 3220 271 
Q 2806 -91 2034 -91 
Q 1263 -91 848 271 
Q 434 634 434 1313 
Q 434 1759 690 2068 
Q 947 2378 1403 2484 
z
M 1172 3481 
Q 1172 3119 1398 2916 
Q 1625 2713 2034 2713 
Q 2441 2713 2670 2916 
Q 2900 3119 2900 3481 
Q 2900 3844 2670 4047 
Q 2441 4250 2034 4250 
Q 1625 4250 1398 4047 
Q 1172 3844 1172 3481 
z
" transform="scale(0.015625)"/>
       </defs>
       <use xlink:href="#DejaVuSans-53"/>
       <use xlink:href="#DejaVuSans-53" x="63.476562"/>
       <use xlink:href="#DejaVuSans-38" x="126.953125"/>
      </g>
     </g>
    </g>
    <g id="xtick_12">
     <g id="line2d_12">
      <g>
       <use xlink:href="#maee63bb9b4" x="505.922895" y="360.429" style="stroke: #000000; stroke-width: 0.8"/>
      </g>
     </g>
     <g id="text_12">
      <!-- SC -->
      <g transform="translate(495.257895 379.5865) scale(0.16 -0.16)">
       <use xlink:href="#DejaVuSans-53"/>
       <use xlink:href="#DejaVuSans-43" x="63.476562"/>
      </g>
     </g>
    </g>
   </g>
   <g id="matplotlib.axis_2">
    <g id="ytick_1">
     <g id="line2d_13">
      <defs>
       <path id="ma57d5a9063" d="M 0 0 
L -3.5 0 
" style="stroke: #000000; stroke-width: 0.8"/>
      </defs>
      <g>
       <use xlink:href="#ma57d5a9063" x="94.765" y="360.429" style="stroke: #000000; stroke-width: 0.8"/>
      </g>
     </g>
     <g id="text_13">
      <!-- 0 -->
      <g transform="translate(77.585 366.50775) scale(0.16 -0.16)">
       <defs>
        <path id="DejaVuSans-30" d="M 2034 4250 
Q 1547 4250 1301 3770 
Q 1056 3291 1056 2328 
Q 1056 1369 1301 889 
Q 1547 409 2034 409 
Q 2525 409 2770 889 
Q 3016 1369 3016 2328 
Q 3016 3291 2770 3770 
Q 2525 4250 2034 4250 
z
M 2034 4750 
Q 2819 4750 3233 4129 
Q 3647 3509 3647 2328 
Q 3647 1150 3233 529 
Q 2819 -91 2034 -91 
Q 1250 -91 836 529 
Q 422 1150 422 2328 
Q 422 3509 836 4129 
Q 1250 4750 2034 4750 
z
" transform="scale(0.015625)"/>
       </defs>
       <use xlink:href="#DejaVuSans-30"/>
      </g>
     </g>
    </g>
    <g id="ytick_2">
     <g id="line2d_14">
      <g>
       <use xlink:href="#ma57d5a9063" x="94.765" y="318.635665" style="stroke: #000000; stroke-width: 0.8"/>
      </g>
     </g>
     <g id="text_14">
      <!-- 100000 -->
      <g transform="translate(26.685 324.714415) scale(0.16 -0.16)">
       <use xlink:href="#DejaVuSans-31"/>
       <use xlink:href="#DejaVuSans-30" x="63.623047"/>
       <use xlink:href="#DejaVuSans-30" x="127.246094"/>
       <use xlink:href="#DejaVuSans-30" x="190.869141"/>
       <use xlink:href="#DejaVuSans-30" x="254.492188"/>
       <use xlink:href="#DejaVuSans-30" x="318.115234"/>
      </g>
     </g>
    </g>
    <g id="ytick_3">
     <g id="line2d_15">
      <g>
       <use xlink:href="#ma57d5a9063" x="94.765" y="276.84233" style="stroke: #000000; stroke-width: 0.8"/>
      </g>
     </g>
     <g id="text_15">
      <!-- 200000 -->
      <g transform="translate(26.685 282.92108) scale(0.16 -0.16)">
       <use xlink:href="#DejaVuSans-32"/>
       <use xlink:href="#DejaVuSans-30" x="63.623047"/>
       <use xlink:href="#DejaVuSans-30" x="127.246094"/>
       <use xlink:href="#DejaVuSans-30" x="190.869141"/>
       <use xlink:href="#DejaVuSans-30" x="254.492188"/>
       <use xlink:href="#DejaVuSans-30" x="318.115234"/>
      </g>
     </g>
    </g>
    <g id="ytick_4">
     <g id="line2d_16">
      <g>
       <use xlink:href="#ma57d5a9063" x="94.765" y="235.048995" style="stroke: #000000; stroke-width: 0.8"/>
      </g>
     </g>
     <g id="text_16">
      <!-- 300000 -->
      <g transform="translate(26.685 241.127745) scale(0.16 -0.16)">
       <use xlink:href="#DejaVuSans-33"/>
       <use xlink:href="#DejaVuSans-30" x="63.623047"/>
       <use xlink:href="#DejaVuSans-30" x="127.246094"/>
       <use xlink:href="#DejaVuSans-30" x="190.869141"/>
       <use xlink:href="#DejaVuSans-30" x="254.492188"/>
       <use xlink:href="#DejaVuSans-30" x="318.115234"/>
      </g>
     </g>
    </g>
    <g id="ytick_5">
     <g id="line2d_17">
      <g>
       <use xlink:href="#ma57d5a9063" x="94.765" y="193.25566" style="stroke: #000000; stroke-width: 0.8"/>
      </g>
     </g>
     <g id="text_17">
      <!-- 400000 -->
      <g transform="translate(26.685 199.33441) scale(0.16 -0.16)">
       <defs>
        <path id="DejaVuSans-34" d="M 2419 4116 
L 825 1625 
L 2419 1625 
L 2419 4116 
z
M 2253 4666 
L 3047 4666 
L 3047 1625 
L 3713 1625 
L 3713 1100 
L 3047 1100 
L 3047 0 
L 2419 0 
L 2419 1100 
L 313 1100 
L 313 1709 
L 2253 4666 
z
" transform="scale(0.015625)"/>
       </defs>
       <use xlink:href="#DejaVuSans-34"/>
       <use xlink:href="#DejaVuSans-30" x="63.623047"/>
       <use xlink:href="#DejaVuSans-30" x="127.246094"/>
       <use xlink:href="#DejaVuSans-30" x="190.869141"/>
       <use xlink:href="#DejaVuSans-30" x="254.492188"/>
       <use xlink:href="#DejaVuSans-30" x="318.115234"/>
      </g>
     </g>
    </g>
    <g id="ytick_6">
     <g id="line2d_18">
      <g>
       <use xlink:href="#ma57d5a9063" x="94.765" y="151.462324" style="stroke: #000000; stroke-width: 0.8"/>
      </g>
     </g>
     <g id="text_18">
      <!-- 500000 -->
      <g transform="translate(26.685 157.541074) scale(0.16 -0.16)">
       <defs>
        <path id="DejaVuSans-35" d="M 691 4666 
L 3169 4666 
L 3169 4134 
L 1269 4134 
L 1269 2991 
Q 1406 3038 1543 3061 
Q 1681 3084 1819 3084 
Q 2600 3084 3056 2656 
Q 3513 2228 3513 1497 
Q 3513 744 3044 326 
Q 2575 -91 1722 -91 
Q 1428 -91 1123 -41 
Q 819 9 494 109 
L 494 744 
Q 775 591 1075 516 
Q 1375 441 1709 441 
Q 2250 441 2565 725 
Q 2881 1009 2881 1497 
Q 2881 1984 2565 2268 
Q 2250 2553 1709 2553 
Q 1456 2553 1204 2497 
Q 953 2441 691 2322 
L 691 4666 
z
" transform="scale(0.015625)"/>
       </defs>
       <use xlink:href="#DejaVuSans-35"/>
       <use xlink:href="#DejaVuSans-30" x="63.623047"/>
       <use xlink:href="#DejaVuSans-30" x="127.246094"/>
       <use xlink:href="#DejaVuSans-30" x="190.869141"/>
       <use xlink:href="#DejaVuSans-30" x="254.492188"/>
       <use xlink:href="#DejaVuSans-30" x="318.115234"/>
      </g>
     </g>
    </g>
    <g id="ytick_7">
     <g id="line2d_19">
      <g>
       <use xlink:href="#ma57d5a9063" x="94.765" y="109.668989" style="stroke: #000000; stroke-width: 0.8"/>
      </g>
     </g>
     <g id="text_19">
      <!-- 600000 -->
      <g transform="translate(26.685 115.747739) scale(0.16 -0.16)">
       <defs>
        <path id="DejaVuSans-36" d="M 2113 2584 
Q 1688 2584 1439 2293 
Q 1191 2003 1191 1497 
Q 1191 994 1439 701 
Q 1688 409 2113 409 
Q 2538 409 2786 701 
Q 3034 994 3034 1497 
Q 3034 2003 2786 2293 
Q 2538 2584 2113 2584 
z
M 3366 4563 
L 3366 3988 
Q 3128 4100 2886 4159 
Q 2644 4219 2406 4219 
Q 1781 4219 1451 3797 
Q 1122 3375 1075 2522 
Q 1259 2794 1537 2939 
Q 1816 3084 2150 3084 
Q 2853 3084 3261 2657 
Q 3669 2231 3669 1497 
Q 3669 778 3244 343 
Q 2819 -91 2113 -91 
Q 1303 -91 875 529 
Q 447 1150 447 2328 
Q 447 3434 972 4092 
Q 1497 4750 2381 4750 
Q 2619 4750 2861 4703 
Q 3103 4656 3366 4563 
z
" transform="scale(0.015625)"/>
       </defs>
       <use xlink:href="#DejaVuSans-36"/>
       <use xlink:href="#DejaVuSans-30" x="63.623047"/>
       <use xlink:href="#DejaVuSans-30" x="127.246094"/>
       <use xlink:href="#DejaVuSans-30" x="190.869141"/>
       <use xlink:href="#DejaVuSans-30" x="254.492188"/>
       <use xlink:href="#DejaVuSans-30" x="318.115234"/>
      </g>
     </g>
    </g>
    <g id="ytick_8">
     <g id="line2d_20">
      <g>
       <use xlink:href="#ma57d5a9063" x="94.765" y="67.875654" style="stroke: #000000; stroke-width: 0.8"/>
      </g>
     </g>
     <g id="text_20">
      <!-- 700000 -->
      <g transform="translate(26.685 73.954404) scale(0.16 -0.16)">
       <defs>
        <path id="DejaVuSans-37" d="M 525 4666 
L 3525 4666 
L 3525 4397 
L 1831 0 
L 1172 0 
L 2766 4134 
L 525 4134 
L 525 4666 
z
" transform="scale(0.015625)"/>
       </defs>
       <use xlink:href="#DejaVuSans-37"/>
       <use xlink:href="#DejaVuSans-30" x="63.623047"/>
       <use xlink:href="#DejaVuSans-30" x="127.246094"/>
       <use xlink:href="#DejaVuSans-30" x="190.869141"/>
       <use xlink:href="#DejaVuSans-30" x="254.492188"/>
       <use xlink:href="#DejaVuSans-30" x="318.115234"/>
      </g>
     </g>
    </g>
    <g id="text_21">
     <!-- Index -->
     <g transform="translate(19.3575 216.13525) rotate(-90) scale(0.16 -0.16)">
      <defs>
       <path id="DejaVuSans-49" d="M 628 4666 
L 1259 4666 
L 1259 0 
L 628 0 
L 628 4666 
z
" transform="scale(0.015625)"/>
       <path id="DejaVuSans-6e" d="M 3513 2113 
L 3513 0 
L 2938 0 
L 2938 2094 
Q 2938 2591 2744 2837 
Q 2550 3084 2163 3084 
Q 1697 3084 1428 2787 
Q 1159 2491 1159 1978 
L 1159 0 
L 581 0 
L 581 3500 
L 1159 3500 
L 1159 2956 
Q 1366 3272 1645 3428 
Q 1925 3584 2291 3584 
Q 2894 3584 3203 3211 
Q 3513 2838 3513 2113 
z
" transform="scale(0.015625)"/>
       <path id="DejaVuSans-64" d="M 2906 2969 
L 2906 4863 
L 3481 4863 
L 3481 0 
L 2906 0 
L 2906 525 
Q 2725 213 2448 61 
Q 2172 -91 1784 -91 
Q 1150 -91 751 415 
Q 353 922 353 1747 
Q 353 2572 751 3078 
Q 1150 3584 1784 3584 
Q 2172 3584 2448 3432 
Q 2725 3281 2906 2969 
z
M 947 1747 
Q 947 1113 1208 752 
Q 1469 391 1925 391 
Q 2381 391 2643 752 
Q 2906 1113 2906 1747 
Q 2906 2381 2643 2742 
Q 2381 3103 1925 3103 
Q 1469 3103 1208 2742 
Q 947 2381 947 1747 
z
" transform="scale(0.015625)"/>
       <path id="DejaVuSans-65" d="M 3597 1894 
L 3597 1613 
L 953 1613 
Q 991 1019 1311 708 
Q 1631 397 2203 397 
Q 2534 397 2845 478 
Q 3156 559 3463 722 
L 3463 178 
Q 3153 47 2828 -22 
Q 2503 -91 2169 -91 
Q 1331 -91 842 396 
Q 353 884 353 1716 
Q 353 2575 817 3079 
Q 1281 3584 2069 3584 
Q 2775 3584 3186 3129 
Q 3597 2675 3597 1894 
z
M 3022 2063 
Q 3016 2534 2758 2815 
Q 2500 3097 2075 3097 
Q 1594 3097 1305 2825 
Q 1016 2553 972 2059 
L 3022 2063 
z
" transform="scale(0.015625)"/>
       <path id="DejaVuSans-78" d="M 3513 3500 
L 2247 1797 
L 3578 0 
L 2900 0 
L 1881 1375 
L 863 0 
L 184 0 
L 1544 1831 
L 300 3500 
L 978 3500 
L 1906 2253 
L 2834 3500 
L 3513 3500 
z
" transform="scale(0.015625)"/>
      </defs>
      <use xlink:href="#DejaVuSans-49"/>
      <use xlink:href="#DejaVuSans-6e" x="29.492188"/>
      <use xlink:href="#DejaVuSans-64" x="92.871094"/>
      <use xlink:href="#DejaVuSans-65" x="156.347656"/>
      <use xlink:href="#DejaVuSans-78" x="216.121094"/>
     </g>
    </g>
   </g>
   <g id="patch_243">
    <path d="M 94.765 360.429 
L 94.765 27.789 
" style="fill: none; stroke: #000000; stroke-width: 0.8; stroke-linejoin: miter; stroke-linecap: square"/>
   </g>
   <g id="patch_244">
    <path d="M 541.165 360.429 
L 541.165 27.789 
" style="fill: none; stroke: #000000; stroke-width: 0.8; stroke-linejoin: miter; stroke-linecap: square"/>
   </g>
   <g id="patch_245">
    <path d="M 94.765 360.429 
L 541.165 360.429 
" style="fill: none; stroke: #000000; stroke-width: 0.8; stroke-linejoin: miter; stroke-linecap: square"/>
   </g>
   <g id="patch_246">
    <path d="M 94.765 27.789 
L 541.165 27.789 
" style="fill: none; stroke: #000000; stroke-width: 0.8; stroke-linejoin: miter; stroke-linecap: square"/>
   </g>
   <g id="text_22">
    <!-- UnixBench Individual Tests Multi Core -->
    <g transform="translate(138.0235 21.789) scale(0.192 -0.192)">
     <defs>
      <path id="DejaVuSans-55" d="M 556 4666 
L 1191 4666 
L 1191 1831 
Q 1191 1081 1462 751 
Q 1734 422 2344 422 
Q 2950 422 3222 751 
Q 3494 1081 3494 1831 
L 3494 4666 
L 4128 4666 
L 4128 1753 
Q 4128 841 3676 375 
Q 3225 -91 2344 -91 
Q 1459 -91 1007 375 
Q 556 841 556 1753 
L 556 4666 
z
" transform="scale(0.015625)"/>
      <path id="DejaVuSans-69" d="M 603 3500 
L 1178 3500 
L 1178 0 
L 603 0 
L 603 3500 
z
M 603 4863 
L 1178 4863 
L 1178 4134 
L 603 4134 
L 603 4863 
z
" transform="scale(0.015625)"/>
      <path id="DejaVuSans-42" d="M 1259 2228 
L 1259 519 
L 2272 519 
Q 2781 519 3026 730 
Q 3272 941 3272 1375 
Q 3272 1813 3026 2020 
Q 2781 2228 2272 2228 
L 1259 2228 
z
M 1259 4147 
L 1259 2741 
L 2194 2741 
Q 2656 2741 2882 2914 
Q 3109 3088 3109 3444 
Q 3109 3797 2882 3972 
Q 2656 4147 2194 4147 
L 1259 4147 
z
M 628 4666 
L 2241 4666 
Q 2963 4666 3353 4366 
Q 3744 4066 3744 3513 
Q 3744 3084 3544 2831 
Q 3344 2578 2956 2516 
Q 3422 2416 3680 2098 
Q 3938 1781 3938 1306 
Q 3938 681 3513 340 
Q 3088 0 2303 0 
L 628 0 
L 628 4666 
z
" transform="scale(0.015625)"/>
      <path id="DejaVuSans-63" d="M 3122 3366 
L 3122 2828 
Q 2878 2963 2633 3030 
Q 2388 3097 2138 3097 
Q 1578 3097 1268 2742 
Q 959 2388 959 1747 
Q 959 1106 1268 751 
Q 1578 397 2138 397 
Q 2388 397 2633 464 
Q 2878 531 3122 666 
L 3122 134 
Q 2881 22 2623 -34 
Q 2366 -91 2075 -91 
Q 1284 -91 818 406 
Q 353 903 353 1747 
Q 353 2603 823 3093 
Q 1294 3584 2113 3584 
Q 2378 3584 2631 3529 
Q 2884 3475 3122 3366 
z
" transform="scale(0.015625)"/>
      <path id="DejaVuSans-68" d="M 3513 2113 
L 3513 0 
L 2938 0 
L 2938 2094 
Q 2938 2591 2744 2837 
Q 2550 3084 2163 3084 
Q 1697 3084 1428 2787 
Q 1159 2491 1159 1978 
L 1159 0 
L 581 0 
L 581 4863 
L 1159 4863 
L 1159 2956 
Q 1366 3272 1645 3428 
Q 1925 3584 2291 3584 
Q 2894 3584 3203 3211 
Q 3513 2838 3513 2113 
z
" transform="scale(0.015625)"/>
      <path id="DejaVuSans-20" transform="scale(0.015625)"/>
      <path id="DejaVuSans-76" d="M 191 3500 
L 800 3500 
L 1894 563 
L 2988 3500 
L 3597 3500 
L 2284 0 
L 1503 0 
L 191 3500 
z
" transform="scale(0.015625)"/>
      <path id="DejaVuSans-75" d="M 544 1381 
L 544 3500 
L 1119 3500 
L 1119 1403 
Q 1119 906 1312 657 
Q 1506 409 1894 409 
Q 2359 409 2629 706 
Q 2900 1003 2900 1516 
L 2900 3500 
L 3475 3500 
L 3475 0 
L 2900 0 
L 2900 538 
Q 2691 219 2414 64 
Q 2138 -91 1772 -91 
Q 1169 -91 856 284 
Q 544 659 544 1381 
z
M 1991 3584 
L 1991 3584 
z
" transform="scale(0.015625)"/>
      <path id="DejaVuSans-61" d="M 2194 1759 
Q 1497 1759 1228 1600 
Q 959 1441 959 1056 
Q 959 750 1161 570 
Q 1363 391 1709 391 
Q 2188 391 2477 730 
Q 2766 1069 2766 1631 
L 2766 1759 
L 2194 1759 
z
M 3341 1997 
L 3341 0 
L 2766 0 
L 2766 531 
Q 2569 213 2275 61 
Q 1981 -91 1556 -91 
Q 1019 -91 701 211 
Q 384 513 384 1019 
Q 384 1609 779 1909 
Q 1175 2209 1959 2209 
L 2766 2209 
L 2766 2266 
Q 2766 2663 2505 2880 
Q 2244 3097 1772 3097 
Q 1472 3097 1187 3025 
Q 903 2953 641 2809 
L 641 3341 
Q 956 3463 1253 3523 
Q 1550 3584 1831 3584 
Q 2591 3584 2966 3190 
Q 3341 2797 3341 1997 
z
" transform="scale(0.015625)"/>
      <path id="DejaVuSans-6c" d="M 603 4863 
L 1178 4863 
L 1178 0 
L 603 0 
L 603 4863 
z
" transform="scale(0.015625)"/>
      <path id="DejaVuSans-73" d="M 2834 3397 
L 2834 2853 
Q 2591 2978 2328 3040 
Q 2066 3103 1784 3103 
Q 1356 3103 1142 2972 
Q 928 2841 928 2578 
Q 928 2378 1081 2264 
Q 1234 2150 1697 2047 
L 1894 2003 
Q 2506 1872 2764 1633 
Q 3022 1394 3022 966 
Q 3022 478 2636 193 
Q 2250 -91 1575 -91 
Q 1294 -91 989 -36 
Q 684 19 347 128 
L 347 722 
Q 666 556 975 473 
Q 1284 391 1588 391 
Q 1994 391 2212 530 
Q 2431 669 2431 922 
Q 2431 1156 2273 1281 
Q 2116 1406 1581 1522 
L 1381 1569 
Q 847 1681 609 1914 
Q 372 2147 372 2553 
Q 372 3047 722 3315 
Q 1072 3584 1716 3584 
Q 2034 3584 2315 3537 
Q 2597 3491 2834 3397 
z
" transform="scale(0.015625)"/>
      <path id="DejaVuSans-74" d="M 1172 4494 
L 1172 3500 
L 2356 3500 
L 2356 3053 
L 1172 3053 
L 1172 1153 
Q 1172 725 1289 603 
Q 1406 481 1766 481 
L 2356 481 
L 2356 0 
L 1766 0 
Q 1100 0 847 248 
Q 594 497 594 1153 
L 594 3053 
L 172 3053 
L 172 3500 
L 594 3500 
L 594 4494 
L 1172 4494 
z
" transform="scale(0.015625)"/>
      <path id="DejaVuSans-4d" d="M 628 4666 
L 1569 4666 
L 2759 1491 
L 3956 4666 
L 4897 4666 
L 4897 0 
L 4281 0 
L 4281 4097 
L 3078 897 
L 2444 897 
L 1241 4097 
L 1241 0 
L 628 0 
L 628 4666 
z
" transform="scale(0.015625)"/>
      <path id="DejaVuSans-6f" d="M 1959 3097 
Q 1497 3097 1228 2736 
Q 959 2375 959 1747 
Q 959 1119 1226 758 
Q 1494 397 1959 397 
Q 2419 397 2687 759 
Q 2956 1122 2956 1747 
Q 2956 2369 2687 2733 
Q 2419 3097 1959 3097 
z
M 1959 3584 
Q 2709 3584 3137 3096 
Q 3566 2609 3566 1747 
Q 3566 888 3137 398 
Q 2709 -91 1959 -91 
Q 1206 -91 779 398 
Q 353 888 353 1747 
Q 353 2609 779 3096 
Q 1206 3584 1959 3584 
z
" transform="scale(0.015625)"/>
      <path id="DejaVuSans-72" d="M 2631 2963 
Q 2534 3019 2420 3045 
Q 2306 3072 2169 3072 
Q 1681 3072 1420 2755 
Q 1159 2438 1159 1844 
L 1159 0 
L 581 0 
L 581 3500 
L 1159 3500 
L 1159 2956 
Q 1341 3275 1631 3429 
Q 1922 3584 2338 3584 
Q 2397 3584 2469 3576 
Q 2541 3569 2628 3553 
L 2631 2963 
z
" transform="scale(0.015625)"/>
     </defs>
     <use xlink:href="#DejaVuSans-55"/>
     <use xlink:href="#DejaVuSans-6e" x="73.193359"/>
     <use xlink:href="#DejaVuSans-69" x="136.572266"/>
     <use xlink:href="#DejaVuSans-78" x="164.355469"/>
     <use xlink:href="#DejaVuSans-42" x="223.535156"/>
     <use xlink:href="#DejaVuSans-65" x="292.138672"/>
     <use xlink:href="#DejaVuSans-6e" x="353.662109"/>
     <use xlink:href="#DejaVuSans-63" x="417.041016"/>
     <use xlink:href="#DejaVuSans-68" x="472.021484"/>
     <use xlink:href="#DejaVuSans-20" x="535.400391"/>
     <use xlink:href="#DejaVuSans-49" x="567.1875"/>
     <use xlink:href="#DejaVuSans-6e" x="596.679688"/>
     <use xlink:href="#DejaVuSans-64" x="660.058594"/>
     <use xlink:href="#DejaVuSans-69" x="723.535156"/>
     <use xlink:href="#DejaVuSans-76" x="751.318359"/>
     <use xlink:href="#DejaVuSans-69" x="810.498047"/>
     <use xlink:href="#DejaVuSans-64" x="838.28125"/>
     <use xlink:href="#DejaVuSans-75" x="901.757812"/>
     <use xlink:href="#DejaVuSans-61" x="965.136719"/>
     <use xlink:href="#DejaVuSans-6c" x="1026.416016"/>
     <use xlink:href="#DejaVuSans-20" x="1054.199219"/>
     <use xlink:href="#DejaVuSans-54" x="1085.986328"/>
     <use xlink:href="#DejaVuSans-65" x="1130.070312"/>
     <use xlink:href="#DejaVuSans-73" x="1191.59375"/>
     <use xlink:href="#DejaVuSans-74" x="1243.693359"/>
     <use xlink:href="#DejaVuSans-73" x="1282.902344"/>
     <use xlink:href="#DejaVuSans-20" x="1335.001953"/>
     <use xlink:href="#DejaVuSans-4d" x="1366.789062"/>
     <use xlink:href="#DejaVuSans-75" x="1453.068359"/>
     <use xlink:href="#DejaVuSans-6c" x="1516.447266"/>
     <use xlink:href="#DejaVuSans-74" x="1544.230469"/>
     <use xlink:href="#DejaVuSans-69" x="1583.439453"/>
     <use xlink:href="#DejaVuSans-20" x="1611.222656"/>
     <use xlink:href="#DejaVuSans-43" x="1643.009766"/>
     <use xlink:href="#DejaVuSans-6f" x="1712.833984"/>
     <use xlink:href="#DejaVuSans-72" x="1774.015625"/>
     <use xlink:href="#DejaVuSans-65" x="1812.878906"/>
    </g>
   </g>
   <g id="legend_1">
    <g id="patch_247">
     <path d="M 48.25375 572.888 
L 591.67625 572.888 
Q 594.87625 572.888 594.87625 569.688 
L 594.87625 406.893 
Q 594.87625 403.693 591.67625 403.693 
L 48.25375 403.693 
Q 45.05375 403.693 45.05375 406.893 
L 45.05375 569.688 
Q 45.05375 572.888 48.25375 572.888 
z
" style="fill: #4d4d4d; opacity: 0.5; stroke: #4d4d4d; stroke-linejoin: miter"/>
    </g>
    <g id="patch_248">
     <path d="M 46.25375 570.888 
L 589.67625 570.888 
Q 592.87625 570.888 592.87625 567.688 
L 592.87625 404.893 
Q 592.87625 401.693 589.67625 401.693 
L 46.25375 401.693 
Q 43.05375 401.693 43.05375 404.893 
L 43.05375 567.688 
Q 43.05375 570.888 46.25375 570.888 
z
" style="fill: #ffffff; stroke: #cccccc; stroke-linejoin: miter"/>
    </g>
    <g id="patch_249">
     <path d="M 49.45375 420.2505 
L 81.45375 420.2505 
L 81.45375 409.0505 
L 49.45375 409.0505 
z
" style="fill: #011959"/>
    </g>
    <g id="text_23">
     <!-- a1.metal -->
     <g transform="translate(94.25375 420.2505) scale(0.16 -0.16)">
      <defs>
       <path id="DejaVuSans-2e" d="M 684 794 
L 1344 794 
L 1344 0 
L 684 0 
L 684 794 
z
" transform="scale(0.015625)"/>
       <path id="DejaVuSans-6d" d="M 3328 2828 
Q 3544 3216 3844 3400 
Q 4144 3584 4550 3584 
Q 5097 3584 5394 3201 
Q 5691 2819 5691 2113 
L 5691 0 
L 5113 0 
L 5113 2094 
Q 5113 2597 4934 2840 
Q 4756 3084 4391 3084 
Q 3944 3084 3684 2787 
Q 3425 2491 3425 1978 
L 3425 0 
L 2847 0 
L 2847 2094 
Q 2847 2600 2669 2842 
Q 2491 3084 2119 3084 
Q 1678 3084 1418 2786 
Q 1159 2488 1159 1978 
L 1159 0 
L 581 0 
L 581 3500 
L 1159 3500 
L 1159 2956 
Q 1356 3278 1631 3431 
Q 1906 3584 2284 3584 
Q 2666 3584 2933 3390 
Q 3200 3197 3328 2828 
z
" transform="scale(0.015625)"/>
      </defs>
      <use xlink:href="#DejaVuSans-61"/>
      <use xlink:href="#DejaVuSans-31" x="61.279297"/>
      <use xlink:href="#DejaVuSans-2e" x="124.902344"/>
      <use xlink:href="#DejaVuSans-6d" x="156.689453"/>
      <use xlink:href="#DejaVuSans-65" x="254.101562"/>
      <use xlink:href="#DejaVuSans-74" x="315.625"/>
      <use xlink:href="#DejaVuSans-61" x="354.833984"/>
      <use xlink:href="#DejaVuSans-6c" x="416.113281"/>
     </g>
    </g>
    <g id="patch_250">
     <path d="M 49.45375 443.7355 
L 81.45375 443.7355 
L 81.45375 432.5355 
L 49.45375 432.5355 
z
" style="fill: #faccfa"/>
    </g>
    <g id="text_24">
     <!-- c3.8xlarge -->
     <g transform="translate(94.25375 443.7355) scale(0.16 -0.16)">
      <defs>
       <path id="DejaVuSans-67" d="M 2906 1791 
Q 2906 2416 2648 2759 
Q 2391 3103 1925 3103 
Q 1463 3103 1205 2759 
Q 947 2416 947 1791 
Q 947 1169 1205 825 
Q 1463 481 1925 481 
Q 2391 481 2648 825 
Q 2906 1169 2906 1791 
z
M 3481 434 
Q 3481 -459 3084 -895 
Q 2688 -1331 1869 -1331 
Q 1566 -1331 1297 -1286 
Q 1028 -1241 775 -1147 
L 775 -588 
Q 1028 -725 1275 -790 
Q 1522 -856 1778 -856 
Q 2344 -856 2625 -561 
Q 2906 -266 2906 331 
L 2906 616 
Q 2728 306 2450 153 
Q 2172 0 1784 0 
Q 1141 0 747 490 
Q 353 981 353 1791 
Q 353 2603 747 3093 
Q 1141 3584 1784 3584 
Q 2172 3584 2450 3431 
Q 2728 3278 2906 2969 
L 2906 3500 
L 3481 3500 
L 3481 434 
z
" transform="scale(0.015625)"/>
      </defs>
      <use xlink:href="#DejaVuSans-63"/>
      <use xlink:href="#DejaVuSans-33" x="54.980469"/>
      <use xlink:href="#DejaVuSans-2e" x="118.603516"/>
      <use xlink:href="#DejaVuSans-38" x="150.390625"/>
      <use xlink:href="#DejaVuSans-78" x="214.013672"/>
      <use xlink:href="#DejaVuSans-6c" x="273.193359"/>
      <use xlink:href="#DejaVuSans-61" x="300.976562"/>
      <use xlink:href="#DejaVuSans-72" x="362.255859"/>
      <use xlink:href="#DejaVuSans-67" x="401.619141"/>
      <use xlink:href="#DejaVuSans-65" x="465.095703"/>
     </g>
    </g>
    <g id="patch_251">
     <path d="M 49.45375 467.2205 
L 81.45375 467.2205 
L 81.45375 456.0205 
L 49.45375 456.0205 
z
" style="fill: #828231"/>
    </g>
    <g id="text_25">
     <!-- c4.8xlarge -->
     <g transform="translate(94.25375 467.2205) scale(0.16 -0.16)">
      <use xlink:href="#DejaVuSans-63"/>
      <use xlink:href="#DejaVuSans-34" x="54.980469"/>
      <use xlink:href="#DejaVuSans-2e" x="118.603516"/>
      <use xlink:href="#DejaVuSans-38" x="150.390625"/>
      <use xlink:href="#DejaVuSans-78" x="214.013672"/>
      <use xlink:href="#DejaVuSans-6c" x="273.193359"/>
      <use xlink:href="#DejaVuSans-61" x="300.976562"/>
      <use xlink:href="#DejaVuSans-72" x="362.255859"/>
      <use xlink:href="#DejaVuSans-67" x="401.619141"/>
      <use xlink:href="#DejaVuSans-65" x="465.095703"/>
     </g>
    </g>
    <g id="patch_252">
     <path d="M 49.45375 490.7055 
L 81.45375 490.7055 
L 81.45375 479.5055 
L 49.45375 479.5055 
z
" style="fill: #226061"/>
    </g>
    <g id="text_26">
     <!-- c5.metal -->
     <g transform="translate(94.25375 490.7055) scale(0.16 -0.16)">
      <use xlink:href="#DejaVuSans-63"/>
      <use xlink:href="#DejaVuSans-35" x="54.980469"/>
      <use xlink:href="#DejaVuSans-2e" x="118.603516"/>
      <use xlink:href="#DejaVuSans-6d" x="150.390625"/>
      <use xlink:href="#DejaVuSans-65" x="247.802734"/>
      <use xlink:href="#DejaVuSans-74" x="309.326172"/>
      <use xlink:href="#DejaVuSans-61" x="348.535156"/>
      <use xlink:href="#DejaVuSans-6c" x="409.814453"/>
     </g>
    </g>
    <g id="patch_253">
     <path d="M 49.45375 514.1905 
L 81.45375 514.1905 
L 81.45375 502.9905 
L 49.45375 502.9905 
z
" style="fill: #f19d6b"/>
    </g>
    <g id="text_27">
     <!-- c5a.24xlarge -->
     <g transform="translate(94.25375 514.1905) scale(0.16 -0.16)">
      <use xlink:href="#DejaVuSans-63"/>
      <use xlink:href="#DejaVuSans-35" x="54.980469"/>
      <use xlink:href="#DejaVuSans-61" x="118.603516"/>
      <use xlink:href="#DejaVuSans-2e" x="179.882812"/>
      <use xlink:href="#DejaVuSans-32" x="211.669922"/>
      <use xlink:href="#DejaVuSans-34" x="275.292969"/>
      <use xlink:href="#DejaVuSans-78" x="338.916016"/>
      <use xlink:href="#DejaVuSans-6c" x="398.095703"/>
      <use xlink:href="#DejaVuSans-61" x="425.878906"/>
      <use xlink:href="#DejaVuSans-72" x="487.158203"/>
      <use xlink:href="#DejaVuSans-67" x="526.521484"/>
      <use xlink:href="#DejaVuSans-65" x="589.998047"/>
     </g>
    </g>
    <g id="patch_254">
     <path d="M 49.45375 537.6755 
L 81.45375 537.6755 
L 81.45375 526.4755 
L 49.45375 526.4755 
z
" style="fill: #4d734d"/>
    </g>
    <g id="text_28">
     <!-- c5n.metal -->
     <g transform="translate(94.25375 537.6755) scale(0.16 -0.16)">
      <use xlink:href="#DejaVuSans-63"/>
      <use xlink:href="#DejaVuSans-35" x="54.980469"/>
      <use xlink:href="#DejaVuSans-6e" x="118.603516"/>
      <use xlink:href="#DejaVuSans-2e" x="181.982422"/>
      <use xlink:href="#DejaVuSans-6d" x="213.769531"/>
      <use xlink:href="#DejaVuSans-65" x="311.181641"/>
      <use xlink:href="#DejaVuSans-74" x="372.705078"/>
      <use xlink:href="#DejaVuSans-61" x="411.914062"/>
      <use xlink:href="#DejaVuSans-6c" x="473.193359"/>
     </g>
    </g>
    <g id="patch_255">
     <path d="M 49.45375 561.1605 
L 81.45375 561.1605 
L 81.45375 549.9605 
L 49.45375 549.9605 
z
" style="fill: #114360"/>
    </g>
    <g id="text_29">
     <!-- c6a.48xlarge -->
     <g transform="translate(94.25375 561.1605) scale(0.16 -0.16)">
      <use xlink:href="#DejaVuSans-63"/>
      <use xlink:href="#DejaVuSans-36" x="54.980469"/>
      <use xlink:href="#DejaVuSans-61" x="118.603516"/>
      <use xlink:href="#DejaVuSans-2e" x="179.882812"/>
      <use xlink:href="#DejaVuSans-34" x="211.669922"/>
      <use xlink:href="#DejaVuSans-38" x="275.292969"/>
      <use xlink:href="#DejaVuSans-78" x="338.916016"/>
      <use xlink:href="#DejaVuSans-6c" x="398.095703"/>
      <use xlink:href="#DejaVuSans-61" x="425.878906"/>
      <use xlink:href="#DejaVuSans-72" x="487.158203"/>
      <use xlink:href="#DejaVuSans-67" x="526.521484"/>
      <use xlink:href="#DejaVuSans-65" x="589.998047"/>
     </g>
    </g>
    <g id="patch_256">
     <path d="M 230.50125 420.2505 
L 262.50125 420.2505 
L 262.50125 409.0505 
L 230.50125 409.0505 
z
" style="fill: #fdb4b4"/>
    </g>
    <g id="text_30">
     <!-- c6a.metal -->
     <g transform="translate(275.30125 420.2505) scale(0.16 -0.16)">
      <use xlink:href="#DejaVuSans-63"/>
      <use xlink:href="#DejaVuSans-36" x="54.980469"/>
      <use xlink:href="#DejaVuSans-61" x="118.603516"/>
      <use xlink:href="#DejaVuSans-2e" x="179.882812"/>
      <use xlink:href="#DejaVuSans-6d" x="211.669922"/>
      <use xlink:href="#DejaVuSans-65" x="309.082031"/>
      <use xlink:href="#DejaVuSans-74" x="370.605469"/>
      <use xlink:href="#DejaVuSans-61" x="409.814453"/>
      <use xlink:href="#DejaVuSans-6c" x="471.09375"/>
     </g>
    </g>
    <g id="patch_257">
     <path d="M 230.50125 443.7355 
L 262.50125 443.7355 
L 262.50125 432.5355 
L 230.50125 432.5355 
z
" style="fill: #c09036"/>
    </g>
    <g id="text_31">
     <!-- c6g.metal -->
     <g transform="translate(275.30125 443.7355) scale(0.16 -0.16)">
      <use xlink:href="#DejaVuSans-63"/>
      <use xlink:href="#DejaVuSans-36" x="54.980469"/>
      <use xlink:href="#DejaVuSans-67" x="118.603516"/>
      <use xlink:href="#DejaVuSans-2e" x="182.080078"/>
      <use xlink:href="#DejaVuSans-6d" x="213.867188"/>
      <use xlink:href="#DejaVuSans-65" x="311.279297"/>
      <use xlink:href="#DejaVuSans-74" x="372.802734"/>
      <use xlink:href="#DejaVuSans-61" x="412.011719"/>
      <use xlink:href="#DejaVuSans-6c" x="473.291016"/>
     </g>
    </g>
    <g id="patch_258">
     <path d="M 230.50125 467.2205 
L 262.50125 467.2205 
L 262.50125 456.0205 
L 230.50125 456.0205 
z
" style="fill: #175262"/>
    </g>
    <g id="text_32">
     <!-- c6i.metal -->
     <g transform="translate(275.30125 467.2205) scale(0.16 -0.16)">
      <use xlink:href="#DejaVuSans-63"/>
      <use xlink:href="#DejaVuSans-36" x="54.980469"/>
      <use xlink:href="#DejaVuSans-69" x="118.603516"/>
      <use xlink:href="#DejaVuSans-2e" x="146.386719"/>
      <use xlink:href="#DejaVuSans-6d" x="178.173828"/>
      <use xlink:href="#DejaVuSans-65" x="275.585938"/>
      <use xlink:href="#DejaVuSans-74" x="337.109375"/>
      <use xlink:href="#DejaVuSans-61" x="376.318359"/>
      <use xlink:href="#DejaVuSans-6c" x="437.597656"/>
     </g>
    </g>
    <g id="patch_259">
     <path d="M 230.50125 490.7055 
L 262.50125 490.7055 
L 262.50125 479.5055 
L 230.50125 479.5055 
z
" style="fill: #fcbfd6"/>
    </g>
    <g id="text_33">
     <!-- c7a.metal-48xl -->
     <g transform="translate(275.30125 490.7055) scale(0.16 -0.16)">
      <defs>
       <path id="DejaVuSans-2d" d="M 313 2009 
L 1997 2009 
L 1997 1497 
L 313 1497 
L 313 2009 
z
" transform="scale(0.015625)"/>
      </defs>
      <use xlink:href="#DejaVuSans-63"/>
      <use xlink:href="#DejaVuSans-37" x="54.980469"/>
      <use xlink:href="#DejaVuSans-61" x="118.603516"/>
      <use xlink:href="#DejaVuSans-2e" x="179.882812"/>
      <use xlink:href="#DejaVuSans-6d" x="211.669922"/>
      <use xlink:href="#DejaVuSans-65" x="309.082031"/>
      <use xlink:href="#DejaVuSans-74" x="370.605469"/>
      <use xlink:href="#DejaVuSans-61" x="409.814453"/>
      <use xlink:href="#DejaVuSans-6c" x="471.09375"/>
      <use xlink:href="#DejaVuSans-2d" x="498.876953"/>
      <use xlink:href="#DejaVuSans-34" x="534.960938"/>
      <use xlink:href="#DejaVuSans-38" x="598.583984"/>
      <use xlink:href="#DejaVuSans-78" x="662.207031"/>
      <use xlink:href="#DejaVuSans-6c" x="721.386719"/>
     </g>
    </g>
    <g id="patch_260">
     <path d="M 230.50125 514.1905 
L 262.50125 514.1905 
L 262.50125 502.9905 
L 230.50125 502.9905 
z
" style="fill: #fca890"/>
    </g>
    <g id="text_34">
     <!-- c7g.16xlarge -->
     <g transform="translate(275.30125 514.1905) scale(0.16 -0.16)">
      <use xlink:href="#DejaVuSans-63"/>
      <use xlink:href="#DejaVuSans-37" x="54.980469"/>
      <use xlink:href="#DejaVuSans-67" x="118.603516"/>
      <use xlink:href="#DejaVuSans-2e" x="182.080078"/>
      <use xlink:href="#DejaVuSans-31" x="213.867188"/>
      <use xlink:href="#DejaVuSans-36" x="277.490234"/>
      <use xlink:href="#DejaVuSans-78" x="341.113281"/>
      <use xlink:href="#DejaVuSans-6c" x="400.292969"/>
      <use xlink:href="#DejaVuSans-61" x="428.076172"/>
      <use xlink:href="#DejaVuSans-72" x="489.355469"/>
      <use xlink:href="#DejaVuSans-67" x="528.71875"/>
      <use xlink:href="#DejaVuSans-65" x="592.195312"/>
     </g>
    </g>
    <g id="patch_261">
     <path d="M 230.50125 537.6755 
L 262.50125 537.6755 
L 262.50125 526.4755 
L 230.50125 526.4755 
z
" style="fill: #356a59"/>
    </g>
    <g id="text_35">
     <!-- c7g.metal -->
     <g transform="translate(275.30125 537.6755) scale(0.16 -0.16)">
      <use xlink:href="#DejaVuSans-63"/>
      <use xlink:href="#DejaVuSans-37" x="54.980469"/>
      <use xlink:href="#DejaVuSans-67" x="118.603516"/>
      <use xlink:href="#DejaVuSans-2e" x="182.080078"/>
      <use xlink:href="#DejaVuSans-6d" x="213.867188"/>
      <use xlink:href="#DejaVuSans-65" x="311.279297"/>
      <use xlink:href="#DejaVuSans-74" x="372.802734"/>
      <use xlink:href="#DejaVuSans-61" x="412.011719"/>
      <use xlink:href="#DejaVuSans-6c" x="473.291016"/>
     </g>
    </g>
    <g id="patch_262">
     <path d="M 230.50125 561.1605 
L 262.50125 561.1605 
L 262.50125 549.9605 
L 230.50125 549.9605 
z
" style="fill: #0d315d"/>
    </g>
    <g id="text_36">
     <!-- c7gn.16xlarge -->
     <g transform="translate(275.30125 561.1605) scale(0.16 -0.16)">
      <use xlink:href="#DejaVuSans-63"/>
      <use xlink:href="#DejaVuSans-37" x="54.980469"/>
      <use xlink:href="#DejaVuSans-67" x="118.603516"/>
      <use xlink:href="#DejaVuSans-6e" x="182.080078"/>
      <use xlink:href="#DejaVuSans-2e" x="245.458984"/>
      <use xlink:href="#DejaVuSans-31" x="277.246094"/>
      <use xlink:href="#DejaVuSans-36" x="340.869141"/>
      <use xlink:href="#DejaVuSans-78" x="404.492188"/>
      <use xlink:href="#DejaVuSans-6c" x="463.671875"/>
      <use xlink:href="#DejaVuSans-61" x="491.455078"/>
      <use xlink:href="#DejaVuSans-72" x="552.734375"/>
      <use xlink:href="#DejaVuSans-67" x="592.097656"/>
      <use xlink:href="#DejaVuSans-65" x="655.574219"/>
     </g>
    </g>
    <g id="patch_263">
     <path d="M 427.16875 420.2505 
L 459.16875 420.2505 
L 459.16875 409.0505 
L 427.16875 409.0505 
z
" style="fill: #a18a2b"/>
    </g>
    <g id="text_37">
     <!-- c7i.metal-24xl -->
     <g transform="translate(471.96875 420.2505) scale(0.16 -0.16)">
      <use xlink:href="#DejaVuSans-63"/>
      <use xlink:href="#DejaVuSans-37" x="54.980469"/>
      <use xlink:href="#DejaVuSans-69" x="118.603516"/>
      <use xlink:href="#DejaVuSans-2e" x="146.386719"/>
      <use xlink:href="#DejaVuSans-6d" x="178.173828"/>
      <use xlink:href="#DejaVuSans-65" x="275.585938"/>
      <use xlink:href="#DejaVuSans-74" x="337.109375"/>
      <use xlink:href="#DejaVuSans-61" x="376.318359"/>
      <use xlink:href="#DejaVuSans-6c" x="437.597656"/>
      <use xlink:href="#DejaVuSans-2d" x="465.380859"/>
      <use xlink:href="#DejaVuSans-32" x="501.464844"/>
      <use xlink:href="#DejaVuSans-34" x="565.087891"/>
      <use xlink:href="#DejaVuSans-78" x="628.710938"/>
      <use xlink:href="#DejaVuSans-6c" x="687.890625"/>
     </g>
    </g>
    <g id="patch_264">
     <path d="M 427.16875 443.7355 
L 459.16875 443.7355 
L 459.16875 432.5355 
L 427.16875 432.5355 
z
" style="fill: #677b3e"/>
    </g>
    <g id="text_38">
     <!-- c7i.metal-48xl -->
     <g transform="translate(471.96875 443.7355) scale(0.16 -0.16)">
      <use xlink:href="#DejaVuSans-63"/>
      <use xlink:href="#DejaVuSans-37" x="54.980469"/>
      <use xlink:href="#DejaVuSans-69" x="118.603516"/>
      <use xlink:href="#DejaVuSans-2e" x="146.386719"/>
      <use xlink:href="#DejaVuSans-6d" x="178.173828"/>
      <use xlink:href="#DejaVuSans-65" x="275.585938"/>
      <use xlink:href="#DejaVuSans-74" x="337.109375"/>
      <use xlink:href="#DejaVuSans-61" x="376.318359"/>
      <use xlink:href="#DejaVuSans-6c" x="437.597656"/>
      <use xlink:href="#DejaVuSans-2d" x="465.380859"/>
      <use xlink:href="#DejaVuSans-34" x="501.464844"/>
      <use xlink:href="#DejaVuSans-38" x="565.087891"/>
      <use xlink:href="#DejaVuSans-78" x="628.710938"/>
      <use xlink:href="#DejaVuSans-6c" x="687.890625"/>
     </g>
    </g>
    <g id="patch_265">
     <path d="M 427.16875 467.2205 
L 459.16875 467.2205 
L 459.16875 456.0205 
L 427.16875 456.0205 
z
" style="fill: #dd954d"/>
    </g>
    <g id="text_39">
     <!-- d2.8xlarge -->
     <g transform="translate(471.96875 467.2205) scale(0.16 -0.16)">
      <use xlink:href="#DejaVuSans-64"/>
      <use xlink:href="#DejaVuSans-32" x="63.476562"/>
      <use xlink:href="#DejaVuSans-2e" x="127.099609"/>
      <use xlink:href="#DejaVuSans-38" x="158.886719"/>
      <use xlink:href="#DejaVuSans-78" x="222.509766"/>
      <use xlink:href="#DejaVuSans-6c" x="281.689453"/>
      <use xlink:href="#DejaVuSans-61" x="309.472656"/>
      <use xlink:href="#DejaVuSans-72" x="370.751953"/>
      <use xlink:href="#DejaVuSans-67" x="410.115234"/>
      <use xlink:href="#DejaVuSans-65" x="473.591797"/>
     </g>
    </g>
    <g id="patch_266">
     <path d="M 427.16875 490.7055 
L 459.16875 490.7055 
L 459.16875 479.5055 
L 427.16875 479.5055 
z
" style="fill: #08255b"/>
    </g>
    <g id="text_40">
     <!-- i3.metal -->
     <g transform="translate(471.96875 490.7055) scale(0.16 -0.16)">
      <use xlink:href="#DejaVuSans-69"/>
      <use xlink:href="#DejaVuSans-33" x="27.783203"/>
      <use xlink:href="#DejaVuSans-2e" x="91.40625"/>
      <use xlink:href="#DejaVuSans-6d" x="123.193359"/>
      <use xlink:href="#DejaVuSans-65" x="220.605469"/>
      <use xlink:href="#DejaVuSans-74" x="282.128906"/>
      <use xlink:href="#DejaVuSans-61" x="321.337891"/>
      <use xlink:href="#DejaVuSans-6c" x="382.617188"/>
     </g>
    </g>
    <g id="patch_267">
     <path d="M 427.16875 514.1905 
L 459.16875 514.1905 
L 459.16875 502.9905 
L 427.16875 502.9905 
z
" style="fill: #fdaea2"/>
    </g>
    <g id="text_41">
     <!-- m5.metal -->
     <g transform="translate(471.96875 514.1905) scale(0.16 -0.16)">
      <use xlink:href="#DejaVuSans-6d"/>
      <use xlink:href="#DejaVuSans-35" x="97.412109"/>
      <use xlink:href="#DejaVuSans-2e" x="161.035156"/>
      <use xlink:href="#DejaVuSans-6d" x="192.822266"/>
      <use xlink:href="#DejaVuSans-65" x="290.234375"/>
      <use xlink:href="#DejaVuSans-74" x="351.757812"/>
      <use xlink:href="#DejaVuSans-61" x="390.966797"/>
      <use xlink:href="#DejaVuSans-6c" x="452.246094"/>
     </g>
    </g>
    <g id="patch_268">
     <path d="M 427.16875 537.6755 
L 459.16875 537.6755 
L 459.16875 526.4755 
L 427.16875 526.4755 
z
" style="fill: #fbc6e8"/>
    </g>
    <g id="text_42">
     <!-- m5a.24xlarge -->
     <g transform="translate(471.96875 537.6755) scale(0.16 -0.16)">
      <use xlink:href="#DejaVuSans-6d"/>
      <use xlink:href="#DejaVuSans-35" x="97.412109"/>
      <use xlink:href="#DejaVuSans-61" x="161.035156"/>
      <use xlink:href="#DejaVuSans-2e" x="222.314453"/>
      <use xlink:href="#DejaVuSans-32" x="254.101562"/>
      <use xlink:href="#DejaVuSans-34" x="317.724609"/>
      <use xlink:href="#DejaVuSans-78" x="381.347656"/>
      <use xlink:href="#DejaVuSans-6c" x="440.527344"/>
      <use xlink:href="#DejaVuSans-61" x="468.310547"/>
      <use xlink:href="#DejaVuSans-72" x="529.589844"/>
      <use xlink:href="#DejaVuSans-67" x="568.953125"/>
      <use xlink:href="#DejaVuSans-65" x="632.429688"/>
     </g>
    </g>
   </g>
  </g>
 </g>
 <defs>
  <clipPath id="pd6d9e46964">
   <rect x="94.765" y="27.789" width="446.4" height="332.64"/>
  </clipPath>
 </defs>
</svg>
