<?xml version="1.0" encoding="utf-8" standalone="no"?>
<!DOCTYPE svg PUBLIC "-//W3C//DTD SVG 1.1//EN"
  "http://www.w3.org/Graphics/SVG/1.1/DTD/svg11.dtd">
<svg xmlns:xlink="http://www.w3.org/1999/xlink" width="989.3975pt" height="484.148pt" viewBox="0 0 989.3975 484.148" xmlns="http://www.w3.org/2000/svg" version="1.1">
 <metadata>
  <rdf:RDF xmlns:dc="http://purl.org/dc/elements/1.1/" xmlns:cc="http://creativecommons.org/ns#" xmlns:rdf="http://www.w3.org/1999/02/22-rdf-syntax-ns#">
   <cc:Work>
    <dc:type rdf:resource="http://purl.org/dc/dcmitype/StillImage"/>
    <dc:date>2024-04-14T14:18:29.488150</dc:date>
    <dc:format>image/svg+xml</dc:format>
    <dc:creator>
     <cc:Agent>
      <dc:title>Matplotlib v3.8.2, https://matplotlib.org/</dc:title>
     </cc:Agent>
    </dc:creator>
   </cc:Work>
  </rdf:RDF>
 </metadata>
 <defs>
  <style type="text/css">*{stroke-linejoin: round; stroke-linecap: butt}</style>
 </defs>
 <g id="figure_1">
  <g id="patch_1">
   <path d="M 0 484.148 
L 989.3975 484.148 
L 989.3975 0 
L 0 0 
z
" style="fill: #ffffff"/>
  </g>
  <g id="axes_1">
   <g id="patch_2">
    <path d="M 84.585 360.429 
L 977.385 360.429 
L 977.385 27.789 
L 84.585 27.789 
z
" style="fill: #ffffff"/>
   </g>
   <g id="patch_3">
    <path d="M 125.166818 360.429 
L 129.767186 360.429 
L 129.767186 304.296441 
L 125.166818 304.296441 
z
" clip-path="url(#p03bfc8fcb2)" style="fill: #011959"/>
   </g>
   <g id="patch_4">
    <path d="M 193.515144 360.429 
L 198.115512 360.429 
L 198.115512 343.905368 
L 193.515144 343.905368 
z
" clip-path="url(#p03bfc8fcb2)" style="fill: #011959"/>
   </g>
   <g id="patch_5">
    <path d="M 261.863469 360.429 
L 266.463837 360.429 
L 266.463837 343.905368 
L 261.863469 343.905368 
z
" clip-path="url(#p03bfc8fcb2)" style="fill: #011959"/>
   </g>
   <g id="patch_6">
    <path d="M 330.211794 360.429 
L 334.812162 360.429 
L 334.812162 344.248694 
L 330.211794 344.248694 
z
" clip-path="url(#p03bfc8fcb2)" style="fill: #011959"/>
   </g>
   <g id="patch_7">
    <path d="M 398.56012 360.429 
L 403.160488 360.429 
L 403.160488 349.491981 
L 398.56012 349.491981 
z
" clip-path="url(#p03bfc8fcb2)" style="fill: #011959"/>
   </g>
   <g id="patch_8">
    <path d="M 466.908445 360.429 
L 471.508813 360.429 
L 471.508813 326.843399 
L 466.908445 326.843399 
z
" clip-path="url(#p03bfc8fcb2)" style="fill: #011959"/>
   </g>
   <g id="patch_9">
    <path d="M 535.25677 360.429 
L 539.857138 360.429 
L 539.857138 351.241575 
L 535.25677 351.241575 
z
" clip-path="url(#p03bfc8fcb2)" style="fill: #011959"/>
   </g>
   <g id="patch_10">
    <path d="M 603.605096 360.429 
L 608.205464 360.429 
L 608.205464 356.94904 
L 603.605096 356.94904 
z
" clip-path="url(#p03bfc8fcb2)" style="fill: #011959"/>
   </g>
   <g id="patch_11">
    <path d="M 671.953421 360.429 
L 676.553789 360.429 
L 676.553789 350.041304 
L 671.953421 350.041304 
z
" clip-path="url(#p03bfc8fcb2)" style="fill: #011959"/>
   </g>
   <g id="patch_12">
    <path d="M 740.301746 360.429 
L 744.902114 360.429 
L 744.902114 333.536898 
L 740.301746 333.536898 
z
" clip-path="url(#p03bfc8fcb2)" style="fill: #011959"/>
   </g>
   <g id="patch_13">
    <path d="M 808.650072 360.429 
L 813.25044 360.429 
L 813.25044 212.765516 
L 808.650072 212.765516 
z
" clip-path="url(#p03bfc8fcb2)" style="fill: #011959"/>
   </g>
   <g id="patch_14">
    <path d="M 876.998397 360.429 
L 881.598765 360.429 
L 881.598765 353.430626 
L 876.998397 353.430626 
z
" clip-path="url(#p03bfc8fcb2)" style="fill: #011959"/>
   </g>
   <g id="patch_15">
    <path d="M 129.767186 360.429 
L 134.367554 360.429 
L 134.367554 275.053237 
L 129.767186 275.053237 
z
" clip-path="url(#p03bfc8fcb2)" style="fill: #faccfa"/>
   </g>
   <g id="patch_16">
    <path d="M 198.115512 360.429 
L 202.71588 360.429 
L 202.71588 335.401849 
L 198.115512 335.401849 
z
" clip-path="url(#p03bfc8fcb2)" style="fill: #faccfa"/>
   </g>
   <g id="patch_17">
    <path d="M 266.463837 360.429 
L 271.064205 360.429 
L 271.064205 335.401849 
L 266.463837 335.401849 
z
" clip-path="url(#p03bfc8fcb2)" style="fill: #faccfa"/>
   </g>
   <g id="patch_18">
    <path d="M 334.812162 360.429 
L 339.41253 360.429 
L 339.41253 321.36665 
L 334.812162 321.36665 
z
" clip-path="url(#p03bfc8fcb2)" style="fill: #faccfa"/>
   </g>
   <g id="patch_19">
    <path d="M 403.160488 360.429 
L 407.760856 360.429 
L 407.760856 336.126956 
L 403.160488 336.126956 
z
" clip-path="url(#p03bfc8fcb2)" style="fill: #faccfa"/>
   </g>
   <g id="patch_20">
    <path d="M 471.508813 360.429 
L 476.109181 360.429 
L 476.109181 268.884342 
L 471.508813 268.884342 
z
" clip-path="url(#p03bfc8fcb2)" style="fill: #faccfa"/>
   </g>
   <g id="patch_21">
    <path d="M 539.857138 360.429 
L 544.457506 360.429 
L 544.457506 344.65794 
L 539.857138 344.65794 
z
" clip-path="url(#p03bfc8fcb2)" style="fill: #faccfa"/>
   </g>
   <g id="patch_22">
    <path d="M 608.205464 360.429 
L 612.805832 360.429 
L 612.805832 356.992985 
L 608.205464 356.992985 
z
" clip-path="url(#p03bfc8fcb2)" style="fill: #faccfa"/>
   </g>
   <g id="patch_23">
    <path d="M 676.553789 360.429 
L 681.154157 360.429 
L 681.154157 346.132872 
L 676.553789 346.132872 
z
" clip-path="url(#p03bfc8fcb2)" style="fill: #faccfa"/>
   </g>
   <g id="patch_24">
    <path d="M 744.902114 360.429 
L 749.502483 360.429 
L 749.502483 320.987617 
L 744.902114 320.987617 
z
" clip-path="url(#p03bfc8fcb2)" style="fill: #faccfa"/>
   </g>
   <g id="patch_25">
    <path d="M 813.25044 360.429 
L 817.850808 360.429 
L 817.850808 129.16132 
L 813.25044 129.16132 
z
" clip-path="url(#p03bfc8fcb2)" style="fill: #faccfa"/>
   </g>
   <g id="patch_26">
    <path d="M 881.598765 360.429 
L 886.199133 360.429 
L 886.199133 353.002155 
L 881.598765 353.002155 
z
" clip-path="url(#p03bfc8fcb2)" style="fill: #faccfa"/>
   </g>
   <g id="patch_27">
    <path d="M 134.367554 360.429 
L 138.967922 360.429 
L 138.967922 263.113705 
L 134.367554 263.113705 
z
" clip-path="url(#p03bfc8fcb2)" style="fill: #828231"/>
   </g>
   <g id="patch_28">
    <path d="M 202.71588 360.429 
L 207.316248 360.429 
L 207.316248 328.051909 
L 202.71588 328.051909 
z
" clip-path="url(#p03bfc8fcb2)" style="fill: #828231"/>
   </g>
   <g id="patch_29">
    <path d="M 271.064205 360.429 
L 275.664573 360.429 
L 275.664573 328.051909 
L 271.064205 328.051909 
z
" clip-path="url(#p03bfc8fcb2)" style="fill: #828231"/>
   </g>
   <g id="patch_30">
    <path d="M 339.41253 360.429 
L 344.012898 360.429 
L 344.012898 314.615472 
L 339.41253 314.615472 
z
" clip-path="url(#p03bfc8fcb2)" style="fill: #828231"/>
   </g>
   <g id="patch_31">
    <path d="M 407.760856 360.429 
L 412.361224 360.429 
L 412.361224 332.317401 
L 407.760856 332.317401 
z
" clip-path="url(#p03bfc8fcb2)" style="fill: #828231"/>
   </g>
   <g id="patch_32">
    <path d="M 476.109181 360.429 
L 480.709549 360.429 
L 480.709549 253.393436 
L 476.109181 253.393436 
z
" clip-path="url(#p03bfc8fcb2)" style="fill: #828231"/>
   </g>
   <g id="patch_33">
    <path d="M 544.457506 360.429 
L 549.057874 360.429 
L 549.057874 341.864633 
L 544.457506 341.864633 
z
" clip-path="url(#p03bfc8fcb2)" style="fill: #828231"/>
   </g>
   <g id="patch_34">
    <path d="M 612.805832 360.429 
L 617.4062 360.429 
L 617.4062 350.236314 
L 612.805832 350.236314 
z
" clip-path="url(#p03bfc8fcb2)" style="fill: #828231"/>
   </g>
   <g id="patch_35">
    <path d="M 681.154157 360.429 
L 685.754525 360.429 
L 685.754525 344.712872 
L 681.154157 344.712872 
z
" clip-path="url(#p03bfc8fcb2)" style="fill: #828231"/>
   </g>
   <g id="patch_36">
    <path d="M 749.502483 360.429 
L 754.102851 360.429 
L 754.102851 319.872492 
L 749.502483 319.872492 
z
" clip-path="url(#p03bfc8fcb2)" style="fill: #828231"/>
   </g>
   <g id="patch_37">
    <path d="M 817.850808 360.429 
L 822.451176 360.429 
L 822.451176 118.194088 
L 817.850808 118.194088 
z
" clip-path="url(#p03bfc8fcb2)" style="fill: #828231"/>
   </g>
   <g id="patch_38">
    <path d="M 886.199133 360.429 
L 890.799501 360.429 
L 890.799501 351.518983 
L 886.199133 351.518983 
z
" clip-path="url(#p03bfc8fcb2)" style="fill: #828231"/>
   </g>
   <g id="patch_39">
    <path d="M 138.967922 360.429 
L 143.56829 360.429 
L 143.56829 241.690112 
L 138.967922 241.690112 
z
" clip-path="url(#p03bfc8fcb2)" style="fill: #226061"/>
   </g>
   <g id="patch_40">
    <path d="M 207.316248 360.429 
L 211.916616 360.429 
L 211.916616 318.878217 
L 207.316248 318.878217 
z
" clip-path="url(#p03bfc8fcb2)" style="fill: #226061"/>
   </g>
   <g id="patch_41">
    <path d="M 275.664573 360.429 
L 280.264941 360.429 
L 280.264941 318.878217 
L 275.664573 318.878217 
z
" clip-path="url(#p03bfc8fcb2)" style="fill: #226061"/>
   </g>
   <g id="patch_42">
    <path d="M 344.012898 360.429 
L 348.613266 360.429 
L 348.613266 260.600552 
L 344.012898 260.600552 
z
" clip-path="url(#p03bfc8fcb2)" style="fill: #226061"/>
   </g>
   <g id="patch_43">
    <path d="M 412.361224 360.429 
L 416.961592 360.429 
L 416.961592 295.210641 
L 412.361224 295.210641 
z
" clip-path="url(#p03bfc8fcb2)" style="fill: #226061"/>
   </g>
   <g id="patch_44">
    <path d="M 480.709549 360.429 
L 485.309917 360.429 
L 485.309917 164.252065 
L 480.709549 164.252065 
z
" clip-path="url(#p03bfc8fcb2)" style="fill: #226061"/>
   </g>
   <g id="patch_45">
    <path d="M 549.057874 360.429 
L 553.658243 360.429 
L 553.658243 306.798607 
L 549.057874 306.798607 
z
" clip-path="url(#p03bfc8fcb2)" style="fill: #226061"/>
   </g>
   <g id="patch_46">
    <path d="M 617.4062 360.429 
L 622.006568 360.429 
L 622.006568 351.175656 
L 617.4062 351.175656 
z
" clip-path="url(#p03bfc8fcb2)" style="fill: #226061"/>
   </g>
   <g id="patch_47">
    <path d="M 685.754525 360.429 
L 690.354893 360.429 
L 690.354893 346.635502 
L 685.754525 346.635502 
z
" clip-path="url(#p03bfc8fcb2)" style="fill: #226061"/>
   </g>
   <g id="patch_48">
    <path d="M 754.102851 360.429 
L 758.703219 360.429 
L 758.703219 314.159534 
L 754.102851 314.159534 
z
" clip-path="url(#p03bfc8fcb2)" style="fill: #226061"/>
   </g>
   <g id="patch_49">
    <path d="M 822.451176 360.429 
L 827.051544 360.429 
L 827.051544 82.213439 
L 822.451176 82.213439 
z
" clip-path="url(#p03bfc8fcb2)" style="fill: #226061"/>
   </g>
   <g id="patch_50">
    <path d="M 890.799501 360.429 
L 895.399869 360.429 
L 895.399869 305.77412 
L 890.799501 305.77412 
z
" clip-path="url(#p03bfc8fcb2)" style="fill: #226061"/>
   </g>
   <g id="patch_51">
    <path d="M 143.56829 360.429 
L 148.168658 360.429 
L 148.168658 264.140938 
L 143.56829 264.140938 
z
" clip-path="url(#p03bfc8fcb2)" style="fill: #f19d6b"/>
   </g>
   <g id="patch_52">
    <path d="M 211.916616 360.429 
L 216.516984 360.429 
L 216.516984 325.19543 
L 211.916616 325.19543 
z
" clip-path="url(#p03bfc8fcb2)" style="fill: #f19d6b"/>
   </g>
   <g id="patch_53">
    <path d="M 280.264941 360.429 
L 284.865309 360.429 
L 284.865309 325.19543 
L 280.264941 325.19543 
z
" clip-path="url(#p03bfc8fcb2)" style="fill: #f19d6b"/>
   </g>
   <g id="patch_54">
    <path d="M 348.613266 360.429 
L 353.213635 360.429 
L 353.213635 297.179963 
L 348.613266 297.179963 
z
" clip-path="url(#p03bfc8fcb2)" style="fill: #f19d6b"/>
   </g>
   <g id="patch_55">
    <path d="M 416.961592 360.429 
L 421.56196 360.429 
L 421.56196 320.059261 
L 416.961592 320.059261 
z
" clip-path="url(#p03bfc8fcb2)" style="fill: #f19d6b"/>
   </g>
   <g id="patch_56">
    <path d="M 485.309917 360.429 
L 489.910285 360.429 
L 489.910285 221.178396 
L 485.309917 221.178396 
z
" clip-path="url(#p03bfc8fcb2)" style="fill: #f19d6b"/>
   </g>
   <g id="patch_57">
    <path d="M 553.658243 360.429 
L 558.258611 360.429 
L 558.258611 327.123554 
L 553.658243 327.123554 
z
" clip-path="url(#p03bfc8fcb2)" style="fill: #f19d6b"/>
   </g>
   <g id="patch_58">
    <path d="M 622.006568 360.429 
L 626.606936 360.429 
L 626.606936 359.772559 
L 622.006568 359.772559 
z
" clip-path="url(#p03bfc8fcb2)" style="fill: #f19d6b"/>
   </g>
   <g id="patch_59">
    <path d="M 690.354893 360.429 
L 694.955261 360.429 
L 694.955261 353.136739 
L 690.354893 353.136739 
z
" clip-path="url(#p03bfc8fcb2)" style="fill: #f19d6b"/>
   </g>
   <g id="patch_60">
    <path d="M 758.703219 360.429 
L 763.303587 360.429 
L 763.303587 320.556399 
L 758.703219 320.556399 
z
" clip-path="url(#p03bfc8fcb2)" style="fill: #f19d6b"/>
   </g>
   <g id="patch_61">
    <path d="M 827.051544 360.429 
L 831.651912 360.429 
L 831.651912 138.337758 
L 827.051544 138.337758 
z
" clip-path="url(#p03bfc8fcb2)" style="fill: #f19d6b"/>
   </g>
   <g id="patch_62">
    <path d="M 895.399869 360.429 
L 900.000237 360.429 
L 900.000237 330.084404 
L 895.399869 330.084404 
z
" clip-path="url(#p03bfc8fcb2)" style="fill: #f19d6b"/>
   </g>
   <g id="patch_63">
    <path d="M 148.168658 360.429 
L 152.769026 360.429 
L 152.769026 228.270154 
L 148.168658 228.270154 
z
" clip-path="url(#p03bfc8fcb2)" style="fill: #4d734d"/>
   </g>
   <g id="patch_64">
    <path d="M 216.516984 360.429 
L 221.117352 360.429 
L 221.117352 315.205994 
L 216.516984 315.205994 
z
" clip-path="url(#p03bfc8fcb2)" style="fill: #4d734d"/>
   </g>
   <g id="patch_65">
    <path d="M 284.865309 360.429 
L 289.465677 360.429 
L 289.465677 315.205994 
L 284.865309 315.205994 
z
" clip-path="url(#p03bfc8fcb2)" style="fill: #4d734d"/>
   </g>
   <g id="patch_66">
    <path d="M 353.213635 360.429 
L 357.814003 360.429 
L 357.814003 272.559312 
L 353.213635 272.559312 
z
" clip-path="url(#p03bfc8fcb2)" style="fill: #4d734d"/>
   </g>
   <g id="patch_67">
    <path d="M 421.56196 360.429 
L 426.162328 360.429 
L 426.162328 305.820812 
L 421.56196 305.820812 
z
" clip-path="url(#p03bfc8fcb2)" style="fill: #4d734d"/>
   </g>
   <g id="patch_68">
    <path d="M 489.910285 360.429 
L 494.510653 360.429 
L 494.510653 150.85408 
L 489.910285 150.85408 
z
" clip-path="url(#p03bfc8fcb2)" style="fill: #4d734d"/>
   </g>
   <g id="patch_69">
    <path d="M 558.258611 360.429 
L 562.858979 360.429 
L 562.858979 314.563286 
L 558.258611 314.563286 
z
" clip-path="url(#p03bfc8fcb2)" style="fill: #4d734d"/>
   </g>
   <g id="patch_70">
    <path d="M 626.606936 360.429 
L 631.207304 360.429 
L 631.207304 352.540723 
L 626.606936 352.540723 
z
" clip-path="url(#p03bfc8fcb2)" style="fill: #4d734d"/>
   </g>
   <g id="patch_71">
    <path d="M 694.955261 360.429 
L 699.555629 360.429 
L 699.555629 343.155542 
L 694.955261 343.155542 
z
" clip-path="url(#p03bfc8fcb2)" style="fill: #4d734d"/>
   </g>
   <g id="patch_72">
    <path d="M 763.303587 360.429 
L 767.903955 360.429 
L 767.903955 310.053345 
L 763.303587 310.053345 
z
" clip-path="url(#p03bfc8fcb2)" style="fill: #4d734d"/>
   </g>
   <g id="patch_73">
    <path d="M 831.651912 360.429 
L 836.25228 360.429 
L 836.25228 108.438114 
L 831.651912 108.438114 
z
" clip-path="url(#p03bfc8fcb2)" style="fill: #4d734d"/>
   </g>
   <g id="patch_74">
    <path d="M 900.000237 360.429 
L 904.600605 360.429 
L 904.600605 321.35841 
L 900.000237 321.35841 
z
" clip-path="url(#p03bfc8fcb2)" style="fill: #4d734d"/>
   </g>
   <g id="patch_75">
    <path d="M 152.769026 360.429 
L 157.369395 360.429 
L 157.369395 270.801478 
L 152.769026 270.801478 
z
" clip-path="url(#p03bfc8fcb2)" style="fill: #114360"/>
   </g>
   <g id="patch_76">
    <path d="M 221.117352 360.429 
L 225.71772 360.429 
L 225.71772 324.451098 
L 221.117352 324.451098 
z
" clip-path="url(#p03bfc8fcb2)" style="fill: #114360"/>
   </g>
   <g id="patch_77">
    <path d="M 289.465677 360.429 
L 294.066045 360.429 
L 294.066045 324.451098 
L 289.465677 324.451098 
z
" clip-path="url(#p03bfc8fcb2)" style="fill: #114360"/>
   </g>
   <g id="patch_78">
    <path d="M 357.814003 360.429 
L 362.414371 360.429 
L 362.414371 297.553503 
L 357.814003 297.553503 
z
" clip-path="url(#p03bfc8fcb2)" style="fill: #114360"/>
   </g>
   <g id="patch_79">
    <path d="M 426.162328 360.429 
L 430.762696 360.429 
L 430.762696 317.867463 
L 426.162328 317.867463 
z
" clip-path="url(#p03bfc8fcb2)" style="fill: #114360"/>
   </g>
   <g id="patch_80">
    <path d="M 494.510653 360.429 
L 499.111021 360.429 
L 499.111021 241.478623 
L 494.510653 241.478623 
z
" clip-path="url(#p03bfc8fcb2)" style="fill: #114360"/>
   </g>
   <g id="patch_81">
    <path d="M 562.858979 360.429 
L 567.459347 360.429 
L 567.459347 324.528003 
L 562.858979 324.528003 
z
" clip-path="url(#p03bfc8fcb2)" style="fill: #114360"/>
   </g>
   <g id="patch_82">
    <path d="M 631.207304 360.429 
L 635.807672 360.429 
L 635.807672 352.796159 
L 631.207304 352.796159 
z
" clip-path="url(#p03bfc8fcb2)" style="fill: #114360"/>
   </g>
   <g id="patch_83">
    <path d="M 699.555629 360.429 
L 704.155997 360.429 
L 704.155997 346.341615 
L 699.555629 346.341615 
z
" clip-path="url(#p03bfc8fcb2)" style="fill: #114360"/>
   </g>
   <g id="patch_84">
    <path d="M 767.903955 360.429 
L 772.504323 360.429 
L 772.504323 316.625993 
L 767.903955 316.625993 
z
" clip-path="url(#p03bfc8fcb2)" style="fill: #114360"/>
   </g>
   <g id="patch_85">
    <path d="M 836.25228 360.429 
L 840.852648 360.429 
L 840.852648 104.598347 
L 836.25228 104.598347 
z
" clip-path="url(#p03bfc8fcb2)" style="fill: #114360"/>
   </g>
   <g id="patch_86">
    <path d="M 904.600605 360.429 
L 909.200974 360.429 
L 909.200974 332.7651 
L 904.600605 332.7651 
z
" clip-path="url(#p03bfc8fcb2)" style="fill: #114360"/>
   </g>
   <g id="patch_87">
    <path d="M 157.369395 360.429 
L 161.969763 360.429 
L 161.969763 238.979204 
L 157.369395 238.979204 
z
" clip-path="url(#p03bfc8fcb2)" style="fill: #fdb4b4"/>
   </g>
   <g id="patch_88">
    <path d="M 225.71772 360.429 
L 230.318088 360.429 
L 230.318088 322.168661 
L 225.71772 322.168661 
z
" clip-path="url(#p03bfc8fcb2)" style="fill: #fdb4b4"/>
   </g>
   <g id="patch_89">
    <path d="M 294.066045 360.429 
L 298.666413 360.429 
L 298.666413 322.168661 
L 294.066045 322.168661 
z
" clip-path="url(#p03bfc8fcb2)" style="fill: #fdb4b4"/>
   </g>
   <g id="patch_90">
    <path d="M 362.414371 360.429 
L 367.014739 360.429 
L 367.014739 249.858543 
L 362.414371 249.858543 
z
" clip-path="url(#p03bfc8fcb2)" style="fill: #fdb4b4"/>
   </g>
   <g id="patch_91">
    <path d="M 430.762696 360.429 
L 435.363064 360.429 
L 435.363064 288.168321 
L 430.762696 288.168321 
z
" clip-path="url(#p03bfc8fcb2)" style="fill: #fdb4b4"/>
   </g>
   <g id="patch_92">
    <path d="M 499.111021 360.429 
L 503.711389 360.429 
L 503.711389 138.071337 
L 499.111021 138.071337 
z
" clip-path="url(#p03bfc8fcb2)" style="fill: #fdb4b4"/>
   </g>
   <g id="patch_93">
    <path d="M 567.459347 360.429 
L 572.059715 360.429 
L 572.059715 299.127313 
L 567.459347 299.127313 
z
" clip-path="url(#p03bfc8fcb2)" style="fill: #fdb4b4"/>
   </g>
   <g id="patch_94">
    <path d="M 635.807672 360.429 
L 640.40804 360.429 
L 640.40804 352.867571 
L 635.807672 352.867571 
z
" clip-path="url(#p03bfc8fcb2)" style="fill: #fdb4b4"/>
   </g>
   <g id="patch_95">
    <path d="M 704.155997 360.429 
L 708.756365 360.429 
L 708.756365 341.513067 
L 704.155997 341.513067 
z
" clip-path="url(#p03bfc8fcb2)" style="fill: #fdb4b4"/>
   </g>
   <g id="patch_96">
    <path d="M 772.504323 360.429 
L 777.104691 360.429 
L 777.104691 303.840503 
L 772.504323 303.840503 
z
" clip-path="url(#p03bfc8fcb2)" style="fill: #fdb4b4"/>
   </g>
   <g id="patch_97">
    <path d="M 840.852648 360.429 
L 845.453016 360.429 
L 845.453016 43.629 
L 840.852648 43.629 
z
" clip-path="url(#p03bfc8fcb2)" style="fill: #fdb4b4"/>
   </g>
   <g id="patch_98">
    <path d="M 909.200974 360.429 
L 913.801342 360.429 
L 913.801342 302.730871 
L 909.200974 302.730871 
z
" clip-path="url(#p03bfc8fcb2)" style="fill: #fdb4b4"/>
   </g>
   <g id="patch_99">
    <path d="M 161.969763 360.429 
L 166.570131 360.429 
L 166.570131 224.916538 
L 161.969763 224.916538 
z
" clip-path="url(#p03bfc8fcb2)" style="fill: #c09036"/>
   </g>
   <g id="patch_100">
    <path d="M 230.318088 360.429 
L 234.918456 360.429 
L 234.918456 314.563286 
L 230.318088 314.563286 
z
" clip-path="url(#p03bfc8fcb2)" style="fill: #c09036"/>
   </g>
   <g id="patch_101">
    <path d="M 298.666413 360.429 
L 303.266781 360.429 
L 303.266781 314.563286 
L 298.666413 314.563286 
z
" clip-path="url(#p03bfc8fcb2)" style="fill: #c09036"/>
   </g>
   <g id="patch_102">
    <path d="M 367.014739 360.429 
L 371.615107 360.429 
L 371.615107 291.071493 
L 367.014739 291.071493 
z
" clip-path="url(#p03bfc8fcb2)" style="fill: #c09036"/>
   </g>
   <g id="patch_103">
    <path d="M 435.363064 360.429 
L 439.963432 360.429 
L 439.963432 313.071874 
L 435.363064 313.071874 
z
" clip-path="url(#p03bfc8fcb2)" style="fill: #c09036"/>
   </g>
   <g id="patch_104">
    <path d="M 503.711389 360.429 
L 508.311757 360.429 
L 508.311757 196.854378 
L 503.711389 196.854378 
z
" clip-path="url(#p03bfc8fcb2)" style="fill: #c09036"/>
   </g>
   <g id="patch_105">
    <path d="M 572.059715 360.429 
L 576.660083 360.429 
L 576.660083 321.35017 
L 572.059715 321.35017 
z
" clip-path="url(#p03bfc8fcb2)" style="fill: #c09036"/>
   </g>
   <g id="patch_106">
    <path d="M 640.40804 360.429 
L 645.008408 360.429 
L 645.008408 351.370666 
L 640.40804 351.370666 
z
" clip-path="url(#p03bfc8fcb2)" style="fill: #c09036"/>
   </g>
   <g id="patch_107">
    <path d="M 708.756365 360.429 
L 713.356734 360.429 
L 713.356734 342.592486 
L 708.756365 342.592486 
z
" clip-path="url(#p03bfc8fcb2)" style="fill: #c09036"/>
   </g>
   <g id="patch_108">
    <path d="M 777.104691 360.429 
L 781.705059 360.429 
L 781.705059 305.719187 
L 777.104691 305.719187 
z
" clip-path="url(#p03bfc8fcb2)" style="fill: #c09036"/>
   </g>
   <g id="patch_109">
    <path d="M 845.453016 360.429 
L 850.053384 360.429 
L 850.053384 86.822258 
L 845.453016 86.822258 
z
" clip-path="url(#p03bfc8fcb2)" style="fill: #c09036"/>
   </g>
   <g id="patch_110">
    <path d="M 913.801342 360.429 
L 918.40171 360.429 
L 918.40171 338.664827 
L 913.801342 338.664827 
z
" clip-path="url(#p03bfc8fcb2)" style="fill: #c09036"/>
   </g>
   <g id="patch_111">
    <path d="M 166.570131 360.429 
L 171.170499 360.429 
L 171.170499 239.715296 
L 166.570131 239.715296 
z
" clip-path="url(#p03bfc8fcb2)" style="fill: #175262"/>
   </g>
   <g id="patch_112">
    <path d="M 234.918456 360.429 
L 239.518824 360.429 
L 239.518824 322.099996 
L 234.918456 322.099996 
z
" clip-path="url(#p03bfc8fcb2)" style="fill: #175262"/>
   </g>
   <g id="patch_113">
    <path d="M 303.266781 360.429 
L 307.867149 360.429 
L 307.867149 322.099996 
L 303.266781 322.099996 
z
" clip-path="url(#p03bfc8fcb2)" style="fill: #175262"/>
   </g>
   <g id="patch_114">
    <path d="M 371.615107 360.429 
L 376.215475 360.429 
L 376.215475 290.357373 
L 371.615107 290.357373 
z
" clip-path="url(#p03bfc8fcb2)" style="fill: #175262"/>
   </g>
   <g id="patch_115">
    <path d="M 439.963432 360.429 
L 444.5638 360.429 
L 444.5638 313.953537 
L 439.963432 313.953537 
z
" clip-path="url(#p03bfc8fcb2)" style="fill: #175262"/>
   </g>
   <g id="patch_116">
    <path d="M 508.311757 360.429 
L 512.912126 360.429 
L 512.912126 218.044509 
L 508.311757 218.044509 
z
" clip-path="url(#p03bfc8fcb2)" style="fill: #175262"/>
   </g>
   <g id="patch_117">
    <path d="M 576.660083 360.429 
L 581.260451 360.429 
L 581.260451 323.62162 
L 576.660083 323.62162 
z
" clip-path="url(#p03bfc8fcb2)" style="fill: #175262"/>
   </g>
   <g id="patch_118">
    <path d="M 645.008408 360.429 
L 649.608776 360.429 
L 649.608776 350.854302 
L 645.008408 350.854302 
z
" clip-path="url(#p03bfc8fcb2)" style="fill: #175262"/>
   </g>
   <g id="patch_119">
    <path d="M 713.356734 360.429 
L 717.957102 360.429 
L 717.957102 344.644207 
L 713.356734 344.644207 
z
" clip-path="url(#p03bfc8fcb2)" style="fill: #175262"/>
   </g>
   <g id="patch_120">
    <path d="M 781.705059 360.429 
L 786.305427 360.429 
L 786.305427 308.018104 
L 781.705059 308.018104 
z
" clip-path="url(#p03bfc8fcb2)" style="fill: #175262"/>
   </g>
   <g id="patch_121">
    <path d="M 850.053384 360.429 
L 854.653752 360.429 
L 854.653752 54.821454 
L 850.053384 54.821454 
z
" clip-path="url(#p03bfc8fcb2)" style="fill: #175262"/>
   </g>
   <g id="patch_122">
    <path d="M 918.40171 360.429 
L 923.002078 360.429 
L 923.002078 335.1986 
L 918.40171 335.1986 
z
" clip-path="url(#p03bfc8fcb2)" style="fill: #175262"/>
   </g>
   <g id="patch_123">
    <path d="M 171.170499 360.429 
L 175.770867 360.429 
L 175.770867 239.366476 
L 171.170499 239.366476 
z
" clip-path="url(#p03bfc8fcb2)" style="fill: #fcbfd6"/>
   </g>
   <g id="patch_124">
    <path d="M 239.518824 360.429 
L 244.119192 360.429 
L 244.119192 322.157675 
L 239.518824 322.157675 
z
" clip-path="url(#p03bfc8fcb2)" style="fill: #fcbfd6"/>
   </g>
   <g id="patch_125">
    <path d="M 307.867149 360.429 
L 312.467517 360.429 
L 312.467517 322.157675 
L 307.867149 322.157675 
z
" clip-path="url(#p03bfc8fcb2)" style="fill: #fcbfd6"/>
   </g>
   <g id="patch_126">
    <path d="M 376.215475 360.429 
L 380.815843 360.429 
L 380.815843 291.134665 
L 376.215475 291.134665 
z
" clip-path="url(#p03bfc8fcb2)" style="fill: #fcbfd6"/>
   </g>
   <g id="patch_127">
    <path d="M 444.5638 360.429 
L 449.164168 360.429 
L 449.164168 314.991758 
L 444.5638 314.991758 
z
" clip-path="url(#p03bfc8fcb2)" style="fill: #fcbfd6"/>
   </g>
   <g id="patch_128">
    <path d="M 512.912126 360.429 
L 517.512494 360.429 
L 517.512494 218.135147 
L 512.912126 218.135147 
z
" clip-path="url(#p03bfc8fcb2)" style="fill: #fcbfd6"/>
   </g>
   <g id="patch_129">
    <path d="M 581.260451 360.429 
L 585.860819 360.429 
L 585.860819 323.797404 
L 581.260451 323.797404 
z
" clip-path="url(#p03bfc8fcb2)" style="fill: #fcbfd6"/>
   </g>
   <g id="patch_130">
    <path d="M 649.608776 360.429 
L 654.209144 360.429 
L 654.209144 359.827491 
L 649.608776 359.827491 
z
" clip-path="url(#p03bfc8fcb2)" style="fill: #fcbfd6"/>
   </g>
   <g id="patch_131">
    <path d="M 717.957102 360.429 
L 722.55747 360.429 
L 722.55747 352.466565 
L 717.957102 352.466565 
z
" clip-path="url(#p03bfc8fcb2)" style="fill: #fcbfd6"/>
   </g>
   <g id="patch_132">
    <path d="M 786.305427 360.429 
L 790.905795 360.429 
L 790.905795 317.186303 
L 786.305427 317.186303 
z
" clip-path="url(#p03bfc8fcb2)" style="fill: #fcbfd6"/>
   </g>
   <g id="patch_133">
    <path d="M 854.653752 360.429 
L 859.25412 360.429 
L 859.25412 117.58434 
L 854.653752 117.58434 
z
" clip-path="url(#p03bfc8fcb2)" style="fill: #fcbfd6"/>
   </g>
   <g id="patch_134">
    <path d="M 923.002078 360.429 
L 927.602446 360.429 
L 927.602446 335.22332 
L 923.002078 335.22332 
z
" clip-path="url(#p03bfc8fcb2)" style="fill: #fcbfd6"/>
   </g>
   <g id="patch_135">
    <path d="M 175.770867 360.429 
L 180.371235 360.429 
L 180.371235 220.870775 
L 175.770867 220.870775 
z
" clip-path="url(#p03bfc8fcb2)" style="fill: #fca890"/>
   </g>
   <g id="patch_136">
    <path d="M 244.119192 360.429 
L 248.71956 360.429 
L 248.71956 316.219494 
L 244.119192 316.219494 
z
" clip-path="url(#p03bfc8fcb2)" style="fill: #fca890"/>
   </g>
   <g id="patch_137">
    <path d="M 312.467517 360.429 
L 317.067886 360.429 
L 317.067886 316.219494 
L 312.467517 316.219494 
z
" clip-path="url(#p03bfc8fcb2)" style="fill: #fca890"/>
   </g>
   <g id="patch_138">
    <path d="M 380.815843 360.429 
L 385.416211 360.429 
L 385.416211 233.312938 
L 380.815843 233.312938 
z
" clip-path="url(#p03bfc8fcb2)" style="fill: #fca890"/>
   </g>
   <g id="patch_139">
    <path d="M 449.164168 360.429 
L 453.764536 360.429 
L 453.764536 273.726623 
L 449.164168 273.726623 
z
" clip-path="url(#p03bfc8fcb2)" style="fill: #fca890"/>
   </g>
   <g id="patch_140">
    <path d="M 517.512494 360.429 
L 522.112862 360.429 
L 522.112862 127.480392 
L 517.512494 127.480392 
z
" clip-path="url(#p03bfc8fcb2)" style="fill: #fca890"/>
   </g>
   <g id="patch_141">
    <path d="M 585.860819 360.429 
L 590.461187 360.429 
L 590.461187 288.909907 
L 585.860819 288.909907 
z
" clip-path="url(#p03bfc8fcb2)" style="fill: #fca890"/>
   </g>
   <g id="patch_142">
    <path d="M 654.209144 360.429 
L 658.809512 360.429 
L 658.809512 352.150704 
L 654.209144 352.150704 
z
" clip-path="url(#p03bfc8fcb2)" style="fill: #fca890"/>
   </g>
   <g id="patch_143">
    <path d="M 722.55747 360.429 
L 727.157838 360.429 
L 727.157838 347.676469 
L 722.55747 347.676469 
z
" clip-path="url(#p03bfc8fcb2)" style="fill: #fca890"/>
   </g>
   <g id="patch_144">
    <path d="M 790.905795 360.429 
L 795.506163 360.429 
L 795.506163 305.41706 
L 790.905795 305.41706 
z
" clip-path="url(#p03bfc8fcb2)" style="fill: #fca890"/>
   </g>
   <g id="patch_145">
    <path d="M 859.25412 360.429 
L 863.854488 360.429 
L 863.854488 78.942222 
L 859.25412 78.942222 
z
" clip-path="url(#p03bfc8fcb2)" style="fill: #fca890"/>
   </g>
   <g id="patch_146">
    <path d="M 927.602446 360.429 
L 932.202814 360.429 
L 932.202814 300.14356 
L 927.602446 300.14356 
z
" clip-path="url(#p03bfc8fcb2)" style="fill: #fca890"/>
   </g>
   <g id="patch_147">
    <path d="M 180.371235 360.429 
L 184.971603 360.429 
L 184.971603 300.008976 
L 180.371235 300.008976 
z
" clip-path="url(#p03bfc8fcb2)" style="fill: #356a59"/>
   </g>
   <g id="patch_148">
    <path d="M 248.71956 360.429 
L 253.319928 360.429 
L 253.319928 335.819335 
L 248.71956 335.819335 
z
" clip-path="url(#p03bfc8fcb2)" style="fill: #356a59"/>
   </g>
   <g id="patch_149">
    <path d="M 317.067886 360.429 
L 321.668254 360.429 
L 321.668254 335.819335 
L 317.067886 335.819335 
z
" clip-path="url(#p03bfc8fcb2)" style="fill: #356a59"/>
   </g>
   <g id="patch_150">
    <path d="M 385.416211 360.429 
L 390.016579 360.429 
L 390.016579 320.729435 
L 385.416211 320.729435 
z
" clip-path="url(#p03bfc8fcb2)" style="fill: #356a59"/>
   </g>
   <g id="patch_151">
    <path d="M 453.764536 360.429 
L 458.364904 360.429 
L 458.364904 335.033803 
L 453.764536 335.033803 
z
" clip-path="url(#p03bfc8fcb2)" style="fill: #356a59"/>
   </g>
   <g id="patch_152">
    <path d="M 522.112862 360.429 
L 526.71323 360.429 
L 526.71323 278.362908 
L 522.112862 278.362908 
z
" clip-path="url(#p03bfc8fcb2)" style="fill: #356a59"/>
   </g>
   <g id="patch_153">
    <path d="M 590.461187 360.429 
L 595.061555 360.429 
L 595.061555 338.868077 
L 590.461187 338.868077 
z
" clip-path="url(#p03bfc8fcb2)" style="fill: #356a59"/>
   </g>
   <g id="patch_154">
    <path d="M 658.809512 360.429 
L 663.40988 360.429 
L 663.40988 359.984048 
L 658.809512 359.984048 
z
" clip-path="url(#p03bfc8fcb2)" style="fill: #356a59"/>
   </g>
   <g id="patch_155">
    <path d="M 727.157838 360.429 
L 731.758206 360.429 
L 731.758206 356.196467 
L 727.157838 356.196467 
z
" clip-path="url(#p03bfc8fcb2)" style="fill: #356a59"/>
   </g>
   <g id="patch_156">
    <path d="M 795.506163 360.429 
L 800.106531 360.429 
L 800.106531 335.756163 
L 795.506163 335.756163 
z
" clip-path="url(#p03bfc8fcb2)" style="fill: #356a59"/>
   </g>
   <g id="patch_157">
    <path d="M 863.854488 360.429 
L 868.454856 360.429 
L 868.454856 245.587558 
L 863.854488 245.587558 
z
" clip-path="url(#p03bfc8fcb2)" style="fill: #356a59"/>
   </g>
   <g id="patch_158">
    <path d="M 932.202814 360.429 
L 936.803182 360.429 
L 936.803182 338.634615 
L 932.202814 338.634615 
z
" clip-path="url(#p03bfc8fcb2)" style="fill: #356a59"/>
   </g>
   <g id="matplotlib.axis_1">
    <g id="xtick_1">
     <g id="line2d_1">
      <defs>
       <path id="m5bfed108cf" d="M 0 0 
L 0 3.5 
" style="stroke: #000000; stroke-width: 0.8"/>
      </defs>
      <g>
       <use xlink:href="#m5bfed108cf" x="155.069211" y="360.429" style="stroke: #000000; stroke-width: 0.8"/>
      </g>
     </g>
     <g id="text_1">
      <!-- DH -->
      <g transform="translate(142.892961 379.5865) scale(0.16 -0.16)">
       <defs>
        <path id="DejaVuSans-44" d="M 1259 4147 
L 1259 519 
L 2022 519 
Q 2988 519 3436 956 
Q 3884 1394 3884 2338 
Q 3884 3275 3436 3711 
Q 2988 4147 2022 4147 
L 1259 4147 
z
M 628 4666 
L 1925 4666 
Q 3281 4666 3915 4102 
Q 4550 3538 4550 2338 
Q 4550 1131 3912 565 
Q 3275 0 1925 0 
L 628 0 
L 628 4666 
z
" transform="scale(0.015625)"/>
        <path id="DejaVuSans-48" d="M 628 4666 
L 1259 4666 
L 1259 2753 
L 3553 2753 
L 3553 4666 
L 4184 4666 
L 4184 0 
L 3553 0 
L 3553 2222 
L 1259 2222 
L 1259 0 
L 628 0 
L 628 4666 
z
" transform="scale(0.015625)"/>
       </defs>
       <use xlink:href="#DejaVuSans-44"/>
       <use xlink:href="#DejaVuSans-48" x="77.001953"/>
      </g>
     </g>
    </g>
    <g id="xtick_2">
     <g id="line2d_2">
      <g>
       <use xlink:href="#m5bfed108cf" x="223.417536" y="360.429" style="stroke: #000000; stroke-width: 0.8"/>
      </g>
     </g>
     <g id="text_2">
      <!-- WH -->
      <g transform="translate(209.491286 379.5865) scale(0.16 -0.16)">
       <defs>
        <path id="DejaVuSans-57" d="M 213 4666 
L 850 4666 
L 1831 722 
L 2809 4666 
L 3519 4666 
L 4500 722 
L 5478 4666 
L 6119 4666 
L 4947 0 
L 4153 0 
L 3169 4050 
L 2175 0 
L 1381 0 
L 213 4666 
z
" transform="scale(0.015625)"/>
       </defs>
       <use xlink:href="#DejaVuSans-57"/>
       <use xlink:href="#DejaVuSans-48" x="98.876953"/>
      </g>
     </g>
    </g>
    <g id="xtick_3">
     <g id="line2d_3">
      <g>
       <use xlink:href="#m5bfed108cf" x="291.765861" y="360.429" style="stroke: #000000; stroke-width: 0.8"/>
      </g>
     </g>
     <g id="text_3">
      <!-- ET -->
      <g transform="translate(281.824611 379.5865) scale(0.16 -0.16)">
       <defs>
        <path id="DejaVuSans-45" d="M 628 4666 
L 3578 4666 
L 3578 4134 
L 1259 4134 
L 1259 2753 
L 3481 2753 
L 3481 2222 
L 1259 2222 
L 1259 531 
L 3634 531 
L 3634 0 
L 628 0 
L 628 4666 
z
" transform="scale(0.015625)"/>
        <path id="DejaVuSans-54" d="M -19 4666 
L 3928 4666 
L 3928 4134 
L 2272 4134 
L 2272 0 
L 1638 0 
L 1638 4134 
L -19 4134 
L -19 4666 
z
" transform="scale(0.015625)"/>
       </defs>
       <use xlink:href="#DejaVuSans-45"/>
       <use xlink:href="#DejaVuSans-54" x="63.183594"/>
      </g>
     </g>
    </g>
    <g id="xtick_4">
     <g id="line2d_4">
      <g>
       <use xlink:href="#m5bfed108cf" x="360.114187" y="360.429" style="stroke: #000000; stroke-width: 0.8"/>
      </g>
     </g>
     <g id="text_4">
      <!-- FC1 -->
      <g transform="translate(344.836687 379.5865) scale(0.16 -0.16)">
       <defs>
        <path id="DejaVuSans-46" d="M 628 4666 
L 3309 4666 
L 3309 4134 
L 1259 4134 
L 1259 2759 
L 3109 2759 
L 3109 2228 
L 1259 2228 
L 1259 0 
L 628 0 
L 628 4666 
z
" transform="scale(0.015625)"/>
        <path id="DejaVuSans-43" d="M 4122 4306 
L 4122 3641 
Q 3803 3938 3442 4084 
Q 3081 4231 2675 4231 
Q 1875 4231 1450 3742 
Q 1025 3253 1025 2328 
Q 1025 1406 1450 917 
Q 1875 428 2675 428 
Q 3081 428 3442 575 
Q 3803 722 4122 1019 
L 4122 359 
Q 3791 134 3420 21 
Q 3050 -91 2638 -91 
Q 1578 -91 968 557 
Q 359 1206 359 2328 
Q 359 3453 968 4101 
Q 1578 4750 2638 4750 
Q 3056 4750 3426 4639 
Q 3797 4528 4122 4306 
z
" transform="scale(0.015625)"/>
        <path id="DejaVuSans-31" d="M 794 531 
L 1825 531 
L 1825 4091 
L 703 3866 
L 703 4441 
L 1819 4666 
L 2450 4666 
L 2450 531 
L 3481 531 
L 3481 0 
L 794 0 
L 794 531 
z
" transform="scale(0.015625)"/>
       </defs>
       <use xlink:href="#DejaVuSans-46"/>
       <use xlink:href="#DejaVuSans-43" x="57.519531"/>
       <use xlink:href="#DejaVuSans-31" x="127.34375"/>
      </g>
     </g>
    </g>
    <g id="xtick_5">
     <g id="line2d_5">
      <g>
       <use xlink:href="#m5bfed108cf" x="428.462512" y="360.429" style="stroke: #000000; stroke-width: 0.8"/>
      </g>
     </g>
     <g id="text_5">
      <!-- FC2 -->
      <g transform="translate(413.185012 379.5865) scale(0.16 -0.16)">
       <defs>
        <path id="DejaVuSans-32" d="M 1228 531 
L 3431 531 
L 3431 0 
L 469 0 
L 469 531 
Q 828 903 1448 1529 
Q 2069 2156 2228 2338 
Q 2531 2678 2651 2914 
Q 2772 3150 2772 3378 
Q 2772 3750 2511 3984 
Q 2250 4219 1831 4219 
Q 1534 4219 1204 4116 
Q 875 4013 500 3803 
L 500 4441 
Q 881 4594 1212 4672 
Q 1544 4750 1819 4750 
Q 2544 4750 2975 4387 
Q 3406 4025 3406 3419 
Q 3406 3131 3298 2873 
Q 3191 2616 2906 2266 
Q 2828 2175 2409 1742 
Q 1991 1309 1228 531 
z
" transform="scale(0.015625)"/>
       </defs>
       <use xlink:href="#DejaVuSans-46"/>
       <use xlink:href="#DejaVuSans-43" x="57.519531"/>
       <use xlink:href="#DejaVuSans-32" x="127.34375"/>
      </g>
     </g>
    </g>
    <g id="xtick_6">
     <g id="line2d_6">
      <g>
       <use xlink:href="#m5bfed108cf" x="496.810837" y="360.429" style="stroke: #000000; stroke-width: 0.8"/>
      </g>
     </g>
     <g id="text_6">
      <!-- FC3 -->
      <g transform="translate(481.533337 379.5865) scale(0.16 -0.16)">
       <defs>
        <path id="DejaVuSans-33" d="M 2597 2516 
Q 3050 2419 3304 2112 
Q 3559 1806 3559 1356 
Q 3559 666 3084 287 
Q 2609 -91 1734 -91 
Q 1441 -91 1130 -33 
Q 819 25 488 141 
L 488 750 
Q 750 597 1062 519 
Q 1375 441 1716 441 
Q 2309 441 2620 675 
Q 2931 909 2931 1356 
Q 2931 1769 2642 2001 
Q 2353 2234 1838 2234 
L 1294 2234 
L 1294 2753 
L 1863 2753 
Q 2328 2753 2575 2939 
Q 2822 3125 2822 3475 
Q 2822 3834 2567 4026 
Q 2313 4219 1838 4219 
Q 1578 4219 1281 4162 
Q 984 4106 628 3988 
L 628 4550 
Q 988 4650 1302 4700 
Q 1616 4750 1894 4750 
Q 2613 4750 3031 4423 
Q 3450 4097 3450 3541 
Q 3450 3153 3228 2886 
Q 3006 2619 2597 2516 
z
" transform="scale(0.015625)"/>
       </defs>
       <use xlink:href="#DejaVuSans-46"/>
       <use xlink:href="#DejaVuSans-43" x="57.519531"/>
       <use xlink:href="#DejaVuSans-33" x="127.34375"/>
      </g>
     </g>
    </g>
    <g id="xtick_7">
     <g id="line2d_7">
      <g>
       <use xlink:href="#m5bfed108cf" x="565.159163" y="360.429" style="stroke: #000000; stroke-width: 0.8"/>
      </g>
     </g>
     <g id="text_7">
      <!-- PT -->
      <g transform="translate(555.449163 379.5865) scale(0.16 -0.16)">
       <defs>
        <path id="DejaVuSans-50" d="M 1259 4147 
L 1259 2394 
L 2053 2394 
Q 2494 2394 2734 2622 
Q 2975 2850 2975 3272 
Q 2975 3691 2734 3919 
Q 2494 4147 2053 4147 
L 1259 4147 
z
M 628 4666 
L 2053 4666 
Q 2838 4666 3239 4311 
Q 3641 3956 3641 3272 
Q 3641 2581 3239 2228 
Q 2838 1875 2053 1875 
L 1259 1875 
L 1259 0 
L 628 0 
L 628 4666 
z
" transform="scale(0.015625)"/>
       </defs>
       <use xlink:href="#DejaVuSans-50"/>
       <use xlink:href="#DejaVuSans-54" x="60.302734"/>
      </g>
     </g>
    </g>
    <g id="xtick_8">
     <g id="line2d_8">
      <g>
       <use xlink:href="#m5bfed108cf" x="633.507488" y="360.429" style="stroke: #000000; stroke-width: 0.8"/>
      </g>
     </g>
     <g id="text_8">
      <!-- CS -->
      <g transform="translate(622.842488 379.5865) scale(0.16 -0.16)">
       <defs>
        <path id="DejaVuSans-53" d="M 3425 4513 
L 3425 3897 
Q 3066 4069 2747 4153 
Q 2428 4238 2131 4238 
Q 1616 4238 1336 4038 
Q 1056 3838 1056 3469 
Q 1056 3159 1242 3001 
Q 1428 2844 1947 2747 
L 2328 2669 
Q 3034 2534 3370 2195 
Q 3706 1856 3706 1288 
Q 3706 609 3251 259 
Q 2797 -91 1919 -91 
Q 1588 -91 1214 -16 
Q 841 59 441 206 
L 441 856 
Q 825 641 1194 531 
Q 1563 422 1919 422 
Q 2459 422 2753 634 
Q 3047 847 3047 1241 
Q 3047 1584 2836 1778 
Q 2625 1972 2144 2069 
L 1759 2144 
Q 1053 2284 737 2584 
Q 422 2884 422 3419 
Q 422 4038 858 4394 
Q 1294 4750 2059 4750 
Q 2388 4750 2728 4690 
Q 3069 4631 3425 4513 
z
" transform="scale(0.015625)"/>
       </defs>
       <use xlink:href="#DejaVuSans-43"/>
       <use xlink:href="#DejaVuSans-53" x="69.824219"/>
      </g>
     </g>
    </g>
    <g id="xtick_9">
     <g id="line2d_9">
      <g>
       <use xlink:href="#m5bfed108cf" x="701.855813" y="360.429" style="stroke: #000000; stroke-width: 0.8"/>
      </g>
     </g>
     <g id="text_9">
      <!-- PC -->
      <g transform="translate(691.445813 379.5865) scale(0.16 -0.16)">
       <use xlink:href="#DejaVuSans-50"/>
       <use xlink:href="#DejaVuSans-43" x="60.302734"/>
      </g>
     </g>
    </g>
    <g id="xtick_10">
     <g id="line2d_10">
      <g>
       <use xlink:href="#m5bfed108cf" x="770.204139" y="360.429" style="stroke: #000000; stroke-width: 0.8"/>
      </g>
     </g>
     <g id="text_10">
      <!-- SS1 -->
      <g transform="translate(754.956639 379.5865) scale(0.16 -0.16)">
       <use xlink:href="#DejaVuSans-53"/>
       <use xlink:href="#DejaVuSans-53" x="63.476562"/>
       <use xlink:href="#DejaVuSans-31" x="126.953125"/>
      </g>
     </g>
    </g>
    <g id="xtick_11">
     <g id="line2d_11">
      <g>
       <use xlink:href="#m5bfed108cf" x="838.552464" y="360.429" style="stroke: #000000; stroke-width: 0.8"/>
      </g>
     </g>
     <g id="text_11">
      <!-- SS8 -->
      <g transform="translate(823.304964 379.5865) scale(0.16 -0.16)">
       <defs>
        <path id="DejaVuSans-38" d="M 2034 2216 
Q 1584 2216 1326 1975 
Q 1069 1734 1069 1313 
Q 1069 891 1326 650 
Q 1584 409 2034 409 
Q 2484 409 2743 651 
Q 3003 894 3003 1313 
Q 3003 1734 2745 1975 
Q 2488 2216 2034 2216 
z
M 1403 2484 
Q 997 2584 770 2862 
Q 544 3141 544 3541 
Q 544 4100 942 4425 
Q 1341 4750 2034 4750 
Q 2731 4750 3128 4425 
Q 3525 4100 3525 3541 
Q 3525 3141 3298 2862 
Q 3072 2584 2669 2484 
Q 3125 2378 3379 2068 
Q 3634 1759 3634 1313 
Q 3634 634 3220 271 
Q 2806 -91 2034 -91 
Q 1263 -91 848 271 
Q 434 634 434 1313 
Q 434 1759 690 2068 
Q 947 2378 1403 2484 
z
M 1172 3481 
Q 1172 3119 1398 2916 
Q 1625 2713 2034 2713 
Q 2441 2713 2670 2916 
Q 2900 3119 2900 3481 
Q 2900 3844 2670 4047 
Q 2441 4250 2034 4250 
Q 1625 4250 1398 4047 
Q 1172 3844 1172 3481 
z
" transform="scale(0.015625)"/>
       </defs>
       <use xlink:href="#DejaVuSans-53"/>
       <use xlink:href="#DejaVuSans-53" x="63.476562"/>
       <use xlink:href="#DejaVuSans-38" x="126.953125"/>
      </g>
     </g>
    </g>
    <g id="xtick_12">
     <g id="line2d_12">
      <g>
       <use xlink:href="#m5bfed108cf" x="906.900789" y="360.429" style="stroke: #000000; stroke-width: 0.8"/>
      </g>
     </g>
     <g id="text_12">
      <!-- SC -->
      <g transform="translate(896.235789 379.5865) scale(0.16 -0.16)">
       <use xlink:href="#DejaVuSans-53"/>
       <use xlink:href="#DejaVuSans-43" x="63.476562"/>
      </g>
     </g>
    </g>
   </g>
   <g id="matplotlib.axis_2">
    <g id="ytick_1">
     <g id="line2d_13">
      <defs>
       <path id="m27cf6cac7b" d="M 0 0 
L -3.5 0 
" style="stroke: #000000; stroke-width: 0.8"/>
      </defs>
      <g>
       <use xlink:href="#m27cf6cac7b" x="84.585" y="360.429" style="stroke: #000000; stroke-width: 0.8"/>
      </g>
     </g>
     <g id="text_13">
      <!-- 0 -->
      <g transform="translate(67.405 366.50775) scale(0.16 -0.16)">
       <defs>
        <path id="DejaVuSans-30" d="M 2034 4250 
Q 1547 4250 1301 3770 
Q 1056 3291 1056 2328 
Q 1056 1369 1301 889 
Q 1547 409 2034 409 
Q 2525 409 2770 889 
Q 3016 1369 3016 2328 
Q 3016 3291 2770 3770 
Q 2525 4250 2034 4250 
z
M 2034 4750 
Q 2819 4750 3233 4129 
Q 3647 3509 3647 2328 
Q 3647 1150 3233 529 
Q 2819 -91 2034 -91 
Q 1250 -91 836 529 
Q 422 1150 422 2328 
Q 422 3509 836 4129 
Q 1250 4750 2034 4750 
z
" transform="scale(0.015625)"/>
       </defs>
       <use xlink:href="#DejaVuSans-30"/>
      </g>
     </g>
    </g>
    <g id="ytick_2">
     <g id="line2d_14">
      <g>
       <use xlink:href="#m27cf6cac7b" x="84.585" y="305.496712" style="stroke: #000000; stroke-width: 0.8"/>
      </g>
     </g>
     <g id="text_14">
      <!-- 2000 -->
      <g transform="translate(36.865 311.575462) scale(0.16 -0.16)">
       <use xlink:href="#DejaVuSans-32"/>
       <use xlink:href="#DejaVuSans-30" x="63.623047"/>
       <use xlink:href="#DejaVuSans-30" x="127.246094"/>
       <use xlink:href="#DejaVuSans-30" x="190.869141"/>
      </g>
     </g>
    </g>
    <g id="ytick_3">
     <g id="line2d_15">
      <g>
       <use xlink:href="#m27cf6cac7b" x="84.585" y="250.564423" style="stroke: #000000; stroke-width: 0.8"/>
      </g>
     </g>
     <g id="text_15">
      <!-- 4000 -->
      <g transform="translate(36.865 256.643173) scale(0.16 -0.16)">
       <defs>
        <path id="DejaVuSans-34" d="M 2419 4116 
L 825 1625 
L 2419 1625 
L 2419 4116 
z
M 2253 4666 
L 3047 4666 
L 3047 1625 
L 3713 1625 
L 3713 1100 
L 3047 1100 
L 3047 0 
L 2419 0 
L 2419 1100 
L 313 1100 
L 313 1709 
L 2253 4666 
z
" transform="scale(0.015625)"/>
       </defs>
       <use xlink:href="#DejaVuSans-34"/>
       <use xlink:href="#DejaVuSans-30" x="63.623047"/>
       <use xlink:href="#DejaVuSans-30" x="127.246094"/>
       <use xlink:href="#DejaVuSans-30" x="190.869141"/>
      </g>
     </g>
    </g>
    <g id="ytick_4">
     <g id="line2d_16">
      <g>
       <use xlink:href="#m27cf6cac7b" x="84.585" y="195.632135" style="stroke: #000000; stroke-width: 0.8"/>
      </g>
     </g>
     <g id="text_16">
      <!-- 6000 -->
      <g transform="translate(36.865 201.710885) scale(0.16 -0.16)">
       <defs>
        <path id="DejaVuSans-36" d="M 2113 2584 
Q 1688 2584 1439 2293 
Q 1191 2003 1191 1497 
Q 1191 994 1439 701 
Q 1688 409 2113 409 
Q 2538 409 2786 701 
Q 3034 994 3034 1497 
Q 3034 2003 2786 2293 
Q 2538 2584 2113 2584 
z
M 3366 4563 
L 3366 3988 
Q 3128 4100 2886 4159 
Q 2644 4219 2406 4219 
Q 1781 4219 1451 3797 
Q 1122 3375 1075 2522 
Q 1259 2794 1537 2939 
Q 1816 3084 2150 3084 
Q 2853 3084 3261 2657 
Q 3669 2231 3669 1497 
Q 3669 778 3244 343 
Q 2819 -91 2113 -91 
Q 1303 -91 875 529 
Q 447 1150 447 2328 
Q 447 3434 972 4092 
Q 1497 4750 2381 4750 
Q 2619 4750 2861 4703 
Q 3103 4656 3366 4563 
z
" transform="scale(0.015625)"/>
       </defs>
       <use xlink:href="#DejaVuSans-36"/>
       <use xlink:href="#DejaVuSans-30" x="63.623047"/>
       <use xlink:href="#DejaVuSans-30" x="127.246094"/>
       <use xlink:href="#DejaVuSans-30" x="190.869141"/>
      </g>
     </g>
    </g>
    <g id="ytick_5">
     <g id="line2d_17">
      <g>
       <use xlink:href="#m27cf6cac7b" x="84.585" y="140.699847" style="stroke: #000000; stroke-width: 0.8"/>
      </g>
     </g>
     <g id="text_17">
      <!-- 8000 -->
      <g transform="translate(36.865 146.778597) scale(0.16 -0.16)">
       <use xlink:href="#DejaVuSans-38"/>
       <use xlink:href="#DejaVuSans-30" x="63.623047"/>
       <use xlink:href="#DejaVuSans-30" x="127.246094"/>
       <use xlink:href="#DejaVuSans-30" x="190.869141"/>
      </g>
     </g>
    </g>
    <g id="ytick_6">
     <g id="line2d_18">
      <g>
       <use xlink:href="#m27cf6cac7b" x="84.585" y="85.767558" style="stroke: #000000; stroke-width: 0.8"/>
      </g>
     </g>
     <g id="text_18">
      <!-- 10000 -->
      <g transform="translate(26.685 91.846308) scale(0.16 -0.16)">
       <use xlink:href="#DejaVuSans-31"/>
       <use xlink:href="#DejaVuSans-30" x="63.623047"/>
       <use xlink:href="#DejaVuSans-30" x="127.246094"/>
       <use xlink:href="#DejaVuSans-30" x="190.869141"/>
       <use xlink:href="#DejaVuSans-30" x="254.492188"/>
      </g>
     </g>
    </g>
    <g id="ytick_7">
     <g id="line2d_19">
      <g>
       <use xlink:href="#m27cf6cac7b" x="84.585" y="30.83527" style="stroke: #000000; stroke-width: 0.8"/>
      </g>
     </g>
     <g id="text_19">
      <!-- 12000 -->
      <g transform="translate(26.685 36.91402) scale(0.16 -0.16)">
       <use xlink:href="#DejaVuSans-31"/>
       <use xlink:href="#DejaVuSans-32" x="63.623047"/>
       <use xlink:href="#DejaVuSans-30" x="127.246094"/>
       <use xlink:href="#DejaVuSans-30" x="190.869141"/>
       <use xlink:href="#DejaVuSans-30" x="254.492188"/>
      </g>
     </g>
    </g>
    <g id="text_20">
     <!-- Index -->
     <g transform="translate(19.3575 216.13525) rotate(-90) scale(0.16 -0.16)">
      <defs>
       <path id="DejaVuSans-49" d="M 628 4666 
L 1259 4666 
L 1259 0 
L 628 0 
L 628 4666 
z
" transform="scale(0.015625)"/>
       <path id="DejaVuSans-6e" d="M 3513 2113 
L 3513 0 
L 2938 0 
L 2938 2094 
Q 2938 2591 2744 2837 
Q 2550 3084 2163 3084 
Q 1697 3084 1428 2787 
Q 1159 2491 1159 1978 
L 1159 0 
L 581 0 
L 581 3500 
L 1159 3500 
L 1159 2956 
Q 1366 3272 1645 3428 
Q 1925 3584 2291 3584 
Q 2894 3584 3203 3211 
Q 3513 2838 3513 2113 
z
" transform="scale(0.015625)"/>
       <path id="DejaVuSans-64" d="M 2906 2969 
L 2906 4863 
L 3481 4863 
L 3481 0 
L 2906 0 
L 2906 525 
Q 2725 213 2448 61 
Q 2172 -91 1784 -91 
Q 1150 -91 751 415 
Q 353 922 353 1747 
Q 353 2572 751 3078 
Q 1150 3584 1784 3584 
Q 2172 3584 2448 3432 
Q 2725 3281 2906 2969 
z
M 947 1747 
Q 947 1113 1208 752 
Q 1469 391 1925 391 
Q 2381 391 2643 752 
Q 2906 1113 2906 1747 
Q 2906 2381 2643 2742 
Q 2381 3103 1925 3103 
Q 1469 3103 1208 2742 
Q 947 2381 947 1747 
z
" transform="scale(0.015625)"/>
       <path id="DejaVuSans-65" d="M 3597 1894 
L 3597 1613 
L 953 1613 
Q 991 1019 1311 708 
Q 1631 397 2203 397 
Q 2534 397 2845 478 
Q 3156 559 3463 722 
L 3463 178 
Q 3153 47 2828 -22 
Q 2503 -91 2169 -91 
Q 1331 -91 842 396 
Q 353 884 353 1716 
Q 353 2575 817 3079 
Q 1281 3584 2069 3584 
Q 2775 3584 3186 3129 
Q 3597 2675 3597 1894 
z
M 3022 2063 
Q 3016 2534 2758 2815 
Q 2500 3097 2075 3097 
Q 1594 3097 1305 2825 
Q 1016 2553 972 2059 
L 3022 2063 
z
" transform="scale(0.015625)"/>
       <path id="DejaVuSans-78" d="M 3513 3500 
L 2247 1797 
L 3578 0 
L 2900 0 
L 1881 1375 
L 863 0 
L 184 0 
L 1544 1831 
L 300 3500 
L 978 3500 
L 1906 2253 
L 2834 3500 
L 3513 3500 
z
" transform="scale(0.015625)"/>
      </defs>
      <use xlink:href="#DejaVuSans-49"/>
      <use xlink:href="#DejaVuSans-6e" x="29.492188"/>
      <use xlink:href="#DejaVuSans-64" x="92.871094"/>
      <use xlink:href="#DejaVuSans-65" x="156.347656"/>
      <use xlink:href="#DejaVuSans-78" x="216.121094"/>
     </g>
    </g>
   </g>
   <g id="patch_159">
    <path d="M 84.585 360.429 
L 84.585 27.789 
" style="fill: none; stroke: #000000; stroke-width: 0.8; stroke-linejoin: miter; stroke-linecap: square"/>
   </g>
   <g id="patch_160">
    <path d="M 977.385 360.429 
L 977.385 27.789 
" style="fill: none; stroke: #000000; stroke-width: 0.8; stroke-linejoin: miter; stroke-linecap: square"/>
   </g>
   <g id="patch_161">
    <path d="M 84.585 360.429 
L 977.385 360.429 
" style="fill: none; stroke: #000000; stroke-width: 0.8; stroke-linejoin: miter; stroke-linecap: square"/>
   </g>
   <g id="patch_162">
    <path d="M 84.585 27.789 
L 977.385 27.789 
" style="fill: none; stroke: #000000; stroke-width: 0.8; stroke-linejoin: miter; stroke-linecap: square"/>
   </g>
   <g id="text_21">
    <!-- UnixBench Individual Tests Single Core -->
    <g transform="translate(344.994 21.789) scale(0.192 -0.192)">
     <defs>
      <path id="DejaVuSans-55" d="M 556 4666 
L 1191 4666 
L 1191 1831 
Q 1191 1081 1462 751 
Q 1734 422 2344 422 
Q 2950 422 3222 751 
Q 3494 1081 3494 1831 
L 3494 4666 
L 4128 4666 
L 4128 1753 
Q 4128 841 3676 375 
Q 3225 -91 2344 -91 
Q 1459 -91 1007 375 
Q 556 841 556 1753 
L 556 4666 
z
" transform="scale(0.015625)"/>
      <path id="DejaVuSans-69" d="M 603 3500 
L 1178 3500 
L 1178 0 
L 603 0 
L 603 3500 
z
M 603 4863 
L 1178 4863 
L 1178 4134 
L 603 4134 
L 603 4863 
z
" transform="scale(0.015625)"/>
      <path id="DejaVuSans-42" d="M 1259 2228 
L 1259 519 
L 2272 519 
Q 2781 519 3026 730 
Q 3272 941 3272 1375 
Q 3272 1813 3026 2020 
Q 2781 2228 2272 2228 
L 1259 2228 
z
M 1259 4147 
L 1259 2741 
L 2194 2741 
Q 2656 2741 2882 2914 
Q 3109 3088 3109 3444 
Q 3109 3797 2882 3972 
Q 2656 4147 2194 4147 
L 1259 4147 
z
M 628 4666 
L 2241 4666 
Q 2963 4666 3353 4366 
Q 3744 4066 3744 3513 
Q 3744 3084 3544 2831 
Q 3344 2578 2956 2516 
Q 3422 2416 3680 2098 
Q 3938 1781 3938 1306 
Q 3938 681 3513 340 
Q 3088 0 2303 0 
L 628 0 
L 628 4666 
z
" transform="scale(0.015625)"/>
      <path id="DejaVuSans-63" d="M 3122 3366 
L 3122 2828 
Q 2878 2963 2633 3030 
Q 2388 3097 2138 3097 
Q 1578 3097 1268 2742 
Q 959 2388 959 1747 
Q 959 1106 1268 751 
Q 1578 397 2138 397 
Q 2388 397 2633 464 
Q 2878 531 3122 666 
L 3122 134 
Q 2881 22 2623 -34 
Q 2366 -91 2075 -91 
Q 1284 -91 818 406 
Q 353 903 353 1747 
Q 353 2603 823 3093 
Q 1294 3584 2113 3584 
Q 2378 3584 2631 3529 
Q 2884 3475 3122 3366 
z
" transform="scale(0.015625)"/>
      <path id="DejaVuSans-68" d="M 3513 2113 
L 3513 0 
L 2938 0 
L 2938 2094 
Q 2938 2591 2744 2837 
Q 2550 3084 2163 3084 
Q 1697 3084 1428 2787 
Q 1159 2491 1159 1978 
L 1159 0 
L 581 0 
L 581 4863 
L 1159 4863 
L 1159 2956 
Q 1366 3272 1645 3428 
Q 1925 3584 2291 3584 
Q 2894 3584 3203 3211 
Q 3513 2838 3513 2113 
z
" transform="scale(0.015625)"/>
      <path id="DejaVuSans-20" transform="scale(0.015625)"/>
      <path id="DejaVuSans-76" d="M 191 3500 
L 800 3500 
L 1894 563 
L 2988 3500 
L 3597 3500 
L 2284 0 
L 1503 0 
L 191 3500 
z
" transform="scale(0.015625)"/>
      <path id="DejaVuSans-75" d="M 544 1381 
L 544 3500 
L 1119 3500 
L 1119 1403 
Q 1119 906 1312 657 
Q 1506 409 1894 409 
Q 2359 409 2629 706 
Q 2900 1003 2900 1516 
L 2900 3500 
L 3475 3500 
L 3475 0 
L 2900 0 
L 2900 538 
Q 2691 219 2414 64 
Q 2138 -91 1772 -91 
Q 1169 -91 856 284 
Q 544 659 544 1381 
z
M 1991 3584 
L 1991 3584 
z
" transform="scale(0.015625)"/>
      <path id="DejaVuSans-61" d="M 2194 1759 
Q 1497 1759 1228 1600 
Q 959 1441 959 1056 
Q 959 750 1161 570 
Q 1363 391 1709 391 
Q 2188 391 2477 730 
Q 2766 1069 2766 1631 
L 2766 1759 
L 2194 1759 
z
M 3341 1997 
L 3341 0 
L 2766 0 
L 2766 531 
Q 2569 213 2275 61 
Q 1981 -91 1556 -91 
Q 1019 -91 701 211 
Q 384 513 384 1019 
Q 384 1609 779 1909 
Q 1175 2209 1959 2209 
L 2766 2209 
L 2766 2266 
Q 2766 2663 2505 2880 
Q 2244 3097 1772 3097 
Q 1472 3097 1187 3025 
Q 903 2953 641 2809 
L 641 3341 
Q 956 3463 1253 3523 
Q 1550 3584 1831 3584 
Q 2591 3584 2966 3190 
Q 3341 2797 3341 1997 
z
" transform="scale(0.015625)"/>
      <path id="DejaVuSans-6c" d="M 603 4863 
L 1178 4863 
L 1178 0 
L 603 0 
L 603 4863 
z
" transform="scale(0.015625)"/>
      <path id="DejaVuSans-73" d="M 2834 3397 
L 2834 2853 
Q 2591 2978 2328 3040 
Q 2066 3103 1784 3103 
Q 1356 3103 1142 2972 
Q 928 2841 928 2578 
Q 928 2378 1081 2264 
Q 1234 2150 1697 2047 
L 1894 2003 
Q 2506 1872 2764 1633 
Q 3022 1394 3022 966 
Q 3022 478 2636 193 
Q 2250 -91 1575 -91 
Q 1294 -91 989 -36 
Q 684 19 347 128 
L 347 722 
Q 666 556 975 473 
Q 1284 391 1588 391 
Q 1994 391 2212 530 
Q 2431 669 2431 922 
Q 2431 1156 2273 1281 
Q 2116 1406 1581 1522 
L 1381 1569 
Q 847 1681 609 1914 
Q 372 2147 372 2553 
Q 372 3047 722 3315 
Q 1072 3584 1716 3584 
Q 2034 3584 2315 3537 
Q 2597 3491 2834 3397 
z
" transform="scale(0.015625)"/>
      <path id="DejaVuSans-74" d="M 1172 4494 
L 1172 3500 
L 2356 3500 
L 2356 3053 
L 1172 3053 
L 1172 1153 
Q 1172 725 1289 603 
Q 1406 481 1766 481 
L 2356 481 
L 2356 0 
L 1766 0 
Q 1100 0 847 248 
Q 594 497 594 1153 
L 594 3053 
L 172 3053 
L 172 3500 
L 594 3500 
L 594 4494 
L 1172 4494 
z
" transform="scale(0.015625)"/>
      <path id="DejaVuSans-67" d="M 2906 1791 
Q 2906 2416 2648 2759 
Q 2391 3103 1925 3103 
Q 1463 3103 1205 2759 
Q 947 2416 947 1791 
Q 947 1169 1205 825 
Q 1463 481 1925 481 
Q 2391 481 2648 825 
Q 2906 1169 2906 1791 
z
M 3481 434 
Q 3481 -459 3084 -895 
Q 2688 -1331 1869 -1331 
Q 1566 -1331 1297 -1286 
Q 1028 -1241 775 -1147 
L 775 -588 
Q 1028 -725 1275 -790 
Q 1522 -856 1778 -856 
Q 2344 -856 2625 -561 
Q 2906 -266 2906 331 
L 2906 616 
Q 2728 306 2450 153 
Q 2172 0 1784 0 
Q 1141 0 747 490 
Q 353 981 353 1791 
Q 353 2603 747 3093 
Q 1141 3584 1784 3584 
Q 2172 3584 2450 3431 
Q 2728 3278 2906 2969 
L 2906 3500 
L 3481 3500 
L 3481 434 
z
" transform="scale(0.015625)"/>
      <path id="DejaVuSans-6f" d="M 1959 3097 
Q 1497 3097 1228 2736 
Q 959 2375 959 1747 
Q 959 1119 1226 758 
Q 1494 397 1959 397 
Q 2419 397 2687 759 
Q 2956 1122 2956 1747 
Q 2956 2369 2687 2733 
Q 2419 3097 1959 3097 
z
M 1959 3584 
Q 2709 3584 3137 3096 
Q 3566 2609 3566 1747 
Q 3566 888 3137 398 
Q 2709 -91 1959 -91 
Q 1206 -91 779 398 
Q 353 888 353 1747 
Q 353 2609 779 3096 
Q 1206 3584 1959 3584 
z
" transform="scale(0.015625)"/>
      <path id="DejaVuSans-72" d="M 2631 2963 
Q 2534 3019 2420 3045 
Q 2306 3072 2169 3072 
Q 1681 3072 1420 2755 
Q 1159 2438 1159 1844 
L 1159 0 
L 581 0 
L 581 3500 
L 1159 3500 
L 1159 2956 
Q 1341 3275 1631 3429 
Q 1922 3584 2338 3584 
Q 2397 3584 2469 3576 
Q 2541 3569 2628 3553 
L 2631 2963 
z
" transform="scale(0.015625)"/>
     </defs>
     <use xlink:href="#DejaVuSans-55"/>
     <use xlink:href="#DejaVuSans-6e" x="73.193359"/>
     <use xlink:href="#DejaVuSans-69" x="136.572266"/>
     <use xlink:href="#DejaVuSans-78" x="164.355469"/>
     <use xlink:href="#DejaVuSans-42" x="223.535156"/>
     <use xlink:href="#DejaVuSans-65" x="292.138672"/>
     <use xlink:href="#DejaVuSans-6e" x="353.662109"/>
     <use xlink:href="#DejaVuSans-63" x="417.041016"/>
     <use xlink:href="#DejaVuSans-68" x="472.021484"/>
     <use xlink:href="#DejaVuSans-20" x="535.400391"/>
     <use xlink:href="#DejaVuSans-49" x="567.1875"/>
     <use xlink:href="#DejaVuSans-6e" x="596.679688"/>
     <use xlink:href="#DejaVuSans-64" x="660.058594"/>
     <use xlink:href="#DejaVuSans-69" x="723.535156"/>
     <use xlink:href="#DejaVuSans-76" x="751.318359"/>
     <use xlink:href="#DejaVuSans-69" x="810.498047"/>
     <use xlink:href="#DejaVuSans-64" x="838.28125"/>
     <use xlink:href="#DejaVuSans-75" x="901.757812"/>
     <use xlink:href="#DejaVuSans-61" x="965.136719"/>
     <use xlink:href="#DejaVuSans-6c" x="1026.416016"/>
     <use xlink:href="#DejaVuSans-20" x="1054.199219"/>
     <use xlink:href="#DejaVuSans-54" x="1085.986328"/>
     <use xlink:href="#DejaVuSans-65" x="1130.070312"/>
     <use xlink:href="#DejaVuSans-73" x="1191.59375"/>
     <use xlink:href="#DejaVuSans-74" x="1243.693359"/>
     <use xlink:href="#DejaVuSans-73" x="1282.902344"/>
     <use xlink:href="#DejaVuSans-20" x="1335.001953"/>
     <use xlink:href="#DejaVuSans-53" x="1366.789062"/>
     <use xlink:href="#DejaVuSans-69" x="1430.265625"/>
     <use xlink:href="#DejaVuSans-6e" x="1458.048828"/>
     <use xlink:href="#DejaVuSans-67" x="1521.427734"/>
     <use xlink:href="#DejaVuSans-6c" x="1584.904297"/>
     <use xlink:href="#DejaVuSans-65" x="1612.6875"/>
     <use xlink:href="#DejaVuSans-20" x="1674.210938"/>
     <use xlink:href="#DejaVuSans-43" x="1705.998047"/>
     <use xlink:href="#DejaVuSans-6f" x="1775.822266"/>
     <use xlink:href="#DejaVuSans-72" x="1837.003906"/>
     <use xlink:href="#DejaVuSans-65" x="1875.867188"/>
    </g>
   </g>
   <g id="legend_1">
    <g id="patch_163">
     <path d="M 84.9725 478.948 
L 980.9975 478.948 
Q 984.1975 478.948 984.1975 475.748 
L 984.1975 406.893 
Q 984.1975 403.693 980.9975 403.693 
L 84.9725 403.693 
Q 81.7725 403.693 81.7725 406.893 
L 81.7725 475.748 
Q 81.7725 478.948 84.9725 478.948 
z
" style="fill: #4d4d4d; opacity: 0.5; stroke: #4d4d4d; stroke-linejoin: miter"/>
    </g>
    <g id="patch_164">
     <path d="M 82.9725 476.948 
L 978.9975 476.948 
Q 982.1975 476.948 982.1975 473.748 
L 982.1975 404.893 
Q 982.1975 401.693 978.9975 401.693 
L 82.9725 401.693 
Q 79.7725 401.693 79.7725 404.893 
L 79.7725 473.748 
Q 79.7725 476.948 82.9725 476.948 
z
" style="fill: #ffffff; stroke: #cccccc; stroke-linejoin: miter"/>
    </g>
    <g id="patch_165">
     <path d="M 86.1725 420.2505 
L 118.1725 420.2505 
L 118.1725 409.0505 
L 86.1725 409.0505 
z
" style="fill: #011959"/>
    </g>
    <g id="text_22">
     <!-- a1.metal -->
     <g transform="translate(130.9725 420.2505) scale(0.16 -0.16)">
      <defs>
       <path id="DejaVuSans-2e" d="M 684 794 
L 1344 794 
L 1344 0 
L 684 0 
L 684 794 
z
" transform="scale(0.015625)"/>
       <path id="DejaVuSans-6d" d="M 3328 2828 
Q 3544 3216 3844 3400 
Q 4144 3584 4550 3584 
Q 5097 3584 5394 3201 
Q 5691 2819 5691 2113 
L 5691 0 
L 5113 0 
L 5113 2094 
Q 5113 2597 4934 2840 
Q 4756 3084 4391 3084 
Q 3944 3084 3684 2787 
Q 3425 2491 3425 1978 
L 3425 0 
L 2847 0 
L 2847 2094 
Q 2847 2600 2669 2842 
Q 2491 3084 2119 3084 
Q 1678 3084 1418 2786 
Q 1159 2488 1159 1978 
L 1159 0 
L 581 0 
L 581 3500 
L 1159 3500 
L 1159 2956 
Q 1356 3278 1631 3431 
Q 1906 3584 2284 3584 
Q 2666 3584 2933 3390 
Q 3200 3197 3328 2828 
z
" transform="scale(0.015625)"/>
      </defs>
      <use xlink:href="#DejaVuSans-61"/>
      <use xlink:href="#DejaVuSans-31" x="61.279297"/>
      <use xlink:href="#DejaVuSans-2e" x="124.902344"/>
      <use xlink:href="#DejaVuSans-6d" x="156.689453"/>
      <use xlink:href="#DejaVuSans-65" x="254.101562"/>
      <use xlink:href="#DejaVuSans-74" x="315.625"/>
      <use xlink:href="#DejaVuSans-61" x="354.833984"/>
      <use xlink:href="#DejaVuSans-6c" x="416.113281"/>
     </g>
    </g>
    <g id="patch_166">
     <path d="M 86.1725 443.7355 
L 118.1725 443.7355 
L 118.1725 432.5355 
L 86.1725 432.5355 
z
" style="fill: #faccfa"/>
    </g>
    <g id="text_23">
     <!-- c3.8xlarge -->
     <g transform="translate(130.9725 443.7355) scale(0.16 -0.16)">
      <use xlink:href="#DejaVuSans-63"/>
      <use xlink:href="#DejaVuSans-33" x="54.980469"/>
      <use xlink:href="#DejaVuSans-2e" x="118.603516"/>
      <use xlink:href="#DejaVuSans-38" x="150.390625"/>
      <use xlink:href="#DejaVuSans-78" x="214.013672"/>
      <use xlink:href="#DejaVuSans-6c" x="273.193359"/>
      <use xlink:href="#DejaVuSans-61" x="300.976562"/>
      <use xlink:href="#DejaVuSans-72" x="362.255859"/>
      <use xlink:href="#DejaVuSans-67" x="401.619141"/>
      <use xlink:href="#DejaVuSans-65" x="465.095703"/>
     </g>
    </g>
    <g id="patch_167">
     <path d="M 86.1725 467.2205 
L 118.1725 467.2205 
L 118.1725 456.0205 
L 86.1725 456.0205 
z
" style="fill: #828231"/>
    </g>
    <g id="text_24">
     <!-- c4.8xlarge -->
     <g transform="translate(130.9725 467.2205) scale(0.16 -0.16)">
      <use xlink:href="#DejaVuSans-63"/>
      <use xlink:href="#DejaVuSans-34" x="54.980469"/>
      <use xlink:href="#DejaVuSans-2e" x="118.603516"/>
      <use xlink:href="#DejaVuSans-38" x="150.390625"/>
      <use xlink:href="#DejaVuSans-78" x="214.013672"/>
      <use xlink:href="#DejaVuSans-6c" x="273.193359"/>
      <use xlink:href="#DejaVuSans-61" x="300.976562"/>
      <use xlink:href="#DejaVuSans-72" x="362.255859"/>
      <use xlink:href="#DejaVuSans-67" x="401.619141"/>
      <use xlink:href="#DejaVuSans-65" x="465.095703"/>
     </g>
    </g>
    <g id="patch_168">
     <path d="M 247.235 420.2505 
L 279.235 420.2505 
L 279.235 409.0505 
L 247.235 409.0505 
z
" style="fill: #226061"/>
    </g>
    <g id="text_25">
     <!-- c5.metal -->
     <g transform="translate(292.035 420.2505) scale(0.16 -0.16)">
      <defs>
       <path id="DejaVuSans-35" d="M 691 4666 
L 3169 4666 
L 3169 4134 
L 1269 4134 
L 1269 2991 
Q 1406 3038 1543 3061 
Q 1681 3084 1819 3084 
Q 2600 3084 3056 2656 
Q 3513 2228 3513 1497 
Q 3513 744 3044 326 
Q 2575 -91 1722 -91 
Q 1428 -91 1123 -41 
Q 819 9 494 109 
L 494 744 
Q 775 591 1075 516 
Q 1375 441 1709 441 
Q 2250 441 2565 725 
Q 2881 1009 2881 1497 
Q 2881 1984 2565 2268 
Q 2250 2553 1709 2553 
Q 1456 2553 1204 2497 
Q 953 2441 691 2322 
L 691 4666 
z
" transform="scale(0.015625)"/>
      </defs>
      <use xlink:href="#DejaVuSans-63"/>
      <use xlink:href="#DejaVuSans-35" x="54.980469"/>
      <use xlink:href="#DejaVuSans-2e" x="118.603516"/>
      <use xlink:href="#DejaVuSans-6d" x="150.390625"/>
      <use xlink:href="#DejaVuSans-65" x="247.802734"/>
      <use xlink:href="#DejaVuSans-74" x="309.326172"/>
      <use xlink:href="#DejaVuSans-61" x="348.535156"/>
      <use xlink:href="#DejaVuSans-6c" x="409.814453"/>
     </g>
    </g>
    <g id="patch_169">
     <path d="M 247.235 443.7355 
L 279.235 443.7355 
L 279.235 432.5355 
L 247.235 432.5355 
z
" style="fill: #f19d6b"/>
    </g>
    <g id="text_26">
     <!-- c5a.24xlarge -->
     <g transform="translate(292.035 443.7355) scale(0.16 -0.16)">
      <use xlink:href="#DejaVuSans-63"/>
      <use xlink:href="#DejaVuSans-35" x="54.980469"/>
      <use xlink:href="#DejaVuSans-61" x="118.603516"/>
      <use xlink:href="#DejaVuSans-2e" x="179.882812"/>
      <use xlink:href="#DejaVuSans-32" x="211.669922"/>
      <use xlink:href="#DejaVuSans-34" x="275.292969"/>
      <use xlink:href="#DejaVuSans-78" x="338.916016"/>
      <use xlink:href="#DejaVuSans-6c" x="398.095703"/>
      <use xlink:href="#DejaVuSans-61" x="425.878906"/>
      <use xlink:href="#DejaVuSans-72" x="487.158203"/>
      <use xlink:href="#DejaVuSans-67" x="526.521484"/>
      <use xlink:href="#DejaVuSans-65" x="589.998047"/>
     </g>
    </g>
    <g id="patch_170">
     <path d="M 247.235 467.2205 
L 279.235 467.2205 
L 279.235 456.0205 
L 247.235 456.0205 
z
" style="fill: #4d734d"/>
    </g>
    <g id="text_27">
     <!-- c6a.metal -->
     <g transform="translate(292.035 467.2205) scale(0.16 -0.16)">
      <use xlink:href="#DejaVuSans-63"/>
      <use xlink:href="#DejaVuSans-36" x="54.980469"/>
      <use xlink:href="#DejaVuSans-61" x="118.603516"/>
      <use xlink:href="#DejaVuSans-2e" x="179.882812"/>
      <use xlink:href="#DejaVuSans-6d" x="211.669922"/>
      <use xlink:href="#DejaVuSans-65" x="309.082031"/>
      <use xlink:href="#DejaVuSans-74" x="370.605469"/>
      <use xlink:href="#DejaVuSans-61" x="409.814453"/>
      <use xlink:href="#DejaVuSans-6c" x="471.09375"/>
     </g>
    </g>
    <g id="patch_171">
     <path d="M 428.2825 420.2505 
L 460.2825 420.2505 
L 460.2825 409.0505 
L 428.2825 409.0505 
z
" style="fill: #114360"/>
    </g>
    <g id="text_28">
     <!-- c6g.metal -->
     <g transform="translate(473.0825 420.2505) scale(0.16 -0.16)">
      <use xlink:href="#DejaVuSans-63"/>
      <use xlink:href="#DejaVuSans-36" x="54.980469"/>
      <use xlink:href="#DejaVuSans-67" x="118.603516"/>
      <use xlink:href="#DejaVuSans-2e" x="182.080078"/>
      <use xlink:href="#DejaVuSans-6d" x="213.867188"/>
      <use xlink:href="#DejaVuSans-65" x="311.279297"/>
      <use xlink:href="#DejaVuSans-74" x="372.802734"/>
      <use xlink:href="#DejaVuSans-61" x="412.011719"/>
      <use xlink:href="#DejaVuSans-6c" x="473.291016"/>
     </g>
    </g>
    <g id="patch_172">
     <path d="M 428.2825 443.7355 
L 460.2825 443.7355 
L 460.2825 432.5355 
L 428.2825 432.5355 
z
" style="fill: #fdb4b4"/>
    </g>
    <g id="text_29">
     <!-- c6i.metal -->
     <g transform="translate(473.0825 443.7355) scale(0.16 -0.16)">
      <use xlink:href="#DejaVuSans-63"/>
      <use xlink:href="#DejaVuSans-36" x="54.980469"/>
      <use xlink:href="#DejaVuSans-69" x="118.603516"/>
      <use xlink:href="#DejaVuSans-2e" x="146.386719"/>
      <use xlink:href="#DejaVuSans-6d" x="178.173828"/>
      <use xlink:href="#DejaVuSans-65" x="275.585938"/>
      <use xlink:href="#DejaVuSans-74" x="337.109375"/>
      <use xlink:href="#DejaVuSans-61" x="376.318359"/>
      <use xlink:href="#DejaVuSans-6c" x="437.597656"/>
     </g>
    </g>
    <g id="patch_173">
     <path d="M 428.2825 467.2205 
L 460.2825 467.2205 
L 460.2825 456.0205 
L 428.2825 456.0205 
z
" style="fill: #c09036"/>
    </g>
    <g id="text_30">
     <!-- c7a.metal-48xl -->
     <g transform="translate(473.0825 467.2205) scale(0.16 -0.16)">
      <defs>
       <path id="DejaVuSans-37" d="M 525 4666 
L 3525 4666 
L 3525 4397 
L 1831 0 
L 1172 0 
L 2766 4134 
L 525 4134 
L 525 4666 
z
" transform="scale(0.015625)"/>
       <path id="DejaVuSans-2d" d="M 313 2009 
L 1997 2009 
L 1997 1497 
L 313 1497 
L 313 2009 
z
" transform="scale(0.015625)"/>
      </defs>
      <use xlink:href="#DejaVuSans-63"/>
      <use xlink:href="#DejaVuSans-37" x="54.980469"/>
      <use xlink:href="#DejaVuSans-61" x="118.603516"/>
      <use xlink:href="#DejaVuSans-2e" x="179.882812"/>
      <use xlink:href="#DejaVuSans-6d" x="211.669922"/>
      <use xlink:href="#DejaVuSans-65" x="309.082031"/>
      <use xlink:href="#DejaVuSans-74" x="370.605469"/>
      <use xlink:href="#DejaVuSans-61" x="409.814453"/>
      <use xlink:href="#DejaVuSans-6c" x="471.09375"/>
      <use xlink:href="#DejaVuSans-2d" x="498.876953"/>
      <use xlink:href="#DejaVuSans-34" x="534.960938"/>
      <use xlink:href="#DejaVuSans-38" x="598.583984"/>
      <use xlink:href="#DejaVuSans-78" x="662.207031"/>
      <use xlink:href="#DejaVuSans-6c" x="721.386719"/>
     </g>
    </g>
    <g id="patch_174">
     <path d="M 624.95 420.2505 
L 656.95 420.2505 
L 656.95 409.0505 
L 624.95 409.0505 
z
" style="fill: #175262"/>
    </g>
    <g id="text_31">
     <!-- c7g.metal -->
     <g transform="translate(669.75 420.2505) scale(0.16 -0.16)">
      <use xlink:href="#DejaVuSans-63"/>
      <use xlink:href="#DejaVuSans-37" x="54.980469"/>
      <use xlink:href="#DejaVuSans-67" x="118.603516"/>
      <use xlink:href="#DejaVuSans-2e" x="182.080078"/>
      <use xlink:href="#DejaVuSans-6d" x="213.867188"/>
      <use xlink:href="#DejaVuSans-65" x="311.279297"/>
      <use xlink:href="#DejaVuSans-74" x="372.802734"/>
      <use xlink:href="#DejaVuSans-61" x="412.011719"/>
      <use xlink:href="#DejaVuSans-6c" x="473.291016"/>
     </g>
    </g>
    <g id="patch_175">
     <path d="M 624.95 443.7355 
L 656.95 443.7355 
L 656.95 432.5355 
L 624.95 432.5355 
z
" style="fill: #fcbfd6"/>
    </g>
    <g id="text_32">
     <!-- c7gn.16xlarge -->
     <g transform="translate(669.75 443.7355) scale(0.16 -0.16)">
      <use xlink:href="#DejaVuSans-63"/>
      <use xlink:href="#DejaVuSans-37" x="54.980469"/>
      <use xlink:href="#DejaVuSans-67" x="118.603516"/>
      <use xlink:href="#DejaVuSans-6e" x="182.080078"/>
      <use xlink:href="#DejaVuSans-2e" x="245.458984"/>
      <use xlink:href="#DejaVuSans-31" x="277.246094"/>
      <use xlink:href="#DejaVuSans-36" x="340.869141"/>
      <use xlink:href="#DejaVuSans-78" x="404.492188"/>
      <use xlink:href="#DejaVuSans-6c" x="463.671875"/>
      <use xlink:href="#DejaVuSans-61" x="491.455078"/>
      <use xlink:href="#DejaVuSans-72" x="552.734375"/>
      <use xlink:href="#DejaVuSans-67" x="592.097656"/>
      <use xlink:href="#DejaVuSans-65" x="655.574219"/>
     </g>
    </g>
    <g id="patch_176">
     <path d="M 816.49 420.2505 
L 848.49 420.2505 
L 848.49 409.0505 
L 816.49 409.0505 
z
" style="fill: #fca890"/>
    </g>
    <g id="text_33">
     <!-- c7i.metal-48xl -->
     <g transform="translate(861.29 420.2505) scale(0.16 -0.16)">
      <use xlink:href="#DejaVuSans-63"/>
      <use xlink:href="#DejaVuSans-37" x="54.980469"/>
      <use xlink:href="#DejaVuSans-69" x="118.603516"/>
      <use xlink:href="#DejaVuSans-2e" x="146.386719"/>
      <use xlink:href="#DejaVuSans-6d" x="178.173828"/>
      <use xlink:href="#DejaVuSans-65" x="275.585938"/>
      <use xlink:href="#DejaVuSans-74" x="337.109375"/>
      <use xlink:href="#DejaVuSans-61" x="376.318359"/>
      <use xlink:href="#DejaVuSans-6c" x="437.597656"/>
      <use xlink:href="#DejaVuSans-2d" x="465.380859"/>
      <use xlink:href="#DejaVuSans-34" x="501.464844"/>
      <use xlink:href="#DejaVuSans-38" x="565.087891"/>
      <use xlink:href="#DejaVuSans-78" x="628.710938"/>
      <use xlink:href="#DejaVuSans-6c" x="687.890625"/>
     </g>
    </g>
    <g id="patch_177">
     <path d="M 816.49 443.7355 
L 848.49 443.7355 
L 848.49 432.5355 
L 816.49 432.5355 
z
" style="fill: #356a59"/>
    </g>
    <g id="text_34">
     <!-- m5a.24xlarge -->
     <g transform="translate(861.29 443.7355) scale(0.16 -0.16)">
      <use xlink:href="#DejaVuSans-6d"/>
      <use xlink:href="#DejaVuSans-35" x="97.412109"/>
      <use xlink:href="#DejaVuSans-61" x="161.035156"/>
      <use xlink:href="#DejaVuSans-2e" x="222.314453"/>
      <use xlink:href="#DejaVuSans-32" x="254.101562"/>
      <use xlink:href="#DejaVuSans-34" x="317.724609"/>
      <use xlink:href="#DejaVuSans-78" x="381.347656"/>
      <use xlink:href="#DejaVuSans-6c" x="440.527344"/>
      <use xlink:href="#DejaVuSans-61" x="468.310547"/>
      <use xlink:href="#DejaVuSans-72" x="529.589844"/>
      <use xlink:href="#DejaVuSans-67" x="568.953125"/>
      <use xlink:href="#DejaVuSans-65" x="632.429688"/>
     </g>
    </g>
   </g>
  </g>
 </g>
 <defs>
  <clipPath id="p03bfc8fcb2">
   <rect x="84.585" y="27.789" width="892.8" height="332.64"/>
  </clipPath>
 </defs>
</svg>
