<?xml version="1.0" encoding="utf-8" standalone="no"?>
<!DOCTYPE svg PUBLIC "-//W3C//DTD SVG 1.1//EN"
  "http://www.w3.org/Graphics/SVG/1.1/DTD/svg11.dtd">
<svg xmlns:xlink="http://www.w3.org/1999/xlink" width="969.17375pt" height="531.118pt" viewBox="0 0 969.17375 531.118" xmlns="http://www.w3.org/2000/svg" version="1.1">
 <metadata>
  <rdf:RDF xmlns:dc="http://purl.org/dc/elements/1.1/" xmlns:cc="http://creativecommons.org/ns#" xmlns:rdf="http://www.w3.org/1999/02/22-rdf-syntax-ns#">
   <cc:Work>
    <dc:type rdf:resource="http://purl.org/dc/dcmitype/StillImage"/>
    <dc:date>2024-04-14T15:43:08.771347</dc:date>
    <dc:format>image/svg+xml</dc:format>
    <dc:creator>
     <cc:Agent>
      <dc:title>Matplotlib v3.8.2, https://matplotlib.org/</dc:title>
     </cc:Agent>
    </dc:creator>
   </cc:Work>
  </rdf:RDF>
 </metadata>
 <defs>
  <style type="text/css">*{stroke-linejoin: round; stroke-linecap: butt}</style>
 </defs>
 <g id="figure_1">
  <g id="patch_1">
   <path d="M 0 531.118 
L 969.17375 531.118 
L 969.17375 0 
L 0 0 
z
" style="fill: #ffffff"/>
  </g>
  <g id="axes_1">
   <g id="patch_2">
    <path d="M 64.225 360.429 
L 957.025 360.429 
L 957.025 27.789 
L 64.225 27.789 
z
" style="fill: #ffffff"/>
   </g>
   <g id="patch_3">
    <path d="M 104.806818 360.429 
L 143.456169 360.429 
L 143.456169 305.359984 
L 104.806818 305.359984 
z
" clip-path="url(#p5d2fbca0a8)" style="fill: #011959"/>
   </g>
   <g id="patch_4">
    <path d="M 143.456169 360.429 
L 182.105519 360.429 
L 182.105519 274.183706 
L 143.456169 274.183706 
z
" clip-path="url(#p5d2fbca0a8)" style="fill: #faccfa"/>
   </g>
   <g id="patch_5">
    <path d="M 182.105519 360.429 
L 220.75487 360.429 
L 220.75487 275.272833 
L 182.105519 275.272833 
z
" clip-path="url(#p5d2fbca0a8)" style="fill: #828231"/>
   </g>
   <g id="patch_6">
    <path d="M 220.75487 360.429 
L 259.404221 360.429 
L 259.404221 107.81946 
L 220.75487 107.81946 
z
" clip-path="url(#p5d2fbca0a8)" style="fill: #226061"/>
   </g>
   <g id="patch_7">
    <path d="M 259.404221 360.429 
L 298.053571 360.429 
L 298.053571 43.629 
L 259.404221 43.629 
z
" clip-path="url(#p5d2fbca0a8)" style="fill: #f19d6b"/>
   </g>
   <g id="patch_8">
    <path d="M 298.053571 360.429 
L 336.702922 360.429 
L 336.702922 131.099563 
L 298.053571 131.099563 
z
" clip-path="url(#p5d2fbca0a8)" style="fill: #4d734d"/>
   </g>
   <g id="patch_9">
    <path d="M 336.702922 360.429 
L 375.352273 360.429 
L 375.352273 344.160156 
L 336.702922 344.160156 
z
" clip-path="url(#p5d2fbca0a8)" style="fill: #114360"/>
   </g>
   <g id="patch_10">
    <path d="M 375.352273 360.429 
L 414.001623 360.429 
L 414.001623 342.458394 
L 375.352273 342.458394 
z
" clip-path="url(#p5d2fbca0a8)" style="fill: #fdb4b4"/>
   </g>
   <g id="patch_11">
    <path d="M 414.001623 360.429 
L 452.650974 360.429 
L 452.650974 164.93059 
L 414.001623 164.93059 
z
" clip-path="url(#p5d2fbca0a8)" style="fill: #c09036"/>
   </g>
   <g id="patch_12">
    <path d="M 452.650974 360.429 
L 491.300325 360.429 
L 491.300325 210.265528 
L 452.650974 210.265528 
z
" clip-path="url(#p5d2fbca0a8)" style="fill: #175262"/>
   </g>
   <g id="patch_13">
    <path d="M 491.300325 360.429 
L 529.949675 360.429 
L 529.949675 171.261144 
L 491.300325 171.261144 
z
" clip-path="url(#p5d2fbca0a8)" style="fill: #fcbfd6"/>
   </g>
   <g id="patch_14">
    <path d="M 529.949675 360.429 
L 568.599026 360.429 
L 568.599026 61.123113 
L 529.949675 61.123113 
z
" clip-path="url(#p5d2fbca0a8)" style="fill: #fca890"/>
   </g>
   <g id="patch_15">
    <path d="M 568.599026 360.429 
L 607.248377 360.429 
L 607.248377 173.030977 
L 568.599026 173.030977 
z
" clip-path="url(#p5d2fbca0a8)" style="fill: #356a59"/>
   </g>
   <g id="patch_16">
    <path d="M 607.248377 360.429 
L 645.897727 360.429 
L 645.897727 325.168493 
L 607.248377 325.168493 
z
" clip-path="url(#p5d2fbca0a8)" style="fill: #0d315d"/>
   </g>
   <g id="patch_17">
    <path d="M 645.897727 360.429 
L 684.547078 360.429 
L 684.547078 135.932567 
L 645.897727 135.932567 
z
" clip-path="url(#p5d2fbca0a8)" style="fill: #a18a2b"/>
   </g>
   <g id="patch_18">
    <path d="M 684.547078 360.429 
L 723.196429 360.429 
L 723.196429 345.181213 
L 684.547078 345.181213 
z
" clip-path="url(#p5d2fbca0a8)" style="fill: #677b3e"/>
   </g>
   <g id="patch_19">
    <path d="M 723.196429 360.429 
L 761.845779 360.429 
L 761.845779 123.135317 
L 723.196429 123.135317 
z
" clip-path="url(#p5d2fbca0a8)" style="fill: #dd954d"/>
   </g>
   <g id="patch_20">
    <path d="M 761.845779 360.429 
L 800.49513 360.429 
L 800.49513 345.521566 
L 761.845779 345.521566 
z
" clip-path="url(#p5d2fbca0a8)" style="fill: #08255b"/>
   </g>
   <g id="patch_21">
    <path d="M 800.49513 360.429 
L 839.144481 360.429 
L 839.144481 223.335059 
L 800.49513 223.335059 
z
" clip-path="url(#p5d2fbca0a8)" style="fill: #fdaea2"/>
   </g>
   <g id="patch_22">
    <path d="M 839.144481 360.429 
L 877.793831 360.429 
L 877.793831 155.264582 
L 839.144481 155.264582 
z
" clip-path="url(#p5d2fbca0a8)" style="fill: #fbc6e8"/>
   </g>
   <g id="patch_23">
    <path d="M 877.793831 360.429 
L 916.443182 360.429 
L 916.443182 349.401583 
L 877.793831 349.401583 
z
" clip-path="url(#p5d2fbca0a8)" style="fill: #b18d2f"/>
   </g>
   <g id="matplotlib.axis_1">
    <g id="xtick_1">
     <g id="line2d_1">
      <defs>
       <path id="mdb4999f85f" d="M 0 0 
L 0 3.5 
" style="stroke: #000000; stroke-width: 0.8"/>
      </defs>
      <g>
       <use xlink:href="#mdb4999f85f" x="510.625" y="360.429" style="stroke: #000000; stroke-width: 0.8"/>
      </g>
     </g>
     <g id="text_1">
      <!-- Single Core Score -->
      <g transform="translate(440.02875 379.5865) scale(0.16 -0.16)">
       <defs>
        <path id="DejaVuSans-53" d="M 3425 4513 
L 3425 3897 
Q 3066 4069 2747 4153 
Q 2428 4238 2131 4238 
Q 1616 4238 1336 4038 
Q 1056 3838 1056 3469 
Q 1056 3159 1242 3001 
Q 1428 2844 1947 2747 
L 2328 2669 
Q 3034 2534 3370 2195 
Q 3706 1856 3706 1288 
Q 3706 609 3251 259 
Q 2797 -91 1919 -91 
Q 1588 -91 1214 -16 
Q 841 59 441 206 
L 441 856 
Q 825 641 1194 531 
Q 1563 422 1919 422 
Q 2459 422 2753 634 
Q 3047 847 3047 1241 
Q 3047 1584 2836 1778 
Q 2625 1972 2144 2069 
L 1759 2144 
Q 1053 2284 737 2584 
Q 422 2884 422 3419 
Q 422 4038 858 4394 
Q 1294 4750 2059 4750 
Q 2388 4750 2728 4690 
Q 3069 4631 3425 4513 
z
" transform="scale(0.015625)"/>
        <path id="DejaVuSans-69" d="M 603 3500 
L 1178 3500 
L 1178 0 
L 603 0 
L 603 3500 
z
M 603 4863 
L 1178 4863 
L 1178 4134 
L 603 4134 
L 603 4863 
z
" transform="scale(0.015625)"/>
        <path id="DejaVuSans-6e" d="M 3513 2113 
L 3513 0 
L 2938 0 
L 2938 2094 
Q 2938 2591 2744 2837 
Q 2550 3084 2163 3084 
Q 1697 3084 1428 2787 
Q 1159 2491 1159 1978 
L 1159 0 
L 581 0 
L 581 3500 
L 1159 3500 
L 1159 2956 
Q 1366 3272 1645 3428 
Q 1925 3584 2291 3584 
Q 2894 3584 3203 3211 
Q 3513 2838 3513 2113 
z
" transform="scale(0.015625)"/>
        <path id="DejaVuSans-67" d="M 2906 1791 
Q 2906 2416 2648 2759 
Q 2391 3103 1925 3103 
Q 1463 3103 1205 2759 
Q 947 2416 947 1791 
Q 947 1169 1205 825 
Q 1463 481 1925 481 
Q 2391 481 2648 825 
Q 2906 1169 2906 1791 
z
M 3481 434 
Q 3481 -459 3084 -895 
Q 2688 -1331 1869 -1331 
Q 1566 -1331 1297 -1286 
Q 1028 -1241 775 -1147 
L 775 -588 
Q 1028 -725 1275 -790 
Q 1522 -856 1778 -856 
Q 2344 -856 2625 -561 
Q 2906 -266 2906 331 
L 2906 616 
Q 2728 306 2450 153 
Q 2172 0 1784 0 
Q 1141 0 747 490 
Q 353 981 353 1791 
Q 353 2603 747 3093 
Q 1141 3584 1784 3584 
Q 2172 3584 2450 3431 
Q 2728 3278 2906 2969 
L 2906 3500 
L 3481 3500 
L 3481 434 
z
" transform="scale(0.015625)"/>
        <path id="DejaVuSans-6c" d="M 603 4863 
L 1178 4863 
L 1178 0 
L 603 0 
L 603 4863 
z
" transform="scale(0.015625)"/>
        <path id="DejaVuSans-65" d="M 3597 1894 
L 3597 1613 
L 953 1613 
Q 991 1019 1311 708 
Q 1631 397 2203 397 
Q 2534 397 2845 478 
Q 3156 559 3463 722 
L 3463 178 
Q 3153 47 2828 -22 
Q 2503 -91 2169 -91 
Q 1331 -91 842 396 
Q 353 884 353 1716 
Q 353 2575 817 3079 
Q 1281 3584 2069 3584 
Q 2775 3584 3186 3129 
Q 3597 2675 3597 1894 
z
M 3022 2063 
Q 3016 2534 2758 2815 
Q 2500 3097 2075 3097 
Q 1594 3097 1305 2825 
Q 1016 2553 972 2059 
L 3022 2063 
z
" transform="scale(0.015625)"/>
        <path id="DejaVuSans-20" transform="scale(0.015625)"/>
        <path id="DejaVuSans-43" d="M 4122 4306 
L 4122 3641 
Q 3803 3938 3442 4084 
Q 3081 4231 2675 4231 
Q 1875 4231 1450 3742 
Q 1025 3253 1025 2328 
Q 1025 1406 1450 917 
Q 1875 428 2675 428 
Q 3081 428 3442 575 
Q 3803 722 4122 1019 
L 4122 359 
Q 3791 134 3420 21 
Q 3050 -91 2638 -91 
Q 1578 -91 968 557 
Q 359 1206 359 2328 
Q 359 3453 968 4101 
Q 1578 4750 2638 4750 
Q 3056 4750 3426 4639 
Q 3797 4528 4122 4306 
z
" transform="scale(0.015625)"/>
        <path id="DejaVuSans-6f" d="M 1959 3097 
Q 1497 3097 1228 2736 
Q 959 2375 959 1747 
Q 959 1119 1226 758 
Q 1494 397 1959 397 
Q 2419 397 2687 759 
Q 2956 1122 2956 1747 
Q 2956 2369 2687 2733 
Q 2419 3097 1959 3097 
z
M 1959 3584 
Q 2709 3584 3137 3096 
Q 3566 2609 3566 1747 
Q 3566 888 3137 398 
Q 2709 -91 1959 -91 
Q 1206 -91 779 398 
Q 353 888 353 1747 
Q 353 2609 779 3096 
Q 1206 3584 1959 3584 
z
" transform="scale(0.015625)"/>
        <path id="DejaVuSans-72" d="M 2631 2963 
Q 2534 3019 2420 3045 
Q 2306 3072 2169 3072 
Q 1681 3072 1420 2755 
Q 1159 2438 1159 1844 
L 1159 0 
L 581 0 
L 581 3500 
L 1159 3500 
L 1159 2956 
Q 1341 3275 1631 3429 
Q 1922 3584 2338 3584 
Q 2397 3584 2469 3576 
Q 2541 3569 2628 3553 
L 2631 2963 
z
" transform="scale(0.015625)"/>
        <path id="DejaVuSans-63" d="M 3122 3366 
L 3122 2828 
Q 2878 2963 2633 3030 
Q 2388 3097 2138 3097 
Q 1578 3097 1268 2742 
Q 959 2388 959 1747 
Q 959 1106 1268 751 
Q 1578 397 2138 397 
Q 2388 397 2633 464 
Q 2878 531 3122 666 
L 3122 134 
Q 2881 22 2623 -34 
Q 2366 -91 2075 -91 
Q 1284 -91 818 406 
Q 353 903 353 1747 
Q 353 2603 823 3093 
Q 1294 3584 2113 3584 
Q 2378 3584 2631 3529 
Q 2884 3475 3122 3366 
z
" transform="scale(0.015625)"/>
       </defs>
       <use xlink:href="#DejaVuSans-53"/>
       <use xlink:href="#DejaVuSans-69" x="63.476562"/>
       <use xlink:href="#DejaVuSans-6e" x="91.259766"/>
       <use xlink:href="#DejaVuSans-67" x="154.638672"/>
       <use xlink:href="#DejaVuSans-6c" x="218.115234"/>
       <use xlink:href="#DejaVuSans-65" x="245.898438"/>
       <use xlink:href="#DejaVuSans-20" x="307.421875"/>
       <use xlink:href="#DejaVuSans-43" x="339.208984"/>
       <use xlink:href="#DejaVuSans-6f" x="409.033203"/>
       <use xlink:href="#DejaVuSans-72" x="470.214844"/>
       <use xlink:href="#DejaVuSans-65" x="509.078125"/>
       <use xlink:href="#DejaVuSans-20" x="570.601562"/>
       <use xlink:href="#DejaVuSans-53" x="602.388672"/>
       <use xlink:href="#DejaVuSans-63" x="665.865234"/>
       <use xlink:href="#DejaVuSans-6f" x="720.845703"/>
       <use xlink:href="#DejaVuSans-72" x="782.027344"/>
       <use xlink:href="#DejaVuSans-65" x="820.890625"/>
      </g>
     </g>
    </g>
   </g>
   <g id="matplotlib.axis_2">
    <g id="ytick_1">
     <g id="line2d_2">
      <defs>
       <path id="m56903c4d30" d="M 0 0 
L -3.5 0 
" style="stroke: #000000; stroke-width: 0.8"/>
      </defs>
      <g>
       <use xlink:href="#m56903c4d30" x="64.225" y="360.429" style="stroke: #000000; stroke-width: 0.8"/>
      </g>
     </g>
     <g id="text_2">
      <!-- 0 -->
      <g transform="translate(47.045 366.50775) scale(0.16 -0.16)">
       <defs>
        <path id="DejaVuSans-30" d="M 2034 4250 
Q 1547 4250 1301 3770 
Q 1056 3291 1056 2328 
Q 1056 1369 1301 889 
Q 1547 409 2034 409 
Q 2525 409 2770 889 
Q 3016 1369 3016 2328 
Q 3016 3291 2770 3770 
Q 2525 4250 2034 4250 
z
M 2034 4750 
Q 2819 4750 3233 4129 
Q 3647 3509 3647 2328 
Q 3647 1150 3233 529 
Q 2819 -91 2034 -91 
Q 1250 -91 836 529 
Q 422 1150 422 2328 
Q 422 3509 836 4129 
Q 1250 4750 2034 4750 
z
" transform="scale(0.015625)"/>
       </defs>
       <use xlink:href="#DejaVuSans-30"/>
      </g>
     </g>
    </g>
    <g id="ytick_2">
     <g id="line2d_3">
      <g>
       <use xlink:href="#m56903c4d30" x="64.225" y="292.358523" style="stroke: #000000; stroke-width: 0.8"/>
      </g>
     </g>
     <g id="text_3">
      <!-- 100 -->
      <g transform="translate(26.685 298.437273) scale(0.16 -0.16)">
       <defs>
        <path id="DejaVuSans-31" d="M 794 531 
L 1825 531 
L 1825 4091 
L 703 3866 
L 703 4441 
L 1819 4666 
L 2450 4666 
L 2450 531 
L 3481 531 
L 3481 0 
L 794 0 
L 794 531 
z
" transform="scale(0.015625)"/>
       </defs>
       <use xlink:href="#DejaVuSans-31"/>
       <use xlink:href="#DejaVuSans-30" x="63.623047"/>
       <use xlink:href="#DejaVuSans-30" x="127.246094"/>
      </g>
     </g>
    </g>
    <g id="ytick_3">
     <g id="line2d_4">
      <g>
       <use xlink:href="#m56903c4d30" x="64.225" y="224.288046" style="stroke: #000000; stroke-width: 0.8"/>
      </g>
     </g>
     <g id="text_4">
      <!-- 200 -->
      <g transform="translate(26.685 230.366796) scale(0.16 -0.16)">
       <defs>
        <path id="DejaVuSans-32" d="M 1228 531 
L 3431 531 
L 3431 0 
L 469 0 
L 469 531 
Q 828 903 1448 1529 
Q 2069 2156 2228 2338 
Q 2531 2678 2651 2914 
Q 2772 3150 2772 3378 
Q 2772 3750 2511 3984 
Q 2250 4219 1831 4219 
Q 1534 4219 1204 4116 
Q 875 4013 500 3803 
L 500 4441 
Q 881 4594 1212 4672 
Q 1544 4750 1819 4750 
Q 2544 4750 2975 4387 
Q 3406 4025 3406 3419 
Q 3406 3131 3298 2873 
Q 3191 2616 2906 2266 
Q 2828 2175 2409 1742 
Q 1991 1309 1228 531 
z
" transform="scale(0.015625)"/>
       </defs>
       <use xlink:href="#DejaVuSans-32"/>
       <use xlink:href="#DejaVuSans-30" x="63.623047"/>
       <use xlink:href="#DejaVuSans-30" x="127.246094"/>
      </g>
     </g>
    </g>
    <g id="ytick_4">
     <g id="line2d_5">
      <g>
       <use xlink:href="#m56903c4d30" x="64.225" y="156.217569" style="stroke: #000000; stroke-width: 0.8"/>
      </g>
     </g>
     <g id="text_5">
      <!-- 300 -->
      <g transform="translate(26.685 162.296319) scale(0.16 -0.16)">
       <defs>
        <path id="DejaVuSans-33" d="M 2597 2516 
Q 3050 2419 3304 2112 
Q 3559 1806 3559 1356 
Q 3559 666 3084 287 
Q 2609 -91 1734 -91 
Q 1441 -91 1130 -33 
Q 819 25 488 141 
L 488 750 
Q 750 597 1062 519 
Q 1375 441 1716 441 
Q 2309 441 2620 675 
Q 2931 909 2931 1356 
Q 2931 1769 2642 2001 
Q 2353 2234 1838 2234 
L 1294 2234 
L 1294 2753 
L 1863 2753 
Q 2328 2753 2575 2939 
Q 2822 3125 2822 3475 
Q 2822 3834 2567 4026 
Q 2313 4219 1838 4219 
Q 1578 4219 1281 4162 
Q 984 4106 628 3988 
L 628 4550 
Q 988 4650 1302 4700 
Q 1616 4750 1894 4750 
Q 2613 4750 3031 4423 
Q 3450 4097 3450 3541 
Q 3450 3153 3228 2886 
Q 3006 2619 2597 2516 
z
" transform="scale(0.015625)"/>
       </defs>
       <use xlink:href="#DejaVuSans-33"/>
       <use xlink:href="#DejaVuSans-30" x="63.623047"/>
       <use xlink:href="#DejaVuSans-30" x="127.246094"/>
      </g>
     </g>
    </g>
    <g id="ytick_5">
     <g id="line2d_6">
      <g>
       <use xlink:href="#m56903c4d30" x="64.225" y="88.147092" style="stroke: #000000; stroke-width: 0.8"/>
      </g>
     </g>
     <g id="text_6">
      <!-- 400 -->
      <g transform="translate(26.685 94.225842) scale(0.16 -0.16)">
       <defs>
        <path id="DejaVuSans-34" d="M 2419 4116 
L 825 1625 
L 2419 1625 
L 2419 4116 
z
M 2253 4666 
L 3047 4666 
L 3047 1625 
L 3713 1625 
L 3713 1100 
L 3047 1100 
L 3047 0 
L 2419 0 
L 2419 1100 
L 313 1100 
L 313 1709 
L 2253 4666 
z
" transform="scale(0.015625)"/>
       </defs>
       <use xlink:href="#DejaVuSans-34"/>
       <use xlink:href="#DejaVuSans-30" x="63.623047"/>
       <use xlink:href="#DejaVuSans-30" x="127.246094"/>
      </g>
     </g>
    </g>
    <g id="text_7">
     <!-- Index -->
     <g transform="translate(19.3575 216.13525) rotate(-90) scale(0.16 -0.16)">
      <defs>
       <path id="DejaVuSans-49" d="M 628 4666 
L 1259 4666 
L 1259 0 
L 628 0 
L 628 4666 
z
" transform="scale(0.015625)"/>
       <path id="DejaVuSans-64" d="M 2906 2969 
L 2906 4863 
L 3481 4863 
L 3481 0 
L 2906 0 
L 2906 525 
Q 2725 213 2448 61 
Q 2172 -91 1784 -91 
Q 1150 -91 751 415 
Q 353 922 353 1747 
Q 353 2572 751 3078 
Q 1150 3584 1784 3584 
Q 2172 3584 2448 3432 
Q 2725 3281 2906 2969 
z
M 947 1747 
Q 947 1113 1208 752 
Q 1469 391 1925 391 
Q 2381 391 2643 752 
Q 2906 1113 2906 1747 
Q 2906 2381 2643 2742 
Q 2381 3103 1925 3103 
Q 1469 3103 1208 2742 
Q 947 2381 947 1747 
z
" transform="scale(0.015625)"/>
       <path id="DejaVuSans-78" d="M 3513 3500 
L 2247 1797 
L 3578 0 
L 2900 0 
L 1881 1375 
L 863 0 
L 184 0 
L 1544 1831 
L 300 3500 
L 978 3500 
L 1906 2253 
L 2834 3500 
L 3513 3500 
z
" transform="scale(0.015625)"/>
      </defs>
      <use xlink:href="#DejaVuSans-49"/>
      <use xlink:href="#DejaVuSans-6e" x="29.492188"/>
      <use xlink:href="#DejaVuSans-64" x="92.871094"/>
      <use xlink:href="#DejaVuSans-65" x="156.347656"/>
      <use xlink:href="#DejaVuSans-78" x="216.121094"/>
     </g>
    </g>
   </g>
   <g id="patch_24">
    <path d="M 64.225 360.429 
L 64.225 27.789 
" style="fill: none; stroke: #000000; stroke-width: 0.8; stroke-linejoin: miter; stroke-linecap: square"/>
   </g>
   <g id="patch_25">
    <path d="M 957.025 360.429 
L 957.025 27.789 
" style="fill: none; stroke: #000000; stroke-width: 0.8; stroke-linejoin: miter; stroke-linecap: square"/>
   </g>
   <g id="patch_26">
    <path d="M 64.225 360.429 
L 957.025 360.429 
" style="fill: none; stroke: #000000; stroke-width: 0.8; stroke-linejoin: miter; stroke-linecap: square"/>
   </g>
   <g id="patch_27">
    <path d="M 64.225 27.789 
L 957.025 27.789 
" style="fill: none; stroke: #000000; stroke-width: 0.8; stroke-linejoin: miter; stroke-linecap: square"/>
   </g>
   <g id="text_8">
    <!-- UnixBench Context Switching Performance -->
    <g transform="translate(305.05 21.789) scale(0.192 -0.192)">
     <defs>
      <path id="DejaVuSans-55" d="M 556 4666 
L 1191 4666 
L 1191 1831 
Q 1191 1081 1462 751 
Q 1734 422 2344 422 
Q 2950 422 3222 751 
Q 3494 1081 3494 1831 
L 3494 4666 
L 4128 4666 
L 4128 1753 
Q 4128 841 3676 375 
Q 3225 -91 2344 -91 
Q 1459 -91 1007 375 
Q 556 841 556 1753 
L 556 4666 
z
" transform="scale(0.015625)"/>
      <path id="DejaVuSans-42" d="M 1259 2228 
L 1259 519 
L 2272 519 
Q 2781 519 3026 730 
Q 3272 941 3272 1375 
Q 3272 1813 3026 2020 
Q 2781 2228 2272 2228 
L 1259 2228 
z
M 1259 4147 
L 1259 2741 
L 2194 2741 
Q 2656 2741 2882 2914 
Q 3109 3088 3109 3444 
Q 3109 3797 2882 3972 
Q 2656 4147 2194 4147 
L 1259 4147 
z
M 628 4666 
L 2241 4666 
Q 2963 4666 3353 4366 
Q 3744 4066 3744 3513 
Q 3744 3084 3544 2831 
Q 3344 2578 2956 2516 
Q 3422 2416 3680 2098 
Q 3938 1781 3938 1306 
Q 3938 681 3513 340 
Q 3088 0 2303 0 
L 628 0 
L 628 4666 
z
" transform="scale(0.015625)"/>
      <path id="DejaVuSans-68" d="M 3513 2113 
L 3513 0 
L 2938 0 
L 2938 2094 
Q 2938 2591 2744 2837 
Q 2550 3084 2163 3084 
Q 1697 3084 1428 2787 
Q 1159 2491 1159 1978 
L 1159 0 
L 581 0 
L 581 4863 
L 1159 4863 
L 1159 2956 
Q 1366 3272 1645 3428 
Q 1925 3584 2291 3584 
Q 2894 3584 3203 3211 
Q 3513 2838 3513 2113 
z
" transform="scale(0.015625)"/>
      <path id="DejaVuSans-74" d="M 1172 4494 
L 1172 3500 
L 2356 3500 
L 2356 3053 
L 1172 3053 
L 1172 1153 
Q 1172 725 1289 603 
Q 1406 481 1766 481 
L 2356 481 
L 2356 0 
L 1766 0 
Q 1100 0 847 248 
Q 594 497 594 1153 
L 594 3053 
L 172 3053 
L 172 3500 
L 594 3500 
L 594 4494 
L 1172 4494 
z
" transform="scale(0.015625)"/>
      <path id="DejaVuSans-77" d="M 269 3500 
L 844 3500 
L 1563 769 
L 2278 3500 
L 2956 3500 
L 3675 769 
L 4391 3500 
L 4966 3500 
L 4050 0 
L 3372 0 
L 2619 2869 
L 1863 0 
L 1184 0 
L 269 3500 
z
" transform="scale(0.015625)"/>
      <path id="DejaVuSans-50" d="M 1259 4147 
L 1259 2394 
L 2053 2394 
Q 2494 2394 2734 2622 
Q 2975 2850 2975 3272 
Q 2975 3691 2734 3919 
Q 2494 4147 2053 4147 
L 1259 4147 
z
M 628 4666 
L 2053 4666 
Q 2838 4666 3239 4311 
Q 3641 3956 3641 3272 
Q 3641 2581 3239 2228 
Q 2838 1875 2053 1875 
L 1259 1875 
L 1259 0 
L 628 0 
L 628 4666 
z
" transform="scale(0.015625)"/>
      <path id="DejaVuSans-66" d="M 2375 4863 
L 2375 4384 
L 1825 4384 
Q 1516 4384 1395 4259 
Q 1275 4134 1275 3809 
L 1275 3500 
L 2222 3500 
L 2222 3053 
L 1275 3053 
L 1275 0 
L 697 0 
L 697 3053 
L 147 3053 
L 147 3500 
L 697 3500 
L 697 3744 
Q 697 4328 969 4595 
Q 1241 4863 1831 4863 
L 2375 4863 
z
" transform="scale(0.015625)"/>
      <path id="DejaVuSans-6d" d="M 3328 2828 
Q 3544 3216 3844 3400 
Q 4144 3584 4550 3584 
Q 5097 3584 5394 3201 
Q 5691 2819 5691 2113 
L 5691 0 
L 5113 0 
L 5113 2094 
Q 5113 2597 4934 2840 
Q 4756 3084 4391 3084 
Q 3944 3084 3684 2787 
Q 3425 2491 3425 1978 
L 3425 0 
L 2847 0 
L 2847 2094 
Q 2847 2600 2669 2842 
Q 2491 3084 2119 3084 
Q 1678 3084 1418 2786 
Q 1159 2488 1159 1978 
L 1159 0 
L 581 0 
L 581 3500 
L 1159 3500 
L 1159 2956 
Q 1356 3278 1631 3431 
Q 1906 3584 2284 3584 
Q 2666 3584 2933 3390 
Q 3200 3197 3328 2828 
z
" transform="scale(0.015625)"/>
      <path id="DejaVuSans-61" d="M 2194 1759 
Q 1497 1759 1228 1600 
Q 959 1441 959 1056 
Q 959 750 1161 570 
Q 1363 391 1709 391 
Q 2188 391 2477 730 
Q 2766 1069 2766 1631 
L 2766 1759 
L 2194 1759 
z
M 3341 1997 
L 3341 0 
L 2766 0 
L 2766 531 
Q 2569 213 2275 61 
Q 1981 -91 1556 -91 
Q 1019 -91 701 211 
Q 384 513 384 1019 
Q 384 1609 779 1909 
Q 1175 2209 1959 2209 
L 2766 2209 
L 2766 2266 
Q 2766 2663 2505 2880 
Q 2244 3097 1772 3097 
Q 1472 3097 1187 3025 
Q 903 2953 641 2809 
L 641 3341 
Q 956 3463 1253 3523 
Q 1550 3584 1831 3584 
Q 2591 3584 2966 3190 
Q 3341 2797 3341 1997 
z
" transform="scale(0.015625)"/>
     </defs>
     <use xlink:href="#DejaVuSans-55"/>
     <use xlink:href="#DejaVuSans-6e" x="73.193359"/>
     <use xlink:href="#DejaVuSans-69" x="136.572266"/>
     <use xlink:href="#DejaVuSans-78" x="164.355469"/>
     <use xlink:href="#DejaVuSans-42" x="223.535156"/>
     <use xlink:href="#DejaVuSans-65" x="292.138672"/>
     <use xlink:href="#DejaVuSans-6e" x="353.662109"/>
     <use xlink:href="#DejaVuSans-63" x="417.041016"/>
     <use xlink:href="#DejaVuSans-68" x="472.021484"/>
     <use xlink:href="#DejaVuSans-20" x="535.400391"/>
     <use xlink:href="#DejaVuSans-43" x="567.1875"/>
     <use xlink:href="#DejaVuSans-6f" x="637.011719"/>
     <use xlink:href="#DejaVuSans-6e" x="698.193359"/>
     <use xlink:href="#DejaVuSans-74" x="761.572266"/>
     <use xlink:href="#DejaVuSans-65" x="800.78125"/>
     <use xlink:href="#DejaVuSans-78" x="860.554688"/>
     <use xlink:href="#DejaVuSans-74" x="919.734375"/>
     <use xlink:href="#DejaVuSans-20" x="958.943359"/>
     <use xlink:href="#DejaVuSans-53" x="990.730469"/>
     <use xlink:href="#DejaVuSans-77" x="1054.207031"/>
     <use xlink:href="#DejaVuSans-69" x="1135.994141"/>
     <use xlink:href="#DejaVuSans-74" x="1163.777344"/>
     <use xlink:href="#DejaVuSans-63" x="1202.986328"/>
     <use xlink:href="#DejaVuSans-68" x="1257.966797"/>
     <use xlink:href="#DejaVuSans-69" x="1321.345703"/>
     <use xlink:href="#DejaVuSans-6e" x="1349.128906"/>
     <use xlink:href="#DejaVuSans-67" x="1412.507812"/>
     <use xlink:href="#DejaVuSans-20" x="1475.984375"/>
     <use xlink:href="#DejaVuSans-50" x="1507.771484"/>
     <use xlink:href="#DejaVuSans-65" x="1564.449219"/>
     <use xlink:href="#DejaVuSans-72" x="1625.972656"/>
     <use xlink:href="#DejaVuSans-66" x="1667.085938"/>
     <use xlink:href="#DejaVuSans-6f" x="1702.291016"/>
     <use xlink:href="#DejaVuSans-72" x="1763.472656"/>
     <use xlink:href="#DejaVuSans-6d" x="1802.835938"/>
     <use xlink:href="#DejaVuSans-61" x="1900.248047"/>
     <use xlink:href="#DejaVuSans-6e" x="1961.527344"/>
     <use xlink:href="#DejaVuSans-63" x="2024.90625"/>
     <use xlink:href="#DejaVuSans-65" x="2079.886719"/>
    </g>
   </g>
   <g id="legend_1">
    <g id="patch_28">
     <path d="M 64.47625 525.918 
L 960.77375 525.918 
Q 963.97375 525.918 963.97375 522.718 
L 963.97375 406.893 
Q 963.97375 403.693 960.77375 403.693 
L 64.47625 403.693 
Q 61.27625 403.693 61.27625 406.893 
L 61.27625 522.718 
Q 61.27625 525.918 64.47625 525.918 
z
" style="fill: #4d4d4d; opacity: 0.5; stroke: #4d4d4d; stroke-linejoin: miter"/>
    </g>
    <g id="patch_29">
     <path d="M 62.47625 523.918 
L 958.77375 523.918 
Q 961.97375 523.918 961.97375 520.718 
L 961.97375 404.893 
Q 961.97375 401.693 958.77375 401.693 
L 62.47625 401.693 
Q 59.27625 401.693 59.27625 404.893 
L 59.27625 520.718 
Q 59.27625 523.918 62.47625 523.918 
z
" style="fill: #ffffff; stroke: #cccccc; stroke-linejoin: miter"/>
    </g>
    <g id="patch_30">
     <path d="M 65.67625 420.2505 
L 97.67625 420.2505 
L 97.67625 409.0505 
L 65.67625 409.0505 
z
" style="fill: #011959"/>
    </g>
    <g id="text_9">
     <!-- a1.4xlarge -->
     <g transform="translate(110.47625 420.2505) scale(0.16 -0.16)">
      <defs>
       <path id="DejaVuSans-2e" d="M 684 794 
L 1344 794 
L 1344 0 
L 684 0 
L 684 794 
z
" transform="scale(0.015625)"/>
      </defs>
      <use xlink:href="#DejaVuSans-61"/>
      <use xlink:href="#DejaVuSans-31" x="61.279297"/>
      <use xlink:href="#DejaVuSans-2e" x="124.902344"/>
      <use xlink:href="#DejaVuSans-34" x="156.689453"/>
      <use xlink:href="#DejaVuSans-78" x="220.3125"/>
      <use xlink:href="#DejaVuSans-6c" x="279.492188"/>
      <use xlink:href="#DejaVuSans-61" x="307.275391"/>
      <use xlink:href="#DejaVuSans-72" x="368.554688"/>
      <use xlink:href="#DejaVuSans-67" x="407.917969"/>
      <use xlink:href="#DejaVuSans-65" x="471.394531"/>
     </g>
    </g>
    <g id="patch_31">
     <path d="M 65.67625 443.7355 
L 97.67625 443.7355 
L 97.67625 432.5355 
L 65.67625 432.5355 
z
" style="fill: #faccfa"/>
    </g>
    <g id="text_10">
     <!-- a1.metal -->
     <g transform="translate(110.47625 443.7355) scale(0.16 -0.16)">
      <use xlink:href="#DejaVuSans-61"/>
      <use xlink:href="#DejaVuSans-31" x="61.279297"/>
      <use xlink:href="#DejaVuSans-2e" x="124.902344"/>
      <use xlink:href="#DejaVuSans-6d" x="156.689453"/>
      <use xlink:href="#DejaVuSans-65" x="254.101562"/>
      <use xlink:href="#DejaVuSans-74" x="315.625"/>
      <use xlink:href="#DejaVuSans-61" x="354.833984"/>
      <use xlink:href="#DejaVuSans-6c" x="416.113281"/>
     </g>
    </g>
    <g id="patch_32">
     <path d="M 65.67625 467.2205 
L 97.67625 467.2205 
L 97.67625 456.0205 
L 65.67625 456.0205 
z
" style="fill: #828231"/>
    </g>
    <g id="text_11">
     <!-- c3.8xlarge -->
     <g transform="translate(110.47625 467.2205) scale(0.16 -0.16)">
      <defs>
       <path id="DejaVuSans-38" d="M 2034 2216 
Q 1584 2216 1326 1975 
Q 1069 1734 1069 1313 
Q 1069 891 1326 650 
Q 1584 409 2034 409 
Q 2484 409 2743 651 
Q 3003 894 3003 1313 
Q 3003 1734 2745 1975 
Q 2488 2216 2034 2216 
z
M 1403 2484 
Q 997 2584 770 2862 
Q 544 3141 544 3541 
Q 544 4100 942 4425 
Q 1341 4750 2034 4750 
Q 2731 4750 3128 4425 
Q 3525 4100 3525 3541 
Q 3525 3141 3298 2862 
Q 3072 2584 2669 2484 
Q 3125 2378 3379 2068 
Q 3634 1759 3634 1313 
Q 3634 634 3220 271 
Q 2806 -91 2034 -91 
Q 1263 -91 848 271 
Q 434 634 434 1313 
Q 434 1759 690 2068 
Q 947 2378 1403 2484 
z
M 1172 3481 
Q 1172 3119 1398 2916 
Q 1625 2713 2034 2713 
Q 2441 2713 2670 2916 
Q 2900 3119 2900 3481 
Q 2900 3844 2670 4047 
Q 2441 4250 2034 4250 
Q 1625 4250 1398 4047 
Q 1172 3844 1172 3481 
z
" transform="scale(0.015625)"/>
      </defs>
      <use xlink:href="#DejaVuSans-63"/>
      <use xlink:href="#DejaVuSans-33" x="54.980469"/>
      <use xlink:href="#DejaVuSans-2e" x="118.603516"/>
      <use xlink:href="#DejaVuSans-38" x="150.390625"/>
      <use xlink:href="#DejaVuSans-78" x="214.013672"/>
      <use xlink:href="#DejaVuSans-6c" x="273.193359"/>
      <use xlink:href="#DejaVuSans-61" x="300.976562"/>
      <use xlink:href="#DejaVuSans-72" x="362.255859"/>
      <use xlink:href="#DejaVuSans-67" x="401.619141"/>
      <use xlink:href="#DejaVuSans-65" x="465.095703"/>
     </g>
    </g>
    <g id="patch_33">
     <path d="M 65.67625 490.7055 
L 97.67625 490.7055 
L 97.67625 479.5055 
L 65.67625 479.5055 
z
" style="fill: #226061"/>
    </g>
    <g id="text_12">
     <!-- c4.8xlarge -->
     <g transform="translate(110.47625 490.7055) scale(0.16 -0.16)">
      <use xlink:href="#DejaVuSans-63"/>
      <use xlink:href="#DejaVuSans-34" x="54.980469"/>
      <use xlink:href="#DejaVuSans-2e" x="118.603516"/>
      <use xlink:href="#DejaVuSans-38" x="150.390625"/>
      <use xlink:href="#DejaVuSans-78" x="214.013672"/>
      <use xlink:href="#DejaVuSans-6c" x="273.193359"/>
      <use xlink:href="#DejaVuSans-61" x="300.976562"/>
      <use xlink:href="#DejaVuSans-72" x="362.255859"/>
      <use xlink:href="#DejaVuSans-67" x="401.619141"/>
      <use xlink:href="#DejaVuSans-65" x="465.095703"/>
     </g>
    </g>
    <g id="patch_34">
     <path d="M 65.67625 514.1905 
L 97.67625 514.1905 
L 97.67625 502.9905 
L 65.67625 502.9905 
z
" style="fill: #f19d6b"/>
    </g>
    <g id="text_13">
     <!-- c5.24xlarge -->
     <g transform="translate(110.47625 514.1905) scale(0.16 -0.16)">
      <defs>
       <path id="DejaVuSans-35" d="M 691 4666 
L 3169 4666 
L 3169 4134 
L 1269 4134 
L 1269 2991 
Q 1406 3038 1543 3061 
Q 1681 3084 1819 3084 
Q 2600 3084 3056 2656 
Q 3513 2228 3513 1497 
Q 3513 744 3044 326 
Q 2575 -91 1722 -91 
Q 1428 -91 1123 -41 
Q 819 9 494 109 
L 494 744 
Q 775 591 1075 516 
Q 1375 441 1709 441 
Q 2250 441 2565 725 
Q 2881 1009 2881 1497 
Q 2881 1984 2565 2268 
Q 2250 2553 1709 2553 
Q 1456 2553 1204 2497 
Q 953 2441 691 2322 
L 691 4666 
z
" transform="scale(0.015625)"/>
      </defs>
      <use xlink:href="#DejaVuSans-63"/>
      <use xlink:href="#DejaVuSans-35" x="54.980469"/>
      <use xlink:href="#DejaVuSans-2e" x="118.603516"/>
      <use xlink:href="#DejaVuSans-32" x="150.390625"/>
      <use xlink:href="#DejaVuSans-34" x="214.013672"/>
      <use xlink:href="#DejaVuSans-78" x="277.636719"/>
      <use xlink:href="#DejaVuSans-6c" x="336.816406"/>
      <use xlink:href="#DejaVuSans-61" x="364.599609"/>
      <use xlink:href="#DejaVuSans-72" x="425.878906"/>
      <use xlink:href="#DejaVuSans-67" x="465.242188"/>
      <use xlink:href="#DejaVuSans-65" x="528.71875"/>
     </g>
    </g>
    <g id="patch_35">
     <path d="M 236.91875 420.2505 
L 268.91875 420.2505 
L 268.91875 409.0505 
L 236.91875 409.0505 
z
" style="fill: #4d734d"/>
    </g>
    <g id="text_14">
     <!-- c5.metal -->
     <g transform="translate(281.71875 420.2505) scale(0.16 -0.16)">
      <use xlink:href="#DejaVuSans-63"/>
      <use xlink:href="#DejaVuSans-35" x="54.980469"/>
      <use xlink:href="#DejaVuSans-2e" x="118.603516"/>
      <use xlink:href="#DejaVuSans-6d" x="150.390625"/>
      <use xlink:href="#DejaVuSans-65" x="247.802734"/>
      <use xlink:href="#DejaVuSans-74" x="309.326172"/>
      <use xlink:href="#DejaVuSans-61" x="348.535156"/>
      <use xlink:href="#DejaVuSans-6c" x="409.814453"/>
     </g>
    </g>
    <g id="patch_36">
     <path d="M 236.91875 443.7355 
L 268.91875 443.7355 
L 268.91875 432.5355 
L 236.91875 432.5355 
z
" style="fill: #114360"/>
    </g>
    <g id="text_15">
     <!-- c5a.24xlarge -->
     <g transform="translate(281.71875 443.7355) scale(0.16 -0.16)">
      <use xlink:href="#DejaVuSans-63"/>
      <use xlink:href="#DejaVuSans-35" x="54.980469"/>
      <use xlink:href="#DejaVuSans-61" x="118.603516"/>
      <use xlink:href="#DejaVuSans-2e" x="179.882812"/>
      <use xlink:href="#DejaVuSans-32" x="211.669922"/>
      <use xlink:href="#DejaVuSans-34" x="275.292969"/>
      <use xlink:href="#DejaVuSans-78" x="338.916016"/>
      <use xlink:href="#DejaVuSans-6c" x="398.095703"/>
      <use xlink:href="#DejaVuSans-61" x="425.878906"/>
      <use xlink:href="#DejaVuSans-72" x="487.158203"/>
      <use xlink:href="#DejaVuSans-67" x="526.521484"/>
      <use xlink:href="#DejaVuSans-65" x="589.998047"/>
     </g>
    </g>
    <g id="patch_37">
     <path d="M 236.91875 467.2205 
L 268.91875 467.2205 
L 268.91875 456.0205 
L 236.91875 456.0205 
z
" style="fill: #fdb4b4"/>
    </g>
    <g id="text_16">
     <!-- c6a.48xlarge -->
     <g transform="translate(281.71875 467.2205) scale(0.16 -0.16)">
      <defs>
       <path id="DejaVuSans-36" d="M 2113 2584 
Q 1688 2584 1439 2293 
Q 1191 2003 1191 1497 
Q 1191 994 1439 701 
Q 1688 409 2113 409 
Q 2538 409 2786 701 
Q 3034 994 3034 1497 
Q 3034 2003 2786 2293 
Q 2538 2584 2113 2584 
z
M 3366 4563 
L 3366 3988 
Q 3128 4100 2886 4159 
Q 2644 4219 2406 4219 
Q 1781 4219 1451 3797 
Q 1122 3375 1075 2522 
Q 1259 2794 1537 2939 
Q 1816 3084 2150 3084 
Q 2853 3084 3261 2657 
Q 3669 2231 3669 1497 
Q 3669 778 3244 343 
Q 2819 -91 2113 -91 
Q 1303 -91 875 529 
Q 447 1150 447 2328 
Q 447 3434 972 4092 
Q 1497 4750 2381 4750 
Q 2619 4750 2861 4703 
Q 3103 4656 3366 4563 
z
" transform="scale(0.015625)"/>
      </defs>
      <use xlink:href="#DejaVuSans-63"/>
      <use xlink:href="#DejaVuSans-36" x="54.980469"/>
      <use xlink:href="#DejaVuSans-61" x="118.603516"/>
      <use xlink:href="#DejaVuSans-2e" x="179.882812"/>
      <use xlink:href="#DejaVuSans-34" x="211.669922"/>
      <use xlink:href="#DejaVuSans-38" x="275.292969"/>
      <use xlink:href="#DejaVuSans-78" x="338.916016"/>
      <use xlink:href="#DejaVuSans-6c" x="398.095703"/>
      <use xlink:href="#DejaVuSans-61" x="425.878906"/>
      <use xlink:href="#DejaVuSans-72" x="487.158203"/>
      <use xlink:href="#DejaVuSans-67" x="526.521484"/>
      <use xlink:href="#DejaVuSans-65" x="589.998047"/>
     </g>
    </g>
    <g id="patch_38">
     <path d="M 236.91875 490.7055 
L 268.91875 490.7055 
L 268.91875 479.5055 
L 236.91875 479.5055 
z
" style="fill: #c09036"/>
    </g>
    <g id="text_17">
     <!-- c6a.metal -->
     <g transform="translate(281.71875 490.7055) scale(0.16 -0.16)">
      <use xlink:href="#DejaVuSans-63"/>
      <use xlink:href="#DejaVuSans-36" x="54.980469"/>
      <use xlink:href="#DejaVuSans-61" x="118.603516"/>
      <use xlink:href="#DejaVuSans-2e" x="179.882812"/>
      <use xlink:href="#DejaVuSans-6d" x="211.669922"/>
      <use xlink:href="#DejaVuSans-65" x="309.082031"/>
      <use xlink:href="#DejaVuSans-74" x="370.605469"/>
      <use xlink:href="#DejaVuSans-61" x="409.814453"/>
      <use xlink:href="#DejaVuSans-6c" x="471.09375"/>
     </g>
    </g>
    <g id="patch_39">
     <path d="M 417.96625 420.2505 
L 449.96625 420.2505 
L 449.96625 409.0505 
L 417.96625 409.0505 
z
" style="fill: #175262"/>
    </g>
    <g id="text_18">
     <!-- c6g.16xlarge -->
     <g transform="translate(462.76625 420.2505) scale(0.16 -0.16)">
      <use xlink:href="#DejaVuSans-63"/>
      <use xlink:href="#DejaVuSans-36" x="54.980469"/>
      <use xlink:href="#DejaVuSans-67" x="118.603516"/>
      <use xlink:href="#DejaVuSans-2e" x="182.080078"/>
      <use xlink:href="#DejaVuSans-31" x="213.867188"/>
      <use xlink:href="#DejaVuSans-36" x="277.490234"/>
      <use xlink:href="#DejaVuSans-78" x="341.113281"/>
      <use xlink:href="#DejaVuSans-6c" x="400.292969"/>
      <use xlink:href="#DejaVuSans-61" x="428.076172"/>
      <use xlink:href="#DejaVuSans-72" x="489.355469"/>
      <use xlink:href="#DejaVuSans-67" x="528.71875"/>
      <use xlink:href="#DejaVuSans-65" x="592.195312"/>
     </g>
    </g>
    <g id="patch_40">
     <path d="M 417.96625 443.7355 
L 449.96625 443.7355 
L 449.96625 432.5355 
L 417.96625 432.5355 
z
" style="fill: #fcbfd6"/>
    </g>
    <g id="text_19">
     <!-- c6g.metal -->
     <g transform="translate(462.76625 443.7355) scale(0.16 -0.16)">
      <use xlink:href="#DejaVuSans-63"/>
      <use xlink:href="#DejaVuSans-36" x="54.980469"/>
      <use xlink:href="#DejaVuSans-67" x="118.603516"/>
      <use xlink:href="#DejaVuSans-2e" x="182.080078"/>
      <use xlink:href="#DejaVuSans-6d" x="213.867188"/>
      <use xlink:href="#DejaVuSans-65" x="311.279297"/>
      <use xlink:href="#DejaVuSans-74" x="372.802734"/>
      <use xlink:href="#DejaVuSans-61" x="412.011719"/>
      <use xlink:href="#DejaVuSans-6c" x="473.291016"/>
     </g>
    </g>
    <g id="patch_41">
     <path d="M 417.96625 467.2205 
L 449.96625 467.2205 
L 449.96625 456.0205 
L 417.96625 456.0205 
z
" style="fill: #fca890"/>
    </g>
    <g id="text_20">
     <!-- c6i.32xlarge -->
     <g transform="translate(462.76625 467.2205) scale(0.16 -0.16)">
      <use xlink:href="#DejaVuSans-63"/>
      <use xlink:href="#DejaVuSans-36" x="54.980469"/>
      <use xlink:href="#DejaVuSans-69" x="118.603516"/>
      <use xlink:href="#DejaVuSans-2e" x="146.386719"/>
      <use xlink:href="#DejaVuSans-33" x="178.173828"/>
      <use xlink:href="#DejaVuSans-32" x="241.796875"/>
      <use xlink:href="#DejaVuSans-78" x="305.419922"/>
      <use xlink:href="#DejaVuSans-6c" x="364.599609"/>
      <use xlink:href="#DejaVuSans-61" x="392.382812"/>
      <use xlink:href="#DejaVuSans-72" x="453.662109"/>
      <use xlink:href="#DejaVuSans-67" x="493.025391"/>
      <use xlink:href="#DejaVuSans-65" x="556.501953"/>
     </g>
    </g>
    <g id="patch_42">
     <path d="M 417.96625 490.7055 
L 449.96625 490.7055 
L 449.96625 479.5055 
L 417.96625 479.5055 
z
" style="fill: #356a59"/>
    </g>
    <g id="text_21">
     <!-- c6i.metal -->
     <g transform="translate(462.76625 490.7055) scale(0.16 -0.16)">
      <use xlink:href="#DejaVuSans-63"/>
      <use xlink:href="#DejaVuSans-36" x="54.980469"/>
      <use xlink:href="#DejaVuSans-69" x="118.603516"/>
      <use xlink:href="#DejaVuSans-2e" x="146.386719"/>
      <use xlink:href="#DejaVuSans-6d" x="178.173828"/>
      <use xlink:href="#DejaVuSans-65" x="275.585938"/>
      <use xlink:href="#DejaVuSans-74" x="337.109375"/>
      <use xlink:href="#DejaVuSans-61" x="376.318359"/>
      <use xlink:href="#DejaVuSans-6c" x="437.597656"/>
     </g>
    </g>
    <g id="patch_43">
     <path d="M 599.36625 420.2505 
L 631.36625 420.2505 
L 631.36625 409.0505 
L 599.36625 409.0505 
z
" style="fill: #0d315d"/>
    </g>
    <g id="text_22">
     <!-- c7a.48xlarge -->
     <g transform="translate(644.16625 420.2505) scale(0.16 -0.16)">
      <defs>
       <path id="DejaVuSans-37" d="M 525 4666 
L 3525 4666 
L 3525 4397 
L 1831 0 
L 1172 0 
L 2766 4134 
L 525 4134 
L 525 4666 
z
" transform="scale(0.015625)"/>
      </defs>
      <use xlink:href="#DejaVuSans-63"/>
      <use xlink:href="#DejaVuSans-37" x="54.980469"/>
      <use xlink:href="#DejaVuSans-61" x="118.603516"/>
      <use xlink:href="#DejaVuSans-2e" x="179.882812"/>
      <use xlink:href="#DejaVuSans-34" x="211.669922"/>
      <use xlink:href="#DejaVuSans-38" x="275.292969"/>
      <use xlink:href="#DejaVuSans-78" x="338.916016"/>
      <use xlink:href="#DejaVuSans-6c" x="398.095703"/>
      <use xlink:href="#DejaVuSans-61" x="425.878906"/>
      <use xlink:href="#DejaVuSans-72" x="487.158203"/>
      <use xlink:href="#DejaVuSans-67" x="526.521484"/>
      <use xlink:href="#DejaVuSans-65" x="589.998047"/>
     </g>
    </g>
    <g id="patch_44">
     <path d="M 599.36625 443.7355 
L 631.36625 443.7355 
L 631.36625 432.5355 
L 599.36625 432.5355 
z
" style="fill: #a18a2b"/>
    </g>
    <g id="text_23">
     <!-- c7a.metal-48xl -->
     <g transform="translate(644.16625 443.7355) scale(0.16 -0.16)">
      <defs>
       <path id="DejaVuSans-2d" d="M 313 2009 
L 1997 2009 
L 1997 1497 
L 313 1497 
L 313 2009 
z
" transform="scale(0.015625)"/>
      </defs>
      <use xlink:href="#DejaVuSans-63"/>
      <use xlink:href="#DejaVuSans-37" x="54.980469"/>
      <use xlink:href="#DejaVuSans-61" x="118.603516"/>
      <use xlink:href="#DejaVuSans-2e" x="179.882812"/>
      <use xlink:href="#DejaVuSans-6d" x="211.669922"/>
      <use xlink:href="#DejaVuSans-65" x="309.082031"/>
      <use xlink:href="#DejaVuSans-74" x="370.605469"/>
      <use xlink:href="#DejaVuSans-61" x="409.814453"/>
      <use xlink:href="#DejaVuSans-6c" x="471.09375"/>
      <use xlink:href="#DejaVuSans-2d" x="498.876953"/>
      <use xlink:href="#DejaVuSans-34" x="534.960938"/>
      <use xlink:href="#DejaVuSans-38" x="598.583984"/>
      <use xlink:href="#DejaVuSans-78" x="662.207031"/>
      <use xlink:href="#DejaVuSans-6c" x="721.386719"/>
     </g>
    </g>
    <g id="patch_45">
     <path d="M 599.36625 467.2205 
L 631.36625 467.2205 
L 631.36625 456.0205 
L 599.36625 456.0205 
z
" style="fill: #677b3e"/>
    </g>
    <g id="text_24">
     <!-- c7g.16xlarge -->
     <g transform="translate(644.16625 467.2205) scale(0.16 -0.16)">
      <use xlink:href="#DejaVuSans-63"/>
      <use xlink:href="#DejaVuSans-37" x="54.980469"/>
      <use xlink:href="#DejaVuSans-67" x="118.603516"/>
      <use xlink:href="#DejaVuSans-2e" x="182.080078"/>
      <use xlink:href="#DejaVuSans-31" x="213.867188"/>
      <use xlink:href="#DejaVuSans-36" x="277.490234"/>
      <use xlink:href="#DejaVuSans-78" x="341.113281"/>
      <use xlink:href="#DejaVuSans-6c" x="400.292969"/>
      <use xlink:href="#DejaVuSans-61" x="428.076172"/>
      <use xlink:href="#DejaVuSans-72" x="489.355469"/>
      <use xlink:href="#DejaVuSans-67" x="528.71875"/>
      <use xlink:href="#DejaVuSans-65" x="592.195312"/>
     </g>
    </g>
    <g id="patch_46">
     <path d="M 599.36625 490.7055 
L 631.36625 490.7055 
L 631.36625 479.5055 
L 599.36625 479.5055 
z
" style="fill: #dd954d"/>
    </g>
    <g id="text_25">
     <!-- c7g.metal -->
     <g transform="translate(644.16625 490.7055) scale(0.16 -0.16)">
      <use xlink:href="#DejaVuSans-63"/>
      <use xlink:href="#DejaVuSans-37" x="54.980469"/>
      <use xlink:href="#DejaVuSans-67" x="118.603516"/>
      <use xlink:href="#DejaVuSans-2e" x="182.080078"/>
      <use xlink:href="#DejaVuSans-6d" x="213.867188"/>
      <use xlink:href="#DejaVuSans-65" x="311.279297"/>
      <use xlink:href="#DejaVuSans-74" x="372.802734"/>
      <use xlink:href="#DejaVuSans-61" x="412.011719"/>
      <use xlink:href="#DejaVuSans-6c" x="473.291016"/>
     </g>
    </g>
    <g id="patch_47">
     <path d="M 796.03375 420.2505 
L 828.03375 420.2505 
L 828.03375 409.0505 
L 796.03375 409.0505 
z
" style="fill: #08255b"/>
    </g>
    <g id="text_26">
     <!-- c7gn.16xlarge -->
     <g transform="translate(840.83375 420.2505) scale(0.16 -0.16)">
      <use xlink:href="#DejaVuSans-63"/>
      <use xlink:href="#DejaVuSans-37" x="54.980469"/>
      <use xlink:href="#DejaVuSans-67" x="118.603516"/>
      <use xlink:href="#DejaVuSans-6e" x="182.080078"/>
      <use xlink:href="#DejaVuSans-2e" x="245.458984"/>
      <use xlink:href="#DejaVuSans-31" x="277.246094"/>
      <use xlink:href="#DejaVuSans-36" x="340.869141"/>
      <use xlink:href="#DejaVuSans-78" x="404.492188"/>
      <use xlink:href="#DejaVuSans-6c" x="463.671875"/>
      <use xlink:href="#DejaVuSans-61" x="491.455078"/>
      <use xlink:href="#DejaVuSans-72" x="552.734375"/>
      <use xlink:href="#DejaVuSans-67" x="592.097656"/>
      <use xlink:href="#DejaVuSans-65" x="655.574219"/>
     </g>
    </g>
    <g id="patch_48">
     <path d="M 796.03375 443.7355 
L 828.03375 443.7355 
L 828.03375 432.5355 
L 796.03375 432.5355 
z
" style="fill: #fdaea2"/>
    </g>
    <g id="text_27">
     <!-- c7i.48xlarge -->
     <g transform="translate(840.83375 443.7355) scale(0.16 -0.16)">
      <use xlink:href="#DejaVuSans-63"/>
      <use xlink:href="#DejaVuSans-37" x="54.980469"/>
      <use xlink:href="#DejaVuSans-69" x="118.603516"/>
      <use xlink:href="#DejaVuSans-2e" x="146.386719"/>
      <use xlink:href="#DejaVuSans-34" x="178.173828"/>
      <use xlink:href="#DejaVuSans-38" x="241.796875"/>
      <use xlink:href="#DejaVuSans-78" x="305.419922"/>
      <use xlink:href="#DejaVuSans-6c" x="364.599609"/>
      <use xlink:href="#DejaVuSans-61" x="392.382812"/>
      <use xlink:href="#DejaVuSans-72" x="453.662109"/>
      <use xlink:href="#DejaVuSans-67" x="493.025391"/>
      <use xlink:href="#DejaVuSans-65" x="556.501953"/>
     </g>
    </g>
    <g id="patch_49">
     <path d="M 796.03375 467.2205 
L 828.03375 467.2205 
L 828.03375 456.0205 
L 796.03375 456.0205 
z
" style="fill: #fbc6e8"/>
    </g>
    <g id="text_28">
     <!-- c7i.metal-48xl -->
     <g transform="translate(840.83375 467.2205) scale(0.16 -0.16)">
      <use xlink:href="#DejaVuSans-63"/>
      <use xlink:href="#DejaVuSans-37" x="54.980469"/>
      <use xlink:href="#DejaVuSans-69" x="118.603516"/>
      <use xlink:href="#DejaVuSans-2e" x="146.386719"/>
      <use xlink:href="#DejaVuSans-6d" x="178.173828"/>
      <use xlink:href="#DejaVuSans-65" x="275.585938"/>
      <use xlink:href="#DejaVuSans-74" x="337.109375"/>
      <use xlink:href="#DejaVuSans-61" x="376.318359"/>
      <use xlink:href="#DejaVuSans-6c" x="437.597656"/>
      <use xlink:href="#DejaVuSans-2d" x="465.380859"/>
      <use xlink:href="#DejaVuSans-34" x="501.464844"/>
      <use xlink:href="#DejaVuSans-38" x="565.087891"/>
      <use xlink:href="#DejaVuSans-78" x="628.710938"/>
      <use xlink:href="#DejaVuSans-6c" x="687.890625"/>
     </g>
    </g>
    <g id="patch_50">
     <path d="M 796.03375 490.7055 
L 828.03375 490.7055 
L 828.03375 479.5055 
L 796.03375 479.5055 
z
" style="fill: #b18d2f"/>
    </g>
    <g id="text_29">
     <!-- m5a.24xlarge -->
     <g transform="translate(840.83375 490.7055) scale(0.16 -0.16)">
      <use xlink:href="#DejaVuSans-6d"/>
      <use xlink:href="#DejaVuSans-35" x="97.412109"/>
      <use xlink:href="#DejaVuSans-61" x="161.035156"/>
      <use xlink:href="#DejaVuSans-2e" x="222.314453"/>
      <use xlink:href="#DejaVuSans-32" x="254.101562"/>
      <use xlink:href="#DejaVuSans-34" x="317.724609"/>
      <use xlink:href="#DejaVuSans-78" x="381.347656"/>
      <use xlink:href="#DejaVuSans-6c" x="440.527344"/>
      <use xlink:href="#DejaVuSans-61" x="468.310547"/>
      <use xlink:href="#DejaVuSans-72" x="529.589844"/>
      <use xlink:href="#DejaVuSans-67" x="568.953125"/>
      <use xlink:href="#DejaVuSans-65" x="632.429688"/>
     </g>
    </g>
   </g>
  </g>
 </g>
 <defs>
  <clipPath id="p5d2fbca0a8">
   <rect x="64.225" y="27.789" width="892.8" height="332.64"/>
  </clipPath>
 </defs>
</svg>
