<?xml version="1.0" encoding="utf-8" standalone="no"?>
<!DOCTYPE svg PUBLIC "-//W3C//DTD SVG 1.1//EN"
  "http://www.w3.org/Graphics/SVG/1.1/DTD/svg11.dtd">
<svg xmlns:xlink="http://www.w3.org/1999/xlink" width="452.839375pt" height="336.24793pt" viewBox="0 0 452.839375 336.24793" xmlns="http://www.w3.org/2000/svg" version="1.1">
 <metadata>
  <rdf:RDF xmlns:dc="http://purl.org/dc/elements/1.1/" xmlns:cc="http://creativecommons.org/ns#" xmlns:rdf="http://www.w3.org/1999/02/22-rdf-syntax-ns#">
   <cc:Work>
    <dc:type rdf:resource="http://purl.org/dc/dcmitype/StillImage"/>
    <dc:date>2024-04-14T03:53:09.289009</dc:date>
    <dc:format>image/svg+xml</dc:format>
    <dc:creator>
     <cc:Agent>
      <dc:title>Matplotlib v3.8.2, https://matplotlib.org/</dc:title>
     </cc:Agent>
    </dc:creator>
   </cc:Work>
  </rdf:RDF>
 </metadata>
 <defs>
  <style type="text/css">*{stroke-linejoin: round; stroke-linecap: butt}</style>
 </defs>
 <g id="figure_1">
  <g id="patch_1">
   <path d="M 0 336.24793 
L 452.839375 336.24793 
L 452.839375 0 
L 0 0 
z
" style="fill: #ffffff"/>
  </g>
  <g id="axes_1">
   <g id="patch_2">
    <path d="M 53.328125 280.546925 
L 409.058125 280.546925 
L 409.058125 22.318125 
L 53.328125 22.318125 
z
" style="fill: #ffffff"/>
   </g>
   <g id="matplotlib.axis_1">
    <g id="xtick_1">
     <g id="line2d_1">
      <defs>
       <path id="mcd16bdfb3c" d="M 0 0 
L 0 3.5 
" style="stroke: #000000; stroke-width: 0.8"/>
      </defs>
      <g>
       <use xlink:href="#mcd16bdfb3c" x="98.262441" y="280.546925" style="stroke: #000000; stroke-width: 0.8"/>
      </g>
     </g>
     <g id="text_1">
      <!-- 25 -->
      <g transform="translate(91.899941 295.145362) scale(0.1 -0.1)">
       <defs>
        <path id="DejaVuSans-32" d="M 1228 531 
L 3431 531 
L 3431 0 
L 469 0 
L 469 531 
Q 828 903 1448 1529 
Q 2069 2156 2228 2338 
Q 2531 2678 2651 2914 
Q 2772 3150 2772 3378 
Q 2772 3750 2511 3984 
Q 2250 4219 1831 4219 
Q 1534 4219 1204 4116 
Q 875 4013 500 3803 
L 500 4441 
Q 881 4594 1212 4672 
Q 1544 4750 1819 4750 
Q 2544 4750 2975 4387 
Q 3406 4025 3406 3419 
Q 3406 3131 3298 2873 
Q 3191 2616 2906 2266 
Q 2828 2175 2409 1742 
Q 1991 1309 1228 531 
z
" transform="scale(0.015625)"/>
        <path id="DejaVuSans-35" d="M 691 4666 
L 3169 4666 
L 3169 4134 
L 1269 4134 
L 1269 2991 
Q 1406 3038 1543 3061 
Q 1681 3084 1819 3084 
Q 2600 3084 3056 2656 
Q 3513 2228 3513 1497 
Q 3513 744 3044 326 
Q 2575 -91 1722 -91 
Q 1428 -91 1123 -41 
Q 819 9 494 109 
L 494 744 
Q 775 591 1075 516 
Q 1375 441 1709 441 
Q 2250 441 2565 725 
Q 2881 1009 2881 1497 
Q 2881 1984 2565 2268 
Q 2250 2553 1709 2553 
Q 1456 2553 1204 2497 
Q 953 2441 691 2322 
L 691 4666 
z
" transform="scale(0.015625)"/>
       </defs>
       <use xlink:href="#DejaVuSans-32"/>
       <use xlink:href="#DejaVuSans-35" x="63.623047"/>
      </g>
     </g>
    </g>
    <g id="xtick_2">
     <g id="line2d_2">
      <g>
       <use xlink:href="#mcd16bdfb3c" x="145.06902" y="280.546925" style="stroke: #000000; stroke-width: 0.8"/>
      </g>
     </g>
     <g id="text_2">
      <!-- 50 -->
      <g transform="translate(138.70652 295.145362) scale(0.1 -0.1)">
       <defs>
        <path id="DejaVuSans-30" d="M 2034 4250 
Q 1547 4250 1301 3770 
Q 1056 3291 1056 2328 
Q 1056 1369 1301 889 
Q 1547 409 2034 409 
Q 2525 409 2770 889 
Q 3016 1369 3016 2328 
Q 3016 3291 2770 3770 
Q 2525 4250 2034 4250 
z
M 2034 4750 
Q 2819 4750 3233 4129 
Q 3647 3509 3647 2328 
Q 3647 1150 3233 529 
Q 2819 -91 2034 -91 
Q 1250 -91 836 529 
Q 422 1150 422 2328 
Q 422 3509 836 4129 
Q 1250 4750 2034 4750 
z
" transform="scale(0.015625)"/>
       </defs>
       <use xlink:href="#DejaVuSans-35"/>
       <use xlink:href="#DejaVuSans-30" x="63.623047"/>
      </g>
     </g>
    </g>
    <g id="xtick_3">
     <g id="line2d_3">
      <g>
       <use xlink:href="#mcd16bdfb3c" x="191.875599" y="280.546925" style="stroke: #000000; stroke-width: 0.8"/>
      </g>
     </g>
     <g id="text_3">
      <!-- 75 -->
      <g transform="translate(185.513099 295.145362) scale(0.1 -0.1)">
       <defs>
        <path id="DejaVuSans-37" d="M 525 4666 
L 3525 4666 
L 3525 4397 
L 1831 0 
L 1172 0 
L 2766 4134 
L 525 4134 
L 525 4666 
z
" transform="scale(0.015625)"/>
       </defs>
       <use xlink:href="#DejaVuSans-37"/>
       <use xlink:href="#DejaVuSans-35" x="63.623047"/>
      </g>
     </g>
    </g>
    <g id="xtick_4">
     <g id="line2d_4">
      <g>
       <use xlink:href="#mcd16bdfb3c" x="238.682178" y="280.546925" style="stroke: #000000; stroke-width: 0.8"/>
      </g>
     </g>
     <g id="text_4">
      <!-- 100 -->
      <g transform="translate(229.138428 295.145362) scale(0.1 -0.1)">
       <defs>
        <path id="DejaVuSans-31" d="M 794 531 
L 1825 531 
L 1825 4091 
L 703 3866 
L 703 4441 
L 1819 4666 
L 2450 4666 
L 2450 531 
L 3481 531 
L 3481 0 
L 794 0 
L 794 531 
z
" transform="scale(0.015625)"/>
       </defs>
       <use xlink:href="#DejaVuSans-31"/>
       <use xlink:href="#DejaVuSans-30" x="63.623047"/>
       <use xlink:href="#DejaVuSans-30" x="127.246094"/>
      </g>
     </g>
    </g>
    <g id="xtick_5">
     <g id="line2d_5">
      <g>
       <use xlink:href="#mcd16bdfb3c" x="285.488757" y="280.546925" style="stroke: #000000; stroke-width: 0.8"/>
      </g>
     </g>
     <g id="text_5">
      <!-- 125 -->
      <g transform="translate(275.945007 295.145362) scale(0.1 -0.1)">
       <use xlink:href="#DejaVuSans-31"/>
       <use xlink:href="#DejaVuSans-32" x="63.623047"/>
       <use xlink:href="#DejaVuSans-35" x="127.246094"/>
      </g>
     </g>
    </g>
    <g id="xtick_6">
     <g id="line2d_6">
      <g>
       <use xlink:href="#mcd16bdfb3c" x="332.295336" y="280.546925" style="stroke: #000000; stroke-width: 0.8"/>
      </g>
     </g>
     <g id="text_6">
      <!-- 150 -->
      <g transform="translate(322.751586 295.145362) scale(0.1 -0.1)">
       <use xlink:href="#DejaVuSans-31"/>
       <use xlink:href="#DejaVuSans-35" x="63.623047"/>
       <use xlink:href="#DejaVuSans-30" x="127.246094"/>
      </g>
     </g>
    </g>
    <g id="xtick_7">
     <g id="line2d_7">
      <g>
       <use xlink:href="#mcd16bdfb3c" x="379.101914" y="280.546925" style="stroke: #000000; stroke-width: 0.8"/>
      </g>
     </g>
     <g id="text_7">
      <!-- 175 -->
      <g transform="translate(369.558164 295.145362) scale(0.1 -0.1)">
       <use xlink:href="#DejaVuSans-31"/>
       <use xlink:href="#DejaVuSans-37" x="63.623047"/>
       <use xlink:href="#DejaVuSans-35" x="127.246094"/>
      </g>
     </g>
    </g>
    <g id="text_8">
     <!-- used vCPU -->
     <g transform="translate(204.454844 308.823487) scale(0.1 -0.1)">
      <defs>
       <path id="DejaVuSans-75" d="M 544 1381 
L 544 3500 
L 1119 3500 
L 1119 1403 
Q 1119 906 1312 657 
Q 1506 409 1894 409 
Q 2359 409 2629 706 
Q 2900 1003 2900 1516 
L 2900 3500 
L 3475 3500 
L 3475 0 
L 2900 0 
L 2900 538 
Q 2691 219 2414 64 
Q 2138 -91 1772 -91 
Q 1169 -91 856 284 
Q 544 659 544 1381 
z
M 1991 3584 
L 1991 3584 
z
" transform="scale(0.015625)"/>
       <path id="DejaVuSans-73" d="M 2834 3397 
L 2834 2853 
Q 2591 2978 2328 3040 
Q 2066 3103 1784 3103 
Q 1356 3103 1142 2972 
Q 928 2841 928 2578 
Q 928 2378 1081 2264 
Q 1234 2150 1697 2047 
L 1894 2003 
Q 2506 1872 2764 1633 
Q 3022 1394 3022 966 
Q 3022 478 2636 193 
Q 2250 -91 1575 -91 
Q 1294 -91 989 -36 
Q 684 19 347 128 
L 347 722 
Q 666 556 975 473 
Q 1284 391 1588 391 
Q 1994 391 2212 530 
Q 2431 669 2431 922 
Q 2431 1156 2273 1281 
Q 2116 1406 1581 1522 
L 1381 1569 
Q 847 1681 609 1914 
Q 372 2147 372 2553 
Q 372 3047 722 3315 
Q 1072 3584 1716 3584 
Q 2034 3584 2315 3537 
Q 2597 3491 2834 3397 
z
" transform="scale(0.015625)"/>
       <path id="DejaVuSans-65" d="M 3597 1894 
L 3597 1613 
L 953 1613 
Q 991 1019 1311 708 
Q 1631 397 2203 397 
Q 2534 397 2845 478 
Q 3156 559 3463 722 
L 3463 178 
Q 3153 47 2828 -22 
Q 2503 -91 2169 -91 
Q 1331 -91 842 396 
Q 353 884 353 1716 
Q 353 2575 817 3079 
Q 1281 3584 2069 3584 
Q 2775 3584 3186 3129 
Q 3597 2675 3597 1894 
z
M 3022 2063 
Q 3016 2534 2758 2815 
Q 2500 3097 2075 3097 
Q 1594 3097 1305 2825 
Q 1016 2553 972 2059 
L 3022 2063 
z
" transform="scale(0.015625)"/>
       <path id="DejaVuSans-64" d="M 2906 2969 
L 2906 4863 
L 3481 4863 
L 3481 0 
L 2906 0 
L 2906 525 
Q 2725 213 2448 61 
Q 2172 -91 1784 -91 
Q 1150 -91 751 415 
Q 353 922 353 1747 
Q 353 2572 751 3078 
Q 1150 3584 1784 3584 
Q 2172 3584 2448 3432 
Q 2725 3281 2906 2969 
z
M 947 1747 
Q 947 1113 1208 752 
Q 1469 391 1925 391 
Q 2381 391 2643 752 
Q 2906 1113 2906 1747 
Q 2906 2381 2643 2742 
Q 2381 3103 1925 3103 
Q 1469 3103 1208 2742 
Q 947 2381 947 1747 
z
" transform="scale(0.015625)"/>
       <path id="DejaVuSans-20" transform="scale(0.015625)"/>
       <path id="DejaVuSans-76" d="M 191 3500 
L 800 3500 
L 1894 563 
L 2988 3500 
L 3597 3500 
L 2284 0 
L 1503 0 
L 191 3500 
z
" transform="scale(0.015625)"/>
       <path id="DejaVuSans-43" d="M 4122 4306 
L 4122 3641 
Q 3803 3938 3442 4084 
Q 3081 4231 2675 4231 
Q 1875 4231 1450 3742 
Q 1025 3253 1025 2328 
Q 1025 1406 1450 917 
Q 1875 428 2675 428 
Q 3081 428 3442 575 
Q 3803 722 4122 1019 
L 4122 359 
Q 3791 134 3420 21 
Q 3050 -91 2638 -91 
Q 1578 -91 968 557 
Q 359 1206 359 2328 
Q 359 3453 968 4101 
Q 1578 4750 2638 4750 
Q 3056 4750 3426 4639 
Q 3797 4528 4122 4306 
z
" transform="scale(0.015625)"/>
       <path id="DejaVuSans-50" d="M 1259 4147 
L 1259 2394 
L 2053 2394 
Q 2494 2394 2734 2622 
Q 2975 2850 2975 3272 
Q 2975 3691 2734 3919 
Q 2494 4147 2053 4147 
L 1259 4147 
z
M 628 4666 
L 2053 4666 
Q 2838 4666 3239 4311 
Q 3641 3956 3641 3272 
Q 3641 2581 3239 2228 
Q 2838 1875 2053 1875 
L 1259 1875 
L 1259 0 
L 628 0 
L 628 4666 
z
" transform="scale(0.015625)"/>
       <path id="DejaVuSans-55" d="M 556 4666 
L 1191 4666 
L 1191 1831 
Q 1191 1081 1462 751 
Q 1734 422 2344 422 
Q 2950 422 3222 751 
Q 3494 1081 3494 1831 
L 3494 4666 
L 4128 4666 
L 4128 1753 
Q 4128 841 3676 375 
Q 3225 -91 2344 -91 
Q 1459 -91 1007 375 
Q 556 841 556 1753 
L 556 4666 
z
" transform="scale(0.015625)"/>
      </defs>
      <use xlink:href="#DejaVuSans-75"/>
      <use xlink:href="#DejaVuSans-73" x="63.378906"/>
      <use xlink:href="#DejaVuSans-65" x="115.478516"/>
      <use xlink:href="#DejaVuSans-64" x="177.001953"/>
      <use xlink:href="#DejaVuSans-20" x="240.478516"/>
      <use xlink:href="#DejaVuSans-76" x="272.265625"/>
      <use xlink:href="#DejaVuSans-43" x="331.445312"/>
      <use xlink:href="#DejaVuSans-50" x="401.269531"/>
      <use xlink:href="#DejaVuSans-55" x="461.572266"/>
     </g>
    </g>
   </g>
   <g id="matplotlib.axis_2">
    <g id="ytick_1">
     <g id="line2d_8">
      <defs>
       <path id="mea001eb5a2" d="M 0 0 
L -3.5 0 
" style="stroke: #000000; stroke-width: 0.8"/>
      </defs>
      <g>
       <use xlink:href="#mea001eb5a2" x="53.328125" y="255.500091" style="stroke: #000000; stroke-width: 0.8"/>
      </g>
     </g>
     <g id="text_9">
      <!-- 1580 -->
      <g transform="translate(20.878125 259.29931) scale(0.1 -0.1)">
       <defs>
        <path id="DejaVuSans-38" d="M 2034 2216 
Q 1584 2216 1326 1975 
Q 1069 1734 1069 1313 
Q 1069 891 1326 650 
Q 1584 409 2034 409 
Q 2484 409 2743 651 
Q 3003 894 3003 1313 
Q 3003 1734 2745 1975 
Q 2488 2216 2034 2216 
z
M 1403 2484 
Q 997 2584 770 2862 
Q 544 3141 544 3541 
Q 544 4100 942 4425 
Q 1341 4750 2034 4750 
Q 2731 4750 3128 4425 
Q 3525 4100 3525 3541 
Q 3525 3141 3298 2862 
Q 3072 2584 2669 2484 
Q 3125 2378 3379 2068 
Q 3634 1759 3634 1313 
Q 3634 634 3220 271 
Q 2806 -91 2034 -91 
Q 1263 -91 848 271 
Q 434 634 434 1313 
Q 434 1759 690 2068 
Q 947 2378 1403 2484 
z
M 1172 3481 
Q 1172 3119 1398 2916 
Q 1625 2713 2034 2713 
Q 2441 2713 2670 2916 
Q 2900 3119 2900 3481 
Q 2900 3844 2670 4047 
Q 2441 4250 2034 4250 
Q 1625 4250 1398 4047 
Q 1172 3844 1172 3481 
z
" transform="scale(0.015625)"/>
       </defs>
       <use xlink:href="#DejaVuSans-31"/>
       <use xlink:href="#DejaVuSans-35" x="63.623047"/>
       <use xlink:href="#DejaVuSans-38" x="127.246094"/>
       <use xlink:href="#DejaVuSans-30" x="190.869141"/>
      </g>
     </g>
    </g>
    <g id="ytick_2">
     <g id="line2d_9">
      <g>
       <use xlink:href="#mea001eb5a2" x="53.328125" y="205.143231" style="stroke: #000000; stroke-width: 0.8"/>
      </g>
     </g>
     <g id="text_10">
      <!-- 1600 -->
      <g transform="translate(20.878125 208.94245) scale(0.1 -0.1)">
       <defs>
        <path id="DejaVuSans-36" d="M 2113 2584 
Q 1688 2584 1439 2293 
Q 1191 2003 1191 1497 
Q 1191 994 1439 701 
Q 1688 409 2113 409 
Q 2538 409 2786 701 
Q 3034 994 3034 1497 
Q 3034 2003 2786 2293 
Q 2538 2584 2113 2584 
z
M 3366 4563 
L 3366 3988 
Q 3128 4100 2886 4159 
Q 2644 4219 2406 4219 
Q 1781 4219 1451 3797 
Q 1122 3375 1075 2522 
Q 1259 2794 1537 2939 
Q 1816 3084 2150 3084 
Q 2853 3084 3261 2657 
Q 3669 2231 3669 1497 
Q 3669 778 3244 343 
Q 2819 -91 2113 -91 
Q 1303 -91 875 529 
Q 447 1150 447 2328 
Q 447 3434 972 4092 
Q 1497 4750 2381 4750 
Q 2619 4750 2861 4703 
Q 3103 4656 3366 4563 
z
" transform="scale(0.015625)"/>
       </defs>
       <use xlink:href="#DejaVuSans-31"/>
       <use xlink:href="#DejaVuSans-36" x="63.623047"/>
       <use xlink:href="#DejaVuSans-30" x="127.246094"/>
       <use xlink:href="#DejaVuSans-30" x="190.869141"/>
      </g>
     </g>
    </g>
    <g id="ytick_3">
     <g id="line2d_10">
      <g>
       <use xlink:href="#mea001eb5a2" x="53.328125" y="154.786371" style="stroke: #000000; stroke-width: 0.8"/>
      </g>
     </g>
     <g id="text_11">
      <!-- 1620 -->
      <g transform="translate(20.878125 158.585589) scale(0.1 -0.1)">
       <use xlink:href="#DejaVuSans-31"/>
       <use xlink:href="#DejaVuSans-36" x="63.623047"/>
       <use xlink:href="#DejaVuSans-32" x="127.246094"/>
       <use xlink:href="#DejaVuSans-30" x="190.869141"/>
      </g>
     </g>
    </g>
    <g id="ytick_4">
     <g id="line2d_11">
      <g>
       <use xlink:href="#mea001eb5a2" x="53.328125" y="104.42951" style="stroke: #000000; stroke-width: 0.8"/>
      </g>
     </g>
     <g id="text_12">
      <!-- 1640 -->
      <g transform="translate(20.878125 108.228729) scale(0.1 -0.1)">
       <defs>
        <path id="DejaVuSans-34" d="M 2419 4116 
L 825 1625 
L 2419 1625 
L 2419 4116 
z
M 2253 4666 
L 3047 4666 
L 3047 1625 
L 3713 1625 
L 3713 1100 
L 3047 1100 
L 3047 0 
L 2419 0 
L 2419 1100 
L 313 1100 
L 313 1709 
L 2253 4666 
z
" transform="scale(0.015625)"/>
       </defs>
       <use xlink:href="#DejaVuSans-31"/>
       <use xlink:href="#DejaVuSans-36" x="63.623047"/>
       <use xlink:href="#DejaVuSans-34" x="127.246094"/>
       <use xlink:href="#DejaVuSans-30" x="190.869141"/>
      </g>
     </g>
    </g>
    <g id="ytick_5">
     <g id="line2d_12">
      <g>
       <use xlink:href="#mea001eb5a2" x="53.328125" y="54.07265" style="stroke: #000000; stroke-width: 0.8"/>
      </g>
     </g>
     <g id="text_13">
      <!-- 1660 -->
      <g transform="translate(20.878125 57.871868) scale(0.1 -0.1)">
       <use xlink:href="#DejaVuSans-31"/>
       <use xlink:href="#DejaVuSans-36" x="63.623047"/>
       <use xlink:href="#DejaVuSans-36" x="127.246094"/>
       <use xlink:href="#DejaVuSans-30" x="190.869141"/>
      </g>
     </g>
    </g>
    <g id="text_14">
     <!-- score_per -->
     <g style="fill: #226061" transform="translate(14.520313 175.671587) rotate(-90) scale(0.1 -0.1)">
      <defs>
       <path id="DejaVuSans-63" d="M 3122 3366 
L 3122 2828 
Q 2878 2963 2633 3030 
Q 2388 3097 2138 3097 
Q 1578 3097 1268 2742 
Q 959 2388 959 1747 
Q 959 1106 1268 751 
Q 1578 397 2138 397 
Q 2388 397 2633 464 
Q 2878 531 3122 666 
L 3122 134 
Q 2881 22 2623 -34 
Q 2366 -91 2075 -91 
Q 1284 -91 818 406 
Q 353 903 353 1747 
Q 353 2603 823 3093 
Q 1294 3584 2113 3584 
Q 2378 3584 2631 3529 
Q 2884 3475 3122 3366 
z
" transform="scale(0.015625)"/>
       <path id="DejaVuSans-6f" d="M 1959 3097 
Q 1497 3097 1228 2736 
Q 959 2375 959 1747 
Q 959 1119 1226 758 
Q 1494 397 1959 397 
Q 2419 397 2687 759 
Q 2956 1122 2956 1747 
Q 2956 2369 2687 2733 
Q 2419 3097 1959 3097 
z
M 1959 3584 
Q 2709 3584 3137 3096 
Q 3566 2609 3566 1747 
Q 3566 888 3137 398 
Q 2709 -91 1959 -91 
Q 1206 -91 779 398 
Q 353 888 353 1747 
Q 353 2609 779 3096 
Q 1206 3584 1959 3584 
z
" transform="scale(0.015625)"/>
       <path id="DejaVuSans-72" d="M 2631 2963 
Q 2534 3019 2420 3045 
Q 2306 3072 2169 3072 
Q 1681 3072 1420 2755 
Q 1159 2438 1159 1844 
L 1159 0 
L 581 0 
L 581 3500 
L 1159 3500 
L 1159 2956 
Q 1341 3275 1631 3429 
Q 1922 3584 2338 3584 
Q 2397 3584 2469 3576 
Q 2541 3569 2628 3553 
L 2631 2963 
z
" transform="scale(0.015625)"/>
       <path id="DejaVuSans-5f" d="M 3263 -1063 
L 3263 -1509 
L -63 -1509 
L -63 -1063 
L 3263 -1063 
z
" transform="scale(0.015625)"/>
       <path id="DejaVuSans-70" d="M 1159 525 
L 1159 -1331 
L 581 -1331 
L 581 3500 
L 1159 3500 
L 1159 2969 
Q 1341 3281 1617 3432 
Q 1894 3584 2278 3584 
Q 2916 3584 3314 3078 
Q 3713 2572 3713 1747 
Q 3713 922 3314 415 
Q 2916 -91 2278 -91 
Q 1894 -91 1617 61 
Q 1341 213 1159 525 
z
M 3116 1747 
Q 3116 2381 2855 2742 
Q 2594 3103 2138 3103 
Q 1681 3103 1420 2742 
Q 1159 2381 1159 1747 
Q 1159 1113 1420 752 
Q 1681 391 2138 391 
Q 2594 391 2855 752 
Q 3116 1113 3116 1747 
z
" transform="scale(0.015625)"/>
      </defs>
      <use xlink:href="#DejaVuSans-73"/>
      <use xlink:href="#DejaVuSans-63" x="52.099609"/>
      <use xlink:href="#DejaVuSans-6f" x="107.080078"/>
      <use xlink:href="#DejaVuSans-72" x="168.261719"/>
      <use xlink:href="#DejaVuSans-65" x="207.125"/>
      <use xlink:href="#DejaVuSans-5f" x="268.648438"/>
      <use xlink:href="#DejaVuSans-70" x="318.648438"/>
      <use xlink:href="#DejaVuSans-65" x="382.125"/>
      <use xlink:href="#DejaVuSans-72" x="443.648438"/>
     </g>
    </g>
   </g>
   <g id="line2d_13">
    <path d="M 53.328125 34.433474 
L 55.200388 34.055798 
L 57.072651 40.895938 
L 58.944914 36.762479 
L 60.817178 35.188827 
L 62.689441 34.643294 
L 64.561704 36.483718 
L 66.433967 34.842624 
L 68.30623 34.517402 
L 70.178493 35.516147 
L 72.050757 35.646617 
L 73.92302 36.825425 
L 75.795283 34.956411 
L 77.667546 35.890226 
L 79.539809 35.625253 
L 81.412072 35.535031 
L 83.284336 36.314451 
L 85.156599 36.167988 
L 87.028862 36.354986 
L 88.901125 35.667217 
L 90.773388 39.325283 
L 92.645651 38.347576 
L 94.517914 35.528189 
L 96.390178 35.881234 
L 98.262441 43.809922 
L 100.134704 35.84734 
L 102.006967 37.315006 
L 103.87923 37.15814 
L 105.751493 35.536116 
L 107.623757 39.334875 
L 109.49602 36.260941 
L 111.368283 36.07794 
L 113.240546 35.349053 
L 115.112809 37.751103 
L 116.985072 36.361423 
L 118.857336 36.181976 
L 120.729599 35.488246 
L 122.601862 41.933996 
L 124.474125 37.073981 
L 128.218651 35.551151 
L 130.090914 36.58563 
L 131.963178 37.296789 
L 133.835441 36.882649 
L 135.707704 35.927394 
L 137.579967 36.754269 
L 139.45223 36.045965 
L 141.324493 36.92509 
L 143.196757 35.255627 
L 145.06902 36.629033 
L 146.941283 35.88 
L 148.813546 37.140155 
L 150.685809 35.906175 
L 152.558072 35.249442 
L 154.430336 37.830273 
L 156.302599 36.186972 
L 158.174862 37.229605 
L 160.047125 35.913792 
L 161.919388 36.690998 
L 163.791651 36.053287 
L 165.663914 36.456004 
L 167.536178 40.358527 
L 169.408441 36.287886 
L 171.280704 35.704198 
L 173.152967 35.80473 
L 175.02523 36.600345 
L 176.897493 39.578141 
L 178.769757 37.914022 
L 180.64202 39.199131 
L 182.514283 35.958568 
L 184.386546 36.373277 
L 186.258809 36.339341 
L 190.003336 36.903682 
L 191.875599 37.589171 
L 193.747862 36.133018 
L 195.620125 37.052685 
L 197.492388 36.05716 
L 199.364651 36.533801 
L 201.236914 36.501253 
L 203.109178 39.086821 
L 204.981441 36.816213 
L 206.853704 36.56909 
L 208.725967 37.320001 
L 210.59823 37.040182 
L 212.470493 37.911611 
L 214.342757 36.711109 
L 216.21502 36.762479 
L 218.087283 37.143692 
L 219.959546 37.015662 
L 221.831809 36.65803 
L 223.704072 35.903128 
L 225.576336 39.637016 
L 227.448599 36.94596 
L 231.193125 37.672574 
L 233.065388 39.191419 
L 234.937651 37.991854 
L 236.809914 37.190385 
L 238.682178 36.97146 
L 240.554441 37.200609 
L 242.426704 37.585715 
L 244.298967 36.428193 
L 246.17123 37.953612 
L 248.043493 37.123969 
L 249.915757 37.81356 
L 251.78802 38.153764 
L 253.660283 37.681025 
L 255.532546 41.24089 
L 257.404809 37.443441 
L 259.277072 37.336933 
L 261.149336 38.662102 
L 263.021599 36.795345 
L 264.893862 37.872318 
L 266.766125 36.97978 
L 268.638388 37.381087 
L 270.510651 39.856521 
L 272.382914 40.094353 
L 274.255178 42.035667 
L 276.127441 42.750749 
L 277.999704 45.638916 
L 279.871967 50.659115 
L 281.74423 52.228279 
L 283.616493 45.666303 
L 285.488757 45.739596 
L 287.36102 49.748354 
L 289.233283 46.176139 
L 291.105546 54.267389 
L 292.977809 39.338389 
L 294.850072 41.218093 
L 296.722336 41.031761 
L 298.594599 45.426148 
L 300.466862 47.391847 
L 302.339125 51.376303 
L 304.211388 61.654155 
L 306.083651 63.159101 
L 307.955914 71.177442 
L 309.828178 74.496371 
L 311.700441 76.293067 
L 313.572704 77.1271 
L 315.444967 76.093955 
L 317.31723 53.941438 
L 319.189493 56.329905 
L 321.061757 60.124216 
L 322.93402 63.374777 
L 324.806283 74.155035 
L 326.678546 75.565095 
L 328.550809 78.305188 
L 330.423072 106.19538 
L 332.295336 90.93555 
L 334.167599 98.495071 
L 337.912125 106.287448 
L 339.784388 125.921099 
L 341.656651 109.211787 
L 343.528914 116.858939 
L 345.401178 110.361677 
L 347.273441 113.10332 
L 349.145704 124.402815 
L 351.017967 123.064696 
L 352.89023 129.493777 
L 354.762493 132.334049 
L 356.634757 138.253565 
L 358.50702 145.014376 
L 360.379283 150.026884 
L 362.251546 151.247739 
L 364.123809 163.075653 
L 365.996072 173.817067 
L 367.868336 171.115104 
L 369.740599 172.759327 
L 371.612862 174.748007 
L 373.485125 182.64806 
L 375.357388 187.435372 
L 377.229651 190.215605 
L 379.101914 194.33521 
L 380.974178 201.207671 
L 382.846441 205.161724 
L 384.718704 207.809598 
L 386.590967 214.910774 
L 388.46323 216.507096 
L 390.335493 218.736801 
L 392.207757 226.600234 
L 394.08002 230.917413 
L 395.952283 234.367999 
L 397.824546 238.637348 
L 399.696809 244.842576 
L 401.569072 249.652502 
L 403.441336 251.972433 
L 405.313599 256.509893 
L 410.930388 268.809252 
L 410.930388 268.809252 
" clip-path="url(#p97ffc5c06f)" style="fill: none; stroke: #226061; stroke-width: 1.5; stroke-linecap: square"/>
   </g>
   <g id="patch_3">
    <path d="M 53.328125 280.546925 
L 53.328125 22.318125 
" style="fill: none; stroke: #000000; stroke-width: 0.8; stroke-linejoin: miter; stroke-linecap: square"/>
   </g>
   <g id="patch_4">
    <path d="M 409.058125 280.546925 
L 409.058125 22.318125 
" style="fill: none; stroke: #000000; stroke-width: 0.8; stroke-linejoin: miter; stroke-linecap: square"/>
   </g>
   <g id="patch_5">
    <path d="M 53.328125 280.546925 
L 409.058125 280.546925 
" style="fill: none; stroke: #000000; stroke-width: 0.8; stroke-linejoin: miter; stroke-linecap: square"/>
   </g>
   <g id="patch_6">
    <path d="M 53.328125 22.318125 
L 409.058125 22.318125 
" style="fill: none; stroke: #000000; stroke-width: 0.8; stroke-linejoin: miter; stroke-linecap: square"/>
   </g>
   <g id="legend_1">
    <g id="patch_7">
     <path d="M 77.029844 331.04793 
L 389.356406 331.04793 
Q 391.356406 331.04793 391.356406 329.04793 
L 391.356406 315.369805 
Q 391.356406 313.369805 389.356406 313.369805 
L 77.029844 313.369805 
Q 75.029844 313.369805 75.029844 315.369805 
L 75.029844 329.04793 
Q 75.029844 331.04793 77.029844 331.04793 
z
" style="fill: #4d4d4d; opacity: 0.5; stroke: #4d4d4d; stroke-linejoin: miter"/>
    </g>
    <g id="patch_8">
     <path d="M 75.029844 329.04793 
L 387.356406 329.04793 
Q 389.356406 329.04793 389.356406 327.04793 
L 389.356406 313.369805 
Q 389.356406 311.369805 387.356406 311.369805 
L 75.029844 311.369805 
Q 73.029844 311.369805 73.029844 313.369805 
L 73.029844 327.04793 
Q 73.029844 329.04793 75.029844 329.04793 
z
" style="fill: #ffffff; stroke: #cccccc; stroke-linejoin: miter"/>
    </g>
    <g id="line2d_14">
     <path d="M 77.029844 319.468242 
L 87.029844 319.468242 
L 97.029844 319.468242 
" style="fill: none; stroke: #226061; stroke-width: 1.5; stroke-linecap: square"/>
    </g>
    <g id="text_15">
     <!-- Whetstone score / vCPU -->
     <g transform="translate(105.029844 322.968242) scale(0.1 -0.1)">
      <defs>
       <path id="DejaVuSans-57" d="M 213 4666 
L 850 4666 
L 1831 722 
L 2809 4666 
L 3519 4666 
L 4500 722 
L 5478 4666 
L 6119 4666 
L 4947 0 
L 4153 0 
L 3169 4050 
L 2175 0 
L 1381 0 
L 213 4666 
z
" transform="scale(0.015625)"/>
       <path id="DejaVuSans-68" d="M 3513 2113 
L 3513 0 
L 2938 0 
L 2938 2094 
Q 2938 2591 2744 2837 
Q 2550 3084 2163 3084 
Q 1697 3084 1428 2787 
Q 1159 2491 1159 1978 
L 1159 0 
L 581 0 
L 581 4863 
L 1159 4863 
L 1159 2956 
Q 1366 3272 1645 3428 
Q 1925 3584 2291 3584 
Q 2894 3584 3203 3211 
Q 3513 2838 3513 2113 
z
" transform="scale(0.015625)"/>
       <path id="DejaVuSans-74" d="M 1172 4494 
L 1172 3500 
L 2356 3500 
L 2356 3053 
L 1172 3053 
L 1172 1153 
Q 1172 725 1289 603 
Q 1406 481 1766 481 
L 2356 481 
L 2356 0 
L 1766 0 
Q 1100 0 847 248 
Q 594 497 594 1153 
L 594 3053 
L 172 3053 
L 172 3500 
L 594 3500 
L 594 4494 
L 1172 4494 
z
" transform="scale(0.015625)"/>
       <path id="DejaVuSans-6e" d="M 3513 2113 
L 3513 0 
L 2938 0 
L 2938 2094 
Q 2938 2591 2744 2837 
Q 2550 3084 2163 3084 
Q 1697 3084 1428 2787 
Q 1159 2491 1159 1978 
L 1159 0 
L 581 0 
L 581 3500 
L 1159 3500 
L 1159 2956 
Q 1366 3272 1645 3428 
Q 1925 3584 2291 3584 
Q 2894 3584 3203 3211 
Q 3513 2838 3513 2113 
z
" transform="scale(0.015625)"/>
       <path id="DejaVuSans-2f" d="M 1625 4666 
L 2156 4666 
L 531 -594 
L 0 -594 
L 1625 4666 
z
" transform="scale(0.015625)"/>
      </defs>
      <use xlink:href="#DejaVuSans-57"/>
      <use xlink:href="#DejaVuSans-68" x="98.876953"/>
      <use xlink:href="#DejaVuSans-65" x="162.255859"/>
      <use xlink:href="#DejaVuSans-74" x="223.779297"/>
      <use xlink:href="#DejaVuSans-73" x="262.988281"/>
      <use xlink:href="#DejaVuSans-74" x="315.087891"/>
      <use xlink:href="#DejaVuSans-6f" x="354.296875"/>
      <use xlink:href="#DejaVuSans-6e" x="415.478516"/>
      <use xlink:href="#DejaVuSans-65" x="478.857422"/>
      <use xlink:href="#DejaVuSans-20" x="540.380859"/>
      <use xlink:href="#DejaVuSans-73" x="572.167969"/>
      <use xlink:href="#DejaVuSans-63" x="624.267578"/>
      <use xlink:href="#DejaVuSans-6f" x="679.248047"/>
      <use xlink:href="#DejaVuSans-72" x="740.429688"/>
      <use xlink:href="#DejaVuSans-65" x="779.292969"/>
      <use xlink:href="#DejaVuSans-20" x="840.816406"/>
      <use xlink:href="#DejaVuSans-2f" x="872.603516"/>
      <use xlink:href="#DejaVuSans-20" x="906.294922"/>
      <use xlink:href="#DejaVuSans-76" x="938.082031"/>
      <use xlink:href="#DejaVuSans-43" x="997.261719"/>
      <use xlink:href="#DejaVuSans-50" x="1067.085938"/>
      <use xlink:href="#DejaVuSans-55" x="1127.388672"/>
     </g>
    </g>
    <g id="line2d_15">
     <path d="M 245.086094 319.468242 
L 255.086094 319.468242 
L 265.086094 319.468242 
" style="fill: none; stroke: #828231; stroke-width: 1.5; stroke-linecap: square"/>
    </g>
    <g id="text_16">
     <!-- CPU frequency top 5% -->
     <g transform="translate(273.086094 322.968242) scale(0.1 -0.1)">
      <defs>
       <path id="DejaVuSans-66" d="M 2375 4863 
L 2375 4384 
L 1825 4384 
Q 1516 4384 1395 4259 
Q 1275 4134 1275 3809 
L 1275 3500 
L 2222 3500 
L 2222 3053 
L 1275 3053 
L 1275 0 
L 697 0 
L 697 3053 
L 147 3053 
L 147 3500 
L 697 3500 
L 697 3744 
Q 697 4328 969 4595 
Q 1241 4863 1831 4863 
L 2375 4863 
z
" transform="scale(0.015625)"/>
       <path id="DejaVuSans-71" d="M 947 1747 
Q 947 1113 1208 752 
Q 1469 391 1925 391 
Q 2381 391 2643 752 
Q 2906 1113 2906 1747 
Q 2906 2381 2643 2742 
Q 2381 3103 1925 3103 
Q 1469 3103 1208 2742 
Q 947 2381 947 1747 
z
M 2906 525 
Q 2725 213 2448 61 
Q 2172 -91 1784 -91 
Q 1150 -91 751 415 
Q 353 922 353 1747 
Q 353 2572 751 3078 
Q 1150 3584 1784 3584 
Q 2172 3584 2448 3432 
Q 2725 3281 2906 2969 
L 2906 3500 
L 3481 3500 
L 3481 -1331 
L 2906 -1331 
L 2906 525 
z
" transform="scale(0.015625)"/>
       <path id="DejaVuSans-79" d="M 2059 -325 
Q 1816 -950 1584 -1140 
Q 1353 -1331 966 -1331 
L 506 -1331 
L 506 -850 
L 844 -850 
Q 1081 -850 1212 -737 
Q 1344 -625 1503 -206 
L 1606 56 
L 191 3500 
L 800 3500 
L 1894 763 
L 2988 3500 
L 3597 3500 
L 2059 -325 
z
" transform="scale(0.015625)"/>
       <path id="DejaVuSans-25" d="M 4653 2053 
Q 4381 2053 4226 1822 
Q 4072 1591 4072 1178 
Q 4072 772 4226 539 
Q 4381 306 4653 306 
Q 4919 306 5073 539 
Q 5228 772 5228 1178 
Q 5228 1588 5073 1820 
Q 4919 2053 4653 2053 
z
M 4653 2450 
Q 5147 2450 5437 2106 
Q 5728 1763 5728 1178 
Q 5728 594 5436 251 
Q 5144 -91 4653 -91 
Q 4153 -91 3862 251 
Q 3572 594 3572 1178 
Q 3572 1766 3864 2108 
Q 4156 2450 4653 2450 
z
M 1428 4353 
Q 1159 4353 1004 4120 
Q 850 3888 850 3481 
Q 850 3069 1003 2837 
Q 1156 2606 1428 2606 
Q 1700 2606 1854 2837 
Q 2009 3069 2009 3481 
Q 2009 3884 1853 4118 
Q 1697 4353 1428 4353 
z
M 4250 4750 
L 4750 4750 
L 1831 -91 
L 1331 -91 
L 4250 4750 
z
M 1428 4750 
Q 1922 4750 2215 4408 
Q 2509 4066 2509 3481 
Q 2509 2891 2217 2550 
Q 1925 2209 1428 2209 
Q 931 2209 642 2551 
Q 353 2894 353 3481 
Q 353 4063 643 4406 
Q 934 4750 1428 4750 
z
" transform="scale(0.015625)"/>
      </defs>
      <use xlink:href="#DejaVuSans-43"/>
      <use xlink:href="#DejaVuSans-50" x="69.824219"/>
      <use xlink:href="#DejaVuSans-55" x="130.126953"/>
      <use xlink:href="#DejaVuSans-20" x="203.320312"/>
      <use xlink:href="#DejaVuSans-66" x="235.107422"/>
      <use xlink:href="#DejaVuSans-72" x="270.3125"/>
      <use xlink:href="#DejaVuSans-65" x="309.175781"/>
      <use xlink:href="#DejaVuSans-71" x="370.699219"/>
      <use xlink:href="#DejaVuSans-75" x="434.175781"/>
      <use xlink:href="#DejaVuSans-65" x="497.554688"/>
      <use xlink:href="#DejaVuSans-6e" x="559.078125"/>
      <use xlink:href="#DejaVuSans-63" x="622.457031"/>
      <use xlink:href="#DejaVuSans-79" x="677.4375"/>
      <use xlink:href="#DejaVuSans-20" x="736.617188"/>
      <use xlink:href="#DejaVuSans-74" x="768.404297"/>
      <use xlink:href="#DejaVuSans-6f" x="807.613281"/>
      <use xlink:href="#DejaVuSans-70" x="868.794922"/>
      <use xlink:href="#DejaVuSans-20" x="932.271484"/>
      <use xlink:href="#DejaVuSans-35" x="964.058594"/>
      <use xlink:href="#DejaVuSans-25" x="1027.681641"/>
     </g>
    </g>
   </g>
  </g>
  <g id="axes_2">
   <g id="matplotlib.axis_3">
    <g id="ytick_6">
     <g id="line2d_16">
      <defs>
       <path id="m02858cc795" d="M 0 0 
L 3.5 0 
" style="stroke: #000000; stroke-width: 0.8"/>
      </defs>
      <g>
       <use xlink:href="#m02858cc795" x="409.058125" y="269.127088" style="stroke: #000000; stroke-width: 0.8"/>
      </g>
     </g>
     <g id="text_17">
      <!-- 0.0 -->
      <g transform="translate(416.058125 272.926307) scale(0.1 -0.1)">
       <defs>
        <path id="DejaVuSans-2e" d="M 684 794 
L 1344 794 
L 1344 0 
L 684 0 
L 684 794 
z
" transform="scale(0.015625)"/>
       </defs>
       <use xlink:href="#DejaVuSans-30"/>
       <use xlink:href="#DejaVuSans-2e" x="63.623047"/>
       <use xlink:href="#DejaVuSans-30" x="95.410156"/>
      </g>
     </g>
    </g>
    <g id="ytick_7">
     <g id="line2d_17">
      <g>
       <use xlink:href="#m02858cc795" x="409.058125" y="237.343517" style="stroke: #000000; stroke-width: 0.8"/>
      </g>
     </g>
     <g id="text_18">
      <!-- 0.5 -->
      <g transform="translate(416.058125 241.142736) scale(0.1 -0.1)">
       <use xlink:href="#DejaVuSans-30"/>
       <use xlink:href="#DejaVuSans-2e" x="63.623047"/>
       <use xlink:href="#DejaVuSans-35" x="95.410156"/>
      </g>
     </g>
    </g>
    <g id="ytick_8">
     <g id="line2d_18">
      <g>
       <use xlink:href="#m02858cc795" x="409.058125" y="205.559946" style="stroke: #000000; stroke-width: 0.8"/>
      </g>
     </g>
     <g id="text_19">
      <!-- 1.0 -->
      <g transform="translate(416.058125 209.359165) scale(0.1 -0.1)">
       <use xlink:href="#DejaVuSans-31"/>
       <use xlink:href="#DejaVuSans-2e" x="63.623047"/>
       <use xlink:href="#DejaVuSans-30" x="95.410156"/>
      </g>
     </g>
    </g>
    <g id="ytick_9">
     <g id="line2d_19">
      <g>
       <use xlink:href="#m02858cc795" x="409.058125" y="173.776375" style="stroke: #000000; stroke-width: 0.8"/>
      </g>
     </g>
     <g id="text_20">
      <!-- 1.5 -->
      <g transform="translate(416.058125 177.575594) scale(0.1 -0.1)">
       <use xlink:href="#DejaVuSans-31"/>
       <use xlink:href="#DejaVuSans-2e" x="63.623047"/>
       <use xlink:href="#DejaVuSans-35" x="95.410156"/>
      </g>
     </g>
    </g>
    <g id="ytick_10">
     <g id="line2d_20">
      <g>
       <use xlink:href="#m02858cc795" x="409.058125" y="141.992804" style="stroke: #000000; stroke-width: 0.8"/>
      </g>
     </g>
     <g id="text_21">
      <!-- 2.0 -->
      <g transform="translate(416.058125 145.792023) scale(0.1 -0.1)">
       <use xlink:href="#DejaVuSans-32"/>
       <use xlink:href="#DejaVuSans-2e" x="63.623047"/>
       <use xlink:href="#DejaVuSans-30" x="95.410156"/>
      </g>
     </g>
    </g>
    <g id="ytick_11">
     <g id="line2d_21">
      <g>
       <use xlink:href="#m02858cc795" x="409.058125" y="110.209234" style="stroke: #000000; stroke-width: 0.8"/>
      </g>
     </g>
     <g id="text_22">
      <!-- 2.5 -->
      <g transform="translate(416.058125 114.008452) scale(0.1 -0.1)">
       <use xlink:href="#DejaVuSans-32"/>
       <use xlink:href="#DejaVuSans-2e" x="63.623047"/>
       <use xlink:href="#DejaVuSans-35" x="95.410156"/>
      </g>
     </g>
    </g>
    <g id="ytick_12">
     <g id="line2d_22">
      <g>
       <use xlink:href="#m02858cc795" x="409.058125" y="78.425663" style="stroke: #000000; stroke-width: 0.8"/>
      </g>
     </g>
     <g id="text_23">
      <!-- 3.0 -->
      <g transform="translate(416.058125 82.224881) scale(0.1 -0.1)">
       <defs>
        <path id="DejaVuSans-33" d="M 2597 2516 
Q 3050 2419 3304 2112 
Q 3559 1806 3559 1356 
Q 3559 666 3084 287 
Q 2609 -91 1734 -91 
Q 1441 -91 1130 -33 
Q 819 25 488 141 
L 488 750 
Q 750 597 1062 519 
Q 1375 441 1716 441 
Q 2309 441 2620 675 
Q 2931 909 2931 1356 
Q 2931 1769 2642 2001 
Q 2353 2234 1838 2234 
L 1294 2234 
L 1294 2753 
L 1863 2753 
Q 2328 2753 2575 2939 
Q 2822 3125 2822 3475 
Q 2822 3834 2567 4026 
Q 2313 4219 1838 4219 
Q 1578 4219 1281 4162 
Q 984 4106 628 3988 
L 628 4550 
Q 988 4650 1302 4700 
Q 1616 4750 1894 4750 
Q 2613 4750 3031 4423 
Q 3450 4097 3450 3541 
Q 3450 3153 3228 2886 
Q 3006 2619 2597 2516 
z
" transform="scale(0.015625)"/>
       </defs>
       <use xlink:href="#DejaVuSans-33"/>
       <use xlink:href="#DejaVuSans-2e" x="63.623047"/>
       <use xlink:href="#DejaVuSans-30" x="95.410156"/>
      </g>
     </g>
    </g>
    <g id="ytick_13">
     <g id="line2d_23">
      <g>
       <use xlink:href="#m02858cc795" x="409.058125" y="46.642092" style="stroke: #000000; stroke-width: 0.8"/>
      </g>
     </g>
     <g id="text_24">
      <!-- 3.5 -->
      <g transform="translate(416.058125 50.441311) scale(0.1 -0.1)">
       <use xlink:href="#DejaVuSans-33"/>
       <use xlink:href="#DejaVuSans-2e" x="63.623047"/>
       <use xlink:href="#DejaVuSans-35" x="95.410156"/>
      </g>
     </g>
    </g>
    <g id="text_25">
     <!-- frequency -->
     <g style="fill: #828231" transform="translate(443.559687 176.509087) rotate(-90) scale(0.1 -0.1)">
      <use xlink:href="#DejaVuSans-66"/>
      <use xlink:href="#DejaVuSans-72" x="35.205078"/>
      <use xlink:href="#DejaVuSans-65" x="74.068359"/>
      <use xlink:href="#DejaVuSans-71" x="135.591797"/>
      <use xlink:href="#DejaVuSans-75" x="199.068359"/>
      <use xlink:href="#DejaVuSans-65" x="262.447266"/>
      <use xlink:href="#DejaVuSans-6e" x="323.970703"/>
      <use xlink:href="#DejaVuSans-63" x="387.349609"/>
      <use xlink:href="#DejaVuSans-79" x="442.330078"/>
     </g>
    </g>
   </g>
   <g id="line2d_24">
    <path d="M 53.328125 34.055798 
L 257.404809 34.119365 
L 259.277072 34.246499 
L 261.149336 34.119365 
L 268.638388 34.119365 
L 272.382914 35.009305 
L 274.255178 35.581409 
L 276.127441 35.327141 
L 277.999704 36.725618 
L 281.74423 37.043453 
L 285.488757 35.962812 
L 287.36102 38.251229 
L 289.233283 37.806259 
L 291.105546 39.713273 
L 292.977809 34.373633 
L 294.850072 34.755036 
L 296.722336 34.882171 
L 298.594599 35.772111 
L 300.466862 35.644976 
L 302.339125 36.534916 
L 304.211388 38.696199 
L 306.083651 38.187662 
L 307.955914 38.378363 
L 309.828178 39.459005 
L 311.700441 39.903975 
L 313.572704 39.967542 
L 315.444967 40.984616 
L 317.31723 36.852752 
L 319.189493 37.234155 
L 321.061757 38.632632 
L 322.93402 38.251229 
L 324.806283 39.713273 
L 326.678546 39.395438 
L 328.550809 40.730348 
L 330.423072 45.942853 
L 332.295336 41.810989 
L 334.167599 42.128825 
L 336.039862 43.463735 
L 337.912125 43.209466 
L 339.784388 49.12121 
L 341.656651 45.56145 
L 343.528914 45.434316 
L 345.401178 45.180048 
L 347.273441 46.45139 
L 351.017967 47.659166 
L 352.89023 47.7863 
L 356.634757 48.803375 
L 358.50702 49.629747 
L 360.379283 49.947583 
L 362.251546 50.710389 
L 364.123809 51.79103 
L 365.996072 52.172433 
L 367.868336 53.189507 
L 369.740599 52.935239 
L 371.612862 52.553836 
L 373.485125 54.46085 
L 375.357388 54.397283 
L 377.229651 55.032955 
L 379.101914 54.969387 
L 380.974178 56.24073 
L 382.846441 57.194237 
L 384.718704 56.304297 
L 386.590967 58.147744 
L 388.46323 58.211312 
L 390.335493 57.893476 
L 392.207757 59.228386 
L 394.08002 60.24546 
L 395.952283 59.736923 
L 401.569072 61.771072 
L 403.441336 61.771072 
L 405.313599 61.643937 
L 407.185862 62.406743 
L 409.058125 62.47031 
L 410.930388 268.809252 
L 410.930388 268.809252 
" clip-path="url(#p97ffc5c06f)" style="fill: none; stroke: #828231; stroke-width: 1.5; stroke-linecap: square"/>
   </g>
   <g id="line2d_25">
    <path d="M 231.193125 280.546925 
L 238.79882 22.318125 
" clip-path="url(#p97ffc5c06f)" style="fill: none; stroke-dasharray: 5.55,2.4; stroke-dashoffset: 0; stroke: #000000; stroke-width: 1.5"/>
   </g>
   <g id="patch_9">
    <path d="M 53.328125 280.546925 
L 53.328125 22.318125 
" style="fill: none; stroke: #000000; stroke-width: 0.8; stroke-linejoin: miter; stroke-linecap: square"/>
   </g>
   <g id="patch_10">
    <path d="M 409.058125 280.546925 
L 409.058125 22.318125 
" style="fill: none; stroke: #000000; stroke-width: 0.8; stroke-linejoin: miter; stroke-linecap: square"/>
   </g>
   <g id="patch_11">
    <path d="M 53.328125 280.546925 
L 409.058125 280.546925 
" style="fill: none; stroke: #000000; stroke-width: 0.8; stroke-linejoin: miter; stroke-linecap: square"/>
   </g>
   <g id="patch_12">
    <path d="M 53.328125 22.318125 
L 409.058125 22.318125 
" style="fill: none; stroke: #000000; stroke-width: 0.8; stroke-linejoin: miter; stroke-linecap: square"/>
   </g>
   <g id="text_26">
    <!-- Development of CPU frequency and points per used vCPU -->
    <g transform="translate(57.608438 16.318125) scale(0.12 -0.12)">
     <defs>
      <path id="DejaVuSans-44" d="M 1259 4147 
L 1259 519 
L 2022 519 
Q 2988 519 3436 956 
Q 3884 1394 3884 2338 
Q 3884 3275 3436 3711 
Q 2988 4147 2022 4147 
L 1259 4147 
z
M 628 4666 
L 1925 4666 
Q 3281 4666 3915 4102 
Q 4550 3538 4550 2338 
Q 4550 1131 3912 565 
Q 3275 0 1925 0 
L 628 0 
L 628 4666 
z
" transform="scale(0.015625)"/>
      <path id="DejaVuSans-6c" d="M 603 4863 
L 1178 4863 
L 1178 0 
L 603 0 
L 603 4863 
z
" transform="scale(0.015625)"/>
      <path id="DejaVuSans-6d" d="M 3328 2828 
Q 3544 3216 3844 3400 
Q 4144 3584 4550 3584 
Q 5097 3584 5394 3201 
Q 5691 2819 5691 2113 
L 5691 0 
L 5113 0 
L 5113 2094 
Q 5113 2597 4934 2840 
Q 4756 3084 4391 3084 
Q 3944 3084 3684 2787 
Q 3425 2491 3425 1978 
L 3425 0 
L 2847 0 
L 2847 2094 
Q 2847 2600 2669 2842 
Q 2491 3084 2119 3084 
Q 1678 3084 1418 2786 
Q 1159 2488 1159 1978 
L 1159 0 
L 581 0 
L 581 3500 
L 1159 3500 
L 1159 2956 
Q 1356 3278 1631 3431 
Q 1906 3584 2284 3584 
Q 2666 3584 2933 3390 
Q 3200 3197 3328 2828 
z
" transform="scale(0.015625)"/>
      <path id="DejaVuSans-61" d="M 2194 1759 
Q 1497 1759 1228 1600 
Q 959 1441 959 1056 
Q 959 750 1161 570 
Q 1363 391 1709 391 
Q 2188 391 2477 730 
Q 2766 1069 2766 1631 
L 2766 1759 
L 2194 1759 
z
M 3341 1997 
L 3341 0 
L 2766 0 
L 2766 531 
Q 2569 213 2275 61 
Q 1981 -91 1556 -91 
Q 1019 -91 701 211 
Q 384 513 384 1019 
Q 384 1609 779 1909 
Q 1175 2209 1959 2209 
L 2766 2209 
L 2766 2266 
Q 2766 2663 2505 2880 
Q 2244 3097 1772 3097 
Q 1472 3097 1187 3025 
Q 903 2953 641 2809 
L 641 3341 
Q 956 3463 1253 3523 
Q 1550 3584 1831 3584 
Q 2591 3584 2966 3190 
Q 3341 2797 3341 1997 
z
" transform="scale(0.015625)"/>
      <path id="DejaVuSans-69" d="M 603 3500 
L 1178 3500 
L 1178 0 
L 603 0 
L 603 3500 
z
M 603 4863 
L 1178 4863 
L 1178 4134 
L 603 4134 
L 603 4863 
z
" transform="scale(0.015625)"/>
     </defs>
     <use xlink:href="#DejaVuSans-44"/>
     <use xlink:href="#DejaVuSans-65" x="77.001953"/>
     <use xlink:href="#DejaVuSans-76" x="138.525391"/>
     <use xlink:href="#DejaVuSans-65" x="197.705078"/>
     <use xlink:href="#DejaVuSans-6c" x="259.228516"/>
     <use xlink:href="#DejaVuSans-6f" x="287.011719"/>
     <use xlink:href="#DejaVuSans-70" x="348.193359"/>
     <use xlink:href="#DejaVuSans-6d" x="411.669922"/>
     <use xlink:href="#DejaVuSans-65" x="509.082031"/>
     <use xlink:href="#DejaVuSans-6e" x="570.605469"/>
     <use xlink:href="#DejaVuSans-74" x="633.984375"/>
     <use xlink:href="#DejaVuSans-20" x="673.193359"/>
     <use xlink:href="#DejaVuSans-6f" x="704.980469"/>
     <use xlink:href="#DejaVuSans-66" x="766.162109"/>
     <use xlink:href="#DejaVuSans-20" x="801.367188"/>
     <use xlink:href="#DejaVuSans-43" x="833.154297"/>
     <use xlink:href="#DejaVuSans-50" x="902.978516"/>
     <use xlink:href="#DejaVuSans-55" x="963.28125"/>
     <use xlink:href="#DejaVuSans-20" x="1036.474609"/>
     <use xlink:href="#DejaVuSans-66" x="1068.261719"/>
     <use xlink:href="#DejaVuSans-72" x="1103.466797"/>
     <use xlink:href="#DejaVuSans-65" x="1142.330078"/>
     <use xlink:href="#DejaVuSans-71" x="1203.853516"/>
     <use xlink:href="#DejaVuSans-75" x="1267.330078"/>
     <use xlink:href="#DejaVuSans-65" x="1330.708984"/>
     <use xlink:href="#DejaVuSans-6e" x="1392.232422"/>
     <use xlink:href="#DejaVuSans-63" x="1455.611328"/>
     <use xlink:href="#DejaVuSans-79" x="1510.591797"/>
     <use xlink:href="#DejaVuSans-20" x="1569.771484"/>
     <use xlink:href="#DejaVuSans-61" x="1601.558594"/>
     <use xlink:href="#DejaVuSans-6e" x="1662.837891"/>
     <use xlink:href="#DejaVuSans-64" x="1726.216797"/>
     <use xlink:href="#DejaVuSans-20" x="1789.693359"/>
     <use xlink:href="#DejaVuSans-70" x="1821.480469"/>
     <use xlink:href="#DejaVuSans-6f" x="1884.957031"/>
     <use xlink:href="#DejaVuSans-69" x="1946.138672"/>
     <use xlink:href="#DejaVuSans-6e" x="1973.921875"/>
     <use xlink:href="#DejaVuSans-74" x="2037.300781"/>
     <use xlink:href="#DejaVuSans-73" x="2076.509766"/>
     <use xlink:href="#DejaVuSans-20" x="2128.609375"/>
     <use xlink:href="#DejaVuSans-70" x="2160.396484"/>
     <use xlink:href="#DejaVuSans-65" x="2223.873047"/>
     <use xlink:href="#DejaVuSans-72" x="2285.396484"/>
     <use xlink:href="#DejaVuSans-20" x="2326.509766"/>
     <use xlink:href="#DejaVuSans-75" x="2358.296875"/>
     <use xlink:href="#DejaVuSans-73" x="2421.675781"/>
     <use xlink:href="#DejaVuSans-65" x="2473.775391"/>
     <use xlink:href="#DejaVuSans-64" x="2535.298828"/>
     <use xlink:href="#DejaVuSans-20" x="2598.775391"/>
     <use xlink:href="#DejaVuSans-76" x="2630.5625"/>
     <use xlink:href="#DejaVuSans-43" x="2689.742188"/>
     <use xlink:href="#DejaVuSans-50" x="2759.566406"/>
     <use xlink:href="#DejaVuSans-55" x="2819.869141"/>
    </g>
   </g>
  </g>
 </g>
 <defs>
  <clipPath id="p97ffc5c06f">
   <rect x="53.328125" y="22.318125" width="355.73" height="258.2288"/>
  </clipPath>
 </defs>
</svg>
