<?xml version="1.0" encoding="utf-8" standalone="no"?>
<!DOCTYPE svg PUBLIC "-//W3C//DTD SVG 1.1//EN"
  "http://www.w3.org/Graphics/SVG/1.1/DTD/svg11.dtd">
<svg xmlns:xlink="http://www.w3.org/1999/xlink" width="453.295625pt" height="336.24793pt" viewBox="0 0 453.295625 336.24793" xmlns="http://www.w3.org/2000/svg" version="1.1">
 <metadata>
  <rdf:RDF xmlns:dc="http://purl.org/dc/elements/1.1/" xmlns:cc="http://creativecommons.org/ns#" xmlns:rdf="http://www.w3.org/1999/02/22-rdf-syntax-ns#">
   <cc:Work>
    <dc:type rdf:resource="http://purl.org/dc/dcmitype/StillImage"/>
    <dc:date>2024-04-14T03:53:10.722830</dc:date>
    <dc:format>image/svg+xml</dc:format>
    <dc:creator>
     <cc:Agent>
      <dc:title>Matplotlib v3.8.2, https://matplotlib.org/</dc:title>
     </cc:Agent>
    </dc:creator>
   </cc:Work>
  </rdf:RDF>
 </metadata>
 <defs>
  <style type="text/css">*{stroke-linejoin: round; stroke-linecap: butt}</style>
 </defs>
 <g id="figure_1">
  <g id="patch_1">
   <path d="M 0 336.24793 
L 453.295625 336.24793 
L 453.295625 0 
L 0 0 
z
" style="fill: #ffffff"/>
  </g>
  <g id="axes_1">
   <g id="patch_2">
    <path d="M 46.965625 280.546925 
L 446.095625 280.546925 
L 446.095625 22.318125 
L 46.965625 22.318125 
z
" style="fill: #ffffff"/>
   </g>
   <g id="matplotlib.axis_1">
    <g id="xtick_1">
     <g id="line2d_1">
      <defs>
       <path id="mb1ccae91bd" d="M 0 0 
L 0 3.5 
" style="stroke: #000000; stroke-width: 0.8"/>
      </defs>
      <g>
       <use xlink:href="#mb1ccae91bd" x="97.382046" y="280.546925" style="stroke: #000000; stroke-width: 0.8"/>
      </g>
     </g>
     <g id="text_1">
      <!-- 25 -->
      <g transform="translate(91.019546 295.145362) scale(0.1 -0.1)">
       <defs>
        <path id="DejaVuSans-32" d="M 1228 531 
L 3431 531 
L 3431 0 
L 469 0 
L 469 531 
Q 828 903 1448 1529 
Q 2069 2156 2228 2338 
Q 2531 2678 2651 2914 
Q 2772 3150 2772 3378 
Q 2772 3750 2511 3984 
Q 2250 4219 1831 4219 
Q 1534 4219 1204 4116 
Q 875 4013 500 3803 
L 500 4441 
Q 881 4594 1212 4672 
Q 1544 4750 1819 4750 
Q 2544 4750 2975 4387 
Q 3406 4025 3406 3419 
Q 3406 3131 3298 2873 
Q 3191 2616 2906 2266 
Q 2828 2175 2409 1742 
Q 1991 1309 1228 531 
z
" transform="scale(0.015625)"/>
        <path id="DejaVuSans-35" d="M 691 4666 
L 3169 4666 
L 3169 4134 
L 1269 4134 
L 1269 2991 
Q 1406 3038 1543 3061 
Q 1681 3084 1819 3084 
Q 2600 3084 3056 2656 
Q 3513 2228 3513 1497 
Q 3513 744 3044 326 
Q 2575 -91 1722 -91 
Q 1428 -91 1123 -41 
Q 819 9 494 109 
L 494 744 
Q 775 591 1075 516 
Q 1375 441 1709 441 
Q 2250 441 2565 725 
Q 2881 1009 2881 1497 
Q 2881 1984 2565 2268 
Q 2250 2553 1709 2553 
Q 1456 2553 1204 2497 
Q 953 2441 691 2322 
L 691 4666 
z
" transform="scale(0.015625)"/>
       </defs>
       <use xlink:href="#DejaVuSans-32"/>
       <use xlink:href="#DejaVuSans-35" x="63.623047"/>
      </g>
     </g>
    </g>
    <g id="xtick_2">
     <g id="line2d_2">
      <g>
       <use xlink:href="#mb1ccae91bd" x="149.899151" y="280.546925" style="stroke: #000000; stroke-width: 0.8"/>
      </g>
     </g>
     <g id="text_2">
      <!-- 50 -->
      <g transform="translate(143.536651 295.145362) scale(0.1 -0.1)">
       <defs>
        <path id="DejaVuSans-30" d="M 2034 4250 
Q 1547 4250 1301 3770 
Q 1056 3291 1056 2328 
Q 1056 1369 1301 889 
Q 1547 409 2034 409 
Q 2525 409 2770 889 
Q 3016 1369 3016 2328 
Q 3016 3291 2770 3770 
Q 2525 4250 2034 4250 
z
M 2034 4750 
Q 2819 4750 3233 4129 
Q 3647 3509 3647 2328 
Q 3647 1150 3233 529 
Q 2819 -91 2034 -91 
Q 1250 -91 836 529 
Q 422 1150 422 2328 
Q 422 3509 836 4129 
Q 1250 4750 2034 4750 
z
" transform="scale(0.015625)"/>
       </defs>
       <use xlink:href="#DejaVuSans-35"/>
       <use xlink:href="#DejaVuSans-30" x="63.623047"/>
      </g>
     </g>
    </g>
    <g id="xtick_3">
     <g id="line2d_3">
      <g>
       <use xlink:href="#mb1ccae91bd" x="202.416257" y="280.546925" style="stroke: #000000; stroke-width: 0.8"/>
      </g>
     </g>
     <g id="text_3">
      <!-- 75 -->
      <g transform="translate(196.053757 295.145362) scale(0.1 -0.1)">
       <defs>
        <path id="DejaVuSans-37" d="M 525 4666 
L 3525 4666 
L 3525 4397 
L 1831 0 
L 1172 0 
L 2766 4134 
L 525 4134 
L 525 4666 
z
" transform="scale(0.015625)"/>
       </defs>
       <use xlink:href="#DejaVuSans-37"/>
       <use xlink:href="#DejaVuSans-35" x="63.623047"/>
      </g>
     </g>
    </g>
    <g id="xtick_4">
     <g id="line2d_4">
      <g>
       <use xlink:href="#mb1ccae91bd" x="254.933362" y="280.546925" style="stroke: #000000; stroke-width: 0.8"/>
      </g>
     </g>
     <g id="text_4">
      <!-- 100 -->
      <g transform="translate(245.389612 295.145362) scale(0.1 -0.1)">
       <defs>
        <path id="DejaVuSans-31" d="M 794 531 
L 1825 531 
L 1825 4091 
L 703 3866 
L 703 4441 
L 1819 4666 
L 2450 4666 
L 2450 531 
L 3481 531 
L 3481 0 
L 794 0 
L 794 531 
z
" transform="scale(0.015625)"/>
       </defs>
       <use xlink:href="#DejaVuSans-31"/>
       <use xlink:href="#DejaVuSans-30" x="63.623047"/>
       <use xlink:href="#DejaVuSans-30" x="127.246094"/>
      </g>
     </g>
    </g>
    <g id="xtick_5">
     <g id="line2d_5">
      <g>
       <use xlink:href="#mb1ccae91bd" x="307.450467" y="280.546925" style="stroke: #000000; stroke-width: 0.8"/>
      </g>
     </g>
     <g id="text_5">
      <!-- 125 -->
      <g transform="translate(297.906717 295.145362) scale(0.1 -0.1)">
       <use xlink:href="#DejaVuSans-31"/>
       <use xlink:href="#DejaVuSans-32" x="63.623047"/>
       <use xlink:href="#DejaVuSans-35" x="127.246094"/>
      </g>
     </g>
    </g>
    <g id="xtick_6">
     <g id="line2d_6">
      <g>
       <use xlink:href="#mb1ccae91bd" x="359.967572" y="280.546925" style="stroke: #000000; stroke-width: 0.8"/>
      </g>
     </g>
     <g id="text_6">
      <!-- 150 -->
      <g transform="translate(350.423822 295.145362) scale(0.1 -0.1)">
       <use xlink:href="#DejaVuSans-31"/>
       <use xlink:href="#DejaVuSans-35" x="63.623047"/>
       <use xlink:href="#DejaVuSans-30" x="127.246094"/>
      </g>
     </g>
    </g>
    <g id="xtick_7">
     <g id="line2d_7">
      <g>
       <use xlink:href="#mb1ccae91bd" x="412.484678" y="280.546925" style="stroke: #000000; stroke-width: 0.8"/>
      </g>
     </g>
     <g id="text_7">
      <!-- 175 -->
      <g transform="translate(402.940928 295.145362) scale(0.1 -0.1)">
       <use xlink:href="#DejaVuSans-31"/>
       <use xlink:href="#DejaVuSans-37" x="63.623047"/>
       <use xlink:href="#DejaVuSans-35" x="127.246094"/>
      </g>
     </g>
    </g>
    <g id="text_8">
     <!-- used vCPU -->
     <g transform="translate(219.792344 308.823487) scale(0.1 -0.1)">
      <defs>
       <path id="DejaVuSans-75" d="M 544 1381 
L 544 3500 
L 1119 3500 
L 1119 1403 
Q 1119 906 1312 657 
Q 1506 409 1894 409 
Q 2359 409 2629 706 
Q 2900 1003 2900 1516 
L 2900 3500 
L 3475 3500 
L 3475 0 
L 2900 0 
L 2900 538 
Q 2691 219 2414 64 
Q 2138 -91 1772 -91 
Q 1169 -91 856 284 
Q 544 659 544 1381 
z
M 1991 3584 
L 1991 3584 
z
" transform="scale(0.015625)"/>
       <path id="DejaVuSans-73" d="M 2834 3397 
L 2834 2853 
Q 2591 2978 2328 3040 
Q 2066 3103 1784 3103 
Q 1356 3103 1142 2972 
Q 928 2841 928 2578 
Q 928 2378 1081 2264 
Q 1234 2150 1697 2047 
L 1894 2003 
Q 2506 1872 2764 1633 
Q 3022 1394 3022 966 
Q 3022 478 2636 193 
Q 2250 -91 1575 -91 
Q 1294 -91 989 -36 
Q 684 19 347 128 
L 347 722 
Q 666 556 975 473 
Q 1284 391 1588 391 
Q 1994 391 2212 530 
Q 2431 669 2431 922 
Q 2431 1156 2273 1281 
Q 2116 1406 1581 1522 
L 1381 1569 
Q 847 1681 609 1914 
Q 372 2147 372 2553 
Q 372 3047 722 3315 
Q 1072 3584 1716 3584 
Q 2034 3584 2315 3537 
Q 2597 3491 2834 3397 
z
" transform="scale(0.015625)"/>
       <path id="DejaVuSans-65" d="M 3597 1894 
L 3597 1613 
L 953 1613 
Q 991 1019 1311 708 
Q 1631 397 2203 397 
Q 2534 397 2845 478 
Q 3156 559 3463 722 
L 3463 178 
Q 3153 47 2828 -22 
Q 2503 -91 2169 -91 
Q 1331 -91 842 396 
Q 353 884 353 1716 
Q 353 2575 817 3079 
Q 1281 3584 2069 3584 
Q 2775 3584 3186 3129 
Q 3597 2675 3597 1894 
z
M 3022 2063 
Q 3016 2534 2758 2815 
Q 2500 3097 2075 3097 
Q 1594 3097 1305 2825 
Q 1016 2553 972 2059 
L 3022 2063 
z
" transform="scale(0.015625)"/>
       <path id="DejaVuSans-64" d="M 2906 2969 
L 2906 4863 
L 3481 4863 
L 3481 0 
L 2906 0 
L 2906 525 
Q 2725 213 2448 61 
Q 2172 -91 1784 -91 
Q 1150 -91 751 415 
Q 353 922 353 1747 
Q 353 2572 751 3078 
Q 1150 3584 1784 3584 
Q 2172 3584 2448 3432 
Q 2725 3281 2906 2969 
z
M 947 1747 
Q 947 1113 1208 752 
Q 1469 391 1925 391 
Q 2381 391 2643 752 
Q 2906 1113 2906 1747 
Q 2906 2381 2643 2742 
Q 2381 3103 1925 3103 
Q 1469 3103 1208 2742 
Q 947 2381 947 1747 
z
" transform="scale(0.015625)"/>
       <path id="DejaVuSans-20" transform="scale(0.015625)"/>
       <path id="DejaVuSans-76" d="M 191 3500 
L 800 3500 
L 1894 563 
L 2988 3500 
L 3597 3500 
L 2284 0 
L 1503 0 
L 191 3500 
z
" transform="scale(0.015625)"/>
       <path id="DejaVuSans-43" d="M 4122 4306 
L 4122 3641 
Q 3803 3938 3442 4084 
Q 3081 4231 2675 4231 
Q 1875 4231 1450 3742 
Q 1025 3253 1025 2328 
Q 1025 1406 1450 917 
Q 1875 428 2675 428 
Q 3081 428 3442 575 
Q 3803 722 4122 1019 
L 4122 359 
Q 3791 134 3420 21 
Q 3050 -91 2638 -91 
Q 1578 -91 968 557 
Q 359 1206 359 2328 
Q 359 3453 968 4101 
Q 1578 4750 2638 4750 
Q 3056 4750 3426 4639 
Q 3797 4528 4122 4306 
z
" transform="scale(0.015625)"/>
       <path id="DejaVuSans-50" d="M 1259 4147 
L 1259 2394 
L 2053 2394 
Q 2494 2394 2734 2622 
Q 2975 2850 2975 3272 
Q 2975 3691 2734 3919 
Q 2494 4147 2053 4147 
L 1259 4147 
z
M 628 4666 
L 2053 4666 
Q 2838 4666 3239 4311 
Q 3641 3956 3641 3272 
Q 3641 2581 3239 2228 
Q 2838 1875 2053 1875 
L 1259 1875 
L 1259 0 
L 628 0 
L 628 4666 
z
" transform="scale(0.015625)"/>
       <path id="DejaVuSans-55" d="M 556 4666 
L 1191 4666 
L 1191 1831 
Q 1191 1081 1462 751 
Q 1734 422 2344 422 
Q 2950 422 3222 751 
Q 3494 1081 3494 1831 
L 3494 4666 
L 4128 4666 
L 4128 1753 
Q 4128 841 3676 375 
Q 3225 -91 2344 -91 
Q 1459 -91 1007 375 
Q 556 841 556 1753 
L 556 4666 
z
" transform="scale(0.015625)"/>
      </defs>
      <use xlink:href="#DejaVuSans-75"/>
      <use xlink:href="#DejaVuSans-73" x="63.378906"/>
      <use xlink:href="#DejaVuSans-65" x="115.478516"/>
      <use xlink:href="#DejaVuSans-64" x="177.001953"/>
      <use xlink:href="#DejaVuSans-20" x="240.478516"/>
      <use xlink:href="#DejaVuSans-76" x="272.265625"/>
      <use xlink:href="#DejaVuSans-43" x="331.445312"/>
      <use xlink:href="#DejaVuSans-50" x="401.269531"/>
      <use xlink:href="#DejaVuSans-55" x="461.572266"/>
     </g>
    </g>
   </g>
   <g id="matplotlib.axis_2">
    <g id="ytick_1">
     <g id="line2d_8">
      <defs>
       <path id="m90608bd932" d="M 0 0 
L -3.5 0 
" style="stroke: #000000; stroke-width: 0.8"/>
      </defs>
      <g>
       <use xlink:href="#m90608bd932" x="46.965625" y="259.027858" style="stroke: #000000; stroke-width: 0.8"/>
      </g>
     </g>
     <g id="text_9">
      <!-- 80 -->
      <g transform="translate(27.240625 262.827077) scale(0.1 -0.1)">
       <defs>
        <path id="DejaVuSans-38" d="M 2034 2216 
Q 1584 2216 1326 1975 
Q 1069 1734 1069 1313 
Q 1069 891 1326 650 
Q 1584 409 2034 409 
Q 2484 409 2743 651 
Q 3003 894 3003 1313 
Q 3003 1734 2745 1975 
Q 2488 2216 2034 2216 
z
M 1403 2484 
Q 997 2584 770 2862 
Q 544 3141 544 3541 
Q 544 4100 942 4425 
Q 1341 4750 2034 4750 
Q 2731 4750 3128 4425 
Q 3525 4100 3525 3541 
Q 3525 3141 3298 2862 
Q 3072 2584 2669 2484 
Q 3125 2378 3379 2068 
Q 3634 1759 3634 1313 
Q 3634 634 3220 271 
Q 2806 -91 2034 -91 
Q 1263 -91 848 271 
Q 434 634 434 1313 
Q 434 1759 690 2068 
Q 947 2378 1403 2484 
z
M 1172 3481 
Q 1172 3119 1398 2916 
Q 1625 2713 2034 2713 
Q 2441 2713 2670 2916 
Q 2900 3119 2900 3481 
Q 2900 3844 2670 4047 
Q 2441 4250 2034 4250 
Q 1625 4250 1398 4047 
Q 1172 3844 1172 3481 
z
" transform="scale(0.015625)"/>
       </defs>
       <use xlink:href="#DejaVuSans-38"/>
       <use xlink:href="#DejaVuSans-30" x="63.623047"/>
      </g>
     </g>
    </g>
    <g id="ytick_2">
     <g id="line2d_9">
      <g>
       <use xlink:href="#m90608bd932" x="46.965625" y="205.230192" style="stroke: #000000; stroke-width: 0.8"/>
      </g>
     </g>
     <g id="text_10">
      <!-- 85 -->
      <g transform="translate(27.240625 209.02941) scale(0.1 -0.1)">
       <use xlink:href="#DejaVuSans-38"/>
       <use xlink:href="#DejaVuSans-35" x="63.623047"/>
      </g>
     </g>
    </g>
    <g id="ytick_3">
     <g id="line2d_10">
      <g>
       <use xlink:href="#m90608bd932" x="46.965625" y="151.432525" style="stroke: #000000; stroke-width: 0.8"/>
      </g>
     </g>
     <g id="text_11">
      <!-- 90 -->
      <g transform="translate(27.240625 155.231744) scale(0.1 -0.1)">
       <defs>
        <path id="DejaVuSans-39" d="M 703 97 
L 703 672 
Q 941 559 1184 500 
Q 1428 441 1663 441 
Q 2288 441 2617 861 
Q 2947 1281 2994 2138 
Q 2813 1869 2534 1725 
Q 2256 1581 1919 1581 
Q 1219 1581 811 2004 
Q 403 2428 403 3163 
Q 403 3881 828 4315 
Q 1253 4750 1959 4750 
Q 2769 4750 3195 4129 
Q 3622 3509 3622 2328 
Q 3622 1225 3098 567 
Q 2575 -91 1691 -91 
Q 1453 -91 1209 -44 
Q 966 3 703 97 
z
M 1959 2075 
Q 2384 2075 2632 2365 
Q 2881 2656 2881 3163 
Q 2881 3666 2632 3958 
Q 2384 4250 1959 4250 
Q 1534 4250 1286 3958 
Q 1038 3666 1038 3163 
Q 1038 2656 1286 2365 
Q 1534 2075 1959 2075 
z
" transform="scale(0.015625)"/>
       </defs>
       <use xlink:href="#DejaVuSans-39"/>
       <use xlink:href="#DejaVuSans-30" x="63.623047"/>
      </g>
     </g>
    </g>
    <g id="ytick_4">
     <g id="line2d_11">
      <g>
       <use xlink:href="#m90608bd932" x="46.965625" y="97.634858" style="stroke: #000000; stroke-width: 0.8"/>
      </g>
     </g>
     <g id="text_12">
      <!-- 95 -->
      <g transform="translate(27.240625 101.434077) scale(0.1 -0.1)">
       <use xlink:href="#DejaVuSans-39"/>
       <use xlink:href="#DejaVuSans-35" x="63.623047"/>
      </g>
     </g>
    </g>
    <g id="ytick_5">
     <g id="line2d_12">
      <g>
       <use xlink:href="#m90608bd932" x="46.965625" y="43.837192" style="stroke: #000000; stroke-width: 0.8"/>
      </g>
     </g>
     <g id="text_13">
      <!-- 100 -->
      <g transform="translate(20.878125 47.63641) scale(0.1 -0.1)">
       <use xlink:href="#DejaVuSans-31"/>
       <use xlink:href="#DejaVuSans-30" x="63.623047"/>
       <use xlink:href="#DejaVuSans-30" x="127.246094"/>
      </g>
     </g>
    </g>
    <g id="text_14">
     <!-- % of max -->
     <g transform="translate(14.798437 175.074712) rotate(-90) scale(0.1 -0.1)">
      <defs>
       <path id="DejaVuSans-25" d="M 4653 2053 
Q 4381 2053 4226 1822 
Q 4072 1591 4072 1178 
Q 4072 772 4226 539 
Q 4381 306 4653 306 
Q 4919 306 5073 539 
Q 5228 772 5228 1178 
Q 5228 1588 5073 1820 
Q 4919 2053 4653 2053 
z
M 4653 2450 
Q 5147 2450 5437 2106 
Q 5728 1763 5728 1178 
Q 5728 594 5436 251 
Q 5144 -91 4653 -91 
Q 4153 -91 3862 251 
Q 3572 594 3572 1178 
Q 3572 1766 3864 2108 
Q 4156 2450 4653 2450 
z
M 1428 4353 
Q 1159 4353 1004 4120 
Q 850 3888 850 3481 
Q 850 3069 1003 2837 
Q 1156 2606 1428 2606 
Q 1700 2606 1854 2837 
Q 2009 3069 2009 3481 
Q 2009 3884 1853 4118 
Q 1697 4353 1428 4353 
z
M 4250 4750 
L 4750 4750 
L 1831 -91 
L 1331 -91 
L 4250 4750 
z
M 1428 4750 
Q 1922 4750 2215 4408 
Q 2509 4066 2509 3481 
Q 2509 2891 2217 2550 
Q 1925 2209 1428 2209 
Q 931 2209 642 2551 
Q 353 2894 353 3481 
Q 353 4063 643 4406 
Q 934 4750 1428 4750 
z
" transform="scale(0.015625)"/>
       <path id="DejaVuSans-6f" d="M 1959 3097 
Q 1497 3097 1228 2736 
Q 959 2375 959 1747 
Q 959 1119 1226 758 
Q 1494 397 1959 397 
Q 2419 397 2687 759 
Q 2956 1122 2956 1747 
Q 2956 2369 2687 2733 
Q 2419 3097 1959 3097 
z
M 1959 3584 
Q 2709 3584 3137 3096 
Q 3566 2609 3566 1747 
Q 3566 888 3137 398 
Q 2709 -91 1959 -91 
Q 1206 -91 779 398 
Q 353 888 353 1747 
Q 353 2609 779 3096 
Q 1206 3584 1959 3584 
z
" transform="scale(0.015625)"/>
       <path id="DejaVuSans-66" d="M 2375 4863 
L 2375 4384 
L 1825 4384 
Q 1516 4384 1395 4259 
Q 1275 4134 1275 3809 
L 1275 3500 
L 2222 3500 
L 2222 3053 
L 1275 3053 
L 1275 0 
L 697 0 
L 697 3053 
L 147 3053 
L 147 3500 
L 697 3500 
L 697 3744 
Q 697 4328 969 4595 
Q 1241 4863 1831 4863 
L 2375 4863 
z
" transform="scale(0.015625)"/>
       <path id="DejaVuSans-6d" d="M 3328 2828 
Q 3544 3216 3844 3400 
Q 4144 3584 4550 3584 
Q 5097 3584 5394 3201 
Q 5691 2819 5691 2113 
L 5691 0 
L 5113 0 
L 5113 2094 
Q 5113 2597 4934 2840 
Q 4756 3084 4391 3084 
Q 3944 3084 3684 2787 
Q 3425 2491 3425 1978 
L 3425 0 
L 2847 0 
L 2847 2094 
Q 2847 2600 2669 2842 
Q 2491 3084 2119 3084 
Q 1678 3084 1418 2786 
Q 1159 2488 1159 1978 
L 1159 0 
L 581 0 
L 581 3500 
L 1159 3500 
L 1159 2956 
Q 1356 3278 1631 3431 
Q 1906 3584 2284 3584 
Q 2666 3584 2933 3390 
Q 3200 3197 3328 2828 
z
" transform="scale(0.015625)"/>
       <path id="DejaVuSans-61" d="M 2194 1759 
Q 1497 1759 1228 1600 
Q 959 1441 959 1056 
Q 959 750 1161 570 
Q 1363 391 1709 391 
Q 2188 391 2477 730 
Q 2766 1069 2766 1631 
L 2766 1759 
L 2194 1759 
z
M 3341 1997 
L 3341 0 
L 2766 0 
L 2766 531 
Q 2569 213 2275 61 
Q 1981 -91 1556 -91 
Q 1019 -91 701 211 
Q 384 513 384 1019 
Q 384 1609 779 1909 
Q 1175 2209 1959 2209 
L 2766 2209 
L 2766 2266 
Q 2766 2663 2505 2880 
Q 2244 3097 1772 3097 
Q 1472 3097 1187 3025 
Q 903 2953 641 2809 
L 641 3341 
Q 956 3463 1253 3523 
Q 1550 3584 1831 3584 
Q 2591 3584 2966 3190 
Q 3341 2797 3341 1997 
z
" transform="scale(0.015625)"/>
       <path id="DejaVuSans-78" d="M 3513 3500 
L 2247 1797 
L 3578 0 
L 2900 0 
L 1881 1375 
L 863 0 
L 184 0 
L 1544 1831 
L 300 3500 
L 978 3500 
L 1906 2253 
L 2834 3500 
L 3513 3500 
z
" transform="scale(0.015625)"/>
      </defs>
      <use xlink:href="#DejaVuSans-25"/>
      <use xlink:href="#DejaVuSans-20" x="95.019531"/>
      <use xlink:href="#DejaVuSans-6f" x="126.806641"/>
      <use xlink:href="#DejaVuSans-66" x="187.988281"/>
      <use xlink:href="#DejaVuSans-20" x="223.193359"/>
      <use xlink:href="#DejaVuSans-6d" x="254.980469"/>
      <use xlink:href="#DejaVuSans-61" x="352.392578"/>
      <use xlink:href="#DejaVuSans-78" x="413.671875"/>
     </g>
    </g>
   </g>
   <g id="line2d_13">
    <path d="M 46.965625 43.933953 
L 49.066309 43.837192 
L 51.166993 45.589646 
L 53.267678 44.530648 
L 55.368362 44.127476 
L 57.469046 43.987709 
L 59.56973 44.459229 
L 61.670414 44.038778 
L 63.771099 43.955455 
L 65.871783 44.211335 
L 67.972467 44.244762 
L 70.073151 44.546774 
L 72.173836 44.06793 
L 74.27452 44.307175 
L 78.475888 44.216173 
L 80.576572 44.415862 
L 86.878625 44.25004 
L 88.979309 45.187242 
L 91.079993 44.936752 
L 93.180678 44.21442 
L 95.281362 44.304871 
L 97.382046 46.336213 
L 99.48273 44.296188 
L 101.583414 44.672206 
L 103.684099 44.632017 
L 105.784783 44.216451 
L 107.885467 45.1897 
L 109.986151 44.402153 
L 112.086836 44.355268 
L 114.18752 44.168526 
L 116.288204 44.783935 
L 118.388888 44.427896 
L 120.489572 44.381922 
L 122.590257 44.204187 
L 124.690941 45.855598 
L 126.791625 44.610455 
L 130.992993 44.220303 
L 135.194362 44.667539 
L 137.295046 44.561435 
L 139.39573 44.316698 
L 141.496414 44.528544 
L 143.597099 44.347076 
L 145.697783 44.572309 
L 147.798467 44.14459 
L 149.899151 44.496459 
L 151.999836 44.304555 
L 154.10052 44.627409 
L 156.201204 44.311261 
L 158.301888 44.143005 
L 160.402572 44.804218 
L 162.503257 44.383202 
L 164.603941 44.650326 
L 166.704625 44.313213 
L 168.805309 44.512334 
L 170.905993 44.348951 
L 173.006678 44.452128 
L 175.107362 45.451961 
L 177.208046 44.409056 
L 179.30873 44.259514 
L 181.409414 44.285271 
L 183.510099 44.489109 
L 185.610783 45.252025 
L 187.711467 44.825675 
L 189.812151 45.154922 
L 191.912836 44.324684 
L 194.01352 44.430934 
L 198.214888 44.5048 
L 200.315572 44.566824 
L 202.416257 44.742447 
L 204.516941 44.369379 
L 206.617625 44.604999 
L 208.718309 44.349944 
L 210.818993 44.47206 
L 212.919678 44.463721 
L 215.020362 45.126148 
L 217.121046 44.544414 
L 219.22173 44.481101 
L 221.322414 44.673486 
L 223.423099 44.601796 
L 225.523783 44.825057 
L 227.624467 44.517487 
L 236.027204 44.503888 
L 238.127888 44.310481 
L 240.228572 45.267109 
L 242.329257 44.577656 
L 246.530625 44.763815 
L 248.631309 45.152946 
L 252.832678 44.640278 
L 254.933362 44.584189 
L 259.13473 44.741562 
L 261.235414 44.445003 
L 263.336099 44.835818 
L 265.436783 44.623262 
L 269.638151 44.887097 
L 271.738836 44.765981 
L 273.83952 45.678023 
L 275.940204 44.705111 
L 278.040888 44.677824 
L 280.141572 45.017334 
L 282.242257 44.539068 
L 284.342941 44.81499 
L 286.443625 44.58632 
L 288.544309 44.689136 
L 290.644993 45.323346 
L 292.745678 45.384279 
L 294.846362 45.881647 
L 296.947046 46.064852 
L 299.04773 46.804805 
L 301.148414 48.090987 
L 303.249099 48.493009 
L 305.349783 46.811821 
L 307.450467 46.830599 
L 309.551151 47.857649 
L 311.651836 46.942442 
L 313.75252 49.015433 
L 315.853204 45.1906 
L 317.953888 45.672183 
L 320.054572 45.624444 
L 322.155257 46.750293 
L 324.255941 47.253908 
L 326.356625 48.274732 
L 328.457309 50.907934 
L 330.557993 51.293503 
L 332.658678 53.347815 
L 334.759362 54.198129 
L 336.860046 54.658446 
L 338.96073 54.872126 
L 341.061414 54.607433 
L 343.162099 48.931924 
L 345.262783 49.543852 
L 347.363467 50.515961 
L 349.464151 51.34876 
L 351.564836 54.110678 
L 353.66552 54.471938 
L 355.766204 55.173954 
L 357.866888 62.319465 
L 359.967572 58.409873 
L 362.068257 60.346634 
L 366.269625 62.343053 
L 368.370309 67.373224 
L 370.470993 63.092273 
L 372.571678 65.051485 
L 374.672362 63.386876 
L 376.773046 64.08929 
L 378.87373 66.984238 
L 380.974414 66.64141 
L 383.075099 68.28855 
L 385.175783 69.016232 
L 387.276467 70.532821 
L 389.377151 72.264952 
L 391.477836 73.549164 
L 393.57852 73.861949 
L 395.679204 76.892279 
L 397.779888 79.644246 
L 399.880572 78.951999 
L 404.081941 79.882754 
L 406.182625 81.90676 
L 408.283309 83.133277 
L 410.383993 83.845577 
L 412.484678 84.901026 
L 414.585362 86.661761 
L 416.686046 87.674796 
L 418.78673 88.353185 
L 420.887414 90.172517 
L 422.988099 90.581498 
L 425.088783 91.152752 
L 427.189467 93.167375 
L 429.290151 94.273443 
L 431.390836 95.157489 
L 433.49152 96.251303 
L 435.592204 97.841092 
L 437.692888 99.073402 
L 439.793572 99.667772 
L 443.994941 101.869183 
L 446.095625 102.853306 
L 448.196309 103.981391 
L 448.196309 103.981391 
" clip-path="url(#pf9a66625df)" style="fill: none; stroke: #226061; stroke-width: 1.5; stroke-linecap: square"/>
   </g>
   <g id="line2d_14">
    <path d="M 46.965625 43.837192 
L 51.166993 43.837192 
L 53.267678 44.128147 
L 112.086836 44.128147 
L 114.18752 43.837192 
L 116.288204 44.128147 
L 124.690941 44.128147 
L 126.791625 43.837192 
L 128.892309 44.128147 
L 130.992993 44.128147 
L 133.093678 43.837192 
L 135.194362 44.128147 
L 137.295046 44.128147 
L 139.39573 43.837192 
L 141.496414 44.128147 
L 143.597099 43.837192 
L 145.697783 44.128147 
L 156.201204 44.128147 
L 158.301888 43.837192 
L 160.402572 43.837192 
L 162.503257 44.128147 
L 164.603941 43.837192 
L 166.704625 44.128147 
L 168.805309 44.128147 
L 170.905993 43.837192 
L 221.322414 43.837192 
L 223.423099 44.128147 
L 225.523783 44.128147 
L 227.624467 43.837192 
L 229.725151 44.128147 
L 240.228572 44.128147 
L 242.329257 43.837192 
L 244.429941 43.837192 
L 246.530625 44.128147 
L 261.235414 44.128147 
L 263.336099 43.837192 
L 265.436783 44.128147 
L 275.940204 44.128147 
L 278.040888 44.710058 
L 280.141572 44.128147 
L 282.242257 44.128147 
L 284.342941 44.419103 
L 286.443625 44.128147 
L 288.544309 44.128147 
L 292.745678 48.201524 
L 294.846362 50.820123 
L 296.947046 49.656301 
L 299.04773 56.057321 
L 301.148414 56.639232 
L 303.249099 57.512099 
L 305.349783 55.184455 
L 307.450467 52.565856 
L 309.551151 63.040253 
L 311.651836 61.003564 
L 313.75252 69.732229 
L 315.853204 45.291969 
L 317.953888 47.037702 
L 320.054572 47.619613 
L 322.155257 51.692989 
L 324.255941 51.111078 
L 326.356625 55.184455 
L 328.457309 65.076941 
L 330.557993 62.749297 
L 332.658678 63.622164 
L 334.759362 68.568407 
L 336.860046 70.605095 
L 338.96073 70.896051 
L 341.061414 75.551338 
L 343.162099 56.639232 
L 345.262783 58.384965 
L 347.363467 64.785986 
L 349.464151 63.040253 
L 351.564836 69.732229 
L 353.66552 68.277451 
L 355.766204 74.387516 
L 357.866888 98.245865 
L 359.967572 79.333759 
L 362.068257 80.788537 
L 364.168941 86.898601 
L 366.269625 85.73478 
L 368.370309 112.793638 
L 370.470993 96.500132 
L 372.571678 95.918221 
L 374.672362 94.754399 
L 376.773046 100.573509 
L 378.87373 103.483063 
L 380.974414 106.101663 
L 383.075099 106.683573 
L 387.276467 111.338861 
L 389.377151 115.121282 
L 391.477836 116.57606 
L 393.57852 120.067525 
L 395.679204 125.013768 
L 397.779888 126.759501 
L 399.880572 131.414789 
L 401.981257 130.250967 
L 404.081941 128.505234 
L 406.182625 137.233898 
L 408.283309 136.942943 
L 410.383993 139.852497 
L 412.484678 139.561542 
L 414.585362 145.380651 
L 416.686046 149.744983 
L 418.78673 145.671607 
L 420.887414 154.109315 
L 422.988099 154.400271 
L 425.088783 152.945493 
L 427.189467 159.055558 
L 429.290151 163.710846 
L 431.390836 161.383202 
L 435.592204 167.784222 
L 437.692888 170.693777 
L 439.793572 170.693777 
L 441.894257 170.111866 
L 443.994941 173.603332 
L 446.095625 173.894287 
L 446.458966 337.24793 
L 446.458966 337.24793 
" clip-path="url(#pf9a66625df)" style="fill: none; stroke: #828231; stroke-width: 1.5; stroke-linecap: square"/>
   </g>
   <g id="LineCollection_1">
    <path d="M 145.697783 312.825525 
L 145.697783 -1 
" clip-path="url(#pf9a66625df)" style="fill: none; stroke-dasharray: 5.55,2.4; stroke-dashoffset: 0; stroke: #000000; stroke-width: 1.5"/>
   </g>
   <g id="patch_3">
    <path d="M 46.965625 280.546925 
L 46.965625 22.318125 
" style="fill: none; stroke: #000000; stroke-width: 0.8; stroke-linejoin: miter; stroke-linecap: square"/>
   </g>
   <g id="patch_4">
    <path d="M 446.095625 280.546925 
L 446.095625 22.318125 
" style="fill: none; stroke: #000000; stroke-width: 0.8; stroke-linejoin: miter; stroke-linecap: square"/>
   </g>
   <g id="patch_5">
    <path d="M 46.965625 280.546925 
L 446.095625 280.546925 
" style="fill: none; stroke: #000000; stroke-width: 0.8; stroke-linejoin: miter; stroke-linecap: square"/>
   </g>
   <g id="patch_6">
    <path d="M 46.965625 22.318125 
L 446.095625 22.318125 
" style="fill: none; stroke: #000000; stroke-width: 0.8; stroke-linejoin: miter; stroke-linecap: square"/>
   </g>
   <g id="text_15">
    <!-- Development of CPU frequency and points per used vCPU -->
    <g transform="translate(72.945937 16.318125) scale(0.12 -0.12)">
     <defs>
      <path id="DejaVuSans-44" d="M 1259 4147 
L 1259 519 
L 2022 519 
Q 2988 519 3436 956 
Q 3884 1394 3884 2338 
Q 3884 3275 3436 3711 
Q 2988 4147 2022 4147 
L 1259 4147 
z
M 628 4666 
L 1925 4666 
Q 3281 4666 3915 4102 
Q 4550 3538 4550 2338 
Q 4550 1131 3912 565 
Q 3275 0 1925 0 
L 628 0 
L 628 4666 
z
" transform="scale(0.015625)"/>
      <path id="DejaVuSans-6c" d="M 603 4863 
L 1178 4863 
L 1178 0 
L 603 0 
L 603 4863 
z
" transform="scale(0.015625)"/>
      <path id="DejaVuSans-70" d="M 1159 525 
L 1159 -1331 
L 581 -1331 
L 581 3500 
L 1159 3500 
L 1159 2969 
Q 1341 3281 1617 3432 
Q 1894 3584 2278 3584 
Q 2916 3584 3314 3078 
Q 3713 2572 3713 1747 
Q 3713 922 3314 415 
Q 2916 -91 2278 -91 
Q 1894 -91 1617 61 
Q 1341 213 1159 525 
z
M 3116 1747 
Q 3116 2381 2855 2742 
Q 2594 3103 2138 3103 
Q 1681 3103 1420 2742 
Q 1159 2381 1159 1747 
Q 1159 1113 1420 752 
Q 1681 391 2138 391 
Q 2594 391 2855 752 
Q 3116 1113 3116 1747 
z
" transform="scale(0.015625)"/>
      <path id="DejaVuSans-6e" d="M 3513 2113 
L 3513 0 
L 2938 0 
L 2938 2094 
Q 2938 2591 2744 2837 
Q 2550 3084 2163 3084 
Q 1697 3084 1428 2787 
Q 1159 2491 1159 1978 
L 1159 0 
L 581 0 
L 581 3500 
L 1159 3500 
L 1159 2956 
Q 1366 3272 1645 3428 
Q 1925 3584 2291 3584 
Q 2894 3584 3203 3211 
Q 3513 2838 3513 2113 
z
" transform="scale(0.015625)"/>
      <path id="DejaVuSans-74" d="M 1172 4494 
L 1172 3500 
L 2356 3500 
L 2356 3053 
L 1172 3053 
L 1172 1153 
Q 1172 725 1289 603 
Q 1406 481 1766 481 
L 2356 481 
L 2356 0 
L 1766 0 
Q 1100 0 847 248 
Q 594 497 594 1153 
L 594 3053 
L 172 3053 
L 172 3500 
L 594 3500 
L 594 4494 
L 1172 4494 
z
" transform="scale(0.015625)"/>
      <path id="DejaVuSans-72" d="M 2631 2963 
Q 2534 3019 2420 3045 
Q 2306 3072 2169 3072 
Q 1681 3072 1420 2755 
Q 1159 2438 1159 1844 
L 1159 0 
L 581 0 
L 581 3500 
L 1159 3500 
L 1159 2956 
Q 1341 3275 1631 3429 
Q 1922 3584 2338 3584 
Q 2397 3584 2469 3576 
Q 2541 3569 2628 3553 
L 2631 2963 
z
" transform="scale(0.015625)"/>
      <path id="DejaVuSans-71" d="M 947 1747 
Q 947 1113 1208 752 
Q 1469 391 1925 391 
Q 2381 391 2643 752 
Q 2906 1113 2906 1747 
Q 2906 2381 2643 2742 
Q 2381 3103 1925 3103 
Q 1469 3103 1208 2742 
Q 947 2381 947 1747 
z
M 2906 525 
Q 2725 213 2448 61 
Q 2172 -91 1784 -91 
Q 1150 -91 751 415 
Q 353 922 353 1747 
Q 353 2572 751 3078 
Q 1150 3584 1784 3584 
Q 2172 3584 2448 3432 
Q 2725 3281 2906 2969 
L 2906 3500 
L 3481 3500 
L 3481 -1331 
L 2906 -1331 
L 2906 525 
z
" transform="scale(0.015625)"/>
      <path id="DejaVuSans-63" d="M 3122 3366 
L 3122 2828 
Q 2878 2963 2633 3030 
Q 2388 3097 2138 3097 
Q 1578 3097 1268 2742 
Q 959 2388 959 1747 
Q 959 1106 1268 751 
Q 1578 397 2138 397 
Q 2388 397 2633 464 
Q 2878 531 3122 666 
L 3122 134 
Q 2881 22 2623 -34 
Q 2366 -91 2075 -91 
Q 1284 -91 818 406 
Q 353 903 353 1747 
Q 353 2603 823 3093 
Q 1294 3584 2113 3584 
Q 2378 3584 2631 3529 
Q 2884 3475 3122 3366 
z
" transform="scale(0.015625)"/>
      <path id="DejaVuSans-79" d="M 2059 -325 
Q 1816 -950 1584 -1140 
Q 1353 -1331 966 -1331 
L 506 -1331 
L 506 -850 
L 844 -850 
Q 1081 -850 1212 -737 
Q 1344 -625 1503 -206 
L 1606 56 
L 191 3500 
L 800 3500 
L 1894 763 
L 2988 3500 
L 3597 3500 
L 2059 -325 
z
" transform="scale(0.015625)"/>
      <path id="DejaVuSans-69" d="M 603 3500 
L 1178 3500 
L 1178 0 
L 603 0 
L 603 3500 
z
M 603 4863 
L 1178 4863 
L 1178 4134 
L 603 4134 
L 603 4863 
z
" transform="scale(0.015625)"/>
     </defs>
     <use xlink:href="#DejaVuSans-44"/>
     <use xlink:href="#DejaVuSans-65" x="77.001953"/>
     <use xlink:href="#DejaVuSans-76" x="138.525391"/>
     <use xlink:href="#DejaVuSans-65" x="197.705078"/>
     <use xlink:href="#DejaVuSans-6c" x="259.228516"/>
     <use xlink:href="#DejaVuSans-6f" x="287.011719"/>
     <use xlink:href="#DejaVuSans-70" x="348.193359"/>
     <use xlink:href="#DejaVuSans-6d" x="411.669922"/>
     <use xlink:href="#DejaVuSans-65" x="509.082031"/>
     <use xlink:href="#DejaVuSans-6e" x="570.605469"/>
     <use xlink:href="#DejaVuSans-74" x="633.984375"/>
     <use xlink:href="#DejaVuSans-20" x="673.193359"/>
     <use xlink:href="#DejaVuSans-6f" x="704.980469"/>
     <use xlink:href="#DejaVuSans-66" x="766.162109"/>
     <use xlink:href="#DejaVuSans-20" x="801.367188"/>
     <use xlink:href="#DejaVuSans-43" x="833.154297"/>
     <use xlink:href="#DejaVuSans-50" x="902.978516"/>
     <use xlink:href="#DejaVuSans-55" x="963.28125"/>
     <use xlink:href="#DejaVuSans-20" x="1036.474609"/>
     <use xlink:href="#DejaVuSans-66" x="1068.261719"/>
     <use xlink:href="#DejaVuSans-72" x="1103.466797"/>
     <use xlink:href="#DejaVuSans-65" x="1142.330078"/>
     <use xlink:href="#DejaVuSans-71" x="1203.853516"/>
     <use xlink:href="#DejaVuSans-75" x="1267.330078"/>
     <use xlink:href="#DejaVuSans-65" x="1330.708984"/>
     <use xlink:href="#DejaVuSans-6e" x="1392.232422"/>
     <use xlink:href="#DejaVuSans-63" x="1455.611328"/>
     <use xlink:href="#DejaVuSans-79" x="1510.591797"/>
     <use xlink:href="#DejaVuSans-20" x="1569.771484"/>
     <use xlink:href="#DejaVuSans-61" x="1601.558594"/>
     <use xlink:href="#DejaVuSans-6e" x="1662.837891"/>
     <use xlink:href="#DejaVuSans-64" x="1726.216797"/>
     <use xlink:href="#DejaVuSans-20" x="1789.693359"/>
     <use xlink:href="#DejaVuSans-70" x="1821.480469"/>
     <use xlink:href="#DejaVuSans-6f" x="1884.957031"/>
     <use xlink:href="#DejaVuSans-69" x="1946.138672"/>
     <use xlink:href="#DejaVuSans-6e" x="1973.921875"/>
     <use xlink:href="#DejaVuSans-74" x="2037.300781"/>
     <use xlink:href="#DejaVuSans-73" x="2076.509766"/>
     <use xlink:href="#DejaVuSans-20" x="2128.609375"/>
     <use xlink:href="#DejaVuSans-70" x="2160.396484"/>
     <use xlink:href="#DejaVuSans-65" x="2223.873047"/>
     <use xlink:href="#DejaVuSans-72" x="2285.396484"/>
     <use xlink:href="#DejaVuSans-20" x="2326.509766"/>
     <use xlink:href="#DejaVuSans-75" x="2358.296875"/>
     <use xlink:href="#DejaVuSans-73" x="2421.675781"/>
     <use xlink:href="#DejaVuSans-65" x="2473.775391"/>
     <use xlink:href="#DejaVuSans-64" x="2535.298828"/>
     <use xlink:href="#DejaVuSans-20" x="2598.775391"/>
     <use xlink:href="#DejaVuSans-76" x="2630.5625"/>
     <use xlink:href="#DejaVuSans-43" x="2689.742188"/>
     <use xlink:href="#DejaVuSans-50" x="2759.566406"/>
     <use xlink:href="#DejaVuSans-55" x="2819.869141"/>
    </g>
   </g>
   <g id="legend_1">
    <g id="patch_7">
     <path d="M 92.367344 331.04793 
L 404.693906 331.04793 
Q 406.693906 331.04793 406.693906 329.04793 
L 406.693906 315.369805 
Q 406.693906 313.369805 404.693906 313.369805 
L 92.367344 313.369805 
Q 90.367344 313.369805 90.367344 315.369805 
L 90.367344 329.04793 
Q 90.367344 331.04793 92.367344 331.04793 
z
" style="fill: #4d4d4d; opacity: 0.5; stroke: #4d4d4d; stroke-linejoin: miter"/>
    </g>
    <g id="patch_8">
     <path d="M 90.367344 329.04793 
L 402.693906 329.04793 
Q 404.693906 329.04793 404.693906 327.04793 
L 404.693906 313.369805 
Q 404.693906 311.369805 402.693906 311.369805 
L 90.367344 311.369805 
Q 88.367344 311.369805 88.367344 313.369805 
L 88.367344 327.04793 
Q 88.367344 329.04793 90.367344 329.04793 
z
" style="fill: #ffffff; stroke: #cccccc; stroke-linejoin: miter"/>
    </g>
    <g id="line2d_15">
     <path d="M 92.367344 319.468242 
L 102.367344 319.468242 
L 112.367344 319.468242 
" style="fill: none; stroke: #226061; stroke-width: 1.5; stroke-linecap: square"/>
    </g>
    <g id="text_16">
     <!-- Whetstone score / vCPU -->
     <g transform="translate(120.367344 322.968242) scale(0.1 -0.1)">
      <defs>
       <path id="DejaVuSans-57" d="M 213 4666 
L 850 4666 
L 1831 722 
L 2809 4666 
L 3519 4666 
L 4500 722 
L 5478 4666 
L 6119 4666 
L 4947 0 
L 4153 0 
L 3169 4050 
L 2175 0 
L 1381 0 
L 213 4666 
z
" transform="scale(0.015625)"/>
       <path id="DejaVuSans-68" d="M 3513 2113 
L 3513 0 
L 2938 0 
L 2938 2094 
Q 2938 2591 2744 2837 
Q 2550 3084 2163 3084 
Q 1697 3084 1428 2787 
Q 1159 2491 1159 1978 
L 1159 0 
L 581 0 
L 581 4863 
L 1159 4863 
L 1159 2956 
Q 1366 3272 1645 3428 
Q 1925 3584 2291 3584 
Q 2894 3584 3203 3211 
Q 3513 2838 3513 2113 
z
" transform="scale(0.015625)"/>
       <path id="DejaVuSans-2f" d="M 1625 4666 
L 2156 4666 
L 531 -594 
L 0 -594 
L 1625 4666 
z
" transform="scale(0.015625)"/>
      </defs>
      <use xlink:href="#DejaVuSans-57"/>
      <use xlink:href="#DejaVuSans-68" x="98.876953"/>
      <use xlink:href="#DejaVuSans-65" x="162.255859"/>
      <use xlink:href="#DejaVuSans-74" x="223.779297"/>
      <use xlink:href="#DejaVuSans-73" x="262.988281"/>
      <use xlink:href="#DejaVuSans-74" x="315.087891"/>
      <use xlink:href="#DejaVuSans-6f" x="354.296875"/>
      <use xlink:href="#DejaVuSans-6e" x="415.478516"/>
      <use xlink:href="#DejaVuSans-65" x="478.857422"/>
      <use xlink:href="#DejaVuSans-20" x="540.380859"/>
      <use xlink:href="#DejaVuSans-73" x="572.167969"/>
      <use xlink:href="#DejaVuSans-63" x="624.267578"/>
      <use xlink:href="#DejaVuSans-6f" x="679.248047"/>
      <use xlink:href="#DejaVuSans-72" x="740.429688"/>
      <use xlink:href="#DejaVuSans-65" x="779.292969"/>
      <use xlink:href="#DejaVuSans-20" x="840.816406"/>
      <use xlink:href="#DejaVuSans-2f" x="872.603516"/>
      <use xlink:href="#DejaVuSans-20" x="906.294922"/>
      <use xlink:href="#DejaVuSans-76" x="938.082031"/>
      <use xlink:href="#DejaVuSans-43" x="997.261719"/>
      <use xlink:href="#DejaVuSans-50" x="1067.085938"/>
      <use xlink:href="#DejaVuSans-55" x="1127.388672"/>
     </g>
    </g>
    <g id="line2d_16">
     <path d="M 260.423594 319.468242 
L 270.423594 319.468242 
L 280.423594 319.468242 
" style="fill: none; stroke: #828231; stroke-width: 1.5; stroke-linecap: square"/>
    </g>
    <g id="text_17">
     <!-- CPU frequency top 5% -->
     <g transform="translate(288.423594 322.968242) scale(0.1 -0.1)">
      <use xlink:href="#DejaVuSans-43"/>
      <use xlink:href="#DejaVuSans-50" x="69.824219"/>
      <use xlink:href="#DejaVuSans-55" x="130.126953"/>
      <use xlink:href="#DejaVuSans-20" x="203.320312"/>
      <use xlink:href="#DejaVuSans-66" x="235.107422"/>
      <use xlink:href="#DejaVuSans-72" x="270.3125"/>
      <use xlink:href="#DejaVuSans-65" x="309.175781"/>
      <use xlink:href="#DejaVuSans-71" x="370.699219"/>
      <use xlink:href="#DejaVuSans-75" x="434.175781"/>
      <use xlink:href="#DejaVuSans-65" x="497.554688"/>
      <use xlink:href="#DejaVuSans-6e" x="559.078125"/>
      <use xlink:href="#DejaVuSans-63" x="622.457031"/>
      <use xlink:href="#DejaVuSans-79" x="677.4375"/>
      <use xlink:href="#DejaVuSans-20" x="736.617188"/>
      <use xlink:href="#DejaVuSans-74" x="768.404297"/>
      <use xlink:href="#DejaVuSans-6f" x="807.613281"/>
      <use xlink:href="#DejaVuSans-70" x="868.794922"/>
      <use xlink:href="#DejaVuSans-20" x="932.271484"/>
      <use xlink:href="#DejaVuSans-35" x="964.058594"/>
      <use xlink:href="#DejaVuSans-25" x="1027.681641"/>
     </g>
    </g>
   </g>
  </g>
 </g>
 <defs>
  <clipPath id="pf9a66625df">
   <rect x="46.965625" y="22.318125" width="399.13" height="258.2288"/>
  </clipPath>
 </defs>
</svg>
