<?xml version="1.0" encoding="utf-8" standalone="no"?>
<!DOCTYPE svg PUBLIC "-//W3C//DTD SVG 1.1//EN"
  "http://www.w3.org/Graphics/SVG/1.1/DTD/svg11.dtd">
<svg xmlns:xlink="http://www.w3.org/1999/xlink" width="569.871pt" height="322.98568pt" viewBox="0 0 569.871 322.98568" xmlns="http://www.w3.org/2000/svg" version="1.1">
 <metadata>
  <rdf:RDF xmlns:dc="http://purl.org/dc/elements/1.1/" xmlns:cc="http://creativecommons.org/ns#" xmlns:rdf="http://www.w3.org/1999/02/22-rdf-syntax-ns#">
   <cc:Work>
    <dc:type rdf:resource="http://purl.org/dc/dcmitype/StillImage"/>
    <dc:date>2024-04-15T01:03:17.026700</dc:date>
    <dc:format>image/svg+xml</dc:format>
    <dc:creator>
     <cc:Agent>
      <dc:title>Matplotlib v3.8.2, https://matplotlib.org/</dc:title>
     </cc:Agent>
    </dc:creator>
   </cc:Work>
  </rdf:RDF>
 </metadata>
 <defs>
  <style type="text/css">*{stroke-linejoin: round; stroke-linecap: butt}</style>
 </defs>
 <g id="figure_1">
  <g id="patch_1">
   <path d="M 0 322.98568 
L 569.871 322.98568 
L 569.871 0 
L 0 0 
z
" style="fill: #ffffff"/>
  </g>
  <g id="axes_1">
   <g id="patch_2">
    <path d="M 146.7105 256.6178 
L 423.1605 256.6178 
L 423.1605 27.789 
L 146.7105 27.789 
z
" style="fill: #ffffff"/>
   </g>
   <g id="matplotlib.axis_1">
    <g id="xtick_1">
     <g id="line2d_1">
      <defs>
       <path id="mab366fa933" d="M 0 0 
L 0 3.5 
" style="stroke: #000000; stroke-width: 0.8"/>
      </defs>
      <g>
       <use xlink:href="#mab366fa933" x="218.0055" y="256.6178" style="stroke: #000000; stroke-width: 0.8"/>
      </g>
     </g>
     <g id="text_1">
      <!-- 50 -->
      <g transform="translate(207.8255 275.7753) scale(0.16 -0.16)">
       <defs>
        <path id="DejaVuSans-35" d="M 691 4666 
L 3169 4666 
L 3169 4134 
L 1269 4134 
L 1269 2991 
Q 1406 3038 1543 3061 
Q 1681 3084 1819 3084 
Q 2600 3084 3056 2656 
Q 3513 2228 3513 1497 
Q 3513 744 3044 326 
Q 2575 -91 1722 -91 
Q 1428 -91 1123 -41 
Q 819 9 494 109 
L 494 744 
Q 775 591 1075 516 
Q 1375 441 1709 441 
Q 2250 441 2565 725 
Q 2881 1009 2881 1497 
Q 2881 1984 2565 2268 
Q 2250 2553 1709 2553 
Q 1456 2553 1204 2497 
Q 953 2441 691 2322 
L 691 4666 
z
" transform="scale(0.015625)"/>
        <path id="DejaVuSans-30" d="M 2034 4250 
Q 1547 4250 1301 3770 
Q 1056 3291 1056 2328 
Q 1056 1369 1301 889 
Q 1547 409 2034 409 
Q 2525 409 2770 889 
Q 3016 1369 3016 2328 
Q 3016 3291 2770 3770 
Q 2525 4250 2034 4250 
z
M 2034 4750 
Q 2819 4750 3233 4129 
Q 3647 3509 3647 2328 
Q 3647 1150 3233 529 
Q 2819 -91 2034 -91 
Q 1250 -91 836 529 
Q 422 1150 422 2328 
Q 422 3509 836 4129 
Q 1250 4750 2034 4750 
z
" transform="scale(0.015625)"/>
       </defs>
       <use xlink:href="#DejaVuSans-35"/>
       <use xlink:href="#DejaVuSans-30" x="63.623047"/>
      </g>
     </g>
    </g>
    <g id="xtick_2">
     <g id="line2d_2">
      <g>
       <use xlink:href="#mab366fa933" x="290.7555" y="256.6178" style="stroke: #000000; stroke-width: 0.8"/>
      </g>
     </g>
     <g id="text_2">
      <!-- 100 -->
      <g transform="translate(275.4855 275.7753) scale(0.16 -0.16)">
       <defs>
        <path id="DejaVuSans-31" d="M 794 531 
L 1825 531 
L 1825 4091 
L 703 3866 
L 703 4441 
L 1819 4666 
L 2450 4666 
L 2450 531 
L 3481 531 
L 3481 0 
L 794 0 
L 794 531 
z
" transform="scale(0.015625)"/>
       </defs>
       <use xlink:href="#DejaVuSans-31"/>
       <use xlink:href="#DejaVuSans-30" x="63.623047"/>
       <use xlink:href="#DejaVuSans-30" x="127.246094"/>
      </g>
     </g>
    </g>
    <g id="xtick_3">
     <g id="line2d_3">
      <g>
       <use xlink:href="#mab366fa933" x="363.5055" y="256.6178" style="stroke: #000000; stroke-width: 0.8"/>
      </g>
     </g>
     <g id="text_3">
      <!-- 150 -->
      <g transform="translate(348.2355 275.7753) scale(0.16 -0.16)">
       <use xlink:href="#DejaVuSans-31"/>
       <use xlink:href="#DejaVuSans-35" x="63.623047"/>
       <use xlink:href="#DejaVuSans-30" x="127.246094"/>
      </g>
     </g>
    </g>
    <g id="text_4">
     <!-- used vCPU -->
     <g transform="translate(242.15425 295.2603) scale(0.16 -0.16)">
      <defs>
       <path id="DejaVuSans-75" d="M 544 1381 
L 544 3500 
L 1119 3500 
L 1119 1403 
Q 1119 906 1312 657 
Q 1506 409 1894 409 
Q 2359 409 2629 706 
Q 2900 1003 2900 1516 
L 2900 3500 
L 3475 3500 
L 3475 0 
L 2900 0 
L 2900 538 
Q 2691 219 2414 64 
Q 2138 -91 1772 -91 
Q 1169 -91 856 284 
Q 544 659 544 1381 
z
M 1991 3584 
L 1991 3584 
z
" transform="scale(0.015625)"/>
       <path id="DejaVuSans-73" d="M 2834 3397 
L 2834 2853 
Q 2591 2978 2328 3040 
Q 2066 3103 1784 3103 
Q 1356 3103 1142 2972 
Q 928 2841 928 2578 
Q 928 2378 1081 2264 
Q 1234 2150 1697 2047 
L 1894 2003 
Q 2506 1872 2764 1633 
Q 3022 1394 3022 966 
Q 3022 478 2636 193 
Q 2250 -91 1575 -91 
Q 1294 -91 989 -36 
Q 684 19 347 128 
L 347 722 
Q 666 556 975 473 
Q 1284 391 1588 391 
Q 1994 391 2212 530 
Q 2431 669 2431 922 
Q 2431 1156 2273 1281 
Q 2116 1406 1581 1522 
L 1381 1569 
Q 847 1681 609 1914 
Q 372 2147 372 2553 
Q 372 3047 722 3315 
Q 1072 3584 1716 3584 
Q 2034 3584 2315 3537 
Q 2597 3491 2834 3397 
z
" transform="scale(0.015625)"/>
       <path id="DejaVuSans-65" d="M 3597 1894 
L 3597 1613 
L 953 1613 
Q 991 1019 1311 708 
Q 1631 397 2203 397 
Q 2534 397 2845 478 
Q 3156 559 3463 722 
L 3463 178 
Q 3153 47 2828 -22 
Q 2503 -91 2169 -91 
Q 1331 -91 842 396 
Q 353 884 353 1716 
Q 353 2575 817 3079 
Q 1281 3584 2069 3584 
Q 2775 3584 3186 3129 
Q 3597 2675 3597 1894 
z
M 3022 2063 
Q 3016 2534 2758 2815 
Q 2500 3097 2075 3097 
Q 1594 3097 1305 2825 
Q 1016 2553 972 2059 
L 3022 2063 
z
" transform="scale(0.015625)"/>
       <path id="DejaVuSans-64" d="M 2906 2969 
L 2906 4863 
L 3481 4863 
L 3481 0 
L 2906 0 
L 2906 525 
Q 2725 213 2448 61 
Q 2172 -91 1784 -91 
Q 1150 -91 751 415 
Q 353 922 353 1747 
Q 353 2572 751 3078 
Q 1150 3584 1784 3584 
Q 2172 3584 2448 3432 
Q 2725 3281 2906 2969 
z
M 947 1747 
Q 947 1113 1208 752 
Q 1469 391 1925 391 
Q 2381 391 2643 752 
Q 2906 1113 2906 1747 
Q 2906 2381 2643 2742 
Q 2381 3103 1925 3103 
Q 1469 3103 1208 2742 
Q 947 2381 947 1747 
z
" transform="scale(0.015625)"/>
       <path id="DejaVuSans-20" transform="scale(0.015625)"/>
       <path id="DejaVuSans-76" d="M 191 3500 
L 800 3500 
L 1894 563 
L 2988 3500 
L 3597 3500 
L 2284 0 
L 1503 0 
L 191 3500 
z
" transform="scale(0.015625)"/>
       <path id="DejaVuSans-43" d="M 4122 4306 
L 4122 3641 
Q 3803 3938 3442 4084 
Q 3081 4231 2675 4231 
Q 1875 4231 1450 3742 
Q 1025 3253 1025 2328 
Q 1025 1406 1450 917 
Q 1875 428 2675 428 
Q 3081 428 3442 575 
Q 3803 722 4122 1019 
L 4122 359 
Q 3791 134 3420 21 
Q 3050 -91 2638 -91 
Q 1578 -91 968 557 
Q 359 1206 359 2328 
Q 359 3453 968 4101 
Q 1578 4750 2638 4750 
Q 3056 4750 3426 4639 
Q 3797 4528 4122 4306 
z
" transform="scale(0.015625)"/>
       <path id="DejaVuSans-50" d="M 1259 4147 
L 1259 2394 
L 2053 2394 
Q 2494 2394 2734 2622 
Q 2975 2850 2975 3272 
Q 2975 3691 2734 3919 
Q 2494 4147 2053 4147 
L 1259 4147 
z
M 628 4666 
L 2053 4666 
Q 2838 4666 3239 4311 
Q 3641 3956 3641 3272 
Q 3641 2581 3239 2228 
Q 2838 1875 2053 1875 
L 1259 1875 
L 1259 0 
L 628 0 
L 628 4666 
z
" transform="scale(0.015625)"/>
       <path id="DejaVuSans-55" d="M 556 4666 
L 1191 4666 
L 1191 1831 
Q 1191 1081 1462 751 
Q 1734 422 2344 422 
Q 2950 422 3222 751 
Q 3494 1081 3494 1831 
L 3494 4666 
L 4128 4666 
L 4128 1753 
Q 4128 841 3676 375 
Q 3225 -91 2344 -91 
Q 1459 -91 1007 375 
Q 556 841 556 1753 
L 556 4666 
z
" transform="scale(0.015625)"/>
      </defs>
      <use xlink:href="#DejaVuSans-75"/>
      <use xlink:href="#DejaVuSans-73" x="63.378906"/>
      <use xlink:href="#DejaVuSans-65" x="115.478516"/>
      <use xlink:href="#DejaVuSans-64" x="177.001953"/>
      <use xlink:href="#DejaVuSans-20" x="240.478516"/>
      <use xlink:href="#DejaVuSans-76" x="272.265625"/>
      <use xlink:href="#DejaVuSans-43" x="331.445312"/>
      <use xlink:href="#DejaVuSans-50" x="401.269531"/>
      <use xlink:href="#DejaVuSans-55" x="461.572266"/>
     </g>
    </g>
   </g>
   <g id="matplotlib.axis_2">
    <g id="ytick_1">
     <g id="line2d_4">
      <defs>
       <path id="m8d1c4f27f9" d="M 0 0 
L -3.5 0 
" style="stroke: #000000; stroke-width: 0.8"/>
      </defs>
      <g>
       <use xlink:href="#m8d1c4f27f9" x="146.7105" y="237.548733" style="stroke: #000000; stroke-width: 0.8"/>
      </g>
     </g>
     <g id="text_5">
      <!-- 80 -->
      <g transform="translate(119.3505 243.627483) scale(0.16 -0.16)">
       <defs>
        <path id="DejaVuSans-38" d="M 2034 2216 
Q 1584 2216 1326 1975 
Q 1069 1734 1069 1313 
Q 1069 891 1326 650 
Q 1584 409 2034 409 
Q 2484 409 2743 651 
Q 3003 894 3003 1313 
Q 3003 1734 2745 1975 
Q 2488 2216 2034 2216 
z
M 1403 2484 
Q 997 2584 770 2862 
Q 544 3141 544 3541 
Q 544 4100 942 4425 
Q 1341 4750 2034 4750 
Q 2731 4750 3128 4425 
Q 3525 4100 3525 3541 
Q 3525 3141 3298 2862 
Q 3072 2584 2669 2484 
Q 3125 2378 3379 2068 
Q 3634 1759 3634 1313 
Q 3634 634 3220 271 
Q 2806 -91 2034 -91 
Q 1263 -91 848 271 
Q 434 634 434 1313 
Q 434 1759 690 2068 
Q 947 2378 1403 2484 
z
M 1172 3481 
Q 1172 3119 1398 2916 
Q 1625 2713 2034 2713 
Q 2441 2713 2670 2916 
Q 2900 3119 2900 3481 
Q 2900 3844 2670 4047 
Q 2441 4250 2034 4250 
Q 1625 4250 1398 4047 
Q 1172 3844 1172 3481 
z
" transform="scale(0.015625)"/>
       </defs>
       <use xlink:href="#DejaVuSans-38"/>
       <use xlink:href="#DejaVuSans-30" x="63.623047"/>
      </g>
     </g>
    </g>
    <g id="ytick_2">
     <g id="line2d_5">
      <g>
       <use xlink:href="#m8d1c4f27f9" x="146.7105" y="189.876067" style="stroke: #000000; stroke-width: 0.8"/>
      </g>
     </g>
     <g id="text_6">
      <!-- 85 -->
      <g transform="translate(119.3505 195.954817) scale(0.16 -0.16)">
       <use xlink:href="#DejaVuSans-38"/>
       <use xlink:href="#DejaVuSans-35" x="63.623047"/>
      </g>
     </g>
    </g>
    <g id="ytick_3">
     <g id="line2d_6">
      <g>
       <use xlink:href="#m8d1c4f27f9" x="146.7105" y="142.2034" style="stroke: #000000; stroke-width: 0.8"/>
      </g>
     </g>
     <g id="text_7">
      <!-- 90 -->
      <g transform="translate(119.3505 148.28215) scale(0.16 -0.16)">
       <defs>
        <path id="DejaVuSans-39" d="M 703 97 
L 703 672 
Q 941 559 1184 500 
Q 1428 441 1663 441 
Q 2288 441 2617 861 
Q 2947 1281 2994 2138 
Q 2813 1869 2534 1725 
Q 2256 1581 1919 1581 
Q 1219 1581 811 2004 
Q 403 2428 403 3163 
Q 403 3881 828 4315 
Q 1253 4750 1959 4750 
Q 2769 4750 3195 4129 
Q 3622 3509 3622 2328 
Q 3622 1225 3098 567 
Q 2575 -91 1691 -91 
Q 1453 -91 1209 -44 
Q 966 3 703 97 
z
M 1959 2075 
Q 2384 2075 2632 2365 
Q 2881 2656 2881 3163 
Q 2881 3666 2632 3958 
Q 2384 4250 1959 4250 
Q 1534 4250 1286 3958 
Q 1038 3666 1038 3163 
Q 1038 2656 1286 2365 
Q 1534 2075 1959 2075 
z
" transform="scale(0.015625)"/>
       </defs>
       <use xlink:href="#DejaVuSans-39"/>
       <use xlink:href="#DejaVuSans-30" x="63.623047"/>
      </g>
     </g>
    </g>
    <g id="ytick_4">
     <g id="line2d_7">
      <g>
       <use xlink:href="#m8d1c4f27f9" x="146.7105" y="94.530733" style="stroke: #000000; stroke-width: 0.8"/>
      </g>
     </g>
     <g id="text_8">
      <!-- 95 -->
      <g transform="translate(119.3505 100.609483) scale(0.16 -0.16)">
       <use xlink:href="#DejaVuSans-39"/>
       <use xlink:href="#DejaVuSans-35" x="63.623047"/>
      </g>
     </g>
    </g>
    <g id="ytick_5">
     <g id="line2d_8">
      <g>
       <use xlink:href="#m8d1c4f27f9" x="146.7105" y="46.858067" style="stroke: #000000; stroke-width: 0.8"/>
      </g>
     </g>
     <g id="text_9">
      <!-- 100 -->
      <g transform="translate(109.1705 52.936817) scale(0.16 -0.16)">
       <use xlink:href="#DejaVuSans-31"/>
       <use xlink:href="#DejaVuSans-30" x="63.623047"/>
       <use xlink:href="#DejaVuSans-30" x="127.246094"/>
      </g>
     </g>
    </g>
    <g id="text_10">
     <!-- % of max -->
     <g transform="translate(101.843 180.0309) rotate(-90) scale(0.16 -0.16)">
      <defs>
       <path id="DejaVuSans-25" d="M 4653 2053 
Q 4381 2053 4226 1822 
Q 4072 1591 4072 1178 
Q 4072 772 4226 539 
Q 4381 306 4653 306 
Q 4919 306 5073 539 
Q 5228 772 5228 1178 
Q 5228 1588 5073 1820 
Q 4919 2053 4653 2053 
z
M 4653 2450 
Q 5147 2450 5437 2106 
Q 5728 1763 5728 1178 
Q 5728 594 5436 251 
Q 5144 -91 4653 -91 
Q 4153 -91 3862 251 
Q 3572 594 3572 1178 
Q 3572 1766 3864 2108 
Q 4156 2450 4653 2450 
z
M 1428 4353 
Q 1159 4353 1004 4120 
Q 850 3888 850 3481 
Q 850 3069 1003 2837 
Q 1156 2606 1428 2606 
Q 1700 2606 1854 2837 
Q 2009 3069 2009 3481 
Q 2009 3884 1853 4118 
Q 1697 4353 1428 4353 
z
M 4250 4750 
L 4750 4750 
L 1831 -91 
L 1331 -91 
L 4250 4750 
z
M 1428 4750 
Q 1922 4750 2215 4408 
Q 2509 4066 2509 3481 
Q 2509 2891 2217 2550 
Q 1925 2209 1428 2209 
Q 931 2209 642 2551 
Q 353 2894 353 3481 
Q 353 4063 643 4406 
Q 934 4750 1428 4750 
z
" transform="scale(0.015625)"/>
       <path id="DejaVuSans-6f" d="M 1959 3097 
Q 1497 3097 1228 2736 
Q 959 2375 959 1747 
Q 959 1119 1226 758 
Q 1494 397 1959 397 
Q 2419 397 2687 759 
Q 2956 1122 2956 1747 
Q 2956 2369 2687 2733 
Q 2419 3097 1959 3097 
z
M 1959 3584 
Q 2709 3584 3137 3096 
Q 3566 2609 3566 1747 
Q 3566 888 3137 398 
Q 2709 -91 1959 -91 
Q 1206 -91 779 398 
Q 353 888 353 1747 
Q 353 2609 779 3096 
Q 1206 3584 1959 3584 
z
" transform="scale(0.015625)"/>
       <path id="DejaVuSans-66" d="M 2375 4863 
L 2375 4384 
L 1825 4384 
Q 1516 4384 1395 4259 
Q 1275 4134 1275 3809 
L 1275 3500 
L 2222 3500 
L 2222 3053 
L 1275 3053 
L 1275 0 
L 697 0 
L 697 3053 
L 147 3053 
L 147 3500 
L 697 3500 
L 697 3744 
Q 697 4328 969 4595 
Q 1241 4863 1831 4863 
L 2375 4863 
z
" transform="scale(0.015625)"/>
       <path id="DejaVuSans-6d" d="M 3328 2828 
Q 3544 3216 3844 3400 
Q 4144 3584 4550 3584 
Q 5097 3584 5394 3201 
Q 5691 2819 5691 2113 
L 5691 0 
L 5113 0 
L 5113 2094 
Q 5113 2597 4934 2840 
Q 4756 3084 4391 3084 
Q 3944 3084 3684 2787 
Q 3425 2491 3425 1978 
L 3425 0 
L 2847 0 
L 2847 2094 
Q 2847 2600 2669 2842 
Q 2491 3084 2119 3084 
Q 1678 3084 1418 2786 
Q 1159 2488 1159 1978 
L 1159 0 
L 581 0 
L 581 3500 
L 1159 3500 
L 1159 2956 
Q 1356 3278 1631 3431 
Q 1906 3584 2284 3584 
Q 2666 3584 2933 3390 
Q 3200 3197 3328 2828 
z
" transform="scale(0.015625)"/>
       <path id="DejaVuSans-61" d="M 2194 1759 
Q 1497 1759 1228 1600 
Q 959 1441 959 1056 
Q 959 750 1161 570 
Q 1363 391 1709 391 
Q 2188 391 2477 730 
Q 2766 1069 2766 1631 
L 2766 1759 
L 2194 1759 
z
M 3341 1997 
L 3341 0 
L 2766 0 
L 2766 531 
Q 2569 213 2275 61 
Q 1981 -91 1556 -91 
Q 1019 -91 701 211 
Q 384 513 384 1019 
Q 384 1609 779 1909 
Q 1175 2209 1959 2209 
L 2766 2209 
L 2766 2266 
Q 2766 2663 2505 2880 
Q 2244 3097 1772 3097 
Q 1472 3097 1187 3025 
Q 903 2953 641 2809 
L 641 3341 
Q 956 3463 1253 3523 
Q 1550 3584 1831 3584 
Q 2591 3584 2966 3190 
Q 3341 2797 3341 1997 
z
" transform="scale(0.015625)"/>
       <path id="DejaVuSans-78" d="M 3513 3500 
L 2247 1797 
L 3578 0 
L 2900 0 
L 1881 1375 
L 863 0 
L 184 0 
L 1544 1831 
L 300 3500 
L 978 3500 
L 1906 2253 
L 2834 3500 
L 3513 3500 
z
" transform="scale(0.015625)"/>
      </defs>
      <use xlink:href="#DejaVuSans-25"/>
      <use xlink:href="#DejaVuSans-20" x="95.019531"/>
      <use xlink:href="#DejaVuSans-6f" x="126.806641"/>
      <use xlink:href="#DejaVuSans-66" x="187.988281"/>
      <use xlink:href="#DejaVuSans-20" x="223.193359"/>
      <use xlink:href="#DejaVuSans-6d" x="254.980469"/>
      <use xlink:href="#DejaVuSans-61" x="352.392578"/>
      <use xlink:href="#DejaVuSans-78" x="413.671875"/>
     </g>
    </g>
   </g>
   <g id="line2d_9">
    <path d="M 146.7105 47.908033 
L 148.1655 48.821504 
L 149.6205 46.858067 
L 151.0755 49.341237 
L 152.5305 53.344758 
L 153.9855 54.580568 
L 155.4405 50.850938 
L 156.8955 51.876905 
L 158.3505 52.216394 
L 159.8055 53.426655 
L 161.2605 55.868686 
L 162.7155 57.607096 
L 164.1705 54.544627 
L 165.6255 54.867059 
L 167.0805 55.411092 
L 168.5355 55.481571 
L 169.9905 58.017355 
L 171.4455 60.866366 
L 172.9005 57.104079 
L 174.3555 59.905997 
L 175.8105 61.854584 
L 177.2655 61.594343 
L 178.7205 65.973387 
L 180.1755 71.894511 
L 181.6305 77.22855 
L 183.0855 78.390572 
L 184.5405 80.095331 
L 185.9955 85.494199 
L 187.4505 85.680749 
L 188.9055 94.668279 
L 190.3605 99.210738 
L 191.8155 99.820332 
L 193.2705 104.925017 
L 194.7255 111.868579 
L 196.1805 118.313668 
L 197.6355 123.314858 
L 199.0905 126.618893 
L 200.5455 136.823041 
L 202.0005 147.966584 
L 203.4555 150.250604 
L 204.9105 150.171414 
L 206.3655 152.822158 
L 207.8205 153.616435 
L 209.2755 160.704473 
L 210.7305 165.22146 
L 212.1855 166.55376 
L 213.6405 166.111667 
L 215.0955 166.748461 
L 216.5505 169.68633 
L 218.0055 170.902127 
L 219.4605 174.311614 
L 220.9155 177.173212 
L 222.3705 179.522092 
L 223.8255 181.16858 
L 225.2805 181.383558 
L 226.7355 185.295926 
L 228.1905 186.227821 
L 229.6455 187.884643 
L 231.1005 188.947683 
L 232.5555 193.80294 
L 234.0105 195.728647 
L 235.4655 196.295696 
L 236.9205 197.627717 
L 238.3755 197.692114 
L 239.8305 199.186036 
L 241.2855 202.064075 
L 242.7405 205.880153 
L 244.1955 206.549438 
L 245.6505 205.266472 
L 247.1055 207.717693 
L 248.5605 208.490312 
L 250.0155 210.890353 
L 251.4705 212.426378 
L 252.9255 215.744425 
L 254.3805 215.360007 
L 255.8355 215.421303 
L 257.2905 213.492889 
L 258.7455 218.443144 
L 260.2005 219.635326 
L 261.6555 220.867001 
L 263.1105 222.06982 
L 264.5655 221.299968 
L 266.0205 223.256062 
L 267.4755 226.033679 
L 268.9305 224.795596 
L 270.3855 225.754609 
L 271.8405 228.363918 
L 273.2955 228.269442 
L 274.7505 228.702662 
L 276.2055 230.707503 
L 277.6605 233.643367 
L 279.1155 233.772941 
L 280.5705 235.77341 
L 282.0255 237.582868 
L 283.4805 240.177849 
L 284.9355 241.386622 
" clip-path="url(#pee1692b79a)" style="fill: none; stroke: #226061; stroke-width: 1.5; stroke-linecap: square"/>
   </g>
   <g id="line2d_10">
    <path d="M 146.7105 47.109903 
L 148.1655 46.858067 
L 149.6205 47.487658 
L 151.0755 47.109903 
L 152.5305 47.109903 
L 153.9855 47.235822 
L 155.4405 47.865413 
L 156.8955 47.109903 
L 158.3505 47.36174 
L 159.8055 47.613576 
L 161.2605 49.376433 
L 162.7155 48.998678 
L 164.1705 49.124596 
L 165.6255 49.376433 
L 167.0805 48.872759 
L 168.5355 49.376433 
L 169.9905 48.998678 
L 171.4455 49.754187 
L 172.9005 50.635616 
L 174.3555 51.642962 
L 175.8105 53.028063 
L 177.2655 55.672347 
L 178.7205 59.953569 
L 180.1755 68.264177 
L 181.6305 74.937847 
L 183.0855 75.693356 
L 184.5405 78.337641 
L 185.9955 79.470905 
L 187.4505 83.122536 
L 188.9055 95.840284 
L 190.3605 100.625179 
L 191.8155 103.899055 
L 193.2705 108.180277 
L 194.7255 114.979865 
L 196.1805 123.164554 
L 197.6355 132.230671 
L 199.0905 135.126792 
L 200.5455 148.851886 
L 202.0005 161.317797 
L 203.4555 171.265343 
L 204.9105 171.643097 
L 206.3655 172.90228 
L 207.8205 174.791055 
L 209.2755 179.953705 
L 210.7305 183.353499 
L 212.1855 194.434309 
L 213.6405 194.434309 
L 215.0955 194.434309 
L 216.5505 194.434309 
L 218.0055 194.434309 
L 219.4605 194.434309 
L 220.9155 194.434309 
L 222.3705 194.434309 
L 223.8255 194.434309 
L 225.2805 193.426963 
L 226.7355 194.434309 
L 228.1905 194.434309 
L 229.6455 194.434309 
L 231.1005 189.397577 
L 232.5555 194.434309 
L 234.0105 194.434309 
L 235.4655 194.434309 
L 236.9205 194.434309 
L 238.3755 194.434309 
L 239.8305 194.434309 
L 241.2855 194.434309 
L 242.7405 194.434309 
L 244.1955 191.034515 
L 245.6505 194.434309 
L 247.1055 193.552881 
L 248.5605 192.671453 
L 250.0155 194.434309 
L 251.4705 194.434309 
L 252.9255 194.434309 
L 254.3805 194.434309 
L 255.8355 194.434309 
L 257.2905 194.434309 
L 258.7455 194.434309 
L 260.2005 194.434309 
L 261.6555 194.434309 
L 263.1105 194.434309 
L 264.5655 194.434309 
L 266.0205 194.434309 
L 267.4755 194.434309 
L 268.9305 194.434309 
L 270.3855 194.434309 
L 271.8405 194.434309 
L 273.2955 194.434309 
L 274.7505 194.434309 
L 276.2055 194.434309 
L 277.6605 194.434309 
L 279.1155 194.434309 
L 280.5705 194.434309 
L 282.0255 194.434309 
L 283.4805 194.434309 
L 283.948599 323.98568 
" clip-path="url(#pee1692b79a)" style="fill: none; stroke: #828231; stroke-width: 1.5; stroke-linecap: square"/>
   </g>
   <g id="LineCollection_1">
    <path d="M 215.0955 285.2214 
L 215.0955 -0.8146 
" clip-path="url(#pee1692b79a)" style="fill: none; stroke-dasharray: 5.55,2.4; stroke-dashoffset: 0; stroke: #000000; stroke-width: 1.5"/>
   </g>
   <g id="patch_3">
    <path d="M 146.7105 256.6178 
L 146.7105 27.789 
" style="fill: none; stroke: #000000; stroke-width: 0.8; stroke-linejoin: miter; stroke-linecap: square"/>
   </g>
   <g id="patch_4">
    <path d="M 423.1605 256.6178 
L 423.1605 27.789 
" style="fill: none; stroke: #000000; stroke-width: 0.8; stroke-linejoin: miter; stroke-linecap: square"/>
   </g>
   <g id="patch_5">
    <path d="M 146.7105 256.6178 
L 423.1605 256.6178 
" style="fill: none; stroke: #000000; stroke-width: 0.8; stroke-linejoin: miter; stroke-linecap: square"/>
   </g>
   <g id="patch_6">
    <path d="M 146.7105 27.789 
L 423.1605 27.789 
" style="fill: none; stroke: #000000; stroke-width: 0.8; stroke-linejoin: miter; stroke-linecap: square"/>
   </g>
   <g id="text_11">
    <!-- Development of CPU frequency and points per used vCPU -->
    <g transform="translate(7.2 21.789) scale(0.192 -0.192)">
     <defs>
      <path id="DejaVuSans-44" d="M 1259 4147 
L 1259 519 
L 2022 519 
Q 2988 519 3436 956 
Q 3884 1394 3884 2338 
Q 3884 3275 3436 3711 
Q 2988 4147 2022 4147 
L 1259 4147 
z
M 628 4666 
L 1925 4666 
Q 3281 4666 3915 4102 
Q 4550 3538 4550 2338 
Q 4550 1131 3912 565 
Q 3275 0 1925 0 
L 628 0 
L 628 4666 
z
" transform="scale(0.015625)"/>
      <path id="DejaVuSans-6c" d="M 603 4863 
L 1178 4863 
L 1178 0 
L 603 0 
L 603 4863 
z
" transform="scale(0.015625)"/>
      <path id="DejaVuSans-70" d="M 1159 525 
L 1159 -1331 
L 581 -1331 
L 581 3500 
L 1159 3500 
L 1159 2969 
Q 1341 3281 1617 3432 
Q 1894 3584 2278 3584 
Q 2916 3584 3314 3078 
Q 3713 2572 3713 1747 
Q 3713 922 3314 415 
Q 2916 -91 2278 -91 
Q 1894 -91 1617 61 
Q 1341 213 1159 525 
z
M 3116 1747 
Q 3116 2381 2855 2742 
Q 2594 3103 2138 3103 
Q 1681 3103 1420 2742 
Q 1159 2381 1159 1747 
Q 1159 1113 1420 752 
Q 1681 391 2138 391 
Q 2594 391 2855 752 
Q 3116 1113 3116 1747 
z
" transform="scale(0.015625)"/>
      <path id="DejaVuSans-6e" d="M 3513 2113 
L 3513 0 
L 2938 0 
L 2938 2094 
Q 2938 2591 2744 2837 
Q 2550 3084 2163 3084 
Q 1697 3084 1428 2787 
Q 1159 2491 1159 1978 
L 1159 0 
L 581 0 
L 581 3500 
L 1159 3500 
L 1159 2956 
Q 1366 3272 1645 3428 
Q 1925 3584 2291 3584 
Q 2894 3584 3203 3211 
Q 3513 2838 3513 2113 
z
" transform="scale(0.015625)"/>
      <path id="DejaVuSans-74" d="M 1172 4494 
L 1172 3500 
L 2356 3500 
L 2356 3053 
L 1172 3053 
L 1172 1153 
Q 1172 725 1289 603 
Q 1406 481 1766 481 
L 2356 481 
L 2356 0 
L 1766 0 
Q 1100 0 847 248 
Q 594 497 594 1153 
L 594 3053 
L 172 3053 
L 172 3500 
L 594 3500 
L 594 4494 
L 1172 4494 
z
" transform="scale(0.015625)"/>
      <path id="DejaVuSans-72" d="M 2631 2963 
Q 2534 3019 2420 3045 
Q 2306 3072 2169 3072 
Q 1681 3072 1420 2755 
Q 1159 2438 1159 1844 
L 1159 0 
L 581 0 
L 581 3500 
L 1159 3500 
L 1159 2956 
Q 1341 3275 1631 3429 
Q 1922 3584 2338 3584 
Q 2397 3584 2469 3576 
Q 2541 3569 2628 3553 
L 2631 2963 
z
" transform="scale(0.015625)"/>
      <path id="DejaVuSans-71" d="M 947 1747 
Q 947 1113 1208 752 
Q 1469 391 1925 391 
Q 2381 391 2643 752 
Q 2906 1113 2906 1747 
Q 2906 2381 2643 2742 
Q 2381 3103 1925 3103 
Q 1469 3103 1208 2742 
Q 947 2381 947 1747 
z
M 2906 525 
Q 2725 213 2448 61 
Q 2172 -91 1784 -91 
Q 1150 -91 751 415 
Q 353 922 353 1747 
Q 353 2572 751 3078 
Q 1150 3584 1784 3584 
Q 2172 3584 2448 3432 
Q 2725 3281 2906 2969 
L 2906 3500 
L 3481 3500 
L 3481 -1331 
L 2906 -1331 
L 2906 525 
z
" transform="scale(0.015625)"/>
      <path id="DejaVuSans-63" d="M 3122 3366 
L 3122 2828 
Q 2878 2963 2633 3030 
Q 2388 3097 2138 3097 
Q 1578 3097 1268 2742 
Q 959 2388 959 1747 
Q 959 1106 1268 751 
Q 1578 397 2138 397 
Q 2388 397 2633 464 
Q 2878 531 3122 666 
L 3122 134 
Q 2881 22 2623 -34 
Q 2366 -91 2075 -91 
Q 1284 -91 818 406 
Q 353 903 353 1747 
Q 353 2603 823 3093 
Q 1294 3584 2113 3584 
Q 2378 3584 2631 3529 
Q 2884 3475 3122 3366 
z
" transform="scale(0.015625)"/>
      <path id="DejaVuSans-79" d="M 2059 -325 
Q 1816 -950 1584 -1140 
Q 1353 -1331 966 -1331 
L 506 -1331 
L 506 -850 
L 844 -850 
Q 1081 -850 1212 -737 
Q 1344 -625 1503 -206 
L 1606 56 
L 191 3500 
L 800 3500 
L 1894 763 
L 2988 3500 
L 3597 3500 
L 2059 -325 
z
" transform="scale(0.015625)"/>
      <path id="DejaVuSans-69" d="M 603 3500 
L 1178 3500 
L 1178 0 
L 603 0 
L 603 3500 
z
M 603 4863 
L 1178 4863 
L 1178 4134 
L 603 4134 
L 603 4863 
z
" transform="scale(0.015625)"/>
     </defs>
     <use xlink:href="#DejaVuSans-44"/>
     <use xlink:href="#DejaVuSans-65" x="77.001953"/>
     <use xlink:href="#DejaVuSans-76" x="138.525391"/>
     <use xlink:href="#DejaVuSans-65" x="197.705078"/>
     <use xlink:href="#DejaVuSans-6c" x="259.228516"/>
     <use xlink:href="#DejaVuSans-6f" x="287.011719"/>
     <use xlink:href="#DejaVuSans-70" x="348.193359"/>
     <use xlink:href="#DejaVuSans-6d" x="411.669922"/>
     <use xlink:href="#DejaVuSans-65" x="509.082031"/>
     <use xlink:href="#DejaVuSans-6e" x="570.605469"/>
     <use xlink:href="#DejaVuSans-74" x="633.984375"/>
     <use xlink:href="#DejaVuSans-20" x="673.193359"/>
     <use xlink:href="#DejaVuSans-6f" x="704.980469"/>
     <use xlink:href="#DejaVuSans-66" x="766.162109"/>
     <use xlink:href="#DejaVuSans-20" x="801.367188"/>
     <use xlink:href="#DejaVuSans-43" x="833.154297"/>
     <use xlink:href="#DejaVuSans-50" x="902.978516"/>
     <use xlink:href="#DejaVuSans-55" x="963.28125"/>
     <use xlink:href="#DejaVuSans-20" x="1036.474609"/>
     <use xlink:href="#DejaVuSans-66" x="1068.261719"/>
     <use xlink:href="#DejaVuSans-72" x="1103.466797"/>
     <use xlink:href="#DejaVuSans-65" x="1142.330078"/>
     <use xlink:href="#DejaVuSans-71" x="1203.853516"/>
     <use xlink:href="#DejaVuSans-75" x="1267.330078"/>
     <use xlink:href="#DejaVuSans-65" x="1330.708984"/>
     <use xlink:href="#DejaVuSans-6e" x="1392.232422"/>
     <use xlink:href="#DejaVuSans-63" x="1455.611328"/>
     <use xlink:href="#DejaVuSans-79" x="1510.591797"/>
     <use xlink:href="#DejaVuSans-20" x="1569.771484"/>
     <use xlink:href="#DejaVuSans-61" x="1601.558594"/>
     <use xlink:href="#DejaVuSans-6e" x="1662.837891"/>
     <use xlink:href="#DejaVuSans-64" x="1726.216797"/>
     <use xlink:href="#DejaVuSans-20" x="1789.693359"/>
     <use xlink:href="#DejaVuSans-70" x="1821.480469"/>
     <use xlink:href="#DejaVuSans-6f" x="1884.957031"/>
     <use xlink:href="#DejaVuSans-69" x="1946.138672"/>
     <use xlink:href="#DejaVuSans-6e" x="1973.921875"/>
     <use xlink:href="#DejaVuSans-74" x="2037.300781"/>
     <use xlink:href="#DejaVuSans-73" x="2076.509766"/>
     <use xlink:href="#DejaVuSans-20" x="2128.609375"/>
     <use xlink:href="#DejaVuSans-70" x="2160.396484"/>
     <use xlink:href="#DejaVuSans-65" x="2223.873047"/>
     <use xlink:href="#DejaVuSans-72" x="2285.396484"/>
     <use xlink:href="#DejaVuSans-20" x="2326.509766"/>
     <use xlink:href="#DejaVuSans-75" x="2358.296875"/>
     <use xlink:href="#DejaVuSans-73" x="2421.675781"/>
     <use xlink:href="#DejaVuSans-65" x="2473.775391"/>
     <use xlink:href="#DejaVuSans-64" x="2535.298828"/>
     <use xlink:href="#DejaVuSans-20" x="2598.775391"/>
     <use xlink:href="#DejaVuSans-76" x="2630.5625"/>
     <use xlink:href="#DejaVuSans-43" x="2689.742188"/>
     <use xlink:href="#DejaVuSans-50" x="2759.566406"/>
     <use xlink:href="#DejaVuSans-55" x="2819.869141"/>
    </g>
   </g>
   <g id="legend_1">
    <g id="patch_7">
     <path d="M 37.07425 317.78568 
L 536.79675 317.78568 
Q 539.99675 317.78568 539.99675 314.58568 
L 539.99675 292.70068 
Q 539.99675 289.50068 536.79675 289.50068 
L 37.07425 289.50068 
Q 33.87425 289.50068 33.87425 292.70068 
L 33.87425 314.58568 
Q 33.87425 317.78568 37.07425 317.78568 
z
" style="fill: #4d4d4d; opacity: 0.5; stroke: #4d4d4d; stroke-linejoin: miter"/>
    </g>
    <g id="patch_8">
     <path d="M 35.07425 315.78568 
L 534.79675 315.78568 
Q 537.99675 315.78568 537.99675 312.58568 
L 537.99675 290.70068 
Q 537.99675 287.50068 534.79675 287.50068 
L 35.07425 287.50068 
Q 31.87425 287.50068 31.87425 290.70068 
L 31.87425 312.58568 
Q 31.87425 315.78568 35.07425 315.78568 
z
" style="fill: #ffffff; stroke: #cccccc; stroke-linejoin: miter"/>
    </g>
    <g id="line2d_11">
     <path d="M 38.27425 300.45818 
L 54.27425 300.45818 
L 70.27425 300.45818 
" style="fill: none; stroke: #226061; stroke-width: 1.5; stroke-linecap: square"/>
    </g>
    <g id="text_12">
     <!-- Whetstone score / vCPU -->
     <g transform="translate(83.07425 306.05818) scale(0.16 -0.16)">
      <defs>
       <path id="DejaVuSans-57" d="M 213 4666 
L 850 4666 
L 1831 722 
L 2809 4666 
L 3519 4666 
L 4500 722 
L 5478 4666 
L 6119 4666 
L 4947 0 
L 4153 0 
L 3169 4050 
L 2175 0 
L 1381 0 
L 213 4666 
z
" transform="scale(0.015625)"/>
       <path id="DejaVuSans-68" d="M 3513 2113 
L 3513 0 
L 2938 0 
L 2938 2094 
Q 2938 2591 2744 2837 
Q 2550 3084 2163 3084 
Q 1697 3084 1428 2787 
Q 1159 2491 1159 1978 
L 1159 0 
L 581 0 
L 581 4863 
L 1159 4863 
L 1159 2956 
Q 1366 3272 1645 3428 
Q 1925 3584 2291 3584 
Q 2894 3584 3203 3211 
Q 3513 2838 3513 2113 
z
" transform="scale(0.015625)"/>
       <path id="DejaVuSans-2f" d="M 1625 4666 
L 2156 4666 
L 531 -594 
L 0 -594 
L 1625 4666 
z
" transform="scale(0.015625)"/>
      </defs>
      <use xlink:href="#DejaVuSans-57"/>
      <use xlink:href="#DejaVuSans-68" x="98.876953"/>
      <use xlink:href="#DejaVuSans-65" x="162.255859"/>
      <use xlink:href="#DejaVuSans-74" x="223.779297"/>
      <use xlink:href="#DejaVuSans-73" x="262.988281"/>
      <use xlink:href="#DejaVuSans-74" x="315.087891"/>
      <use xlink:href="#DejaVuSans-6f" x="354.296875"/>
      <use xlink:href="#DejaVuSans-6e" x="415.478516"/>
      <use xlink:href="#DejaVuSans-65" x="478.857422"/>
      <use xlink:href="#DejaVuSans-20" x="540.380859"/>
      <use xlink:href="#DejaVuSans-73" x="572.167969"/>
      <use xlink:href="#DejaVuSans-63" x="624.267578"/>
      <use xlink:href="#DejaVuSans-6f" x="679.248047"/>
      <use xlink:href="#DejaVuSans-72" x="740.429688"/>
      <use xlink:href="#DejaVuSans-65" x="779.292969"/>
      <use xlink:href="#DejaVuSans-20" x="840.816406"/>
      <use xlink:href="#DejaVuSans-2f" x="872.603516"/>
      <use xlink:href="#DejaVuSans-20" x="906.294922"/>
      <use xlink:href="#DejaVuSans-76" x="938.082031"/>
      <use xlink:href="#DejaVuSans-43" x="997.261719"/>
      <use xlink:href="#DejaVuSans-50" x="1067.085938"/>
      <use xlink:href="#DejaVuSans-55" x="1127.388672"/>
     </g>
    </g>
    <g id="line2d_12">
     <path d="M 307.16425 300.45818 
L 323.16425 300.45818 
L 339.16425 300.45818 
" style="fill: none; stroke: #828231; stroke-width: 1.5; stroke-linecap: square"/>
    </g>
    <g id="text_13">
     <!-- CPU frequency top 5% -->
     <g transform="translate(351.96425 306.05818) scale(0.16 -0.16)">
      <use xlink:href="#DejaVuSans-43"/>
      <use xlink:href="#DejaVuSans-50" x="69.824219"/>
      <use xlink:href="#DejaVuSans-55" x="130.126953"/>
      <use xlink:href="#DejaVuSans-20" x="203.320312"/>
      <use xlink:href="#DejaVuSans-66" x="235.107422"/>
      <use xlink:href="#DejaVuSans-72" x="270.3125"/>
      <use xlink:href="#DejaVuSans-65" x="309.175781"/>
      <use xlink:href="#DejaVuSans-71" x="370.699219"/>
      <use xlink:href="#DejaVuSans-75" x="434.175781"/>
      <use xlink:href="#DejaVuSans-65" x="497.554688"/>
      <use xlink:href="#DejaVuSans-6e" x="559.078125"/>
      <use xlink:href="#DejaVuSans-63" x="622.457031"/>
      <use xlink:href="#DejaVuSans-79" x="677.4375"/>
      <use xlink:href="#DejaVuSans-20" x="736.617188"/>
      <use xlink:href="#DejaVuSans-74" x="768.404297"/>
      <use xlink:href="#DejaVuSans-6f" x="807.613281"/>
      <use xlink:href="#DejaVuSans-70" x="868.794922"/>
      <use xlink:href="#DejaVuSans-20" x="932.271484"/>
      <use xlink:href="#DejaVuSans-35" x="964.058594"/>
      <use xlink:href="#DejaVuSans-25" x="1027.681641"/>
     </g>
    </g>
   </g>
  </g>
 </g>
 <defs>
  <clipPath id="pee1692b79a">
   <rect x="146.7105" y="27.789" width="276.45" height="228.8288"/>
  </clipPath>
 </defs>
</svg>
